<svg xmlns="http://www.w3.org/2000/svg" viewBox="0 0 428.2 251.21"><defs><style>.cls-1{isolation:isolate;}.cls-2{fill:#d6cdc4;}.cls-3{fill:#e6e8e5;}.cls-4{fill:#9ea1a3;}.cls-5,.cls-9{fill:#eff8f7;}.cls-5{opacity:0.7;}.cls-6{fill:#f3eeed;mix-blend-mode:overlay;}.cls-6,.cls-9{opacity:0.3;}.cls-7{fill:#776568;}.cls-8{fill:#f0faf7;}</style></defs><title>fish2</title><g class="cls-1"><g id="图层_1" data-name="图层 1"><path class="cls-2" d="M299.58,330a24.19,24.19,0,0,0-1.57,4,3.78,3.78,0,0,0-2.33-1s-.33-.07-.41-.07a6.24,6.24,0,0,1-.78-.3.79.79,0,0,0-.2-.11c-.09-.08-.19-.14-.29-.22a3.7,3.7,0,0,1-.28-.28s-.07-.1-.18-.22a2.31,2.31,0,0,0-.78-.72c-.3-.59-.83-.91-1.44-.42-9.51,7.77-14.18,23.29-17.4,36.86-1.5,6.3-3.94,19.48-.14,25.16,9.39,14.11,29-52.05,28.7-61.39C302.41,329.29,300.55,328.14,299.58,330Z" transform="translate(-66.96 -144.49)"/><path class="cls-2" d="M292.76,315.21c-1.2,1.85-2.36,3.78-3.48,5.72-2,.43-4.12,1.2-6.11,1.74a24.14,24.14,0,0,1-11.7.72c.79-1.45-.26-3.51-1.6-2.7-7.14,4.27-13.23,13.09-18.48,20.62a135.11,135.11,0,0,0-14.21,26.53c-2.71,6.75-12.59,31-2.22,27.51,3.88-1.34,29.36-21.18,46.62-48.5,3.91-6.2,7.06-13.43,10.1-20.54.7-.29,1.41-.61,2.06-.93,1.51-.76,1.21-3.38.08-4.34.46-1.24.91-2.49,1.33-3.74C295.73,315.56,293.74,313.73,292.76,315.21Z" transform="translate(-66.96 -144.49)"/><path class="cls-2" d="M386.26,331.52c-.56.65-1.11,1.32-1.66,2a1.76,1.76,0,0,0-.86-.06c-7,1.23-13.95,3.64-21.08,4.73-6.45,1-13.9,4.32-19.86-.67-1.57-1.33-3.05,1-2.49,2.84-5.12,8.6-17.72,37.28-.7,34.67,19.08-2.94,37.9-20.52,49.44-40.28C390.38,332.45,387.81,329.74,386.26,331.52Z" transform="translate(-66.96 -144.49)"/><path class="cls-2" d="M374.43,180.05c-10.81-21.15-29-29.72-48.1-33.54C281.18,137.52,238,161.18,238,167c0,7.54,13.27,13.77,32.86,19,.62,1.85,1.22,3.74,1.83,5.62.3.94,1.19,1.8,2,1.76,15.58-.75,31-3.42,46.51-5.64a238,238,0,0,1,26.18-2.39c4-.12,7.94-.19,11.92-.36,2.68-.12,5.51-1.62,8.19-.66a2.22,2.22,0,0,0,2.62-.8l1.2,1.34C373.38,187.28,376,183.08,374.43,180.05Z" transform="translate(-66.96 -144.49)"/><path class="cls-2" d="M179.08,263.55c-6.16-7.6-15.31-12.28-22.57-18Q144.3,236,132.26,226c-14.69-12.18-28.82-25.84-44.47-35.64-.66-.41-1.93.15-2.81,1.64-14.82,20.84-20,55.79-17.38,83.38,1.72,18.35,6.13,37.88,12.67,54.08,5.39,13.42,13.19,28,23,36.33a2.2,2.2,0,0,0,3.17-.31c13.29-15.79,57.13-73.41,61-80,0,0,0,0,0,0,1.75,1.12,3.35-1.94,2.59-4-1.57-4.18-3.24-7.09-3.89-11.91-.36-2.71-.5-5.52-.59-8.31,3.52,2.76,7.12,5.87,11.08,7.05C178.63,269,180.92,265.82,179.08,263.55Z" transform="translate(-66.96 -144.49)"/><path class="cls-3" d="M162.83,273.56c-3.29-3-6.62-6-9.83-8.92a82.7,82.7,0,0,0-14.89-11.22c-11.64-6.46-24.31-12.69-37.22-11.33-9.27,1-5.79,11-.9,16.9,9,10.86,23.24,15.72,35.62,17.29-1.12.55-2.22,1.08-3.29,1.57a90.59,90.59,0,0,0-16.78,10c-3.06,2.34-13.14,12.09-5.78,16.9,6.72,4.41,13.72.79,19.69-3.69,12.16-9.15,32.63-21.68,44.36-17.38C170.31,280.32,166.59,276.94,162.83,273.56Z" transform="translate(-66.96 -144.49)"/><path class="cls-4" d="M413.49,174.87c-8.45-3.63-23.39-12.71-47.77-15.12-49-4.86-154,51.6-167.42,59.76-13.88,8.43-28.48,15.9-41.8,25.84a2.51,2.51,0,0,0-1.25.9c-10.55,14.41-9.52,42,2.12,55.15a4.62,4.62,0,0,0,2.14,1.33c10.08,5.6,94.86,40.59,200.07,47.42,21.95,1.42,43.29-4.92,63.88-14.76,2.27-1.1.74-7.64-1.37-8.48-20.82-8.28-27.78-37.43-27.37-63.86.32-20.82,4-48.49,16.84-62.52,7.92-2.47,16-1.16,23.92,1.09C438.39,202.45,416.61,176.21,413.49,174.87Z" transform="translate(-66.96 -144.49)"/><path class="cls-5" d="M201.7,217.53A203.89,203.89,0,0,0,196.23,272a263.19,263.19,0,0,0,6.13,47.62q4.3,1.43,8.63,2.78a262.54,262.54,0,0,1-7.44-47.81,213.87,213.87,0,0,1,4.93-60.75C205.78,215.25,203.5,216.51,201.7,217.53Z" transform="translate(-66.96 -144.49)"/><path class="cls-5" d="M272.38,331.74a414,414,0,0,1-7.64-68.57c-.63-27.57,2.31-55.54,9.95-80.94q-5.82,2.42-11.46,4.87c-.28,1-.57,2-.84,3-6,22.4-8.5,46.44-8.68,70.17a431.86,431.86,0,0,0,6,72.79c.12.8.27,1.57.4,2.35q6.79,1.53,13.61,3C273.26,336.17,272.81,334,272.38,331.74Z" transform="translate(-66.96 -144.49)"/><path class="cls-5" d="M334.11,284.09c1.51-43,9.25-85.64,22.92-124.59a102.88,102.88,0,0,0-11,1c-.33.86-.67,1.73-1,2.61-9.43,25.13-15.85,52.29-19.88,79.85-5,34.42-5.7,69.73-3.06,104.6,4.6.63,9.21,1.18,13.82,1.61A532.42,532.42,0,0,1,334.11,284.09Z" transform="translate(-66.96 -144.49)"/><path class="cls-2" d="M438.12,186.55c-20.34-13-26.11-12.06-26.71-11.67-9.06,6-24.4,32.82-27.3,73-2.14,29.69,4.47,66.92,21.45,94.45,1.76,2.83,54.24-21.33,66.1-38.05,3-4.25,7.51-14.52,6.1-20.83,0-1.15-.64-2.7-1.67-2.55-28.41,4.41-43.33,4.66-49,2.25,11.82-1.7,71-16.93,67.92-26.74C482.92,218,448.23,193,438.12,186.55Z" transform="translate(-66.96 -144.49)"/><path class="cls-6" d="M435.77,195.38C416,181.92,390.38,175.86,382.48,204s5,51.77,29.31,62.29c14.47,6.24,53.72-2.9,60.58-15.35C478.7,239.45,457,209.87,435.77,195.38Z" transform="translate(-66.96 -144.49)"/><path class="cls-7" d="M438,238.62c-1-5-4.06-8.93-7.79-10.25s-8,.17-10.75,3.95c-3,4.09-4.06,10.69-2.38,16a14,14,0,0,0,4.8,7.53,8.69,8.69,0,0,0,5.44,1.9,8.59,8.59,0,0,0,5.39-2,8.94,8.94,0,0,0,2.56-2.66A18.65,18.65,0,0,0,438,238.62Z" transform="translate(-66.96 -144.49)"/><path class="cls-8" d="M429.85,233.74a4.26,4.26,0,0,0-3.36-1.83c-1.82,0-3.06,1.33-4.07,3.2a9.21,9.21,0,0,0-1,4.25,6.28,6.28,0,0,0,3.44,5.92c1.47.75,3.47-.18,4.49-1.65a7.8,7.8,0,0,0,.63-1.06c0,.05,0,.06-.06.11A8,8,0,0,0,429.85,233.74Z" transform="translate(-66.96 -144.49)"/><path class="cls-8" d="M432.89,249.91a6.34,6.34,0,0,0-.83-1.76,1.83,1.83,0,0,0-3.09,0c-.75,1.05-.91,3.18,0,4.15a4.45,4.45,0,0,0,1.34,1.06C431.82,254.05,433.41,251.88,432.89,249.91Z" transform="translate(-66.96 -144.49)"/><path class="cls-9" d="M390.56,165.08a111.31,111.31,0,0,0-24.84-5.33c-49-4.86-154,51.6-167.42,59.76-11,6.69-22.44,12.81-33.34,20,16.34,3.38,60.41,7.78,120.83-5.83A177.14,177.14,0,0,0,390.56,165.08Z" transform="translate(-66.96 -144.49)"/></g></g></svg>