<?xml version="1.0" standalone="no"?><!DOCTYPE svg PUBLIC "-//W3C//DTD SVG 1.1//EN" "http://www.w3.org/Graphics/SVG/1.1/DTD/svg11.dtd"><svg t="1532750048433" class="icon" style="" viewBox="0 0 1024 1024" version="1.1" xmlns="http://www.w3.org/2000/svg" p-id="1962" xmlns:xlink="http://www.w3.org/1999/xlink" width="200" height="200"><defs><style type="text/css"></style></defs><path d="M200.704 313.344c-6.144 67.584-8.192 137.216-8.192 204.8 0 69.632 2.048 139.264 8.192 206.848 4.096 59.392 53.248 106.496 112.64 112.64 69.632 6.144 141.312 8.192 208.896 8.192s135.168-2.048 204.8-8.192c59.392-4.096 106.496-53.248 112.64-112.64 6.144-69.632 8.192-137.216 8.192-206.848s-2.048-137.216-8.192-206.848c-4.096-59.392-53.248-106.496-112.64-112.64-67.584-6.144-135.168-8.192-204.8-8.192s-139.264 2.048-208.896 8.192c-61.44 6.144-108.544 55.296-112.64 114.688z" fill="#D8D8D8" p-id="1963"></path><path d="M432.128 139.264c-53.248 45.056-102.4 90.112-151.552 139.264S184.32 378.88 139.264 432.128c-38.912 45.056-38.912 112.64 0 157.696 45.056 53.248 92.16 106.496 141.312 153.6 47.104 47.104 98.304 94.208 149.504 139.264 45.056 38.912 112.64 38.912 157.696 0 53.248-45.056 104.448-92.16 151.552-139.264 49.152-49.152 96.256-100.352 139.264-151.552 38.912-45.056 38.912-112.64 0-157.696-43.008-51.2-90.112-102.4-139.264-151.552-49.152-49.152-100.352-96.256-153.6-141.312-40.96-38.912-106.496-38.912-153.6-2.048z" fill="#fff" p-id="1964"></path><path d="M526.336 342.016c8.192-8.192 22.528-6.144 28.672 2.048 2.048 4.096 4.096 8.192 4.096 12.288v116.736c0 12.288-8.192 20.48-20.48 20.48-4.096 0-10.24-2.048-12.288-4.096L456.704 430.08c-8.192-8.192-10.24-20.48-2.048-28.672 4.096-4.096 71.68-59.392 71.68-59.392z" fill="#43AECD" p-id="1965"></path><path d="M530.432 704.512c-83.968 0-153.6-69.632-153.6-153.6 0-12.288 8.192-20.48 20.48-20.48s20.48 8.192 20.48 20.48c0 61.44 51.2 112.64 112.64 112.64s112.64-51.2 112.64-112.64-51.2-112.64-112.64-112.64c-12.288 0-20.48-8.192-20.48-20.48s8.192-20.48 20.48-20.48c83.968 0 153.6 69.632 153.6 153.6s-69.632 153.6-153.6 153.6z" fill="#43AECD" p-id="1966"></path></svg>