<?xml version="1.0" standalone="no"?><!DOCTYPE svg PUBLIC "-//W3C//DTD SVG 1.1//EN" "http://www.w3.org/Graphics/SVG/1.1/DTD/svg11.dtd"><svg t="1532750128205" class="icon" style="" viewBox="0 0 1024 1024" version="1.1" xmlns="http://www.w3.org/2000/svg" p-id="3767" xmlns:xlink="http://www.w3.org/1999/xlink" width="200" height="200"><defs><style type="text/css"></style></defs><path d="M849.92 294.912c6.144 73.728 10.24 149.504 10.24 225.28s-4.096 151.552-10.24 227.328c-6.144 59.392-53.248 106.496-112.64 112.64-77.824 6.144-153.6 10.24-229.376 10.24-73.728 0-149.504-4.096-223.232-10.24-59.392-6.144-106.496-53.248-112.64-112.64-4.096-73.728-8.192-149.504-8.192-225.28s4.096-151.552 10.24-227.328c4.096-59.392 51.2-106.496 110.592-110.592 73.728-6.144 149.504-10.24 223.232-10.24 75.776 0 153.6 4.096 229.376 10.24 61.44 4.096 108.544 51.2 112.64 110.592z" fill="#D8D8D8" p-id="3768"></path><path d="M788.48 401.408c6.144 67.584 10.24 135.168 10.24 202.752s-4.096 135.168-10.24 204.8c-4.096 38.912-34.816 69.632-73.728 73.728-69.632 6.144-137.216 10.24-204.8 10.24s-133.12-4.096-200.704-10.24c-38.912-4.096-69.632-34.816-73.728-73.728-6.144-67.584-10.24-135.168-10.24-202.752s4.096-135.168 10.24-202.752c4.096-38.912 34.816-69.632 73.728-73.728 65.536-6.144 133.12-10.24 200.704-10.24s137.216 4.096 204.8 10.24c38.912 0 71.68 32.768 73.728 71.68z" fill="#fff" p-id="3769"></path><path d="M419.34848 406.09792c10.1376 1.4336 20.2752 11.5712 18.82112 21.7088-1.4336 4.36224-2.90816 8.704-5.79584 11.59168l-83.98848 83.98848c-8.68352 8.704-20.2752 8.704-28.95872 0-2.90816-2.88768-5.79584-8.68352-5.79584-11.5712l-7.24992-91.2384c0-11.59168 7.24992-21.7088 18.8416-21.7088l94.12608 7.22944z" fill="#43AECD" p-id="3770"></path><path d="M377.344 468.3776c8.68352-8.704 20.2752-8.704 28.95872 0l72.41728 72.3968c8.68352 8.68352 8.68352 20.2752 0 28.95872-8.704 8.68352-20.2752 8.68352-28.95872 0l-72.41728-72.3968c-8.68352-8.704-8.68352-20.2752 0-28.9792zM436.224 290.816c-6.144-10.24-4.096-22.528 4.096-30.72 4.096-2.048 8.192-4.096 12.288-4.096h116.736c12.288 0 20.48 8.192 20.48 20.48 0 4.096-2.048 10.24-4.096 12.288l-59.392 69.632c-8.192 8.192-20.48 10.24-28.672 2.048-2.048-2.048-61.44-69.632-61.44-69.632z" fill="#43AECD" p-id="3771"></path><path d="M512 276.48c-12.288 0-20.48-8.192-20.48-20.48v-102.4c0-12.288 8.192-20.48 20.48-20.48s20.48 8.192 20.48 20.48v102.4c0 12.288-8.192 20.48-20.48 20.48z" fill="#43AECD" p-id="3772"></path><path d="M586.69056 784.87552c-11.59168 0-20.2752-11.59168-18.8416-21.7088 0-5.79584 4.36224-10.15808 7.24992-13.04576l82.55488-82.5344c8.68352-8.704 20.2752-8.704 28.95872 0 2.90816 2.88768 5.79584 8.68352 5.79584 11.5712l7.24992 91.2384c0 11.59168-7.24992 21.7088-18.8416 21.7088l-94.12608-7.22944z" fill="#43AECD" p-id="3773"></path><path d="M631.6032 722.61632c-8.704 8.68352-20.2752 8.68352-28.9792 0l-72.41728-72.41728c-8.68352-8.68352-8.68352-20.2752 0-28.95872 8.704-8.68352 20.2752-8.68352 28.9792 0l72.3968 72.3968c7.24992 7.24992 7.24992 21.72928 0 28.9792z" fill="#43AECD" p-id="3774"></path></svg>