<?xml version="1.0" standalone="no"?><!DOCTYPE svg PUBLIC "-//W3C//DTD SVG 1.1//EN" "http://www.w3.org/Graphics/SVG/1.1/DTD/svg11.dtd"><svg t="1532750116614" class="icon" style="" viewBox="0 0 1024 1024" version="1.1" xmlns="http://www.w3.org/2000/svg" p-id="3379" xmlns:xlink="http://www.w3.org/1999/xlink" width="200" height="200"><defs><style type="text/css"></style></defs><path d="M557.056 878.592c10.24 0 18.432-8.192 18.432-18.432l2.048-329.728-2.048-325.632c0-10.24-8.192-18.432-18.432-18.432s-18.432 8.192-18.432 18.432l-2.048 323.584 2.048 329.728c0 10.24 8.192 20.48 18.432 20.48zM458.752 960.512c10.24 0 18.432-8.192 18.432-18.432l2.048-368.64-2.048-362.496c0-10.24-8.192-18.432-18.432-18.432s-18.432 8.192-18.432 18.432L438.272 573.44l2.048 368.64c-2.048 8.192 8.192 18.432 18.432 18.432z" fill="#D8D8D8" p-id="3380"></path><path d="M284.672 747.52c75.776 6.144 151.552 10.24 225.28 10.24 75.776 0 151.552-4.096 229.376-10.24 59.392-4.096 106.496-51.2 110.592-110.592 6.144-77.824 10.24-155.648 10.24-229.376 0-73.728-4.096-149.504-10.24-223.232-4.096-61.44-51.2-108.544-110.592-112.64C663.552 65.536 587.776 61.44 512 61.44c-75.776 0-151.552 4.096-227.328 10.24C225.28 77.824 178.176 124.928 172.032 184.32c-6.144 73.728-10.24 149.504-10.24 223.232 0 75.776 4.096 153.6 10.24 229.376 6.144 59.392 53.248 106.496 112.64 110.592z" fill="#fff" p-id="3381"></path><path d="M495.616 284.672l-59.392 69.632c-6.144 10.24-4.096 22.528 4.096 30.72 4.096 2.048 8.192 4.096 12.288 4.096h116.736c12.288 0 20.48-8.192 20.48-20.48 0-4.096-2.048-10.24-4.096-12.288L526.336 286.72c-8.192-8.192-20.48-10.24-28.672-2.048 0-2.048 0 0-2.048 0z" fill="#43AECD" p-id="3382"></path><path d="M512 368.64c-12.288 0-20.48 8.192-20.48 20.48v143.36c0 12.288 8.192 20.48 20.48 20.48s20.48-8.192 20.48-20.48v-143.36c0-12.288-8.192-20.48-20.48-20.48z" fill="#43AECD" p-id="3383"></path></svg>