<?xml version="1.0" standalone="no"?><!DOCTYPE svg PUBLIC "-//W3C//DTD SVG 1.1//EN" "http://www.w3.org/Graphics/SVG/1.1/DTD/svg11.dtd"><svg t="1532750103962" class="icon" style="" viewBox="0 0 1024 1024" version="1.1" xmlns="http://www.w3.org/2000/svg" p-id="2991" xmlns:xlink="http://www.w3.org/1999/xlink" width="200" height="200"><defs><style type="text/css"></style></defs><path d="M829.44 329.728c14.336 6.144 20.48 12.288 20.48 18.432s-6.144 12.288-20.48 18.432c-112.64 2.048-223.232 2.048-329.728 2.048s-217.088 0-325.632-2.048c-14.336-6.144-20.48-12.288-20.48-18.432 0-6.144 6.144-12.288 20.48-18.432C280.576 327.68 389.12 327.68 499.712 327.68s219.136 0 329.728 2.048zM849.92 432.128c14.336 6.144 20.48 12.288 20.48 18.432s-6.144 12.288-20.48 18.432c-112.64 2.048-223.232 2.048-329.728 2.048s-217.088 0-325.632-2.048c-14.336-6.144-20.48-12.288-20.48-18.432 0-6.144 6.144-12.288 20.48-18.432C301.056 430.08 409.6 430.08 520.192 430.08s219.136 0 329.728 2.048zM747.52 534.528c14.336 6.144 20.48 12.288 20.48 18.432s-6.144 12.288-20.48 18.432c-112.64 2.048-223.232 2.048-329.728 2.048s-217.088 0-325.632-2.048c-14.336-6.144-20.48-12.288-20.48-18.432 0-6.144 6.144-12.288 20.48-18.432C198.656 532.48 307.2 532.48 417.792 532.48s219.136 0 329.728 2.048zM870.4 636.928c14.336 6.144 20.48 12.288 20.48 18.432s-6.144 12.288-20.48 18.432c-112.64 2.048-223.232 2.048-329.728 2.048s-217.088 0-325.632-2.048c-14.336-6.144-20.48-12.288-20.48-18.432 0-6.144 6.144-12.288 20.48-18.432C321.536 634.88 430.08 634.88 540.672 634.88s219.136 0 329.728 2.048z" fill="#D8D8D8" p-id="2992"></path><path d="M942.08 284.672c6.144 73.728 10.24 149.504 10.24 225.28s-4.096 151.552-10.24 227.328c-6.144 59.392-53.248 106.496-112.64 112.64-75.776 6.144-153.6 10.24-227.328 10.24-73.728 0-149.504-4.096-223.232-10.24-59.392-6.144-106.496-53.248-112.64-112.64-6.144-75.776-10.24-151.552-10.24-227.328 0-75.776 4.096-151.552 10.24-227.328 6.144-59.392 53.248-106.496 112.64-112.64C450.56 167.936 526.336 163.84 602.112 163.84s153.6 4.096 229.376 10.24c59.392 4.096 106.496 51.2 110.592 110.592z" fill="#fff" p-id="2993"></path><path d="M729.088 528.384l-69.632 59.392c-8.192 8.192-22.528 6.144-28.672-2.048-2.048-4.096-4.096-8.192-4.096-12.288v-120.832c0-12.288 8.192-20.48 20.48-20.48 4.096 0 10.24 2.048 12.288 4.096l69.632 59.392c8.192 8.192 10.24 20.48 2.048 28.672 0 2.048-2.048 2.048-2.048 4.096z" fill="#43AECD" p-id="2994"></path><path d="M645.12 512c0 12.288-8.192 20.48-20.48 20.48h-143.36c-12.288 0-20.48-8.192-20.48-20.48s8.192-20.48 20.48-20.48h143.36c12.288 0 20.48 8.192 20.48 20.48z" fill="#43AECD" p-id="2995"></path></svg>