<?xml version="1.0" standalone="no"?><!DOCTYPE svg PUBLIC "-//W3C//DTD SVG 1.1//EN" "http://www.w3.org/Graphics/SVG/1.1/DTD/svg11.dtd"><svg t="1532750095398" class="icon" style="" viewBox="0 0 1024 1024" version="1.1" xmlns="http://www.w3.org/2000/svg" p-id="2863" xmlns:xlink="http://www.w3.org/1999/xlink" width="200" height="200"><defs><style type="text/css"></style></defs><path d="M694.272 829.44c-6.144 14.336-12.288 20.48-18.432 20.48-6.144 0-12.288-6.144-18.432-20.48C655.36 716.8 655.36 606.208 655.36 499.712s0-217.088 2.048-325.632c6.144-14.336 12.288-20.48 18.432-20.48 6.144 0 12.288 6.144 18.432 20.48 2.048 106.496 2.048 215.04 2.048 325.632s0 219.136-2.048 329.728zM591.872 849.92c-6.144 14.336-12.288 20.48-18.432 20.48s-12.288-6.144-18.432-20.48C552.96 737.28 552.96 626.688 552.96 520.192s0-217.088 2.048-325.632c6.144-14.336 12.288-20.48 18.432-20.48 6.144 0 12.288 6.144 18.432 20.48 2.048 106.496 2.048 215.04 2.048 325.632s0 219.136-2.048 329.728zM489.472 747.52c-6.144 14.336-12.288 20.48-18.432 20.48s-12.288-6.144-18.432-20.48C450.56 634.88 450.56 524.288 450.56 417.792s0-217.088 2.048-325.632c6.144-14.336 12.288-20.48 18.432-20.48 6.144 0 12.288 6.144 18.432 20.48 2.048 106.496 2.048 215.04 2.048 325.632s0 219.136-2.048 329.728zM387.072 870.4c-6.144 14.336-12.288 20.48-18.432 20.48s-12.288-6.144-18.432-20.48C348.16 757.76 348.16 647.168 348.16 540.672s0-217.088 2.048-325.632c6.144-14.336 12.288-20.48 18.432-20.48 6.144 0 12.288 6.144 18.432 20.48 2.048 106.496 2.048 215.04 2.048 325.632s0 219.136-2.048 329.728z" fill="#D8D8D8" p-id="2864"></path><path d="M739.328 942.08c-73.728 6.144-149.504 10.24-225.28 10.24s-151.552-4.096-227.328-10.24c-59.392-6.144-106.496-53.248-112.64-112.64C167.936 753.664 163.84 675.84 163.84 602.112c0-73.728 4.096-149.504 10.24-223.232 6.144-59.392 53.248-106.496 112.64-112.64 75.776-6.144 151.552-10.24 227.328-10.24 75.776 0 151.552 4.096 227.328 10.24 59.392 6.144 106.496 53.248 112.64 112.64 2.048 71.68 6.144 147.456 6.144 223.232s-4.096 153.6-10.24 229.376c-4.096 59.392-51.2 106.496-110.592 110.592z" fill="#fff" p-id="2865"></path><path d="M495.616 729.088l-59.392-69.632c-8.192-8.192-6.144-22.528 2.048-28.672 4.096-2.048 8.192-4.096 12.288-4.096h120.832c12.288 0 20.48 8.192 20.48 20.48 0 4.096-2.048 10.24-4.096 12.288l-59.392 69.632c-8.192 8.192-20.48 10.24-28.672 2.048-2.048 0-2.048-2.048-4.096-2.048z" fill="#43AECD" p-id="2866"></path><path d="M512 645.12c-12.288 0-20.48-8.192-20.48-20.48v-143.36c0-12.288 8.192-20.48 20.48-20.48s20.48 8.192 20.48 20.48v143.36c0 12.288-8.192 20.48-20.48 20.48z" fill="#43AECD" p-id="2867"></path></svg>