<?xml version="1.0" standalone="no"?><!DOCTYPE svg PUBLIC "-//W3C//DTD SVG 1.1//EN" "http://www.w3.org/Graphics/SVG/1.1/DTD/svg11.dtd"><svg t="1532750147068" class="icon" style="" viewBox="0 0 1024 1024" version="1.1" xmlns="http://www.w3.org/2000/svg" p-id="4284" xmlns:xlink="http://www.w3.org/1999/xlink" width="200" height="200"><defs><style type="text/css"></style></defs><path d="M235.52 962.56c-83.968 0-122.88-233.472-122.88-450.56s38.912-450.56 122.88-450.56 122.88 233.472 122.88 450.56-38.912 450.56-122.88 450.56z m0-860.16c-28.672 0-81.92 145.408-81.92 409.6s53.248 409.6 81.92 409.6 81.92-145.408 81.92-409.6-53.248-409.6-81.92-409.6z" fill="#D8D8D8" p-id="4285"></path><path d="M790.528 849.92c-73.728 6.144-149.504 10.24-225.28 10.24s-151.552-4.096-227.328-10.24c-59.392-6.144-106.496-53.248-112.64-112.64-6.144-77.824-10.24-153.6-10.24-229.376 0-73.728 4.096-149.504 10.24-223.232 6.144-59.392 53.248-106.496 112.64-112.64 75.776-6.144 151.552-10.24 227.328-10.24s151.552 4.096 227.328 10.24c59.392 6.144 106.496 53.248 112.64 112.64 2.048 73.728 6.144 149.504 6.144 225.28s-4.096 151.552-10.24 229.376c-4.096 59.392-51.2 106.496-110.592 110.592z" fill="#fff" p-id="4286"></path><path d="M870.4 532.48h-20.48c-12.288 0-20.48-8.192-20.48-20.48s8.192-20.48 20.48-20.48h20.48c12.288 0 20.48 8.192 20.48 20.48s-8.192 20.48-20.48 20.48z m-122.88 0h-20.48c-12.288 0-20.48-8.192-20.48-20.48s8.192-20.48 20.48-20.48h20.48c12.288 0 20.48 8.192 20.48 20.48s-8.192 20.48-20.48 20.48z m-122.88 0h-20.48c-12.288 0-20.48-8.192-20.48-20.48s8.192-20.48 20.48-20.48h20.48c12.288 0 20.48 8.192 20.48 20.48s-8.192 20.48-20.48 20.48z m-122.88 0h-20.48c-12.288 0-20.48-8.192-20.48-20.48s8.192-20.48 20.48-20.48h20.48c12.288 0 20.48 8.192 20.48 20.48s-8.192 20.48-20.48 20.48z m-122.88 0h-20.48c-12.288 0-20.48-8.192-20.48-20.48s8.192-20.48 20.48-20.48h20.48c12.288 0 20.48 8.192 20.48 20.48s-8.192 20.48-20.48 20.48z m-122.88 0h-20.48c-12.288 0-20.48-8.192-20.48-20.48s8.192-20.48 20.48-20.48h20.48c12.288 0 20.48 8.192 20.48 20.48s-8.192 20.48-20.48 20.48z" fill="#FFFFFF" p-id="4287"></path><path d="M481.28 354.304c-8.192 8.192-6.144 22.528 2.048 28.672 4.096 2.048 8.192 4.096 12.288 4.096H614.4c12.288 0 20.48-8.192 20.48-20.48 0-4.096-2.048-8.192-4.096-12.288l-59.392-69.632c-8.192-8.192-20.48-10.24-28.672-2.048-4.096 4.096-61.44 71.68-61.44 71.68z" fill="#43AECD" p-id="4288"></path><path d="M552.96 358.4c-12.288 0-20.48 8.192-20.48 20.48v143.36c0 12.288 8.192 20.48 20.48 20.48s20.48-8.192 20.48-20.48v-143.36c0-12.288-8.192-20.48-20.48-20.48zM481.28 669.696c-8.192-8.192-6.144-22.528 2.048-28.672 4.096-2.048 8.192-4.096 12.288-4.096H614.4c12.288 0 20.48 8.192 20.48 20.48 0 4.096-2.048 8.192-4.096 12.288l-59.392 69.632c-8.192 8.192-20.48 10.24-28.672 2.048-2.048-2.048-61.44-71.68-61.44-71.68z" fill="#43AECD" p-id="4289"></path><path d="M552.96 665.6c-12.288 0-20.48-8.192-20.48-20.48v-143.36c0-12.288 8.192-20.48 20.48-20.48s20.48 8.192 20.48 20.48v143.36c0 12.288-8.192 20.48-20.48 20.48z" fill="#43AECD" p-id="4290"></path></svg>