<?xml version="1.0" standalone="no"?><!DOCTYPE svg PUBLIC "-//W3C//DTD SVG 1.1//EN" "http://www.w3.org/Graphics/SVG/1.1/DTD/svg11.dtd"><svg t="1532750078916" class="icon" style="" viewBox="0 0 1024 1024" version="1.1" xmlns="http://www.w3.org/2000/svg" p-id="2477" xmlns:xlink="http://www.w3.org/1999/xlink" width="200" height="200"><defs><style type="text/css"></style></defs><path d="M509.952 860.16c75.776 0 151.552-4.096 227.328-10.24 59.392-6.144 106.496-53.248 112.64-112.64 6.144-77.824 10.24-153.6 10.24-229.376 0-73.728-4.096-149.504-10.24-223.232-4.096-59.392-51.2-106.496-110.592-110.592C663.552 167.936 587.776 163.84 512 163.84l-2.048 696.32z" fill="#fff" p-id="2478"></path><path d="M512 163.84c-75.776 0-151.552 4.096-227.328 10.24-59.392 4.096-106.496 51.2-110.592 110.592-6.144 73.728-10.24 149.504-10.24 225.28s4.096 153.6 10.24 229.376c6.144 59.392 53.248 106.496 112.64 112.64 73.728 6.144 149.504 10.24 225.28 10.24V163.84z" fill="#D8D8D8" p-id="2479"></path><path d="M512 860.16l-75.776 36.864c-30.72 14.336-67.584 2.048-81.92-26.624-4.096-8.192-6.144-18.432-6.144-26.624V182.272c0-34.816 26.624-61.44 61.44-61.44 10.24 0 18.432 2.048 26.624 6.144L512 163.84v696.32z" fill="#5A617F" p-id="2480"></path><path d="M387.072 528.384l69.632 59.392c10.24 6.144 22.528 4.096 30.72-4.096 2.048-4.096 4.096-8.192 4.096-12.288v-116.736c0-12.288-8.192-20.48-20.48-20.48-4.096 0-10.24 2.048-12.288 4.096L389.12 497.664c-8.192 8.192-10.24 20.48-2.048 28.672-2.048 0 0 0 0 2.048z" fill="#43AECD" p-id="2481"></path><path d="M471.04 512c0 12.288 8.192 20.48 20.48 20.48h143.36c12.288 0 20.48-8.192 20.48-20.48s-8.192-20.48-20.48-20.48h-143.36c-12.288 0-20.48 8.192-20.48 20.48z" fill="#43AECD" p-id="2482"></path></svg>