<?xml version="1.0" standalone="no"?><!DOCTYPE svg PUBLIC "-//W3C//DTD SVG 1.1//EN" "http://www.w3.org/Graphics/SVG/1.1/DTD/svg11.dtd"><svg t="1532750143510" class="icon" style="" viewBox="0 0 1024 1024" version="1.1" xmlns="http://www.w3.org/2000/svg" p-id="4156" xmlns:xlink="http://www.w3.org/1999/xlink" width="200" height="200"><defs><style type="text/css"></style></defs><path d="M880.64 923.648c-124.928 2.048-622.592 2.048-743.424 0-20.48 0-38.912-18.432-38.912-38.912 0-20.48 16.384-38.912 38.912-38.912 122.88-2.048 616.448-2.048 743.424 0 20.48 0 38.912 18.432 38.912 38.912 0 22.528-18.432 38.912-38.912 38.912z" fill="#D8D8D8" p-id="4157"></path><path d="M870.4 661.504c-57.344 38.912-116.736 77.824-176.128 112.64-59.392 34.816-120.832 65.536-180.224 94.208-53.248 24.576-118.784 8.192-153.6-40.96-38.912-57.344-75.776-114.688-110.592-174.08S184.32 532.48 153.6 468.992c-24.576-53.248-8.192-118.784 40.96-153.6 55.296-38.912 112.64-75.776 172.032-108.544 59.392-34.816 120.832-67.584 186.368-96.256 55.296-24.576 118.784-8.192 153.6 40.96 38.912 57.344 75.776 114.688 110.592 176.128 34.816 59.392 65.536 120.832 96.256 182.272 24.576 53.248 8.192 116.736-43.008 151.552z" fill="#fff" p-id="4158"></path><path d="M333.824 522.24c-4.096 10.24 4.096 22.528 14.336 24.576l88.064 26.624c4.096 2.048 10.24 2.048 14.336 0 10.24-4.096 14.336-16.384 10.24-26.624l-45.056-108.544c-2.048-4.096-6.144-8.192-10.24-10.24-10.24-6.144-22.528-2.048-26.624 8.192 0 0-43.008 79.872-45.056 86.016z" fill="#43AECD" p-id="4159"></path><path d="M727.04 524.288c8.192-8.192 6.144-22.528-2.048-28.672-92.16-79.872-198.656-83.968-315.392-10.24-10.24 6.144-12.288 18.432-6.144 28.672 6.144 10.24 18.432 12.288 28.672 6.144 100.352-63.488 188.416-61.44 268.288 6.144 8.192 6.144 20.48 4.096 26.624-2.048z" fill="#43AECD" p-id="4160"></path></svg>