<?xml version="1.0" standalone="no"?><!DOCTYPE svg PUBLIC "-//W3C//DTD SVG 1.1//EN" "http://www.w3.org/Graphics/SVG/1.1/DTD/svg11.dtd"><svg t="1532750109110" class="icon" style="" viewBox="0 0 1024 1024" version="1.1" xmlns="http://www.w3.org/2000/svg" p-id="3119" xmlns:xlink="http://www.w3.org/1999/xlink" width="200" height="200"><defs><style type="text/css"></style></defs><path d="M466.944 143.36c-10.24 0-18.432 8.192-18.432 18.432L446.464 491.52l2.048 325.632c0 10.24 8.192 18.432 18.432 18.432s18.432-8.192 18.432-18.432l2.048-325.632-2.048-329.728c0-10.24-8.192-18.432-18.432-18.432zM565.248 61.44c-10.24 0-18.432 8.192-18.432 18.432L544.768 450.56l2.048 362.496c0 10.24 8.192 18.432 18.432 18.432s18.432-8.192 18.432-18.432l2.048-362.496-2.048-368.64c2.048-12.288-8.192-20.48-18.432-20.48z" fill="#D8D8D8" p-id="3120"></path><path d="M739.328 272.384c-73.728-6.144-149.504-10.24-225.28-10.24s-151.552 4.096-227.328 10.24c-59.392 6.144-106.496 53.248-112.64 112.64C167.936 462.848 163.84 538.624 163.84 614.4c0 73.728 4.096 149.504 10.24 223.232 6.144 59.392 53.248 106.496 112.64 112.64 73.728 6.144 149.504 10.24 225.28 10.24s151.552-4.096 227.328-10.24c59.392-6.144 106.496-53.248 110.592-112.64 6.144-73.728 10.24-147.456 10.24-223.232s-4.096-153.6-10.24-229.376c-4.096-59.392-51.2-106.496-110.592-112.64z" fill="#fff" p-id="3121"></path><path d="M528.384 735.232l59.392-69.632c8.192-8.192 6.144-22.528-2.048-28.672-4.096-2.048-8.192-4.096-12.288-4.096h-116.736c-12.288 0-20.48 8.192-20.48 20.48 0 4.096 2.048 10.24 4.096 12.288l59.392 69.632c8.192 8.192 20.48 10.24 28.672 2.048-2.048 0-2.048 0 0-2.048z" fill="#43AECD" p-id="3122"></path><path d="M512 653.312c12.288 0 20.48-8.192 20.48-20.48v-143.36c0-12.288-8.192-20.48-20.48-20.48s-20.48 8.192-20.48 20.48v143.36c0 10.24 8.192 20.48 20.48 20.48z" fill="#43AECD" p-id="3123"></path></svg>