<?xml version="1.0" standalone="no"?><!DOCTYPE svg PUBLIC "-//W3C//DTD SVG 1.1//EN" "http://www.w3.org/Graphics/SVG/1.1/DTD/svg11.dtd"><svg t="1532750073807" class="icon" style="" viewBox="0 0 1024 1024" version="1.1" xmlns="http://www.w3.org/2000/svg" p-id="2348" xmlns:xlink="http://www.w3.org/1999/xlink" width="200" height="200"><defs><style type="text/css"></style></defs><path d="M860.16 514.048c0-75.776-4.096-151.552-10.24-227.328-4.096-61.44-51.2-108.544-110.592-112.64-77.824-6.144-155.648-10.24-229.376-10.24-73.728 0-149.504 4.096-223.232 10.24-61.44 4.096-108.544 51.2-112.64 110.592C167.936 360.448 163.84 436.224 163.84 512l696.32 2.048z" fill="#fff" p-id="2349"></path><path d="M163.84 512c0 75.776 4.096 151.552 10.24 227.328 6.144 59.392 53.248 106.496 112.64 112.64 73.728 6.144 149.504 10.24 223.232 10.24 75.776 0 153.6-4.096 229.376-10.24 59.392-6.144 106.496-53.248 112.64-112.64 6.144-73.728 10.24-149.504 10.24-225.28L163.84 512z" fill="#D8D8D8" p-id="2350"></path><path d="M860.16 512l36.864 75.776c14.336 30.72 2.048 67.584-26.624 81.92-8.192 4.096-18.432 6.144-26.624 6.144H182.272c-34.816 0-61.44-26.624-61.44-61.44 0-10.24 2.048-18.432 6.144-26.624L163.84 512h696.32z" fill="#5A617F" p-id="2351"></path><path d="M528.384 636.928l59.392-69.632c6.144-10.24 4.096-22.528-4.096-30.72-4.096-2.048-8.192-4.096-12.288-4.096h-116.736c-12.288 0-20.48 8.192-20.48 20.48 0 4.096 2.048 10.24 4.096 12.288l59.392 69.632c8.192 8.192 20.48 10.24 28.672 2.048 0 2.048 0 0 2.048 0z" fill="#43AECD" p-id="2352"></path><path d="M512 552.96c12.288 0 20.48-8.192 20.48-20.48v-143.36c0-12.288-8.192-20.48-20.48-20.48s-20.48 8.192-20.48 20.48v143.36c0 12.288 8.192 20.48 20.48 20.48z" fill="#43AECD" p-id="2353"></path></svg>