<?xml version="1.0" standalone="no"?><!DOCTYPE svg PUBLIC "-//W3C//DTD SVG 1.1//EN" "http://www.w3.org/Graphics/SVG/1.1/DTD/svg11.dtd"><svg t="1532750092050" class="icon" style="" viewBox="0 0 1024 1024" version="1.1" xmlns="http://www.w3.org/2000/svg" p-id="2735" xmlns:xlink="http://www.w3.org/1999/xlink" width="200" height="200"><defs><style type="text/css"></style></defs><path d="M194.56 694.272c-14.336-6.144-20.48-12.288-20.48-18.432 0-6.144 6.144-12.288 20.48-18.432C307.2 655.36 417.792 655.36 524.288 655.36s217.088 0 325.632 2.048c14.336 6.144 20.48 12.288 20.48 18.432s-6.144 12.288-20.48 18.432c-106.496 2.048-215.04 2.048-325.632 2.048s-219.136 0-329.728-2.048zM174.08 591.872c-14.336-6.144-20.48-12.288-20.48-18.432s6.144-12.288 20.48-18.432C286.72 552.96 397.312 552.96 503.808 552.96s217.088 0 325.632 2.048c14.336 6.144 20.48 12.288 20.48 18.432 0 6.144-6.144 12.288-20.48 18.432-106.496 2.048-215.04 2.048-325.632 2.048s-219.136 0-329.728-2.048zM276.48 489.472c-14.336-6.144-20.48-12.288-20.48-18.432s6.144-12.288 20.48-18.432C389.12 450.56 499.712 450.56 606.208 450.56s217.088 0 325.632 2.048c14.336 6.144 20.48 12.288 20.48 18.432 0 6.144-6.144 12.288-20.48 18.432-106.496 2.048-215.04 2.048-325.632 2.048s-219.136 0-329.728-2.048zM153.6 387.072c-14.336-6.144-20.48-12.288-20.48-18.432s6.144-12.288 20.48-18.432C266.24 348.16 376.832 348.16 483.328 348.16s217.088 0 325.632 2.048c14.336 6.144 20.48 12.288 20.48 18.432 0 6.144-6.144 12.288-20.48 18.432-106.496 2.048-215.04 2.048-325.632 2.048s-219.136 0-329.728-2.048z" fill="#D8D8D8" p-id="2736"></path><path d="M81.92 739.328c-6.144-73.728-10.24-149.504-10.24-225.28s4.096-151.552 10.24-227.328c4.096-61.44 51.2-108.544 110.592-112.64C270.336 167.936 348.16 163.84 421.888 163.84c73.728 0 149.504 4.096 223.232 10.24 59.392 6.144 106.496 53.248 112.64 112.64 6.144 75.776 10.24 151.552 10.24 227.328 0 75.776-4.096 151.552-10.24 227.328-6.144 59.392-53.248 106.496-112.64 112.64-71.68 2.048-147.456 6.144-223.232 6.144s-153.6-4.096-229.376-10.24C133.12 845.824 86.016 798.72 81.92 739.328z" fill="#fff" p-id="2737"></path><path d="M294.912 495.616l69.632-59.392c8.192-8.192 22.528-6.144 28.672 2.048 2.048 4.096 4.096 8.192 4.096 12.288v116.736c0 12.288-8.192 20.48-20.48 20.48-4.096 0-10.24-2.048-12.288-4.096l-69.632-59.392c-8.192-8.192-10.24-20.48-2.048-28.672 0 2.048 2.048 2.048 2.048 0z" fill="#43AECD" p-id="2738"></path><path d="M378.88 512c0-12.288 8.192-20.48 20.48-20.48h143.36c12.288 0 20.48 8.192 20.48 20.48s-8.192 20.48-20.48 20.48h-143.36c-12.288 0-20.48-8.192-20.48-20.48z" fill="#43AECD" p-id="2739"></path></svg>