<svg width="1024" height="1024" xmlns="http://www.w3.org/2000/svg" class="icon">
 <defs>
  <style type="text/css"/>
 </defs>
 <g>
  <title>background</title>
  <rect x="-1" y="-1" width="1026" height="1026" id="canvas_background" fill="none"/>
 </g>
 <g>
  <title>Layer 1</title>
  <path d="m849.92,284.672c6.144,73.728 10.24,149.504 10.24,225.28s-4.096,151.552 -10.24,227.328c-6.144,59.392 -53.248,106.496 -112.64,112.64c-77.824,6.144 -153.6,10.24 -229.376,10.24c-73.728,0 -149.504,-4.096 -223.232,-10.24c-59.392,-4.096 -106.496,-51.2 -110.592,-110.592c-6.144,-75.776 -10.24,-151.552 -10.24,-227.328s4.096,-151.552 10.24,-227.328c4.096,-59.392 51.2,-106.496 110.592,-110.592c73.728,-6.144 149.504,-10.24 225.28,-10.24s153.6,4.096 229.376,10.24c59.392,4.096 106.496,51.2 110.592,110.592z" fill="#D8D8D8" id="svg_1"/>
  <path d="m788.48,308.223952c6.144,67.584 10.24,135.168 10.24,202.752s-4.096,135.168 -10.24,204.8c-4.096,38.912 -34.816,69.632 -73.728,73.728c-69.632,6.144 -137.216,10.24 -204.8,10.24s-133.12,-4.096 -200.704,-10.24c-38.912,-4.096 -69.632,-34.816 -73.728,-73.728c-6.144,-69.632 -10.24,-137.216 -10.24,-204.8s4.096,-135.168 10.24,-202.752c4.096,-38.912 34.816,-69.632 73.728,-73.728c65.536,-6.144 133.12,-10.24 200.704,-10.24s137.216,4.096 204.8,10.24c38.912,2.048 71.68,34.816 73.728,73.728z" fill="#fff" id="svg_2"/>
  <path stroke="null" d="m59.323966,665.640222c-4.096,0 -8.192,0 -10.24,-5.586917c-10.24,-8.380377 -12.288,-25.141131 -6.144,-39.108426c36.864,-81.010311 34.816,-150.846785 -4.096,-215.096342c-8.192,-11.173836 -6.144,-30.728049 2.048,-39.108426c8.192,-11.173836 20.48,-11.173836 28.672,0c51.2,83.80377 55.296,181.574834 6.144,284.932817c-4.096,8.380377 -10.24,13.967294 -16.384,13.967294z" fill="#43AECD" id="svg_4" transform="rotate(180 71.99736785888672,511.99993896484375) "/>
  <path d="m879.328763,624.639981c-4.096,0 -8.192,0 -10.24,-4.096c-10.24,-6.144 -12.288,-18.432 -6.144,-28.672c36.864,-59.392 34.816,-110.592 -4.096,-157.696c-8.192,-8.192 -6.144,-22.528 2.048,-28.672c8.192,-8.192 20.48,-8.192 28.672,0c51.2,61.44 55.296,133.12 6.144,208.896c-4.096,6.144 -10.24,10.24 -16.384,10.24z" fill="#43AECD" id="svg_6" stroke="null"/>
  <path stroke="null" d="m951.329185,667.640228c-4.096,0 -8.192,0 -10.24,-5.659646c-10.24,-8.489468 -12.288,-25.468405 -6.144,-39.617519c36.864,-82.06486 34.816,-152.810429 -4.096,-217.896352c-8.192,-11.319291 -6.144,-31.12805 2.048,-39.617519c8.192,-11.319291 20.48,-11.319291 28.672,0c51.2,84.894683 55.296,183.938479 6.144,288.641921c-4.096,8.489468 -10.24,14.149114 -16.384,14.149114z" fill="#43AECD" id="svg_5"/>
  <path d="m127.324365,624.639966c-4.096,0 -8.192,0 -10.24,-4.096c-10.24,-6.144 -12.288,-18.432 -6.144,-28.672c36.864,-59.392 34.816,-110.592 -4.096,-157.696c-8.192,-8.192 -6.144,-22.528 2.048,-28.672c8.192,-8.192 20.48,-8.192 28.672,0c51.2,61.44 55.296,133.12 6.144,208.896c-4.096,6.144 -10.24,10.24 -16.384,10.24z" fill="#43AECD" id="svg_7" stroke="null" transform="rotate(180 139.99774169921875,511.99993896484375) "/>
 </g>
</svg>