<?xml version="1.0" encoding="utf-8"?>
<!-- Generator: Adobe Illustrator 15.0.0, SVG Export Plug-In . SVG Version: 6.00 Build 0)  -->
<!DOCTYPE svg PUBLIC "-//W3C//DTD SVG 1.0//EN" "http://www.w3.org/TR/2001/REC-SVG-20010904/DTD/svg10.dtd">
<svg version="1.0" id="_x37_1" xmlns="http://www.w3.org/2000/svg" xmlns:xlink="http://www.w3.org/1999/xlink" x="0px" y="0px"
	 width="55.616px" height="83.084px" viewBox="0 0 55.616 83.084" enable-background="new 0 0 55.616 83.084" xml:space="preserve">
<g>
	<rect x="4.75" y="64.432" fill="#333333" width="29.582" height="14.315"/>
	<linearGradient id="SVGID_1_" gradientUnits="userSpaceOnUse" x1="79.0791" y1="55.9883" x2="16.9929" y2="88.8575">
		<stop  offset="0" style="stop-color:#000000"/>
		<stop  offset="0.5" style="stop-color:#333333"/>
		<stop  offset="1" style="stop-color:#000000"/>
	</linearGradient>
	<polygon fill="url(#SVGID_1_)" points="39.354,72.66 32.43,73.041 36.995,81.562 45.212,81.562 	"/>
	<linearGradient id="SVGID_2_" gradientUnits="userSpaceOnUse" x1="36.7031" y1="79.4199" x2="35.1054" y2="80.028">
		<stop  offset="0" style="stop-color:#000000"/>
		<stop  offset="0.5" style="stop-color:#333333"/>
		<stop  offset="1" style="stop-color:#000000"/>
	</linearGradient>
	<polygon fill="url(#SVGID_2_)" points="48.104,81.562 48.104,83.084 35.931,83.084 32.43,73.041 33.648,73.041 36.995,81.562 	"/>
	
		<radialGradient id="SVGID_3_" cx="-43.5645" cy="-48.6523" r="32.581" gradientTransform="matrix(0.913 0 0 0.913 74.1786 87.1816)" gradientUnits="userSpaceOnUse">
		<stop  offset="0" style="stop-color:#929192"/>
		<stop  offset="0.2382" style="stop-color:#BDBCBD"/>
		<stop  offset="0.4371" style="stop-color:#DADADB"/>
		<stop  offset="0.55" style="stop-color:#E5E5E6"/>
		<stop  offset="0.6383" style="stop-color:#DBDBDC"/>
		<stop  offset="0.787" style="stop-color:#C2C1C2"/>
		<stop  offset="0.9767" style="stop-color:#989798"/>
		<stop  offset="1" style="stop-color:#929192"/>
	</radialGradient>
	<path fill="url(#SVGID_3_)" d="M55.616,48.884c0,15.357-12.45,27.808-27.808,27.808C12.45,76.691,0,64.241,0,48.884
		c0-14.051,12.45-27.809,27.809-27.809C43.166,21.075,55.616,33.525,55.616,48.884z"/>
	
		<radialGradient id="SVGID_4_" cx="-50.7891" cy="-41.9463" r="20.1167" gradientTransform="matrix(0.913 0 0 0.913 74.1786 87.1816)" gradientUnits="userSpaceOnUse">
		<stop  offset="0.4121" style="stop-color:#C8C9CA"/>
		<stop  offset="0.5057" style="stop-color:#C6C7C8"/>
		<stop  offset="0.5394" style="stop-color:#C0C0C1"/>
		<stop  offset="0.5634" style="stop-color:#B4B5B6"/>
		<stop  offset="0.5829" style="stop-color:#A3A4A5"/>
		<stop  offset="0.5993" style="stop-color:#8E8E8F"/>
		<stop  offset="0.6138" style="stop-color:#747374"/>
		<stop  offset="0.6154" style="stop-color:#717071"/>
	</radialGradient>
	<circle fill="url(#SVGID_4_)" cx="27.808" cy="48.884" r="18.367"/>
	<linearGradient id="SVGID_5_" gradientUnits="userSpaceOnUse" x1="33.2627" y1="30.7344" x2="33.2627" y2="30.7344">
		<stop  offset="0" style="stop-color:#929192"/>
		<stop  offset="0.2598" style="stop-color:#BDBCBD"/>
		<stop  offset="0.4768" style="stop-color:#DADADB"/>
		<stop  offset="0.6" style="stop-color:#E5E5E6"/>
		<stop  offset="0.6785" style="stop-color:#DBDBDC"/>
		<stop  offset="0.8106" style="stop-color:#C2C1C2"/>
		<stop  offset="0.9793" style="stop-color:#989798"/>
		<stop  offset="1" style="stop-color:#929192"/>
	</linearGradient>
	<path fill="url(#SVGID_5_)" d="M33.263,30.734"/>
	<linearGradient id="SVGID_6_" gradientUnits="userSpaceOnUse" x1="33.2627" y1="30.7344" x2="33.2627" y2="30.7344">
		<stop  offset="0" style="stop-color:#929192"/>
		<stop  offset="0.2598" style="stop-color:#BDBCBD"/>
		<stop  offset="0.4768" style="stop-color:#DADADB"/>
		<stop  offset="0.6" style="stop-color:#E5E5E6"/>
		<stop  offset="0.6785" style="stop-color:#DBDBDC"/>
		<stop  offset="0.8106" style="stop-color:#C2C1C2"/>
		<stop  offset="0.9793" style="stop-color:#989798"/>
		<stop  offset="1" style="stop-color:#929192"/>
	</linearGradient>
	<path fill="url(#SVGID_6_)" stroke="#1A1A1A" stroke-width="0.5" d="M33.263,30.734"/>
	<circle fill="#4D4D4D" cx="27.808" cy="48.885" r="8.576"/>
	
		<radialGradient id="SVGID_7_" cx="-47.9351" cy="-36.4507" r="9.8669" gradientTransform="matrix(0.913 0 0 0.913 74.1786 87.1816)" gradientUnits="userSpaceOnUse">
		<stop  offset="0" style="stop-color:#333333"/>
		<stop  offset="1" style="stop-color:#000000"/>
	</radialGradient>
	<circle fill="url(#SVGID_7_)" cx="27.808" cy="48.885" r="6.912"/>
	
		<radialGradient id="SVGID_8_" cx="-43.5645" cy="-46.1445" r="31.0159" gradientTransform="matrix(0.913 0 0 0.913 74.1786 87.1816)" gradientUnits="userSpaceOnUse">
		<stop  offset="0" style="stop-color:#929192"/>
		<stop  offset="0.2598" style="stop-color:#BDBCBD"/>
		<stop  offset="0.4768" style="stop-color:#DADADB"/>
		<stop  offset="0.6" style="stop-color:#E5E5E6"/>
		<stop  offset="0.6785" style="stop-color:#DBDBDC"/>
		<stop  offset="0.8106" style="stop-color:#C2C1C2"/>
		<stop  offset="0.9793" style="stop-color:#989798"/>
		<stop  offset="1" style="stop-color:#929192"/>
	</radialGradient>
	<path fill="url(#SVGID_8_)" d="M36.727,22.537l-1.484-0.454c-6.69-2.032-11.922-0.608-11.922-0.608s0.904,3.111,2.909,5.116
		s4.861,4.219,4.861,4.219c8.578,1.548,15.084,9.052,15.084,18.074c0,10.144-8.223,18.367-18.366,18.367S9.441,59.027,9.441,48.884
		c0-8.739,6.104-16.054,14.282-17.91l-6.396-7.854C7.164,27.257,0,37.234,0,48.884c0,15.357,12.45,27.808,27.809,27.808
		c15.357,0,27.808-12.45,27.808-27.808C55.616,36.645,47.711,26.254,36.727,22.537z"/>
	<linearGradient id="SVGID_9_" gradientUnits="userSpaceOnUse" x1="13.5615" y1="2.5107" x2="41.4082" y2="2.5107">
		<stop  offset="0" style="stop-color:#9A9DA3"/>
		<stop  offset="0.15" style="stop-color:#B6B7B5"/>
		<stop  offset="0.5" style="stop-color:#FFFFFF"/>
		<stop  offset="0.85" style="stop-color:#B6B7B5"/>
		<stop  offset="1" style="stop-color:#9A9DA3"/>
	</linearGradient>
	<rect x="13.562" fill="url(#SVGID_9_)" width="27.847" height="5.021"/>
	
		<linearGradient id="SVGID_10_" gradientUnits="userSpaceOnUse" x1="-316.665" y1="164.6807" x2="-288.9375" y2="164.6807" gradientTransform="matrix(0.7213 0 0 1.1818 245.8947 -186.6317)">
		<stop  offset="0" style="stop-color:#929192"/>
		<stop  offset="0.0824" style="stop-color:#A7A7A7"/>
		<stop  offset="0.2824" style="stop-color:#D7D6D7"/>
		<stop  offset="0.4356" style="stop-color:#F4F4F4"/>
		<stop  offset="0.5225" style="stop-color:#FFFFFF"/>
		<stop  offset="0.599" style="stop-color:#F5F5F5"/>
		<stop  offset="0.7277" style="stop-color:#DBDBDB"/>
		<stop  offset="0.892" style="stop-color:#B1B1B1"/>
		<stop  offset="1" style="stop-color:#929192"/>
	</linearGradient>
	<rect x="17.484" y="5.021" fill="url(#SVGID_10_)" width="20" height="5.935"/>
	<linearGradient id="SVGID_11_" gradientUnits="userSpaceOnUse" x1="23.502" y1="21.7207" x2="37.7095" y2="11.2017">
		<stop  offset="0" style="stop-color:#929192"/>
		<stop  offset="0.2598" style="stop-color:#BDBCBD"/>
		<stop  offset="0.4768" style="stop-color:#DADADB"/>
		<stop  offset="0.6" style="stop-color:#E5E5E6"/>
		<stop  offset="0.6785" style="stop-color:#DBDBDC"/>
		<stop  offset="0.8106" style="stop-color:#C2C1C2"/>
		<stop  offset="0.9793" style="stop-color:#989798"/>
		<stop  offset="1" style="stop-color:#929192"/>
	</linearGradient>
	<polygon fill="url(#SVGID_11_)" points="43.842,21.912 23.757,21.912 17.441,10.956 37.527,10.956 	"/>
	<linearGradient id="SVGID_12_" gradientUnits="userSpaceOnUse" x1="31.6899" y1="32.7793" x2="45.8962" y2="22.2612">
		<stop  offset="0" style="stop-color:#929192"/>
		<stop  offset="0.2598" style="stop-color:#BDBCBD"/>
		<stop  offset="0.4768" style="stop-color:#DADADB"/>
		<stop  offset="0.6" style="stop-color:#E5E5E6"/>
		<stop  offset="0.6785" style="stop-color:#DBDBDC"/>
		<stop  offset="0.8106" style="stop-color:#C2C1C2"/>
		<stop  offset="0.9793" style="stop-color:#989798"/>
		<stop  offset="1" style="stop-color:#929192"/>
	</linearGradient>
	<path fill="url(#SVGID_12_)" d="M51.197,33.847l-4.215-6.841l0,0l-3.141-5.094L23.32,21.475l22.394,11.91l0,0l3.606,1.917
		C49.32,35.302,53.075,36.894,51.197,33.847z"/>
	<g>
		<g>
			
				<radialGradient id="SVGID_13_" cx="702.1846" cy="2890.0996" r="59.615" gradientTransform="matrix(-0.6473 0.6438 -0.4245 -0.4267 1716.6995 840.4866)" gradientUnits="userSpaceOnUse">
				<stop  offset="0" style="stop-color:#333333"/>
				<stop  offset="1" style="stop-color:#000000"/>
			</radialGradient>
			<polygon fill="url(#SVGID_13_)" points="15.889,39.354 18.916,39.797 18.488,36.769 			"/>
			
				<radialGradient id="SVGID_14_" cx="710.708" cy="-1147.3486" r="59.6238" gradientTransform="matrix(0.6473 -0.6438 0.4245 0.4267 62.3289 1006.4739)" gradientUnits="userSpaceOnUse">
				<stop  offset="0" style="stop-color:#333333"/>
				<stop  offset="1" style="stop-color:#000000"/>
			</radialGradient>
			<polygon fill="url(#SVGID_14_)" points="39.08,57.471 36.054,57.028 36.48,60.057 			"/>
		</g>
		<g>
			
				<radialGradient id="SVGID_15_" cx="45.0337" cy="2620.5488" r="50.0694" gradientTransform="matrix(-0.2387 0.8812 -0.5809 -0.1573 1568.3442 431.8704)" gradientUnits="userSpaceOnUse">
				<stop  offset="0" style="stop-color:#333333"/>
				<stop  offset="1" style="stop-color:#000000"/>
			</radialGradient>
			<polygon fill="url(#SVGID_15_)" points="12.913,46.364 15.756,45.235 13.871,42.827 			"/>
			
				<radialGradient id="SVGID_16_" cx="1368.4443" cy="-876.2358" r="50.0674" gradientTransform="matrix(0.2387 -0.8812 0.5809 0.1573 217.6792 1403.0505)" gradientUnits="userSpaceOnUse">
				<stop  offset="0" style="stop-color:#333333"/>
				<stop  offset="1" style="stop-color:#000000"/>
			</radialGradient>
			<polygon fill="url(#SVGID_16_)" points="42.056,50.461 39.214,51.588 41.098,53.997 			"/>
		</g>
		<g>
			
				<radialGradient id="SVGID_17_" cx="-434.5361" cy="1884.9531" r="41.459" gradientTransform="matrix(0.2339 0.8825 -0.5819 0.1542 1233.817 152.1635)" gradientUnits="userSpaceOnUse">
				<stop  offset="0" style="stop-color:#333333"/>
				<stop  offset="1" style="stop-color:#000000"/>
			</radialGradient>
			<polygon fill="url(#SVGID_17_)" points="13.842,53.924 15.738,51.523 12.902,50.381 			"/>
			
				<radialGradient id="SVGID_18_" cx="1849.1299" cy="-145.0674" r="41.4621" gradientTransform="matrix(-0.2339 -0.8825 0.5819 -0.1542 552.2446 1668.8315)" gradientUnits="userSpaceOnUse">
				<stop  offset="0" style="stop-color:#333333"/>
				<stop  offset="1" style="stop-color:#000000"/>
			</radialGradient>
			<polygon fill="url(#SVGID_18_)" points="41.128,42.9 39.23,45.298 42.066,46.442 			"/>
		</g>
		<g>
			
				<radialGradient id="SVGID_19_" cx="-609.7285" cy="887.5322" r="44.4529" gradientTransform="matrix(0.6438 0.6473 -0.4267 0.4245 806.573 77.2634)" gradientUnits="userSpaceOnUse">
				<stop  offset="0" style="stop-color:#333333"/>
				<stop  offset="1" style="stop-color:#000000"/>
			</radialGradient>
			<polygon fill="url(#SVGID_19_)" points="18.426,60.007 18.869,56.981 15.84,57.408 			"/>
			
				<radialGradient id="SVGID_20_" cx="2022.6328" cy="855.2617" r="44.4482" gradientTransform="matrix(-0.6438 -0.6473 0.4267 -0.4245 972.5598 1731.6545)" gradientUnits="userSpaceOnUse">
				<stop  offset="0" style="stop-color:#333333"/>
				<stop  offset="1" style="stop-color:#000000"/>
			</radialGradient>
			<polygon fill="url(#SVGID_20_)" points="36.543,36.817 36.102,39.842 39.129,39.416 			"/>
		</g>
		<g>
			
				<radialGradient id="SVGID_21_" cx="-431.0151" cy="-109.1338" r="54.9779" gradientTransform="matrix(0.8812 0.2387 -0.1573 0.5809 397.9642 225.6221)" gradientUnits="userSpaceOnUse">
				<stop  offset="0" style="stop-color:#333333"/>
				<stop  offset="1" style="stop-color:#000000"/>
			</radialGradient>
			<polygon fill="url(#SVGID_21_)" points="25.437,62.984 24.308,60.141 21.9,62.025 			"/>
			
				<radialGradient id="SVGID_22_" cx="1844.4805" cy="1853.4678" r="54.9797" gradientTransform="matrix(-0.8812 -0.2387 0.1573 -0.5809 1369.1296 1576.3052)" gradientUnits="userSpaceOnUse">
				<stop  offset="0" style="stop-color:#333333"/>
				<stop  offset="1" style="stop-color:#000000"/>
			</radialGradient>
			<polygon fill="url(#SVGID_22_)" points="29.532,33.841 30.66,36.682 33.069,34.8 			"/>
		</g>
		<g>
			
				<radialGradient id="SVGID_23_" cx="52.6987" cy="-839.46" r="61.7151" gradientTransform="matrix(0.8825 -0.2339 0.1542 0.5819 118.2607 560.1533)" gradientUnits="userSpaceOnUse">
				<stop  offset="0" style="stop-color:#333333"/>
				<stop  offset="1" style="stop-color:#000000"/>
			</radialGradient>
			<polygon fill="url(#SVGID_23_)" points="32.996,62.056 30.596,60.159 29.453,62.994 			"/>
			
				<radialGradient id="SVGID_24_" cx="1361.874" cy="2579.3779" r="61.6934" gradientTransform="matrix(-0.8825 0.2339 -0.1542 -0.5819 1634.9097 1241.7358)" gradientUnits="userSpaceOnUse">
				<stop  offset="0" style="stop-color:#333333"/>
				<stop  offset="1" style="stop-color:#000000"/>
			</radialGradient>
			<polygon fill="url(#SVGID_24_)" points="21.973,34.769 24.37,36.664 25.516,33.83 			"/>
		</g>
	</g>
	<g>
		<linearGradient id="SVGID_25_" gradientUnits="userSpaceOnUse" x1="27.1211" y1="45.4277" x2="28.4932" y2="45.4277">
			<stop  offset="0" style="stop-color:#9A9DA3"/>
			<stop  offset="0.15" style="stop-color:#B6B7B5"/>
			<stop  offset="0.5" style="stop-color:#FFFFFF"/>
			<stop  offset="0.85" style="stop-color:#B6B7B5"/>
			<stop  offset="1" style="stop-color:#9A9DA3"/>
		</linearGradient>
		<polygon fill="url(#SVGID_25_)" points="27.121,41.972 28.491,41.97 28.493,48.883 27.121,48.886 27.121,41.972 		"/>
		<linearGradient id="SVGID_26_" gradientUnits="userSpaceOnUse" x1="30.5229" y1="51.127" x2="31.1741" y2="49.92">
			<stop  offset="0" style="stop-color:#9A9DA3"/>
			<stop  offset="0.15" style="stop-color:#B6B7B5"/>
			<stop  offset="0.5" style="stop-color:#FFFFFF"/>
			<stop  offset="0.85" style="stop-color:#B6B7B5"/>
			<stop  offset="1" style="stop-color:#9A9DA3"/>
		</linearGradient>
		<polygon fill="url(#SVGID_26_)" points="27.482,49.488 28.131,48.28 34.217,51.562 33.566,52.768 27.482,49.488 		"/>
		<linearGradient id="SVGID_27_" gradientUnits="userSpaceOnUse" x1="25.0869" y1="51.125" x2="24.438" y2="49.9181">
			<stop  offset="0" style="stop-color:#9A9DA3"/>
			<stop  offset="0.15" style="stop-color:#B6B7B5"/>
			<stop  offset="0.5" style="stop-color:#FFFFFF"/>
			<stop  offset="0.85" style="stop-color:#B6B7B5"/>
			<stop  offset="1" style="stop-color:#9A9DA3"/>
		</linearGradient>
		<polygon fill="url(#SVGID_27_)" points="21.397,51.562 27.482,48.28 28.131,49.488 22.048,52.768 21.397,51.562 		"/>
	</g>
	
		<radialGradient id="SVGID_28_" cx="-50.9556" cy="-41.5498" r="2.1047" gradientTransform="matrix(0.913 0 0 0.913 74.1786 87.1816)" gradientUnits="userSpaceOnUse">
		<stop  offset="0.5" style="stop-color:#FFFFFF"/>
		<stop  offset="0.85" style="stop-color:#B6B7B5"/>
		<stop  offset="1" style="stop-color:#9A9DA3"/>
	</radialGradient>
	<circle fill="url(#SVGID_28_)" cx="27.656" cy="49.246" r="1.922"/>
	<g>
		
			<radialGradient id="SVGID_29_" cx="-61.8936" cy="-14.5488" r="7.0121" gradientTransform="matrix(0.913 0 0 0.913 74.1786 87.1816)" gradientUnits="userSpaceOnUse">
			<stop  offset="0" style="stop-color:#333333"/>
			<stop  offset="1" style="stop-color:#000000"/>
		</radialGradient>
		<path fill="url(#SVGID_29_)" d="M17.801,64.813c-5.031,0.002-9.106,4.078-9.109,9.109c0.003,5.033,4.078,9.107,9.109,9.109
			c5.03-0.002,9.104-4.076,9.107-9.109C26.905,68.892,22.831,64.815,17.801,64.813z M22.828,71.812h-2.961v-2.934
			C21.2,69.425,22.27,70.483,22.828,71.812z M15.607,68.931v2.881h-2.836C13.313,70.526,14.333,69.493,15.607,68.931z
			 M12.787,76.069h2.82v2.844C14.345,78.356,13.333,77.337,12.787,76.069z M19.867,78.966v-2.896h2.945
			C22.25,77.38,21.188,78.425,19.867,78.966z"/>
		
			<linearGradient id="SVGID_30_" gradientUnits="userSpaceOnUse" x1="755.5322" y1="2386.6426" x2="776.074" y2="2420.4224" gradientTransform="matrix(-0.7071 0.7071 -0.7071 -0.7071 2253.9973 1230.78)">
			<stop  offset="0" style="stop-color:#000000"/>
			<stop  offset="0.5" style="stop-color:#333333"/>
			<stop  offset="1" style="stop-color:#000000"/>
		</linearGradient>
		<path fill="url(#SVGID_30_)" d="M24.278,67.44c3.578,3.58,3.579,9.381,0,12.961l0,0c-3.578,3.578-9.379,3.576-12.958-0.002l0,0
			c-3.577-3.578-3.577-9.377,0.001-12.955l0,0C14.899,63.864,20.699,63.864,24.278,67.44L24.278,67.44z M22.342,69.378
			c-2.512-2.502-6.57-2.504-9.084,0.002l0,0c-2.504,2.512-2.504,6.572-0.001,9.084l0,0c2.513,2.504,6.573,2.504,9.085,0.002l0,0
			C24.847,75.95,24.846,71.892,22.342,69.378L22.342,69.378z"/>
	</g>
</g>
</svg>
