<?xml version="1.0" encoding="utf-8"?>
<!-- Generator: Adobe Illustrator 15.0.0, SVG Export Plug-In . SVG Version: 6.00 Build 0)  -->
<!DOCTYPE svg PUBLIC "-//W3C//DTD SVG 1.0//EN" "http://www.w3.org/TR/2001/REC-SVG-20010904/DTD/svg10.dtd">
<svg version="1.0" id="_x37_1" xmlns="http://www.w3.org/2000/svg" xmlns:xlink="http://www.w3.org/1999/xlink" x="0px" y="0px"
	 width="45.584px" height="91.458px" viewBox="0 0 45.584 91.458" enable-background="new 0 0 45.584 91.458" xml:space="preserve">
<g>
	<g>
		<linearGradient id="SVGID_1_" gradientUnits="userSpaceOnUse" x1="18.7441" y1="88.083" x2="18.7441" y2="76.708">
			<stop  offset="0.2308" style="stop-color:#404040"/>
			<stop  offset="0.2555" style="stop-color:#4E4E4E"/>
			<stop  offset="0.3025" style="stop-color:#646464"/>
			<stop  offset="0.3543" style="stop-color:#747474"/>
			<stop  offset="0.414" style="stop-color:#7D7D7D"/>
			<stop  offset="0.5" style="stop-color:#808080"/>
		</linearGradient>
		<rect x="3.75" y="76.708" fill="url(#SVGID_1_)" width="29.987" height="11.375"/>
		<linearGradient id="SVGID_2_" gradientUnits="userSpaceOnUse" x1="2.9375" y1="75.083" x2="2.9375" y2="88.458">
			<stop  offset="0" style="stop-color:#9A9DA3"/>
			<stop  offset="0.15" style="stop-color:#B6B7B5"/>
			<stop  offset="0.5" style="stop-color:#FFFFFF"/>
			<stop  offset="0.85" style="stop-color:#B6B7B5"/>
			<stop  offset="1" style="stop-color:#9A9DA3"/>
		</linearGradient>
		<rect x="2.125" y="72.958" fill="url(#SVGID_2_)" width="1.625" height="18.5"/>
		<linearGradient id="SVGID_3_" gradientUnits="userSpaceOnUse" x1="1.3125" y1="91.458" x2="1.3125" y2="72.958">
			<stop  offset="0" style="stop-color:#9A9DA3"/>
			<stop  offset="0.15" style="stop-color:#B6B7B5"/>
			<stop  offset="0.5" style="stop-color:#FFFFFF"/>
			<stop  offset="0.85" style="stop-color:#B6B7B5"/>
			<stop  offset="1" style="stop-color:#9A9DA3"/>
		</linearGradient>
		<rect x="0.5" y="72.958" fill="url(#SVGID_3_)" width="1.625" height="18.5"/>
		<linearGradient id="SVGID_4_" gradientUnits="userSpaceOnUse" x1="36.1748" y1="91.458" x2="36.1748" y2="72.958">
			<stop  offset="0" style="stop-color:#9A9DA3"/>
			<stop  offset="0.15" style="stop-color:#B6B7B5"/>
			<stop  offset="0.5" style="stop-color:#FFFFFF"/>
			<stop  offset="0.85" style="stop-color:#B6B7B5"/>
			<stop  offset="1" style="stop-color:#9A9DA3"/>
		</linearGradient>
		<rect x="35.362" y="72.958" fill="url(#SVGID_4_)" width="1.625" height="18.5"/>
		<linearGradient id="SVGID_5_" gradientUnits="userSpaceOnUse" x1="34.5498" y1="75.083" x2="34.5498" y2="88.458">
			<stop  offset="0" style="stop-color:#9A9DA3"/>
			<stop  offset="0.15" style="stop-color:#B6B7B5"/>
			<stop  offset="0.5" style="stop-color:#FFFFFF"/>
			<stop  offset="0.85" style="stop-color:#B6B7B5"/>
			<stop  offset="1" style="stop-color:#9A9DA3"/>
		</linearGradient>
		<rect x="33.737" y="72.958" fill="url(#SVGID_5_)" width="1.625" height="18.5"/>
	</g>
	<path fill="#1A1A1A" stroke="#000000" stroke-width="0.5" d="M26.4,62.486c0.002-0.003,1.827-0.198,4.113-0.663l0,0
		c2.277-0.458,5.012-1.213,6.645-2.185l0,0c2.454-1.444,3.409-3.669,3.728-4.669l0,0c0.063-0.198,0.098-0.332,0.115-0.408l0,0V47H43
		v7.758l-0.017,0.086c-0.029,0.12-0.746,4.095-4.809,6.517l0,0c-4.033,2.344-11.494,3.088-11.558,3.114l0,0L26.4,62.486L26.4,62.486
		z"/>
	<linearGradient id="SVGID_6_" gradientUnits="userSpaceOnUse" x1="0.335" y1="28.1289" x2="38.1681" y2="28.1289">
		<stop  offset="0" style="stop-color:#9A9DA3"/>
		<stop  offset="0.15" style="stop-color:#B6B7B5"/>
		<stop  offset="0.5" style="stop-color:#FFFFFF"/>
		<stop  offset="0.85" style="stop-color:#B6B7B5"/>
		<stop  offset="1" style="stop-color:#9A9DA3"/>
	</linearGradient>
	<path fill="url(#SVGID_6_)" d="M0.5,1.417v52.006c0,0.782,8.432,1.417,18.834,1.417c10.401,0,18.833-0.635,18.833-1.417V1.417H0.5z
		"/>
	<radialGradient id="SVGID_7_" cx="-55.666" cy="2.334" r="77.7125" gradientUnits="userSpaceOnUse">
		<stop  offset="0.2308" style="stop-color:#333333"/>
		<stop  offset="0.5904" style="stop-color:#313131"/>
		<stop  offset="0.72" style="stop-color:#2A2A2A"/>
		<stop  offset="0.812" style="stop-color:#1F1F1F"/>
		<stop  offset="0.8862" style="stop-color:#0E0E0E"/>
		<stop  offset="0.8901" style="stop-color:#0D0D0D"/>
	</radialGradient>
	<path fill="url(#SVGID_7_)" d="M19.334,3.946C8.932,3.946,0.5,3.514,0.5,2.98v4.432c0,0.533,8.432,0.966,18.834,0.966
		c10.401,0,18.833-0.433,18.833-0.966V2.98C38.167,3.514,29.735,3.946,19.334,3.946z"/>
	
		<linearGradient id="SVGID_8_" gradientUnits="userSpaceOnUse" x1="1716.1484" y1="2.3027" x2="1755.1483" y2="-0.1973" gradientTransform="matrix(-1 0 0 1 1749.293 0)">
		<stop  offset="0" style="stop-color:#9A9DA3"/>
		<stop  offset="0.15" style="stop-color:#B6B7B5"/>
		<stop  offset="0.5" style="stop-color:#FFFFFF"/>
		<stop  offset="0.85" style="stop-color:#B6B7B5"/>
		<stop  offset="1" style="stop-color:#9A9DA3"/>
	</linearGradient>
	<ellipse fill="url(#SVGID_8_)" cx="19.334" cy="1.417" rx="18.833" ry="1.417"/>
	<g>
		<linearGradient id="SVGID_9_" gradientUnits="userSpaceOnUse" x1="0.334" y1="6.0762" x2="38.209" y2="6.0762">
			<stop  offset="0" style="stop-color:#9A9DA3"/>
			<stop  offset="0.15" style="stop-color:#B6B7B5"/>
			<stop  offset="0.5" style="stop-color:#FFFFFF"/>
			<stop  offset="0.85" style="stop-color:#B6B7B5"/>
			<stop  offset="1" style="stop-color:#9A9DA3"/>
		</linearGradient>
		<rect x="7.835" y="2.862" fill="url(#SVGID_9_)" width="0.993" height="6.429"/>
		<linearGradient id="SVGID_10_" gradientUnits="userSpaceOnUse" x1="0.334" y1="6.0762" x2="38.209" y2="6.0762">
			<stop  offset="0" style="stop-color:#9A9DA3"/>
			<stop  offset="0.15" style="stop-color:#B6B7B5"/>
			<stop  offset="0.5" style="stop-color:#FFFFFF"/>
			<stop  offset="0.85" style="stop-color:#B6B7B5"/>
			<stop  offset="1" style="stop-color:#9A9DA3"/>
		</linearGradient>
		<rect x="0.5" y="2.862" fill="url(#SVGID_10_)" width="0.993" height="6.429"/>
		<linearGradient id="SVGID_11_" gradientUnits="userSpaceOnUse" x1="0.334" y1="6.0762" x2="38.209" y2="6.0762">
			<stop  offset="0" style="stop-color:#9A9DA3"/>
			<stop  offset="0.15" style="stop-color:#B6B7B5"/>
			<stop  offset="0.5" style="stop-color:#FFFFFF"/>
			<stop  offset="0.85" style="stop-color:#B6B7B5"/>
			<stop  offset="1" style="stop-color:#9A9DA3"/>
		</linearGradient>
		<rect x="15.17" y="2.862" fill="url(#SVGID_11_)" width="0.992" height="6.429"/>
		<linearGradient id="SVGID_12_" gradientUnits="userSpaceOnUse" x1="0.334" y1="6.0762" x2="38.209" y2="6.0762">
			<stop  offset="0" style="stop-color:#9A9DA3"/>
			<stop  offset="0.15" style="stop-color:#B6B7B5"/>
			<stop  offset="0.5" style="stop-color:#FFFFFF"/>
			<stop  offset="0.85" style="stop-color:#B6B7B5"/>
			<stop  offset="1" style="stop-color:#9A9DA3"/>
		</linearGradient>
		<rect x="22.504" y="2.862" fill="url(#SVGID_12_)" width="0.993" height="6.429"/>
		<linearGradient id="SVGID_13_" gradientUnits="userSpaceOnUse" x1="0.334" y1="6.0762" x2="38.209" y2="6.0762">
			<stop  offset="0" style="stop-color:#9A9DA3"/>
			<stop  offset="0.15" style="stop-color:#B6B7B5"/>
			<stop  offset="0.5" style="stop-color:#FFFFFF"/>
			<stop  offset="0.85" style="stop-color:#B6B7B5"/>
			<stop  offset="1" style="stop-color:#9A9DA3"/>
		</linearGradient>
		<rect x="29.839" y="2.862" fill="url(#SVGID_13_)" width="0.993" height="6.429"/>
		<linearGradient id="SVGID_14_" gradientUnits="userSpaceOnUse" x1="0.334" y1="6.0762" x2="38.209" y2="6.0762">
			<stop  offset="0" style="stop-color:#9A9DA3"/>
			<stop  offset="0.15" style="stop-color:#B6B7B5"/>
			<stop  offset="0.5" style="stop-color:#FFFFFF"/>
			<stop  offset="0.85" style="stop-color:#B6B7B5"/>
			<stop  offset="1" style="stop-color:#9A9DA3"/>
		</linearGradient>
		<rect x="37.174" y="2.862" fill="url(#SVGID_14_)" width="0.993" height="6.429"/>
	</g>
	<g>
		<path fill="none" stroke="#B2B2B2" d="M0.5,26.777c0,0.782,8.432,1.417,18.834,1.417c10.401,0,18.833-0.635,18.833-1.417"/>
		<path fill="none" stroke="#B2B2B2" d="M0.5,8.166c0,0.782,8.432,1.417,18.834,1.417c10.401,0,18.833-0.635,18.833-1.417"/>
	</g>
	<rect x="5.709" y="57.981" fill="#333333" width="1.125" height="8.102"/>
	<rect x="6.521" y="57.981" fill="#333333" width="2.188" height="8.977"/>
	<g>
		<linearGradient id="SVGID_15_" gradientUnits="userSpaceOnUse" x1="10.2861" y1="73.0625" x2="14.1123" y2="73.0625">
			<stop  offset="0" style="stop-color:#404040"/>
			<stop  offset="0.5" style="stop-color:#808080"/>
			<stop  offset="1" style="stop-color:#404040"/>
		</linearGradient>
		<polygon fill="url(#SVGID_15_)" points="14.112,91.458 12.286,91.458 10.286,54.668 12.112,54.668 		"/>
		<linearGradient id="SVGID_16_" gradientUnits="userSpaceOnUse" x1="12.1123" y1="73.0625" x2="26.1123" y2="73.0625">
			<stop  offset="0" style="stop-color:#404040"/>
			<stop  offset="0.5" style="stop-color:#808080"/>
			<stop  offset="1" style="stop-color:#404040"/>
		</linearGradient>
		<polygon fill="url(#SVGID_16_)" points="24.112,91.458 14.112,91.458 12.112,54.668 26.112,54.668 		"/>
		<linearGradient id="SVGID_17_" gradientUnits="userSpaceOnUse" x1="24.1123" y1="73.0625" x2="27.9385" y2="73.0625">
			<stop  offset="0" style="stop-color:#404040"/>
			<stop  offset="0.5" style="stop-color:#808080"/>
			<stop  offset="1" style="stop-color:#404040"/>
		</linearGradient>
		<polygon fill="url(#SVGID_17_)" points="25.938,91.458 24.112,91.458 26.112,54.668 27.938,54.668 		"/>
	</g>
	<polygon fill="#333333" points="43.334,45.666 38.167,45.666 38.167,36 40.334,36 	"/>
	<polygon fill="#4D4D4D" points="45.584,45.666 45.584,42 40.334,36 43.334,45.666 	"/>
	<linearGradient id="SVGID_18_" gradientUnits="userSpaceOnUse" x1="39.5215" y1="46.333" x2="43.8965" y2="46.333">
		<stop  offset="0" style="stop-color:#1A1A1A"/>
		<stop  offset="0.5" style="stop-color:#808080"/>
		<stop  offset="1" style="stop-color:#1A1A1A"/>
	</linearGradient>
	<rect x="39.521" y="45.666" fill="url(#SVGID_18_)" width="4.375" height="1.334"/>
	<g>
		<linearGradient id="SVGID_19_" gradientUnits="userSpaceOnUse" x1="5.1152" y1="57.4893" x2="32.9876" y2="57.4893">
			<stop  offset="0" style="stop-color:#1A1A1A"/>
			<stop  offset="0.5" style="stop-color:#808080"/>
			<stop  offset="1" style="stop-color:#1A1A1A"/>
		</linearGradient>
		<rect x="5.237" y="56.997" fill="url(#SVGID_19_)" width="27.75" height="0.984"/>
		<linearGradient id="SVGID_20_" gradientUnits="userSpaceOnUse" x1="6.7549" y1="58.4736" x2="31.3629" y2="58.4736">
			<stop  offset="0" style="stop-color:#1A1A1A"/>
			<stop  offset="0.5" style="stop-color:#808080"/>
			<stop  offset="1" style="stop-color:#1A1A1A"/>
		</linearGradient>
		<rect x="6.862" y="57.981" fill="url(#SVGID_20_)" width="24.5" height="0.984"/>
		<linearGradient id="SVGID_21_" gradientUnits="userSpaceOnUse" x1="8.583" y1="56.5049" x2="29.5501" y2="56.5049">
			<stop  offset="0" style="stop-color:#1A1A1A"/>
			<stop  offset="0.5" style="stop-color:#808080"/>
			<stop  offset="1" style="stop-color:#1A1A1A"/>
		</linearGradient>
		<rect x="8.675" y="56.013" fill="url(#SVGID_21_)" width="20.875" height="0.984"/>
	</g>
</g>
</svg>
