<?xml version="1.0" encoding="utf-8"?>
<!-- Generator: Adobe Illustrator 15.0.0, SVG Export Plug-In . SVG Version: 6.00 Build 0)  -->
<!DOCTYPE svg PUBLIC "-//W3C//DTD SVG 1.0//EN" "http://www.w3.org/TR/2001/REC-SVG-20010904/DTD/svg10.dtd">
<svg version="1.0" id="_x32_7" xmlns="http://www.w3.org/2000/svg" xmlns:xlink="http://www.w3.org/1999/xlink" x="0px" y="0px"
	 width="105.285px" height="70px" viewBox="0 0 105.285 70" enable-background="new 0 0 105.285 70" xml:space="preserve">
<g>
	<g>
		
			<linearGradient id="SVGID_1_" gradientUnits="userSpaceOnUse" x1="2100.7285" y1="3.3691" x2="2100.7285" y2="23.4801" gradientTransform="matrix(-1 0 0 1 2128.7441 0)">
			<stop  offset="0" style="stop-color:#9A9DA3"/>
			<stop  offset="0.15" style="stop-color:#B6B7B5"/>
			<stop  offset="0.5" style="stop-color:#FFFFFF"/>
			<stop  offset="0.85" style="stop-color:#B6B7B5"/>
			<stop  offset="1" style="stop-color:#9A9DA3"/>
		</linearGradient>
		<rect y="3.369" fill="url(#SVGID_1_)" width="56.031" height="20"/>
		
			<linearGradient id="SVGID_2_" gradientUnits="userSpaceOnUse" x1="2124.8232" y1="0" x2="2124.8232" y2="28.4092" gradientTransform="matrix(-1 0 0 1 2128.7441 0)">
			<stop  offset="0" style="stop-color:#929192"/>
			<stop  offset="0.0824" style="stop-color:#A7A7A7"/>
			<stop  offset="0.2824" style="stop-color:#D7D6D7"/>
			<stop  offset="0.4356" style="stop-color:#F4F4F4"/>
			<stop  offset="0.5225" style="stop-color:#FFFFFF"/>
			<stop  offset="0.599" style="stop-color:#F5F5F5"/>
			<stop  offset="0.7277" style="stop-color:#DBDBDB"/>
			<stop  offset="0.892" style="stop-color:#B1B1B1"/>
			<stop  offset="1" style="stop-color:#929192"/>
		</linearGradient>
		<rect fill="url(#SVGID_2_)" width="7.842" height="28.409"/>
	</g>
	<g>
		<radialGradient id="SVGID_3_" cx="82.6436" cy="63.3472" r="256.0688" gradientUnits="userSpaceOnUse">
			<stop  offset="0" style="stop-color:#9A9DA3"/>
			<stop  offset="0.2033" style="stop-color:#B6B7B5"/>
			<stop  offset="0.5055" style="stop-color:#FFFFFF"/>
			<stop  offset="0.85" style="stop-color:#B6B7B5"/>
			<stop  offset="1" style="stop-color:#9A9DA3"/>
		</radialGradient>
		<circle fill="url(#SVGID_3_)" cx="56.032" cy="36.292" r="33.708"/>
		
			<linearGradient id="SVGID_4_" gradientUnits="userSpaceOnUse" x1="72.5098" y1="579.8838" x2="10.1068" y2="519.6328" gradientTransform="matrix(0.7071 0.7071 -0.7071 0.7071 414.9341 -417.0367)">
			<stop  offset="0" style="stop-color:#9A9DA3"/>
			<stop  offset="0.15" style="stop-color:#B6B7B5"/>
			<stop  offset="0.5" style="stop-color:#FFFFFF"/>
			<stop  offset="0.85" style="stop-color:#B6B7B5"/>
			<stop  offset="1" style="stop-color:#9A9DA3"/>
		</linearGradient>
		<path fill="url(#SVGID_4_)" d="M33.227,13.487c12.595-12.593,33.013-12.594,45.609,0l0,0
			c12.592,12.597,12.591,33.014-0.002,45.607l0,0C66.239,71.69,45.821,71.69,33.227,59.098l0,0
			C20.631,46.501,20.632,26.084,33.227,13.487L33.227,13.487z M33.968,14.227c-12.164,12.208-12.162,31.92,0,44.128l0,0
			c12.208,12.162,31.92,12.163,44.126,0l0,0c12.163-12.204,12.163-31.92,0-44.125l0,0C65.888,2.065,46.175,2.065,33.968,14.227
			L33.968,14.227z"/>
	</g>
	<linearGradient id="SVGID_5_" gradientUnits="userSpaceOnUse" x1="75.3452" y1="26.3926" x2="75.3452" y2="46.5036">
		<stop  offset="0" style="stop-color:#9A9DA3"/>
		<stop  offset="0.15" style="stop-color:#B6B7B5"/>
		<stop  offset="0.5" style="stop-color:#FFFFFF"/>
		<stop  offset="0.85" style="stop-color:#B6B7B5"/>
		<stop  offset="1" style="stop-color:#9A9DA3"/>
	</linearGradient>
	<path fill="url(#SVGID_5_)" d="M56.549,26.393c-6.154,0-11.143,4.478-11.143,10s4.988,10,11.143,10h48.736v-20H56.549z"/>
	
		<linearGradient id="SVGID_6_" gradientUnits="userSpaceOnUse" x1="26.2725" y1="21.9619" x2="26.2725" y2="50.3711" gradientTransform="matrix(1 0 0 1 75.0918 0)">
		<stop  offset="0" style="stop-color:#929192"/>
		<stop  offset="0.0824" style="stop-color:#A7A7A7"/>
		<stop  offset="0.2824" style="stop-color:#D7D6D7"/>
		<stop  offset="0.4356" style="stop-color:#F4F4F4"/>
		<stop  offset="0.5225" style="stop-color:#FFFFFF"/>
		<stop  offset="0.599" style="stop-color:#F5F5F5"/>
		<stop  offset="0.7277" style="stop-color:#DBDBDB"/>
		<stop  offset="0.892" style="stop-color:#B1B1B1"/>
		<stop  offset="1" style="stop-color:#929192"/>
	</linearGradient>
	<rect x="97.443" y="21.962" fill="url(#SVGID_6_)" width="7.842" height="28.409"/>
</g>
</svg>
