<?xml version="1.0" encoding="utf-8"?>
<!-- Generator: Adobe Illustrator 15.0.0, SVG Export Plug-In . SVG Version: 6.00 Build 0)  -->
<!DOCTYPE svg PUBLIC "-//W3C//DTD SVG 1.0//EN" "http://www.w3.org/TR/2001/REC-SVG-20010904/DTD/svg10.dtd">
<svg version="1.0" id="_x37_1" xmlns="http://www.w3.org/2000/svg" xmlns:xlink="http://www.w3.org/1999/xlink" x="0px" y="0px"
	 width="25.058px" height="91.563px" viewBox="0 0 25.058 91.563" enable-background="new 0 0 25.058 91.563" xml:space="preserve">
<g>
	<linearGradient id="SVGID_1_" gradientUnits="userSpaceOnUse" x1="2.249" y1="17.833" x2="24.3856" y2="17.833">
		<stop  offset="0" style="stop-color:#929192"/>
		<stop  offset="0.0824" style="stop-color:#A7A7A7"/>
		<stop  offset="0.2824" style="stop-color:#D7D6D7"/>
		<stop  offset="0.4356" style="stop-color:#F4F4F4"/>
		<stop  offset="0.5225" style="stop-color:#FFFFFF"/>
		<stop  offset="0.599" style="stop-color:#F5F5F5"/>
		<stop  offset="0.7277" style="stop-color:#DBDBDB"/>
		<stop  offset="0.892" style="stop-color:#B1B1B1"/>
		<stop  offset="1" style="stop-color:#929192"/>
	</linearGradient>
	<path fill="url(#SVGID_1_)" d="M24.249,33.666c0,1.104-0.896,2-2,2h-18c-1.104,0-2-0.896-2-2V2c0-1.104,0.896-2,2-2h18
		c1.104,0,2,0.896,2,2V33.666z"/>
	<linearGradient id="SVGID_2_" gradientUnits="userSpaceOnUse" x1="2.25" y1="19.166" x2="2.25" y2="8">
		<stop  offset="0.7637" style="stop-color:#666666"/>
		<stop  offset="1" style="stop-color:#000000"/>
	</linearGradient>
	<polygon fill="url(#SVGID_2_)" points="4.5,19.166 0,18.166 0,8.333 4.5,8.333 	"/>
	<linearGradient id="SVGID_3_" gradientUnits="userSpaceOnUse" x1="6.3335" y1="19.166" x2="6.3335" y2="8.333">
		<stop  offset="0.7637" style="stop-color:#333333"/>
		<stop  offset="1" style="stop-color:#000000"/>
	</linearGradient>
	<rect x="4.5" y="8.333" fill="url(#SVGID_3_)" width="3.667" height="10.833"/>
	<linearGradient id="SVGID_4_" gradientUnits="userSpaceOnUse" x1="19.271" y1="23.666" x2="19.271" y2="8.333">
		<stop  offset="0.7637" style="stop-color:#333333"/>
		<stop  offset="1" style="stop-color:#000000"/>
	</linearGradient>
	<rect x="18" y="8.333" fill="url(#SVGID_4_)" width="2.542" height="15.333"/>
	<linearGradient id="SVGID_5_" gradientUnits="userSpaceOnUse" x1="22.3955" y1="23.666" x2="22.3955" y2="8.5">
		<stop  offset="0.7637" style="stop-color:#666666"/>
		<stop  offset="1" style="stop-color:#000000"/>
	</linearGradient>
	<polygon fill="url(#SVGID_5_)" points="24.249,22.666 20.542,23.666 20.542,8.333 24.249,8.333 	"/>
	<linearGradient id="SVGID_6_" gradientUnits="userSpaceOnUse" x1="2.249" y1="4.1665" x2="24.249" y2="4.1665">
		<stop  offset="0" style="stop-color:#929192"/>
		<stop  offset="0.0824" style="stop-color:#A7A7A7"/>
		<stop  offset="0.2824" style="stop-color:#D7D6D7"/>
		<stop  offset="0.4356" style="stop-color:#F4F4F4"/>
		<stop  offset="0.5225" style="stop-color:#FFFFFF"/>
		<stop  offset="0.599" style="stop-color:#F5F5F5"/>
		<stop  offset="0.7277" style="stop-color:#DBDBDB"/>
		<stop  offset="0.892" style="stop-color:#B1B1B1"/>
		<stop  offset="1" style="stop-color:#929192"/>
	</linearGradient>
	<path fill="url(#SVGID_6_)" d="M24.249,2c0-1.104-0.896-2-2-2h-18c-1.104,0-2,0.896-2,2v6.333h22V2z"/>
	<polygon fill="none" stroke="#1A1A1A" points="14.749,6.334 10.749,6.334 9.749,4.418 15.749,4.418 	"/>
	<linearGradient id="SVGID_7_" gradientUnits="userSpaceOnUse" x1="8.832" y1="64.6401" x2="17.166" y2="64.6401">
		<stop  offset="0" style="stop-color:#000000"/>
		<stop  offset="0.5" style="stop-color:#333333"/>
		<stop  offset="1" style="stop-color:#000000"/>
	</linearGradient>
	<rect x="8.937" y="37.718" fill="url(#SVGID_7_)" width="8.375" height="53.845"/>
	<linearGradient id="SVGID_8_" gradientUnits="userSpaceOnUse" x1="6.499" y1="51.7339" x2="19.8321" y2="51.7339">
		<stop  offset="0" style="stop-color:#000000"/>
		<stop  offset="0.5" style="stop-color:#333333"/>
		<stop  offset="1" style="stop-color:#000000"/>
	</linearGradient>
	<rect x="7.499" y="49.593" fill="url(#SVGID_8_)" width="11.25" height="4.282"/>
	<linearGradient id="SVGID_9_" gradientUnits="userSpaceOnUse" x1="4.166" y1="78.1089" x2="20.832" y2="78.1089">
		<stop  offset="0" style="stop-color:#000000"/>
		<stop  offset="0.5" style="stop-color:#333333"/>
		<stop  offset="1" style="stop-color:#000000"/>
	</linearGradient>
	<rect x="6.812" y="68.468" fill="url(#SVGID_9_)" width="12.625" height="19.282"/>
	<linearGradient id="SVGID_10_" gradientUnits="userSpaceOnUse" x1="7.499" y1="44.0625" x2="10.624" y2="44.0625">
		<stop  offset="0" style="stop-color:#000000"/>
		<stop  offset="0.5" style="stop-color:#333333"/>
		<stop  offset="1" style="stop-color:#000000"/>
	</linearGradient>
	<polygon fill="url(#SVGID_10_)" points="9.749,43.188 9.749,42.25 7.499,42.25 7.499,45.875 9.749,45.875 9.749,44.938 
		10.624,44.938 10.624,43.188 	"/>
	<linearGradient id="SVGID_11_" gradientUnits="userSpaceOnUse" x1="6.499" y1="43.2651" x2="19.8321" y2="43.2651">
		<stop  offset="0" style="stop-color:#000000"/>
		<stop  offset="0.5" style="stop-color:#333333"/>
		<stop  offset="1" style="stop-color:#000000"/>
	</linearGradient>
	<rect x="7.499" y="37.718" fill="url(#SVGID_11_)" width="11.25" height="11.095"/>
	<linearGradient id="SVGID_12_" gradientUnits="userSpaceOnUse" x1="1.4404" y1="35.3589" x2="25.2043" y2="35.3589">
		<stop  offset="0" style="stop-color:#000000"/>
		<stop  offset="0.5" style="stop-color:#333333"/>
		<stop  offset="1" style="stop-color:#000000"/>
	</linearGradient>
	<path fill="url(#SVGID_12_)" d="M24.249,33v0.666c0,1.104-0.896,2-2,2h-18c-1.104,0-2-0.896-2-2V33H1.44v1.829
		c0,1.186,2.221,2.889,3.406,2.889h17.322c1.186,0,2.889-1.703,2.889-2.889V33H24.249z"/>
	<line fill="none" stroke="#333333" stroke-width="0.5" x1="2.249" y1="8.333" x2="24.249" y2="8.333"/>
</g>
</svg>
