<?xml version="1.0" encoding="utf-8"?>
<!-- Generator: Adobe Illustrator 15.0.0, SVG Export Plug-In . SVG Version: 6.00 Build 0)  -->
<!DOCTYPE svg PUBLIC "-//W3C//DTD SVG 1.0//EN" "http://www.w3.org/TR/2001/REC-SVG-20010904/DTD/svg10.dtd">
<svg version="1.0" id="_x37_1" xmlns="http://www.w3.org/2000/svg" xmlns:xlink="http://www.w3.org/1999/xlink" x="0px" y="0px"
	 width="34.375px" height="91.087px" viewBox="0 0 34.375 91.087" enable-background="new 0 0 34.375 91.087" xml:space="preserve">
<g>
	<linearGradient id="SVGID_1_" gradientUnits="userSpaceOnUse" x1="0.583" y1="33.293" x2="20.833" y2="33.293">
		<stop  offset="0" style="stop-color:#467677"/>
		<stop  offset="0.0804" style="stop-color:#3D6E6F"/>
		<stop  offset="0.2459" style="stop-color:#326464"/>
		<stop  offset="0.4176" style="stop-color:#2E6060"/>
		<stop  offset="0.8736" style="stop-color:#001A1C"/>
	</linearGradient>
	<rect x="3.834" y="18.458" fill="url(#SVGID_1_)" width="30.518" height="29.67"/>
	<linearGradient id="SVGID_2_" gradientUnits="userSpaceOnUse" x1="3.834" y1="14.6455" x2="34.3525" y2="14.6455">
		<stop  offset="0" style="stop-color:#2E6060"/>
		<stop  offset="0.1011" style="stop-color:#326464"/>
		<stop  offset="0.2113" style="stop-color:#407071"/>
		<stop  offset="0.25" style="stop-color:#467677"/>
		<stop  offset="0.5" style="stop-color:#8DBAB9"/>
		<stop  offset="0.75" style="stop-color:#467677"/>
		<stop  offset="0.7981" style="stop-color:#3D6E6F"/>
		<stop  offset="0.8972" style="stop-color:#326464"/>
		<stop  offset="1" style="stop-color:#2E6060"/>
	</linearGradient>
	<rect x="3.834" y="10.833" fill="url(#SVGID_2_)" width="30.518" height="7.625"/>
	<linearGradient id="SVGID_3_" gradientUnits="userSpaceOnUse" x1="4.6855" y1="10.458" x2="33.5" y2="10.458">
		<stop  offset="0" style="stop-color:#1A1A1A"/>
		<stop  offset="0.5" style="stop-color:#808080"/>
		<stop  offset="1" style="stop-color:#1A1A1A"/>
	</linearGradient>
	<rect x="4.686" y="10.083" fill="url(#SVGID_3_)" width="28.814" height="0.75"/>
	<linearGradient id="SVGID_4_" gradientUnits="userSpaceOnUse" x1="5.25" y1="6.3955" x2="32.9395" y2="6.3955">
		<stop  offset="0" style="stop-color:#2E6060"/>
		<stop  offset="0.1011" style="stop-color:#326464"/>
		<stop  offset="0.2113" style="stop-color:#407071"/>
		<stop  offset="0.25" style="stop-color:#467677"/>
		<stop  offset="0.5" style="stop-color:#8DBAB9"/>
		<stop  offset="0.75" style="stop-color:#467677"/>
		<stop  offset="0.7981" style="stop-color:#3D6E6F"/>
		<stop  offset="0.8972" style="stop-color:#326464"/>
		<stop  offset="1" style="stop-color:#2E6060"/>
	</linearGradient>
	<rect x="5.25" y="2.708" fill="url(#SVGID_4_)" width="27.689" height="7.375"/>
	<linearGradient id="SVGID_5_" gradientUnits="userSpaceOnUse" x1="-9.5" y1="50.7305" x2="16.8008" y2="50.7305">
		<stop  offset="0" style="stop-color:#467677"/>
		<stop  offset="0.0804" style="stop-color:#3D6E6F"/>
		<stop  offset="0.2459" style="stop-color:#326464"/>
		<stop  offset="0.4176" style="stop-color:#2E6060"/>
		<stop  offset="0.8736" style="stop-color:#001A1C"/>
	</linearGradient>
	<rect x="5.25" y="48.128" fill="url(#SVGID_5_)" width="27.689" height="5.205"/>
	<linearGradient id="SVGID_6_" gradientUnits="userSpaceOnUse" x1="5.25" y1="1.3535" x2="32.9395" y2="1.3535">
		<stop  offset="0" style="stop-color:#2E6060"/>
		<stop  offset="0.1011" style="stop-color:#326464"/>
		<stop  offset="0.2113" style="stop-color:#407071"/>
		<stop  offset="0.25" style="stop-color:#467677"/>
		<stop  offset="0.5" style="stop-color:#8DBAB9"/>
		<stop  offset="0.75" style="stop-color:#467677"/>
		<stop  offset="0.7981" style="stop-color:#3D6E6F"/>
		<stop  offset="0.8972" style="stop-color:#326464"/>
		<stop  offset="1" style="stop-color:#2E6060"/>
	</linearGradient>
	<polygon fill="url(#SVGID_6_)" points="7.25,0 5.25,2.708 32.939,2.708 30.939,0 	"/>
	<g opacity="0.5">
		<g>
			<rect x="3.834" y="18.458" fill="#BAD2D1" width="0.771" height="29.67"/>
			<rect x="4.604" y="18.458" fill="#333333" width="0.495" height="29.67"/>
		</g>
		<g>
			<rect x="6.759" y="18.458" fill="#BAD2D1" width="0.771" height="29.67"/>
			<rect x="7.529" y="18.458" fill="#333333" width="0.497" height="29.67"/>
		</g>
		<g>
			<rect x="9.684" y="18.458" fill="#BAD2D1" width="0.771" height="29.67"/>
			<rect x="10.455" y="18.458" fill="#333333" width="0.495" height="29.67"/>
		</g>
		<g>
			<rect x="12.609" y="18.458" fill="#BAD2D1" width="0.77" height="29.67"/>
			<rect x="13.379" y="18.458" fill="#333333" width="0.496" height="29.67"/>
		</g>
		<g>
			<rect x="15.534" y="18.458" fill="#BAD2D1" width="0.771" height="29.67"/>
			<rect x="16.305" y="18.458" fill="#333333" width="0.496" height="29.67"/>
		</g>
		<g>
			<rect x="18.458" y="18.458" fill="#BAD2D1" width="0.772" height="29.67"/>
			<rect x="19.231" y="18.458" fill="#333333" width="0.494" height="29.67"/>
		</g>
		<g>
			<rect x="21.384" y="18.458" fill="#BAD2D1" width="0.771" height="29.67"/>
			<rect x="22.155" y="18.458" fill="#333333" width="0.497" height="29.67"/>
		</g>
		<g>
			<rect x="24.311" y="18.458" fill="#BAD2D1" width="0.771" height="29.67"/>
			<rect x="25.082" y="18.458" fill="#333333" width="0.494" height="29.67"/>
		</g>
		<g>
			<rect x="27.234" y="18.458" fill="#BAD2D1" width="0.771" height="29.67"/>
			<rect x="28.006" y="18.458" fill="#333333" width="0.496" height="29.67"/>
		</g>
		<g>
			<rect x="30.161" y="18.458" fill="#BAD2D1" width="0.771" height="29.67"/>
			<rect x="30.931" y="18.458" fill="#333333" width="0.496" height="29.67"/>
		</g>
		<g>
			<rect x="33.085" y="18.458" fill="#BAD2D1" width="0.771" height="29.67"/>
			<rect x="33.856" y="18.458" fill="#333333" width="0.496" height="29.67"/>
		</g>
	</g>
	<rect x="26" y="26.958" fill="#F0AA3F" width="1.5" height="3.875"/>
	<rect x="26" y="31.771" fill="#CCCCCC" width="1.5" height="6.688"/>
	<linearGradient id="SVGID_7_" gradientUnits="userSpaceOnUse" x1="4.9375" y1="31.083" x2="4.9375" y2="40.708">
		<stop  offset="0.5879" style="stop-color:#477777"/>
		<stop  offset="0.7304" style="stop-color:#457474"/>
		<stop  offset="0.8239" style="stop-color:#3D6C6C"/>
		<stop  offset="0.9034" style="stop-color:#315D5D"/>
		<stop  offset="0.9745" style="stop-color:#1F4848"/>
		<stop  offset="1" style="stop-color:#173E3F"/>
	</linearGradient>
	<rect y="31.333" fill="url(#SVGID_7_)" width="9.875" height="9.5"/>
	<linearGradient id="SVGID_8_" gradientUnits="userSpaceOnUse" x1="6.3691" y1="29.3857" x2="8.8691" y2="41.5107">
		<stop  offset="0" style="stop-color:#467677"/>
		<stop  offset="0.0804" style="stop-color:#3D6E6F"/>
		<stop  offset="0.2459" style="stop-color:#326464"/>
		<stop  offset="0.4176" style="stop-color:#2E6060"/>
		<stop  offset="0.8736" style="stop-color:#173E3F"/>
	</linearGradient>
	<polygon fill="url(#SVGID_8_)" points="5.625,40.833 9.875,40.833 9.875,31.333 6.625,31.333 	"/>
	<linearGradient id="SVGID_9_" gradientUnits="userSpaceOnUse" x1="0.583" y1="17.083" x2="20.833" y2="17.083">
		<stop  offset="0" style="stop-color:#467677"/>
		<stop  offset="0.0804" style="stop-color:#3D6E6F"/>
		<stop  offset="0.2459" style="stop-color:#326464"/>
		<stop  offset="0.4176" style="stop-color:#2E6060"/>
		<stop  offset="0.8736" style="stop-color:#001A1C"/>
	</linearGradient>
	<polygon fill="url(#SVGID_9_)" points="5.438,17.083 5.438,15.708 3.813,15.708 3.813,17.083 3.813,18.458 6.063,18.458 
		6.063,17.083 	"/>
	<linearGradient id="SVGID_10_" gradientUnits="userSpaceOnUse" x1="0.583" y1="17.083" x2="20.833" y2="17.083">
		<stop  offset="0" style="stop-color:#467677"/>
		<stop  offset="0.0804" style="stop-color:#3D6E6F"/>
		<stop  offset="0.2459" style="stop-color:#326464"/>
		<stop  offset="0.4176" style="stop-color:#2E6060"/>
		<stop  offset="0.8736" style="stop-color:#001A1C"/>
	</linearGradient>
	<polygon fill="url(#SVGID_10_)" points="26.328,17.083 26.328,15.708 24.703,15.708 24.703,17.083 23.859,17.083 23.859,18.458 
		27.172,18.458 27.172,17.083 	"/>
	<linearGradient id="SVGID_11_" gradientUnits="userSpaceOnUse" x1="2.0625" y1="30.8643" x2="7.75" y2="30.8643">
		<stop  offset="0" style="stop-color:#467677"/>
		<stop  offset="0.0804" style="stop-color:#3D6E6F"/>
		<stop  offset="0.2459" style="stop-color:#326464"/>
		<stop  offset="0.4176" style="stop-color:#2E6060"/>
		<stop  offset="0.8736" style="stop-color:#173E3F"/>
	</linearGradient>
	<rect x="2.063" y="30.396" fill="url(#SVGID_11_)" width="5.688" height="0.938"/>
	<linearGradient id="SVGID_12_" gradientUnits="userSpaceOnUse" x1="4.4375" y1="28.9219" x2="7.75" y2="28.9219">
		<stop  offset="0" style="stop-color:#467677"/>
		<stop  offset="0.0804" style="stop-color:#3D6E6F"/>
		<stop  offset="0.2459" style="stop-color:#326464"/>
		<stop  offset="0.4176" style="stop-color:#2E6060"/>
		<stop  offset="0.8736" style="stop-color:#173E3F"/>
	</linearGradient>
	<rect x="4.438" y="27.478" fill="url(#SVGID_12_)" width="3.313" height="2.89"/>
	<linearGradient id="SVGID_13_" gradientUnits="userSpaceOnUse" x1="4.4375" y1="41.8955" x2="7.75" y2="41.8955">
		<stop  offset="0" style="stop-color:#467677"/>
		<stop  offset="0.0804" style="stop-color:#3D6E6F"/>
		<stop  offset="0.2459" style="stop-color:#326464"/>
		<stop  offset="0.4176" style="stop-color:#2E6060"/>
		<stop  offset="0.8736" style="stop-color:#173E3F"/>
	</linearGradient>
	<rect x="4.438" y="40.833" fill="url(#SVGID_13_)" width="3.313" height="2.125"/>
	<linearGradient id="SVGID_14_" gradientUnits="userSpaceOnUse" x1="5.1875" y1="45.543" x2="6.8438" y2="45.543">
		<stop  offset="0" style="stop-color:#467677"/>
		<stop  offset="0.0804" style="stop-color:#3D6E6F"/>
		<stop  offset="0.2459" style="stop-color:#326464"/>
		<stop  offset="0.4176" style="stop-color:#2E6060"/>
		<stop  offset="0.8736" style="stop-color:#173E3F"/>
	</linearGradient>
	<rect x="5.188" y="42.958" fill="url(#SVGID_14_)" width="1.656" height="5.17"/>
	<linearGradient id="SVGID_15_" gradientUnits="userSpaceOnUse" x1="5.25" y1="3.083" x2="32.9355" y2="3.083">
		<stop  offset="0" style="stop-color:#1A1A1A"/>
		<stop  offset="0.5" style="stop-color:#808080"/>
		<stop  offset="1" style="stop-color:#1A1A1A"/>
	</linearGradient>
	<rect x="5.25" y="2.708" fill="url(#SVGID_15_)" width="27.686" height="0.75"/>
	<linearGradient id="SVGID_16_" gradientUnits="userSpaceOnUse" x1="9" y1="54.0205" x2="29" y2="54.0205">
		<stop  offset="0" style="stop-color:#9A9DA3"/>
		<stop  offset="0.15" style="stop-color:#B6B7B5"/>
		<stop  offset="0.5" style="stop-color:#D9D9D9"/>
		<stop  offset="0.85" style="stop-color:#B6B7B5"/>
		<stop  offset="1" style="stop-color:#9A9DA3"/>
	</linearGradient>
	<rect x="3.875" y="53.333" fill="url(#SVGID_16_)" width="30.5" height="1.375"/>
	<linearGradient id="SVGID_17_" gradientUnits="userSpaceOnUse" x1="4.333" y1="62.2285" x2="34" y2="62.2285">
		<stop  offset="0" style="stop-color:#9A9DA3"/>
		<stop  offset="0.15" style="stop-color:#B6B7B5"/>
		<stop  offset="0.5" style="stop-color:#D9D9D9"/>
		<stop  offset="0.85" style="stop-color:#B6B7B5"/>
		<stop  offset="1" style="stop-color:#9A9DA3"/>
	</linearGradient>
	<rect x="5" y="54.708" fill="url(#SVGID_17_)" width="29.375" height="15.042"/>
	<linearGradient id="SVGID_18_" gradientUnits="userSpaceOnUse" x1="9" y1="70.917" x2="29" y2="70.917">
		<stop  offset="0" style="stop-color:#9A9DA3"/>
		<stop  offset="0.15" style="stop-color:#B6B7B5"/>
		<stop  offset="0.5" style="stop-color:#D9D9D9"/>
		<stop  offset="0.85" style="stop-color:#B6B7B5"/>
		<stop  offset="1" style="stop-color:#9A9DA3"/>
	</linearGradient>
	<rect x="3.875" y="69.75" fill="url(#SVGID_18_)" width="30.5" height="2.334"/>
	
		<radialGradient id="SVGID_19_" cx="-3072.2725" cy="63.75" r="62.2691" gradientTransform="matrix(0.2168 0 0 1 684.5699 0)" gradientUnits="userSpaceOnUse">
		<stop  offset="0.5" style="stop-color:#8DBAB9"/>
		<stop  offset="0.75" style="stop-color:#467677"/>
		<stop  offset="0.7981" style="stop-color:#3D6E6F"/>
		<stop  offset="0.8972" style="stop-color:#326464"/>
		<stop  offset="1" style="stop-color:#2E6060"/>
	</radialGradient>
	<path fill="url(#SVGID_19_)" d="M29.25,65.748c0,1.565-1.27,2.835-2.835,2.835H11.46c-1.565,0-2.835-1.27-2.835-2.835v-6.705
		c0-1.565,1.27-2.835,2.835-2.835h14.955c1.565,0,2.835,1.27,2.835,2.835V65.748z"/>
	
		<radialGradient id="SVGID_20_" cx="-3029.2075" cy="60.6152" r="56.1114" gradientTransform="matrix(0.2192 0 0 0.9975 682.5424 3.149)" gradientUnits="userSpaceOnUse">
		<stop  offset="0.5" style="stop-color:#8DBAB9"/>
		<stop  offset="0.75" style="stop-color:#467677"/>
		<stop  offset="0.7981" style="stop-color:#3D6E6F"/>
		<stop  offset="0.8972" style="stop-color:#326464"/>
		<stop  offset="1" style="stop-color:#2E6060"/>
	</radialGradient>
	<path fill="url(#SVGID_20_)" stroke="#E5E5E6" stroke-width="0.3" d="M28.333,65.409c0,1.407-1.156,2.549-2.583,2.549H12.125
		c-1.427,0-2.583-1.142-2.583-2.549v-6.027c0-1.407,1.156-2.549,2.583-2.549H25.75c1.427,0,2.583,1.142,2.583,2.549V65.409z"/>
	<linearGradient id="SVGID_21_" gradientUnits="userSpaceOnUse" x1="4.333" y1="80.418" x2="34" y2="80.418">
		<stop  offset="0" style="stop-color:#9A9DA3"/>
		<stop  offset="0.15" style="stop-color:#B6B7B5"/>
		<stop  offset="0.5" style="stop-color:#D9D9D9"/>
		<stop  offset="0.85" style="stop-color:#B6B7B5"/>
		<stop  offset="1" style="stop-color:#9A9DA3"/>
	</linearGradient>
	<rect x="5" y="72.084" fill="url(#SVGID_21_)" width="29.375" height="16.669"/>
	<linearGradient id="SVGID_22_" gradientUnits="userSpaceOnUse" x1="9" y1="89.9199" x2="29" y2="89.9199">
		<stop  offset="0" style="stop-color:#9A9DA3"/>
		<stop  offset="0.15" style="stop-color:#B6B7B5"/>
		<stop  offset="0.5" style="stop-color:#D9D9D9"/>
		<stop  offset="0.85" style="stop-color:#B6B7B5"/>
		<stop  offset="1" style="stop-color:#9A9DA3"/>
	</linearGradient>
	<rect x="3.875" y="88.753" fill="url(#SVGID_22_)" width="30.5" height="2.334"/>
	
		<radialGradient id="SVGID_23_" cx="-3072.2725" cy="82.126" r="62.2691" gradientTransform="matrix(0.2168 0 0 1 684.5699 0)" gradientUnits="userSpaceOnUse">
		<stop  offset="0.5" style="stop-color:#8DBAB9"/>
		<stop  offset="0.75" style="stop-color:#467677"/>
		<stop  offset="0.7981" style="stop-color:#3D6E6F"/>
		<stop  offset="0.8972" style="stop-color:#326464"/>
		<stop  offset="1" style="stop-color:#2E6060"/>
	</radialGradient>
	<path fill="url(#SVGID_23_)" d="M29.25,84.124c0,1.565-1.27,2.835-2.835,2.835H11.46c-1.565,0-2.835-1.27-2.835-2.835v-6.705
		c0-1.565,1.27-2.835,2.835-2.835h14.955c1.565,0,2.835,1.27,2.835,2.835V84.124z"/>
	
		<radialGradient id="SVGID_24_" cx="-3029.2075" cy="79.0371" r="56.1115" gradientTransform="matrix(0.2192 0 0 0.9975 682.5424 3.149)" gradientUnits="userSpaceOnUse">
		<stop  offset="0.5" style="stop-color:#8DBAB9"/>
		<stop  offset="0.75" style="stop-color:#467677"/>
		<stop  offset="0.7981" style="stop-color:#3D6E6F"/>
		<stop  offset="0.8972" style="stop-color:#326464"/>
		<stop  offset="1" style="stop-color:#2E6060"/>
	</radialGradient>
	<path fill="url(#SVGID_24_)" stroke="#E5E5E6" stroke-width="0.3" d="M28.333,83.785c0,1.407-1.156,2.549-2.583,2.549H12.125
		c-1.427,0-2.583-1.142-2.583-2.549v-6.027c0-1.407,1.156-2.549,2.583-2.549H25.75c1.427,0,2.583,1.142,2.583,2.549V83.785z"/>
</g>
</svg>
