<?xml version="1.0" encoding="utf-8"?>
<!-- Generator: Adobe Illustrator 15.0.0, SVG Export Plug-In . SVG Version: 6.00 Build 0)  -->
<!DOCTYPE svg PUBLIC "-//W3C//DTD SVG 1.0//EN" "http://www.w3.org/TR/2001/REC-SVG-20010904/DTD/svg10.dtd">
<svg version="1.0" id="_x37_1" xmlns="http://www.w3.org/2000/svg" xmlns:xlink="http://www.w3.org/1999/xlink" x="0px" y="0px"
	 width="154.377px" height="78px" viewBox="0 0 154.377 78" enable-background="new 0 0 154.377 78" xml:space="preserve">
<g>
	<linearGradient id="SVGID_1_" gradientUnits="userSpaceOnUse" x1="55.04" y1="18.6963" x2="55.04" y2="73.252">
		<stop  offset="0" style="stop-color:#9A9DA3"/>
		<stop  offset="0.15" style="stop-color:#B6B7B5"/>
		<stop  offset="0.5" style="stop-color:#FFFFFF"/>
		<stop  offset="0.85" style="stop-color:#B6B7B5"/>
		<stop  offset="1" style="stop-color:#9A9DA3"/>
	</linearGradient>
	<path fill="url(#SVGID_1_)" d="M106.94,18.696H1.932v54.556H106.94c0.668,0,1.208-0.54,1.208-1.206V19.903
		C108.148,19.235,107.608,18.696,106.94,18.696z"/>
	<linearGradient id="SVGID_2_" gradientUnits="userSpaceOnUse" x1="110.8037" y1="65.2861" x2="110.8037" y2="27.1455">
		<stop  offset="0" style="stop-color:#9A9DA3"/>
		<stop  offset="0.15" style="stop-color:#B6B7B5"/>
		<stop  offset="0.5" style="stop-color:#FFFFFF"/>
		<stop  offset="0.85" style="stop-color:#B6B7B5"/>
		<stop  offset="1" style="stop-color:#9A9DA3"/>
	</linearGradient>
	<rect x="108.148" y="27.146" fill="url(#SVGID_2_)" width="5.311" height="38.141"/>
	<linearGradient id="SVGID_3_" gradientUnits="userSpaceOnUse" x1="113.459" y1="18.6963" x2="113.459" y2="73.252">
		<stop  offset="0" style="stop-color:#000000"/>
		<stop  offset="0.5" style="stop-color:#333333"/>
		<stop  offset="1" style="stop-color:#000000"/>
	</linearGradient>
	<path fill="url(#SVGID_3_)" d="M114.666,72.046c0,0.666-0.54,1.206-1.207,1.206l0,0c-0.666,0-1.207-0.54-1.207-1.206V19.903
		c0-0.668,0.541-1.207,1.207-1.207l0,0c0.667,0,1.207,0.539,1.207,1.207V72.046z"/>
	<g>
		<linearGradient id="SVGID_4_" gradientUnits="userSpaceOnUse" x1="18.8306" y1="67.9824" x2="7.8883" y2="67.9824">
			<stop  offset="0" style="stop-color:#9A9DA3"/>
			<stop  offset="0.15" style="stop-color:#B6B7B5"/>
			<stop  offset="0.5" style="stop-color:#DBDCDC"/>
			<stop  offset="0.85" style="stop-color:#B6B7B5"/>
			<stop  offset="1" style="stop-color:#9A9DA3"/>
		</linearGradient>
		<rect x="16.738" y="60.7" fill="url(#SVGID_4_)" width="2.816" height="14.564"/>
		<linearGradient id="SVGID_5_" gradientUnits="userSpaceOnUse" x1="40.0601" y1="67.9824" x2="32.5553" y2="67.9824">
			<stop  offset="0" style="stop-color:#9A9DA3"/>
			<stop  offset="0.15" style="stop-color:#B6B7B5"/>
			<stop  offset="0.5" style="stop-color:#DBDCDC"/>
			<stop  offset="0.85" style="stop-color:#B6B7B5"/>
			<stop  offset="1" style="stop-color:#9A9DA3"/>
		</linearGradient>
		<rect x="38.625" y="60.7" fill="url(#SVGID_5_)" width="1.932" height="14.564"/>
		<linearGradient id="SVGID_6_" gradientUnits="userSpaceOnUse" x1="16.0947" y1="76.6323" x2="42.0049" y2="76.6323">
			<stop  offset="0" style="stop-color:#9A9DA3"/>
			<stop  offset="0.15" style="stop-color:#B6B7B5"/>
			<stop  offset="0.5" style="stop-color:#DBDCDC"/>
			<stop  offset="0.85" style="stop-color:#B6B7B5"/>
			<stop  offset="1" style="stop-color:#9A9DA3"/>
		</linearGradient>
		<rect x="16.095" y="75.265" fill="url(#SVGID_6_)" width="25.91" height="2.735"/>
		
			<linearGradient id="SVGID_7_" gradientUnits="userSpaceOnUse" x1="1736.2891" y1="1831.4551" x2="1736.2891" y2="1842.7994" gradientTransform="matrix(-1 0 0 -1 1765.3789 1907.3633)">
			<stop  offset="0" style="stop-color:#000000"/>
			<stop  offset="0.5" style="stop-color:#333333"/>
			<stop  offset="1" style="stop-color:#000000"/>
		</linearGradient>
		<rect x="19.555" y="72.288" fill="url(#SVGID_7_)" width="19.07" height="2.977"/>
	</g>
	<g>
		<linearGradient id="SVGID_8_" gradientUnits="userSpaceOnUse" x1="79.9854" y1="67.9824" x2="69.0393" y2="67.9824">
			<stop  offset="0" style="stop-color:#9A9DA3"/>
			<stop  offset="0.15" style="stop-color:#B6B7B5"/>
			<stop  offset="0.5" style="stop-color:#DBDCDC"/>
			<stop  offset="0.85" style="stop-color:#B6B7B5"/>
			<stop  offset="1" style="stop-color:#9A9DA3"/>
		</linearGradient>
		<rect x="77.893" y="60.7" fill="url(#SVGID_8_)" width="2.817" height="14.564"/>
		<linearGradient id="SVGID_9_" gradientUnits="userSpaceOnUse" x1="101.2144" y1="67.9824" x2="93.7134" y2="67.9824">
			<stop  offset="0" style="stop-color:#9A9DA3"/>
			<stop  offset="0.15" style="stop-color:#B6B7B5"/>
			<stop  offset="0.5" style="stop-color:#DBDCDC"/>
			<stop  offset="0.85" style="stop-color:#B6B7B5"/>
			<stop  offset="1" style="stop-color:#9A9DA3"/>
		</linearGradient>
		<rect x="99.78" y="60.7" fill="url(#SVGID_9_)" width="1.931" height="14.564"/>
		<linearGradient id="SVGID_10_" gradientUnits="userSpaceOnUse" x1="77.25" y1="76.6323" x2="103.1602" y2="76.6323">
			<stop  offset="0" style="stop-color:#9A9DA3"/>
			<stop  offset="0.15" style="stop-color:#B6B7B5"/>
			<stop  offset="0.5" style="stop-color:#DBDCDC"/>
			<stop  offset="0.85" style="stop-color:#B6B7B5"/>
			<stop  offset="1" style="stop-color:#9A9DA3"/>
		</linearGradient>
		<rect x="77.25" y="75.265" fill="url(#SVGID_10_)" width="25.91" height="2.735"/>
		
			<linearGradient id="SVGID_11_" gradientUnits="userSpaceOnUse" x1="1675.1338" y1="1831.4551" x2="1675.1338" y2="1842.7994" gradientTransform="matrix(-1 0 0 -1 1765.3789 1907.3633)">
			<stop  offset="0" style="stop-color:#000000"/>
			<stop  offset="0.5" style="stop-color:#333333"/>
			<stop  offset="1" style="stop-color:#000000"/>
		</linearGradient>
		<rect x="80.71" y="72.288" fill="url(#SVGID_11_)" width="19.07" height="2.977"/>
	</g>
	<linearGradient id="SVGID_12_" gradientUnits="userSpaceOnUse" x1="1.9316" y1="18.6963" x2="1.9316" y2="73.252">
		<stop  offset="0" style="stop-color:#000000"/>
		<stop  offset="0.5" style="stop-color:#333333"/>
		<stop  offset="1" style="stop-color:#000000"/>
	</linearGradient>
	<path fill="url(#SVGID_12_)" d="M3.139,72.046c0,0.666-0.541,1.206-1.207,1.206l0,0c-0.666,0-1.207-0.54-1.207-1.206V19.903
		c0-0.668,0.541-1.207,1.207-1.207l0,0c0.666,0,1.207,0.539,1.207,1.207V72.046z"/>
	<linearGradient id="SVGID_13_" gradientUnits="userSpaceOnUse" x1="0.9658" y1="35.3408" x2="0.9658" y2="55.3408">
		<stop  offset="0" style="stop-color:#000000"/>
		<stop  offset="0.5" style="stop-color:#333333"/>
		<stop  offset="1" style="stop-color:#000000"/>
	</linearGradient>
	<rect y="35.341" fill="url(#SVGID_13_)" width="1.932" height="20"/>
	<linearGradient id="SVGID_14_" gradientUnits="userSpaceOnUse" x1="153.0493" y1="55.3408" x2="153.0493" y2="35.3408">
		<stop  offset="0" style="stop-color:#000000"/>
		<stop  offset="0.5" style="stop-color:#333333"/>
		<stop  offset="1" style="stop-color:#000000"/>
	</linearGradient>
	<rect x="151.722" y="35.341" fill="url(#SVGID_14_)" width="2.655" height="20"/>
	<linearGradient id="SVGID_15_" gradientUnits="userSpaceOnUse" x1="133.4692" y1="18.6963" x2="133.4692" y2="73.252">
		<stop  offset="0" style="stop-color:#9A9DA3"/>
		<stop  offset="0.15" style="stop-color:#B6B7B5"/>
		<stop  offset="0.5" style="stop-color:#FFFFFF"/>
		<stop  offset="0.85" style="stop-color:#B6B7B5"/>
		<stop  offset="1" style="stop-color:#9A9DA3"/>
	</linearGradient>
	<path fill="url(#SVGID_15_)" d="M152.272,18.696h-38.813v54.556h38.813c0.668,0,1.207-0.54,1.207-1.206V19.903
		C153.479,19.235,152.94,18.696,152.272,18.696z"/>
	<linearGradient id="SVGID_16_" gradientUnits="userSpaceOnUse" x1="21.1416" y1="16.1318" x2="41.1416" y2="16.1318">
		<stop  offset="0" style="stop-color:#9A9DA3"/>
		<stop  offset="0.15" style="stop-color:#B6B7B5"/>
		<stop  offset="0.5" style="stop-color:#FFFFFF"/>
		<stop  offset="0.85" style="stop-color:#B6B7B5"/>
		<stop  offset="1" style="stop-color:#9A9DA3"/>
	</linearGradient>
	<path fill="url(#SVGID_16_)" d="M21.142,7.028v9.578v2.529c0,3.368,4.477,6.1,10,6.1c5.522,0,10-2.731,10-6.1v-2.529V7.028H21.142z
		"/>
	<linearGradient id="SVGID_17_" gradientUnits="userSpaceOnUse" x1="111.5273" y1="29.0762" x2="111.5273" y2="27.1455">
		<stop  offset="0" style="stop-color:#000000"/>
		<stop  offset="0.5" style="stop-color:#333333"/>
		<stop  offset="1" style="stop-color:#000000"/>
	</linearGradient>
	<rect x="106.217" y="27.146" fill="url(#SVGID_17_)" width="10.621" height="1.931"/>
	<linearGradient id="SVGID_18_" gradientUnits="userSpaceOnUse" x1="111.5273" y1="36.3184" x2="111.5273" y2="34.3877">
		<stop  offset="0" style="stop-color:#000000"/>
		<stop  offset="0.5" style="stop-color:#333333"/>
		<stop  offset="1" style="stop-color:#000000"/>
	</linearGradient>
	<rect x="106.217" y="34.388" fill="url(#SVGID_18_)" width="10.621" height="1.931"/>
	<linearGradient id="SVGID_19_" gradientUnits="userSpaceOnUse" x1="111.5273" y1="43.5605" x2="111.5273" y2="41.6289">
		<stop  offset="0" style="stop-color:#000000"/>
		<stop  offset="0.5" style="stop-color:#333333"/>
		<stop  offset="1" style="stop-color:#000000"/>
	</linearGradient>
	<rect x="106.217" y="41.629" fill="url(#SVGID_19_)" width="10.621" height="1.932"/>
	<linearGradient id="SVGID_20_" gradientUnits="userSpaceOnUse" x1="111.5273" y1="50.8018" x2="111.5273" y2="48.8711">
		<stop  offset="0" style="stop-color:#000000"/>
		<stop  offset="0.5" style="stop-color:#333333"/>
		<stop  offset="1" style="stop-color:#000000"/>
	</linearGradient>
	<rect x="106.217" y="48.871" fill="url(#SVGID_20_)" width="10.621" height="1.931"/>
	<linearGradient id="SVGID_21_" gradientUnits="userSpaceOnUse" x1="111.5273" y1="58.0439" x2="111.5273" y2="56.1123">
		<stop  offset="0" style="stop-color:#000000"/>
		<stop  offset="0.5" style="stop-color:#333333"/>
		<stop  offset="1" style="stop-color:#000000"/>
	</linearGradient>
	<rect x="106.217" y="56.112" fill="url(#SVGID_21_)" width="10.621" height="1.932"/>
	<linearGradient id="SVGID_22_" gradientUnits="userSpaceOnUse" x1="111.5273" y1="65.2861" x2="111.5273" y2="63.3545">
		<stop  offset="0" style="stop-color:#000000"/>
		<stop  offset="0.5" style="stop-color:#333333"/>
		<stop  offset="1" style="stop-color:#000000"/>
	</linearGradient>
	<rect x="106.217" y="63.354" fill="url(#SVGID_22_)" width="10.621" height="1.932"/>
	<linearGradient id="SVGID_23_" gradientUnits="userSpaceOnUse" x1="17.7432" y1="4.0015" x2="45.5044" y2="4.0015">
		<stop  offset="0" style="stop-color:#9A9DA3"/>
		<stop  offset="0.15" style="stop-color:#B6B7B5"/>
		<stop  offset="0.5" style="stop-color:#FFFFFF"/>
		<stop  offset="0.85" style="stop-color:#B6B7B5"/>
		<stop  offset="1" style="stop-color:#9A9DA3"/>
	</linearGradient>
	<rect x="7.081" y="0.975" fill="url(#SVGID_23_)" width="48.12" height="6.054"/>
	<linearGradient id="SVGID_24_" gradientUnits="userSpaceOnUse" x1="7.0811" y1="0.8765" x2="55.2012" y2="0.8765">
		<stop  offset="0" style="stop-color:#9A9DA3"/>
		<stop  offset="0.15" style="stop-color:#B6B7B5"/>
		<stop  offset="0.5" style="stop-color:#FFFFFF"/>
		<stop  offset="0.85" style="stop-color:#B6B7B5"/>
		<stop  offset="1" style="stop-color:#9A9DA3"/>
	</linearGradient>
	<ellipse fill="url(#SVGID_24_)" cx="31.141" cy="0.877" rx="24.06" ry="0.877"/>
	<linearGradient id="SVGID_25_" gradientUnits="userSpaceOnUse" x1="21.1416" y1="0.9453" x2="41.1416" y2="0.9453">
		<stop  offset="0" style="stop-color:#9A9DA3"/>
		<stop  offset="0.35" style="stop-color:#B6B7B5"/>
		<stop  offset="0.65" style="stop-color:#B6B7B5"/>
		<stop  offset="1" style="stop-color:#9A9DA3"/>
	</linearGradient>
	<ellipse fill="url(#SVGID_25_)" cx="31.142" cy="0.946" rx="10" ry="0.944"/>
	<linearGradient id="SVGID_26_" gradientUnits="userSpaceOnUse" x1="17.7432" y1="4.3726" x2="45.5044" y2="4.3726">
		<stop  offset="0" style="stop-color:#9A9DA3"/>
		<stop  offset="0.15" style="stop-color:#B6B7B5"/>
		<stop  offset="0.5" style="stop-color:#FFFFFF"/>
		<stop  offset="0.85" style="stop-color:#B6B7B5"/>
		<stop  offset="1" style="stop-color:#9A9DA3"/>
	</linearGradient>
	<rect x="7.081" y="1.717" fill="url(#SVGID_26_)" width="48.12" height="5.312"/>
</g>
</svg>
