<?xml version="1.0" encoding="utf-8"?>
<!-- Generator: Adobe Illustrator 15.0.0, SVG Export Plug-In . SVG Version: 6.00 Build 0)  -->
<!DOCTYPE svg PUBLIC "-//W3C//DTD SVG 1.0//EN" "http://www.w3.org/TR/2001/REC-SVG-20010904/DTD/svg10.dtd">
<svg version="1.0" id="_x37_1" xmlns="http://www.w3.org/2000/svg" xmlns:xlink="http://www.w3.org/1999/xlink" x="0px" y="0px"
	 width="85.492px" height="98.084px" viewBox="0 0 85.492 98.084" enable-background="new 0 0 85.492 98.084" xml:space="preserve">
<g>
	<g>
		<path fill="#E6D087" d="M51.691,6.263c0,0,0.348,7.226,2.48,7.877l-26.411,1.152c2.136-0.649,4.548-9.029,4.548-9.029H51.691z"/>
		
			<radialGradient id="SVGID_1_" cx="113.9551" cy="145.7178" r="42.5672" gradientTransform="matrix(1.0742 0 0 1.0742 -69.5259 -110.6018)" gradientUnits="userSpaceOnUse">
			<stop  offset="0" style="stop-color:#CCA226"/>
			<stop  offset="0.1483" style="stop-color:#D0A628"/>
			<stop  offset="0.31" style="stop-color:#DCB42F"/>
			<stop  offset="0.35" style="stop-color:#E0B831"/>
			<stop  offset="0.7" style="stop-color:#EAD991"/>
			<stop  offset="0.9" style="stop-color:#E0B831"/>
			<stop  offset="0.9158" style="stop-color:#DAB12E"/>
			<stop  offset="0.9571" style="stop-color:#CFA628"/>
			<stop  offset="1" style="stop-color:#CCA226"/>
		</radialGradient>
		<circle fill="url(#SVGID_1_)" cx="42.746" cy="55.338" r="42.746"/>
		
			<radialGradient id="SVGID_2_" cx="104.5166" cy="154.4775" r="26.2827" gradientTransform="matrix(1.0742 0 0 1.0742 -69.5259 -110.6018)" gradientUnits="userSpaceOnUse">
			<stop  offset="0.6758" style="stop-color:#EAD991"/>
			<stop  offset="0.692" style="stop-color:#E2CB75"/>
			<stop  offset="0.7127" style="stop-color:#DABC58"/>
			<stop  offset="0.7348" style="stop-color:#D4B042"/>
			<stop  offset="0.7589" style="stop-color:#CFA832"/>
			<stop  offset="0.7863" style="stop-color:#CDA329"/>
			<stop  offset="0.8242" style="stop-color:#CCA226"/>
		</radialGradient>
		<circle fill="url(#SVGID_2_)" stroke="#D3A720" cx="42.746" cy="55.338" r="28.233"/>
		<path fill="#1A1A1A" d="M46.921,27.438"/>
		<path fill="none" stroke="#1A1A1A" stroke-width="0.5" d="M46.921,27.438"/>
		<path fill="#4D4D4D" d="M54.527,55.34c0,6.504-5.277,11.78-11.783,11.779c-6.504,0-11.781-5.275-11.781-11.779
			c0-6.508,5.277-11.781,11.781-11.781C49.25,43.559,54.527,48.833,54.527,55.34z"/>
		
			<radialGradient id="SVGID_3_" cx="107.8486" cy="160.8955" r="11.5193" gradientTransform="matrix(1.0742 0 0 1.0742 -69.5259 -110.6018)" gradientUnits="userSpaceOnUse">
			<stop  offset="0" style="stop-color:#333333"/>
			<stop  offset="1" style="stop-color:#000000"/>
		</radialGradient>
		<path fill="url(#SVGID_3_)" d="M52.24,55.34c0,5.241-4.253,9.493-9.496,9.493c-5.24,0-9.492-4.252-9.492-9.493
			c0-5.242,4.252-9.496,9.492-9.496C47.987,45.844,52.24,50.098,52.24,55.34z"/>
		
			<radialGradient id="SVGID_4_" cx="113.9551" cy="145.7158" r="42.5684" gradientTransform="matrix(1.0742 0 0 1.0742 -69.5259 -110.6018)" gradientUnits="userSpaceOnUse">
			<stop  offset="0" style="stop-color:#CCA226"/>
			<stop  offset="0.1483" style="stop-color:#D0A628"/>
			<stop  offset="0.31" style="stop-color:#DCB42F"/>
			<stop  offset="0.35" style="stop-color:#E0B831"/>
			<stop  offset="0.7" style="stop-color:#EAD991"/>
			<stop  offset="0.9" style="stop-color:#E0B831"/>
			<stop  offset="0.9158" style="stop-color:#DAB12E"/>
			<stop  offset="0.9571" style="stop-color:#CFA628"/>
			<stop  offset="1" style="stop-color:#CCA226"/>
		</radialGradient>
		<path fill="url(#SVGID_4_)" d="M36.468,27.807c-12.572,2.854-21.955,14.096-21.955,27.531c0,15.592,12.639,28.233,28.233,28.233
			c15.592,0,28.233-12.641,28.233-28.233c0-13.869-10.001-25.404-23.188-27.783l-0.871-0.116c-2.186,0-5.466-1.491-8.549-4.572
			c-3.083-3.084-6.063-9.743-6.063-9.743v-6.86h19.383c0,0,0.348,7.226,2.48,7.877l2.284,0.7
			c16.883,5.712,29.036,21.686,29.036,40.498c0,23.609-19.139,42.746-42.746,42.746C19.137,98.084,0,78.946,0,55.338
			c0-17.909,11.011-33.245,26.635-39.605"/>
		<path fill="none" stroke="#CCCCCC" stroke-width="0.5" d="M42.746,83.571c15.592,0,28.233-12.641,28.233-28.233
			c0-13.869-10.001-25.404-23.188-27.783l-0.871-0.116c-2.186,0-5.466-1.491-8.549-4.572c-3.083-3.084-6.063-9.743-6.063-9.743
			v-6.86"/>
		
			<linearGradient id="SVGID_5_" gradientUnits="userSpaceOnUse" x1="39.3936" y1="25.5771" x2="70.8184" y2="25.5771" gradientTransform="matrix(1.0146 0 0 1.0146 -13.911 -22.0603)">
			<stop  offset="0" style="stop-color:#CCA226"/>
			<stop  offset="0.1059" style="stop-color:#D0A628"/>
			<stop  offset="0.2214" style="stop-color:#DCB42F"/>
			<stop  offset="0.25" style="stop-color:#E0B831"/>
			<stop  offset="0.5" style="stop-color:#EAD991"/>
			<stop  offset="0.75" style="stop-color:#E0B831"/>
			<stop  offset="0.7894" style="stop-color:#DAB12E"/>
			<stop  offset="0.8928" style="stop-color:#CFA628"/>
			<stop  offset="1" style="stop-color:#CCA226"/>
		</linearGradient>
		<rect x="26.058" y="0" fill="url(#SVGID_5_)" width="31.884" height="7.778"/>
		<circle fill="#E9BE29" stroke="#D3A720" stroke-width="0.5" cx="42.544" cy="84.223" r="6.714"/>
		<g>
			<rect x="51.911" y="42.988" fill="#A67B23" width="2.751" height="2.625"/>
			<rect x="51.911" y="65.292" fill="#A67B23" width="2.751" height="2.626"/>
			<rect x="29.548" y="42.988" fill="#A67B23" width="2.751" height="2.625"/>
			<rect x="29.548" y="65.291" fill="#A67B23" width="2.751" height="2.626"/>
		</g>
	</g>
	<rect x="29.251" y="93.891" fill="#C89B1A" width="25.235" height="4.193"/>
	<line fill="none" stroke="#D3A720" x1="32.339" y1="93.891" x2="51.405" y2="93.891"/>
	
		<linearGradient id="SVGID_6_" gradientUnits="userSpaceOnUse" x1="1718.1563" y1="115.3633" x2="1743.0293" y2="115.3633" gradientTransform="matrix(-1.0146 0 0 1.0146 1778.5259 -21.9382)">
		<stop  offset="0" style="stop-color:#EAD991"/>
		<stop  offset="0.152" style="stop-color:#EAD88F"/>
		<stop  offset="0.2067" style="stop-color:#E9D688"/>
		<stop  offset="0.2457" style="stop-color:#E8D27D"/>
		<stop  offset="0.2773" style="stop-color:#E6CC6C"/>
		<stop  offset="0.3043" style="stop-color:#E4C556"/>
		<stop  offset="0.3278" style="stop-color:#E1BB3B"/>
		<stop  offset="0.3352" style="stop-color:#E0B831"/>
		<stop  offset="0.5881" style="stop-color:#DEB630"/>
		<stop  offset="0.679" style="stop-color:#D8AF2D"/>
		<stop  offset="0.7438" style="stop-color:#CDA427"/>
		<stop  offset="0.75" style="stop-color:#CCA226"/>
	</linearGradient>
	<rect x="10.049" y="92.135" fill="url(#SVGID_6_)" width="25.235" height="5.949"/>
	
		<linearGradient id="SVGID_7_" gradientUnits="userSpaceOnUse" x1="61.9951" y1="115.4834" x2="86.8672" y2="115.4834" gradientTransform="matrix(1.0146 0 0 1.0146 -13.911 -22.0603)">
		<stop  offset="0" style="stop-color:#EAD991"/>
		<stop  offset="0.152" style="stop-color:#EAD88F"/>
		<stop  offset="0.2067" style="stop-color:#E9D688"/>
		<stop  offset="0.2457" style="stop-color:#E8D27D"/>
		<stop  offset="0.2773" style="stop-color:#E6CC6C"/>
		<stop  offset="0.3043" style="stop-color:#E4C556"/>
		<stop  offset="0.3278" style="stop-color:#E1BB3B"/>
		<stop  offset="0.3352" style="stop-color:#E0B831"/>
		<stop  offset="0.5881" style="stop-color:#DEB630"/>
		<stop  offset="0.679" style="stop-color:#D8AF2D"/>
		<stop  offset="0.7438" style="stop-color:#CDA427"/>
		<stop  offset="0.75" style="stop-color:#CCA226"/>
	</linearGradient>
	<rect x="48.989" y="92.135" fill="url(#SVGID_7_)" width="25.235" height="5.949"/>
</g>
<path fill="#1A1A1A" d="M120.494-53.708"/>
<path fill="none" stroke="#1A1A1A" stroke-width="0.5" d="M120.494-53.708"/>
</svg>
