<?xml version="1.0" encoding="utf-8"?>
<!-- Generator: Adobe Illustrator 15.0.0, SVG Export Plug-In . SVG Version: 6.00 Build 0)  -->
<!DOCTYPE svg PUBLIC "-//W3C//DTD SVG 1.0//EN" "http://www.w3.org/TR/2001/REC-SVG-20010904/DTD/svg10.dtd">
<svg version="1.0" id="_x37_1" xmlns="http://www.w3.org/2000/svg" xmlns:xlink="http://www.w3.org/1999/xlink" x="0px" y="0px"
	 width="41.457px" height="91.335px" viewBox="0 0 41.457 91.335" enable-background="new 0 0 41.457 91.335" xml:space="preserve">
<g>
	<path fill="#333333" d="M7.312,13.501h-2c0,0-2.333,0.501-3,1.167s-6.334,5.668,3,3.167L7.312,13.501z"/>
	<path fill="#333333" d="M34.145,13.501h2c0,0,2.333,0.501,3,1.167s6.334,5.668-3,3.167L34.145,13.501z"/>
	<g>
		<rect x="6.646" y="72.835" width="1.333" height="2.333"/>
		<rect x="6.646" y="77.71" width="1.333" height="2.333"/>
		<rect x="6.646" y="82.585" width="1.333" height="2.333"/>
	</g>
	<linearGradient id="SVGID_1_" gradientUnits="userSpaceOnUse" x1="20.8125" y1="95.9063" x2="20.8125" y2="66.8026">
		<stop  offset="0.2308" style="stop-color:#333333"/>
		<stop  offset="0.5904" style="stop-color:#313131"/>
		<stop  offset="0.72" style="stop-color:#2A2A2A"/>
		<stop  offset="0.812" style="stop-color:#1F1F1F"/>
		<stop  offset="0.8862" style="stop-color:#0E0E0E"/>
		<stop  offset="0.8901" style="stop-color:#0D0D0D"/>
	</linearGradient>
	<polygon fill="url(#SVGID_1_)" points="33.146,91.335 8.479,91.335 11.479,69.001 30.146,69.001 	"/>
	<linearGradient id="SVGID_2_" gradientUnits="userSpaceOnUse" x1="7.812" y1="67.459" x2="34.396" y2="67.459">
		<stop  offset="0" style="stop-color:#9A9DA3"/>
		<stop  offset="0.15" style="stop-color:#B6B7B5"/>
		<stop  offset="0.5" style="stop-color:#FFFFFF"/>
		<stop  offset="0.85" style="stop-color:#B6B7B5"/>
		<stop  offset="1" style="stop-color:#9A9DA3"/>
	</linearGradient>
	<path fill="url(#SVGID_2_)" d="M7.812,65.084v1.915c0,1.565,1.27,2.835,2.835,2.835h20.914c1.565,0,2.835-1.27,2.835-2.835v-1.915
		H7.812z"/>
	<rect x="11.146" y="65.084" fill="#333333" width="7.5" height="3.083"/>
	<rect x="22.562" y="65.084" fill="#333333" width="7.334" height="3"/>
	<linearGradient id="SVGID_3_" gradientUnits="userSpaceOnUse" x1="7.812" y1="47.792" x2="34.396" y2="47.792">
		<stop  offset="0" style="stop-color:#9A9DA3"/>
		<stop  offset="0.15" style="stop-color:#B6B7B5"/>
		<stop  offset="0.5" style="stop-color:#FFFFFF"/>
		<stop  offset="0.85" style="stop-color:#B6B7B5"/>
		<stop  offset="1" style="stop-color:#9A9DA3"/>
	</linearGradient>
	<rect x="7.812" y="30.501" fill="url(#SVGID_3_)" width="26.584" height="34.583"/>
	<rect x="17.229" y="54" fill="#1A1A1A" width="17.167" height="1.417"/>
	<rect x="17.229" y="52.543" fill="#1A1A1A" width="17.167" height="0.708"/>
	<rect x="7.812" y="60.667" fill="#333333" width="7.917" height="2.334"/>
	<rect x="26.479" y="60.667" fill="#333333" width="7.917" height="2.334"/>
	<rect x="17.229" y="60.667" fill="#333333" width="7.333" height="2.334"/>
	<rect x="15.312" y="45.835" fill="#1A1A1A" width="1.917" height="14.832"/>
	<linearGradient id="SVGID_4_" gradientUnits="userSpaceOnUse" x1="18.0635" y1="56.168" x2="-13.2705" y2="40.502">
		<stop  offset="0" style="stop-color:#9A9DA3"/>
		<stop  offset="0.15" style="stop-color:#B6B7B5"/>
		<stop  offset="0.5" style="stop-color:#FFFFFF"/>
		<stop  offset="0.85" style="stop-color:#B6B7B5"/>
		<stop  offset="1" style="stop-color:#9A9DA3"/>
	</linearGradient>
	<polygon fill="url(#SVGID_4_)" points="15.312,60.667 5.146,58.667 5.146,45.835 15.312,45.835 	"/>
	<polyline fill="none" stroke="#1A1A1A" stroke-width="0.5" points="13.146,47.251 13.146,58.167 7.062,57.251 	"/>
	<rect x="17.229" y="56.167" fill="#1A1A1A" width="17.167" height="1.417"/>
	<linearGradient id="SVGID_5_" gradientUnits="userSpaceOnUse" x1="9.6045" y1="86.084" x2="9.6045" y2="72.084">
		<stop  offset="0" style="stop-color:#9A9DA3"/>
		<stop  offset="0.15" style="stop-color:#B6B7B5"/>
		<stop  offset="0.5" style="stop-color:#FFFFFF"/>
		<stop  offset="0.85" style="stop-color:#B6B7B5"/>
		<stop  offset="1" style="stop-color:#9A9DA3"/>
	</linearGradient>
	<rect x="7.979" y="72.084" fill="url(#SVGID_5_)" width="3.251" height="14"/>
	<rect x="18.48" y="73.334" fill="#333333" width="3.667" height="15.666"/>
	<linearGradient id="SVGID_6_" gradientUnits="userSpaceOnUse" x1="9.478" y1="4.5" x2="32.479" y2="4.5">
		<stop  offset="0" style="stop-color:#9A9DA3"/>
		<stop  offset="0.15" style="stop-color:#B6B7B5"/>
		<stop  offset="0.5" style="stop-color:#FFFFFF"/>
		<stop  offset="0.85" style="stop-color:#B6B7B5"/>
		<stop  offset="1" style="stop-color:#9A9DA3"/>
	</linearGradient>
	<polygon fill="url(#SVGID_6_)" points="28.726,0 22.145,0 19.812,0 13.231,0 9.478,3.753 9.478,9 19.812,9 22.145,9 32.479,9 
		32.479,3.753 	"/>
	<linearGradient id="SVGID_7_" gradientUnits="userSpaceOnUse" x1="5.312" y1="19.835" x2="36.145" y2="19.835">
		<stop  offset="0" style="stop-color:#9A9DA3"/>
		<stop  offset="0.15" style="stop-color:#B6B7B5"/>
		<stop  offset="0.5" style="stop-color:#FFFFFF"/>
		<stop  offset="0.85" style="stop-color:#B6B7B5"/>
		<stop  offset="1" style="stop-color:#9A9DA3"/>
	</linearGradient>
	<rect x="5.312" y="9.168" fill="url(#SVGID_7_)" width="30.833" height="21.333"/>
	<linearGradient id="SVGID_8_" gradientUnits="userSpaceOnUse" x1="14.2285" y1="24" x2="14.2285" y2="29.667">
		<stop  offset="0.8242" style="stop-color:#808080"/>
		<stop  offset="0.8492" style="stop-color:#686868"/>
		<stop  offset="0.8918" style="stop-color:#464646"/>
		<stop  offset="0.9323" style="stop-color:#2D2D2D"/>
		<stop  offset="0.9694" style="stop-color:#1F1F1F"/>
		<stop  offset="1" style="stop-color:#1A1A1A"/>
	</linearGradient>
	<rect x="6.812" y="26.168" fill="url(#SVGID_8_)" width="14.833" height="4.333"/>
	<linearGradient id="SVGID_9_" gradientUnits="userSpaceOnUse" x1="29.645" y1="22.1699" x2="29.645" y2="29.4322">
		<stop  offset="0.8242" style="stop-color:#808080"/>
		<stop  offset="0.8492" style="stop-color:#686868"/>
		<stop  offset="0.8918" style="stop-color:#464646"/>
		<stop  offset="0.9323" style="stop-color:#2D2D2D"/>
		<stop  offset="0.9694" style="stop-color:#1F1F1F"/>
		<stop  offset="1" style="stop-color:#1A1A1A"/>
	</linearGradient>
	<rect x="23.145" y="24.948" fill="url(#SVGID_9_)" width="13" height="5.553"/>
	<line fill="none" stroke="#1A1A1A" stroke-width="0.5" x1="6.812" y1="30.501" x2="6.812" y2="26.168"/>
	<line fill="none" stroke="#1A1A1A" stroke-width="0.5" x1="6.812" y1="26.168" x2="21.645" y2="26.168"/>
	<line fill="none" stroke="#1A1A1A" stroke-width="0.5" x1="23.145" y1="30.501" x2="23.145" y2="24.948"/>
	<line fill="none" stroke="#1A1A1A" stroke-width="0.5" x1="23.145" y1="24.948" x2="36.145" y2="24.948"/>
	<line fill="none" stroke="#1A1A1A" stroke-width="0.5" x1="5.146" y1="45.835" x2="17.229" y2="45.835"/>
</g>
</svg>
