<?xml version="1.0" encoding="utf-8"?>
<!-- Generator: Adobe Illustrator 15.0.0, SVG Export Plug-In . SVG Version: 6.00 Build 0)  -->
<!DOCTYPE svg PUBLIC "-//W3C//DTD SVG 1.0//EN" "http://www.w3.org/TR/2001/REC-SVG-20010904/DTD/svg10.dtd">
<svg version="1.0" id="_x37_1" xmlns="http://www.w3.org/2000/svg" xmlns:xlink="http://www.w3.org/1999/xlink" x="0px" y="0px"
	 width="34px" height="91.533px" viewBox="0 0 34 91.533" enable-background="new 0 0 34 91.533" xml:space="preserve">
<g>
	<linearGradient id="SVGID_1_" gradientUnits="userSpaceOnUse" x1="1.8125" y1="7.2314" x2="31.156" y2="7.2314">
		<stop  offset="0" style="stop-color:#9A9DA3"/>
		<stop  offset="0.15" style="stop-color:#B6B7B5"/>
		<stop  offset="0.5" style="stop-color:#D9D9D9"/>
		<stop  offset="0.85" style="stop-color:#B6B7B5"/>
		<stop  offset="1" style="stop-color:#9A9DA3"/>
	</linearGradient>
	<path fill="url(#SVGID_1_)" d="M31.527,14.462C30.953,6.934,24.676,0,17,0S3.047,6.934,2.473,14.462H31.527z"/>
	<linearGradient id="SVGID_2_" gradientUnits="userSpaceOnUse" x1="-0.3369" y1="17.4307" x2="33.1607" y2="17.4307">
		<stop  offset="0" style="stop-color:#9A9DA3"/>
		<stop  offset="0.15" style="stop-color:#B6B7B5"/>
		<stop  offset="0.5" style="stop-color:#D9D9D9"/>
		<stop  offset="0.85" style="stop-color:#B6B7B5"/>
		<stop  offset="1" style="stop-color:#9A9DA3"/>
	</linearGradient>
	<path fill="url(#SVGID_2_)" d="M31.527,14.462H2.473c-0.028,0.372-1.057,0.743-1.057,1.122l-1,4.814h33.168l-1-4.814
		C32.584,15.205,31.556,14.834,31.527,14.462z"/>
	<linearGradient id="SVGID_3_" gradientUnits="userSpaceOnUse" x1="0.6211" y1="21.7158" x2="32.2656" y2="21.7158">
		<stop  offset="0" style="stop-color:#1A1A1A"/>
		<stop  offset="0.5" style="stop-color:#808080"/>
		<stop  offset="1" style="stop-color:#1A1A1A"/>
	</linearGradient>
	<rect x="1.333" y="20.398" fill="url(#SVGID_3_)" width="31.333" height="2.635"/>
	<linearGradient id="SVGID_4_" gradientUnits="userSpaceOnUse" x1="0.6211" y1="35.9492" x2="32.2656" y2="35.9492">
		<stop  offset="0" style="stop-color:#9A9DA3"/>
		<stop  offset="0.15" style="stop-color:#B6B7B5"/>
		<stop  offset="0.5" style="stop-color:#D9D9D9"/>
		<stop  offset="0.85" style="stop-color:#B6B7B5"/>
		<stop  offset="1" style="stop-color:#9A9DA3"/>
	</linearGradient>
	<rect x="1.333" y="25.366" fill="url(#SVGID_4_)" width="31.333" height="21.166"/>
	<linearGradient id="SVGID_5_" gradientUnits="userSpaceOnUse" x1="2.4512" y1="75.9082" x2="30.5608" y2="75.9082">
		<stop  offset="0" style="stop-color:#9A9DA3"/>
		<stop  offset="0.15" style="stop-color:#B6B7B5"/>
		<stop  offset="0.5" style="stop-color:#D9D9D9"/>
		<stop  offset="0.85" style="stop-color:#B6B7B5"/>
		<stop  offset="1" style="stop-color:#9A9DA3"/>
	</linearGradient>
	<rect x="3.083" y="60.283" fill="url(#SVGID_5_)" width="27.833" height="31.25"/>
	<linearGradient id="SVGID_6_" gradientUnits="userSpaceOnUse" x1="16.999" y1="46.2002" x2="16.999" y2="51.0332">
		<stop  offset="0.2" style="stop-color:#595757"/>
		<stop  offset="0.2059" style="stop-color:#545353"/>
		<stop  offset="0.2457" style="stop-color:#3A3939"/>
		<stop  offset="0.2897" style="stop-color:#262626"/>
		<stop  offset="0.3394" style="stop-color:#181818"/>
		<stop  offset="0.3997" style="stop-color:#100F0F"/>
		<stop  offset="0.5" style="stop-color:#0D0D0D"/>
		<stop  offset="0.5959" style="stop-color:#111111"/>
		<stop  offset="0.6952" style="stop-color:#1D1D1D"/>
		<stop  offset="0.7958" style="stop-color:#323232"/>
		<stop  offset="0.8" style="stop-color:#333333"/>
	</linearGradient>
	<rect x="1.333" y="46.532" fill="url(#SVGID_6_)" width="31.333" height="3.917"/>
	<linearGradient id="SVGID_7_" gradientUnits="userSpaceOnUse" x1="0.6211" y1="54.4072" x2="32.2656" y2="54.4072">
		<stop  offset="0" style="stop-color:#9A9DA3"/>
		<stop  offset="0.15" style="stop-color:#B6B7B5"/>
		<stop  offset="0.5" style="stop-color:#D9D9D9"/>
		<stop  offset="0.85" style="stop-color:#B6B7B5"/>
		<stop  offset="1" style="stop-color:#9A9DA3"/>
	</linearGradient>
	<rect x="1.333" y="50.449" fill="url(#SVGID_7_)" width="31.333" height="7.917"/>
	<linearGradient id="SVGID_8_" gradientUnits="userSpaceOnUse" x1="0.6211" y1="59.3232" x2="32.2656" y2="59.3232">
		<stop  offset="0" style="stop-color:#1A1A1A"/>
		<stop  offset="0.5" style="stop-color:#808080"/>
		<stop  offset="1" style="stop-color:#1A1A1A"/>
	</linearGradient>
	<rect x="1.333" y="58.364" fill="url(#SVGID_8_)" width="31.333" height="1.919"/>
	<linearGradient id="SVGID_9_" gradientUnits="userSpaceOnUse" x1="-0.7725" y1="25.3662" x2="33.5655" y2="25.3662">
		<stop  offset="0" style="stop-color:#9A9DA3"/>
		<stop  offset="0.15" style="stop-color:#B6B7B5"/>
		<stop  offset="0.5" style="stop-color:#D9D9D9"/>
		<stop  offset="0.85" style="stop-color:#B6B7B5"/>
		<stop  offset="1" style="stop-color:#9A9DA3"/>
	</linearGradient>
	<path fill="url(#SVGID_9_)" d="M34,25.366c0,1.288-1.045,2.333-2.333,2.333H2.333C1.045,27.699,0,26.654,0,25.366l0,0
		c0-1.288,1.045-2.333,2.333-2.333h29.334C32.955,23.033,34,24.078,34,25.366L34,25.366z"/>
	<linearGradient id="SVGID_10_" gradientUnits="userSpaceOnUse" x1="25.7471" y1="36.0928" x2="42.7492" y2="55.2622">
		<stop  offset="0" style="stop-color:#1A1A1A"/>
		<stop  offset="0.5" style="stop-color:#808080"/>
		<stop  offset="1" style="stop-color:#1A1A1A"/>
	</linearGradient>
	<rect x="24.792" y="35.366" fill="url(#SVGID_10_)" width="5.5" height="5.5"/>
	<line fill="none" stroke="#4D4D4D" stroke-width="0.75" x1="1.333" y1="29.366" x2="30.792" y2="29.366"/>
	<g>
		<polygon points="0.958,52.033 0.958,51.03 10.126,51.03 10.126,52.033 0.958,52.033 		"/>
		<polygon points="7.626,57.864 7.626,51.532 8.626,51.532 8.626,57.864 7.626,57.864 		"/>
		<polygon points="7.626,58.364 7.626,57.367 11.625,57.367 11.625,58.364 7.626,58.364 		"/>
		<rect x="0.959" y="53.865" width="7.167" height="1.167"/>
	</g>
	<g>
		<polygon points="11.396,52.033 11.396,51.03 20.563,51.03 20.563,52.033 11.396,52.033 		"/>
		<polygon points="18.063,57.864 18.063,51.532 19.063,51.532 19.063,57.864 18.063,57.864 		"/>
		<polygon points="18.063,58.364 18.063,57.367 22.063,57.367 22.063,58.364 18.063,58.364 		"/>
		<rect x="11.396" y="53.865" width="7.167" height="1.167"/>
	</g>
	<g>
		<polygon points="21.833,52.033 21.833,51.03 31.001,51.03 31.001,52.033 21.833,52.033 		"/>
		<polygon points="28.501,57.864 28.501,51.532 29.501,51.532 29.501,57.864 28.501,57.864 		"/>
		<polygon points="28.501,58.364 28.501,57.367 32.5,57.367 32.5,58.364 28.501,58.364 		"/>
		<rect x="21.834" y="53.865" width="7.167" height="1.167"/>
	</g>
	<rect x="2.124" y="60.283" fill="#999999" width="3.834" height="12.417"/>
	<linearGradient id="SVGID_11_" gradientUnits="userSpaceOnUse" x1="7.041" y1="79.1992" x2="7.041" y2="29.6992">
		<stop  offset="0" style="stop-color:#1A1A1A"/>
		<stop  offset="0.5" style="stop-color:#808080"/>
		<stop  offset="1" style="stop-color:#1A1A1A"/>
	</linearGradient>
	<rect x="5.958" y="64.033" fill="url(#SVGID_11_)" width="2.166" height="22"/>
	<linearGradient id="SVGID_12_" gradientUnits="userSpaceOnUse" x1="13.208" y1="79.1992" x2="13.208" y2="29.6992">
		<stop  offset="0" style="stop-color:#1A1A1A"/>
		<stop  offset="0.5" style="stop-color:#808080"/>
		<stop  offset="1" style="stop-color:#1A1A1A"/>
	</linearGradient>
	<rect x="12.125" y="64.033" fill="url(#SVGID_12_)" width="2.166" height="22"/>
	<linearGradient id="SVGID_13_" gradientUnits="userSpaceOnUse" x1="19.874" y1="79.1992" x2="19.874" y2="29.6992">
		<stop  offset="0" style="stop-color:#1A1A1A"/>
		<stop  offset="0.5" style="stop-color:#808080"/>
		<stop  offset="1" style="stop-color:#1A1A1A"/>
	</linearGradient>
	<rect x="18.791" y="64.033" fill="url(#SVGID_13_)" width="2.166" height="22"/>
	<linearGradient id="SVGID_14_" gradientUnits="userSpaceOnUse" x1="26.041" y1="79.1992" x2="26.041" y2="29.6992">
		<stop  offset="0" style="stop-color:#1A1A1A"/>
		<stop  offset="0.5" style="stop-color:#808080"/>
		<stop  offset="1" style="stop-color:#1A1A1A"/>
	</linearGradient>
	<rect x="24.958" y="64.033" fill="url(#SVGID_14_)" width="2.166" height="22"/>
	<g>
		<linearGradient id="SVGID_15_" gradientUnits="userSpaceOnUse" x1="1.8008" y1="22.5322" x2="16.5409" y2="42.9782">
			<stop  offset="0" style="stop-color:#9A9DA3"/>
			<stop  offset="0.15" style="stop-color:#B6B7B5"/>
			<stop  offset="0.5" style="stop-color:#D9D9D9"/>
			<stop  offset="0.85" style="stop-color:#B6B7B5"/>
			<stop  offset="1" style="stop-color:#9A9DA3"/>
		</linearGradient>
		<rect x="1.708" y="23.262" fill="url(#SVGID_15_)" width="4.438" height="4.438"/>
		<line fill="none" stroke="#1A1A1A" stroke-width="0.5" x1="1.708" y1="23.262" x2="6.146" y2="23.262"/>
		<line fill="none" stroke="#1A1A1A" stroke-width="0.5" x1="6.146" y1="23.262" x2="6.146" y2="27.699"/>
		<line fill="none" stroke="#666666" stroke-width="0.5" x1="1.708" y1="27.699" x2="6.146" y2="27.699"/>
		<line fill="none" stroke="#CCCCCC" stroke-width="0.5" x1="1.708" y1="23.262" x2="1.708" y2="27.699"/>
	</g>
</g>
</svg>
