<?xml version="1.0" encoding="utf-8"?>
<!-- Generator: Adobe Illustrator 15.0.0, SVG Export Plug-In . SVG Version: 6.00 Build 0)  -->
<!DOCTYPE svg PUBLIC "-//W3C//DTD SVG 1.0//EN" "http://www.w3.org/TR/2001/REC-SVG-20010904/DTD/svg10.dtd">
<svg version="1.0" id="_x37_1" xmlns="http://www.w3.org/2000/svg" xmlns:xlink="http://www.w3.org/1999/xlink" x="0px" y="0px"
	 width="80.532px" height="71px" viewBox="0 0 80.532 71" enable-background="new 0 0 80.532 71" xml:space="preserve">
<g>
	<linearGradient id="SVGID_1_" gradientUnits="userSpaceOnUse" x1="57.0234" y1="0" x2="57.0234" y2="20.111">
		<stop  offset="0" style="stop-color:#CCA226"/>
		<stop  offset="0.1059" style="stop-color:#D0A628"/>
		<stop  offset="0.2214" style="stop-color:#DCB42F"/>
		<stop  offset="0.25" style="stop-color:#E0B831"/>
		<stop  offset="0.5" style="stop-color:#EAD991"/>
		<stop  offset="0.75" style="stop-color:#E0B831"/>
		<stop  offset="0.7894" style="stop-color:#DAB12E"/>
		<stop  offset="0.8928" style="stop-color:#CFA628"/>
		<stop  offset="1" style="stop-color:#CCA226"/>
	</linearGradient>
	<rect x="33.515" fill="url(#SVGID_1_)" width="47.018" height="20"/>
	<g>
		<radialGradient id="SVGID_2_" cx="35.502" cy="35.5005" r="36.0398" gradientUnits="userSpaceOnUse">
			<stop  offset="0" style="stop-color:#CCA226"/>
			<stop  offset="0.1483" style="stop-color:#D0A628"/>
			<stop  offset="0.31" style="stop-color:#DCB42F"/>
			<stop  offset="0.35" style="stop-color:#E0B831"/>
			<stop  offset="0.7" style="stop-color:#EAD991"/>
			<stop  offset="0.9" style="stop-color:#E0B831"/>
			<stop  offset="0.9158" style="stop-color:#DAB12E"/>
			<stop  offset="0.9571" style="stop-color:#CFA628"/>
			<stop  offset="1" style="stop-color:#CCA226"/>
		</radialGradient>
		<circle fill="url(#SVGID_2_)" cx="35.502" cy="35.5" r="35"/>
		<path fill="#D3A720" d="M0,35.501C0.002,15.893,15.896,0,35.501,0l0,0C55.106,0,71,15.893,71.002,35.501l0,0
			C71,55.107,55.106,71,35.501,71l0,0C15.896,71,0.002,55.107,0,35.501L0,35.501z M11.105,11.105
			C4.861,17.35,1.002,25.972,1.002,35.501l0,0c0,9.527,3.859,18.149,10.104,24.393l0,0c6.246,6.245,14.866,10.106,24.396,10.106l0,0
			c9.527,0,18.149-3.862,24.396-10.106l0,0c6.245-6.244,10.104-14.866,10.104-24.393l0,0c0-9.53-3.859-18.152-10.104-24.396l0,0
			C53.65,4.861,45.028,1,35.501,1l0,0C25.972,1,17.352,4.861,11.105,11.105L11.105,11.105z"/>
	</g>
	<circle fill="#E9BE29" stroke="#D3A720" cx="35.502" cy="35.5" r="17.479"/>
	<line fill="none" stroke="#D3A720" x1="35.502" y1="35.5" x2="35.502" y2="18.021"/>
	<line fill="none" stroke="#D3A720" x1="35.502" y1="35.5" x2="23.143" y2="47.859"/>
	<line fill="none" stroke="#D3A720" x1="35.502" y1="35.5" x2="47.861" y2="47.859"/>
</g>
</svg>
