<?xml version="1.0" encoding="utf-8"?>
<!-- Generator: Adobe Illustrator 15.0.0, SVG Export Plug-In . SVG Version: 6.00 Build 0)  -->
<!DOCTYPE svg PUBLIC "-//W3C//DTD SVG 1.0//EN" "http://www.w3.org/TR/2001/REC-SVG-20010904/DTD/svg10.dtd">
<svg version="1.0" id="_x37_1" xmlns="http://www.w3.org/2000/svg" xmlns:xlink="http://www.w3.org/1999/xlink" x="0px" y="0px"
	 width="82.7px" height="82px" viewBox="0 0 82.7 82" enable-background="new 0 0 82.7 82" xml:space="preserve">
<g>
	<linearGradient id="SVGID_1_" gradientUnits="userSpaceOnUse" x1="1.2061" y1="62.7788" x2="67.7744" y2="62.7788">
		<stop  offset="0" style="stop-color:#9A9DA3"/>
		<stop  offset="0.15" style="stop-color:#B6B7B5"/>
		<stop  offset="0.5" style="stop-color:#C8C9CA"/>
		<stop  offset="0.85" style="stop-color:#B6B7B5"/>
		<stop  offset="1" style="stop-color:#9A9DA3"/>
	</linearGradient>
	<rect x="1.483" y="43.558" fill="url(#SVGID_1_)" width="66.296" height="38.441"/>
	<linearGradient id="SVGID_2_" gradientUnits="userSpaceOnUse" x1="58.5977" y1="0" x2="58.5977" y2="20.1105">
		<stop  offset="0" style="stop-color:#9A9DA3"/>
		<stop  offset="0.15" style="stop-color:#B6B7B5"/>
		<stop  offset="0.5" style="stop-color:#FFFFFF"/>
		<stop  offset="0.85" style="stop-color:#B6B7B5"/>
		<stop  offset="1" style="stop-color:#9A9DA3"/>
	</linearGradient>
	<rect x="34.494" fill="url(#SVGID_2_)" width="48.206" height="20"/>
	<radialGradient id="SVGID_3_" cx="61.7266" cy="62.1816" r="262.0526" gradientUnits="userSpaceOnUse">
		<stop  offset="0" style="stop-color:#9A9DA3"/>
		<stop  offset="0.2033" style="stop-color:#B6B7B5"/>
		<stop  offset="0.5055" style="stop-color:#FFFFFF"/>
		<stop  offset="0.85" style="stop-color:#B6B7B5"/>
		<stop  offset="1" style="stop-color:#9A9DA3"/>
	</radialGradient>
	<circle fill="url(#SVGID_3_)" cx="34.495" cy="34.495" r="34.495"/>
	
		<linearGradient id="SVGID_4_" gradientUnits="userSpaceOnUse" x1="-626.4932" y1="445.9531" x2="-679.1428" y2="395.119" gradientTransform="matrix(0.7071 0.7071 -0.7071 0.7071 792.9382 168.8866)">
		<stop  offset="0" style="stop-color:#9A9DA3"/>
		<stop  offset="0.15" style="stop-color:#B6B7B5"/>
		<stop  offset="0.5" style="stop-color:#FFFFFF"/>
		<stop  offset="0.85" style="stop-color:#B6B7B5"/>
		<stop  offset="1" style="stop-color:#9A9DA3"/>
	</linearGradient>
	<path fill="url(#SVGID_4_)" d="M15.253,15.253c10.627-10.624,27.854-10.624,38.481,0l0,0c10.625,10.628,10.624,27.855-0.002,38.48
		l0,0C43.106,64.361,25.88,64.361,15.253,53.736l0,0C4.627,43.109,4.628,25.881,15.253,15.253L15.253,15.253z M17.82,17.821
		c-9.192,9.226-9.19,24.122,0,33.347l0,0c9.227,9.191,24.121,9.192,33.346,0l0,0c9.192-9.224,9.192-24.121,0-33.346l0,0
		C41.941,8.63,27.045,8.63,17.82,17.821L17.82,17.821z"/>
</g>
</svg>
