<?xml version="1.0" encoding="utf-8"?>
<!-- Generator: Adobe Illustrator 15.0.0, SVG Export Plug-In . SVG Version: 6.00 Build 0)  -->
<!DOCTYPE svg PUBLIC "-//W3C//DTD SVG 1.0//EN" "http://www.w3.org/TR/2001/REC-SVG-20010904/DTD/svg10.dtd">
<svg version="1.0" id="_x37_1" xmlns="http://www.w3.org/2000/svg" xmlns:xlink="http://www.w3.org/1999/xlink" x="0px" y="0px"
	 width="80.031px" height="70px" viewBox="0 0 80.031 70" enable-background="new 0 0 80.031 70" xml:space="preserve">
<g>
	<linearGradient id="SVGID_1_" gradientUnits="userSpaceOnUse" x1="56.5225" y1="0" x2="56.5225" y2="20.111">
		<stop  offset="0" style="stop-color:#2E6060"/>
		<stop  offset="0.1011" style="stop-color:#326464"/>
		<stop  offset="0.2113" style="stop-color:#407071"/>
		<stop  offset="0.25" style="stop-color:#467677"/>
		<stop  offset="0.5" style="stop-color:#8DBAB9"/>
		<stop  offset="0.75" style="stop-color:#467677"/>
		<stop  offset="0.7981" style="stop-color:#3D6E6F"/>
		<stop  offset="0.8972" style="stop-color:#326464"/>
		<stop  offset="1" style="stop-color:#2E6060"/>
	</linearGradient>
	<rect x="33.014" fill="url(#SVGID_1_)" width="47.018" height="20"/>
	<radialGradient id="SVGID_2_" cx="34.8218" cy="31.5513" r="38.9248" gradientUnits="userSpaceOnUse">
		<stop  offset="0" style="stop-color:#2E6060"/>
		<stop  offset="0.1011" style="stop-color:#326464"/>
		<stop  offset="0.2113" style="stop-color:#407071"/>
		<stop  offset="0.25" style="stop-color:#467677"/>
		<stop  offset="0.5" style="stop-color:#8DBAB9"/>
		<stop  offset="0.75" style="stop-color:#467677"/>
		<stop  offset="0.7981" style="stop-color:#3D6E6F"/>
		<stop  offset="0.8972" style="stop-color:#326464"/>
		<stop  offset="1" style="stop-color:#2E6060"/>
	</radialGradient>
	<circle fill="url(#SVGID_2_)" cx="35" cy="35" r="35"/>
	<radialGradient id="SVGID_3_" cx="34.8218" cy="31.5508" r="28.3217" gradientUnits="userSpaceOnUse">
		<stop  offset="0" style="stop-color:#CCA226"/>
		<stop  offset="0.0847" style="stop-color:#D0A628"/>
		<stop  offset="0.1772" style="stop-color:#DCB42F"/>
		<stop  offset="0.2" style="stop-color:#E0B831"/>
		<stop  offset="0.4" style="stop-color:#EAD991"/>
		<stop  offset="0.75" style="stop-color:#E0B831"/>
		<stop  offset="0.7894" style="stop-color:#DAB12E"/>
		<stop  offset="0.8928" style="stop-color:#CFA628"/>
		<stop  offset="1" style="stop-color:#CCA226"/>
	</radialGradient>
	<circle fill="url(#SVGID_3_)" stroke="#D3A720" cx="34.822" cy="31.551" r="25.502"/>
	<circle fill="#194A4A" cx="34.821" cy="31.551" r="4.544"/>
	<g>
		<g>
			<path fill="none" stroke="#D3A720" d="M32.604,27.708c2.137-8.496-4.946-17.94-11.059-17.94"/>
			<path fill="none" stroke="#D3A720" d="M37.041,35.394c-2.138,8.496,4.946,17.939,11.058,17.939"/>
		</g>
		<g>
			<path fill="none" stroke="#D3A720" d="M30.979,29.332c-2.396-8.426-13.254-13.063-18.547-10.007"/>
			<path fill="none" stroke="#D3A720" d="M38.665,33.77c2.396,8.426,13.254,13.063,18.546,10.007"/>
		</g>
		<g>
			<path fill="none" stroke="#D3A720" d="M30.385,31.551c-6.289-6.099-18.01-4.686-21.064,0.606"/>
			<path fill="none" stroke="#D3A720" d="M39.26,31.551c6.289,6.099,18.01,4.686,21.064-0.606"/>
		</g>
		<g>
			<path fill="none" stroke="#D3A720" d="M30.98,33.769c-8.497-2.137-17.94,4.947-17.94,11.058"/>
			<path fill="none" stroke="#D3A720" d="M38.665,29.332c8.496,2.137,17.94-4.947,17.94-11.058"/>
		</g>
		<g>
			<path fill="none" stroke="#D3A720" d="M32.604,35.393c-8.427,2.397-13.063,13.254-10.007,18.547"/>
			<path fill="none" stroke="#D3A720" d="M37.041,27.708c8.426-2.397,13.063-13.254,10.008-18.546"/>
		</g>
		<g>
			<path fill="none" stroke="#D3A720" d="M34.822,35.987c-6.1,6.29-4.686,18.01,0.606,21.066"/>
			<path fill="none" stroke="#D3A720" d="M34.822,27.114c6.099-6.289,4.686-18.01-0.606-21.066"/>
		</g>
	</g>
</g>
</svg>
