<?xml version="1.0" encoding="utf-8"?>
<!-- Generator: Adobe Illustrator 15.0.0, SVG Export Plug-In . SVG Version: 6.00 Build 0)  -->
<!DOCTYPE svg PUBLIC "-//W3C//DTD SVG 1.0//EN" "http://www.w3.org/TR/2001/REC-SVG-20010904/DTD/svg10.dtd">
<svg version="1.0" id="_x37_1" xmlns="http://www.w3.org/2000/svg" xmlns:xlink="http://www.w3.org/1999/xlink" x="0px" y="0px"
	 width="105.285px" height="70px" viewBox="0 0 105.285 70" enable-background="new 0 0 105.285 70" xml:space="preserve">
<g>
	<g>
		
			<linearGradient id="SVGID_1_" gradientUnits="userSpaceOnUse" x1="73.1035" y1="3.3691" x2="73.1035" y2="23.4801" gradientTransform="matrix(1 0 0 1 4.166 0)">
			<stop  offset="0" style="stop-color:#9A9DA3"/>
			<stop  offset="0.15" style="stop-color:#B6B7B5"/>
			<stop  offset="0.5" style="stop-color:#FFFFFF"/>
			<stop  offset="0.85" style="stop-color:#B6B7B5"/>
			<stop  offset="1" style="stop-color:#9A9DA3"/>
		</linearGradient>
		<rect x="49.254" y="3.369" fill="url(#SVGID_1_)" width="56.031" height="20"/>
		
			<linearGradient id="SVGID_2_" gradientUnits="userSpaceOnUse" x1="97.1982" y1="0" x2="97.1982" y2="28.4092" gradientTransform="matrix(1 0 0 1 4.166 0)">
			<stop  offset="0" style="stop-color:#929192"/>
			<stop  offset="0.0824" style="stop-color:#A7A7A7"/>
			<stop  offset="0.2824" style="stop-color:#D7D6D7"/>
			<stop  offset="0.4356" style="stop-color:#F4F4F4"/>
			<stop  offset="0.5225" style="stop-color:#FFFFFF"/>
			<stop  offset="0.599" style="stop-color:#F5F5F5"/>
			<stop  offset="0.7277" style="stop-color:#DBDBDB"/>
			<stop  offset="0.892" style="stop-color:#B1B1B1"/>
			<stop  offset="1" style="stop-color:#929192"/>
		</linearGradient>
		<rect x="97.443" fill="url(#SVGID_2_)" width="7.842" height="28.409"/>
	</g>
	<g>
		
			<radialGradient id="SVGID_3_" cx="1793.2686" cy="63.3472" r="256.0688" gradientTransform="matrix(-1 0 0 1 1815.9102 0)" gradientUnits="userSpaceOnUse">
			<stop  offset="0" style="stop-color:#9A9DA3"/>
			<stop  offset="0.2033" style="stop-color:#B6B7B5"/>
			<stop  offset="0.5055" style="stop-color:#FFFFFF"/>
			<stop  offset="0.85" style="stop-color:#B6B7B5"/>
			<stop  offset="1" style="stop-color:#9A9DA3"/>
		</radialGradient>
		<circle fill="url(#SVGID_3_)" cx="49.253" cy="36.292" r="33.708"/>
		
			<linearGradient id="SVGID_4_" gradientUnits="userSpaceOnUse" x1="1235.6943" y1="-741.7993" x2="1173.2914" y2="-802.0504" gradientTransform="matrix(-0.7071 0.7071 0.7071 0.7071 1447.4009 -304.9614)">
			<stop  offset="0" style="stop-color:#9A9DA3"/>
			<stop  offset="0.15" style="stop-color:#B6B7B5"/>
			<stop  offset="0.5" style="stop-color:#FFFFFF"/>
			<stop  offset="0.85" style="stop-color:#B6B7B5"/>
			<stop  offset="1" style="stop-color:#9A9DA3"/>
		</linearGradient>
		<path fill="url(#SVGID_4_)" d="M72.059,13.487c12.595,12.597,12.596,33.014,0,45.61l0,0C59.464,71.69,39.046,71.69,26.451,59.095
			l0,0c-12.593-12.594-12.594-33.011-0.002-45.607l0,0C39.046,0.894,59.464,0.895,72.059,13.487L72.059,13.487z M71.317,14.227
			C59.11,2.065,39.397,2.065,27.192,14.229l0,0c-12.164,12.205-12.164,31.921,0,44.125l0,0c12.205,12.163,31.917,12.162,44.125,0
			l0,0C83.479,46.146,83.481,26.435,71.317,14.227L71.317,14.227z"/>
	</g>
	
		<linearGradient id="SVGID_5_" gradientUnits="userSpaceOnUse" x1="1785.9707" y1="26.3926" x2="1785.9707" y2="46.5036" gradientTransform="matrix(-1 0 0 1 1815.9102 0)">
		<stop  offset="0" style="stop-color:#9A9DA3"/>
		<stop  offset="0.15" style="stop-color:#B6B7B5"/>
		<stop  offset="0.5" style="stop-color:#FFFFFF"/>
		<stop  offset="0.85" style="stop-color:#B6B7B5"/>
		<stop  offset="1" style="stop-color:#9A9DA3"/>
	</linearGradient>
	<path fill="url(#SVGID_5_)" d="M48.736,26.393c6.154,0,11.143,4.478,11.143,10s-4.988,10-11.143,10H0v-20H48.736z"/>
	
		<linearGradient id="SVGID_6_" gradientUnits="userSpaceOnUse" x1="1736.8975" y1="21.9619" x2="1736.8975" y2="50.3711" gradientTransform="matrix(-1 0 0 1 1740.8184 0)">
		<stop  offset="0" style="stop-color:#929192"/>
		<stop  offset="0.0824" style="stop-color:#A7A7A7"/>
		<stop  offset="0.2824" style="stop-color:#D7D6D7"/>
		<stop  offset="0.4356" style="stop-color:#F4F4F4"/>
		<stop  offset="0.5225" style="stop-color:#FFFFFF"/>
		<stop  offset="0.599" style="stop-color:#F5F5F5"/>
		<stop  offset="0.7277" style="stop-color:#DBDBDB"/>
		<stop  offset="0.892" style="stop-color:#B1B1B1"/>
		<stop  offset="1" style="stop-color:#929192"/>
	</linearGradient>
	<rect y="21.962" fill="url(#SVGID_6_)" width="7.842" height="28.409"/>
</g>
</svg>
