<?xml version="1.0" encoding="utf-8"?>
<!-- Generator: Adobe Illustrator 15.0.0, SVG Export Plug-In . SVG Version: 6.00 Build 0)  -->
<!DOCTYPE svg PUBLIC "-//W3C//DTD SVG 1.0//EN" "http://www.w3.org/TR/2001/REC-SVG-20010904/DTD/svg10.dtd">
<svg version="1.0" id="_x37_1" xmlns="http://www.w3.org/2000/svg" xmlns:xlink="http://www.w3.org/1999/xlink" x="0px" y="0px"
	 width="70px" height="105.285px" viewBox="0 0 70 105.285" enable-background="new 0 0 70 105.285" xml:space="preserve">
<g>
	<g>
		
			<linearGradient id="SVGID_1_" gradientUnits="userSpaceOnUse" x1="1821.6836" y1="1787.2334" x2="1821.6836" y2="1807.3444" gradientTransform="matrix(0 -1 -1 0 1853.8662 1849.7002)">
			<stop  offset="0" style="stop-color:#9A9DA3"/>
			<stop  offset="0.15" style="stop-color:#B6B7B5"/>
			<stop  offset="0.5" style="stop-color:#FFFFFF"/>
			<stop  offset="0.85" style="stop-color:#B6B7B5"/>
			<stop  offset="1" style="stop-color:#9A9DA3"/>
		</linearGradient>
		<rect x="46.633" fill="url(#SVGID_1_)" width="20" height="56.031"/>
		
			<linearGradient id="SVGID_2_" gradientUnits="userSpaceOnUse" x1="1845.7783" y1="1783.8662" x2="1845.7783" y2="1812.2754" gradientTransform="matrix(0 -1 -1 0 1853.8662 1849.7002)">
			<stop  offset="0" style="stop-color:#929192"/>
			<stop  offset="0.0824" style="stop-color:#A7A7A7"/>
			<stop  offset="0.2824" style="stop-color:#D7D6D7"/>
			<stop  offset="0.4356" style="stop-color:#F4F4F4"/>
			<stop  offset="0.5225" style="stop-color:#FFFFFF"/>
			<stop  offset="0.599" style="stop-color:#F5F5F5"/>
			<stop  offset="0.7277" style="stop-color:#DBDBDB"/>
			<stop  offset="0.892" style="stop-color:#B1B1B1"/>
			<stop  offset="1" style="stop-color:#929192"/>
		</linearGradient>
		<rect x="41.591" fill="url(#SVGID_2_)" width="28.409" height="7.842"/>
	</g>
	<g>
		
			<radialGradient id="SVGID_3_" cx="520.7588" cy="137.292" r="256.0588" gradientTransform="matrix(0 1 1 0 -76.5264 -438.1143)" gradientUnits="userSpaceOnUse">
			<stop  offset="0" style="stop-color:#9A9DA3"/>
			<stop  offset="0.2033" style="stop-color:#B6B7B5"/>
			<stop  offset="0.5055" style="stop-color:#FFFFFF"/>
			<stop  offset="0.85" style="stop-color:#B6B7B5"/>
			<stop  offset="1" style="stop-color:#9A9DA3"/>
		</radialGradient>
		<circle fill="url(#SVGID_3_)" cx="33.709" cy="56.032" r="33.708"/>
		
			<linearGradient id="SVGID_4_" gradientUnits="userSpaceOnUse" x1="1594.127" y1="-92.0146" x2="1531.7222" y2="-152.2675" gradientTransform="matrix(0.7071 0.7071 0.7071 -0.7071 -1020.4551 -1136.1008)">
			<stop  offset="0" style="stop-color:#9A9DA3"/>
			<stop  offset="0.15" style="stop-color:#B6B7B5"/>
			<stop  offset="0.5" style="stop-color:#FFFFFF"/>
			<stop  offset="0.85" style="stop-color:#B6B7B5"/>
			<stop  offset="1" style="stop-color:#9A9DA3"/>
		</linearGradient>
		<path fill="url(#SVGID_4_)" d="M10.903,33.227c12.597-12.595,33.015-12.596,45.61,0l0,0c12.594,12.595,12.594,33.014-0.003,45.607
			l0,0C43.918,91.428,23.5,91.428,10.903,78.836l0,0C-1.69,66.24-1.689,45.821,10.903,33.227L10.903,33.227z M11.643,33.968
			c-12.161,12.207-12.161,31.92,0.004,44.126l0,0c12.205,12.163,31.92,12.163,44.125,0l0,0c12.163-12.206,12.162-31.918,0-44.126
			l0,0C43.563,21.806,23.852,21.804,11.643,33.968L11.643,33.968z"/>
	</g>
	
		<linearGradient id="SVGID_5_" gradientUnits="userSpaceOnUse" x1="513.459" y1="1810.2588" x2="513.459" y2="1830.3698" gradientTransform="matrix(0 1 -1 0 1853.8662 -438.1143)">
		<stop  offset="0" style="stop-color:#9A9DA3"/>
		<stop  offset="0.15" style="stop-color:#B6B7B5"/>
		<stop  offset="0.5" style="stop-color:#FFFFFF"/>
		<stop  offset="0.85" style="stop-color:#B6B7B5"/>
		<stop  offset="1" style="stop-color:#9A9DA3"/>
	</linearGradient>
	<path fill="url(#SVGID_5_)" d="M43.607,56.549c0-6.154-4.477-11.143-9.999-11.143c-5.523,0-10.001,4.988-10.001,11.143v48.736h20
		V56.549z"/>
	
		<linearGradient id="SVGID_6_" gradientUnits="userSpaceOnUse" x1="464.3857" y1="1805.8271" x2="464.3857" y2="1834.2363" gradientTransform="matrix(0 1 -1 0 1853.8662 -363.0225)">
		<stop  offset="0" style="stop-color:#929192"/>
		<stop  offset="0.0824" style="stop-color:#A7A7A7"/>
		<stop  offset="0.2824" style="stop-color:#D7D6D7"/>
		<stop  offset="0.4356" style="stop-color:#F4F4F4"/>
		<stop  offset="0.5225" style="stop-color:#FFFFFF"/>
		<stop  offset="0.599" style="stop-color:#F5F5F5"/>
		<stop  offset="0.7277" style="stop-color:#DBDBDB"/>
		<stop  offset="0.892" style="stop-color:#B1B1B1"/>
		<stop  offset="1" style="stop-color:#929192"/>
	</linearGradient>
	<rect x="19.63" y="97.443" fill="url(#SVGID_6_)" width="28.409" height="7.842"/>
</g>
</svg>
