<?xml version="1.0" encoding="utf-8"?>
<!-- Generator: Adobe Illustrator 15.0.0, SVG Export Plug-In . SVG Version: 6.00 Build 0)  -->
<!DOCTYPE svg PUBLIC "-//W3C//DTD SVG 1.0//EN" "http://www.w3.org/TR/2001/REC-SVG-20010904/DTD/svg10.dtd">
<svg version="1.0" id="_x37_1" xmlns="http://www.w3.org/2000/svg" xmlns:xlink="http://www.w3.org/1999/xlink" x="0px" y="0px"
	 width="70px" height="105.285px" viewBox="0 0 70 105.285" enable-background="new 0 0 70 105.285" xml:space="preserve">
<g>
	<g>
		
			<linearGradient id="SVGID_1_" gradientUnits="userSpaceOnUse" x1="2565.627" y1="48.3975" x2="2565.627" y2="68.5085" gradientTransform="matrix(0 -1 1 0 -45.0283 2593.6436)">
			<stop  offset="0" style="stop-color:#9A9DA3"/>
			<stop  offset="0.15" style="stop-color:#B6B7B5"/>
			<stop  offset="0.5" style="stop-color:#FFFFFF"/>
			<stop  offset="0.85" style="stop-color:#B6B7B5"/>
			<stop  offset="1" style="stop-color:#9A9DA3"/>
		</linearGradient>
		<rect x="3.369" fill="url(#SVGID_1_)" width="20" height="56.032"/>
		
			<linearGradient id="SVGID_2_" gradientUnits="userSpaceOnUse" x1="2589.7227" y1="45.0283" x2="2589.7227" y2="73.4385" gradientTransform="matrix(0 -1 1 0 -45.0283 2593.6436)">
			<stop  offset="0" style="stop-color:#929192"/>
			<stop  offset="0.0824" style="stop-color:#A7A7A7"/>
			<stop  offset="0.2824" style="stop-color:#D7D6D7"/>
			<stop  offset="0.4356" style="stop-color:#F4F4F4"/>
			<stop  offset="0.5225" style="stop-color:#FFFFFF"/>
			<stop  offset="0.599" style="stop-color:#F5F5F5"/>
			<stop  offset="0.7277" style="stop-color:#DBDBDB"/>
			<stop  offset="0.892" style="stop-color:#B1B1B1"/>
			<stop  offset="1" style="stop-color:#929192"/>
		</linearGradient>
		<rect fill="url(#SVGID_2_)" width="28.41" height="7.842"/>
	</g>
	<g>
		
			<radialGradient id="SVGID_3_" cx="37.6152" cy="108.375" r="256.0682" gradientTransform="matrix(0 1 1 0 -45.0283 45.0288)" gradientUnits="userSpaceOnUse">
			<stop  offset="0" style="stop-color:#9A9DA3"/>
			<stop  offset="0.2033" style="stop-color:#B6B7B5"/>
			<stop  offset="0.5055" style="stop-color:#FFFFFF"/>
			<stop  offset="0.85" style="stop-color:#B6B7B5"/>
			<stop  offset="1" style="stop-color:#9A9DA3"/>
		</radialGradient>
		<path fill="url(#SVGID_3_)" d="M36.293,89.74C54.91,89.74,70,74.648,70,56.032S54.91,22.324,36.293,22.324
			c-18.619,0-33.709,15.092-33.709,33.708S17.674,89.74,36.293,89.74z"/>
		
			<linearGradient id="SVGID_4_" gradientUnits="userSpaceOnUse" x1="16.7432" y1="86.8633" x2="-45.6579" y2="26.614" gradientTransform="matrix(0 1 1 0 -45.0283 45.0288)">
			<stop  offset="0" style="stop-color:#9A9DA3"/>
			<stop  offset="0.15" style="stop-color:#B6B7B5"/>
			<stop  offset="0.5" style="stop-color:#FFFFFF"/>
			<stop  offset="0.85" style="stop-color:#B6B7B5"/>
			<stop  offset="1" style="stop-color:#9A9DA3"/>
		</linearGradient>
		<path fill="url(#SVGID_4_)" d="M13.488,33.227c12.596-12.594,33.014-12.596,45.609,0l0,0
			c12.594,12.595,12.594,33.014-0.002,45.607l0,0c-12.594,12.594-33.012,12.595-45.607,0.003l0,0
			C0.895,66.24,0.895,45.821,13.488,33.227L13.488,33.227z M14.227,33.968c-12.16,12.208-12.16,31.92,0.004,44.126l0,0
			c12.205,12.164,31.92,12.164,44.125,0l0,0c12.162-12.206,12.162-31.916,0-44.126l0,0C46.146,21.806,26.436,21.804,14.227,33.968
			L14.227,33.968z"/>
	</g>
	
		<linearGradient id="SVGID_5_" gradientUnits="userSpaceOnUse" x1="30.3164" y1="71.4209" x2="30.3164" y2="91.5319" gradientTransform="matrix(0 1 1 0 -45.0283 45.0288)">
		<stop  offset="0" style="stop-color:#9A9DA3"/>
		<stop  offset="0.15" style="stop-color:#B6B7B5"/>
		<stop  offset="0.5" style="stop-color:#FFFFFF"/>
		<stop  offset="0.85" style="stop-color:#B6B7B5"/>
		<stop  offset="1" style="stop-color:#9A9DA3"/>
	</linearGradient>
	<path fill="url(#SVGID_5_)" d="M26.393,56.55c0-6.155,4.479-11.144,10-11.144c5.523,0,10,4.988,10,11.144v48.735h-20V56.55z"/>
	
		<linearGradient id="SVGID_6_" gradientUnits="userSpaceOnUse" x1="-18.7568" y1="66.9912" x2="-18.7568" y2="95.3994" gradientTransform="matrix(0 1 1 0 -45.0283 120.1206)">
		<stop  offset="0" style="stop-color:#929192"/>
		<stop  offset="0.0824" style="stop-color:#A7A7A7"/>
		<stop  offset="0.2824" style="stop-color:#D7D6D7"/>
		<stop  offset="0.4356" style="stop-color:#F4F4F4"/>
		<stop  offset="0.5225" style="stop-color:#FFFFFF"/>
		<stop  offset="0.599" style="stop-color:#F5F5F5"/>
		<stop  offset="0.7277" style="stop-color:#DBDBDB"/>
		<stop  offset="0.892" style="stop-color:#B1B1B1"/>
		<stop  offset="1" style="stop-color:#929192"/>
	</linearGradient>
	<rect x="21.963" y="97.443" fill="url(#SVGID_6_)" width="28.408" height="7.842"/>
</g>
</svg>
