<?xml version="1.0" encoding="utf-8"?>
<!-- Generator: Adobe Illustrator 15.0.0, SVG Export Plug-In . SVG Version: 6.00 Build 0)  -->
<!DOCTYPE svg PUBLIC "-//W3C//DTD SVG 1.0//EN" "http://www.w3.org/TR/2001/REC-SVG-20010904/DTD/svg10.dtd">
<svg version="1.0" id="_x37_1" xmlns="http://www.w3.org/2000/svg" xmlns:xlink="http://www.w3.org/1999/xlink" x="0px" y="0px"
	 width="122.819px" height="80px" viewBox="0 0 122.819 80" enable-background="new 0 0 122.819 80" xml:space="preserve">
<g>
	<linearGradient id="SVGID_1_" gradientUnits="userSpaceOnUse" x1="85.8584" y1="60.1201" x2="90.8408" y2="60.1201">
		<stop  offset="0" style="stop-color:#929192"/>
		<stop  offset="0.0824" style="stop-color:#A7A7A7"/>
		<stop  offset="0.2824" style="stop-color:#D7D6D7"/>
		<stop  offset="0.4356" style="stop-color:#F4F4F4"/>
		<stop  offset="0.5225" style="stop-color:#FFFFFF"/>
		<stop  offset="0.599" style="stop-color:#F5F5F5"/>
		<stop  offset="0.7277" style="stop-color:#DBDBDB"/>
		<stop  offset="0.892" style="stop-color:#B1B1B1"/>
		<stop  offset="1" style="stop-color:#929192"/>
	</linearGradient>
	<rect x="85.858" y="50.798" fill="url(#SVGID_1_)" width="4.982" height="18.645"/>
	<linearGradient id="SVGID_2_" gradientUnits="userSpaceOnUse" x1="17.0674" y1="58.6211" x2="22.0498" y2="58.6211">
		<stop  offset="0" style="stop-color:#929192"/>
		<stop  offset="0.0824" style="stop-color:#A7A7A7"/>
		<stop  offset="0.2824" style="stop-color:#D7D6D7"/>
		<stop  offset="0.4356" style="stop-color:#F4F4F4"/>
		<stop  offset="0.5225" style="stop-color:#FFFFFF"/>
		<stop  offset="0.599" style="stop-color:#F5F5F5"/>
		<stop  offset="0.7277" style="stop-color:#DBDBDB"/>
		<stop  offset="0.892" style="stop-color:#B1B1B1"/>
		<stop  offset="1" style="stop-color:#929192"/>
	</linearGradient>
	<rect x="17.067" y="47.8" fill="url(#SVGID_2_)" width="4.982" height="21.643"/>
	<linearGradient id="SVGID_3_" gradientUnits="userSpaceOnUse" x1="116.0146" y1="28.2139" x2="116.0146" y2="41.6675">
		<stop  offset="0" style="stop-color:#929192"/>
		<stop  offset="0.0824" style="stop-color:#A7A7A7"/>
		<stop  offset="0.2824" style="stop-color:#D7D6D7"/>
		<stop  offset="0.4356" style="stop-color:#F4F4F4"/>
		<stop  offset="0.5225" style="stop-color:#FFFFFF"/>
		<stop  offset="0.599" style="stop-color:#F5F5F5"/>
		<stop  offset="0.7277" style="stop-color:#DBDBDB"/>
		<stop  offset="0.892" style="stop-color:#B1B1B1"/>
		<stop  offset="1" style="stop-color:#929192"/>
	</linearGradient>
	<rect x="112.333" y="24.971" fill="url(#SVGID_3_)" width="7.362" height="20"/>
	<linearGradient id="SVGID_4_" gradientUnits="userSpaceOnUse" x1="104.9707" y1="59.625" x2="104.9707" y2="10.3184">
		<stop  offset="0" style="stop-color:#929192"/>
		<stop  offset="0.0824" style="stop-color:#A7A7A7"/>
		<stop  offset="0.2824" style="stop-color:#D7D6D7"/>
		<stop  offset="0.4356" style="stop-color:#F4F4F4"/>
		<stop  offset="0.5225" style="stop-color:#FFFFFF"/>
		<stop  offset="0.599" style="stop-color:#F5F5F5"/>
		<stop  offset="0.7277" style="stop-color:#DBDBDB"/>
		<stop  offset="0.892" style="stop-color:#B1B1B1"/>
		<stop  offset="1" style="stop-color:#929192"/>
	</linearGradient>
	<rect x="97.608" y="10.318" fill="url(#SVGID_4_)" width="14.725" height="49.307"/>
	<linearGradient id="SVGID_5_" gradientUnits="userSpaceOnUse" x1="66.2061" y1="54.6426" x2="66.2061" y2="15.3008">
		<stop  offset="0" style="stop-color:#929192"/>
		<stop  offset="0.0824" style="stop-color:#A7A7A7"/>
		<stop  offset="0.2824" style="stop-color:#D7D6D7"/>
		<stop  offset="0.4356" style="stop-color:#F4F4F4"/>
		<stop  offset="0.5225" style="stop-color:#FFFFFF"/>
		<stop  offset="0.599" style="stop-color:#F5F5F5"/>
		<stop  offset="0.7277" style="stop-color:#DBDBDB"/>
		<stop  offset="0.892" style="stop-color:#B1B1B1"/>
		<stop  offset="1" style="stop-color:#929192"/>
	</linearGradient>
	<rect x="38.819" y="15.301" fill="url(#SVGID_5_)" width="54.773" height="39.342"/>
	<linearGradient id="SVGID_6_" gradientUnits="userSpaceOnUse" x1="25.5635" y1="52.1133" x2="25.5635" y2="17.8301">
		<stop  offset="0" style="stop-color:#929192"/>
		<stop  offset="0.0824" style="stop-color:#A7A7A7"/>
		<stop  offset="0.2824" style="stop-color:#D7D6D7"/>
		<stop  offset="0.4356" style="stop-color:#F4F4F4"/>
		<stop  offset="0.5225" style="stop-color:#FFFFFF"/>
		<stop  offset="0.599" style="stop-color:#F5F5F5"/>
		<stop  offset="0.7277" style="stop-color:#DBDBDB"/>
		<stop  offset="0.892" style="stop-color:#B1B1B1"/>
		<stop  offset="1" style="stop-color:#929192"/>
	</linearGradient>
	<rect x="12.308" y="17.83" fill="url(#SVGID_6_)" width="26.512" height="34.283"/>
	<linearGradient id="SVGID_7_" gradientUnits="userSpaceOnUse" x1="76.3242" y1="30.8745" x2="97.2957" y2="73.7098">
		<stop  offset="0" style="stop-color:#000000"/>
		<stop  offset="0.5" style="stop-color:#333333"/>
		<stop  offset="1" style="stop-color:#000000"/>
	</linearGradient>
	<rect x="83.106" y="35.38" fill="url(#SVGID_7_)" width="2.752" height="24.318"/>
	<linearGradient id="SVGID_8_" gradientUnits="userSpaceOnUse" x1="96.4932" y1="14.1113" x2="96.4932" y2="55.163">
		<stop  offset="0" style="stop-color:#929192"/>
		<stop  offset="0.0824" style="stop-color:#A7A7A7"/>
		<stop  offset="0.2824" style="stop-color:#D7D6D7"/>
		<stop  offset="0.4356" style="stop-color:#F4F4F4"/>
		<stop  offset="0.5225" style="stop-color:#FFFFFF"/>
		<stop  offset="0.599" style="stop-color:#F5F5F5"/>
		<stop  offset="0.7277" style="stop-color:#DBDBDB"/>
		<stop  offset="0.892" style="stop-color:#B1B1B1"/>
		<stop  offset="1" style="stop-color:#929192"/>
	</linearGradient>
	<rect x="95.377" y="10.318" fill="url(#SVGID_8_)" width="2.231" height="49.307"/>
	<linearGradient id="SVGID_9_" gradientUnits="userSpaceOnUse" x1="94.4854" y1="17.978" x2="94.4854" y2="50.4035">
		<stop  offset="0" style="stop-color:#929192"/>
		<stop  offset="0.0824" style="stop-color:#A7A7A7"/>
		<stop  offset="0.2824" style="stop-color:#D7D6D7"/>
		<stop  offset="0.4356" style="stop-color:#F4F4F4"/>
		<stop  offset="0.5225" style="stop-color:#FFFFFF"/>
		<stop  offset="0.599" style="stop-color:#F5F5F5"/>
		<stop  offset="0.7277" style="stop-color:#DBDBDB"/>
		<stop  offset="0.892" style="stop-color:#B1B1B1"/>
		<stop  offset="1" style="stop-color:#929192"/>
	</linearGradient>
	<rect x="93.593" y="10.318" fill="url(#SVGID_9_)" width="1.784" height="49.307"/>
	<linearGradient id="SVGID_10_" gradientUnits="userSpaceOnUse" x1="104.9707" y1="3.104" x2="104.9707" y2="22.1439">
		<stop  offset="0" style="stop-color:#000000"/>
		<stop  offset="0.5" style="stop-color:#333333"/>
		<stop  offset="1" style="stop-color:#000000"/>
	</linearGradient>
	<rect x="97.608" y="3.848" fill="url(#SVGID_10_)" width="14.725" height="6.471"/>
	<linearGradient id="SVGID_11_" gradientUnits="userSpaceOnUse" x1="92.7002" y1="1.9238" x2="117.2412" y2="1.9238">
		<stop  offset="0" style="stop-color:#9A9DA3"/>
		<stop  offset="0.0192" style="stop-color:#A2A4A8"/>
		<stop  offset="0.0658" style="stop-color:#ADAFAF"/>
		<stop  offset="0.1313" style="stop-color:#B4B5B4"/>
		<stop  offset="0.3132" style="stop-color:#B6B7B5"/>
		<stop  offset="0.3303" style="stop-color:#C1C2C1"/>
		<stop  offset="0.3644" style="stop-color:#D1D2D2"/>
		<stop  offset="0.4069" style="stop-color:#DDDDDD"/>
		<stop  offset="0.4665" style="stop-color:#E3E3E4"/>
		<stop  offset="0.6319" style="stop-color:#E5E5E6"/>
		<stop  offset="0.6422" style="stop-color:#DADADA"/>
		<stop  offset="0.6628" style="stop-color:#CACAC9"/>
		<stop  offset="0.6884" style="stop-color:#BEBFBE"/>
		<stop  offset="0.7244" style="stop-color:#B8B9B7"/>
		<stop  offset="0.8242" style="stop-color:#B6B7B5"/>
	</linearGradient>
	<rect x="92.7" fill="url(#SVGID_11_)" width="24.541" height="3.848"/>
	<linearGradient id="SVGID_12_" gradientUnits="userSpaceOnUse" x1="121.2568" y1="49.9717" x2="121.2568" y2="19.9717">
		<stop  offset="0" style="stop-color:#929192"/>
		<stop  offset="0.0824" style="stop-color:#A7A7A7"/>
		<stop  offset="0.2824" style="stop-color:#D7D6D7"/>
		<stop  offset="0.4356" style="stop-color:#F4F4F4"/>
		<stop  offset="0.5225" style="stop-color:#FFFFFF"/>
		<stop  offset="0.599" style="stop-color:#F5F5F5"/>
		<stop  offset="0.7277" style="stop-color:#DBDBDB"/>
		<stop  offset="0.892" style="stop-color:#B1B1B1"/>
		<stop  offset="1" style="stop-color:#929192"/>
	</linearGradient>
	<rect x="119.695" y="19.972" fill="url(#SVGID_12_)" width="3.124" height="30"/>
	<g>
		<rect x="91.436" y="12.177" fill="#333333" width="1.711" height="1.488"/>
		<rect x="91.436" y="17.085" fill="#333333" width="1.711" height="1.488"/>
		<rect x="91.436" y="21.994" fill="#333333" width="1.711" height="1.487"/>
		<rect x="91.436" y="26.902" fill="#333333" width="1.711" height="1.487"/>
		<rect x="91.436" y="31.811" fill="#333333" width="1.711" height="1.487"/>
		<rect x="91.436" y="36.719" fill="#333333" width="1.711" height="1.487"/>
		<rect x="91.436" y="41.627" fill="#333333" width="1.711" height="1.487"/>
		<rect x="91.436" y="46.535" fill="#333333" width="1.711" height="1.488"/>
		<rect x="91.436" y="51.443" fill="#333333" width="1.711" height="1.488"/>
		<rect x="91.436" y="56.352" fill="#333333" width="1.711" height="1.488"/>
		<rect x="92.7" y="10.318" fill="#333333" width="0.893" height="49.307"/>
	</g>
	<linearGradient id="SVGID_13_" gradientUnits="userSpaceOnUse" x1="11.415" y1="31.1523" x2="11.415" y2="72.6575">
		<stop  offset="0" style="stop-color:#9A9DA3"/>
		<stop  offset="0.15" style="stop-color:#B6B7B5"/>
		<stop  offset="0.5" style="stop-color:#FFFFFF"/>
		<stop  offset="0.85" style="stop-color:#B6B7B5"/>
		<stop  offset="1" style="stop-color:#9A9DA3"/>
	</linearGradient>
	<rect x="10.522" y="19.54" fill="url(#SVGID_13_)" width="1.785" height="30.862"/>
	<linearGradient id="SVGID_14_" gradientUnits="userSpaceOnUse" x1="7.4736" y1="44.9707" x2="7.4736" y2="24.9707">
		<stop  offset="0" style="stop-color:#929192"/>
		<stop  offset="0.0824" style="stop-color:#A7A7A7"/>
		<stop  offset="0.2824" style="stop-color:#D7D6D7"/>
		<stop  offset="0.4356" style="stop-color:#F4F4F4"/>
		<stop  offset="0.5225" style="stop-color:#FFFFFF"/>
		<stop  offset="0.599" style="stop-color:#F5F5F5"/>
		<stop  offset="0.7277" style="stop-color:#DBDBDB"/>
		<stop  offset="0.892" style="stop-color:#B1B1B1"/>
		<stop  offset="1" style="stop-color:#929192"/>
	</linearGradient>
	<rect x="4.871" y="24.971" fill="url(#SVGID_14_)" width="5.206" height="20"/>
	<g>
		<rect x="8.366" y="21.994" fill="#333333" width="1.711" height="1.487"/>
		<rect x="8.366" y="26.902" fill="#333333" width="1.711" height="1.487"/>
		<rect x="8.366" y="31.811" fill="#333333" width="1.711" height="1.487"/>
		<rect x="8.366" y="36.719" fill="#333333" width="1.711" height="1.487"/>
		<rect x="8.366" y="41.627" fill="#333333" width="1.711" height="1.487"/>
		<rect x="8.366" y="46.535" fill="#333333" width="1.711" height="1.488"/>
		<rect x="9.631" y="19.54" fill="#333333" width="0.892" height="30.862"/>
	</g>
	<linearGradient id="SVGID_15_" gradientUnits="userSpaceOnUse" x1="93.2764" y1="62.646" x2="93.2764" y2="77.3001">
		<stop  offset="0" style="stop-color:#000000"/>
		<stop  offset="0.5" style="stop-color:#333333"/>
		<stop  offset="1" style="stop-color:#000000"/>
	</linearGradient>
	<polygon fill="url(#SVGID_15_)" points="95.712,69.442 90.841,69.442 90.841,58.546 	"/>
	<linearGradient id="SVGID_16_" gradientUnits="userSpaceOnUse" x1="24.4854" y1="62.646" x2="24.4854" y2="77.3001">
		<stop  offset="0" style="stop-color:#000000"/>
		<stop  offset="0.5" style="stop-color:#333333"/>
		<stop  offset="1" style="stop-color:#000000"/>
	</linearGradient>
	<polygon fill="url(#SVGID_16_)" points="26.92,69.442 22.05,69.442 22.05,58.546 	"/>
	<g>
		<linearGradient id="SVGID_17_" gradientUnits="userSpaceOnUse" x1="30.0576" y1="39.9653" x2="12.2815" y2="11.0329">
			<stop  offset="0" style="stop-color:#9A9DA3"/>
			<stop  offset="0.15" style="stop-color:#B6B7B5"/>
			<stop  offset="0.5" style="stop-color:#FFFFFF"/>
			<stop  offset="0.85" style="stop-color:#B6B7B5"/>
			<stop  offset="1" style="stop-color:#9A9DA3"/>
		</linearGradient>
		<rect x="24.207" y="31.142" fill="url(#SVGID_17_)" width="7.809" height="11.313"/>
		<line fill="none" stroke="#FFFFFF" stroke-width="0.5" x1="24.207" y1="31.142" x2="32.016" y2="31.142"/>
		<line fill="none" stroke="#FFFFFF" stroke-width="0.5" x1="24.207" y1="31.142" x2="24.207" y2="42.455"/>
		<line fill="none" stroke="#666666" stroke-width="0.5" x1="24.207" y1="42.455" x2="32.016" y2="42.455"/>
	</g>
	<g>
		<linearGradient id="SVGID_18_" gradientUnits="userSpaceOnUse" x1="21.4326" y1="44.8774" x2="0.9149" y2="11.4828">
			<stop  offset="0" style="stop-color:#9A9DA3"/>
			<stop  offset="0.15" style="stop-color:#B6B7B5"/>
			<stop  offset="0.5" style="stop-color:#FFFFFF"/>
			<stop  offset="0.85" style="stop-color:#B6B7B5"/>
			<stop  offset="1" style="stop-color:#9A9DA3"/>
		</linearGradient>
		<rect x="14.167" y="35.009" fill="url(#SVGID_18_)" width="10.04" height="12.428"/>
		<line fill="none" stroke="#FFFFFF" stroke-width="0.5" x1="14.167" y1="35.009" x2="24.207" y2="35.009"/>
		<line fill="none" stroke="#FFFFFF" stroke-width="0.5" x1="14.167" y1="35.009" x2="14.167" y2="47.437"/>
		<line fill="none" stroke="#666666" stroke-width="0.5" x1="14.167" y1="47.437" x2="24.207" y2="47.437"/>
	</g>
	<g>
		
			<radialGradient id="SVGID_19_" cx="70.1113" cy="93.3159" r="55.0714" gradientTransform="matrix(1.0462 0 0 1.0462 -40.248 -49.0833)" gradientUnits="userSpaceOnUse">
			<stop  offset="0" style="stop-color:#9A9DA3"/>
			<stop  offset="0.2033" style="stop-color:#B6B7B5"/>
			<stop  offset="0.5055" style="stop-color:#FFFFFF"/>
			<stop  offset="0.85" style="stop-color:#B6B7B5"/>
			<stop  offset="1" style="stop-color:#9A9DA3"/>
		</radialGradient>
		<circle fill="url(#SVGID_19_)" cx="27.115" cy="42.457" r="7.584"/>
		<linearGradient id="SVGID_20_" gradientUnits="userSpaceOnUse" x1="27.2871" y1="42.813" x2="21.0401" y2="29.8728">
			<stop  offset="0" style="stop-color:#9A9DA3"/>
			<stop  offset="0.15" style="stop-color:#B6B7B5"/>
			<stop  offset="0.5" style="stop-color:#FFFFFF"/>
			<stop  offset="0.85" style="stop-color:#B6B7B5"/>
			<stop  offset="1" style="stop-color:#9A9DA3"/>
		</linearGradient>
		<path fill="url(#SVGID_20_)" d="M32.501,37.069c-1.487-1.489-3.438-2.23-5.386-2.23c-1.951,0-3.9,0.743-5.389,2.23
			c-1.488,1.485-2.23,3.437-2.23,5.389c0,1.944,0.744,3.897,2.23,5.386c1.486,1.486,3.438,2.229,5.387,2.229s3.9-0.743,5.388-2.229
			c1.486-1.49,2.23-3.441,2.23-5.389C34.731,40.506,33.987,38.555,32.501,37.069z M27.108,35.353c1.82,0,3.639,0.693,5.031,2.077
			c1.383,1.392,2.076,3.207,2.076,5.028c0,1.814-0.691,3.633-2.076,5.024c-1.393,1.383-3.209,2.076-5.026,2.076
			c-1.818,0-3.635-0.692-5.025-2.076c-1.384-1.394-2.078-3.21-2.078-5.027c0-1.818,0.694-3.634,2.078-5.025
			C23.476,36.043,25.29,35.353,27.108,35.353z"/>
		<radialGradient id="SVGID_21_" cx="46.5186" cy="53.9355" r="25.2356" gradientUnits="userSpaceOnUse">
			<stop  offset="0" style="stop-color:#9A9DA3"/>
			<stop  offset="0.2033" style="stop-color:#B6B7B5"/>
			<stop  offset="0.5055" style="stop-color:#FFFFFF"/>
			<stop  offset="0.85" style="stop-color:#B6B7B5"/>
			<stop  offset="1" style="stop-color:#9A9DA3"/>
		</radialGradient>
		<circle fill="url(#SVGID_21_)" cx="27.116" cy="42.457" r="3.31"/>
		<linearGradient id="SVGID_22_" gradientUnits="userSpaceOnUse" x1="30.0869" y1="48.8574" x2="26.2191" y2="40.5274">
			<stop  offset="0" style="stop-color:#9A9DA3"/>
			<stop  offset="0.15" style="stop-color:#B6B7B5"/>
			<stop  offset="0.5" style="stop-color:#FFFFFF"/>
			<stop  offset="0.85" style="stop-color:#B6B7B5"/>
			<stop  offset="1" style="stop-color:#9A9DA3"/>
		</linearGradient>
		<path fill="url(#SVGID_22_)" d="M29.687,39.882c-0.709-0.713-1.644-1.069-2.573-1.067c-0.931-0.002-1.863,0.354-2.574,1.067
			c-0.71,0.708-1.066,1.642-1.064,2.573c-0.002,0.93,0.354,1.864,1.067,2.574c0.705,0.71,1.64,1.066,2.571,1.066
			c0.93,0,1.864-0.354,2.576-1.066c0.704-0.713,1.064-1.645,1.062-2.574C30.754,41.523,30.398,40.592,29.687,39.882z M27.113,39.372
			c0.788,0.002,1.576,0.303,2.18,0.905c0.601,0.6,0.903,1.388,0.903,2.178s-0.3,1.578-0.901,2.183l-0.002-0.001
			c-0.606,0.6-1.392,0.899-2.178,0.899c-0.793,0-1.579-0.298-2.183-0.899c-0.603-0.605-0.9-1.393-0.902-2.182
			c0.002-0.788,0.303-1.576,0.904-2.178C25.534,39.672,26.322,39.374,27.113,39.372z"/>
		<g>
			<rect x="22.57" y="38.355" fill="#4D4D4D" width="1.265" height="1.265"/>
			<rect x="29.97" y="38.355" fill="#4D4D4D" width="1.265" height="1.265"/>
			<rect x="22.57" y="45.644" fill="#4D4D4D" width="1.265" height="1.265"/>
			<rect x="29.97" y="45.644" fill="#4D4D4D" width="1.265" height="1.265"/>
		</g>
	</g>
	<g>
		<linearGradient id="SVGID_23_" gradientUnits="userSpaceOnUse" x1="18.79" y1="52.6572" x2="-10.5405" y2="4.9188">
			<stop  offset="0" style="stop-color:#9A9DA3"/>
			<stop  offset="0.15" style="stop-color:#B6B7B5"/>
			<stop  offset="0.5" style="stop-color:#FFFFFF"/>
			<stop  offset="0.85" style="stop-color:#B6B7B5"/>
			<stop  offset="1" style="stop-color:#9A9DA3"/>
		</linearGradient>
		<rect x="14.167" y="35.009" fill="url(#SVGID_23_)" width="2.826" height="24.848"/>
		<line fill="none" stroke="#FFFFFF" stroke-width="0.5" x1="14.167" y1="35.009" x2="16.993" y2="35.009"/>
		<line fill="none" stroke="#FFFFFF" stroke-width="0.5" x1="14.167" y1="35.009" x2="14.167" y2="59.856"/>
		<line fill="none" stroke="#666666" stroke-width="0.5" x1="14.167" y1="59.856" x2="16.993" y2="59.856"/>
	</g>
	<line fill="none" stroke="#666666" stroke-width="0.5" x1="16.993" y1="35.236" x2="16.993" y2="59.856"/>
	<linearGradient id="SVGID_24_" gradientUnits="userSpaceOnUse" x1="63.6973" y1="70.5049" x2="63.6973" y2="74.303">
		<stop  offset="0" style="stop-color:#9A9DA3"/>
		<stop  offset="1" style="stop-color:#B6B7B5"/>
	</linearGradient>
	<rect x="12.011" y="69.442" fill="url(#SVGID_24_)" width="103.373" height="2.824"/>
	<linearGradient id="SVGID_25_" gradientUnits="userSpaceOnUse" x1="63.6973" y1="78.2378" x2="63.6973" y2="82.0373">
		<stop  offset="0" style="stop-color:#9A9DA3"/>
		<stop  offset="1" style="stop-color:#B6B7B5"/>
	</linearGradient>
	<rect x="12.011" y="77.175" fill="url(#SVGID_25_)" width="103.373" height="2.825"/>
	<linearGradient id="SVGID_26_" gradientUnits="userSpaceOnUse" x1="63.6963" y1="71.0029" x2="63.6963" y2="86.843">
		<stop  offset="0" style="stop-color:#000000"/>
		<stop  offset="0.5" style="stop-color:#333333"/>
		<stop  offset="1" style="stop-color:#000000"/>
	</linearGradient>
	<rect x="13.944" y="72.267" fill="url(#SVGID_26_)" width="99.505" height="4.908"/>
	<g>
		<linearGradient id="SVGID_27_" gradientUnits="userSpaceOnUse" x1="90.1338" y1="3.1787" x2="90.1338" y2="0.6484">
			<stop  offset="0" style="stop-color:#9A9DA3"/>
			<stop  offset="0.15" style="stop-color:#B6B7B5"/>
			<stop  offset="0.5" style="stop-color:#FFFFFF"/>
			<stop  offset="0.85" style="stop-color:#B6B7B5"/>
			<stop  offset="1" style="stop-color:#9A9DA3"/>
		</linearGradient>
		<polygon fill="url(#SVGID_27_)" points="92.7,3.179 90.1,3.179 87.568,0.648 92.7,0.648 		"/>
		<linearGradient id="SVGID_28_" gradientUnits="userSpaceOnUse" x1="2.4355" y1="35.5293" x2="2.4355" y2="32.999">
			<stop  offset="0" style="stop-color:#9A9DA3"/>
			<stop  offset="0.15" style="stop-color:#B6B7B5"/>
			<stop  offset="0.5" style="stop-color:#FFFFFF"/>
			<stop  offset="0.85" style="stop-color:#B6B7B5"/>
			<stop  offset="1" style="stop-color:#9A9DA3"/>
		</linearGradient>
		<polygon fill="url(#SVGID_28_)" points="4.871,35.529 0,35.529 2.531,32.999 4.871,32.999 		"/>
		<linearGradient id="SVGID_29_" gradientUnits="userSpaceOnUse" x1="45.0498" y1="13.2188" x2="45.0498" y2="10.6885">
			<stop  offset="0" style="stop-color:#9A9DA3"/>
			<stop  offset="0.15" style="stop-color:#B6B7B5"/>
			<stop  offset="0.5" style="stop-color:#FFFFFF"/>
			<stop  offset="0.85" style="stop-color:#B6B7B5"/>
			<stop  offset="1" style="stop-color:#9A9DA3"/>
		</linearGradient>
		<polygon fill="url(#SVGID_29_)" points="90.101,13.219 2.531,13.219 0,10.688 87.568,10.688 		"/>
		<linearGradient id="SVGID_30_" gradientUnits="userSpaceOnUse" x1="87.5684" y1="6.9331" x2="90.0996" y2="6.9331">
			<stop  offset="0" style="stop-color:#9A9DA3"/>
			<stop  offset="0.15" style="stop-color:#B6B7B5"/>
			<stop  offset="0.5" style="stop-color:#FFFFFF"/>
			<stop  offset="0.85" style="stop-color:#B6B7B5"/>
			<stop  offset="1" style="stop-color:#9A9DA3"/>
		</linearGradient>
		<polygon fill="url(#SVGID_30_)" points="87.568,10.688 87.568,0.647 90.1,3.179 90.1,13.219 		"/>
		<linearGradient id="SVGID_31_" gradientUnits="userSpaceOnUse" x1="0" y1="23.1089" x2="2.5313" y2="23.1089">
			<stop  offset="0" style="stop-color:#9A9DA3"/>
			<stop  offset="0.15" style="stop-color:#B6B7B5"/>
			<stop  offset="0.5" style="stop-color:#FFFFFF"/>
			<stop  offset="0.85" style="stop-color:#B6B7B5"/>
			<stop  offset="1" style="stop-color:#9A9DA3"/>
		</linearGradient>
		<polygon fill="url(#SVGID_31_)" points="0,35.529 0,10.688 2.531,13.219 2.531,32.999 		"/>
	</g>
</g>
</svg>
