<?xml version="1.0" encoding="utf-8"?>
<!-- Generator: Adobe Illustrator 15.0.0, SVG Export Plug-In . SVG Version: 6.00 Build 0)  -->
<!DOCTYPE svg PUBLIC "-//W3C//DTD SVG 1.0//EN" "http://www.w3.org/TR/2001/REC-SVG-20010904/DTD/svg10.dtd">
<svg version="1.0" id="_x37_1" xmlns="http://www.w3.org/2000/svg" xmlns:xlink="http://www.w3.org/1999/xlink" x="0px" y="0px"
	 width="77.954px" height="74.231px" viewBox="0 0 77.954 74.231" enable-background="new 0 0 77.954 74.231" xml:space="preserve">
<g>
	<linearGradient id="SVGID_1_" gradientUnits="userSpaceOnUse" x1="53.9507" y1="2.499" x2="53.9507" y2="22.61">
		<stop  offset="0" style="stop-color:#9A9DA3"/>
		<stop  offset="0.15" style="stop-color:#B6B7B5"/>
		<stop  offset="0.5" style="stop-color:#FFFFFF"/>
		<stop  offset="0.85" style="stop-color:#B6B7B5"/>
		<stop  offset="1" style="stop-color:#9A9DA3"/>
	</linearGradient>
	<rect x="29.947" y="2.499" fill="url(#SVGID_1_)" width="48.007" height="20"/>
	<linearGradient id="SVGID_2_" gradientUnits="userSpaceOnUse" x1="74.1719" y1="0" x2="74.1719" y2="25">
		<stop  offset="0" style="stop-color:#929192"/>
		<stop  offset="0.0824" style="stop-color:#A7A7A7"/>
		<stop  offset="0.2824" style="stop-color:#D7D6D7"/>
		<stop  offset="0.4356" style="stop-color:#F4F4F4"/>
		<stop  offset="0.5225" style="stop-color:#FFFFFF"/>
		<stop  offset="0.599" style="stop-color:#F5F5F5"/>
		<stop  offset="0.7277" style="stop-color:#DBDBDB"/>
		<stop  offset="0.892" style="stop-color:#B1B1B1"/>
		<stop  offset="1" style="stop-color:#929192"/>
	</linearGradient>
	<rect x="70.39" fill="url(#SVGID_2_)" width="7.564" height="25"/>
	<linearGradient id="SVGID_3_" gradientUnits="userSpaceOnUse" x1="32.6431" y1="91.4229" x2="32.6431" y2="59.5944">
		<stop  offset="0" style="stop-color:#C8C9CA"/>
		<stop  offset="0.2287" style="stop-color:#C5C6C7"/>
		<stop  offset="0.4206" style="stop-color:#BBBBBC"/>
		<stop  offset="0.5993" style="stop-color:#AAAAAB"/>
		<stop  offset="0.7699" style="stop-color:#929292"/>
		<stop  offset="0.9334" style="stop-color:#747373"/>
		<stop  offset="1" style="stop-color:#656464"/>
	</linearGradient>
	<polygon fill="url(#SVGID_3_)" points="25.204,65.155 40.081,65.155 44.686,74.231 60.024,74.231 54.247,58.917 11.038,58.917 
		5.262,74.231 20.599,74.231 	"/>
	<radialGradient id="SVGID_4_" cx="58.1841" cy="61.0923" r="247.0021" gradientUnits="userSpaceOnUse">
		<stop  offset="0" style="stop-color:#9A9DA3"/>
		<stop  offset="0.2033" style="stop-color:#B6B7B5"/>
		<stop  offset="0.5055" style="stop-color:#FFFFFF"/>
		<stop  offset="0.85" style="stop-color:#B6B7B5"/>
		<stop  offset="1" style="stop-color:#9A9DA3"/>
	</radialGradient>
	<circle fill="url(#SVGID_4_)" cx="32.515" cy="34.995" r="32.515"/>
	
		<linearGradient id="SVGID_5_" gradientUnits="userSpaceOnUse" x1="-208.5039" y1="1024.1396" x2="-263.7707" y2="970.7787" gradientTransform="matrix(0.7071 0.7071 -0.7071 0.7071 904.2394 -534.6737)">
		<stop  offset="0" style="stop-color:#9A9DA3"/>
		<stop  offset="0.15" style="stop-color:#B6B7B5"/>
		<stop  offset="0.5" style="stop-color:#FFFFFF"/>
		<stop  offset="0.85" style="stop-color:#B6B7B5"/>
		<stop  offset="1" style="stop-color:#9A9DA3"/>
	</linearGradient>
	<path fill="url(#SVGID_5_)" d="M12.316,14.798c11.154-11.152,29.238-11.152,40.394,0l0,0c11.153,11.156,11.152,29.239-0.001,40.394
		l0,0c-11.154,11.154-29.238,11.154-40.393,0.001l0,0C1.163,44.037,1.163,25.954,12.316,14.798L12.316,14.798z M12.972,15.454
		C2.2,26.265,2.202,43.724,12.973,54.534l0,0c10.813,10.772,28.27,10.773,39.079,0l0,0c10.774-10.809,10.774-28.27,0-39.079l0,0
		C41.242,4.683,23.784,4.683,12.972,15.454L12.972,15.454z"/>
	
		<linearGradient id="SVGID_6_" gradientUnits="userSpaceOnUse" x1="1686.7451" y1="2101.1055" x2="1686.7451" y2="2094.5376" gradientTransform="matrix(-1 0 0 -1 1698.4805 2168.6289)">
		<stop  offset="0" style="stop-color:#C8C9CA"/>
		<stop  offset="0.2287" style="stop-color:#C5C6C7"/>
		<stop  offset="0.4206" style="stop-color:#BBBBBC"/>
		<stop  offset="0.5993" style="stop-color:#AAAAAB"/>
		<stop  offset="0.7699" style="stop-color:#929292"/>
		<stop  offset="0.9334" style="stop-color:#747373"/>
		<stop  offset="1" style="stop-color:#656464"/>
	</linearGradient>
	<rect x="0.06" y="71.071" fill="url(#SVGID_6_)" width="23.353" height="3.16"/>
	
		<linearGradient id="SVGID_7_" gradientUnits="userSpaceOnUse" x1="1644.8486" y1="2101.1055" x2="1644.8486" y2="2094.5376" gradientTransform="matrix(-1 0 0 -1 1698.4805 2168.6289)">
		<stop  offset="0" style="stop-color:#C8C9CA"/>
		<stop  offset="0.2287" style="stop-color:#C5C6C7"/>
		<stop  offset="0.4206" style="stop-color:#BBBBBC"/>
		<stop  offset="0.5993" style="stop-color:#AAAAAB"/>
		<stop  offset="0.7699" style="stop-color:#929292"/>
		<stop  offset="0.9334" style="stop-color:#747373"/>
		<stop  offset="1" style="stop-color:#656464"/>
	</linearGradient>
	<rect x="41.955" y="71.071" fill="url(#SVGID_7_)" width="23.353" height="3.16"/>
	
		<linearGradient id="SVGID_8_" gradientUnits="userSpaceOnUse" x1="2398.7832" y1="1250.1396" x2="2373.5464" y2="1225.7731" gradientTransform="matrix(-0.7071 -0.7071 0.7071 -0.7071 844.6611 2611.9207)">
		<stop  offset="0" style="stop-color:#9A9DA3"/>
		<stop  offset="0.15" style="stop-color:#B6B7B5"/>
		<stop  offset="0.5" style="stop-color:#FFFFFF"/>
		<stop  offset="0.85" style="stop-color:#B6B7B5"/>
		<stop  offset="1" style="stop-color:#9A9DA3"/>
	</linearGradient>
	<path fill="url(#SVGID_8_)" d="M41.734,44.218c-5.094,5.093-13.351,5.093-18.445,0l0,0c-5.093-5.095-5.093-13.352,0.001-18.444l0,0
		c5.094-5.095,13.351-5.095,18.444-0.001l0,0C46.828,30.866,46.827,39.123,41.734,44.218L41.734,44.218z M41.435,43.919
		c4.919-4.938,4.919-12.909,0-17.846l0,0c-4.937-4.919-12.909-4.92-17.845,0l0,0c-4.92,4.935-4.92,12.908,0,17.844l0,0
		C28.525,48.837,36.498,48.837,41.435,43.919L41.435,43.919z"/>
	<circle fill="#7D7D7F" cx="32.514" cy="34.995" r="12.631"/>
	<linearGradient id="SVGID_9_" gradientUnits="userSpaceOnUse" x1="27.6089" y1="26.6934" x2="53.4602" y2="70.4417">
		<stop  offset="0" style="stop-color:#000000"/>
		<stop  offset="0.5" style="stop-color:#333333"/>
		<stop  offset="1" style="stop-color:#000000"/>
	</linearGradient>
	<circle fill="url(#SVGID_9_)" cx="32.515" cy="34.995" r="10.159"/>
	<g>
		<line fill="#7D7D7F" x1="26.589" y1="26.391" x2="38.139" y2="43.299"/>
		<polygon fill="#7D7D7F" points="25.908,26.855 27.27,25.925 38.818,42.834 37.458,43.763 25.908,26.855 		"/>
	</g>
	<g>
		<line fill="#7D7D7F" x1="38.139" y1="26.391" x2="26.589" y2="43.299"/>
		<polygon fill="#7D7D7F" points="25.908,42.834 37.458,25.925 38.818,26.855 27.27,43.763 25.908,42.834 		"/>
	</g>
	<polygon fill="#7D7D7F" points="20.938,35.819 20.938,34.172 42.674,34.172 42.674,35.819 20.938,35.819 	"/>
	<radialGradient id="SVGID_10_" cx="35.1001" cy="37.0259" r="12.8671" gradientUnits="userSpaceOnUse">
		<stop  offset="0" style="stop-color:#9A9DA3"/>
		<stop  offset="0.2033" style="stop-color:#B6B7B5"/>
		<stop  offset="0.5055" style="stop-color:#FFFFFF"/>
		<stop  offset="0.85" style="stop-color:#B6B7B5"/>
		<stop  offset="1" style="stop-color:#9A9DA3"/>
	</radialGradient>
	<circle fill="url(#SVGID_10_)" cx="32.515" cy="34.995" r="2.501"/>
</g>
</svg>
