<?xml version="1.0" encoding="utf-8"?>
<!-- Generator: Adobe Illustrator 15.0.0, SVG Export Plug-In . SVG Version: 6.00 Build 0)  -->
<!DOCTYPE svg PUBLIC "-//W3C//DTD SVG 1.0//EN" "http://www.w3.org/TR/2001/REC-SVG-20010904/DTD/svg10.dtd">
<svg version="1.0" id="_x37_1" xmlns="http://www.w3.org/2000/svg" xmlns:xlink="http://www.w3.org/1999/xlink" x="0px" y="0px"
	 width="82.973px" height="82.319px" viewBox="0 0 82.973 82.319" enable-background="new 0 0 82.973 82.319" xml:space="preserve">
<g>
	
		<linearGradient id="SVGID_1_" gradientUnits="userSpaceOnUse" x1="35.0605" y1="51.4375" x2="35.0605" y2="122.4807" gradientTransform="matrix(1 -7.000000e-004 7.000000e-004 1 -0.3433 0.0718)">
		<stop  offset="0" style="stop-color:#2E6060"/>
		<stop  offset="0.1011" style="stop-color:#326464"/>
		<stop  offset="0.2113" style="stop-color:#407071"/>
		<stop  offset="0.25" style="stop-color:#467677"/>
		<stop  offset="0.5" style="stop-color:#8DBAB9"/>
		<stop  offset="0.75" style="stop-color:#467677"/>
		<stop  offset="0.7981" style="stop-color:#3D6E6F"/>
		<stop  offset="0.8972" style="stop-color:#326464"/>
		<stop  offset="1" style="stop-color:#2E6060"/>
	</linearGradient>
	<polygon fill="url(#SVGID_1_)" points="68.03,82.277 1.519,82.319 11.521,58.651 57.997,58.621 	"/>
	
		<linearGradient id="SVGID_2_" gradientUnits="userSpaceOnUse" x1="1.3018" y1="19.8794" x2="1.3018" y2="-0.1079" gradientTransform="matrix(0.9375 -7.000000e-004 0.0011 0.9999 57.7798 0.1142)">
		<stop  offset="0" style="stop-color:#2E6060"/>
		<stop  offset="0.1011" style="stop-color:#326464"/>
		<stop  offset="0.2113" style="stop-color:#407071"/>
		<stop  offset="0.25" style="stop-color:#467677"/>
		<stop  offset="0.5" style="stop-color:#8DBAB9"/>
		<stop  offset="0.75" style="stop-color:#467677"/>
		<stop  offset="0.7981" style="stop-color:#3D6E6F"/>
		<stop  offset="0.8972" style="stop-color:#326464"/>
		<stop  offset="1" style="stop-color:#2E6060"/>
	</linearGradient>
	<polygon fill="url(#SVGID_2_)" points="82.973,19.973 35.074,19.997 35.05,0.023 82.949,0 	"/>
	
		<radialGradient id="SVGID_3_" cx="0.2402" cy="-31.1733" r="288.6694" gradientTransform="matrix(0.9107 -6.000000e-004 6.000000e-004 0.9107 61.7448 90.7865)" gradientUnits="userSpaceOnUse">
		<stop  offset="0" style="stop-color:#2E6060"/>
		<stop  offset="0.1011" style="stop-color:#326464"/>
		<stop  offset="0.2113" style="stop-color:#407071"/>
		<stop  offset="0.25" style="stop-color:#467677"/>
		<stop  offset="0.5" style="stop-color:#8DBAB9"/>
		<stop  offset="0.75" style="stop-color:#467677"/>
		<stop  offset="0.7981" style="stop-color:#3D6E6F"/>
		<stop  offset="0.8972" style="stop-color:#326464"/>
		<stop  offset="1" style="stop-color:#2E6060"/>
	</radialGradient>
	<circle fill="url(#SVGID_3_)" cx="34.606" cy="34.639" r="34.606"/>
	
		<radialGradient id="SVGID_4_" cx="-101.5283" cy="-89.603" r="118" gradientTransform="matrix(0.9107 -6.000000e-004 6.000000e-004 0.9107 61.7448 90.7865)" gradientUnits="userSpaceOnUse">
		<stop  offset="0" style="stop-color:#255151"/>
		<stop  offset="0.0789" style="stop-color:#295555"/>
		<stop  offset="0.165" style="stop-color:#346263"/>
		<stop  offset="0.25" style="stop-color:#467677"/>
		<stop  offset="0.5" style="stop-color:#8DBAB9"/>
		<stop  offset="0.75" style="stop-color:#467677"/>
		<stop  offset="0.7603" style="stop-color:#437374"/>
		<stop  offset="0.8384" style="stop-color:#326060"/>
		<stop  offset="0.9178" style="stop-color:#285555"/>
		<stop  offset="1" style="stop-color:#255151"/>
	</radialGradient>
	<path fill="url(#SVGID_4_)" d="M15.29,15.349C25.944,4.683,43.227,4.671,53.896,15.323l0,0
		c10.666,10.655,10.677,27.938,0.023,38.605l0,0c-10.654,10.667-27.937,10.679-38.605,0.026l0,0
		C4.648,43.3,4.638,26.018,15.29,15.349L15.29,15.349z M17.867,17.922c-9.216,9.261-9.204,24.206,0.022,33.455l0,0
		c9.262,9.215,24.205,9.206,33.453-0.021l0,0c9.217-9.26,9.207-24.206-0.021-33.454l0,0C42.061,8.686,27.115,8.695,17.867,17.922
		L17.867,17.922z"/>
</g>
</svg>
