<?xml version="1.0" encoding="utf-8"?>
<!-- Generator: Adobe Illustrator 15.0.0, SVG Export Plug-In . SVG Version: 6.00 Build 0)  -->
<!DOCTYPE svg PUBLIC "-//W3C//DTD SVG 1.0//EN" "http://www.w3.org/TR/2001/REC-SVG-20010904/DTD/svg10.dtd">
<svg version="1.0" id="_x37_1" xmlns="http://www.w3.org/2000/svg" xmlns:xlink="http://www.w3.org/1999/xlink" x="0px" y="0px"
	 width="159.667px" height="73.958px" viewBox="0 0 159.667 73.958" enable-background="new 0 0 159.667 73.958"
	 xml:space="preserve">
<g>
	<linearGradient id="SVGID_1_" gradientUnits="userSpaceOnUse" x1="33.8335" y1="18" x2="33.8335" y2="3.333">
		<stop  offset="0" style="stop-color:#1A1A1A"/>
		<stop  offset="0.5" style="stop-color:#808080"/>
		<stop  offset="1" style="stop-color:#1A1A1A"/>
	</linearGradient>
	<rect x="13.667" y="3.333" fill="url(#SVGID_1_)" width="40.333" height="14.667"/>
	<linearGradient id="SVGID_2_" gradientUnits="userSpaceOnUse" x1="25.167" y1="18" x2="25.167" y2="0">
		<stop  offset="0" style="stop-color:#1A1A1A"/>
		<stop  offset="0.5" style="stop-color:#808080"/>
		<stop  offset="1" style="stop-color:#1A1A1A"/>
	</linearGradient>
	<rect x="23.667" fill="url(#SVGID_2_)" width="3" height="18"/>
	<linearGradient id="SVGID_3_" gradientUnits="userSpaceOnUse" x1="3.3335" y1="71.666" x2="3.3335" y2="18">
		<stop  offset="0" style="stop-color:#1A1A1A"/>
		<stop  offset="0.5" style="stop-color:#808080"/>
		<stop  offset="1" style="stop-color:#1A1A1A"/>
	</linearGradient>
	<rect y="18" fill="url(#SVGID_3_)" width="6.667" height="53.666"/>
	<linearGradient id="SVGID_4_" gradientUnits="userSpaceOnUse" x1="46.75" y1="71.666" x2="46.75" y2="18">
		<stop  offset="0" style="stop-color:#1A1A1A"/>
		<stop  offset="0.5" style="stop-color:#808080"/>
		<stop  offset="1" style="stop-color:#1A1A1A"/>
	</linearGradient>
	<rect x="6.667" y="18" fill="url(#SVGID_4_)" width="80.166" height="53.666"/>
	<linearGradient id="SVGID_5_" gradientUnits="userSpaceOnUse" x1="90" y1="27.8496" x2="90" y2="56.3792">
		<stop  offset="0" style="stop-color:#9A9DA3"/>
		<stop  offset="0.15" style="stop-color:#B6B7B5"/>
		<stop  offset="0.5" style="stop-color:#FFFFFF"/>
		<stop  offset="0.85" style="stop-color:#B6B7B5"/>
		<stop  offset="1" style="stop-color:#9A9DA3"/>
	</linearGradient>
	<polygon fill="url(#SVGID_5_)" points="93.167,65.168 86.833,68.168 86.833,22.498 93.167,25.498 	"/>
	<rect x="45" y="62.333" fill="#0D0D0D" width="3.667" height="10.333"/>
	<rect x="30.833" y="71.752" fill="#0D0D0D" width="49.667" height="1.078"/>
	<rect x="52.5" y="42.665" fill="#CCCCCC" width="17" height="26.5"/>
	<rect x="76.333" y="18.499" fill="#CCCCCC" width="4.667" height="5"/>
	<g>
		<rect x="8.837" y="46.666" fill="#1A1A1A" width="25.664" height="27.292"/>
		<line fill="none" stroke="#1A1A1A" stroke-width="0.5" x1="34.501" y1="73.958" x2="8.837" y2="73.958"/>
		<line fill="none" stroke="#1A1A1A" stroke-width="0.5" x1="34.501" y1="73.958" x2="34.501" y2="46.666"/>
		<line fill="none" stroke="#FFFFFF" stroke-width="0.5" x1="8.837" y1="73.958" x2="8.837" y2="46.666"/>
		<line fill="none" stroke="#FFFFFF" stroke-width="0.5" x1="34.501" y1="46.666" x2="8.837" y2="46.666"/>
	</g>
	<linearGradient id="SVGID_6_" gradientUnits="userSpaceOnUse" x1="113.002" y1="30.1465" x2="113.002" y2="54.9279">
		<stop  offset="0" style="stop-color:#9A9DA3"/>
		<stop  offset="0.15" style="stop-color:#B6B7B5"/>
		<stop  offset="0.5" style="stop-color:#FFFFFF"/>
		<stop  offset="0.85" style="stop-color:#B6B7B5"/>
		<stop  offset="1" style="stop-color:#9A9DA3"/>
	</linearGradient>
	<rect x="93.167" y="25.498" fill="url(#SVGID_6_)" width="39.67" height="39.67"/>
	<linearGradient id="SVGID_7_" gradientUnits="userSpaceOnUse" x1="134.4185" y1="26.6729" x2="134.4185" y2="56.0333">
		<stop  offset="0" style="stop-color:#9A9DA3"/>
		<stop  offset="0.15" style="stop-color:#B6B7B5"/>
		<stop  offset="0.5" style="stop-color:#FFFFFF"/>
		<stop  offset="0.85" style="stop-color:#B6B7B5"/>
		<stop  offset="1" style="stop-color:#9A9DA3"/>
	</linearGradient>
	<rect x="132.837" y="21.165" fill="url(#SVGID_7_)" width="3.163" height="47"/>
	<linearGradient id="SVGID_8_" gradientUnits="userSpaceOnUse" x1="139.3335" y1="26.6729" x2="139.3335" y2="56.0333">
		<stop  offset="0" style="stop-color:#1A1A1A"/>
		<stop  offset="0.5" style="stop-color:#808080"/>
		<stop  offset="1" style="stop-color:#1A1A1A"/>
	</linearGradient>
	<rect x="136" y="21.165" fill="url(#SVGID_8_)" width="6.667" height="47"/>
	<linearGradient id="SVGID_9_" gradientUnits="userSpaceOnUse" x1="158.75" y1="55.665" x2="158.75" y2="34.665">
		<stop  offset="0" style="stop-color:#1A1A1A"/>
		<stop  offset="0.5" style="stop-color:#808080"/>
		<stop  offset="1" style="stop-color:#1A1A1A"/>
	</linearGradient>
	<rect x="157.833" y="34.665" fill="url(#SVGID_9_)" width="1.834" height="21"/>
	<linearGradient id="SVGID_10_" gradientUnits="userSpaceOnUse" x1="150.25" y1="55.665" x2="150.25" y2="34.665">
		<stop  offset="0" style="stop-color:#1A1A1A"/>
		<stop  offset="0.5" style="stop-color:#808080"/>
		<stop  offset="1" style="stop-color:#1A1A1A"/>
	</linearGradient>
	<rect x="142.667" y="34.665" fill="url(#SVGID_10_)" width="15.166" height="21"/>
	<rect x="96.333" y="26.998" fill="#CCCCCC" stroke="#076BAF" stroke-width="0.5" width="13.667" height="9.667"/>
	<polygon fill="#666666" points="157.833,34.665 142.667,34.665 142.667,24.666 	"/>
	<linearGradient id="SVGID_11_" gradientUnits="userSpaceOnUse" x1="150.25" y1="49.832" x2="150.25" y2="40.498">
		<stop  offset="0" style="stop-color:#1A1A1A"/>
		<stop  offset="0.5" style="stop-color:#808080"/>
		<stop  offset="1" style="stop-color:#1A1A1A"/>
	</linearGradient>
	<rect x="142.667" y="40.498" fill="url(#SVGID_11_)" width="15.166" height="9.334"/>
	<polygon fill="#0D0D0D" points="157.833,40.498 142.667,40.498 142.667,32.499 	"/>
	<polygon fill="#0D0D0D" points="157.833,55.665 142.667,55.665 142.667,65.664 	"/>
	<polygon fill="#666666" points="157.833,49.832 142.667,49.832 142.667,57.831 	"/>
	<linearGradient id="SVGID_12_" gradientUnits="userSpaceOnUse" x1="5.9995" y1="71.666" x2="5.9995" y2="18">
		<stop  offset="0" style="stop-color:#1A1A1A"/>
		<stop  offset="0.5" style="stop-color:#808080"/>
		<stop  offset="1" style="stop-color:#1A1A1A"/>
	</linearGradient>
	<rect x="5.332" y="18" fill="url(#SVGID_12_)" width="1.335" height="53.666"/>
</g>
</svg>
