<?xml version="1.0" encoding="utf-8"?>
<!-- Generator: Adobe Illustrator 15.0.0, SVG Export Plug-In . SVG Version: 6.00 Build 0)  -->
<!DOCTYPE svg PUBLIC "-//W3C//DTD SVG 1.0//EN" "http://www.w3.org/TR/2001/REC-SVG-20010904/DTD/svg10.dtd">
<svg version="1.0" id="_x37_1" xmlns="http://www.w3.org/2000/svg" xmlns:xlink="http://www.w3.org/1999/xlink" x="0px" y="0px"
	 width="158.875px" height="54.865px" viewBox="0 0 158.875 54.865" enable-background="new 0 0 158.875 54.865"
	 xml:space="preserve">
<g>
	<linearGradient id="SVGID_1_" gradientUnits="userSpaceOnUse" x1="65.2441" y1="52.8096" x2="-24.7995" y2="54.1442">
		<stop  offset="0" style="stop-color:#1A1A1A"/>
		<stop  offset="0.5" style="stop-color:#808080"/>
		<stop  offset="1" style="stop-color:#1A1A1A"/>
	</linearGradient>
	<polygon fill="url(#SVGID_1_)" points="72.583,54.865 38.5,54.865 40.5,51.01 74.583,51.01 	"/>
	<linearGradient id="SVGID_2_" gradientUnits="userSpaceOnUse" x1="43.125" y1="41.875" x2="43.125" y2="22.1255">
		<stop  offset="0" style="stop-color:#1A1A1A"/>
		<stop  offset="0.5" style="stop-color:#808080"/>
		<stop  offset="1" style="stop-color:#1A1A1A"/>
	</linearGradient>
	<rect y="22.125" fill="url(#SVGID_2_)" width="86.25" height="19.75"/>
	<linearGradient id="SVGID_3_" gradientUnits="userSpaceOnUse" x1="43.125" y1="49.375" x2="43.125" y2="14.6255">
		<stop  offset="0" style="stop-color:#1A1A1A"/>
		<stop  offset="0.5" style="stop-color:#808080"/>
		<stop  offset="1" style="stop-color:#1A1A1A"/>
	</linearGradient>
	<rect x="2.25" y="14.625" fill="url(#SVGID_3_)" width="81.75" height="34.75"/>
	<linearGradient id="SVGID_4_" gradientUnits="userSpaceOnUse" x1="43.125" y1="52.875" x2="43.125" y2="11.1255">
		<stop  offset="0" style="stop-color:#1A1A1A"/>
		<stop  offset="0.5" style="stop-color:#808080"/>
		<stop  offset="1" style="stop-color:#1A1A1A"/>
	</linearGradient>
	<rect x="5.25" y="11.125" fill="url(#SVGID_4_)" width="75.75" height="41.75"/>
	<linearGradient id="SVGID_5_" gradientUnits="userSpaceOnUse" x1="26.8672" y1="12.625" x2="26.8672" y2="0">
		<stop  offset="0" style="stop-color:#9A9DA3"/>
		<stop  offset="0.15" style="stop-color:#B6B7B5"/>
		<stop  offset="0.5" style="stop-color:#FFFFFF"/>
		<stop  offset="0.85" style="stop-color:#B6B7B5"/>
		<stop  offset="1" style="stop-color:#9A9DA3"/>
	</linearGradient>
	<path fill="url(#SVGID_5_)" d="M9.588,0C8.516,0,7.646,2.826,7.646,6.313s0.87,6.313,1.942,6.313h36.5V0H9.588z"/>
	<linearGradient id="SVGID_6_" gradientUnits="userSpaceOnUse" x1="46.9189" y1="10.875" x2="46.9189" y2="2.25">
		<stop  offset="0" style="stop-color:#1A1A1A"/>
		<stop  offset="0.5" style="stop-color:#808080"/>
		<stop  offset="1" style="stop-color:#1A1A1A"/>
	</linearGradient>
	<polygon fill="url(#SVGID_6_)" points="47.75,9.875 46.088,10.875 46.088,2.25 47.75,3.25 	"/>
	<g>
		<rect x="7.918" y="31.791" fill="#7D7D7F" width="14.332" height="19.251"/>
		<line fill="none" stroke="#1A1A1A" stroke-width="0.5" x1="7.918" y1="31.791" x2="22.25" y2="31.791"/>
		<line fill="none" stroke="#1A1A1A" stroke-width="0.5" x1="7.918" y1="31.791" x2="7.918" y2="51.042"/>
		<line fill="none" stroke="#FFFFFF" stroke-width="0.5" x1="22.25" y1="31.791" x2="22.25" y2="51.042"/>
		<line fill="none" stroke="#FFFFFF" stroke-width="0.5" x1="7.918" y1="51.042" x2="22.25" y2="51.042"/>
	</g>
	<rect x="91.625" y="15.875" fill="#7D7D7F" width="15.375" height="20.5"/>
	<polygon fill="#999999" points="107,15.875 91.625,15.875 89.563,17.5 104.938,17.5 	"/>
	<linearGradient id="SVGID_7_" gradientUnits="userSpaceOnUse" x1="100.75" y1="38.75" x2="100.75" y2="25.0005">
		<stop  offset="0" style="stop-color:#9A9DA3"/>
		<stop  offset="0.15" style="stop-color:#B6B7B5"/>
		<stop  offset="0.5" style="stop-color:#FFFFFF"/>
		<stop  offset="0.85" style="stop-color:#B6B7B5"/>
		<stop  offset="1" style="stop-color:#9A9DA3"/>
	</linearGradient>
	<rect x="86.25" y="25" fill="url(#SVGID_7_)" width="29" height="13.75"/>
	<linearGradient id="SVGID_8_" gradientUnits="userSpaceOnUse" x1="137.0625" y1="36.125" x2="137.0625" y2="27.625">
		<stop  offset="0" style="stop-color:#9A9DA3"/>
		<stop  offset="0.15" style="stop-color:#B6B7B5"/>
		<stop  offset="0.5" style="stop-color:#FFFFFF"/>
		<stop  offset="0.85" style="stop-color:#B6B7B5"/>
		<stop  offset="1" style="stop-color:#9A9DA3"/>
	</linearGradient>
	<rect x="115.25" y="27.625" fill="url(#SVGID_8_)" width="43.625" height="8.5"/>
	<linearGradient id="SVGID_9_" gradientUnits="userSpaceOnUse" x1="97.25" y1="38.75" x2="97.25" y2="17.5005">
		<stop  offset="0" style="stop-color:#9A9DA3"/>
		<stop  offset="0.15" style="stop-color:#B6B7B5"/>
		<stop  offset="0.5" style="stop-color:#FFFFFF"/>
		<stop  offset="0.85" style="stop-color:#B6B7B5"/>
		<stop  offset="1" style="stop-color:#9A9DA3"/>
	</linearGradient>
	<rect x="89.563" y="17.5" fill="url(#SVGID_9_)" width="15.375" height="21.25"/>
	<linearGradient id="SVGID_10_" gradientUnits="userSpaceOnUse" x1="149.25" y1="38.75" x2="149.25" y2="25.0005">
		<stop  offset="0" style="stop-color:#9A9DA3"/>
		<stop  offset="0.15" style="stop-color:#B6B7B5"/>
		<stop  offset="0.5" style="stop-color:#FFFFFF"/>
		<stop  offset="0.85" style="stop-color:#B6B7B5"/>
		<stop  offset="1" style="stop-color:#9A9DA3"/>
	</linearGradient>
	<rect x="140.625" y="25" fill="url(#SVGID_10_)" width="17.25" height="13.75"/>
</g>
</svg>
