<?xml version="1.0" encoding="utf-8"?>
<!-- Generator: Adobe Illustrator 15.0.0, SVG Export Plug-In . SVG Version: 6.00 Build 0)  -->
<!DOCTYPE svg PUBLIC "-//W3C//DTD SVG 1.0//EN" "http://www.w3.org/TR/2001/REC-SVG-20010904/DTD/svg10.dtd">
<svg version="1.0" id="_x37_1" xmlns="http://www.w3.org/2000/svg" xmlns:xlink="http://www.w3.org/1999/xlink" x="0px" y="0px"
	 width="39px" height="91.452px" viewBox="0 0 39 91.452" enable-background="new 0 0 39 91.452" xml:space="preserve">
<g>
	<g>
		<linearGradient id="SVGID_1_" gradientUnits="userSpaceOnUse" x1="10.4893" y1="14.4717" x2="32.1777" y2="14.4717">
			<stop  offset="0" style="stop-color:#9A9DA3"/>
			<stop  offset="0.15" style="stop-color:#B6B7B5"/>
			<stop  offset="0.5" style="stop-color:#FFFFFF"/>
			<stop  offset="0.85" style="stop-color:#B6B7B5"/>
			<stop  offset="1" style="stop-color:#9A9DA3"/>
		</linearGradient>
		<path fill="url(#SVGID_1_)" d="M32.178,22.375v-8.252c0-4.172-4.464-7.555-9.969-7.555h-1.751c-5.505,0-9.969,3.383-9.969,7.555
			v8.252H32.178z"/>
		<linearGradient id="SVGID_2_" gradientUnits="userSpaceOnUse" x1="5" y1="24.375" x2="37.625" y2="24.375">
			<stop  offset="0" style="stop-color:#9A9DA3"/>
			<stop  offset="0.15" style="stop-color:#B6B7B5"/>
			<stop  offset="0.5" style="stop-color:#FFFFFF"/>
			<stop  offset="0.85" style="stop-color:#B6B7B5"/>
			<stop  offset="1" style="stop-color:#9A9DA3"/>
		</linearGradient>
		<rect x="5" y="22.375" fill="url(#SVGID_2_)" width="32.625" height="4"/>
		<linearGradient id="SVGID_3_" gradientUnits="userSpaceOnUse" x1="5.375" y1="54.0625" x2="37.25" y2="54.0625">
			<stop  offset="0" style="stop-color:#9A9DA3"/>
			<stop  offset="0.15" style="stop-color:#B6B7B5"/>
			<stop  offset="0.5" style="stop-color:#FFFFFF"/>
			<stop  offset="0.85" style="stop-color:#B6B7B5"/>
			<stop  offset="1" style="stop-color:#9A9DA3"/>
		</linearGradient>
		<rect x="5.375" y="36.125" fill="url(#SVGID_3_)" width="31.875" height="35.875"/>
		<linearGradient id="SVGID_4_" gradientUnits="userSpaceOnUse" x1="10.334" y1="75.125" x2="32.001" y2="75.125">
			<stop  offset="0" style="stop-color:#9A9DA3"/>
			<stop  offset="0.15" style="stop-color:#B6B7B5"/>
			<stop  offset="0.5" style="stop-color:#FFFFFF"/>
			<stop  offset="0.85" style="stop-color:#B6B7B5"/>
			<stop  offset="1" style="stop-color:#9A9DA3"/>
		</linearGradient>
		<rect x="7.125" y="72" fill="url(#SVGID_4_)" width="28.375" height="6.25"/>
		<linearGradient id="SVGID_5_" gradientUnits="userSpaceOnUse" x1="5.375" y1="79.5781" x2="37.25" y2="79.5781">
			<stop  offset="0" style="stop-color:#9A9DA3"/>
			<stop  offset="0.15" style="stop-color:#B6B7B5"/>
			<stop  offset="0.5" style="stop-color:#FFFFFF"/>
			<stop  offset="0.85" style="stop-color:#B6B7B5"/>
			<stop  offset="1" style="stop-color:#9A9DA3"/>
		</linearGradient>
		<rect x="5.375" y="78.25" fill="url(#SVGID_5_)" width="31.875" height="2.656"/>
		<linearGradient id="SVGID_6_" gradientUnits="userSpaceOnUse" x1="7.334" y1="82.2344" x2="35.501" y2="82.2344">
			<stop  offset="0" style="stop-color:#9A9DA3"/>
			<stop  offset="0.15" style="stop-color:#B6B7B5"/>
			<stop  offset="0.5" style="stop-color:#FFFFFF"/>
			<stop  offset="0.85" style="stop-color:#B6B7B5"/>
			<stop  offset="1" style="stop-color:#9A9DA3"/>
		</linearGradient>
		<rect x="5.375" y="80.906" fill="url(#SVGID_6_)" width="31.875" height="2.656"/>
		<linearGradient id="SVGID_7_" gradientUnits="userSpaceOnUse" x1="10.334" y1="27.375" x2="32.001" y2="27.375">
			<stop  offset="0" style="stop-color:#9A9DA3"/>
			<stop  offset="0.15" style="stop-color:#B6B7B5"/>
			<stop  offset="0.5" style="stop-color:#FFFFFF"/>
			<stop  offset="0.85" style="stop-color:#B6B7B5"/>
			<stop  offset="1" style="stop-color:#9A9DA3"/>
		</linearGradient>
		<rect x="7.625" y="26.375" fill="url(#SVGID_7_)" width="27.375" height="2"/>
		<rect y="31.875" fill="#7D7D7F" width="5.375" height="11.5"/>
		<rect x="1.5" y="43.375" fill="#666767" width="3.875" height="3.25"/>
		<rect x="3.438" y="46.625" fill="#989898" width="1.938" height="6.875"/>
		<linearGradient id="SVGID_8_" gradientUnits="userSpaceOnUse" x1="7.3945" y1="87.5068" x2="35.2725" y2="87.5068">
			<stop  offset="0" style="stop-color:#9A9DA3"/>
			<stop  offset="0.15" style="stop-color:#B6B7B5"/>
			<stop  offset="0.5" style="stop-color:#FFFFFF"/>
			<stop  offset="0.85" style="stop-color:#B6B7B5"/>
			<stop  offset="1" style="stop-color:#9A9DA3"/>
		</linearGradient>
		<path fill="url(#SVGID_8_)" d="M7.395,83.563c1.226,4.503,6.487,7.89,12.791,7.89h2.296c6.304,0,11.565-3.387,12.791-7.89H7.395z"
			/>
		<linearGradient id="SVGID_9_" gradientUnits="userSpaceOnUse" x1="15.167" y1="3.8643" x2="27.5" y2="3.8643">
			<stop  offset="0" style="stop-color:#9A9DA3"/>
			<stop  offset="0.15" style="stop-color:#B6B7B5"/>
			<stop  offset="0.5" style="stop-color:#FFFFFF"/>
			<stop  offset="0.85" style="stop-color:#B6B7B5"/>
			<stop  offset="1" style="stop-color:#9A9DA3"/>
		</linearGradient>
		<path fill="url(#SVGID_9_)" d="M21.831,0h-0.995c-3.131,0-5.669,2.538-5.669,5.669v2.059H27.5V5.669C27.5,2.538,24.962,0,21.831,0
			z"/>
		<linearGradient id="SVGID_10_" gradientUnits="userSpaceOnUse" x1="3.625" y1="32.25" x2="39" y2="32.25">
			<stop  offset="0" style="stop-color:#9A9DA3"/>
			<stop  offset="0.15" style="stop-color:#B6B7B5"/>
			<stop  offset="0.5" style="stop-color:#FFFFFF"/>
			<stop  offset="0.85" style="stop-color:#B6B7B5"/>
			<stop  offset="1" style="stop-color:#9A9DA3"/>
		</linearGradient>
		<rect x="3.625" y="28.375" fill="url(#SVGID_10_)" width="35.375" height="7.75"/>
	</g>
	<line fill="none" stroke="#666666" stroke-width="0.5" x1="15.167" y1="7.728" x2="27.5" y2="7.728"/>
	<line fill="none" stroke="#666666" stroke-width="0.5" x1="7.667" y1="26.375" x2="35" y2="26.375"/>
	<line fill="none" stroke="#666666" stroke-width="0.5" x1="7.667" y1="72" x2="35" y2="72"/>
	<line fill="none" stroke="#666666" stroke-width="0.5" x1="5.417" y1="80.906" x2="37.25" y2="80.906"/>
	<line fill="none" stroke="#666666" stroke-width="0.5" x1="5.417" y1="36.125" x2="37.25" y2="36.125"/>
</g>
</svg>
