<?xml version="1.0" encoding="utf-8"?>
<!-- Generator: Adobe Illustrator 15.0.0, SVG Export Plug-In . SVG Version: 6.00 Build 0)  -->
<!DOCTYPE svg PUBLIC "-//W3C//DTD SVG 1.0//EN" "http://www.w3.org/TR/2001/REC-SVG-20010904/DTD/svg10.dtd">
<svg version="1.0" id="_x33_7" xmlns="http://www.w3.org/2000/svg" xmlns:xlink="http://www.w3.org/1999/xlink" x="0px" y="0px"
	 width="159.237px" height="61.168px" viewBox="0 0 159.237 61.168" enable-background="new 0 0 159.237 61.168"
	 xml:space="preserve">
<g>
	<g>
		<g>
			<linearGradient id="SVGID_1_" gradientUnits="userSpaceOnUse" x1="71.2891" y1="57" x2="71.2891" y2="45.9999">
				<stop  offset="0" style="stop-color:#467677"/>
				<stop  offset="0.1907" style="stop-color:#3E6F6F"/>
				<stop  offset="0.4176" style="stop-color:#2E6060"/>
				<stop  offset="0.8736" style="stop-color:#173F3F"/>
			</linearGradient>
			<rect x="34.333" y="1.552" fill="url(#SVGID_1_)" width="73.912" height="59.616"/>
			<linearGradient id="SVGID_2_" gradientUnits="userSpaceOnUse" x1="145.9922" y1="28.9268" x2="145.9922" y2="33.9967">
				<stop  offset="0" style="stop-color:#467677"/>
				<stop  offset="0.5" style="stop-color:#8EBABA"/>
				<stop  offset="1" style="stop-color:#467677"/>
			</linearGradient>
			<rect x="132.748" y="28.859" fill="url(#SVGID_2_)" width="26.489" height="5.618"/>
			<linearGradient id="SVGID_3_" gradientUnits="userSpaceOnUse" x1="120.5781" y1="3.7822" x2="120.5781" y2="58.329">
				<stop  offset="0" style="stop-color:#2E6060"/>
				<stop  offset="0.0989" style="stop-color:#326464"/>
				<stop  offset="0.2067" style="stop-color:#3F7070"/>
				<stop  offset="0.25" style="stop-color:#467677"/>
				<stop  offset="0.5" style="stop-color:#8EBABA"/>
				<stop  offset="0.75" style="stop-color:#467677"/>
				<stop  offset="0.8021" style="stop-color:#3D6E6E"/>
				<stop  offset="0.8993" style="stop-color:#326363"/>
				<stop  offset="1" style="stop-color:#2E6060"/>
			</linearGradient>
			<path fill="url(#SVGID_3_)" d="M108.245,3.58v55.561c14.727,0,24.665-12.438,24.665-27.781
				C132.91,16.018,122.972,3.58,108.245,3.58z"/>
			<g>
				<rect x="34.334" y="1.552" fill="#BBD3D2" width="77.967" height="1.357"/>
				<rect x="34.334" y="2.909" fill="#333333" width="77.967" height="0.873"/>
			</g>
			<g>
				<rect x="34.334" y="6.702" fill="#BBD3D2" width="77.967" height="1.357"/>
				<rect x="34.334" y="8.059" fill="#333333" width="77.967" height="0.874"/>
			</g>
			<g>
				<rect x="34.334" y="11.853" fill="#BBD3D2" width="77.967" height="1.357"/>
				<rect x="34.334" y="13.21" fill="#333333" width="77.967" height="0.873"/>
			</g>
			<g>
				<rect x="34.334" y="17.003" fill="#BBD3D2" width="77.967" height="1.358"/>
				<rect x="34.334" y="18.361" fill="#333333" width="77.967" height="0.873"/>
			</g>
			<g>
				<rect x="34.334" y="22.154" fill="#BBD3D2" width="77.967" height="1.357"/>
				<rect x="34.334" y="23.512" fill="#333333" width="77.967" height="0.873"/>
			</g>
			<g>
				<rect x="34.334" y="27.304" fill="#BBD3D2" width="77.967" height="1.357"/>
				<rect x="34.334" y="28.661" fill="#333333" width="77.967" height="0.874"/>
			</g>
			<g>
				<rect x="34.334" y="32.455" fill="#BBD3D2" width="77.967" height="1.357"/>
				<rect x="34.334" y="33.813" fill="#333333" width="77.967" height="0.872"/>
			</g>
			<g>
				<rect x="34.334" y="37.605" fill="#BBD3D2" width="77.967" height="1.356"/>
				<rect x="34.334" y="38.962" fill="#333333" width="77.967" height="0.874"/>
			</g>
			<g>
				<rect x="34.334" y="42.756" fill="#BBD3D2" width="77.967" height="1.358"/>
				<rect x="34.334" y="44.114" fill="#333333" width="77.967" height="0.872"/>
			</g>
			<g>
				<rect x="34.334" y="47.907" fill="#BBD3D2" width="77.967" height="1.357"/>
				<rect x="34.334" y="49.265" fill="#333333" width="77.967" height="0.872"/>
			</g>
			<g>
				<rect x="34.334" y="53.057" fill="#BBD3D2" width="77.967" height="1.358"/>
				<rect x="34.334" y="54.415" fill="#333333" width="77.967" height="0.872"/>
			</g>
			<linearGradient id="SVGID_4_" gradientUnits="userSpaceOnUse" x1="133.9287" y1="33.6362" x2="132.3516" y2="31.0077">
				<stop  offset="0" style="stop-color:#467677"/>
				<stop  offset="0.087" style="stop-color:#3D6E6E"/>
				<stop  offset="0.2493" style="stop-color:#326363"/>
				<stop  offset="0.4176" style="stop-color:#2E6060"/>
				<stop  offset="0.8736" style="stop-color:#173F3F"/>
			</linearGradient>
			<rect x="132.586" y="28.859" fill="url(#SVGID_4_)" width="0.324" height="5.618"/>
		</g>
		<linearGradient id="SVGID_5_" gradientUnits="userSpaceOnUse" x1="21" y1="0.7153" x2="21" y2="54.5603">
			<stop  offset="0" style="stop-color:#6B9696"/>
			<stop  offset="0.5" style="stop-color:#8EBABA"/>
			<stop  offset="1" style="stop-color:#6A9695"/>
		</linearGradient>
		<rect x="7.667" fill="url(#SVGID_5_)" width="26.666" height="59.667"/>
		<linearGradient id="SVGID_6_" gradientUnits="userSpaceOnUse" x1="-3.6445" y1="5.1108" x2="8.6885" y2="40.1108">
			<stop  offset="0.5" style="stop-color:#739E9D"/>
			<stop  offset="1" style="stop-color:#467677"/>
		</linearGradient>
		<polygon fill="url(#SVGID_6_)" points="7.667,59.667 0,52.667 0,7 7.667,0 		"/>
	</g>
</g>
</svg>
