<?xml version="1.0" encoding="utf-8"?>
<!-- Generator: Adobe Illustrator 15.0.0, SVG Export Plug-In . SVG Version: 6.00 Build 0)  -->
<!DOCTYPE svg PUBLIC "-//W3C//DTD SVG 1.0//EN" "http://www.w3.org/TR/2001/REC-SVG-20010904/DTD/svg10.dtd">
<svg version="1.0" id="_x33_7" xmlns="http://www.w3.org/2000/svg" xmlns:xlink="http://www.w3.org/1999/xlink" x="0px" y="0px"
	 width="159.264px" height="84.107px" viewBox="0 0 159.264 84.107" enable-background="new 0 0 159.264 84.107"
	 xml:space="preserve">
<g>
	<g>
		<linearGradient id="SVGID_1_" gradientUnits="userSpaceOnUse" x1="113.9233" y1="71.8936" x2="-42.0744" y2="70.5597">
			<stop  offset="0" style="stop-color:#8C8B6E"/>
			<stop  offset="1" style="stop-color:#E8E6DF"/>
		</linearGradient>
		<polygon fill="url(#SVGID_1_)" points="118.931,66.44 24.931,66.44 2.931,76.44 96.931,76.44 		"/>
		<linearGradient id="SVGID_2_" gradientUnits="userSpaceOnUse" x1="51.2402" y1="74.5605" x2="43.9072" y2="106.5607">
			<stop  offset="0" style="stop-color:#8C8B6E"/>
			<stop  offset="1" style="stop-color:#E8E6DF"/>
		</linearGradient>
		<rect x="2.931" y="76.44" fill="url(#SVGID_2_)" width="94" height="7.667"/>
		<linearGradient id="SVGID_3_" gradientUnits="userSpaceOnUse" x1="110.5547" y1="72.8242" x2="80.5547" y2="100.8243">
			<stop  offset="0" style="stop-color:#8C8B6E"/>
			<stop  offset="1" style="stop-color:#E8E6DF"/>
		</linearGradient>
		<polygon fill="url(#SVGID_3_)" points="118.931,74.107 96.931,84.107 96.931,76.44 118.931,66.44 		"/>
		<linearGradient id="SVGID_4_" gradientUnits="userSpaceOnUse" x1="50.9551" y1="-0.2256" x2="50.9551" y2="71.1084">
			<stop  offset="0" style="stop-color:#8C8B6E"/>
			<stop  offset="0.0635" style="stop-color:#8F8E72"/>
			<stop  offset="0.1329" style="stop-color:#9A987D"/>
			<stop  offset="0.2048" style="stop-color:#ABA991"/>
			<stop  offset="0.25" style="stop-color:#B9B8A2"/>
			<stop  offset="0.5" style="stop-color:#E8E6DF"/>
			<stop  offset="0.75" style="stop-color:#B9B8A2"/>
			<stop  offset="0.7918" style="stop-color:#B7B6A0"/>
			<stop  offset="0.8273" style="stop-color:#B0AF99"/>
			<stop  offset="0.8606" style="stop-color:#A4A28D"/>
			<stop  offset="0.8925" style="stop-color:#93917D"/>
			<stop  offset="0.9235" style="stop-color:#7C7B68"/>
			<stop  offset="0.9537" style="stop-color:#61604F"/>
			<stop  offset="0.9827" style="stop-color:#414032"/>
			<stop  offset="1" style="stop-color:#2B2A1D"/>
		</linearGradient>
		<path fill="url(#SVGID_4_)" d="M15.916,0C7.126,0,0,16.11,0,35.983s7.126,35.983,15.916,35.983h85.994V0H15.916z"/>
		<linearGradient id="SVGID_5_" gradientUnits="userSpaceOnUse" x1="105.1074" y1="51.8193" x2="75.775" y2="-50.8449">
			<stop  offset="0" style="stop-color:#8C8B6E"/>
			<stop  offset="1" style="stop-color:#E8E6DF"/>
		</linearGradient>
		<ellipse fill="url(#SVGID_5_)" cx="100.583" cy="35.983" rx="15.916" ry="35.983"/>
		<rect x="34.931" y="63.773" fill="#040000" width="52.333" height="1.667"/>
		<rect x="25.597" y="14.106" fill="#040000" width="59.333" height="1.667"/>
		<rect x="33.931" y="10.606" fill="#040000" width="53.999" height="1.667"/>
		<rect x="47.43" y="7.106" fill="#040000" width="41.5" height="1.667"/>
		<rect x="15.264" y="30.107" fill="#040000" width="16.333" height="16.333"/>
		<rect x="14.264" y="31.107" fill="#E6E6E6" width="16.333" height="16.333"/>
		<linearGradient id="SVGID_6_" gradientUnits="userSpaceOnUse" x1="111.8452" y1="63.4521" x2="77.8446" y2="-30.5494">
			<stop  offset="0" style="stop-color:#8C8B6E"/>
			<stop  offset="1" style="stop-color:#E8E6DF"/>
		</linearGradient>
		<ellipse fill="url(#SVGID_6_)" stroke="#8C8B6E" stroke-width="0.5" cx="101.91" cy="35.983" rx="14.588" ry="32.983"/>
		<linearGradient id="SVGID_7_" gradientUnits="userSpaceOnUse" x1="130.0972" y1="33.4434" x2="130.0972" y2="41.0211">
			<stop  offset="0.5879" style="stop-color:#C9CACA"/>
			<stop  offset="0.8132" style="stop-color:#727171"/>
		</linearGradient>
		<rect x="100.931" y="33.443" fill="url(#SVGID_7_)" width="58.333" height="7.997"/>
	</g>
</g>
</svg>
