<?xml version="1.0" encoding="utf-8"?>
<!-- Generator: Adobe Illustrator 15.0.0, SVG Export Plug-In . SVG Version: 6.00 Build 0)  -->
<!DOCTYPE svg PUBLIC "-//W3C//DTD SVG 1.0//EN" "http://www.w3.org/TR/2001/REC-SVG-20010904/DTD/svg10.dtd">
<svg version="1.0" id="_x33_7" xmlns="http://www.w3.org/2000/svg" xmlns:xlink="http://www.w3.org/1999/xlink" x="0px" y="0px"
	 width="159.001px" height="58.334px" viewBox="0 0 159.001 58.334" enable-background="new 0 0 159.001 58.334"
	 xml:space="preserve">
<g>
	<g>
		<linearGradient id="SVGID_1_" gradientUnits="userSpaceOnUse" x1="4.917" y1="32.9814" x2="4.917" y2="0.348">
			<stop  offset="0" style="stop-color:#6E6D56"/>
			<stop  offset="0.2388" style="stop-color:#8E8D75"/>
			<stop  offset="0.5055" style="stop-color:#B9B8A2"/>
			<stop  offset="1" style="stop-color:#B9B8A2"/>
		</linearGradient>
		<path fill="url(#SVGID_1_)" d="M9.834,0L9.834,0C4.403,0,0,8.806,0,19.667s4.403,19.667,9.833,19.667h0.001V0z"/>
		<linearGradient id="SVGID_2_" gradientUnits="userSpaceOnUse" x1="67.583" y1="32.9814" x2="67.583" y2="0.348">
			<stop  offset="0" style="stop-color:#6E6D56"/>
			<stop  offset="0.2388" style="stop-color:#8E8D75"/>
			<stop  offset="0.5055" style="stop-color:#B9B8A2"/>
			<stop  offset="1" style="stop-color:#B9B8A2"/>
		</linearGradient>
		<rect x="9.833" fill="url(#SVGID_2_)" width="115.5" height="39.334"/>
		<linearGradient id="SVGID_3_" gradientUnits="userSpaceOnUse" x1="67.583" y1="56.7188" x2="67.583" y2="48.4222">
			<stop  offset="0" style="stop-color:#6E6D56"/>
			<stop  offset="0.2388" style="stop-color:#8E8D75"/>
			<stop  offset="0.5055" style="stop-color:#B9B8A2"/>
			<stop  offset="1" style="stop-color:#B9B8A2"/>
		</linearGradient>
		<rect x="0.334" y="48.334" fill="url(#SVGID_3_)" width="134.498" height="10"/>
		<linearGradient id="SVGID_4_" gradientUnits="userSpaceOnUse" x1="145.6675" y1="23.0518" x2="145.6675" y2="14.7553">
			<stop  offset="0" style="stop-color:#6E6D56"/>
			<stop  offset="0.2388" style="stop-color:#8E8D75"/>
			<stop  offset="0.5055" style="stop-color:#B9B8A2"/>
			<stop  offset="1" style="stop-color:#B9B8A2"/>
		</linearGradient>
		<rect x="132.334" y="14.667" fill="url(#SVGID_4_)" width="26.667" height="10"/>
		
			<linearGradient id="SVGID_5_" gradientUnits="userSpaceOnUse" x1="1818.3672" y1="32.9814" x2="1818.3672" y2="0.348" gradientTransform="matrix(-1 0 0 1 1948.6172 0)">
			<stop  offset="0" style="stop-color:#6E6D56"/>
			<stop  offset="0.2388" style="stop-color:#8E8D75"/>
			<stop  offset="0.5055" style="stop-color:#B9B8A2"/>
			<stop  offset="1" style="stop-color:#B9B8A2"/>
		</linearGradient>
		<path fill="url(#SVGID_5_)" d="M125.333,0L125.333,0c5.431,0,9.834,8.806,9.834,19.667s-4.403,19.667-9.833,19.667h-0.001V0z"/>
		<linearGradient id="SVGID_6_" gradientUnits="userSpaceOnUse" x1="19.667" y1="43.834" x2="29.334" y2="43.834">
			<stop  offset="0" style="stop-color:#8C8B6E"/>
			<stop  offset="0.312" style="stop-color:#A7A58C"/>
			<stop  offset="0.5055" style="stop-color:#B9B8A2"/>
			<stop  offset="1" style="stop-color:#8C8B6E"/>
		</linearGradient>
		<rect x="19.667" y="39.334" fill="url(#SVGID_6_)" width="9.667" height="9"/>
		<linearGradient id="SVGID_7_" gradientUnits="userSpaceOnUse" x1="105.001" y1="43.834" x2="115.001" y2="43.834">
			<stop  offset="0" style="stop-color:#8C8B6E"/>
			<stop  offset="0.312" style="stop-color:#A7A58C"/>
			<stop  offset="0.5055" style="stop-color:#B9B8A2"/>
			<stop  offset="1" style="stop-color:#8C8B6E"/>
		</linearGradient>
		<rect x="105.667" y="39.334" fill="url(#SVGID_7_)" width="9.667" height="9"/>
		<g>
			<g>
				<linearGradient id="SVGID_8_" gradientUnits="userSpaceOnUse" x1="58.9873" y1="9.2656" x2="120.5665" y2="61.3964">
					<stop  offset="0" style="stop-color:#8C8B6E"/>
					<stop  offset="0.4211" style="stop-color:#BAB6A3"/>
					<stop  offset="0.8736" style="stop-color:#E8E6DF"/>
					<stop  offset="0.9289" style="stop-color:#DAD8CD"/>
					<stop  offset="1" style="stop-color:#CBCAB9"/>
				</linearGradient>
				<rect x="53.126" y="7.334" fill="url(#SVGID_8_)" stroke="#8C8B6E" width="29.209" height="18.666"/>
				<g>
					<line fill="none" stroke="#1A1A1A" x1="53.126" y1="7.334" x2="53.126" y2="26"/>
					<line fill="none" stroke="#1A1A1A" x1="53.126" y1="7.334" x2="82.335" y2="7.334"/>
				</g>
			</g>
		</g>
		<g>
			<g>
				<line fill="none" stroke="#8C8B6E" stroke-width="0.5" x1="9.833" y1="5" x2="125.333" y2="5"/>
				<line fill="none" stroke="#8C8B6E" stroke-width="0.5" x1="9.833" y1="9.833" x2="48.001" y2="9.833"/>
				<line fill="none" stroke="#8C8B6E" stroke-width="0.5" x1="9.833" y1="14.667" x2="48.001" y2="14.667"/>
				<line fill="none" stroke="#8C8B6E" stroke-width="0.5" x1="9.833" y1="19.5" x2="48.001" y2="19.5"/>
				<line fill="none" stroke="#8C8B6E" stroke-width="0.5" x1="9.833" y1="24.333" x2="48.001" y2="24.333"/>
				<line fill="none" stroke="#8C8B6E" stroke-width="0.5" x1="87.165" y1="9.833" x2="125.333" y2="9.833"/>
				<line fill="none" stroke="#8C8B6E" stroke-width="0.5" x1="87.165" y1="14.667" x2="125.333" y2="14.667"/>
				<line fill="none" stroke="#8C8B6E" stroke-width="0.5" x1="87.165" y1="19.5" x2="125.333" y2="19.5"/>
				<line fill="none" stroke="#8C8B6E" stroke-width="0.5" x1="87.165" y1="24.333" x2="125.333" y2="24.333"/>
				<line fill="none" stroke="#8C8B6E" stroke-width="0.5" x1="9.833" y1="29.167" x2="125.333" y2="29.167"/>
				<line fill="none" stroke="#8C8B6E" stroke-width="0.5" x1="9.833" y1="34" x2="125.333" y2="34"/>
			</g>
			<line fill="none" stroke="#8C8B6E" stroke-width="0.5" x1="9.833" y1="0" x2="9.834" y2="39.334"/>
			<line fill="none" stroke="#8C8B6E" stroke-width="0.5" x1="125.332" y1="0" x2="125.333" y2="39.334"/>
		</g>
	</g>
</g>
</svg>
