<?xml version="1.0" encoding="utf-8"?>
<!-- Generator: Adobe Illustrator 15.0.0, SVG Export Plug-In . SVG Version: 6.00 Build 0)  -->
<!DOCTYPE svg PUBLIC "-//W3C//DTD SVG 1.0//EN" "http://www.w3.org/TR/2001/REC-SVG-20010904/DTD/svg10.dtd">
<svg version="1.0" id="_x33_7" xmlns="http://www.w3.org/2000/svg" xmlns:xlink="http://www.w3.org/1999/xlink" x="0px" y="0px"
	 width="127.501px" height="88.75px" viewBox="0 0 127.501 88.75" enable-background="new 0 0 127.501 88.75" xml:space="preserve">
<g>
	<g>
		<linearGradient id="SVGID_1_" gradientUnits="userSpaceOnUse" x1="202.5874" y1="174.2891" x2="-70.3986" y2="-98.697">
			<stop  offset="0" style="stop-color:#8C8B6E"/>
			<stop  offset="1" style="stop-color:#E8E6DF"/>
		</linearGradient>
		<rect x="11.07" y="0.25" fill="url(#SVGID_1_)" stroke="#8C8B6E" stroke-width="0.5" width="101.622" height="66.667"/>
		<linearGradient id="SVGID_2_" gradientUnits="userSpaceOnUse" x1="17" y1="77.8335" x2="107.9643" y2="77.8335">
			<stop  offset="0" style="stop-color:#8C8B6E"/>
			<stop  offset="0.5" style="stop-color:#B9B8A2"/>
			<stop  offset="0.9451" style="stop-color:#8C8B6E"/>
		</linearGradient>
		<polygon fill="url(#SVGID_2_)" points="99.334,66.917 24,66.917 17,88.75 106.334,88.75 		"/>
		<linearGradient id="SVGID_3_" gradientUnits="userSpaceOnUse" x1="5.5352" y1="-10.9424" x2="5.5352" y2="76.508">
			<stop  offset="0" style="stop-color:#8C8B6E"/>
			<stop  offset="0.25" style="stop-color:#B9B8A2"/>
			<stop  offset="0.5" style="stop-color:#E8E6DF"/>
			<stop  offset="0.75" style="stop-color:#B9B8A2"/>
			<stop  offset="0.9451" style="stop-color:#8C8B6E"/>
		</linearGradient>
		<path fill="url(#SVGID_3_)" d="M0,31.484v4.462C0,52.631,7.783,63.56,11.07,67.017V0.413C7.783,3.869,0,14.799,0,31.484z"/>
		
			<linearGradient id="SVGID_4_" gradientUnits="userSpaceOnUse" x1="1906.624" y1="-10.9424" x2="1906.624" y2="76.508" gradientTransform="matrix(-1 0 0 1 2024.8516 0)">
			<stop  offset="0" style="stop-color:#8C8B6E"/>
			<stop  offset="0.25" style="stop-color:#B9B8A2"/>
			<stop  offset="0.5" style="stop-color:#E8E6DF"/>
			<stop  offset="0.75" style="stop-color:#B9B8A2"/>
			<stop  offset="0.9451" style="stop-color:#8C8B6E"/>
		</linearGradient>
		<path fill="url(#SVGID_4_)" d="M123.763,31.484v4.462c0,16.686-7.783,27.614-11.07,31.071V0.413
			C115.979,3.869,123.763,14.799,123.763,31.484z"/>
		<line fill="none" stroke="#1A1A1A" x1="123.763" y1="33.667" x2="127.501" y2="33.667"/>
		<line fill="none" stroke="#1A1A1A" x1="127.167" y1="30.167" x2="127.167" y2="37.167"/>
	</g>
</g>
</svg>
