<svg xmlns="http://www.w3.org/2000/svg" viewBox="0 0 1341.85 974.3"><defs><style>.cls-1{fill:#4a7fc1;}.cls-2{fill:#bfc0c0;}.cls-3{fill:#909090;}.cls-4{fill:#efec64;}.cls-5{fill:#fff57a;}.cls-6{fill:#9dd7e6;}.cls-7{fill:#d3d3d4;}.cls-8{fill:#f4f4f4;}.cls-9{fill:#848484;}.cls-10{fill:#325988;}.cls-11{fill:#cc9a12;}.cls-12{fill:#dfb700;}.cls-13{fill:#fffeee;}.cls-14{fill:#7f7e77;}.cls-15{fill:#fffcd3;opacity:0.52;}.cls-16{fill:#4573ad;}.cls-17{fill:none;stroke:#cc9a12;stroke-miterlimit:10;stroke-width:5px;stroke-dasharray:12;}</style></defs><title>changku02</title><g id="图层_1" data-name="图层 1"><rect class="cls-1" x="32.9" y="35.43" width="620.4" height="938.87"/><rect class="cls-1" x="653.3" y="445.82" width="688.55" height="528.48"/><rect class="cls-2" x="693.25" y="546.2" width="599.25" height="428.1"/><rect class="cls-3" x="693.25" y="546.2" width="528.75" height="369.05"/><rect class="cls-4" x="674.48" y="342.48" width="636.82" height="221.43"/><rect class="cls-5" x="674.48" y="342.48" width="589.82" height="188.95"/><rect class="cls-6" x="136.3" y="563.91" width="406.55" height="410.39"/><rect class="cls-6" x="65.8" y="280.48" width="230.3" height="209.62"/><rect class="cls-6" x="370.14" y="280.48" width="230.3" height="209.62"/><rect class="cls-7" x="136.3" y="563.91" width="406.55" height="20.67"/><rect class="cls-7" x="524.05" y="584.58" width="18.8" height="389.72"/><rect class="cls-7" x="136.3" y="584.58" width="16.45" height="389.72"/><rect class="cls-8" x="331.94" y="584.58" width="15.27" height="389.72"/><rect class="cls-9" x="296.1" y="739.58" width="18.8" height="79.72"/><rect class="cls-9" x="360.74" y="739.58" width="18.8" height="79.72"/><rect class="cls-8" x="169.2" y="280.48" width="23.5" height="209.62"/><rect class="cls-8" x="474.7" y="280.48" width="23.5" height="209.62"/><rect class="cls-10" width="693.25" height="35.43"/><rect class="cls-11" x="693.25" y="779.44" width="121.02" height="152.05"/><rect class="cls-12" x="700.07" y="789.03" width="87.73" height="98.41"/><rect class="cls-13" x="753.76" y="803.8" width="55.19" height="34.44"/><rect class="cls-14" x="758.56" y="811.34" width="2.61" height="20.67"/><rect class="cls-14" x="765.09" y="811.34" width="1.04" height="20.67"/><rect class="cls-14" x="767.96" y="811.34" width="1.04" height="20.67"/><rect class="cls-14" x="770.18" y="811.34" width="1.04" height="20.67"/><rect class="cls-14" x="772.63" y="811.34" width="2.61" height="20.67"/><rect class="cls-14" x="779.27" y="811.34" width="2.61" height="20.67"/><rect class="cls-14" x="783.36" y="811.34" width="1.04" height="20.67"/><rect class="cls-14" x="788.85" y="811.34" width="1.04" height="20.67"/><rect class="cls-14" x="791.2" y="811.34" width="1.04" height="20.67"/><rect class="cls-14" x="795.46" y="811.34" width="2.61" height="20.67"/><rect class="cls-14" x="800.34" y="811.34" width="1.04" height="20.67"/><rect class="cls-14" x="805.04" y="811.34" width="1.04" height="20.67"/><rect class="cls-15" x="743.94" y="779.44" width="14.62" height="36.17"/><rect class="cls-11" x="693.25" y="625.56" width="121.02" height="152.05"/><rect class="cls-12" x="700.07" y="635.16" width="87.73" height="98.41"/><rect class="cls-13" x="753.76" y="649.92" width="55.19" height="34.44"/><rect class="cls-14" x="758.56" y="657.47" width="2.61" height="20.67"/><rect class="cls-14" x="765.09" y="657.47" width="1.04" height="20.67"/><rect class="cls-14" x="767.96" y="657.47" width="1.04" height="20.67"/><rect class="cls-14" x="772.63" y="657.47" width="2.61" height="20.67"/><rect class="cls-14" x="779.27" y="657.47" width="2.61" height="20.67"/><rect class="cls-14" x="783.36" y="657.47" width="1.04" height="20.67"/><rect class="cls-14" x="791.2" y="657.47" width="1.04" height="20.67"/><rect class="cls-14" x="795.46" y="657.47" width="2.61" height="20.67"/><rect class="cls-14" x="800.34" y="657.47" width="1.04" height="20.67"/><rect class="cls-14" x="805.04" y="657.47" width="1.04" height="20.67"/><rect class="cls-15" x="743.94" y="625.56" width="14.62" height="36.17"/><rect class="cls-11" x="815.04" y="779.44" width="121.02" height="152.05"/><rect class="cls-12" x="821.86" y="789.03" width="87.73" height="98.41"/><rect class="cls-13" x="875.55" y="803.8" width="55.19" height="34.44"/><rect class="cls-14" x="880.35" y="811.34" width="2.61" height="20.67"/><rect class="cls-14" x="886.88" y="811.34" width="1.04" height="20.67"/><rect class="cls-14" x="889.75" y="811.34" width="1.04" height="20.67"/><rect class="cls-14" x="894.43" y="811.34" width="2.61" height="20.67"/><rect class="cls-14" x="901.06" y="811.34" width="2.61" height="20.67"/><rect class="cls-14" x="905.16" y="811.34" width="1.04" height="20.67"/><rect class="cls-14" x="912.99" y="811.34" width="1.04" height="20.67"/><rect class="cls-14" x="917.25" y="811.34" width="2.61" height="20.67"/><rect class="cls-14" x="922.13" y="811.34" width="1.04" height="20.67"/><rect class="cls-14" x="926.83" y="811.34" width="1.04" height="20.67"/><rect class="cls-15" x="865.73" y="779.44" width="14.62" height="36.17"/><rect class="cls-11" x="937.06" y="779.44" width="121.02" height="152.05"/><rect class="cls-12" x="943.88" y="789.03" width="87.73" height="98.41"/><rect class="cls-13" x="997.57" y="803.8" width="55.19" height="34.44"/><rect class="cls-14" x="1002.37" y="811.34" width="2.61" height="20.67"/><rect class="cls-14" x="1008.9" y="811.34" width="1.04" height="20.67"/><rect class="cls-14" x="1011.77" y="811.34" width="1.04" height="20.67"/><rect class="cls-14" x="1016.45" y="811.34" width="2.61" height="20.67"/><rect class="cls-14" x="1023.08" y="811.34" width="2.61" height="20.67"/><rect class="cls-14" x="1027.18" y="811.34" width="1.04" height="20.67"/><rect class="cls-14" x="1035.01" y="811.34" width="1.04" height="20.67"/><rect class="cls-14" x="1039.27" y="811.34" width="2.61" height="20.67"/><rect class="cls-14" x="1044.15" y="811.34" width="1.04" height="20.67"/><rect class="cls-14" x="1048.85" y="811.34" width="1.04" height="20.67"/><rect class="cls-15" x="987.75" y="779.44" width="14.62" height="36.17"/><rect class="cls-11" x="1168.34" y="779.44" width="121.02" height="152.05"/><rect class="cls-12" x="1175.16" y="789.03" width="87.73" height="98.41"/><rect class="cls-13" x="1228.85" y="803.8" width="55.19" height="34.44"/><rect class="cls-14" x="1233.65" y="811.34" width="2.61" height="20.67"/><rect class="cls-14" x="1240.18" y="811.34" width="1.04" height="20.67"/><rect class="cls-14" x="1243.05" y="811.34" width="1.04" height="20.67"/><rect class="cls-14" x="1247.73" y="811.34" width="2.61" height="20.67"/><rect class="cls-14" x="1254.36" y="811.34" width="2.61" height="20.67"/><rect class="cls-14" x="1258.46" y="811.34" width="1.04" height="20.67"/><rect class="cls-14" x="1266.29" y="811.34" width="1.04" height="20.67"/><rect class="cls-14" x="1270.55" y="811.34" width="2.61" height="20.67"/><rect class="cls-14" x="1275.43" y="811.34" width="1.04" height="20.67"/><rect class="cls-14" x="1280.13" y="811.34" width="1.04" height="20.67"/><rect class="cls-15" x="1219.03" y="779.44" width="14.62" height="36.17"/><rect class="cls-16" x="32.9" y="59.79" width="620.4" height="26.57"/><rect class="cls-16" x="32.9" y="125.72" width="620.4" height="25.59"/><rect class="cls-16" x="32.9" y="192.65" width="620.4" height="27.56"/><rect class="cls-16" x="32.9" y="280.48" width="34.24" height="28.29"/><rect class="cls-16" x="296.1" y="280.48" width="74.04" height="28.29"/><rect class="cls-16" x="600.44" y="280.48" width="52.86" height="28.29"/><rect class="cls-16" x="32.9" y="385.29" width="32.67" height="27.8"/><rect class="cls-16" x="296.1" y="385.29" width="74.04" height="27.8"/><rect class="cls-16" x="600.44" y="385.29" width="52.86" height="27.8"/><rect class="cls-16" x="32.9" y="490.1" width="641.58" height="29.28"/><rect class="cls-16" x="32.9" y="604.02" width="103.4" height="31.14"/><rect class="cls-16" x="542.85" y="604.02" width="150.4" height="31.14"/><rect class="cls-16" x="32.9" y="684.37" width="103.4" height="46.36"/><rect class="cls-16" x="542.85" y="678.13" width="150.4" height="52.59"/><rect class="cls-16" x="32.9" y="797.52" width="103.4" height="40.72"/><rect class="cls-16" x="542.85" y="777.61" width="150.4" height="44.06"/><rect class="cls-16" x="1292.5" y="604.02" width="49.35" height="31.14"/><rect class="cls-16" x="1292.5" y="684.37" width="49.35" height="46.36"/><rect class="cls-16" x="1292.5" y="779.44" width="49.35" height="52.57"/><rect class="cls-17" x="693.25" y="369.79" width="596.12" height="176.41"/></g></svg>