<?xml version="1.0" encoding="utf-8"?>
<!-- Generator: Adobe Illustrator 16.0.0, SVG Export Plug-In . SVG Version: 6.00 Build 0)  -->
<!DOCTYPE svg PUBLIC "-//W3C//DTD SVG 1.1//EN" "http://www.w3.org/Graphics/SVG/1.1/DTD/svg11.dtd">
<svg preserveAspectRatio="none" version="1.1" id="图层_1" xmlns="http://www.w3.org/2000/svg" xmlns:xlink="http://www.w3.org/1999/xlink" x="0px" y="0px"
	 width="2903.813px" height="1294.754px" viewBox="29.73 28.875 2903.813 1294.754"
	 enable-background="new 29.73 28.875 2903.813 1294.754" xml:space="preserve">
<g id="surface1011">
	<path fill="#50BEC1" stroke="#50BEC1" stroke-linejoin="bevel" stroke-miterlimit="10" d="M2231.723,1076.945h-999.75
		c0,0-7.5-0.434-7.5-1.816v-72.434h1007.25V1076.945z"/>
	
		<linearGradient id="SVGID_1_" gradientUnits="userSpaceOnUse" x1="-159.0122" y1="1461.9121" x2="-159.0122" y2="1203.9121" gradientTransform="matrix(0.75 0 0 -0.75 2630.4512 2011.5693)">
		<stop  offset="0" style="stop-color:#292525"/>
		<stop  offset="0.01" style="stop-color:#868584"/>
		<stop  offset="0.02" style="stop-color:#383433"/>
		<stop  offset="0.64" style="stop-color:#373332"/>
		<stop  offset="0.99" style="stop-color:#363130"/>
		<stop  offset="1" style="stop-color:#252221"/>
	</linearGradient>
	<path fill="url(#SVGID_1_)" d="M2321.066,915.137h380.25v193.5h-380.25V915.137z"/>
	<path fill="#3D3B3B" d="M60.816,935.891h2067v75.75h-2067V935.891z"/>
	<path fill="#3E3938" d="M170.051,949.477h741.75v193.5h-741.75V949.477z"/>
	<path fill="#45A7AA" stroke="#45A7AA" stroke-linejoin="bevel" stroke-miterlimit="10" d="M2206.879,150.266
		c0,0,245.879-64.289,484.152-0.078c0.348,0.078,192.852,168.984,242.012,394.652l-0.164,509.926c0,0-5.484,22.133-37.488,22.133
		l-190.512,0.367c0,0-29.828-153.504-196.938-156.18c-0.313,0.18-157.789-0.656-188.672,156.613l-111.641,1.066l-0.75-447V150.266z"
		/>
	<path fill="#50BEC1" stroke="#50BEC1" stroke-linejoin="bevel" stroke-miterlimit="10" d="M2128.332,944.375h-2079
		c0,0-16.5-6.461-16.5-23.508V33.875l2095.5-4.5V944.375z"/>
	<path fill="#50BEC1" stroke="#50BEC1" stroke-linejoin="bevel" stroke-miterlimit="10" d="M2219.172,169.742
		c0,0,222.371-70.5,464.824,0.234c0.176-0.234,184.973,162.09,231.848,378.547l0.078,86.969h-696.75V169.742z"/>
	<path d="M2318.629,199.656h335.25l165,272.25v86.25h-502.5L2318.629,199.656z"/>
	<path fill="#E8F4ED" d="M2334.051,214h306.75l153,249.75l1.5,81l-463.5,1.5L2334.051,214z"/>
	<path fill="#45A7AA" stroke="#45A7AA" stroke-linejoin="bevel" stroke-miterlimit="10" d="M2745.945,892.82v181.5l-41.25,2.25
		c0,0-29.66-152.805-196.762-155.48c0.262,0.23-157.789-0.656-188.668,157.297l-16.57-1.816v-184.5L2745.945,892.82z"/>
	<path fill="#50BEC1" stroke="#50BEC1" stroke-linejoin="bevel" stroke-miterlimit="10" d="M2916.66,636.637v398.25
		c0,0-4.953,20.777-35.648,20.777l-161.602,0.223c0,0-26.699-150.957-211.219-157.102c-0.281,0.352-175.934,4.223-205.547,155.766
		l-81.234,0.586l-1.5-420L2916.66,636.637z"/>
	<path fill="#45A7AA" stroke="#45A7AA" stroke-linejoin="bevel" stroke-miterlimit="10" d="M2206.762,1054.5h118.5l-0.75,23.25
		l-117,0.75L2206.762,1054.5z"/>
	<path fill="#45A7AA" stroke="#45A7AA" stroke-linejoin="bevel" stroke-miterlimit="10" d="M2698.625,1054.602
		c0,0,6.402,19.871,6.402,22.297l199.098,0.203c0,0,22.73-4.691,28.531-22.164L2698.625,1054.602z"/>
	
		<linearGradient id="SVGID_2_" gradientUnits="userSpaceOnUse" x1="50.9888" y1="1461.916" x2="50.9887" y2="280.916" gradientTransform="matrix(0.75 0 0 -0.75 2530.9502 1266.4707)">
		<stop  offset="0" style="stop-color:#FFFFFF;stop-opacity:0.149"/>
		<stop  offset="1" style="stop-color:#FFFFFF;stop-opacity:0.0235"/>
	</linearGradient>
	<path fill="url(#SVGID_2_)" d="M2679.816,170.035c0,0,182.703,146.566,235.98,378.484l1.02,486.266c0,0-1.105,12.871-21.504,18.039
		l-171.996,2.961c0,0-42.938-154.324-210.043-157.004c0.043,0.254-179.82-2.184-210.703,156.66l-81.004,0.344v-46.5
		L2679.816,170.035z"/>
	<path fill="#FFFFFF" fill-opacity="0.8039" d="M2648.633,228.141l144.75,235.5l1.5,81l-319.5-2.25L2648.633,228.141z"/>
	<path stroke="#000000" stroke-linejoin="bevel" stroke-miterlimit="10" d="M2816.855,591.148c0-10.5,8.77-19.5,19.586-19.5
		c11.164,0,19.586,8.707,19.586,19.453c-0.172,10.547-8.77,19.453-19.586,19.453c-10.586,0.094-19.586-8.711-19.586-19.453V591.148z
		"/>
	<path fill="#AEAEAE" d="M2820.723,591.234c0-9,7.039-15.75,15.727-15.75c9.023,0,15.723,6.992,15.723,15.617
		c0.051,8.383-7.039,15.617-15.723,15.617c-8.977,0.266-15.727-6.992-15.727-15.617V591.234z"/>
	<path fill="#767676" d="M2829.777,511.75h10.5v84.75c0,0,0.012,3.559-4.523,3.559c-4.477,0.191-5.977-3.328-5.977-3.328V511.75z"/>
	<path d="M2811.852,445.199h30.75c2.25,0,3.672,2.746,3.672,6.129l0.078,85.371c0,3-1.777,5.801-3.844,5.801l-30.656,0.199
		c-2.25,0-3.801-2.984-3.801-6.367l0.051-85.133c0-3,1.621-6,3.688-6H2811.852z"/>
	<path fill="#606060" d="M2811.883,445.148h8.25v97.5h-8.25c-2.25,0-3.801-2.922-3.801-6.305l0.051-85.195c0-3,1.621-6,3.688-6
		H2811.883z"/>
	<path fill="#DCDCDD" d="M30.797,78.148h48v830.25h-48V78.148z"/>
	<path fill="#DCDCDD" d="M2080.695,78.848h48v830.25h-48V78.848z"/>
	<path fill="#DCDCDD" d="M2130.48,944.461H46.23c0,0-16.5-6.523-16.5-23.563v-12.438h2100.75V944.461z"/>
	<path fill="#DCDCDD" d="M2130.48,79.652H46.23c0,0-16.5-0.574-16.5-1.504V29.402h2100.75V79.652z"/>
	<path fill="#45A7AA" stroke="#45A7AA" stroke-linejoin="bevel" stroke-miterlimit="10" d="M2219.715,635.449h696v-18.75h-696
		V635.449z"/>
	<path fill="#45A7AA" stroke="#45A7AA" stroke-linejoin="bevel" stroke-miterlimit="10" d="M1734.047,903.434V83.684
		c0-2.25,2.145-3.879,4.793-3.879l22.957,0.129c3,0,4.793,1.441,4.793,3.379l-0.293,820.121c0,2.25-1.875,3.75-4.523,3.75h-23.227
		c-2.25,0-4.5-1.57-4.5-3.504V903.434z"/>
	<path fill="#45A7AA" stroke="#45A7AA" stroke-linejoin="bevel" stroke-miterlimit="10" d="M1814.23,903.434V83.684
		c0-2.25,2.148-3.879,4.797-3.879l22.953,0.129c3,0,4.793,1.441,4.793,3.379l-0.293,820.121c0,2.25-1.875,3.75-4.523,3.75h-23.227
		c-2.25,0-4.5-1.57-4.5-3.504V903.434z"/>
	<path fill="#45A7AA" stroke="#45A7AA" stroke-linejoin="bevel" stroke-miterlimit="10" d="M1894.133,903.434V83.684
		c0-2.25,2.145-3.879,4.793-3.879l22.957,0.129c3,0,4.793,1.441,4.793,3.379l-0.293,820.121c0,2.25-1.875,3.75-4.523,3.75h-23.227
		c-2.25,0-4.5-1.57-4.5-3.504V903.434z"/>
	<path fill="#45A7AA" stroke="#45A7AA" stroke-linejoin="bevel" stroke-miterlimit="10" d="M1358.758,903.434V83.684
		c0-2.25,2.148-3.879,4.797-3.879l22.953,0.129c3,0,4.793,1.441,4.793,3.379l-0.293,820.121c0,2.25-1.871,3.75-4.52,3.75h-23.23
		c-2.25,0-4.5-1.57-4.5-3.504V903.434z"/>
	<path fill="#45A7AA" stroke="#45A7AA" stroke-linejoin="bevel" stroke-miterlimit="10" d="M1438.945,903.434V83.684
		c0-2.25,2.145-3.879,4.793-3.879l22.957,0.129c3,0,4.789,1.441,4.789,3.379l-0.289,820.121c0,2.25-1.875,3.75-4.523,3.75h-23.227
		c-2.25,0-4.5-1.57-4.5-3.504V903.434z"/>
	<path fill="#45A7AA" stroke="#45A7AA" stroke-linejoin="bevel" stroke-miterlimit="10" d="M1518.844,903.434V83.684
		c0-2.25,2.148-3.879,4.797-3.879l22.953,0.129c3,0,4.793,1.441,4.793,3.379l-0.293,820.121c0,2.25-1.871,3.75-4.52,3.75h-23.23
		c-2.25,0-4.5-1.57-4.5-3.504V903.434z"/>
	<path fill="#45A7AA" stroke="#45A7AA" stroke-linejoin="bevel" stroke-miterlimit="10" d="M983.516,903.434V83.684
		c0-2.25,2.148-3.879,4.797-3.879l22.953,0.129c3,0,4.793,1.441,4.793,3.379l-0.293,820.121c0,2.25-1.875,3.75-4.52,3.75h-23.23
		c-2.25,0-4.5-1.57-4.5-3.504V903.434z"/>
	<path fill="#45A7AA" stroke="#45A7AA" stroke-linejoin="bevel" stroke-miterlimit="10" d="M1063.699,903.434V83.684
		c0-2.25,2.148-3.879,4.797-3.879l22.953,0.129c3,0,4.793,1.441,4.793,3.379l-0.293,820.121c0,2.25-1.871,3.75-4.52,3.75h-23.23
		c-2.25,0-4.5-1.57-4.5-3.504V903.434z"/>
	<path fill="#45A7AA" stroke="#45A7AA" stroke-linejoin="bevel" stroke-miterlimit="10" d="M1143.602,903.434V83.684
		c0-2.25,2.148-3.879,4.797-3.879l22.953,0.129c3,0,4.793,1.441,4.793,3.379l-0.293,820.121c0,2.25-1.871,3.75-4.52,3.75h-23.23
		c-2.25,0-4.5-1.57-4.5-3.504V903.434z"/>
	<path fill="#45A7AA" stroke="#45A7AA" stroke-linejoin="bevel" stroke-miterlimit="10" d="M608.188,903.434V83.684
		c0-2.25,2.148-3.879,4.793-3.879l22.957,0.129c3,0,4.793,1.441,4.793,3.379l-0.293,820.121c0,2.25-1.875,3.75-4.523,3.75h-23.227
		c-2.25,0-4.5-1.57-4.5-3.504V903.434z"/>
	<path fill="#45A7AA" stroke="#45A7AA" stroke-linejoin="bevel" stroke-miterlimit="10" d="M688.371,903.434V83.684
		c0-2.25,2.148-3.879,4.797-3.879l22.953,0.129c3,0,4.793,1.441,4.793,3.379l-0.293,820.121c0,2.25-1.875,3.75-4.523,3.75h-23.227
		c-2.25,0-4.5-1.57-4.5-3.504V903.434z"/>
	<path fill="#45A7AA" stroke="#45A7AA" stroke-linejoin="bevel" stroke-miterlimit="10" d="M768.273,903.434V83.684
		c0-2.25,2.148-3.879,4.793-3.879l22.957,0.129c3,0,4.793,1.441,4.793,3.379l-0.293,820.121c0,2.25-1.875,3.75-4.523,3.75h-23.227
		c-2.25,0-4.5-1.57-4.5-3.504V903.434z"/>
	<path fill="#45A7AA" stroke="#45A7AA" stroke-linejoin="bevel" stroke-miterlimit="10" d="M232.906,903.434V83.684
		c0-2.25,2.145-3.879,4.793-3.879l22.957,0.129c3,0,4.789,1.441,4.789,3.379l-0.289,820.121c0,2.25-1.875,3.75-4.523,3.75h-23.227
		c-2.25,0-4.5-1.57-4.5-3.504V903.434z"/>
	<path fill="#45A7AA" stroke="#45A7AA" stroke-linejoin="bevel" stroke-miterlimit="10" d="M313.09,903.434V83.684
		c0-2.25,2.145-3.879,4.793-3.879l22.957,0.129c3,0,4.793,1.441,4.793,3.379l-0.293,820.121c0,2.25-1.875,3.75-4.523,3.75H317.59
		c-2.25,0-4.5-1.57-4.5-3.504V903.434z"/>
	<path fill="#45A7AA" stroke="#45A7AA" stroke-linejoin="bevel" stroke-miterlimit="10" d="M392.992,903.434V83.684
		c0-2.25,2.145-3.879,4.793-3.879l22.957,0.129c3,0,4.789,1.441,4.789,3.379l-0.289,820.121c0,2.25-1.875,3.75-4.523,3.75h-23.227
		c-2.25,0-4.5-1.57-4.5-3.504V903.434z"/>
	<path fill="#3E3938" d="M169.984,1136.598c0-103.5,82.777-187.5,185.117-187.5c102.133,0,185.305,83.844,185.305,187.266
		c0.078,103.734-82.965,187.266-185.305,187.266c-102.617-0.281-185.301-83.84-185.301-187.266L169.984,1136.598z"/>
	<path fill="#888889" d="M233.887,1136.582c0-68.25,54.328-123.75,121.789-123.75c67.211,0,122.152,55.309,122.152,123.531
		c-0.191,68.469-54.688,123.535-122.152,123.535c-67.789-0.316-122.148-55.309-122.148-123.535L233.887,1136.582z"/>
	<path fill="#C8C8C8" d="M242.098,1136.637c0-63.75,50.727-115.5,113.652-115.5c62.598,0,113.938,51.59,113.938,115.227
		c-0.34,63.273-51.012,115.227-113.938,115.227c-62.652-0.203-113.938-51.586-113.938-115.227L242.098,1136.637z"/>
	<path fill="#404040" d="M300.828,1136.031c0-30.75,24.965-55.5,55.457-55.5c30.793,0,55.207,24.996,55.207,55.832
		c0.336,31.168-24.715,55.836-55.207,55.836c-30.707,0.082-55.207-25-55.207-55.836L300.828,1136.031z"/>
	<path fill="#595757" stroke="#595757" stroke-linejoin="bevel" stroke-miterlimit="10" d="M318.055,1136.195
		c0-21.75,16.988-39,38.379-39c21.621,0,38.73,17.539,38.73,39.168c0.141,21.582-17.34,39.168-38.73,39.168
		c-21.129-0.336-38.73-17.535-38.73-39.168L318.055,1136.195z"/>
	<path fill="#3E3938" d="M294.371,1063.566c0-11.25,9.414-21,21.203-21c11.797,0,21.344,9.402,21.344,21
		c0.203,11.25-9.555,20.996-21.344,20.996c-11.453,0.004-21.348-9.402-21.348-20.996H294.371z"/>
	<path fill="#3E3938" d="M329.633,1225.941c0-11.25,9.414-21,21.203-21c11.797,0,21.348,9.402,21.348,20.996
		c0.199,11.254-9.559,20.996-21.348,20.996c-11.453,0.008-21.344-9.398-21.344-20.996L329.633,1225.941z"/>
	<path fill="#3E3938" d="M251.273,1158.172c0-11.25,9.414-21,21.203-21c11.797,0,21.348,9.402,21.348,20.996
		c0.199,11.254-9.559,21-21.348,21c-11.453,0.004-21.344-9.402-21.344-21L251.273,1158.172z"/>
	<path fill="#3E3938" d="M399.098,1079.836c0-11.25,9.414-21,21.203-21c11.797,0,21.344,9.402,21.344,20.996
		c0.203,11.254-9.559,20.996-21.344,20.996c-11.453,0.008-21.348-9.398-21.348-20.996L399.098,1079.836z"/>
	<path fill="#3E3938" d="M411.996,1174.836c0-11.25,9.418-21,21.203-21c11.797,0,21.348,9.402,21.348,20.996
		c0.199,11.254-9.559,21-21.348,21c-11.453,0.004-21.344-9.402-21.344-21L411.996,1174.836z"/>
	<path fill="#3E3938" d="M544.383,1132.586c0-103.5,82.777-187.5,185.117-187.5c102.133,0,185.301,83.844,185.301,187.266
		c0.082,103.734-82.961,187.266-185.301,187.266c-102.617-0.281-185.305-83.84-185.305-187.266L544.383,1132.586z"/>
	<path fill="#888889" d="M608.285,1132.57c0-68.25,54.328-123.75,121.789-123.75c67.211,0,122.152,55.309,122.152,123.531
		c-0.191,68.469-54.691,123.535-122.152,123.535c-67.789-0.316-122.148-55.309-122.148-123.535L608.285,1132.57z"/>
	<path fill="#C8C8C8" d="M616.496,1132.625c0-63.75,50.727-115.5,113.652-115.5c62.598,0,113.938,51.59,113.938,115.227
		c-0.34,63.273-51.012,115.227-113.938,115.227c-62.652-0.203-113.938-51.586-113.938-115.227L616.496,1132.625z"/>
	<path fill="#404040" d="M675.227,1132.02c0-30.75,24.965-55.5,55.457-55.5c30.793,0,55.207,24.996,55.207,55.832
		c0.336,31.168-24.719,55.836-55.207,55.836c-30.707,0.082-55.207-25-55.207-55.836L675.227,1132.02z"/>
	<path fill="#595757" stroke="#595757" stroke-linejoin="bevel" stroke-miterlimit="10" d="M692.453,1132.184
		c0-21.75,16.988-39,38.379-39c21.621,0,38.73,17.535,38.73,39.168c0.141,21.582-17.34,39.168-38.73,39.168
		c-21.129-0.336-38.73-17.535-38.73-39.168L692.453,1132.184z"/>
	<path fill="#3E3938" d="M668.766,1059.555c0-11.25,9.418-21,21.203-21c11.797,0,21.348,9.402,21.348,21
		c0.199,11.25-9.559,20.996-21.348,20.996c-11.453,0.004-21.344-9.402-21.344-20.996H668.766z"/>
	<path fill="#3E3938" d="M704.031,1221.93c0-11.25,9.414-21,21.203-21c11.797,0,21.344,9.398,21.344,20.996
		c0.203,11.254-9.555,20.996-21.344,20.996c-11.453,0.008-21.344-9.398-21.344-20.996L704.031,1221.93z"/>
	<path fill="#3E3938" d="M625.672,1154.16c0-11.25,9.414-21,21.203-21c11.797,0,21.344,9.398,21.344,20.996
		c0.203,11.254-9.555,20.996-21.344,20.996c-11.453,0.008-21.344-9.398-21.344-20.996L625.672,1154.16z"/>
	<path fill="#3E3938" d="M773.492,1075.824c0-11.25,9.418-21,21.203-21c11.797,0,21.348,9.398,21.348,20.996
		c0.199,11.254-9.559,20.996-21.348,20.996c-11.453,0.008-21.344-9.398-21.344-20.996L773.492,1075.824z"/>
	<path fill="#3E3938" d="M786.395,1170.824c0-11.25,9.414-21,21.203-21c11.797,0,21.348,9.402,21.348,20.996
		c0.199,11.254-9.559,21-21.348,21c-11.453,0.004-21.344-9.402-21.344-21L786.395,1170.824z"/>
	<path fill="#3E3938" d="M2328.004,1127.309c0-103.5,82.777-187.5,185.117-187.5c102.133,0,185.301,83.84,185.301,187.262
		c0.082,103.738-82.961,187.266-185.301,187.266c-102.617-0.277-185.305-83.84-185.305-187.266L2328.004,1127.309z"/>
	<path fill="#888889" d="M2391.906,1127.289c0-68.25,54.328-123.75,121.789-123.75c67.211,0,122.152,55.309,122.152,123.531
		c-0.191,68.469-54.691,123.535-122.152,123.535c-67.789-0.316-122.152-55.309-122.152-123.535L2391.906,1127.289z"/>
	<path fill="#C8C8C8" d="M2400.117,1127.348c0-63.75,50.727-115.5,113.652-115.5c62.598,0,113.938,51.586,113.938,115.223
		c-0.34,63.277-51.012,115.227-113.938,115.227c-62.652-0.199-113.938-51.586-113.938-115.227L2400.117,1127.348z"/>
	<path fill="#404040" d="M2458.848,1126.738c0-30.75,24.965-55.5,55.457-55.5c30.793,0,55.207,25,55.207,55.832
		c0.336,31.168-24.719,55.836-55.207,55.836c-30.707,0.082-55.211-25-55.211-55.836L2458.848,1126.738z"/>
	<path fill="#595757" stroke="#595757" stroke-linejoin="bevel" stroke-miterlimit="10" d="M2476.074,1126.902
		c0-21.75,16.988-39,38.379-39c21.621,0,38.73,17.539,38.73,39.168c0.141,21.582-17.34,39.172-38.73,39.172
		c-21.129-0.34-38.73-17.539-38.73-39.172L2476.074,1126.902z"/>
	<path fill="#3E3938" d="M2452.387,1054.277c0-11.25,9.418-21,21.203-21c11.797,0,21.348,9.398,21.348,20.996
		c0.199,11.254-9.559,20.996-21.348,20.996c-11.453,0.008-21.344-9.402-21.344-20.996L2452.387,1054.277z"/>
	<path fill="#3E3938" d="M2487.652,1216.648c0-11.25,9.414-21,21.203-21c11.797,0,21.344,9.402,21.344,20.996
		c0.203,11.254-9.555,21-21.344,21c-11.453,0.004-21.348-9.402-21.348-21L2487.652,1216.648z"/>
	<path fill="#3E3938" d="M2409.293,1148.879c0-11.25,9.414-21,21.203-21c11.797,0,21.344,9.402,21.344,20.996
		c0.203,11.254-9.555,21-21.344,21c-11.453,0.004-21.348-9.402-21.348-21L2409.293,1148.879z"/>
	<path fill="#3E3938" d="M2557.113,1070.543c0-11.25,9.414-21,21.203-21c11.797,0,21.348,9.402,21.348,20.996
		c0.199,11.254-9.559,21-21.348,21c-11.453,0.004-21.344-9.402-21.344-21L2557.113,1070.543z"/>
	<path fill="#3E3938" d="M2570.016,1165.543c0-11.25,9.414-21,21.203-21c11.797,0,21.344,9.402,21.344,20.996
		c0.203,11.254-9.555,21-21.344,21c-11.453,0.004-21.344-9.402-21.344-21L2570.016,1165.543z"/>
</g>
</svg>
