<svg id="图层_1" data-name="图层 1" xmlns="http://www.w3.org/2000/svg" xmlns:xlink="http://www.w3.org/1999/xlink" viewBox="0 0 2835.65 1694.15"><defs><style>.cls-1{fill:url(#未命名的渐变_5);}.cls-2{fill:url(#未命名的渐变_35);}.cls-3{fill:url(#未命名的渐变_25);}.cls-4{fill:url(#未命名的渐变_20);}.cls-5{fill:url(#未命名的渐变_18);}.cls-6{fill:url(#未命名的渐变_22);}.cls-7{fill:url(#未命名的渐变_417);}.cls-8{fill:url(#未命名的渐变_420);}.cls-9{fill:url(#未命名的渐变_413);}.cls-10{fill:url(#未命名的渐变_432);}.cls-11{fill:url(#未命名的渐变_411);}.cls-12{fill:url(#未命名的渐变_407);}.cls-13{fill:url(#未命名的渐变_426);}.cls-14{fill:url(#未命名的渐变_426-2);}.cls-15{fill:url(#未命名的渐变_413-2);}.cls-16{fill:url(#未命名的渐变_426-3);}.cls-17,.cls-18{opacity:0.43;}.cls-17{fill:url(#未命名的渐变_426-4);}.cls-18{fill:url(#未命名的渐变_426-5);}.cls-19{fill:url(#未命名的渐变_426-6);}.cls-20{fill:url(#未命名的渐变_172);}.cls-21{fill:url(#未命名的渐变_367);}.cls-22{fill:url(#未命名的渐变_369);}.cls-23{fill:url(#未命名的渐变_371);}.cls-24{fill:url(#未命名的渐变_373);}.cls-25{fill:url(#未命名的渐变_377);}.cls-26{fill:url(#未命名的渐变_381);}.cls-27{fill:url(#未命名的渐变_383);}.cls-28{fill:url(#未命名的渐变_385);}.cls-29{fill:url(#未命名的渐变_388);}.cls-30{fill:url(#未命名的渐变_381-2);}.cls-31{fill:url(#未命名的渐变_383-2);}.cls-32{fill:url(#未命名的渐变_385-3);}.cls-33{fill:url(#未命名的渐变_388-2);}.cls-34{fill:url(#未命名的渐变_381-3);}.cls-35{fill:url(#未命名的渐变_383-3);}.cls-36{fill:url(#未命名的渐变_385-5);}.cls-37{fill:url(#未命名的渐变_388-3);}.cls-38{fill:url(#未命名的渐变_381-4);}.cls-39{fill:url(#未命名的渐变_383-4);}.cls-40{fill:url(#未命名的渐变_385-7);}.cls-41{fill:url(#未命名的渐变_388-4);}.cls-42{fill:url(#未命名的渐变_381-5);}.cls-43{fill:url(#未命名的渐变_383-5);}.cls-44{fill:url(#未命名的渐变_385-9);}.cls-45{fill:url(#未命名的渐变_388-5);}.cls-46{fill:url(#未命名的渐变_381-6);}.cls-47{fill:url(#未命名的渐变_383-6);}.cls-48{fill:url(#未命名的渐变_385-11);}.cls-49{fill:url(#未命名的渐变_388-6);}.cls-50{fill:url(#未命名的渐变_25-2);}.cls-51{fill:url(#未命名的渐变_20-2);}.cls-52{fill:url(#未命名的渐变_18-2);}.cls-53{fill:url(#未命名的渐变_22-2);}.cls-54{fill:url(#未命名的渐变_149);}.cls-55{fill:url(#未命名的渐变_149-2);}.cls-56{fill:url(#未命名的渐变_163);}.cls-57{fill:url(#未命名的渐变_142);}.cls-110,.cls-58{opacity:0.53;}.cls-58{fill:url(#未命名的渐变_157);}.cls-59{fill:url(#未命名的渐变_159);}.cls-60{fill:url(#未命名的渐变_142-2);}.cls-61{fill:url(#未命名的渐变_153);}.cls-62{fill:url(#未命名的渐变_159-2);}.cls-63{fill:url(#未命名的渐变_456);}.cls-64{fill:url(#未命名的渐变_456-2);}.cls-65{fill:url(#未命名的渐变_456-3);}.cls-66{fill:url(#未命名的渐变_442);}.cls-67,.cls-69{opacity:0.61;}.cls-67{fill:url(#未命名的渐变_456-4);}.cls-68{fill:url(#未命名的渐变_442-2);}.cls-69{fill:url(#未命名的渐变_456-5);}.cls-70{fill:url(#未命名的渐变_451);}.cls-71{fill:url(#未命名的渐变_440);}.cls-72{fill:url(#未命名的渐变_442-3);}.cls-73{fill:url(#未命名的渐变_442-4);}.cls-74{fill:url(#未命名的渐变_442-5);}.cls-75{fill:url(#未命名的渐变_454);}.cls-76{fill:url(#未命名的渐变_407-2);}.cls-77{fill:url(#未命名的渐变_6);}.cls-78{fill:url(#未命名的渐变_2);}.cls-79{fill:#fffaf8;}.cls-80{fill:url(#未命名的渐变_25-3);}.cls-81{fill:url(#未命名的渐变_20-3);}.cls-82{fill:url(#未命名的渐变_18-3);}.cls-83{fill:url(#未命名的渐变_22-3);}.cls-84{fill:url(#未命名的渐变_32);}.cls-85{fill:#f9a600;}.cls-86{fill:#e6bd8b;}.cls-87{fill:#fec65f;}.cls-88{fill:#f6d8a5;}.cls-89{fill:url(#未命名的渐变_21);}.cls-90{fill:url(#未命名的渐变_31);}.cls-91{fill:url(#未命名的渐变_3);}.cls-92{fill:url(#未命名的渐变_33);}.cls-93{fill:url(#未命名的渐变_21-2);}.cls-94{fill:url(#未命名的渐变_31-2);}.cls-95{fill:url(#未命名的渐变_3-2);}.cls-96{fill:url(#未命名的渐变_33-2);}.cls-97{fill:url(#未命名的渐变_21-3);}.cls-98{fill:url(#未命名的渐变_31-3);}.cls-99{fill:url(#未命名的渐变_3-3);}.cls-100{fill:url(#未命名的渐变_33-3);}.cls-101{fill:url(#未命名的渐变_25-4);}.cls-102{fill:url(#未命名的渐变_20-4);}.cls-103{fill:url(#未命名的渐变_18-4);}.cls-104{fill:url(#未命名的渐变_22-4);}.cls-105{fill:url(#未命名的渐变_21-4);}.cls-106{fill:url(#未命名的渐变_31-4);}.cls-107{fill:url(#未命名的渐变_3-4);}.cls-108{fill:url(#未命名的渐变_33-4);}.cls-109{fill:url(#未命名的渐变_142-3);}.cls-110{fill:url(#未命名的渐变_157-2);}.cls-111{fill:url(#未命名的渐变_159-3);}.cls-112{fill:url(#未命名的渐变_142-4);}.cls-113{fill:url(#未命名的渐变_153-2);}.cls-114{fill:url(#未命名的渐变_159-4);}.cls-115{fill:url(#未命名的渐变_21-5);}.cls-116{fill:url(#未命名的渐变_31-5);}.cls-117{fill:url(#未命名的渐变_3-5);}.cls-118{fill:url(#未命名的渐变_33-5);}.cls-119{fill:url(#未命名的渐变_101);}.cls-120{fill:url(#未命名的渐变_106);}.cls-121{fill:url(#未命名的渐变_99);}.cls-122{fill:url(#未命名的渐变_109);}.cls-123{fill:url(#未命名的渐变_111);}.cls-124{fill:url(#未命名的渐变_101-2);}.cls-125{fill:url(#未命名的渐变_106-2);}.cls-126{fill:url(#未命名的渐变_99-2);}.cls-127{fill:url(#未命名的渐变_109-2);}.cls-128{fill:url(#未命名的渐变_111-2);}.cls-129{fill:url(#未命名的渐变_101-3);}.cls-130{fill:url(#未命名的渐变_106-3);}.cls-131{fill:url(#未命名的渐变_99-3);}.cls-132{fill:url(#未命名的渐变_109-3);}.cls-133{fill:url(#未命名的渐变_111-3);}.cls-134{fill:url(#未命名的渐变_25-5);}.cls-135{fill:url(#未命名的渐变_20-5);}.cls-136{fill:url(#未命名的渐变_18-5);}.cls-137{fill:url(#未命名的渐变_22-5);}.cls-138{fill:#ac5a32;}.cls-139{fill:#8a4119;}.cls-140{fill:#ffa760;}.cls-141{fill:#f58a5e;}.cls-142{fill:#e57148;}.cls-143{fill:#e56445;}.cls-144{fill:#fcbc80;}.cls-145{fill:#e67048;}.cls-146{fill:#f89752;}.cls-147{fill:#fbbc7f;}.cls-148{fill:url(#未命名的渐变_5-2);}.cls-149{fill:url(#未命名的渐变_18-6);}.cls-150,.cls-153,.cls-156,.cls-159{opacity:0.39;}.cls-150{fill:url(#未命名的渐变_18-7);}.cls-151{fill:url(#未命名的渐变_5-3);}.cls-152{fill:url(#未命名的渐变_18-8);}.cls-153{fill:url(#未命名的渐变_18-9);}.cls-154{fill:url(#未命名的渐变_5-4);}.cls-155{fill:url(#未命名的渐变_18-10);}.cls-156{fill:url(#未命名的渐变_18-11);}.cls-157{fill:url(#未命名的渐变_5-5);}.cls-158{fill:url(#未命名的渐变_18-12);}.cls-159{fill:url(#未命名的渐变_18-13);}</style><linearGradient id="未命名的渐变_5" x1="2432.83" y1="2173.11" x2="2432.83" y2="3266.96" gradientUnits="userSpaceOnUse"><stop offset="0" stop-color="#be1b14"/><stop offset="1" stop-color="#f15925"/></linearGradient><linearGradient id="未命名的渐变_35" x1="81.28" y1="417.69" x2="2761.17" y2="417.69" gradientUnits="userSpaceOnUse"><stop offset="0" stop-color="#f16125"/><stop offset="1" stop-color="#f13925"/></linearGradient><linearGradient id="未命名的渐变_25" x1="1828.47" y1="1860.43" x2="2286.57" y2="1860.43" gradientUnits="userSpaceOnUse"><stop offset="0" stop-color="#ccc"/><stop offset="1" stop-color="#b3b3b3"/></linearGradient><linearGradient id="未命名的渐变_20" x1="1746.12" y1="1810.21" x2="2356.48" y2="1810.21" gradientUnits="userSpaceOnUse"><stop offset="0" stop-color="#ccc"/><stop offset="1" stop-color="#e6e6e6"/></linearGradient><linearGradient id="未命名的渐变_18" x1="727" y1="180.63" x2="1344.66" y2="180.63" gradientUnits="userSpaceOnUse"><stop offset="0" stop-color="#fff"/><stop offset="1" stop-color="#e6e6e6"/></linearGradient><linearGradient id="未命名的渐变_22" x1="755.82" y1="177.54" x2="1315.84" y2="177.54" gradientUnits="userSpaceOnUse"><stop offset="0" stop-color="#ccc"/><stop offset="1" stop-color="#ccc"/></linearGradient><linearGradient id="未命名的渐变_417" x1="1958.95" y1="1463.39" x2="2023.62" y2="1463.39" gradientTransform="translate(371.61 35.03) rotate(6.66)" gradientUnits="userSpaceOnUse"><stop offset="0" stop-color="#f3f4ff"/><stop offset="1" stop-color="#d8e2f7"/></linearGradient><linearGradient id="未命名的渐变_420" x1="1968.25" y1="1483.41" x2="2023.62" y2="1483.41" gradientTransform="translate(371.61 35.03) rotate(6.66)" gradientUnits="userSpaceOnUse"><stop offset="0" stop-color="#a7b8e5"/><stop offset="1" stop-color="#d8e2f7"/></linearGradient><linearGradient id="未命名的渐变_413" x1="1756.6" y1="1476.31" x2="1983.13" y2="1476.31" gradientTransform="translate(371.61 35.03) rotate(6.66)" gradientUnits="userSpaceOnUse"><stop offset="0" stop-color="#9d031a"/><stop offset="1" stop-color="#ef4931"/></linearGradient><linearGradient id="未命名的渐变_432" x1="1881.87" y1="1407.21" x2="1829.54" y2="1639.79" gradientTransform="translate(371.61 35.03) rotate(6.66)" gradientUnits="userSpaceOnUse"><stop offset="0" stop-color="#b80316"/><stop offset="1" stop-color="#b10018"/></linearGradient><linearGradient id="未命名的渐变_411" x1="1630.99" y1="1479.39" x2="1812.52" y2="1479.39" gradientTransform="translate(371.61 35.03) rotate(6.66)" gradientUnits="userSpaceOnUse"><stop offset="0" stop-color="#f89379"/><stop offset="1" stop-color="#ef4931"/></linearGradient><linearGradient id="未命名的渐变_407" x1="1636.33" y1="1479.39" x2="1807.18" y2="1479.39" gradientTransform="translate(371.61 35.03) rotate(6.66)" gradientUnits="userSpaceOnUse"><stop offset="0" stop-color="#f37054"/><stop offset="1" stop-color="#c80013"/></linearGradient><linearGradient id="未命名的渐变_426" x1="1728.79" y1="1474.42" x2="1697.4" y2="1613.91" gradientTransform="translate(371.61 35.03) rotate(6.66)" gradientUnits="userSpaceOnUse"><stop offset="0" stop-color="#eb5039"/><stop offset="1" stop-color="#f78971"/></linearGradient><linearGradient id="未命名的渐变_426-2" x1="1750.29" y1="1433.78" x2="1735.73" y2="1498.5" xlink:href="#未命名的渐变_426"/><linearGradient id="未命名的渐变_413-2" x1="1746.99" y1="1444.3" x2="1737.94" y2="1484.51" xlink:href="#未命名的渐变_413"/><linearGradient id="未命名的渐变_426-3" x1="1766.26" y1="1372.88" x2="1744.61" y2="1469.07" xlink:href="#未命名的渐变_426"/><linearGradient id="未命名的渐变_426-4" x1="1877.68" y1="1404.94" x2="1869.22" y2="1442.56" xlink:href="#未命名的渐变_426"/><linearGradient id="未命名的渐变_426-5" x1="1953.15" y1="1450.96" x2="1949.26" y2="1468.25" xlink:href="#未命名的渐变_426"/><linearGradient id="未命名的渐变_426-6" x1="1722.26" y1="1470.48" x2="1698.67" y2="1575.36" xlink:href="#未命名的渐变_426"/><linearGradient id="未命名的渐变_172" x1="2290.53" y1="2188.89" x2="2550.1" y2="2188.89" gradientTransform="translate(-793.72 385.51) rotate(-17.15)" gradientUnits="userSpaceOnUse"><stop offset="0" stop-color="#7fac22"/><stop offset="1" stop-color="#6a9217"/></linearGradient><linearGradient id="未命名的渐变_367" x1="2303.48" y1="2188.89" x2="2537.14" y2="2188.89" gradientTransform="translate(-793.72 385.51) rotate(-17.15)" gradientUnits="userSpaceOnUse"><stop offset="0" stop-color="#a3c72f"/><stop offset="1" stop-color="#6a9217"/></linearGradient><linearGradient id="未命名的渐变_369" x1="2333" y1="2189.61" x2="2530.96" y2="2189.61" gradientTransform="translate(-793.72 385.51) rotate(-17.15)" gradientUnits="userSpaceOnUse"><stop offset="0" stop-color="#c1db44"/><stop offset="1" stop-color="#6a9217"/></linearGradient><linearGradient id="未命名的渐变_371" x1="1416.78" y1="2674.01" x2="1458.34" y2="2674.01" gradientTransform="translate(688.65 -922.56)" gradientUnits="userSpaceOnUse"><stop offset="0" stop-color="#c1db44"/><stop offset="1" stop-color="#c1db44"/></linearGradient><linearGradient id="未命名的渐变_373" x1="1305.1" y1="2823.7" x2="1346.66" y2="2823.7" gradientTransform="translate(5011.75 424.43) rotate(90)" gradientUnits="userSpaceOnUse"><stop offset="0" stop-color="#c1db44"/><stop offset="1" stop-color="#80a422"/></linearGradient><linearGradient id="未命名的渐变_377" x1="1077.51" y1="3207.55" x2="1119.06" y2="3207.55" gradientTransform="translate(5450.56 665.39) rotate(90)" gradientUnits="userSpaceOnUse"><stop offset="0" stop-color="#c1db44"/><stop offset="1" stop-color="#6b9317"/></linearGradient><linearGradient id="未命名的渐变_381" x1="1011.97" y1="182.51" x2="1063.37" y2="182.51" gradientUnits="userSpaceOnUse"><stop offset="0" stop-color="#f4cf89"/><stop offset="1" stop-color="#f4cf89"/></linearGradient><linearGradient id="未命名的渐变_383" x1="2026.97" y1="1770.22" x2="2078.37" y2="1770.22" gradientUnits="userSpaceOnUse"><stop offset="0" stop-color="#f1bb65"/><stop offset="1" stop-color="#f4cf89"/></linearGradient><linearGradient id="未命名的渐变_385" x1="2032.9" y1="1756.14" x2="2069.2" y2="1756.14" gradientUnits="userSpaceOnUse"><stop offset="0" stop-color="#f8e0b4"/><stop offset="1" stop-color="#f4cf89"/></linearGradient><linearGradient id="未命名的渐变_388" x1="2041.24" y1="1756.14" x2="2060.87" y2="1756.14" gradientUnits="userSpaceOnUse"><stop offset="0" stop-color="#f8e0b4"/><stop offset="1" stop-color="#fcf0da"/></linearGradient><linearGradient id="未命名的渐变_381-2" x1="1088.4" y1="202.57" x2="1139.8" y2="202.57" xlink:href="#未命名的渐变_381"/><linearGradient id="未命名的渐变_383-2" x1="2103.4" y1="1790.28" x2="2154.8" y2="1790.28" xlink:href="#未命名的渐变_383"/><linearGradient id="未命名的渐变_385-3" x1="2109.33" y1="1776.2" x2="2145.64" y2="1776.2" xlink:href="#未命名的渐变_385"/><linearGradient id="未命名的渐变_388-2" x1="2117.67" y1="1776.2" x2="2137.3" y2="1776.2" xlink:href="#未命名的渐变_388"/><linearGradient id="未命名的渐变_381-3" x1="1866.81" y1="1636.12" x2="1918.21" y2="1636.12" gradientTransform="translate(3730.92 -116.57) rotate(90)" xlink:href="#未命名的渐变_381"/><linearGradient id="未命名的渐变_383-3" x1="1866.81" y1="1641.83" x2="1918.21" y2="1641.83" gradientTransform="matrix(0.97, 0.23, -0.23, 0.97, 622.45, -246.6)" xlink:href="#未命名的渐变_383"/><linearGradient id="未命名的渐变_385-5" x1="1872.74" y1="1627.75" x2="1909.05" y2="1627.75" gradientTransform="matrix(0.97, 0.23, -0.23, 0.97, 622.45, -246.6)" xlink:href="#未命名的渐变_385"/><linearGradient id="未命名的渐变_388-3" x1="1881.08" y1="1627.75" x2="1900.71" y2="1627.75" gradientTransform="matrix(0.97, 0.23, -0.23, 0.97, 622.45, -246.6)" xlink:href="#未命名的渐变_388"/><linearGradient id="未命名的渐变_381-4" x1="1980.04" y1="1613.99" x2="2031.44" y2="1613.99" gradientTransform="translate(3824.09 -225.68) rotate(90)" xlink:href="#未命名的渐变_381"/><linearGradient id="未命名的渐变_383-4" x1="1980.04" y1="1619.7" x2="2031.44" y2="1619.7" gradientTransform="matrix(0.97, 0.23, -0.23, 0.97, 622.45, -246.6)" xlink:href="#未命名的渐变_383"/><linearGradient id="未命名的渐变_385-7" x1="1985.97" y1="1605.62" x2="2022.28" y2="1605.62" gradientTransform="matrix(0.97, 0.23, -0.23, 0.97, 622.45, -246.6)" xlink:href="#未命名的渐变_385"/><linearGradient id="未命名的渐变_388-4" x1="1994.31" y1="1605.62" x2="2013.94" y2="1605.62" gradientTransform="matrix(0.97, 0.23, -0.23, 0.97, 622.45, -246.6)" xlink:href="#未命名的渐变_388"/><linearGradient id="未命名的渐变_381-5" x1="2229.84" y1="1858.26" x2="2271.81" y2="1858.26" gradientTransform="translate(-85.42 -75.94)" xlink:href="#未命名的渐变_381"/><linearGradient id="未命名的渐变_383-5" x1="2229.84" y1="1862.92" x2="2271.81" y2="1862.92" gradientTransform="translate(-285.3 196.94) rotate(-6.64)" xlink:href="#未命名的渐变_383"/><linearGradient id="未命名的渐变_385-9" x1="2234.69" y1="1851.43" x2="2264.33" y2="1851.43" gradientTransform="translate(-285.3 196.94) rotate(-6.64)" xlink:href="#未命名的渐变_385"/><linearGradient id="未命名的渐变_388-5" x1="2241.49" y1="1851.43" x2="2257.52" y2="1851.43" gradientTransform="translate(-285.3 196.94) rotate(-6.64)" xlink:href="#未命名的渐变_388"/><linearGradient id="未命名的渐变_381-6" x1="1953.93" y1="1695.59" x2="1995.89" y2="1695.59" gradientTransform="translate(3762.01 -186.59) rotate(90)" xlink:href="#未命名的渐变_381"/><linearGradient id="未命名的渐变_383-6" x1="1953.93" y1="1700.25" x2="1995.89" y2="1700.25" gradientTransform="translate(277.93 -102.88) rotate(5.95)" xlink:href="#未命名的渐变_383"/><linearGradient id="未命名的渐变_385-11" x1="1958.77" y1="1688.76" x2="1988.41" y2="1688.76" gradientTransform="translate(277.93 -102.88) rotate(5.95)" xlink:href="#未命名的渐变_385"/><linearGradient id="未命名的渐变_388-6" x1="1965.58" y1="1688.76" x2="1981.6" y2="1688.76" gradientTransform="translate(277.93 -102.88) rotate(5.95)" xlink:href="#未命名的渐变_388"/><linearGradient id="未命名的渐变_25-2" x1="2121.96" y1="2085.13" x2="2540.26" y2="2085.13" xlink:href="#未命名的渐变_25"/><linearGradient id="未命名的渐变_20-2" x1="2046.76" y1="2039.27" x2="2604.1" y2="2039.27" xlink:href="#未命名的渐变_20"/><linearGradient id="未命名的渐变_18-2" x1="1028" y1="413.82" x2="1592" y2="413.82" xlink:href="#未命名的渐变_18"/><linearGradient id="未命名的渐变_22-2" x1="1054.32" y1="411" x2="1565.68" y2="411" xlink:href="#未命名的渐变_22"/><linearGradient id="未命名的渐变_149" x1="118.48" y1="505.28" x2="144.75" y2="568.53" gradientTransform="translate(2950.21 1590.48) rotate(62.88)" gradientUnits="userSpaceOnUse"><stop offset="0" stop-color="#98cc2a"/><stop offset="1" stop-color="#c5eb74"/></linearGradient><linearGradient id="未命名的渐变_149-2" x1="43.94" y1="503.86" x2="73.05" y2="573.92" xlink:href="#未命名的渐变_149"/><linearGradient id="未命名的渐变_163" x1="44.47" y1="504.81" x2="122.93" y2="693.69" gradientTransform="translate(2950.21 1590.48) rotate(62.88)" gradientUnits="userSpaceOnUse"><stop offset="0" stop-color="#a6e574"/><stop offset="1" stop-color="#bdde76"/></linearGradient><linearGradient id="未命名的渐变_142" x1="91.51" y1="546.44" x2="161.8" y2="715.66" gradientTransform="translate(2950.21 1590.48) rotate(62.88)" gradientUnits="userSpaceOnUse"><stop offset="0" stop-color="#c8e6a8"/><stop offset="1" stop-color="#7aa531"/></linearGradient><linearGradient id="未命名的渐变_157" x1="157.12" y1="606.74" x2="200.78" y2="711.85" gradientTransform="translate(2950.21 1590.48) rotate(62.88)" gradientUnits="userSpaceOnUse"><stop offset="0" stop-color="#98be5f"/><stop offset="1" stop-color="#b6d761"/></linearGradient><linearGradient id="未命名的渐变_159" x1="-3159.73" y1="546.25" x2="-3136.95" y2="697.3" gradientTransform="matrix(-0.46, -0.89, -0.89, 0.46, 1571.42, -1101.98)" gradientUnits="userSpaceOnUse"><stop offset="0" stop-color="#98be5f"/><stop offset="1" stop-color="#e0f4c1"/></linearGradient><linearGradient id="未命名的渐变_142-2" x1="72.13" y1="480.09" x2="36.99" y2="687.06" xlink:href="#未命名的渐变_142"/><linearGradient id="未命名的渐变_153" x1="34.49" y1="494" x2="-0.16" y2="698.05" gradientTransform="translate(2950.21 1590.48) rotate(62.88)" gradientUnits="userSpaceOnUse"><stop offset="0" stop-color="#c8e6a8"/><stop offset="1" stop-color="#7ea837"/></linearGradient><linearGradient id="未命名的渐变_159-2" x1="36.23" y1="552.15" x2="59.01" y2="703.2" gradientTransform="translate(2950.21 1590.48) rotate(62.88)" xlink:href="#未命名的渐变_159"/><linearGradient id="未命名的渐变_456" x1="3806.42" y1="3508.04" x2="3790.45" y2="3544.62" gradientTransform="matrix(-1, -0.06, -0.06, 1, 6447.91, -1316.91)" gradientUnits="userSpaceOnUse"><stop offset="0" stop-color="#f28643"/><stop offset="1" stop-color="#fdd3c3"/></linearGradient><linearGradient id="未命名的渐变_456-2" x1="3706.44" y1="3532.08" x2="3645.75" y2="3671.08" xlink:href="#未命名的渐变_456"/><linearGradient id="未命名的渐变_456-3" x1="3830.78" y1="3582.95" x2="3798.35" y2="3657.23" xlink:href="#未命名的渐变_456"/><linearGradient id="未命名的渐变_442" x1="3935" y1="3582" x2="3899.76" y2="3662.7" gradientTransform="matrix(-1, -0.06, -0.06, 1, 6447.91, -1316.91)" gradientUnits="userSpaceOnUse"><stop offset="0" stop-color="#fbbb8c"/><stop offset="1" stop-color="#ea5500"/></linearGradient><linearGradient id="未命名的渐变_456-4" x1="3934.89" y1="3586.75" x2="3910.59" y2="3642.39" xlink:href="#未命名的渐变_456"/><linearGradient id="未命名的渐变_442-2" x1="3893.69" y1="3408.92" x2="3906.29" y2="3534.88" xlink:href="#未命名的渐变_442"/><linearGradient id="未命名的渐变_456-5" x1="3921.55" y1="3440.25" x2="3888.01" y2="3517.05" xlink:href="#未命名的渐变_456"/><linearGradient id="未命名的渐变_451" x1="3948.19" y1="3453.89" x2="3966.33" y2="3635.29" gradientTransform="matrix(-1, -0.06, -0.06, 1, 6447.91, -1316.91)" gradientUnits="userSpaceOnUse"><stop offset="0" stop-color="#fbbb8c"/><stop offset="1" stop-color="#f9aa6d"/></linearGradient><linearGradient id="未命名的渐变_440" x1="3917.64" y1="3456.95" x2="3935.78" y2="3638.35" gradientTransform="matrix(-1, -0.06, -0.06, 1, 6447.91, -1316.91)" gradientUnits="userSpaceOnUse"><stop offset="0" stop-color="#fbbb8c"/><stop offset="1" stop-color="#f47e1f"/></linearGradient><linearGradient id="未命名的渐变_442-3" x1="4085.97" y1="3493.89" x2="4096.45" y2="3598.72" xlink:href="#未命名的渐变_442"/><linearGradient id="未命名的渐变_442-4" x1="3958.14" y1="3463.05" x2="3969.08" y2="3572.4" xlink:href="#未命名的渐变_442"/><linearGradient id="未命名的渐变_442-5" x1="3921.01" y1="3517.66" x2="3924.8" y2="3555.54" xlink:href="#未命名的渐变_442"/><linearGradient id="未命名的渐变_454" x1="3954.58" y1="3548.79" x2="3956.76" y2="3570.59" gradientTransform="matrix(-1, -0.06, -0.06, 1, 6447.91, -1316.91)" gradientUnits="userSpaceOnUse"><stop offset="0" stop-color="#fbbb8c"/><stop offset="1" stop-color="#fdd3c3"/></linearGradient><linearGradient id="未命名的渐变_407-2" x1="4109.3" y1="3542.85" x2="4097.2" y2="3570.58" gradientTransform="matrix(-1, -0.06, -0.06, 1, 5432.91, -2898.91)" xlink:href="#未命名的渐变_407"/><linearGradient id="未命名的渐变_6" x1="4109.14" y1="3543.22" x2="4099.79" y2="3564.65" gradientTransform="matrix(-1, -0.06, -0.06, 1, 5432.91, -2898.91)" gradientUnits="userSpaceOnUse"><stop offset="0" stop-color="#f2f2f2"/><stop offset="1" stop-color="#bc8e5b"/></linearGradient><linearGradient id="未命名的渐变_2" x1="4108.92" y1="3543.74" x2="4103.41" y2="3556.34" gradientTransform="matrix(-1, -0.06, -0.06, 1, 5432.91, -2898.91)" gradientUnits="userSpaceOnUse"><stop offset="0" stop-color="#a35a05"/><stop offset="1" stop-color="#a33205"/></linearGradient><linearGradient id="未命名的渐变_25-3" x1="2831.96" y1="1894.13" x2="3250.26" y2="1894.13" xlink:href="#未命名的渐变_25"/><linearGradient id="未命名的渐变_20-3" x1="2756.76" y1="1848.27" x2="3314.1" y2="1848.27" xlink:href="#未命名的渐变_20"/><linearGradient id="未命名的渐变_18-3" x1="1738" y1="222.82" x2="2302" y2="222.82" xlink:href="#未命名的渐变_18"/><linearGradient id="未命名的渐变_22-3" x1="1764.32" y1="220" x2="2275.68" y2="220" xlink:href="#未命名的渐变_22"/><linearGradient id="未命名的渐变_32" x1="2772.33" y1="1713.09" x2="3196.62" y2="1713.09" gradientUnits="userSpaceOnUse"><stop offset="0" stop-color="#e86e00"/><stop offset="1" stop-color="#f88300"/></linearGradient><linearGradient id="未命名的渐变_21" x1="3104.5" y1="1782.5" x2="3185.79" y2="1782.5" gradientUnits="userSpaceOnUse"><stop offset="0" stop-color="#fbd6b3"/><stop offset="1" stop-color="#fbd6b3"/></linearGradient><linearGradient id="未命名的渐变_31" x1="3104.5" y1="1787.9" x2="3182.85" y2="1787.9" gradientUnits="userSpaceOnUse"><stop offset="0" stop-color="#f6cba1"/><stop offset="1" stop-color="#f6cba1"/></linearGradient><linearGradient id="未命名的渐变_3" x1="3104.5" y1="1793.44" x2="3182.37" y2="1793.44" gradientUnits="userSpaceOnUse"><stop offset="0" stop-color="#eec399"/><stop offset="1" stop-color="#fbd6b3"/></linearGradient><linearGradient id="未命名的渐变_33" x1="3159.8" y1="1749.36" x2="3176.93" y2="1779.62" gradientUnits="userSpaceOnUse"><stop offset="0" stop-color="#fee0c6"/><stop offset="1" stop-color="#f6cba1"/></linearGradient><linearGradient id="未命名的渐变_21-2" x1="3164.5" x2="3245.79" xlink:href="#未命名的渐变_21"/><linearGradient id="未命名的渐变_31-2" x1="3164.5" y1="1787.9" x2="3242.85" y2="1787.9" xlink:href="#未命名的渐变_31"/><linearGradient id="未命名的渐变_3-2" x1="3164.5" y1="1793.44" x2="3242.37" y2="1793.44" xlink:href="#未命名的渐变_3"/><linearGradient id="未命名的渐变_33-2" x1="3219.8" y1="1749.36" x2="3236.93" y2="1779.62" xlink:href="#未命名的渐变_33"/><linearGradient id="未命名的渐变_21-3" x1="3206.5" x2="3287.79" xlink:href="#未命名的渐变_21"/><linearGradient id="未命名的渐变_31-3" x1="3206.5" y1="1787.9" x2="3284.85" y2="1787.9" xlink:href="#未命名的渐变_31"/><linearGradient id="未命名的渐变_3-3" x1="3206.5" y1="1793.44" x2="3284.37" y2="1793.44" xlink:href="#未命名的渐变_3"/><linearGradient id="未命名的渐变_33-3" x1="3261.8" y1="1749.36" x2="3278.93" y2="1779.62" xlink:href="#未命名的渐变_33"/><linearGradient id="未命名的渐变_25-4" x1="1488.96" y1="2116.13" x2="1907.26" y2="2116.13" xlink:href="#未命名的渐变_25"/><linearGradient id="未命名的渐变_20-4" x1="1413.76" y1="2070.27" x2="1971.1" y2="2070.27" xlink:href="#未命名的渐变_20"/><linearGradient id="未命名的渐变_18-4" x1="395" y1="444.82" x2="959" y2="444.82" xlink:href="#未命名的渐变_18"/><linearGradient id="未命名的渐变_22-4" x1="421.32" y1="442" x2="932.68" y2="442" xlink:href="#未命名的渐变_22"/><linearGradient id="未命名的渐变_21-4" x1="1761.5" y1="2004.5" x2="1842.79" y2="2004.5" xlink:href="#未命名的渐变_21"/><linearGradient id="未命名的渐变_31-4" x1="1761.5" y1="2009.9" x2="1839.85" y2="2009.9" xlink:href="#未命名的渐变_31"/><linearGradient id="未命名的渐变_3-4" x1="1761.5" y1="2015.44" x2="1839.37" y2="2015.44" xlink:href="#未命名的渐变_3"/><linearGradient id="未命名的渐变_33-4" x1="1816.8" y1="1971.36" x2="1833.93" y2="2001.62" xlink:href="#未命名的渐变_33"/><linearGradient id="未命名的渐变_142-3" x1="332.15" y1="7286.81" x2="478.7" y2="7639.61" gradientTransform="translate(-5643.66 2975.02) rotate(-94.57)" xlink:href="#未命名的渐变_142"/><linearGradient id="未命名的渐变_157-2" x1="468.94" y1="7412.53" x2="559.97" y2="7631.68" gradientTransform="translate(-5643.66 2975.02) rotate(-94.57)" xlink:href="#未命名的渐变_157"/><linearGradient id="未命名的渐变_159-3" x1="-3447.31" y1="7286.41" x2="-3399.81" y2="7601.33" gradientTransform="matrix(0.08, 1, 1, -0.08, -5402.81, 5990.37)" xlink:href="#未命名的渐变_159"/><linearGradient id="未命名的渐变_142-4" x1="1324.95" y1="6285.97" x2="1259.08" y2="6673.91" gradientTransform="translate(-5076.22 1833.92) rotate(-77.6)" xlink:href="#未命名的渐变_142"/><linearGradient id="未命名的渐变_153-2" x1="1254.39" y1="6312.04" x2="1189.45" y2="6694.51" gradientTransform="translate(-5076.22 1833.92) rotate(-77.6)" xlink:href="#未命名的渐变_153"/><linearGradient id="未命名的渐变_159-4" x1="1257.65" y1="6421.05" x2="1300.36" y2="6704.17" gradientTransform="translate(-5076.22 1833.92) rotate(-77.6)" xlink:href="#未命名的渐变_159"/><linearGradient id="未命名的渐变_21-5" x1="1875.5" y1="2004.5" x2="1956.79" y2="2004.5" xlink:href="#未命名的渐变_21"/><linearGradient id="未命名的渐变_31-5" x1="1875.5" y1="2009.9" x2="1953.85" y2="2009.9" xlink:href="#未命名的渐变_31"/><linearGradient id="未命名的渐变_3-5" x1="1875.5" y1="2015.44" x2="1953.37" y2="2015.44" xlink:href="#未命名的渐变_3"/><linearGradient id="未命名的渐变_33-5" x1="1930.8" y1="1971.36" x2="1947.93" y2="2001.62" xlink:href="#未命名的渐变_33"/><linearGradient id="未命名的渐变_101" x1="1543.9" y1="25.97" x2="1543.9" y2="108.03" gradientUnits="userSpaceOnUse"><stop offset="0" stop-color="#d77744"/><stop offset="1" stop-color="#d24209"/></linearGradient><linearGradient id="未命名的渐变_106" x1="1544.74" y1="34.51" x2="1544.74" y2="92.67" gradientUnits="userSpaceOnUse"><stop offset="0" stop-color="#c14600"/><stop offset="1" stop-color="#8c4400"/></linearGradient><linearGradient id="未命名的渐变_99" x1="2559.19" y1="1647.51" x2="2559.19" y2="1796.76" gradientUnits="userSpaceOnUse"><stop offset="0" stop-color="#f09558"/><stop offset="1" stop-color="#d24209"/></linearGradient><linearGradient id="未命名的渐变_109" x1="2557.95" y1="1580.59" x2="2557.95" y2="1682.35" gradientUnits="userSpaceOnUse"><stop offset="0" stop-color="#f4f4f4"/><stop offset="1" stop-color="#f2f2f2"/></linearGradient><linearGradient id="未命名的渐变_111" x1="2560.17" y1="1616.24" x2="2560.17" y2="1680.48" gradientUnits="userSpaceOnUse"><stop offset="0" stop-color="#dedede"/><stop offset="1" stop-color="#f2f2f2"/></linearGradient><linearGradient id="未命名的渐变_101-2" x1="2539.9" y1="173.97" x2="2539.9" y2="256.03" xlink:href="#未命名的渐变_101"/><linearGradient id="未命名的渐变_106-2" x1="2540.74" y1="182.51" x2="2540.74" y2="240.67" xlink:href="#未命名的渐变_106"/><linearGradient id="未命名的渐变_99-2" x1="3555.19" y1="1795.51" x2="3555.19" y2="1944.76" xlink:href="#未命名的渐变_99"/><linearGradient id="未命名的渐变_109-2" x1="3553.95" y1="1728.59" x2="3553.95" y2="1830.35" xlink:href="#未命名的渐变_109"/><linearGradient id="未命名的渐变_111-2" x1="3556.17" y1="1764.24" x2="3556.17" y2="1828.48" xlink:href="#未命名的渐变_111"/><linearGradient id="未命名的渐变_101-3" x1="2266.9" y1="402.97" x2="2266.9" y2="485.03" xlink:href="#未命名的渐变_101"/><linearGradient id="未命名的渐变_106-3" x1="2267.74" y1="411.51" x2="2267.74" y2="469.67" xlink:href="#未命名的渐变_106"/><linearGradient id="未命名的渐变_99-3" x1="3282.19" y1="2024.51" x2="3282.19" y2="2173.76" xlink:href="#未命名的渐变_99"/><linearGradient id="未命名的渐变_109-3" x1="3280.95" y1="1957.59" x2="3280.95" y2="2059.35" xlink:href="#未命名的渐变_109"/><linearGradient id="未命名的渐变_111-3" x1="3283.17" y1="1993.24" x2="3283.17" y2="2057.48" xlink:href="#未命名的渐变_111"/><linearGradient id="未命名的渐变_25-5" x1="2641.96" y1="2191.13" x2="3060.26" y2="2191.13" xlink:href="#未命名的渐变_25"/><linearGradient id="未命名的渐变_20-5" x1="2566.76" y1="2145.27" x2="3124.1" y2="2145.27" xlink:href="#未命名的渐变_20"/><linearGradient id="未命名的渐变_18-5" x1="1548" y1="519.82" x2="2112" y2="519.82" xlink:href="#未命名的渐变_18"/><linearGradient id="未命名的渐变_22-5" x1="1574.32" y1="517" x2="2085.68" y2="517" xlink:href="#未命名的渐变_22"/><linearGradient id="未命名的渐变_5-2" x1="1272.89" y1="1919.42" x2="1408.29" y2="1919.42" xlink:href="#未命名的渐变_5"/><linearGradient id="未命名的渐变_18-6" x1="1268.87" y1="1953.13" x2="1409.86" y2="1953.13" xlink:href="#未命名的渐变_18"/><linearGradient id="未命名的渐变_18-7" x1="1271.61" y1="1892.03" x2="1403.03" y2="1892.03" xlink:href="#未命名的渐变_18"/><linearGradient id="未命名的渐变_5-3" x1="2610.89" y1="1772.42" x2="2746.29" y2="1772.42" xlink:href="#未命名的渐变_5"/><linearGradient id="未命名的渐变_18-8" x1="2606.87" y1="1806.13" x2="2747.86" y2="1806.13" xlink:href="#未命名的渐变_18"/><linearGradient id="未命名的渐变_18-9" x1="2609.61" y1="1745.03" x2="2741.03" y2="1745.03" xlink:href="#未命名的渐变_18"/><linearGradient id="未命名的渐变_5-4" x1="3459.89" y1="1907.42" x2="3595.29" y2="1907.42" xlink:href="#未命名的渐变_5"/><linearGradient id="未命名的渐变_18-10" x1="3455.87" y1="1941.13" x2="3596.86" y2="1941.13" xlink:href="#未命名的渐变_18"/><linearGradient id="未命名的渐变_18-11" x1="3458.61" y1="1880.03" x2="3590.03" y2="1880.03" xlink:href="#未命名的渐变_18"/><linearGradient id="未命名的渐变_5-5" x1="2067.89" y1="2024.42" x2="2203.29" y2="2024.42" xlink:href="#未命名的渐变_5"/><linearGradient id="未命名的渐变_18-12" x1="2063.87" y1="2058.13" x2="2204.86" y2="2058.13" xlink:href="#未命名的渐变_18"/><linearGradient id="未命名的渐变_18-13" x1="2066.61" y1="1997.03" x2="2198.03" y2="1997.03" xlink:href="#未命名的渐变_18"/></defs><title>czhuo</title><path class="cls-1" d="M1096.28,1999s-116.09,1046.2-70.79,1085.84,322.78,67.95,390.73,45.3,96.27-51,96.27-51,192.53,124.58,351.09,141.56,651.22-39.63,702.18-51S2854.56,3317,3041.43,3266s345.43-96.27,345.43-96.27,178.34,51.64,424.71,12.74c107.59-17-41.06-1190.59-41.06-1190.59Z" transform="translate(-1015 -1582)"/><ellipse class="cls-2" cx="1421.22" cy="417.69" rx="1339.95" ry="295.17"/><path class="cls-3" d="M1828.47,1847s26.77,24.71,57.65,26.77c17.82,1.18,128,5.78,220.3,6.17,67.74.29,125.67-3.24,131.77-4.11,14.41-2.06,48.38-35,48.38-35Z" transform="translate(-1015 -1582)"/><path class="cls-4" d="M1746.12,1770.86s55.59,65.89,96.77,84.42,378.83,16.47,407.65,8.23,137.95-98.82,96.77-107.06S1838.77,1746.16,1746.12,1770.86Z" transform="translate(-1015 -1582)"/><ellipse class="cls-5" cx="1035.83" cy="180.63" rx="308.83" ry="57.65"/><ellipse class="cls-6" cx="1035.83" cy="177.54" rx="280.01" ry="46.32"/><path class="cls-7" d="M2148.57,1708.38a33.12,33.12,0,0,0,28.65-4.85c14.05-10.06,24.15-26.44,31.77-11.51s-14.78,26.37-10.83,32.68,20.66,23.47,3.55,29.67-31.3-2.48-39.06-16.26A284.22,284.22,0,0,1,2148.57,1708.38Z" transform="translate(-1015 -1582)"/><path class="cls-8" d="M2184.05,1745.29c-21.4-7.18-27.59-24.29-27.59-24.29l.21,5.6c1.82,3.75,3.84,7.71,6,11.51,7.76,13.78,22,22.46,39.06,16.26,6.49-2.35,8.11-6.27,7.41-10.59C2202,1746.69,2193.18,1748.35,2184.05,1745.29Z" transform="translate(-1015 -1582)"/><path class="cls-9" d="M1959.52,1595.91s46.75,8.09,87,33.86,61.44,55.15,77.2,60.5,40.41,4.71,44.09,13.34,9.75,46.78-21.34,52.51-86.08,35.6-102.3,44.23-87,13.26-107,14.43S1990,1628.43,1959.52,1595.91Z" transform="translate(-1015 -1582)"/><path class="cls-10" d="M2124.15,1737.13c-15.42,1.71-28.39,2.53-64.87-15.77s-9.47-29.19-36.2-70.93c-15-23.36-38.35-27.91-56-27.38,1.46,62-46.58,192.71-29.84,191.73,20-1.17,90.79-5.79,107-14.43s71.2-38.5,102.3-44.23c9.17-1.69,15.11-6.21,18.83-12C2161,1732.63,2137.6,1735.63,2124.15,1737.13Z" transform="translate(-1015 -1582)"/><path class="cls-11" d="M1841.72,1705.92s27.31-4.9,36.2-22.51,13.59-52.51,22.74-67,35.44-31.92,59-20.47,45,56.85,43.85,87.81-9.45,43.66-12.22,51.42-9.09,40.6-13.42,45.69-13.64,37-57.22,37.47-77.5-7.18-85-12.41-25.8-34.72-22.35-53.59S1820.73,1715.28,1841.72,1705.92Z" transform="translate(-1015 -1582)"/><path class="cls-12" d="M1845.76,1705.81s25.7-4.61,34.07-21.19,12.79-49.41,21.4-63,33.35-30,55.5-19.27,42.32,53.51,41.26,82.64-8.89,41.1-11.5,48.4-8.55,38.21-12.62,43-12.84,34.78-53.86,35.26-72.94-6.76-80-11.68-24.27-32.67-21-50.43S1826,1714.62,1845.76,1705.81Z" transform="translate(-1015 -1582)"/><path class="cls-13" d="M1988.7,1728.05c-7.31-.55-15.12,2-17,1.81-3.46-.4-12.62,7.89-24.09,15.92s-14.32,12.37-27.63,6.14-13.51,5.44-26.4,15.64-16.84,3.89-23.64,1.92-12.5-13.16-24.61-29.79c-5.17-7.11-12.83-11.29-19.9-13.76-3.28,7.2-4.9,15.32-6.4,23.57-3.24,17.76,14,45.52,21,50.43s39,12.16,80,11.68,49.79-30.47,53.86-35.26,10-35.7,12.62-43C1987,1731.82,1987.81,1730.09,1988.7,1728.05Z" transform="translate(-1015 -1582)"/><path class="cls-14" d="M1914.28,1710.29a2.9,2.9,0,0,1-1.35.16c-4.32-.5-5.16-8-5.13-8.31a.91.91,0,0,1,.5-.74c19.84-10.13,21.57-40.19,31.5-39,11,1.28,15.52,20.42,14.23,31.49-1.43,12.26-10.59,23.25-24,21.69C1924.66,1714.91,1919.22,1712.61,1914.28,1710.29Z" transform="translate(-1015 -1582)"/><path class="cls-15" d="M1921,1702.08a1.77,1.77,0,0,1-.84.1c-2.69-.31-3.21-5-3.19-5.16a.53.53,0,0,1,.31-.46c12.33-6.29,13.4-25,19.57-24.26,6.81.8,9.64,12.69,8.84,19.57-.89,7.61-6.58,14.44-14.9,13.47A32.92,32.92,0,0,1,1921,1702.08Z" transform="translate(-1015 -1582)"/><path class="cls-16" d="M1887.24,1663.73c19.14-2.4,34.69-14.23,55.34-11.82,25.77,3,45.88,20.38,55.45,30.29a78,78,0,0,0-.66-9.21c-5.85-4-14.5-10.12-27.18-20.54-8.71-7.15-39.89-2.47-37.46-23.3,1.21-10.39,12-21.21,18.73-28.89a35,35,0,0,0-10.55-1.43c-20.87,21.22-19.6,60.6-52,58.66C1888.39,1659.59,1887.82,1661.68,1887.24,1663.73Z" transform="translate(-1015 -1582)"/><path class="cls-17" d="M2064.46,1667c-20.86-2.43-27.23-15.71-26.33-23.42.43-3.68,2.89-4.75,6.8-4.29,2.58.3,5.07,1.4,6.06,2.73,11.08,15,47.14,38.84,46.34,45.72-.12,1-2,2.11-3.56,1.92a2.34,2.34,0,0,1-1.45-.68C2083.63,1680.16,2072.88,1675,2064.46,1667Z" transform="translate(-1015 -1582)"/><path class="cls-18" d="M2128.73,1697.87c8.56,6.85,20.24,7,30.23,11.72l-.68,5.77c-.36,3.16-8,4.52-11.27,4.13-7.14-.83-23.27-13.58-22.85-17.15a2,2,0,0,1,.7-1.41Z" transform="translate(-1015 -1582)"/><path class="cls-19" d="M1881.72,1748.62c-14.21-4.51-18.72-28.7-36.16-42.72a41.22,41.22,0,0,0-10.68,6.85c23.6,26.85,37,59.66,35.1,95.48q3.24.51,6.75,1c1.54-18.73-4.08-36.86-3.76-55.74,28,10.57,53.24,28.25,66.46,55.27,1.32-.41,2.59-.86,3.8-1.35C1938.59,1779.3,1909.49,1757.44,1881.72,1748.62Z" transform="translate(-1015 -1582)"/><path class="cls-20" d="M2115.87,1768s-19.33,6-33.12,3.93-34.59-8.22-38.37-9.34-16.61-7.46-16.61-7.46l-3.5-5.79s23.4-2.07,27-1.47,55.71-16,63.18-17.78,48.56-5.83,60.42-2.62,64.58,12.69,72.63,16.5,34.46,13.4,43,18.78,13.31,7.91,12.71,11.53-19.47,9.54-28.35,12.28-32.2,1.35-45.79-1.9-52.68-11.21-60.76-13.29S2115.87,1768,2115.87,1768Z" transform="translate(-1015 -1582)"/><path class="cls-21" d="M2120.72,1767.54s-17.41,5.37-29.82,3.53-31.13-7.39-34.53-8.4-14.95-6.72-14.95-6.72l-3.16-5.21s21.06-1.86,24.32-1.32,50.15-14.45,56.88-16,43.71-5.25,54.39-2.36,58.13,11.42,65.37,14.86,31,12.06,38.7,16.9,12,7.12,11.45,10.38-17.53,8.58-25.53,11-29,1.22-41.22-1.7-47.42-10.1-54.69-12S2120.72,1767.54,2120.72,1767.54Z" transform="translate(-1015 -1582)"/><path class="cls-22" d="M2138.76,1764.16s-14.75,4.55-25.27,3-26.37-6.26-29.25-7.12-12.67-5.69-12.67-5.69l-2.67-4.41s17.84-1.58,20.6-1.12,42.49-12.24,48.19-13.57,37-4.44,46.08-2,49.25,9.68,55.39,12.59,26.28,10.22,32.78,14.32,10.16,6,9.7,8.79-14.85,7.28-21.62,9.37-24.56,1-34.93-1.44-40.17-8.56-46.33-10.15S2138.76,1764.16,2138.76,1764.16Z" transform="translate(-1015 -1582)"/><ellipse class="cls-23" cx="2126.22" cy="1751.46" rx="20.78" ry="9.11" transform="matrix(1, -0.02, 0.02, 1, -1057.92, -1528.56)"/><ellipse class="cls-24" cx="2188.05" cy="1750.3" rx="9.11" ry="20.78" transform="translate(-643.94 2301.3) rotate(-88.23)"/><ellipse class="cls-25" cx="2243.02" cy="1763.67" rx="9.11" ry="20.78" transform="translate(-827.89 2160.29) rotate(-82.08)"/><ellipse class="cls-26" cx="1037.67" cy="182.51" rx="25.7" ry="16.95"/><path class="cls-27" d="M2077,1759c0,.18,0,.36,0,.54,0,9.36-11.32,17-25.28,17-12,0-22.11-5.64-24.66-13.19a10.19,10.19,0,0,0-.07,1.24c0,9.36,11.5,17,25.7,17s25.7-7.59,25.7-17A12,12,0,0,0,2077,1759Z" transform="translate(-1015 -1582)"/><path class="cls-28" d="M2044.75,1761.17a48.65,48.65,0,0,1-7.53.65c-2.19,0-4.32.36-4.32-3.34,0-5.44,14.21-8.34,20-8.34,7.43,0,16.25,2.92,16.25,8.33,0,2.74-3,3.67-5.75,3.67-2.2,0-7.42-1.35-13.53-1.35A34.5,34.5,0,0,0,2044.75,1761.17Z" transform="translate(-1015 -1582)"/><path class="cls-28" d="M2044.75,1761.17a48.65,48.65,0,0,1-7.53.65c-2.19,0-4.32.36-4.32-3.34,0-5.44,14.21-8.34,20-8.34,7.43,0,16.25,2.92,16.25,8.33,0,2.74-3,3.67-5.75,3.67-2.2,0-7.42-1.35-13.53-1.35A34.5,34.5,0,0,0,2044.75,1761.17Z" transform="translate(-1015 -1582)"/><path class="cls-29" d="M2047.65,1758.86a26.52,26.52,0,0,1-4.07.35c-1.19,0-2.34.19-2.34-1.81,0-2.93,7.68-4.51,10.84-4.51,4,0,8.79,1.59,8.79,4.51,0,1.48-1.66,2-3.12,2-1.18,0-4-.73-7.31-.73A18.7,18.7,0,0,0,2047.65,1758.86Z" transform="translate(-1015 -1582)"/><ellipse class="cls-30" cx="1114.1" cy="202.57" rx="25.7" ry="16.95"/><path class="cls-31" d="M2153.4,1779c0,.17,0,.35,0,.53,0,9.36-11.32,17-25.28,17-12,0-22.11-5.64-24.66-13.19a10.19,10.19,0,0,0-.07,1.24c0,9.36,11.51,17,25.7,17s25.7-7.59,25.7-17A11.79,11.79,0,0,0,2153.4,1779Z" transform="translate(-1015 -1582)"/><path class="cls-32" d="M2121.18,1781.24a49.9,49.9,0,0,1-7.53.64c-2.19,0-4.32.36-4.32-3.34,0-5.43,14.21-8.34,20.05-8.34,7.43,0,16.26,2.92,16.26,8.33,0,2.74-3.06,3.68-5.76,3.68-2.2,0-7.41-1.35-13.53-1.35A33.23,33.23,0,0,0,2121.18,1781.24Z" transform="translate(-1015 -1582)"/><path class="cls-32" d="M2121.18,1781.24a49.9,49.9,0,0,1-7.53.64c-2.19,0-4.32.36-4.32-3.34,0-5.43,14.21-8.34,20.05-8.34,7.43,0,16.26,2.92,16.26,8.33,0,2.74-3.06,3.68-5.76,3.68-2.2,0-7.41-1.35-13.53-1.35A33.23,33.23,0,0,0,2121.18,1781.24Z" transform="translate(-1015 -1582)"/><path class="cls-33" d="M2124.08,1778.92a26.41,26.41,0,0,1-4.07.35c-1.19,0-2.34.19-2.34-1.81,0-2.93,7.68-4.5,10.84-4.5,4,0,8.79,1.58,8.79,4.5,0,1.48-1.65,2-3.11,2-1.19,0-4-.73-7.32-.73A18.7,18.7,0,0,0,2124.08,1778.92Z" transform="translate(-1015 -1582)"/><ellipse class="cls-34" cx="2094.81" cy="1775.94" rx="16.95" ry="25.7" transform="translate(-1124.77 1831.62) rotate(-76.9)"/><path class="cls-35" d="M2119.73,1776.06c0,.17-.07.35-.11.52-2.12,9.12-14.87,13.94-28.47,10.78-11.72-2.73-20.26-10.51-21-18.44-.13.39-.25.79-.35,1.2-2.12,9.11,7.37,19.11,21.19,22.33s26.76-1.57,28.88-10.68A11.87,11.87,0,0,0,2119.73,1776.06Z" transform="translate(-1015 -1582)"/><path class="cls-36" d="M2087.85,1770.9a49.75,49.75,0,0,1-7.48-1.08c-2.13-.5-4.29-.63-3.45-4.23,1.23-5.3,15.73-4.91,21.42-3.58,7.24,1.68,15.17,6.53,13.94,11.8-.62,2.67-3.81,2.89-6.44,2.27-2.14-.5-6.91-3-12.87-4.38A33.88,33.88,0,0,0,2087.85,1770.9Z" transform="translate(-1015 -1582)"/><path class="cls-36" d="M2087.85,1770.9a49.75,49.75,0,0,1-7.48-1.08c-2.13-.5-4.29-.63-3.45-4.23,1.23-5.3,15.73-4.91,21.42-3.58,7.24,1.68,15.17,6.53,13.94,11.8-.62,2.67-3.81,2.89-6.44,2.27-2.14-.5-6.91-3-12.87-4.38A33.88,33.88,0,0,0,2087.85,1770.9Z" transform="translate(-1015 -1582)"/><path class="cls-37" d="M2091.19,1769.3a26.39,26.39,0,0,1-4-.58c-1.15-.27-2.32-.34-1.86-2.29.66-2.86,8.5-2.65,11.57-1.93,3.92.91,8.2,3.53,7.54,6.38-.34,1.44-2.06,1.56-3.48,1.23-1.16-.27-3.74-1.62-7-2.37A17.18,17.18,0,0,0,2091.19,1769.3Z" transform="translate(-1015 -1582)"/><ellipse class="cls-38" cx="2210.1" cy="1780.06" rx="16.95" ry="25.7" transform="translate(-1039.62 1947.1) rotate(-76.9)"/><path class="cls-39" d="M2235,1780.18c0,.17-.06.35-.1.52-2.13,9.12-14.87,13.94-28.47,10.78-11.73-2.73-20.26-10.51-21-18.44-.14.39-.25.79-.35,1.19-2.12,9.12,7.37,19.12,21.19,22.34s26.75-1.57,28.87-10.68A11.87,11.87,0,0,0,2235,1780.18Z" transform="translate(-1015 -1582)"/><path class="cls-40" d="M2203.15,1775a49.57,49.57,0,0,1-7.48-1.08c-2.13-.5-4.29-.63-3.45-4.24,1.23-5.29,15.73-4.9,21.42-3.58,7.23,1.69,15.16,6.54,13.94,11.81-.62,2.66-3.81,2.88-6.44,2.27-2.14-.5-6.92-3-12.88-4.38A33.55,33.55,0,0,0,2203.15,1775Z" transform="translate(-1015 -1582)"/><path class="cls-40" d="M2203.15,1775a49.57,49.57,0,0,1-7.48-1.08c-2.13-.5-4.29-.63-3.45-4.24,1.23-5.29,15.73-4.9,21.42-3.58,7.23,1.69,15.16,6.54,13.94,11.81-.62,2.66-3.81,2.88-6.44,2.27-2.14-.5-6.92-3-12.88-4.38A33.55,33.55,0,0,0,2203.15,1775Z" transform="translate(-1015 -1582)"/><path class="cls-41" d="M2206.49,1773.42a27.69,27.69,0,0,1-4-.58c-1.15-.27-2.32-.34-1.87-2.29.67-2.86,8.51-2.65,11.58-1.94,3.91.91,8.2,3.53,7.54,6.38-.34,1.45-2.06,1.56-3.48,1.23-1.16-.27-3.74-1.62-7-2.37A18.35,18.35,0,0,0,2206.49,1773.42Z" transform="translate(-1015 -1582)"/><ellipse class="cls-42" cx="2165.4" cy="1782.32" rx="20.98" ry="13.84" transform="translate(-1206.66 -1319.51) rotate(-6.64)"/><path class="cls-43" d="M2184.58,1775.53a3.41,3.41,0,0,1,.06.43c.89,7.6-7.57,14.82-18.9,16.14-9.76,1.14-18.46-2.49-21.24-8.37a8.43,8.43,0,0,0,.06,1c.88,7.6,10.93,12.66,22.44,11.32s20.13-8.58,19.24-16.17A9.67,9.67,0,0,0,2184.58,1775.53Z" transform="translate(-1015 -1582)"/><path class="cls-44" d="M2158.66,1780.36a39.92,39.92,0,0,1-6,1.23c-1.78.21-3.47.7-3.82-2.3-.51-4.4,10.74-8.1,15.47-8.66,6-.7,13.46.84,14,5.23.26,2.22-2.13,3.27-4.32,3.52-1.78.21-6.14-.39-11.1.19A27,27,0,0,0,2158.66,1780.36Z" transform="translate(-1015 -1582)"/><path class="cls-44" d="M2158.66,1780.36a39.92,39.92,0,0,1-6,1.23c-1.78.21-3.47.7-3.82-2.3-.51-4.4,10.74-8.1,15.47-8.66,6-.7,13.46.84,14,5.23.26,2.22-2.13,3.27-4.32,3.52-1.78.21-6.14-.39-11.1.19A27,27,0,0,0,2158.66,1780.36Z" transform="translate(-1015 -1582)"/><path class="cls-45" d="M2160.79,1778.21a21.18,21.18,0,0,1-3.26.67c-1,.11-1.88.38-2.07-1.25-.28-2.38,5.81-4.38,8.37-4.68,3.25-.38,7.27.46,7.55,2.83.14,1.2-1.15,1.76-2.34,1.9-1,.11-3.32-.21-6,.1A15.67,15.67,0,0,0,2160.79,1778.21Z" transform="translate(-1015 -1582)"/><ellipse class="cls-46" cx="2066.41" cy="1788.32" rx="13.84" ry="20.98" transform="translate(-941.5 2076.2) rotate(-84.05)"/><path class="cls-47" d="M2086.61,1785.88l0,.43c-.79,7.61-10.63,12.81-22,11.63-9.77-1-17.47-6.45-18.91-12.8-.07.33-.12.66-.16,1-.79,7.6,7.91,14.74,19.44,15.94s21.51-4,22.3-11.59A9.62,9.62,0,0,0,2086.61,1785.88Z" transform="translate(-1015 -1582)"/><path class="cls-48" d="M2060.26,1784.94a39.61,39.61,0,0,1-6.16-.12c-1.78-.18-3.54-.07-3.23-3.07.46-4.42,12.25-5.57,17-5.08,6,.63,12.95,3.75,12.49,8.14-.23,2.23-2.79,2.73-5,2.5-1.79-.18-5.91-1.72-10.88-2.24A27.11,27.11,0,0,0,2060.26,1784.94Z" transform="translate(-1015 -1582)"/><path class="cls-48" d="M2060.26,1784.94a39.61,39.61,0,0,1-6.16-.12c-1.78-.18-3.54-.07-3.23-3.07.46-4.42,12.25-5.57,17-5.08,6,.63,12.95,3.75,12.49,8.14-.23,2.23-2.79,2.73-5,2.5-1.79-.18-5.91-1.72-10.88-2.24A27.11,27.11,0,0,0,2060.26,1784.94Z" transform="translate(-1015 -1582)"/><path class="cls-49" d="M2062.81,1783.31a21.76,21.76,0,0,1-3.33-.07c-1-.1-1.92,0-1.75-1.66.25-2.38,6.62-3,9.19-2.74,3.26.34,7,2,6.75,4.4-.12,1.2-1.51,1.47-2.69,1.35-1-.1-3.2-.93-5.88-1.21A14.57,14.57,0,0,0,2062.81,1783.31Z" transform="translate(-1015 -1582)"/><path class="cls-50" d="M2122,2072.9s24.44,22.56,52.64,24.44c16.27,1.09,116.84,5.28,201.16,5.64,61.86.27,114.75-3,120.32-3.76,13.16-1.88,44.18-32,44.18-32Z" transform="translate(-1015 -1582)"/><path class="cls-51" d="M2046.76,2003.34s50.76,60.16,88.36,77.08,345.92,15,372.24,7.52,126-90.24,88.36-97.76S2131.36,1980.78,2046.76,2003.34Z" transform="translate(-1015 -1582)"/><ellipse class="cls-52" cx="1310" cy="413.82" rx="282" ry="52.64"/><ellipse class="cls-53" cx="1310" cy="411" rx="255.68" ry="42.3"/><path class="cls-54" d="M2514.8,1930.61a32.9,32.9,0,0,1,5.19-3.29c17.57-9,29.35-1.68,38.63,16.46,6.85,13.37.29,25.46-10.56,31-14.16,7.25-19.8-1-30.63-5.73-5-2.19-9.55,4.54-15.88-7.82C2495.83,1950.09,2505.1,1938.11,2514.8,1930.61Z" transform="translate(-1015 -1582)"/><path class="cls-55" d="M2465.69,1886.55c-1.66-12.16,4.68-21,14.3-25.88,18-9.22,36.25-2,43.6,12.4,7.73,15.09,3.95,38.84-13,47.53s-31.64-2.85-39.92-19A47.87,47.87,0,0,1,2465.69,1886.55Z" transform="translate(-1015 -1582)"/><path class="cls-56" d="M2386.13,1971.42c-3-9.94-20.23-34,1.46-45.11,9.88-5.06,23.8-2.45,31.94,7.53,6.12-10.94.56-29.1,12.44-35.18,6.52-3.34,14.83-2.94,22.77,4a44.21,44.21,0,0,1,17.73-16.41c24.57-12.59,57.08-1.94,67.55,18.5,10,19.45-.88,33.47-20.25,43.39-8.66,4.44-18.1,8-25.39,11.68-12.05,6.17-16,26.46-28.49,32.88-4.91,2.51-10.71,2.26-17.88-3.23-4.49,8-10.4,16.54-18.24,20.56-10.58,5.41-26.3,1.94-35.44-15.91C2390.75,1987.11,2388.42,1979,2386.13,1971.42Z" transform="translate(-1015 -1582)"/><path class="cls-57" d="M2371.38,2011.14c-.09-9.16-8.93-23.55,4.92-30.64,7.48-3.83,15.48,3.24,15.53,3.22,9.09-4.66-2-29.87,11-36.52,8.13-4.17,17.21-2.13,23.63,10.41,9.3,18.16-3.55-18.18,14.52-27.43,5.66-2.9,15.35-1.17,19.64,7.2a18,18,0,0,1-.18,16.44c19.44-10,53.29-12.68,63.89,8,7.28,14.22,2.35,37.74-13.68,46-8.1,4.15-21.94,5.1-30.5-1.19-3.29,12.41-9.1,27.92-20.65,33.83-9.42,4.83-21.62,3.85-28.71-10-1.18-2.3-2.26-4.7-3.45-7-.59-1.16-1.61-1-2.62-.48-5.47,2.8-2.62,10.86-19.76,19.64-5.2,2.66-13.38,7.58-21.42-8.13-2.49-4.85-4.18-10.36-6.78-15.45A32.88,32.88,0,0,0,2371.38,2011.14Z" transform="translate(-1015 -1582)"/><path class="cls-58" d="M2459.54,2040.43c11.55-5.91,17.36-21.42,20.65-33.83,8.56,6.29,22.4,5.34,30.5,1.19,6.94-3.55,11.8-10,14.49-17.27-11.15,3.29-27.67,12-41,9.82a9.59,9.59,0,0,0-6,.81c-8.55,4.38-10.06,23.33-19.23,28-8.65,4.44-19-7.1-23-5.09a13.46,13.46,0,0,0-5.45,5.62c.12.25.24.49.37.73C2437.92,2044.28,2450.12,2045.26,2459.54,2040.43Z" transform="translate(-1015 -1582)"/><path class="cls-59" d="M2486.7,1972c-1.88,1-3.66,1.64-5.35,2.51-14.48,7.41,8.43,1.4,16,5.32-10.14,4.24-21.87,1.72-32.8,2.58,7.45,4.45,25.25,4.18,20.89,6.41-9.86,5.05-20.86-1.82-31.78.11,6.21,2.54,19.64,2.83,22.5,8.42.44.85-.09,1.41-.86,1.8-10.08,5.17-35.69-10.69-31-1.51,3.73,7.29,25.42,3,19.32,6.14-14.44,7.4-28.22-7.4-34.77-4,5.33,4.86,13.26,5.54,19,11.14-12.06,2.38-20.87-11.12-32.52-6.1,5.19,1.67,11,4.6,13.46,9.38a10.59,10.59,0,0,1,.61,1.43c-18.7-11.29-53.73,6.71-61.33-8.12-1.15-2.25,2.33-4.49,4.07-5.39,8-4.08,20.34-1.2,29.39-5.83,7.44-3.81,7.52-18.88,17.62-26.61-1.4,12.09-19.3,29-5.55,21.94,4.28-2.19,5.76-15,16.12-21.66-1.76,5.43-8.34,11.61-5.22,17.71.64,1.24.29.73,1.44.14,1.65-.85,3.86-.66,4.51-1,0,0-.85-15.22,9.78-22.25-1.6,5-5.77,12-3.25,16.89a6.88,6.88,0,0,0,1.55,2l3.75-1.92c-1.59-8.67,3.24-15.88,9.62-20.1-1.18,5.24-5.51,12.33-3.89,15.5a3.54,3.54,0,0,0,4.49,1.26c4.35-2.22,4.59-14.71,13.25-19.15,4.22-2.16-5.43,9.62-3.15,15.88,4.85-5.33,6.28-13.65,13-17.11.82,7.16-7.07,10.26-8.52,16.69,3.59-2.27,7.71-5.41,12.11-7.66,8.81-4.51,22.89-3.48,11.13,2.54-5.35,2.74-11.73,3.81-17.08,6.55a20.69,20.69,0,0,0-5.35,3.84" transform="translate(-1015 -1582)"/><path class="cls-60" d="M2346.46,1962.48a31,31,0,0,1-10.93-12.16c-5.73-11.18-6.35-21.39,4.83-27.11a16.75,16.75,0,0,1,15-.4c1.71-11.57-17.72-26.57,2.75-37,9.53-4.88,21.48.9,27.85,11.14-7.24-14.15-6.82-33.91,6.79-40.88,9.3-4.76,19.74,1,24.53,10.38.37.73.71,1.48,1,2.25a49.86,49.86,0,0,1,18.86-16.75c21.64-11.08,47.86-5.09,57.13,13,9.63,18.8-2.21,33.22-20.89,42.78a28.34,28.34,0,0,1,14.27,13.18c7.08,13.81,2.53,29.46-14.67,38.28-19.25,9.85-32.57-13.47-37.63-10.87-7.42,3.8,8.49,23.89-8.23,32.45-8.48,4.34-21,1.76-25.9-7.71-4.75-9.28,5.67,11.81-15.32,22.56-15.35,7.86-25.47-1.44-33.43-17A78.92,78.92,0,0,1,2346.46,1962.48Z" transform="translate(-1015 -1582)"/><path class="cls-61" d="M2361.49,1921.89c6.72-7.23-1.63-12.44,2.44-21.16s4.1-4.94,17-.16,9.76-5,10.83-12.18,4.72-18.54,10.73-21.61,17.5,13.79,32.83-.7c11.22-10.6,40.35-8,56.95-4.59-10.66-15.39-34.86-19.94-55.07-9.59a49.86,49.86,0,0,0-18.86,16.75c-.3-.77-.64-1.52-1-2.25-4.79-9.36-15.23-15.14-24.53-10.38-13.61,7-14,26.73-6.79,40.88-6.37-10.24-18.32-16-27.85-11.14-20.47,10.48-1,25.48-2.75,37a16.75,16.75,0,0,0-15,.4c-6.17,3.16-8.74,7.68-8.85,13a36.81,36.81,0,0,1,17.63-3.23C2362,1934,2354.77,1929.13,2361.49,1921.89Z" transform="translate(-1015 -1582)"/><path class="cls-62" d="M2442.4,1898.47c-1.87,1-3.47,2-5.16,2.88-14.47,7.41,3.79-7.66,5-16.09-9.38,5.75-14.18,16.74-21.27,25.11.74-8.64,11.36-22.93,7-20.7-9.87,5-10.72,18-18.66,25.72,1.56-6.52,9.18-17.58,6.31-23.18-.43-.84-1.19-.75-2-.35-10.09,5.16-12.19,35.21-16.89,26-3.73-7.29,12.4-22.39,6.3-19.27-14.43,7.4-10.48,27.23-17,30.58-.82-7.16,3.26-14,2-21.91-9,8.39-3.17,23.43-14,30,1.67-5.18,2.71-11.62.25-16.4a10.66,10.66,0,0,0-.8-1.33c-1.76,21.78-36.85,39.68-29.26,54.51,1.16,2.25,5,.74,6.75-.15,8-4.09,12.87-15.8,21.91-20.44,7.45-3.81,19.72,4.93,31.89,1.26-10.62-5.94-34.79-1.29-21-8.32,4.28-2.2,15.52,4.08,27-.42-5.43-1.76-14.29,0-17.42-6.13-.63-1.23-.42-.65.73-1.24,1.66-.85,2.79-2.75,3.44-3.08,0,0,11.85,9.58,23.77,5.06-5-1.6-13.08-2.3-15.6-7.23a6.84,6.84,0,0,1-.72-2.42l3.75-1.92c6.1,6.35,14.79,6.65,21.93,3.94-4.93-2.11-13.22-2.73-14.85-5.91a3.55,3.55,0,0,1,1.6-4.38c4.35-2.23,14.62,4.88,23.28.44,4.22-2.16-11-1.21-14.72-6.71,7.16-.83,14.75,2.87,21.51-.59-5.33-4.85-12.46-.26-18.52-2.84,3.93-1.58,8.89-3.1,13.29-5.35,8.81-4.51,16.2-16.53,4.44-10.52-5.34,2.74-10,7.29-15.3,10a20.44,20.44,0,0,1-6.24,2.1" transform="translate(-1015 -1582)"/><path class="cls-63" d="M2402,1959.45c12-10.58,29.22-26.28,44.83-25.32,6.68.41,13,3.87,18.59,12.07-15,5.19-20.74,22.29-35.32,21.39C2421.22,1967,2411.5,1960.84,2402,1959.45Z" transform="translate(-1015 -1582)"/><path class="cls-64" d="M2483,1971.52c5.22-2.71,12.62-3,16.66-8.06,16.76-21,38.94-42,66.22-42.36-1.33,5.78-9.67,9-9.76,10.37a30.84,30.84,0,0,1,2.12,12.76c-1,16.38-16.26,28.23-17.27,44.61-1.11,18,21.08,37.22,20.51,46.48-.28,4.53-9.08,5.06-13.25,4.8-24.2-1.49-71.47-40.66-70.7-53.14C2477.89,1981.65,2480.44,1976,2483,1971.52Z" transform="translate(-1015 -1582)"/><path class="cls-65" d="M2414.72,1998.61c.19,18.71,26.42,18.34,26.08,23.82-.06.91-.41,2-.47,3-26.7-.49-22,37.4-44.59,36-18-1.12-31.23-40.65-31-44.79.24-4,4.4-7.1,8-8.52C2386.15,2002.8,2402.16,2005.91,2414.72,1998.61Z" transform="translate(-1015 -1582)"/><path class="cls-66" d="M2319.63,2018c4.34,12.14,13.52,18.64,13.08,25.9-.59,9.42-11.26,9.72-12.07,22.77-.19,3.07,0,6.31-.2,9.45-.27,4.35-.93,8-5.57,7.71-6.15-.38-27.53-16.66-25.76-45.28a43.53,43.53,0,0,1,2.8-13.17C2294.22,2019.42,2310.08,2025.47,2319.63,2018Z" transform="translate(-1015 -1582)"/><path class="cls-67" d="M2313.29,2022.11c3,8.37,9.33,12.85,9,17.86-.4,6.49-7.76,6.7-8.32,15.69-.13,2.12,0,4.36-.14,6.52-.18,3-.64,5.51-3.84,5.32-4.24-.26-19-11.49-17.76-31.22a29.92,29.92,0,0,1,1.93-9.09C2295.77,2023.1,2306.71,2027.27,2313.29,2022.11Z" transform="translate(-1015 -1582)"/><path class="cls-68" d="M2299.69,1931.94c.34-5.45,16.08-60.54,33.5-69.22a10.88,10.88,0,0,1,5.67-1.06c4,.25,4.44,1.79,4.44,1.79s1.13,6.12,6.7,14,22.19,33.17,28,36.56-47.31,30.41-47.31,30.41Z" transform="translate(-1015 -1582)"/><path class="cls-69" d="M2343.76,1937.69c4.32-1.4,21.35-9.85,21.85-18,0,0-25.1-25.88-26-45.87-9.32,8.82-22.33,20.13-23,31.41-.18,3-7,13.38-5.16,16.33C2318.23,1932.31,2331.05,1931,2343.76,1937.69Z" transform="translate(-1015 -1582)"/><path class="cls-70" d="M2486.55,1963.66s-10.31,3.4-25.27.46-122.37-45.92-164.49-50.53-176.38,27.48-186.5,27.87-42.11,11.54-39.4,16.75,17.92,4.14,20.69,8.35-1.32,5-6.34,4.65-13.84-4.89-14.09-.87,15.41,12.06,35.16,19.34,146.88,41.37,189.13,44,151.72-37.09,159.77-36.59,17,2.06,26.09,2.62,8.17-13.89,8.17-13.89S2498.82,1965.17,2486.55,1963.66Z" transform="translate(-1015 -1582)"/><path class="cls-71" d="M2150.18,1974.21c-2.28-12.26,13-14.34,6.26-28.44-2.19-4.58-10.24-7.43-20.11-9.18,43.59-8.89,128.51-26.51,160.46-23,42.12,4.61,149.52,47.59,164.49,50.53s25.27-.46,25.27-.46c12.27,1.51,2.92,22.14,2.92,22.14s.88,14.44-8.17,13.89-18.05-2.13-26.09-2.62-117.53,39.19-159.77,36.59c-29.84-1.85-102-19.39-148.79-32.1C2150.37,1993.32,2151.66,1982.23,2150.18,1974.21Z" transform="translate(-1015 -1582)"/><path class="cls-72" d="M2161.76,1958.26l-2.07,9s-1.88,6-.93,15.09c.59,5.61-1.91,15-3.93,21.45l-8.18-2.2c3.72-8.24,5-19.33,3.53-27.35-2.28-12.26,13-14.34,6.26-28.44-2.19-4.58-10.24-7.43-20.11-9.18l16.14-3.29.19.12S2163.83,1949.3,2161.76,1958.26Z" transform="translate(-1015 -1582)"/><path class="cls-73" d="M2296.79,1913.59c42.12,4.61,149.52,47.59,164.49,50.53a63.63,63.63,0,0,0,7.75,1c-12.45,19-40.82-5.1-40.82-5.1s-132.8-40.5-146.88-41.37-165.44,30.18-173.73,33.71c-4.22,1.79-17.15.44-28.82-1.33,9.56-4.7,25-9.37,31.51-9.61C2120.41,1941.07,2254.66,1909,2296.79,1913.59Z" transform="translate(-1015 -1582)"/><path class="cls-74" d="M2449.66,1980.57s-98.65-21.23-129.38-14-83.17-2.1-93.64-4.26-44.52-14.87-44.52-14.87,18.78,14.79,33.68,18.74,61.49,9.85,75.07,10.69,59.3-3.91,65.34-3.54S2449.66,1980.57,2449.66,1980.57Z" transform="translate(-1015 -1582)"/><path class="cls-75" d="M2333.78,1993.11s-46.49-7.41-60.26-5.23-45.35-1.29-45.35-1.29S2300.79,2012.28,2333.78,1993.11Z" transform="translate(-1015 -1582)"/><circle class="cls-76" cx="1113.86" cy="385.85" r="11.09"/><circle class="cls-77" cx="1113.86" cy="385.85" r="8.57"/><circle class="cls-78" cx="1113.86" cy="385.85" r="5.04"/><circle class="cls-79" cx="1112.18" cy="384.48" r="2.27"/><path class="cls-80" d="M2832,1881.9s24.44,22.56,52.64,24.44c16.27,1.09,116.84,5.28,201.16,5.64,61.86.27,114.75-3,120.32-3.76,13.16-1.88,44.18-32,44.18-32Z" transform="translate(-1015 -1582)"/><path class="cls-81" d="M2756.76,1812.34s50.76,60.16,88.36,77.08,345.92,15,372.24,7.52,126-90.24,88.36-97.76S2841.36,1789.78,2756.76,1812.34Z" transform="translate(-1015 -1582)"/><ellipse class="cls-82" cx="2020" cy="222.82" rx="282" ry="52.64"/><ellipse class="cls-83" cx="2020" cy="220" rx="255.68" ry="42.3"/><path class="cls-84" d="M3156.41,1773.53c-13.23-4.41-32.06-6.51-48.81-7.48,7.66-8.78,12.39-16.2,12.81-20.35,1.63-16.36,26.18-54,44.19-75.28s18-47.47,16.36-63.83S3112.22,1582,3028.75,1582s-178.4,45.82-227.5,93.29-31.1,122.75,19.64,145.66c46.93,21.19,159.64,11.59,176.31,10,26.06,10.2,82.11,14.22,101.93,12.9,24.55-1.64,91.65-32.74,96.56-42.56S3185.87,1783.35,3156.41,1773.53Z" transform="translate(-1015 -1582)"/><path class="cls-85" d="M3140.86,1643.41a73,73,0,0,0,40.72-27.39c-.1-3.39-.33-6.57-.62-9.43-1.63-16.37-68.74-24.55-152.21-24.55s-178.4,45.82-227.5,93.29c-1,.93-1.91,1.89-2.82,2.85,1.74,6.15,6.06,10.25,16.73,6.15,21.28-8.19,112.93-60.56,124.39-58.92s-13.09,36,4.91,39.28,65.47-24.55,90-22.92S3114.68,1650,3140.86,1643.41Z" transform="translate(-1015 -1582)"/><path class="cls-85" d="M2814.34,1713s85.11-55.65,94.93-65.47,18-11.45,18-11.45-1.64,52.37-14.73,68.74-40.92,37.64-40.92,37.64,57.28,14.73,58.92,32.73,4.91,39.28-19.64,42.56-104.75-6.55-116.21-31.1S2788.16,1727.7,2814.34,1713Z" transform="translate(-1015 -1582)"/><path class="cls-85" d="M2963.28,1686.78s58.92-39.28,111.3-29.46,112.93,18,117.84,16.37,13.09-1.64,13.09-1.64l1.64,22.92s-54,19.64-60.56,26.18-18,31.1-27.82,45.83-44.19,24.55-36,29.46,60.56-6.55,55.65,3.27-49.1,26.19-67.11,24.55-98.2-27.82-111.29-52.37S2942,1701.51,2963.28,1686.78Z" transform="translate(-1015 -1582)"/><path class="cls-86" d="M3205.51,1672.05s27.83-27.82,37.65-18,3.27,22.91,3.27,22.91,19.64,24.55,9.82,29.46-44.19,0-49.1-11.45S3205.51,1672.05,3205.51,1672.05Z" transform="translate(-1015 -1582)"/><path class="cls-87" d="M2951.83,1647.5c-4.4-2.19-4.91-31.09,24.55-42.55s85.1-9.82,108-6.55,73.65-3.27,73.65,8.19-42.55,22.91-60.56,24.55-78.56,0-94.93,3.27S2958.37,1650.78,2951.83,1647.5Z" transform="translate(-1015 -1582)"/><path class="cls-87" d="M2910.91,1663.87s-85.11,57.28-98.2,68.74-14.73,44.19,1.63,54,63.84,19.64,80.2,14.73,18-19.64,14.73-24.55-80.2-14.73-68.74-31.1S2914.18,1683.51,2910.91,1663.87Z" transform="translate(-1015 -1582)"/><path class="cls-87" d="M2964.92,1701.51s68.74-32.73,94.93-34.37,72,6.55,78.56,16.37,4.91,26.19-6.55,29.46-91.65,3.27-101.47,9.82-54,32.73-63.83,24.55S2953.46,1717.88,2964.92,1701.51Z" transform="translate(-1015 -1582)"/><path class="cls-87" d="M3086,1735.88s-72,21.28-75.28,37.65,21.27,36,37.64,40.91,49.1-4.91,49.1-4.91-70.38-6.54-50.74-22.91S3097.49,1734.25,3086,1735.88Z" transform="translate(-1015 -1582)"/><path class="cls-88" d="M3213.7,1680.24s11.45-22.92,19.64-21.28,1.63,16.37,1.63,16.37,21.28,11.45,13.1,19.64-31.1,3.27-32.74-8.19S3213.7,1680.24,3213.7,1680.24Z" transform="translate(-1015 -1582)"/><path class="cls-89" d="M3185.79,1786.87c0,30.1-16.36,50.13-39.91,50.13s-41.38-19.66-41.38-49.76,17.82-59.24,41.38-59.24S3185.79,1756.78,3185.79,1786.87Z" transform="translate(-1015 -1582)"/><path class="cls-90" d="M3134.21,1795.81c-15.8-11.79-13.89-41.88-11.77-57-11,11.18-17.94,29.62-17.94,48.44,0,30.1,17.82,49.76,41.38,49.76,17.65,0,31.26-11.24,37-29.54C3170.29,1807.82,3148.7,1806.61,3134.21,1795.81Z" transform="translate(-1015 -1582)"/><path class="cls-91" d="M3127.28,1802.37c-15.72-13.06-15.23-37.51-13.12-52.49a76.2,76.2,0,0,0-9.66,37.36c0,30.1,17.82,49.76,41.38,49.76,17.17,0,30.52-10.65,36.49-28.08C3169.63,1812.37,3144.38,1816.57,3127.28,1802.37Z" transform="translate(-1015 -1582)"/><path class="cls-92" d="M3159,1756.8c-4.72-1.57-9.49-5.34-9.49-10.32,0-4.25,2.38-5.8,6.66-5.8,12.6,0,18.54,16.52,18.54,27.38,0,4.27-1.68,10.85-4.22,10.85-4.25,0-2.21-8.23-5.29-12.27C3162.67,1763.34,3160.46,1760.81,3159,1756.8Z" transform="translate(-1015 -1582)"/><path class="cls-93" d="M3245.79,1786.87c0,30.1-16.36,50.13-39.91,50.13s-41.38-19.66-41.38-49.76,17.82-59.24,41.38-59.24S3245.79,1756.78,3245.79,1786.87Z" transform="translate(-1015 -1582)"/><path class="cls-94" d="M3194.21,1795.81c-15.8-11.79-13.89-41.88-11.77-57-11,11.18-17.94,29.62-17.94,48.44,0,30.1,17.82,49.76,41.38,49.76,17.65,0,31.26-11.24,37-29.54C3230.29,1807.82,3208.7,1806.61,3194.21,1795.81Z" transform="translate(-1015 -1582)"/><path class="cls-95" d="M3187.28,1802.37c-15.72-13.06-15.23-37.51-13.12-52.49a76.2,76.2,0,0,0-9.66,37.36c0,30.1,17.82,49.76,41.38,49.76,17.17,0,30.52-10.65,36.49-28.08C3229.63,1812.37,3204.38,1816.57,3187.28,1802.37Z" transform="translate(-1015 -1582)"/><path class="cls-96" d="M3219,1756.8c-4.72-1.57-9.49-5.34-9.49-10.32,0-4.25,2.38-5.8,6.66-5.8,12.6,0,18.54,16.52,18.54,27.38,0,4.27-1.68,10.85-4.22,10.85-4.25,0-2.21-8.23-5.29-12.27C3222.67,1763.34,3220.46,1760.81,3219,1756.8Z" transform="translate(-1015 -1582)"/><path class="cls-97" d="M3287.79,1786.87c0,30.1-16.36,50.13-39.91,50.13s-41.38-19.66-41.38-49.76,17.82-59.24,41.38-59.24S3287.79,1756.78,3287.79,1786.87Z" transform="translate(-1015 -1582)"/><path class="cls-98" d="M3236.21,1795.81c-15.8-11.79-13.89-41.88-11.77-57-11,11.18-17.94,29.62-17.94,48.44,0,30.1,17.82,49.76,41.38,49.76,17.65,0,31.26-11.24,37-29.54C3272.29,1807.82,3250.7,1806.61,3236.21,1795.81Z" transform="translate(-1015 -1582)"/><path class="cls-99" d="M3229.28,1802.37c-15.72-13.06-15.23-37.51-13.12-52.49a76.2,76.2,0,0,0-9.66,37.36c0,30.1,17.82,49.76,41.38,49.76,17.17,0,30.52-10.65,36.49-28.08C3271.63,1812.37,3246.38,1816.57,3229.28,1802.37Z" transform="translate(-1015 -1582)"/><path class="cls-100" d="M3261,1756.8c-4.72-1.57-9.49-5.34-9.49-10.32,0-4.25,2.38-5.8,6.66-5.8,12.6,0,18.54,16.52,18.54,27.38,0,4.27-1.68,10.85-4.22,10.85-4.25,0-2.21-8.23-5.29-12.27C3264.67,1763.34,3262.46,1760.81,3261,1756.8Z" transform="translate(-1015 -1582)"/><path class="cls-101" d="M1489,2103.9s24.44,22.56,52.64,24.44c16.27,1.09,116.84,5.28,201.16,5.64,61.86.27,114.75-3,120.32-3.76,13.16-1.88,44.18-32,44.18-32Z" transform="translate(-1015 -1582)"/><path class="cls-102" d="M1413.76,2034.34s50.76,60.16,88.36,77.08,345.92,15,372.24,7.52,126-90.24,88.36-97.76S1498.36,2011.78,1413.76,2034.34Z" transform="translate(-1015 -1582)"/><ellipse class="cls-103" cx="677" cy="444.82" rx="282" ry="52.64"/><ellipse class="cls-104" cx="677" cy="442" rx="255.68" ry="42.3"/><path class="cls-105" d="M1842.79,2008.87c0,30.1-16.36,50.13-39.91,50.13s-41.38-19.66-41.38-49.76,17.82-59.24,41.38-59.24S1842.79,1978.78,1842.79,2008.87Z" transform="translate(-1015 -1582)"/><path class="cls-106" d="M1791.21,2017.81c-15.8-11.79-13.89-41.88-11.77-57-11,11.18-17.94,29.62-17.94,48.44,0,30.1,17.82,49.76,41.38,49.76,17.65,0,31.26-11.24,37-29.54C1827.29,2029.82,1805.7,2028.61,1791.21,2017.81Z" transform="translate(-1015 -1582)"/><path class="cls-107" d="M1784.28,2024.37c-15.72-13.06-15.23-37.51-13.12-52.49a76.2,76.2,0,0,0-9.66,37.36c0,30.1,17.82,49.76,41.38,49.76,17.17,0,30.52-10.65,36.49-28.08C1826.63,2034.37,1801.38,2038.57,1784.28,2024.37Z" transform="translate(-1015 -1582)"/><path class="cls-108" d="M1816,1978.8c-4.72-1.57-9.49-5.34-9.49-10.32,0-4.25,2.38-5.8,6.66-5.8,12.6,0,18.54,16.52,18.54,27.38,0,4.27-1.68,10.85-4.22,10.85-4.25,0-2.21-8.23-5.29-12.27C1819.67,1985.34,1817.46,1982.81,1816,1978.8Z" transform="translate(-1015 -1582)"/><path class="cls-109" d="M1924,1997.46c-7.16,17.72-1.64,52.49-34,55.07-17.48,1.4-27.23-18.62-27.34-18.61-21.23,1.69-20.1,59.07-50.46,61.49-19,1.52-34.84-9.67-37.18-38.94-3.39-42.41-7.7,37.84-49.89,41.21-13.21,1.06-30.49-10-32.05-29.57a37.49,37.49,0,0,1,13.5-31.51c-45.4,3.63-112.77-18.2-116.63-66.54-2.65-33.19,25.66-74.54,63.09-77.53,18.91-1.51,46.33,7.72,57.77,26.67,16.26-21.25,39.85-46.48,66.82-48.63,22-1.76,44.71,9.88,47.29,42.23.43,5.35.59,10.85,1,16.26.22,2.7,2.3,3.22,4.67,3,12.76-1,13.72-18.82,53.75-22,12.14-1,31.82-3.91,34.75,32.78.9,11.33-.25,23.29.7,35.17A67.92,67.92,0,0,0,1924,1997.46Z" transform="translate(-1015 -1582)"/><path class="cls-110" d="M1777.65,1870.57c-27,2.15-50.56,27.38-66.82,48.63-11.44-19-38.86-28.18-57.77-26.67-16.21,1.29-30.7,9.78-41.71,21.67,24.1,2.59,62.85-.93,86.87,13.9a19.92,19.92,0,0,0,12.31,3.27c20-1.59,38-36.86,59.43-38.58,20.21-1.61,31,28.9,40.11,28.17,5-.4,10.21-2.66,15-6.48,0-.56-.07-1.13-.12-1.68C1822.36,1880.45,1799.64,1868.81,1777.65,1870.57Z" transform="translate(-1015 -1582)"/><path class="cls-111" d="M1670.64,1980.6c4.39-.35,8.37-.23,12.31-.54,33.8-2.7-15.1-9.44-26.55-23,22.94-.07,43.5,14.17,65.24,21.26-10.78-14.53-45.27-28.24-35.11-29,23-1.84,38.72,20.18,61.28,25.2-9.92-9.87-35.55-21.15-36.59-34.22-.16-2,1.3-2.64,3.1-2.78,23.55-1.88,60.18,49.14,58.47,27.7-1.36-17-46.53-26.14-32.29-27.28,33.71-2.69,48.43,36.82,63.71,35.6-6.38-13.61-21.11-21.26-27.64-36.62,25.12,5.05,31.29,38.1,57.73,37.75-8.64-7.37-17.52-17.66-18.41-28.84a21.61,21.61,0,0,1,0-3.22c27,36.69,108.83,30,111.6,64.66.42,5.27-8.07,6.8-12.14,7.12-18.64,1.49-40.13-14-61.25-12.26-17.38,1.39-29.58,30.34-55.2,37.14,12.35-22.16,60.32-40.37,28.22-37.8-10,.8-23.08,24.24-48.35,28.82,7.72-9.06,25.33-15.68,24.19-29.94-.23-2.88,0-1.63-2.65-1.41-3.86.31-8-1.83-9.47-1.71,0,0-10.53,30-36.63,35,7-8.27,20.69-18.41,19.77-29.92a14.69,14.69,0,0,0-1.38-5.08l-8.77.7c-3.86,18-18.94,28-34.59,31,6.45-9.13,20.47-19.32,19.88-26.74-.28-3.49-4.27-6.28-7.63-6-10.16.81-20.6,24.66-40.83,26.28-9.85.79,18.15-14.18,18.76-28-13.6,6.38-23,21.25-38.79,22.51,4.14-14.45,21.82-14.1,29.75-25.32-8.72,1.5-19.18,4.24-29.44,5.06-20.58,1.64-46.85-11.6-19.4-13.79,12.48-1,25.63,2,38.12,1a42.58,42.58,0,0,0,13.38-3.1" transform="translate(-1015 -1582)"/><path class="cls-112" d="M1756.4,2011a58.36,58.36,0,0,1,1.29,30.62c-5.06,23-16.32,38.5-39.33,33.44-9.26-2-17.89-7.89-22.2-17.36-16.29,14.7-6.06,59.56-48.16,50.3-19.6-4.31-30-26.92-27-49.34-6.41,29.11-30.58,57.18-58.57,51-19.14-4.2-27.33-25-23.1-44.26.33-1.5.74-3,1.22-4.46a93.39,93.39,0,0,1-47.24,1.71c-44.51-9.78-75.27-49.71-67.08-87,8.51-38.67,42.83-45.4,81.24-37a53.12,53.12,0,0,1-4.93-36.07c6.25-28.42,31.49-45.63,66.88-37.84,39.58,8.7,31,58.3,41.45,60.59,15.26,3.36,16.21-44.67,50.59-37.11,17.46,3.84,32.55,22.57,28.26,42-4.19,19.09,5.89-23.83,49.06-14.34,31.57,6.94,35.12,32.45,28.08,64.44A148.93,148.93,0,0,1,1756.4,2011Z" transform="translate(-1015 -1582)"/><path class="cls-113" d="M1686.24,2051.8c-18.35,2.44-12.48,19.93-28.76,27.68s-11.83,2.26-24.75-20-20.08-4.42-30.18,4.69-29,21.17-41.31,18.45-8.84-40.81-48.29-38.15c-28.87,2-67.93-36.5-87.82-61.3-3,35,26.62,70.41,68.19,79.55a93.39,93.39,0,0,0,47.24-1.71c-.48,1.47-.89,3-1.22,4.46-4.23,19.25,4,40.06,23.1,44.26,28,6.16,52.16-21.91,58.57-51-3,22.42,7.39,45,27,49.34,42.1,9.26,31.87-35.6,48.16-50.3,4.31,9.47,12.94,15.33,22.2,17.36,12.7,2.8,21.81-.68,28.29-8.22-9-2.57-19.9-7.22-29.36-16.35C1699.93,2033.76,1704.59,2049.36,1686.24,2051.8Z" transform="translate(-1015 -1582)"/><path class="cls-114" d="M1541.31,1989.16c3.86.84,7.42,1.22,10.9,2,29.77,6.54-14.61,6.55-26.47,17.25,20.42,2.88,40.47-7.29,60.71-10.94-11.39,11.63-43.79,19.61-34.84,21.58,20.29,4.46,37-13.23,57.67-14.94-10,7.57-34.25,14.48-36.78,26-.38,1.74.83,2.51,2.42,2.86,20.75,4.56,59.62-36.39,55.47-17.51-3.3,15-44.64,17.59-32.1,20.34,29.69,6.53,47.64-26.86,61.1-23.9-7.35,11.34-21.41,16.35-29.1,29.23,23-1.42,32.53-30.09,56-26.54-8.6,5.5-17.77,13.58-19.93,23.43a19.52,19.52,0,0,0-.42,2.86c28.52-29.37,100.61-13.4,107.32-43.9,1-4.65-6.36-7-9.94-7.84-16.42-3.61-37.45,7.51-56.06,3.41-15.3-3.36-22.63-30.64-44.61-39.84,8.28,21.25,48.78,43.35,20.51,37.13-8.81-1.94-17.59-24.42-39.54-31.6,5.77,9,20.64,17.07,17.88,29.63-.56,2.54-.17,1.46-2.53.94-3.4-.75-7.32.65-8.65.35,0,0-5.7-28-28.32-35.67,5.26,8.23,16.16,18.93,13.93,29.07a13.09,13.09,0,0,1-1.85,4.35l-7.73-1.7c-1.23-16.46-13.44-27.24-27-31.85,4.63,8.93,15.86,19.72,14.42,26.26-.67,3.07-4.57,5.07-7.53,4.42-9-2-15.32-24.5-33.14-28.42-8.67-1.9,14.42,14.85,13.28,27.28-11.34-7.35-17.89-21.75-31.8-24.81,1.92,13.38,17.71,15.23,23.39,26.2-7.58-2.4-16.55-6.12-25.6-8.11-18.12-4-43.14,4.58-19,9.9,11,2.42,23.09,1.33,34.09,3.75a38.3,38.3,0,0,1,11.53,4.41" transform="translate(-1015 -1582)"/><path class="cls-115" d="M1956.79,2008.87c0,30.1-16.36,50.13-39.91,50.13s-41.38-19.66-41.38-49.76,17.82-59.24,41.38-59.24S1956.79,1978.78,1956.79,2008.87Z" transform="translate(-1015 -1582)"/><path class="cls-116" d="M1905.21,2017.81c-15.8-11.79-13.89-41.88-11.77-57-11,11.18-17.94,29.62-17.94,48.44,0,30.1,17.82,49.76,41.38,49.76,17.65,0,31.26-11.24,37-29.54C1941.29,2029.82,1919.7,2028.61,1905.21,2017.81Z" transform="translate(-1015 -1582)"/><path class="cls-117" d="M1898.28,2024.37c-15.72-13.06-15.23-37.51-13.12-52.49a76.2,76.2,0,0,0-9.66,37.36c0,30.1,17.82,49.76,41.38,49.76,17.17,0,30.52-10.65,36.49-28.08C1940.63,2034.37,1915.38,2038.57,1898.28,2024.37Z" transform="translate(-1015 -1582)"/><path class="cls-118" d="M1930,1978.8c-4.72-1.57-9.49-5.34-9.49-10.32,0-4.25,2.38-5.8,6.66-5.8,12.6,0,18.54,16.52,18.54,27.38,0,4.27-1.68,10.85-4.22,10.85-4.25,0-2.21-8.23-5.29-12.27C1933.67,1985.34,1931.46,1982.81,1930,1978.8Z" transform="translate(-1015 -1582)"/><ellipse class="cls-119" cx="1543.9" cy="65.53" rx="139.04" ry="38.42"/><ellipse class="cls-120" cx="1544.74" cy="62.54" rx="129.43" ry="27.23"/><path class="cls-121" d="M2420.05,1650.14s42.34,30.77,101.64,32.45,120.11-1.12,146-12.87,30.22-20.14,30.22-20.14,5.59,40.84-25.74,81.69-61,52.59-73.3,55.39-57.62,4.47-73.85-.56S2424,1738.54,2420.05,1650.14Z" transform="translate(-1015 -1582)"/><path class="cls-122" d="M2432.36,1649.21s2.42-6.53,7.83-9c4.58-2,12.29.12,12.29-1.44,0-2.58,2.56-5.69,7-5.69a31.62,31.62,0,0,1,5.1.61c.64-7,1.76-14.93,8.61-14.93a17.69,17.69,0,0,1,4.36.79c.37,0,.86-.14,1.34-.14,5.67,0-2-18.16,12-18.16a18.32,18.32,0,0,1,8.72,2.6c3-7.46,8.2-14.92,16.41-14.92,3.22,0,6.26,4.87,8.15,4.87,0,0,9.95-11.84,23.5-11.84,11.73,0,9.29,10.76,16.89,10.76,4.74,0,10.06-4.86,15.52-4.86,5.74,0,6.8,7.06,8.87,7.06,0,0,8.62-2.91,14.73-2.91,6.48,0,12.08,3.31,12.08,5.92,0,7.15-4.7,1.86,13.92,1.86,9.82,0,14.29,6.36,14.29,10v.44c0,1.24-.2,1.22,3.48,1.22,2.27,0,4.59-.14,6.88-.14,16.54,0,29.14,22.86,29.14,33.37,0,24.71-93.31,32.58-119.41,32.58-32.53,0-67.93-7.2-100.82-14.83C2452.88,1660,2438,1655.73,2432.36,1649.21Z" transform="translate(-1015 -1582)"/><path class="cls-123" d="M2661.13,1634.5c-13.47,0-33.27,25.91-55.28,25.91-1.78,0-9.68-.55-9.68-2,0-8.57,25.94-19.65,25.94-31.77,0-2.94-1.82-9.53-6.8-9.53-13.93,0-31,36.23-55.4,36.23-3.4,0-5.34,0-5.34-3.6,0-4.63,8.52-12.26,8.52-16.48,0-2.19-2.53-2.67-4.71-2.67-14.44,0-20.69,27.45-32.08,27.45-14.19,0-24.26-35.61-36.59-35.61-3.08,0,4.68,10.69,4.68,20.27,0,6.33-2.72,11.36-9.45,11.36-10.35,0-14.14-8.17-25.08-8.17-7.09,0-13.19,4-17.75,9.83,6.61,3,14.76,5.21,21.21,6.71,32.89,7.63,68.29,14.83,100.82,14.83,22.28,0,93.56-5.74,113.93-22.8a9.71,9.71,0,0,0,.15-1.71C2678.22,1640.56,2668.49,1634.5,2661.13,1634.5Z" transform="translate(-1015 -1582)"/><ellipse class="cls-124" cx="2539.9" cy="213.53" rx="139.04" ry="38.42"/><ellipse class="cls-125" cx="2540.74" cy="210.54" rx="129.43" ry="27.23"/><path class="cls-126" d="M3416.05,1798.14s42.34,30.77,101.64,32.45,120.11-1.12,146-12.87,30.22-20.14,30.22-20.14,5.59,40.84-25.74,81.69-61,52.59-73.3,55.39-57.62,4.47-73.85-.56S3420,1886.54,3416.05,1798.14Z" transform="translate(-1015 -1582)"/><path class="cls-127" d="M3428.36,1797.21s2.42-6.53,7.83-9c4.58-2,12.29.12,12.29-1.44,0-2.58,2.56-5.69,7-5.69a31.62,31.62,0,0,1,5.1.61c.64-7,1.76-14.93,8.61-14.93a17.69,17.69,0,0,1,4.36.79c.37,0,.86-.14,1.34-.14,5.67,0-2-18.16,12-18.16a18.32,18.32,0,0,1,8.72,2.6c3-7.46,8.2-14.92,16.41-14.92,3.22,0,6.26,4.87,8.15,4.87,0,0,9.95-11.84,23.5-11.84,11.73,0,9.29,10.76,16.89,10.76,4.74,0,10.06-4.86,15.52-4.86,5.74,0,6.8,7.06,8.87,7.06,0,0,8.62-2.91,14.73-2.91,6.48,0,12.08,3.31,12.08,5.92,0,7.15-4.7,1.86,13.92,1.86,9.82,0,14.29,6.36,14.29,10v.44c0,1.24-.2,1.22,3.48,1.22,2.27,0,4.59-.14,6.88-.14,16.54,0,29.14,22.86,29.14,33.37,0,24.71-93.31,32.58-119.41,32.58-32.53,0-67.93-7.2-100.82-14.83C3448.88,1808,3434,1803.73,3428.36,1797.21Z" transform="translate(-1015 -1582)"/><path class="cls-128" d="M3657.13,1782.5c-13.47,0-33.27,25.91-55.28,25.91-1.78,0-9.68-.55-9.68-2,0-8.57,25.94-19.65,25.94-31.77,0-2.94-1.82-9.53-6.8-9.53-13.93,0-31,36.23-55.4,36.23-3.4,0-5.34,0-5.34-3.6,0-4.63,8.52-12.26,8.52-16.48,0-2.19-2.53-2.67-4.71-2.67-14.44,0-20.69,27.45-32.08,27.45-14.19,0-24.26-35.61-36.59-35.61-3.08,0,4.68,10.69,4.68,20.27,0,6.33-2.72,11.36-9.45,11.36-10.35,0-14.14-8.17-25.08-8.17-7.09,0-13.19,4-17.75,9.83,6.61,3,14.76,5.21,21.21,6.71,32.89,7.63,68.29,14.83,100.82,14.83,22.28,0,93.56-5.74,113.93-22.8a9.71,9.71,0,0,0,.15-1.71C3674.22,1788.56,3664.49,1782.5,3657.13,1782.5Z" transform="translate(-1015 -1582)"/><ellipse class="cls-129" cx="2266.9" cy="442.53" rx="139.04" ry="38.42"/><ellipse class="cls-130" cx="2267.74" cy="439.54" rx="129.43" ry="27.23"/><path class="cls-131" d="M3143.05,2027.14s42.34,30.77,101.64,32.45,120.11-1.12,146-12.87,30.22-20.14,30.22-20.14,5.59,40.84-25.74,81.69-61,52.59-73.3,55.39-57.62,4.47-73.85-.56S3147,2115.54,3143.05,2027.14Z" transform="translate(-1015 -1582)"/><path class="cls-132" d="M3155.36,2026.21s2.42-6.53,7.83-9c4.58-2,12.29.12,12.29-1.44,0-2.58,2.56-5.69,7-5.69a31.62,31.62,0,0,1,5.1.61c.64-7,1.76-14.93,8.61-14.93a17.69,17.69,0,0,1,4.36.79c.37,0,.86-.14,1.34-.14,5.67,0-2-18.16,12-18.16a18.32,18.32,0,0,1,8.72,2.6c3-7.46,8.2-14.92,16.41-14.92,3.22,0,6.26,4.87,8.15,4.87,0,0,9.95-11.84,23.5-11.84,11.73,0,9.29,10.76,16.89,10.76,4.74,0,10.06-4.86,15.52-4.86,5.74,0,6.8,7.06,8.87,7.06,0,0,8.62-2.91,14.73-2.91,6.48,0,12.08,3.31,12.08,5.92,0,7.15-4.7,1.86,13.92,1.86,9.82,0,14.29,6.36,14.29,10v.44c0,1.24-.2,1.22,3.48,1.22,2.27,0,4.59-.14,6.88-.14,16.54,0,29.14,22.86,29.14,33.37,0,24.71-93.31,32.58-119.41,32.58-32.53,0-67.93-7.2-100.82-14.83C3175.88,2037,3161,2032.73,3155.36,2026.21Z" transform="translate(-1015 -1582)"/><path class="cls-133" d="M3384.13,2011.5c-13.47,0-33.27,25.91-55.28,25.91-1.78,0-9.68-.55-9.68-2,0-8.57,25.94-19.65,25.94-31.77,0-2.94-1.82-9.53-6.8-9.53-13.93,0-31,36.23-55.4,36.23-3.4,0-5.34,0-5.34-3.6,0-4.63,8.52-12.26,8.52-16.48,0-2.19-2.53-2.67-4.71-2.67-14.44,0-20.69,27.45-32.08,27.45-14.19,0-24.26-35.61-36.59-35.61-3.08,0,4.68,10.69,4.68,20.27,0,6.33-2.72,11.36-9.45,11.36-10.35,0-14.14-8.17-25.08-8.17-7.09,0-13.19,4-17.75,9.83,6.61,3,14.76,5.21,21.21,6.71,32.89,7.63,68.29,14.83,100.82,14.83,22.28,0,93.56-5.74,113.93-22.8a9.71,9.71,0,0,0,.15-1.71C3401.22,2017.56,3391.49,2011.5,3384.13,2011.5Z" transform="translate(-1015 -1582)"/><path class="cls-134" d="M2642,2178.9s24.44,22.56,52.64,24.44c16.27,1.09,116.84,5.28,201.16,5.64,61.86.27,114.75-3,120.32-3.76,13.16-1.88,44.18-32,44.18-32Z" transform="translate(-1015 -1582)"/><path class="cls-135" d="M2566.76,2109.34s50.76,60.16,88.36,77.08,345.92,15,372.24,7.52,126-90.24,88.36-97.76S2651.36,2086.78,2566.76,2109.34Z" transform="translate(-1015 -1582)"/><ellipse class="cls-136" cx="1830" cy="519.82" rx="282" ry="52.64"/><ellipse class="cls-137" cx="1830" cy="517" rx="255.68" ry="42.3"/><path class="cls-138" d="M2618.52,2016.3c-.65,3.89,3.24,24,9.07,40.84s1.3,23.34,10.38,23.34,11.67-1.3,19.44,3.89,14.91,22,20.75,26.58,38.25,42.78,56.4,48.62,40.19,20.74,54.45,22,42.14,6.48,52.51,5.83,20.75,2.6,27.88-.64,8.43-7.14,13.61-7.14,17.51,3.89,31.12,0,38.9-23.33,52.51-27.22,19.45-13,27.23-13.62,29.82-25.93,37-31.76,11.67-18.8,15.56-32.42-.11-72.55-2.65-80.68S2618.52,2016.3,2618.52,2016.3Z" transform="translate(-1015 -1582)"/><path class="cls-139" d="M2894,2120.67s19.45,7.13,31.12,6.48,52.51-11,56.4-8.42,4.54,11.67,4.54,11.67-1.3,11-.65,8.42,8.43-31.11,4.54-35S2903.11,2122,2894,2120.67Z" transform="translate(-1015 -1582)"/><path class="cls-139" d="M3024.34,2060.38s6.48,18.8,6.48,25.93v20.75s10.37-22,11.67-35-3.89-37-3.89-37Z" transform="translate(-1015 -1582)"/><path class="cls-139" d="M2713.81,2077.89s14.27,32.41,29.18,40.84,45.38,18.8,57.69,20.09,46-1.29,49.27,3.89,5.19,22.69,9.08,28.53,6.48,1.29,8.42-3.24,9.08-11,9.08-16.21,5.1-18.73,4.82-22.65-6.77-6.52-6.77-6.52-84.27,5.18-114.09-13S2713.81,2077.89,2713.81,2077.89Z" transform="translate(-1015 -1582)"/><path class="cls-139" d="M2682.05,2081.78c-1.3-11-7.13-30.47-7.13-30.47l-44.73-17.51h-9.14a221.14,221.14,0,0,0,6.54,23.34c5.84,16.86,1.3,23.34,10.38,23.34s11.67-1.3,19.44,3.89,14.91,22,20.75,26.58c.49.38,1.16,1,2,1.8C2681.37,2103.05,2682.86,2088.7,2682.05,2081.78Z" transform="translate(-1015 -1582)"/><path class="cls-140" d="M2618.52,2016.3c1-2.37,32.41-26.58,53.8-31.76s38.25-1.3,47.33-5.19,55.75-18.8,67.42-19.45,71.31-22.69,84.27-27.23,55.11-16.85,83-13.61,60.29,22,72,35,20.74,40.84,18.15,66.12-29.82,73.25-49.27,84.92-121.87,24-143.26,25.93-83-6.48-97.24-14.26-66.45-55.42-72.94-57.37-42.13-7.78-50.56-15.56S2615,2024.4,2618.52,2016.3Z" transform="translate(-1015 -1582)"/><path class="cls-141" d="M3026.28,1954.07c-11.67-13-44.08-31.77-72-35s-70,9.08-83,13.61-72.6,26.58-84.27,27.23-58.35,15.56-67.42,19.45a19,19,0,0,1-3.46,1.06c-4.15,12.86-7.76,31-.11,45.94,12.32,24,57.7,56.4,80.39,58.34s55.1,9.73,65.47,7.78,28.53-5.18,35-11,23.34-17.5,23.34-17.5L2916.4,2097s21.39.65,36.95-4.54,34.36-17.5,44.73-25.28,38.25-37.6,44.73-50.57a35.44,35.44,0,0,0,2.06-5.26C3044.89,1988.67,3036.6,1965.54,3026.28,1954.07Z" transform="translate(-1015 -1582)"/><path class="cls-142" d="M3043.73,1996.9a1.09,1.09,0,0,0,.05-.17c-2.56-17.5-9.41-33.67-17.5-42.66-11.67-13-44.08-31.77-72-35s-70,9.08-83,13.61c-3.52,1.24-10.48,3.76-19,6.79-21.69,17.46-53,41.29-64.63,43.78-18.15,3.89-32.42,1.3-40.84,11s-5.19,33.06,7.13,44.73,33.06,24,54.45,27.88,44.08,10.37,59,7.13,35.66-1.95,44.09-7.78,16.2-9.08,16.2-5.19-7.13,19.45-4.53,21.39,37.59-7.78,57-15.55S3035.9,2020.93,3043.73,1996.9Z" transform="translate(-1015 -1582)"/><path class="cls-143" d="M2927.74,2033.16s-70,22.68-99.18,14.26-40.19-40.84-16.21-56.4,81-48.62,108.91-54.46,55.1-1.94,72.61,15.56,27.87,41.49,23.33,53.81-7.13,26.58-20.09,31.12-64.83,38.24-65.48,35.65,18.15-18.8,27.23-31.12S2927.74,2033.16,2927.74,2033.16Z" transform="translate(-1015 -1582)"/><path class="cls-144" d="M2687.88,2046.77c9.73,1.3,18.15.65,22,3.89s49.92,38.89,58.35,41.49,66.12,21.39,79.09,20.74,52.51-1.94,64.18-3.24,58.34-6.48,75.84-17.5,42.79-48.62,42.79-48.62-5.83,5.83-11,11.67-48.62,40.84-60.29,42.78-38.9,3.89-47.32,3.24-1.3-11.67-1.3-11.67l-11.67,5.84c-7.78,3.89-27.87,6.48-45.38,8.43s-53.8-10.38-69.36-12.32-53.16-31.12-68.72-48.62c-11.93-13.42-10.9-45.14-9.19-61.54l-1.12,0c-2.12,8.63-4.87,20.92-5.28,28.17-.68,12-3.86,21.67-18.77,24.26s-62.23-17.5-62.23-17.5,19.45,19.45,32.41,23.34S2678.16,2045.47,2687.88,2046.77Z" transform="translate(-1015 -1582)"/><path class="cls-145" d="M2686.59,2018.25c5.18-6.49,7.13-23.34,9.07-29.18a26.07,26.07,0,0,0,.86-7.51,116.31,116.31,0,0,0-24.2,3c-14.07,3.41-32.47,15.06-43.7,23.3a3,3,0,0,0,.89,1.7c4.57,4.17,26.61,15.19,35,15.84S2681.4,2024.73,2686.59,2018.25Z" transform="translate(-1015 -1582)"/><path class="cls-141" d="M2686.59,2018.25c4.36-5.45,6.43-18.23,8.13-25.63-8.74.55-25.29,1.88-29.53,4.23-5.83,3.24-13,4.54-15.55,5.84s-1.3,7.13,3.89,9.07,10.3,3.33,13.9,1.67,8.14-8.15,11.38-3.61c1.94,2.72,2,8.93,2.61,12.77A17.44,17.44,0,0,0,2686.59,2018.25Z" transform="translate(-1015 -1582)"/><path class="cls-146" d="M2912.18,1969.63c-4.53-8.43-14.91-5.84-9.72-17.51s6.48-10.37,9.08-18.15a77.87,77.87,0,0,0,2.5-12.34,317.48,317.48,0,0,0-38.26,9.56c-6.28,9.74-12.16,21.65-10,29.73,4.26,15.84,20.46,15.84,28.24,23.62s6.49,18.8,2.6,25.28a57.52,57.52,0,0,1-9.73,11.67s20.75,1.29,24.64-13.62S2916.72,1978.05,2912.18,1969.63Z" transform="translate(-1015 -1582)"/><path class="cls-147" d="M2910.24,1982.59c-2.59-9.08-20.74-16.21-20.1-27.23s5.75-25.18,7.74-27.5a11.3,11.3,0,0,0,1.48-3.16c-5.1,1.2-9.87,2.45-14.08,3.64-4.09,11.17-9.86,28.93-6.81,32.86,4.54,5.83,19.45,14.91,23.34,23.34s0,25.93,0,25.93S2912.83,1991.67,2910.24,1982.59Z" transform="translate(-1015 -1582)"/><path class="cls-139" d="M2709.24,2114.55c-5.66-6.79-16.28-21.66-7.49-21.66a1,1,0,0,1,.69.27c1.86,7.47,10.74,10.44,10.74,18.42,0,.34,0,.68,0,1C2713,2114.54,2711.19,2114.55,2709.24,2114.55Z" transform="translate(-1015 -1582)"/><path class="cls-139" d="M2734.52,2145.67c-5.6-.7-12.18-5.93-12.18-10.66,0-3.29,3.54-5.86,6.74-5.86,3.35,0,15,5.2,15,10.11,0,2.84-2.36,5.9-6.6,7.12" transform="translate(-1015 -1582)"/><path class="cls-139" d="M2774.39,2162.2c-4.76-.68-7.15-4.7-7.15-8.72,0-3.19,1.67-7.22,4.92-7.22,1.25,0,10.87,6,10.87,11.6,0,3.36-1.62,5.53-5.41,5.53-1.43,0-2.94-.22-4.2-.22" transform="translate(-1015 -1582)"/><path class="cls-139" d="M2814.3,2169.29s-6.49-4.54-7.14-7.78,2-9.07,2-9.07h5.83l3.89,7.78-.64,7.78Z" transform="translate(-1015 -1582)"/><path class="cls-139" d="M2834.39,2171.24a12.1,12.1,0,0,1-5.83-7.78c-.65-3.24,3.24-9.73,3.24-9.73l6.48,1.95,5.84,6.48-1.95,7.13Z" transform="translate(-1015 -1582)"/><polygon class="cls-139" points="1890.7 580.16 1885.52 569.79 1890.7 564.6 1898.48 566.55 1899.13 574.33 1890.7 580.16"/><polygon class="cls-139" points="1914.04 560.07 1919.87 554.23 1925.71 556.82 1916.63 566.55 1914.04 560.07"/><path class="cls-139" d="M2962.1,2136.88l2.59-6.48,5.19,5.83-1.94,8.43-7.78,1.29-3.24-7.13C2962.75,2136.23,2962.1,2136.88,2962.1,2136.88Z" transform="translate(-1015 -1582)"/><path class="cls-139" d="M3008.78,2111.6l1.94-4.54,4.54-9.08,3.89,5.19-2.59,7.78C3009.42,2114.84,3008.78,2111.6,3008.78,2111.6Z" transform="translate(-1015 -1582)"/><path class="cls-139" d="M2886.25,2169.29l6.49-7.78,7.78,3.89s2.59,3.24-.65,4.54a50.12,50.12,0,0,1-5.84,1.95Z" transform="translate(-1015 -1582)"/><path class="cls-148" d="M1273.94,1882.84s25.54-2.73,42.87,5.47,28.27,14.6,43.78,11.86,26.45-10.94,29.18-12.77,17.33-10,17.33-10,3.65,16.42-1.82,32.83-24.63,43.78-46.52,49.25-58.37-.91-65.66-10S1268.47,1903.82,1273.94,1882.84Z" transform="translate(-1015 -1582)"/><path class="cls-149" d="M1377.69,1956.49c21-15,31.23-31.69,32.15-61.34S1387,1819,1387,1819l-97.59.91c-17.33,19.15-24.27,65.65-18.7,92.57,5.47,26.45,27.82,47.88,42.41,53.36s20.07,28.27,20.07,28.27-1.6,64.53-2.06,70.91-4.1,10.94-9.12,11.86-24.17,1.82-31.92,2.73-4.56,7.75-1.82,7.3,103.06,2.28,104.88-2.74-9.58-5-13.68-6.38-24.17-.46-31-8.21-3.65-58.83-1.82-74.79S1356.71,1971.54,1377.69,1956.49Zm-56.55,0c-26.9-3.19-37.85-32.38-43.78-52.9s14.6-75.24,15.51-78.43l92.11.91s15.28,62.7,15.28,70.45c0,8.32-5.7,38.08-19.84,47.2S1348.05,1959.68,1321.14,1956.49Z" transform="translate(-1015 -1582)"/><path class="cls-150" d="M1288.54,1822.19s95.76.46,99,4.11,14.59,44.69,15.51,70.22-16.88,52.9-37.4,61.11-48.34,2.73-57.91-1.83-37.39-46.51-36-64.75S1288.54,1822.19,1288.54,1822.19Z" transform="translate(-1015 -1582)"/><path class="cls-151" d="M2611.94,1735.84s25.54-2.73,42.87,5.47,28.27,14.6,43.78,11.86,26.45-10.94,29.18-12.77,17.33-10,17.33-10,3.65,16.42-1.82,32.83-24.63,43.78-46.52,49.25-58.37-.91-65.66-10S2606.47,1756.82,2611.94,1735.84Z" transform="translate(-1015 -1582)"/><path class="cls-152" d="M2715.69,1809.49c21-15,31.23-31.69,32.15-61.34S2725,1672,2725,1672l-97.59.91c-17.33,19.15-24.27,65.65-18.7,92.57,5.47,26.45,27.82,47.88,42.41,53.36s20.07,28.27,20.07,28.27-1.6,64.53-2.06,70.91-4.1,10.94-9.12,11.86-24.17,1.82-31.92,2.73-4.56,7.75-1.82,7.3,103.06,2.28,104.88-2.74-9.58-5-13.68-6.38-24.17-.46-31-8.21-3.65-58.83-1.82-74.79S2694.71,1824.54,2715.69,1809.49Zm-56.55,0c-26.9-3.19-37.85-32.38-43.78-52.9s14.6-75.24,15.51-78.43l92.11.91s15.28,62.7,15.28,70.45c0,8.32-5.7,38.08-19.84,47.2S2686.05,1812.68,2659.14,1809.49Z" transform="translate(-1015 -1582)"/><path class="cls-153" d="M2626.54,1675.19s95.76.46,98.95,4.11,14.59,44.69,15.51,70.22-16.88,52.9-37.4,61.11-48.34,2.73-57.91-1.83-37.39-46.51-36-64.75S2626.54,1675.19,2626.54,1675.19Z" transform="translate(-1015 -1582)"/><path class="cls-154" d="M3460.94,1870.84s25.54-2.73,42.87,5.47,28.27,14.6,43.78,11.86,26.45-10.94,29.18-12.77,17.33-10,17.33-10,3.65,16.42-1.82,32.83-24.63,43.78-46.52,49.25-58.37-.91-65.66-10S3455.47,1891.82,3460.94,1870.84Z" transform="translate(-1015 -1582)"/><path class="cls-155" d="M3564.69,1944.49c21-15,31.23-31.69,32.15-61.34S3574,1807,3574,1807l-97.59.91c-17.33,19.15-24.27,65.65-18.7,92.57,5.47,26.45,27.82,47.88,42.41,53.36s20.07,28.27,20.07,28.27-1.6,64.53-2.06,70.91-4.1,10.94-9.12,11.86-24.17,1.82-31.92,2.73-4.56,7.75-1.82,7.3,103.06,2.28,104.88-2.74-9.58-5-13.68-6.38-24.17-.46-31-8.21-3.65-58.83-1.82-74.79S3543.71,1959.54,3564.69,1944.49Zm-56.55,0c-26.9-3.19-37.85-32.38-43.78-52.9s14.6-75.24,15.51-78.43l92.11.91s15.28,62.7,15.28,70.45c0,8.32-5.7,38.08-19.84,47.2S3535.05,1947.68,3508.14,1944.49Z" transform="translate(-1015 -1582)"/><path class="cls-156" d="M3475.54,1810.19s95.76.46,98.95,4.11,14.59,44.69,15.51,70.22-16.88,52.9-37.4,61.11-48.34,2.73-57.91-1.83-37.39-46.51-36-64.75S3475.54,1810.19,3475.54,1810.19Z" transform="translate(-1015 -1582)"/><path class="cls-157" d="M2068.94,1987.84s25.54-2.73,42.87,5.47,28.27,14.6,43.78,11.86,26.45-10.94,29.18-12.77,17.33-10,17.33-10,3.65,16.42-1.82,32.83-24.63,43.78-46.52,49.25-58.37-.91-65.66-10S2063.47,2008.82,2068.94,1987.84Z" transform="translate(-1015 -1582)"/><path class="cls-158" d="M2172.69,2061.49c21-15,31.23-31.69,32.15-61.34S2182,1924,2182,1924l-97.59.91c-17.33,19.15-24.27,65.65-18.7,92.57,5.47,26.45,27.82,47.88,42.41,53.36s20.07,28.27,20.07,28.27-1.6,64.53-2.06,70.91-4.1,10.94-9.12,11.86-24.17,1.82-31.92,2.73-4.56,7.75-1.82,7.3,103.06,2.28,104.88-2.74-9.58-5-13.68-6.38-24.17-.46-31-8.21-3.65-58.83-1.82-74.79S2151.71,2076.54,2172.69,2061.49Zm-56.55,0c-26.9-3.19-37.85-32.38-43.78-52.9s14.6-75.24,15.51-78.43l92.11.91s15.28,62.7,15.28,70.45c0,8.32-5.7,38.08-19.84,47.2S2143.05,2064.68,2116.14,2061.49Z" transform="translate(-1015 -1582)"/><path class="cls-159" d="M2083.54,1927.19s95.76.46,98.95,4.11,14.59,44.69,15.51,70.22-16.88,52.9-37.4,61.11-48.34,2.73-57.91-1.83-37.39-46.51-36-64.75S2083.54,1927.19,2083.54,1927.19Z" transform="translate(-1015 -1582)"/></svg>