<svg id="图层_1" data-name="图层 1" xmlns="http://www.w3.org/2000/svg" viewBox="0 0 956.49 2494.39"><defs><style>.cls-1,.cls-2,.cls-3,.cls-4{fill:#45b4ff;}.cls-2{opacity:0.8;}.cls-3{opacity:0.6;}.cls-4{opacity:0.4;}</style></defs><title>jiantou3</title><path class="cls-1" d="M2018.63,3045.58l305.49-305.49a101.19,101.19,0,0,0,0-143.11h0a101.19,101.19,0,0,0-143.11,0l-233.94,233.93a101.19,101.19,0,0,1-143.11,0L1570,2597a101.2,101.2,0,0,0-143.12,0h0a101.19,101.19,0,0,0,0,143.11l305.49,305.49,71.56,71.56a101.19,101.19,0,0,0,143.11,0Z" transform="translate(-1397.27 -652.39)"/><path class="cls-2" d="M2018.63,2407.27l305.49-305.5a101.19,101.19,0,0,0,0-143.11h0a101.19,101.19,0,0,0-143.11,0L1947.07,2192.6a101.19,101.19,0,0,1-143.11,0L1570,1958.66a101.19,101.19,0,0,0-143.11,0h0a101.2,101.2,0,0,0,0,143.12l305.49,305.49,71.56,71.55a101.19,101.19,0,0,0,143.11,0Z" transform="translate(-1397.27 -652.39)"/><path class="cls-3" d="M2018.63,1769l305.49-305.49a101.19,101.19,0,0,0,0-143.11h0a101.19,101.19,0,0,0-143.11,0l-233.94,233.93a101.19,101.19,0,0,1-143.11,0L1570,1320.35a101.19,101.19,0,0,0-143.11,0h0a101.19,101.19,0,0,0,0,143.11L1732.4,1769l71.56,71.56a101.19,101.19,0,0,0,143.11,0Z" transform="translate(-1397.27 -652.39)"/><path class="cls-4" d="M2018.63,1130.64l305.49-305.5a101.19,101.19,0,0,0,0-143.11h0A101.19,101.19,0,0,0,2181,682L1947.07,916A101.19,101.19,0,0,1,1804,916L1570,682a101.19,101.19,0,0,0-143.11,0h0a101.2,101.2,0,0,0,0,143.12l305.49,305.49,71.56,71.55a101.19,101.19,0,0,0,143.11,0Z" transform="translate(-1397.27 -652.39)"/></svg>