<svg id="图层_1" data-name="图层 1" xmlns="http://www.w3.org/2000/svg" xmlns:xlink="http://www.w3.org/1999/xlink" viewBox="0 0 197.31 47.76"><defs><style>.cls-1{fill:#221e1f;stroke:#221e1f;stroke-miterlimit:10;stroke-width:0.25px;}.cls-2{fill:url(#linear-gradient);}.cls-3{fill:url(#linear-gradient-2);}.cls-4{fill:url(#橙色_黄色_2);}</style><linearGradient id="linear-gradient" x1="47.76" y1="29.96" x2="64.44" y2="29.96" gradientTransform="translate(0 0.01)" gradientUnits="userSpaceOnUse"><stop offset="0" stop-color="#fff100" stop-opacity="0.7"/><stop offset="1" stop-color="#51a446"/></linearGradient><linearGradient id="linear-gradient-2" x1="56.25" y1="64.94" x2="70.34" y2="31.64" gradientTransform="translate(0 0.01)" gradientUnits="userSpaceOnUse"><stop offset="0.23" stop-color="#77d1f6"/><stop offset="0.59" stop-color="#55a8dd"/><stop offset="1" stop-color="#0a73ba"/></linearGradient><linearGradient id="橙色_黄色_2" x1="44.9" y1="73.69" x2="54.02" y2="32.24" gradientTransform="translate(0 0.01)" gradientUnits="userSpaceOnUse"><stop offset="0" stop-color="#fcee40"/><stop offset="0.04" stop-color="#fce333"/><stop offset="0.12" stop-color="#fcd320"/><stop offset="0.2" stop-color="#fcc915"/><stop offset="0.28" stop-color="#fcc611"/><stop offset="0.67" stop-color="#f18f3f"/><stop offset="0.89" stop-color="#ed683b"/><stop offset="1" stop-color="#e73e38"/></linearGradient></defs><title>logo</title><path class="cls-1" d="M92.56,42.87h12.27V35.23H98.91a51.48,51.48,0,0,1-8.45,6.21C94.14,37,101,28.17,103.54,18.1l6.3,2.77a2.1,2.1,0,0,1-1.63,1.57c2.44,3,8.93,8.74,16.38,8.93a31.93,31.93,0,0,0-3.16,7.15,25.05,25.05,0,0,1-5.11-3.29h-7.06v7.64H122l-.42.81H109.26v14.7h1.58c1.58-5.06,3.25-10.08,3.67-13.65l6.07,3.34a2,2,0,0,1-1.81,1.2c-1.24,1.95-5.59,7.34-7.88,9.11h12.89l-.39.86h-32l-.33-.86h13.75V43.68H92.89ZM98,57.57a81.66,81.66,0,0,0-2.77-12.46c3.49,1.43,7.16,5,6.74,8.5C101.68,56.19,99.77,57.05,98,57.57Zm1.72-23.15h15.65c-3.43-3.1-5.68-7-7.49-11.69A42.22,42.22,0,0,1,99.72,34.42Z" transform="translate(-40 -16.22)"/><path class="cls-1" d="M148.64,19.77a2.13,2.13,0,0,1-1.62,2c.09,3.58.09,6.83-.05,9.74h15.08l-.42.9h-13.8c2.43,8.26,6.78,17.47,14.8,22.11a55.52,55.52,0,0,0-6,6.53c-4.58-4.82-8.69-15.8-9.06-28.64h-.63c-1,18.19-7.21,24.35-18.65,29.74,8.4-8.25,12.64-15.89,13.5-29.74H129.41l-.29-.91h12.7c.19-3.77.14-8-.1-12.89Z" transform="translate(-40 -16.22)"/><path class="cls-1" d="M166.87,23.44h33.27l-.43.76H181.82c0,3.91-.1,7.39-.39,10.59h9.94l4.81-1.34-.67,16.37c-.28,7.93-1.86,11.31-9,12.22.43-3-2.67-5.73-5.77-6.49l6.11.43c2.29.19,3.34-1.43,3.62-5l.81-15.42h-9.93c-.95,10.69-4,18.23-14.17,26.39,8.16-11.64,9.74-23.33,9.68-37.79h-9.68Z" transform="translate(-40 -16.22)"/><path class="cls-1" d="M205.16,27.64h6.63L213,18l5,2.2c-.29.81-.72,1.1-1.29,1.05l-4.11,6.35h5.59l-.38.81h-4.4l.1,7.06h4.2l-.43.77h-3.77c-.05,2.43-.1,4.91-.33,7.35h5.34l-.38.71H213c-.72,6.69-2.76,13.08-8.06,17.37,2.81-5.44,3.77-11.16,4.11-17.37h-3.59l-.33-.71h4c.09-2.34.14-4.82.14-7.35h-3.49l-.38-.77h3.87l0-7.06h-3.72Zm2.76-.67a60.63,60.63,0,0,0-1.71-8.45c3.29,1,4.72,2.68,4.72,5.3A2.76,2.76,0,0,1,207.92,27ZM218,23.2h4.77l3.87-1.34V56.23c0,4-1.43,4.58-5.25,5,.1-1.43,0-3.77-4.67-5.39l4.72.43c.91.14,1.34-1,1.34-1.91v-10c-1.15,2.06-2.44,3.73-3.73,5.69a1.79,1.79,0,0,1-.66,1.76l-2.64-5.68a34.17,34.17,0,0,0,7-3.53V24h-4.48Zm.15,5.4c2.67,1.9,4.2,4.33,4.34,6.2.19,2.63-1.67,4-3.1,3.43C219.23,36,218.52,30.89,218.19,28.6Zm9.92-5.3h4.77l4.3-1.34V55.89c0,3.92-1.91,5.25-5.68,5.64.1-1.44-.09-4.16-4.67-5.73l4.72.38c.86.14,1.33-1,1.33-1.91V43.48c-.76,1.34-1.57,2.63-2.33,3.77a2.08,2.08,0,0,1-.81,1.91l-2.34-6a48.19,48.19,0,0,0,5.48-2.48V24.06h-4.43Zm-.38,5.19c2.77,1.2,4.87,4.31,4.68,6.74s-2,3.43-3.48,2.86C228.69,35.89,228.11,30.84,227.73,28.49Z" transform="translate(-40 -16.22)"/><path class="cls-2" d="M60.14,16.22c-1.56,4-5,8.23-10.41,12.84-3.67,3.12-1.44,10.38.35,14.65,2.28-6,11-12.69,14.36-14.73C60.9,25.52,60,20.52,60.14,16.22Z" transform="translate(-40 -16.22)"/><path class="cls-3" d="M65.19,30.14C61.56,32.1,48.67,43,49.73,52.48c1,8.41,15.48,14.63,19.83-.62a11.29,11.29,0,0,1-5.09,5c-4.61,2-8-1.81-6.37-6.54C59.62,46,65.21,46.42,65,41.7c11.32,8.16,2,19-2.8,20.51,6.38,1.36,17-9.58,12.66-19.77C72.47,36.76,69.68,37.06,65.19,30.14Z" transform="translate(-40 -16.22)"/><path class="cls-4" d="M42.12,36.76c.66,6.57-1.91,7.34-2.11,11.93-.33,7.68,7.14,18,18.09,14.63-10.34-2.17-11.46-10.67-10.58-18C48,41.09,46,37.53,42.12,36.76Z" transform="translate(-40 -16.22)"/></svg>