<svg xmlns="http://www.w3.org/2000/svg" xmlns:xlink="http://www.w3.org/1999/xlink" viewBox="0 0 2556.1 1917.07"><defs><style>.cls-1{isolation:isolate;}.cls-2{fill:none;}.cls-3{fill:#037763;}.cls-4{fill:#7d5147;}.cls-5{fill:#019682;}.cls-6{fill:#8a674e;}.cls-7{fill:#684b45;}.cls-8{fill:#fff;}.cls-9{fill:#62c8d7;}.cls-10{fill:#8ad1e2;}.cls-11{fill:#e7b088;}.cls-12{fill:#f2c4a5;}.cls-13{fill:#e8af1f;}.cls-14{fill:#fecc3d;}.cls-15{fill:#016200;}.cls-16{fill:#0d720a;}.cls-17{opacity:0.49;mix-blend-mode:multiply;fill:url(#铃琨眄_沭噤桢眚_3);}.cls-18{fill:#f15a29;}.cls-19{fill:#e44c1b;}</style><linearGradient id="铃琨眄_沭噤桢眚_3" x1="429.66" y1="1370.24" x2="2220.99" y2="1370.24" gradientUnits="userSpaceOnUse"><stop offset="0" stop-color="#bcbec0"/><stop offset="1" stop-color="#fff"/></linearGradient></defs><title>supermarket</title><g class="cls-1"><g id="图层_2" data-name="图层 2"><rect class="cls-2" width="2556.1" height="1917.07"/></g><g id="图层_1" data-name="图层 1"><g id="_3" data-name="3"><rect class="cls-3" x="429.66" y="676.99" width="1725.29" height="1088.01"/><rect class="cls-3" x="459.56" y="638.66" width="1665.46" height="1126.34"/><rect class="cls-4" x="363.63" y="1765" width="1857.35" height="89.46"/><rect class="cls-5" x="455.36" y="780.6" width="124.59" height="931.92"/><rect class="cls-5" x="627.52" y="780.6" width="124.59" height="931.92"/><rect class="cls-5" x="799.65" y="780.6" width="124.59" height="931.92"/><rect class="cls-5" x="971.78" y="780.6" width="124.59" height="931.92"/><rect class="cls-5" x="1143.95" y="780.6" width="124.59" height="931.92"/><rect class="cls-5" x="1316.08" y="780.6" width="124.59" height="931.92"/><rect class="cls-5" x="1488.21" y="780.6" width="124.59" height="931.92"/><rect class="cls-5" x="1660.37" y="780.6" width="124.59" height="931.92"/><rect class="cls-5" x="1832.51" y="780.6" width="124.59" height="931.92"/><rect class="cls-5" x="2004.64" y="780.6" width="124.59" height="931.92"/><rect class="cls-3" x="425.26" y="134.76" width="1734.1" height="545.1"/><rect class="cls-5" x="455.36" y="189.85" width="124.59" height="403.66"/><rect class="cls-5" x="627.52" y="189.85" width="124.59" height="403.66"/><rect class="cls-5" x="799.65" y="189.85" width="124.59" height="403.66"/><rect class="cls-5" x="971.78" y="189.85" width="124.59" height="403.66"/><rect class="cls-5" x="1143.95" y="189.85" width="124.59" height="403.66"/><rect class="cls-5" x="1316.08" y="189.85" width="124.59" height="403.66"/><rect class="cls-5" x="1488.21" y="189.85" width="124.59" height="403.66"/><rect class="cls-5" x="1660.37" y="189.85" width="124.59" height="403.66"/><rect class="cls-5" x="1832.51" y="189.85" width="124.59" height="403.66"/><rect class="cls-5" x="2004.64" y="189.85" width="124.59" height="403.66"/><rect class="cls-4" x="363.63" y="95.01" width="1857.35" height="39.75"/><polygon class="cls-6" points="2167.05 134.76 417.53 134.76 417.53 135.41 471.99 189.85 2167.05 189.85 2167.05 134.76"/><polygon class="cls-7" points="417.53 189.85 471.99 189.85 417.53 135.41 417.53 189.85"/><rect class="cls-6" x="417.53" y="1711.92" width="1749.52" height="55.09"/><rect class="cls-8" x="1028.23" y="879.61" width="521.45" height="689.39"/><polygon class="cls-9" points="1510.94 930.79 1121.42 930.79 1510.94 1320.34 1510.94 930.79"/><polygon class="cls-9" points="1510.94 1427.62 1066.96 983.61 1066.96 1066.5 1510.94 1510.51 1510.94 1427.62"/><polygon class="cls-10" points="1510.94 1517.83 1510.94 1510.51 1066.96 1066.5 1066.96 1105.51 1479.28 1517.83 1510.94 1517.83"/><polygon class="cls-9" points="1479.28 1517.83 1066.96 1105.51 1066.96 1517.83 1479.28 1517.83"/><polygon class="cls-10" points="1510.94 1320.34 1121.42 930.79 1066.96 930.79 1066.96 983.61 1510.94 1427.62 1510.94 1320.34"/><rect class="cls-8" x="505.83" y="879.61" width="521.42" height="689.39"/><polygon class="cls-9" points="988.54 930.79 598.99 930.79 988.54 1320.34 988.54 930.79"/><polygon class="cls-9" points="988.54 1427.62 544.54 983.61 544.54 1066.5 988.54 1510.51 988.54 1427.62"/><polygon class="cls-10" points="988.54 1517.83 988.54 1510.51 544.54 1066.5 544.54 1105.51 956.88 1517.83 988.54 1517.83"/><polygon class="cls-9" points="956.88 1517.83 544.54 1105.51 544.54 1517.83 956.88 1517.83"/><polygon class="cls-10" points="988.54 1320.34 598.99 930.79 544.54 930.79 544.54 983.61 988.54 1427.62 988.54 1320.34"/><rect class="cls-8" x="1604.42" y="849.73" width="473.62" height="861.55"/><polygon class="cls-9" points="2033.53 916.2 1722.49 916.2 2033.53 1227.25 2033.53 916.2"/><polygon class="cls-10" points="2033.53 1227.25 1722.49 916.2 1648.9 916.2 1648.9 925.26 2033.53 1309.88 2033.53 1227.25"/><polygon class="cls-9" points="2033.53 1309.88 1648.9 925.26 1648.9 1198.59 1923.94 1473.63 2033.53 1473.63 2033.53 1309.88"/><polygon class="cls-10" points="1923.94 1473.63 1648.9 1198.59 1648.9 1473.63 1923.94 1473.63"/><polygon class="cls-10" points="1648.9 1511.17 1648.9 1663.73 1853.41 1663.73 1700.84 1511.17 1648.9 1511.17"/><polygon class="cls-9" points="1700.84 1511.17 1853.41 1663.73 1923.32 1663.73 1770.75 1511.17 1700.84 1511.17"/><polygon class="cls-10" points="2033.53 1511.17 1770.75 1511.17 1923.32 1663.73 2033.53 1663.73 2033.53 1511.17"/><path class="cls-8" d="M1850.49,1333.56a28.24,28.24,0,1,1-28.24-28.24A28.25,28.25,0,0,1,1850.49,1333.56Z" transform="translate(-121.41 -41.39)"/><polygon class="cls-8" points="1734.1 1160.89 1765.08 1231.29 1955.01 1147.77 1924.07 1077.37 1734.1 1160.89"/><rect class="cls-11" x="1882.15" y="1164.65" width="167.67" height="62.14" transform="translate(-436.4 850.99) rotate(-23.73)"/><polygon class="cls-8" points="1736.42 1162.58 1731.82 1159.23 1810.59 1051.19 1924.62 1074.6 1923.51 1080.15 1813.04 1057.48 1736.42 1162.58"/><rect class="cls-11" x="1439.92" y="323.73" width="635.73" height="232.7"/><rect class="cls-12" x="1502.33" y="366.9" width="510.88" height="146.36"/><path class="cls-13" d="M1649.08,1619.39H1528.56v34L1631.18,1756h0a17.89,17.89,0,0,0,17.9-17.9Z" transform="translate(-121.41 -41.39)"/><path class="cls-14" d="M1528.56,1653.43v84.7a17.9,17.9,0,0,0,17.91,17.9h84.71Z" transform="translate(-121.41 -41.39)"/><path class="cls-15" d="M1735,1564.38a45,45,0,0,0-30.65-42.68,45,45,0,0,0-27.52-39,45,45,0,0,0-70-29.54,45,45,0,0,0-80.68,11.88c-.61,0-1.27,0-1.92,0a45,45,0,0,0-45,45,45.62,45.62,0,0,0,1,9.27h-1a45,45,0,1,0,0,90.09c.65,0,1.27,0,1.92,0a45,45,0,0,0,43.11,58,44.69,44.69,0,0,0,25-7.6,45.07,45.07,0,0,0,80.51-8.91,45,45,0,0,0,74.64-33.93,43.92,43.92,0,0,0-1-9.6A45.05,45.05,0,0,0,1735,1564.38Z" transform="translate(-121.41 -41.39)"/><path class="cls-16" d="M1479.23,1538.8a30.53,30.53,0,1,0,30.52,30.53A30.55,30.55,0,0,0,1479.23,1538.8Z" transform="translate(-121.41 -41.39)"/><path class="cls-16" d="M1524.26,1549.88a30.54,30.54,0,1,0-30.52-30.54A30.55,30.55,0,0,0,1524.26,1549.88Z" transform="translate(-121.41 -41.39)"/><path class="cls-16" d="M1569.32,1506.13a30.54,30.54,0,1,0-30.52-30.53A30.52,30.52,0,0,0,1569.32,1506.13Z" transform="translate(-121.41 -41.39)"/><path class="cls-16" d="M1538.8,1569.33a30.54,30.54,0,1,0,30.52,30.53A30.54,30.54,0,0,0,1538.8,1569.33Z" transform="translate(-121.41 -41.39)"/><path class="cls-16" d="M1644.91,1573.48a30.54,30.54,0,1,0,30.52,30.54A30.57,30.57,0,0,0,1644.91,1573.48Z" transform="translate(-121.41 -41.39)"/><path class="cls-16" d="M1659.42,1502.71a30.54,30.54,0,1,0,30.52,30.53A30.56,30.56,0,0,0,1659.42,1502.71Z" transform="translate(-121.41 -41.39)"/><path class="cls-16" d="M1587.39,1513.63a30.53,30.53,0,1,0,30.52,30.52A30.53,30.53,0,0,0,1587.39,1513.63Z" transform="translate(-121.41 -41.39)"/><path class="cls-8" d="M1509.75,1534.68a17.92,17.92,0,1,0,17.94,17.92A17.91,17.91,0,0,0,1509.75,1534.68Z" transform="translate(-121.41 -41.39)"/><path class="cls-8" d="M1554.82,1498.93a17.93,17.93,0,1,0-17.94-17.92A17.91,17.91,0,0,0,1554.82,1498.93Z" transform="translate(-121.41 -41.39)"/><path class="cls-8" d="M1632.29,1513.63a17.92,17.92,0,1,0-17.94,17.92A17.94,17.94,0,0,0,1632.29,1513.63Z" transform="translate(-121.41 -41.39)"/><path class="cls-8" d="M1556.83,1599.05a17.93,17.93,0,1,0,17.94,17.93A17.92,17.92,0,0,0,1556.83,1599.05Z" transform="translate(-121.41 -41.39)"/><path class="cls-8" d="M1675.43,1559.41a17.92,17.92,0,1,0,17.93,17.92A17.92,17.92,0,0,0,1675.43,1559.41Z" transform="translate(-121.41 -41.39)"/><path class="cls-8" d="M1632.42,1599.05a17.93,17.93,0,1,0,17.93,17.93A17.91,17.91,0,0,0,1632.42,1599.05Z" transform="translate(-121.41 -41.39)"/><polygon class="cls-17" points="429.66 943.51 1251.13 1765 1340.57 1854.46 2220.99 1854.46 2220.99 1765 2154.95 1765 2154.95 886.02 483.4 886.02 429.66 913.56 429.66 943.51"/><polygon class="cls-18" points="467.19 640.74 336.31 844.12 483.37 844.12 594.13 640.74 467.19 640.74"/><polygon class="cls-12" points="594.13 640.74 483.6 843.71 630.62 843.71 721.07 640.74 594.13 640.74"/><polygon class="cls-18" points="721.07 640.74 630.55 843.92 777.61 843.92 848.01 640.74 721.07 640.74"/><polygon class="cls-12" points="848.01 640.74 777.74 843.52 924.77 843.52 974.95 640.74 848.01 640.74"/><polygon class="cls-18" points="974.95 640.74 924.7 843.71 1071.76 843.71 1101.89 640.74 974.95 640.74"/><polygon class="cls-12" points="1101.89 640.74 1071.82 843.32 1218.81 843.32 1228.82 640.74 1101.89 640.74"/><polygon class="cls-18" points="1228.82 640.74 1218.78 843.52 1365.81 843.52 1355.76 640.74 1228.82 640.74"/><polygon class="cls-12" points="1355.76 640.74 1365.81 843.11 1512.76 843.11 1482.7 640.74 1355.76 640.74"/><polygon class="cls-18" points="1482.7 640.74 1512.8 843.32 1659.79 843.32 1609.64 640.74 1482.7 640.74"/><polygon class="cls-12" points="1609.64 640.74 1659.69 842.91 1806.65 842.91 1736.58 640.74 1609.64 640.74"/><polygon class="cls-18" points="1736.58 640.74 1806.71 843.11 1953.71 843.11 1863.52 640.74 1736.58 640.74"/><polygon class="cls-12" points="1863.52 640.74 1953.51 842.72 2100.47 842.72 1990.46 640.74 1863.52 640.74"/><polygon class="cls-18" points="1990.46 640.74 2100.57 842.91 2247.53 842.91 2117.39 640.74 1990.46 640.74"/><path class="cls-19" d="M457.72,883.49v50c0,20.67,32.9,37.45,73.53,37.45s73.53-16.78,73.53-37.45v-50Z" transform="translate(-121.41 -41.39)"/><path class="cls-11" d="M604.78,883.49v50c0,20.67,32.93,37.45,73.53,37.45s73.56-16.78,73.56-37.45v-50Z" transform="translate(-121.41 -41.39)"/><path class="cls-19" d="M751.87,883.49v50c0,20.69,32.93,37.45,73.53,37.45s73.53-16.76,73.53-37.45v-50Z" transform="translate(-121.41 -41.39)"/><path class="cls-11" d="M898.93,883.49v49.92c0,20.69,32.93,37.45,73.56,37.45S1046,954.1,1046,933.41V883.49Z" transform="translate(-121.41 -41.39)"/><path class="cls-19" d="M1046,883.49v50c0,20.67,32.93,37.45,73.52,37.45s73.57-16.78,73.57-37.45v-50Z" transform="translate(-121.41 -41.39)"/><path class="cls-11" d="M1193.11,883.49v49.89c0,20.69,32.93,37.45,73.52,37.45s73.53-16.76,73.53-37.45V883.49Z" transform="translate(-121.41 -41.39)"/><path class="cls-19" d="M1340.16,883.49v49.92c0,20.69,32.94,37.45,73.56,37.45s73.53-16.76,73.53-37.45V883.49Z" transform="translate(-121.41 -41.39)"/><path class="cls-11" d="M1487.25,883.49v49.84c0,20.69,32.94,37.46,73.53,37.46s73.56-16.77,73.56-37.46V883.49Z" transform="translate(-121.41 -41.39)"/><path class="cls-19" d="M1634.34,883.49v49.89c0,20.69,32.9,37.45,73.53,37.45s73.53-16.76,73.53-37.45V883.49Z" transform="translate(-121.41 -41.39)"/><path class="cls-11" d="M1781.4,883.49V933.3c0,20.69,32.93,37.44,73.56,37.44s73.53-16.75,73.53-37.44V883.49Z" transform="translate(-121.41 -41.39)"/><path class="cls-19" d="M1928.49,883.49v49.84c0,20.69,32.93,37.46,73.53,37.46s73.56-16.77,73.56-37.46V883.49Z" transform="translate(-121.41 -41.39)"/><path class="cls-11" d="M2075.58,883.49v49.76c0,20.69,32.9,37.46,73.53,37.46s73.52-16.77,73.52-37.46V883.49Z" transform="translate(-121.41 -41.39)"/><path class="cls-19" d="M2222.63,883.49V933.3c0,20.69,32.94,37.44,73.57,37.44s73.52-16.75,73.52-37.44V883.49Z" transform="translate(-121.41 -41.39)"/></g></g></g></svg>