<?xml version="1.0" standalone="no"?><!DOCTYPE svg PUBLIC "-//W3C//DTD SVG 1.1//EN" "http://www.w3.org/Graphics/SVG/1.1/DTD/svg11.dtd"><svg t="1532750150319" class="icon" style="" viewBox="0 0 1024 1024" version="1.1" xmlns="http://www.w3.org/2000/svg" p-id="4414" xmlns:xlink="http://www.w3.org/1999/xlink" width="200" height="200"><defs><style type="text/css"></style></defs><path d="M104.448 884.736c0-20.48 16.384-38.912 38.912-38.912 126.976-2.048 251.904-2.048 374.784-2.048s245.76 0 368.64 2.048c20.48 0 38.912 18.432 38.912 38.912 0 20.48-16.384 38.912-38.912 38.912-120.832 2.048-243.712 2.048-368.64 2.048s-249.856 0-374.784-2.048c-20.48 0-38.912-16.384-38.912-38.912z" fill="#D8D8D8" p-id="4415"></path><path d="M110.592 507.904c28.672-61.44 61.44-122.88 96.256-182.272s71.68-118.784 110.592-176.128c34.816-49.152 98.304-67.584 153.6-40.96 63.488 30.72 126.976 63.488 186.368 96.256 59.392 34.816 116.736 69.632 172.032 108.544 49.152 34.816 65.536 98.304 40.96 153.6-28.672 63.488-61.44 122.88-96.256 184.32-34.816 59.392-71.68 118.784-110.592 174.08-34.816 49.152-98.304 67.584-153.6 40.96-61.44-28.672-120.832-61.44-182.272-94.208-59.392-34.816-118.784-71.68-176.128-112.64-49.152-32.768-65.536-96.256-40.96-151.552z" fill="#fff" p-id="4416"></path><path d="M647.168 436.224c-6.144-10.24-18.432-14.336-26.624-8.192-4.096 2.048-8.192 6.144-10.24 10.24l-45.056 108.544c-4.096 10.24 0 22.528 10.24 26.624 4.096 2.048 10.24 2.048 14.336 0l88.064-26.624c12.288-4.096 18.432-14.336 14.336-24.576-2.048-2.048-45.056-86.016-45.056-86.016z" fill="#43AECD" p-id="4417"></path><path d="M313.344 530.432c-6.144 0-12.288-2.048-16.384-6.144-8.192-8.192-6.144-22.528 2.048-28.672 92.16-79.872 198.656-83.968 315.392-10.24 10.24 6.144 12.288 18.432 6.144 28.672s-18.432 12.288-28.672 6.144c-100.352-63.488-188.416-61.44-268.288 6.144-2.048 2.048-6.144 4.096-10.24 4.096z" fill="#43AECD" p-id="4418"></path></svg>