<?xml version="1.0" standalone="no"?><!DOCTYPE svg PUBLIC "-//W3C//DTD SVG 1.1//EN" "http://www.w3.org/Graphics/SVG/1.1/DTD/svg11.dtd"><svg t="1532750084905" class="icon" style="" viewBox="0 0 1024 1024" version="1.1" xmlns="http://www.w3.org/2000/svg" p-id="2606" xmlns:xlink="http://www.w3.org/1999/xlink" width="200" height="200"><defs><style type="text/css"></style></defs><path d="M514.048 163.84c-75.776 0-151.552 4.096-227.328 10.24-61.44 4.096-108.544 51.2-112.64 110.592-6.144 77.824-10.24 155.648-10.24 229.376 0 73.728 4.096 149.504 10.24 223.232 6.144 59.392 53.248 106.496 112.64 112.64 73.728 6.144 149.504 10.24 225.28 10.24l2.048-696.32z" fill="#fff" p-id="2607"></path><path d="M512 860.16c75.776 0 151.552-4.096 227.328-10.24 59.392-6.144 106.496-53.248 112.64-112.64 6.144-73.728 10.24-149.504 10.24-223.232 0-75.776-4.096-153.6-10.24-229.376-6.144-59.392-53.248-106.496-112.64-110.592-75.776-6.144-151.552-10.24-225.28-10.24L512 860.16z" fill="#D8D8D8" p-id="2608"></path><path d="M512 163.84l75.776-36.864c30.72-14.336 67.584-2.048 81.92 26.624 4.096 8.192 6.144 18.432 6.144 28.672v661.504c0 34.816-26.624 61.44-61.44 61.44-10.24 0-18.432-2.048-26.624-6.144L512 860.16V163.84z" fill="#5A617F" p-id="2609"></path><path d="M636.928 495.616l-69.632-59.392c-10.24-6.144-22.528-4.096-30.72 4.096-2.048 4.096-4.096 8.192-4.096 12.288v116.736c0 12.288 8.192 20.48 20.48 20.48 4.096 0 10.24-2.048 12.288-4.096l69.632-59.392c8.192-8.192 10.24-20.48 2.048-28.672 2.048 0 0 0 0-2.048z" fill="#43AECD" p-id="2610"></path><path d="M552.96 512c0-12.288-8.192-20.48-20.48-20.48h-143.36c-12.288 0-20.48 8.192-20.48 20.48s8.192 20.48 20.48 20.48h143.36c12.288 0 20.48-8.192 20.48-20.48z" fill="#43AECD" p-id="2611"></path></svg>