<?xml version="1.0" standalone="no"?><!DOCTYPE svg PUBLIC "-//W3C//DTD SVG 1.1//EN" "http://www.w3.org/Graphics/SVG/1.1/DTD/svg11.dtd"><svg t="1532750065697" class="icon" style="" viewBox="0 0 1024 1024" version="1.1" xmlns="http://www.w3.org/2000/svg" p-id="2218" xmlns:xlink="http://www.w3.org/1999/xlink" width="200" height="200"><defs><style type="text/css"></style></defs><path d="M972.8 788.48c0 83.968-233.472 122.88-450.56 122.88s-450.56-38.912-450.56-122.88 233.472-122.88 450.56-122.88 450.56 38.912 450.56 122.88z m-860.16 0c0 28.672 145.408 81.92 409.6 81.92s409.6-53.248 409.6-81.92-145.408-81.92-409.6-81.92-409.6 53.248-409.6 81.92z" fill="#D8D8D8" p-id="2219"></path><path d="M860.16 233.472c6.144 73.728 10.24 149.504 10.24 225.28s-4.096 151.552-10.24 227.328c-6.144 59.392-53.248 106.496-112.64 112.64-77.824 6.144-153.6 10.24-229.376 10.24-73.728 0-149.504-4.096-223.232-10.24-59.392-6.144-106.496-53.248-112.64-112.64-6.144-75.776-10.24-151.552-10.24-227.328s4.096-151.552 10.24-227.328c6.144-59.392 53.248-106.496 112.64-112.64 73.728-2.048 149.504-6.144 225.28-6.144s151.552 4.096 229.376 10.24c59.392 4.096 106.496 51.2 110.592 110.592z" fill="#fff" p-id="2220"></path><path d="M542.72 153.6v20.48c0 12.288-8.192 20.48-20.48 20.48s-20.48-8.192-20.48-20.48v-20.48c0-12.288 8.192-20.48 20.48-20.48s20.48 8.192 20.48 20.48z m0 122.88v20.48c0 12.288-8.192 20.48-20.48 20.48s-20.48-8.192-20.48-20.48v-20.48c0-12.288 8.192-20.48 20.48-20.48s20.48 8.192 20.48 20.48z m0 122.88v20.48c0 12.288-8.192 20.48-20.48 20.48s-20.48-8.192-20.48-20.48v-20.48c0-12.288 8.192-20.48 20.48-20.48s20.48 8.192 20.48 20.48z m0 122.88v20.48c0 12.288-8.192 20.48-20.48 20.48s-20.48-8.192-20.48-20.48v-20.48c0-12.288 8.192-20.48 20.48-20.48s20.48 8.192 20.48 20.48z m0 122.88v20.48c0 12.288-8.192 20.48-20.48 20.48s-20.48-8.192-20.48-20.48v-20.48c0-12.288 8.192-20.48 20.48-20.48s20.48 8.192 20.48 20.48z m0 122.88v20.48c0 12.288-8.192 20.48-20.48 20.48s-20.48-8.192-20.48-20.48v-20.48c0-12.288 8.192-20.48 20.48-20.48s20.48 8.192 20.48 20.48z" fill="#FFFFFF" p-id="2221"></path><path d="M364.544 542.72c8.192 8.192 22.528 6.144 28.672-2.048 2.048-4.096 4.096-8.192 4.096-12.288V409.6c0-12.288-8.192-20.48-20.48-20.48-4.096 0-8.192 2.048-12.288 4.096l-69.632 59.392c-8.192 8.192-10.24 20.48-2.048 28.672 4.096 4.096 71.68 61.44 71.68 61.44z" fill="#43AECD" p-id="2222"></path><path d="M368.64 471.04c0 12.288 8.192 20.48 20.48 20.48h143.36c12.288 0 20.48-8.192 20.48-20.48s-8.192-20.48-20.48-20.48h-143.36c-12.288 0-20.48 8.192-20.48 20.48zM679.936 542.72c-8.192 8.192-22.528 6.144-28.672-2.048-2.048-4.096-4.096-8.192-4.096-12.288V409.6c0-12.288 8.192-20.48 20.48-20.48 4.096 0 8.192 2.048 12.288 4.096l69.632 59.392c8.192 8.192 10.24 20.48 2.048 28.672-2.048 2.048-71.68 61.44-71.68 61.44z" fill="#43AECD" p-id="2223"></path><path d="M675.84 471.04c0 12.288-8.192 20.48-20.48 20.48h-143.36c-12.288 0-20.48-8.192-20.48-20.48s8.192-20.48 20.48-20.48h143.36c12.288 0 20.48 8.192 20.48 20.48z" fill="#43AECD" p-id="2224"></path></svg>