<?xml version="1.0" standalone="no"?><!DOCTYPE svg PUBLIC "-//W3C//DTD SVG 1.1//EN" "http://www.w3.org/Graphics/SVG/1.1/DTD/svg11.dtd"><svg t="1532750057385" class="icon" style="" viewBox="0 0 1024 1024" version="1.1" xmlns="http://www.w3.org/2000/svg" p-id="2090" xmlns:xlink="http://www.w3.org/1999/xlink" width="200" height="200"><defs><style type="text/css"></style></defs><path d="M808.96 284.672c6.144 73.728 10.24 149.504 10.24 225.28s-4.096 151.552-10.24 227.328c-6.144 59.392-53.248 106.496-112.64 112.64-77.824 6.144-153.6 10.24-229.376 10.24-73.728 0-149.504-4.096-223.232-10.24-59.392-4.096-106.496-51.2-110.592-110.592C126.976 663.552 122.88 587.776 122.88 512s4.096-151.552 10.24-227.328C137.216 225.28 184.32 178.176 243.712 174.08c73.728-6.144 149.504-10.24 225.28-10.24s153.6 4.096 229.376 10.24c59.392 4.096 106.496 51.2 110.592 110.592z" fill="#D8D8D8" p-id="2091"></path><path d="M890.88 284.672c6.144 73.728 10.24 149.504 10.24 225.28s-4.096 151.552-10.24 227.328c-6.144 59.392-53.248 106.496-112.64 112.64-77.824 6.144-153.6 10.24-229.376 10.24-73.728 0-149.504-4.096-223.232-10.24-59.392-6.144-106.496-53.248-112.64-112.64-4.096-73.728-8.192-149.504-8.192-225.28s4.096-151.552 10.24-227.328c6.144-59.392 53.248-106.496 112.64-112.64 71.68-4.096 147.456-8.192 223.232-8.192s153.6 4.096 229.376 10.24c59.392 4.096 106.496 51.2 110.592 110.592z" fill="#fff" p-id="2092"></path><path d="M497.664 436.224c8.192-8.192 24.576-4.096 28.672 2.048s6.144 10.24 6.144 14.336v116.736c0 12.288-8.192 20.48-20.48 20.48-4.096 0-10.24-2.048-12.288-4.096L430.08 526.336c-8.192-8.192-12.288-20.48-4.096-28.672 2.048-2.048 71.68-61.44 71.68-61.44z" fill="#43AECD" p-id="2093"></path><path d="M512 512c0-12.288 8.192-20.48 20.48-20.48h143.36c12.288 0 20.48 8.192 20.48 20.48s-8.192 20.48-20.48 20.48h-143.36c-12.288 0-20.48-8.192-20.48-20.48z" fill="#43AECD" p-id="2094"></path></svg>