<?xml version="1.0" standalone="no"?><!DOCTYPE svg PUBLIC "-//W3C//DTD SVG 1.1//EN" "http://www.w3.org/Graphics/SVG/1.1/DTD/svg11.dtd"><svg t="1532750133676" class="icon" style="" viewBox="0 0 1024 1024" version="1.1" xmlns="http://www.w3.org/2000/svg" p-id="3898" xmlns:xlink="http://www.w3.org/1999/xlink" width="200" height="200"><defs><style type="text/css"></style></defs><path d="M161.792 735.232L491.52 737.28l325.632-2.048c10.24 0 18.432-8.192 18.432-18.432s-8.192-18.432-18.432-18.432L493.568 696.32H161.792c-10.24 0-18.432 8.192-18.432 18.432 0 12.288 8.192 20.48 18.432 20.48zM81.92 837.632l368.64 2.048 362.496-2.048c10.24 0 18.432-8.192 18.432-18.432s-8.192-18.432-18.432-18.432L450.56 798.72H79.872c-10.24 0-18.432 8.192-18.432 18.432 0 12.288 8.192 20.48 20.48 20.48z" fill="#D8D8D8" p-id="3899"></path><path d="M387.072 849.92c75.776 6.144 153.6 10.24 229.376 10.24 73.728 0 149.504-4.096 223.232-10.24 59.392-6.144 106.496-51.2 112.64-112.64 6.144-73.728 10.24-149.504 10.24-225.28s-4.096-151.552-10.24-225.28c-6.144-59.392-53.248-106.496-112.64-112.64-73.728-6.144-149.504-10.24-223.232-10.24s-151.552 4.096-229.376 10.24c-59.392 4.096-106.496 51.2-110.592 112.64-6.144 75.776-10.24 151.552-10.24 227.328 0 73.728 4.096 149.504 10.24 225.28 4.096 59.392 51.2 104.448 110.592 110.592z" fill="#fff" p-id="3900"></path><path d="M739.328 524.288c8.192-8.192 6.144-20.48-2.048-28.672l-69.632-59.392c-2.048-2.048-8.192-4.096-12.288-4.096-12.288 0-20.48 8.192-20.48 20.48v118.784c0 4.096 2.048 8.192 6.144 14.336 6.144 8.192 20.48 10.24 28.672 2.048 0 0 67.584-61.44 69.632-63.488z" fill="#43AECD" p-id="3901"></path><path d="M634.88 491.52h-143.36c-12.288 0-20.48 8.192-20.48 20.48s8.192 20.48 20.48 20.48h143.36c12.288 0 20.48-8.192 20.48-20.48s-8.192-20.48-20.48-20.48z" fill="#43AECD" p-id="3902"></path></svg>