<?xml version="1.0" standalone="no"?><!DOCTYPE svg PUBLIC "-//W3C//DTD SVG 1.1//EN" "http://www.w3.org/Graphics/SVG/1.1/DTD/svg11.dtd"><svg t="1532750124575" class="icon" style="" viewBox="0 0 1024 1024" version="1.1" xmlns="http://www.w3.org/2000/svg" p-id="3639" xmlns:xlink="http://www.w3.org/1999/xlink" width="200" height="200"><defs><style type="text/css"></style></defs><path d="M880.64 716.8c0-10.24-8.192-18.432-18.432-18.432L530.432 696.32l-323.584 2.048c-10.24 0-18.432 8.192-18.432 18.432s8.192 18.432 18.432 18.432L532.48 737.28l329.728-2.048c10.24 0 18.432-8.192 18.432-18.432zM962.56 819.2c0-10.24-8.192-18.432-18.432-18.432L573.44 798.72l-362.496 2.048c-10.24 0-18.432 8.192-18.432 18.432s8.192 18.432 18.432 18.432L573.44 839.68l368.64-2.048c12.288 0 20.48-8.192 20.48-18.432z" fill="#D8D8D8" p-id="3640"></path><path d="M747.52 739.328c6.144-75.776 10.24-151.552 10.24-225.28 0-75.776-4.096-151.552-10.24-227.328-4.096-61.44-51.2-108.544-110.592-112.64-77.824-6.144-155.648-10.24-229.376-10.24s-149.504 4.096-223.232 10.24c-59.392 6.144-106.496 53.248-112.64 112.64-6.144 73.728-10.24 149.504-10.24 225.28s4.096 151.552 10.24 227.328c6.144 59.392 53.248 106.496 112.64 112.64 73.728 6.144 149.504 10.24 223.232 10.24 75.776 0 153.6-4.096 229.376-10.24 59.392-6.144 106.496-53.248 110.592-112.64z" fill="#fff" p-id="3641"></path><path d="M354.304 587.776c8.192 8.192 22.528 6.144 28.672-2.048 4.096-6.144 6.144-10.24 6.144-14.336v-118.784c0-12.288-8.192-20.48-20.48-20.48-4.096 0-10.24 2.048-12.288 4.096L286.72 495.616c-8.192 8.192-10.24 20.48-2.048 28.672 2.048 4.096 69.632 63.488 69.632 63.488z" fill="#43AECD" p-id="3642"></path><path d="M368.64 512c0 12.288 8.192 20.48 20.48 20.48h143.36c12.288 0 20.48-8.192 20.48-20.48s-8.192-20.48-20.48-20.48h-143.36c-12.288 0-20.48 8.192-20.48 20.48z" fill="#43AECD" p-id="3643"></path></svg>