<?xml version="1.0" standalone="no"?><!DOCTYPE svg PUBLIC "-//W3C//DTD SVG 1.1//EN" "http://www.w3.org/Graphics/SVG/1.1/DTD/svg11.dtd"><svg t="1532750042201" class="icon" style="" viewBox="0 0 1024 1024" version="1.1" xmlns="http://www.w3.org/2000/svg" p-id="1834" xmlns:xlink="http://www.w3.org/1999/xlink" width="200" height="200"><defs><style type="text/css"></style></defs><path d="M329.728 194.56c6.144-14.336 12.288-20.48 18.432-20.48s12.288 6.144 18.432 20.48c2.048 112.64 2.048 223.232 2.048 329.728s0 217.088-2.048 325.632c-6.144 14.336-12.288 20.48-18.432 20.48-6.144 0-12.288-6.144-18.432-20.48C327.68 743.424 327.68 634.88 327.68 524.288s0-219.136 2.048-329.728zM432.128 174.08c6.144-14.336 12.288-20.48 18.432-20.48s12.288 6.144 18.432 20.48c2.048 112.64 2.048 223.232 2.048 329.728s0 217.088-2.048 325.632c-6.144 14.336-12.288 20.48-18.432 20.48-6.144 0-12.288-6.144-18.432-20.48C430.08 722.944 430.08 614.4 430.08 503.808s0-219.136 2.048-329.728zM534.528 276.48c6.144-14.336 12.288-20.48 18.432-20.48s12.288 6.144 18.432 20.48c2.048 112.64 2.048 223.232 2.048 329.728s0 217.088-2.048 325.632c-6.144 14.336-12.288 20.48-18.432 20.48-6.144 0-12.288-6.144-18.432-20.48C532.48 825.344 532.48 716.8 532.48 606.208s0-219.136 2.048-329.728zM636.928 153.6c6.144-14.336 12.288-20.48 18.432-20.48s12.288 6.144 18.432 20.48c2.048 112.64 2.048 223.232 2.048 329.728s0 217.088-2.048 325.632c-6.144 14.336-12.288 20.48-18.432 20.48s-12.288-6.144-18.432-20.48C634.88 702.464 634.88 593.92 634.88 483.328s0-219.136 2.048-329.728z" fill="#D8D8D8" p-id="1835"></path><path d="M284.672 81.92c73.728-6.144 149.504-10.24 225.28-10.24s151.552 4.096 227.328 10.24c59.392 6.144 106.496 53.248 112.64 112.64 6.144 75.776 10.24 153.6 10.24 227.328 0 73.728-4.096 149.504-10.24 223.232-6.144 59.392-53.248 106.496-112.64 112.64-75.776 6.144-151.552 10.24-227.328 10.24-75.776 0-151.552-4.096-227.328-10.24-59.392-6.144-106.496-53.248-112.64-112.64C167.936 573.44 163.84 497.664 163.84 421.888s4.096-153.6 10.24-229.376C178.176 133.12 225.28 86.016 284.672 81.92z" fill="#fff" p-id="1836"></path><path d="M528.384 294.912l59.392 69.632c6.144 10.24 4.096 22.528-4.096 30.72-4.096 2.048-8.192 4.096-12.288 4.096h-116.736c-12.288 0-20.48-8.192-20.48-20.48 0-4.096 2.048-10.24 4.096-12.288l57.344-71.68c8.192-8.192 20.48-10.24 28.672-2.048 2.048 0 2.048 2.048 4.096 2.048z" fill="#43AECD" p-id="1837"></path><path d="M512 378.88c12.288 0 20.48 8.192 20.48 20.48v143.36c0 12.288-8.192 20.48-20.48 20.48s-20.48-8.192-20.48-20.48v-143.36c0-12.288 8.192-20.48 20.48-20.48z" fill="#43AECD" p-id="1838"></path></svg>