<?xml version="1.0" standalone="no"?><!DOCTYPE svg PUBLIC "-//W3C//DTD SVG 1.1//EN" "http://www.w3.org/Graphics/SVG/1.1/DTD/svg11.dtd"><svg t="1532750018841" class="icon" style="" viewBox="0 0 1024 1024" version="1.1" xmlns="http://www.w3.org/2000/svg" p-id="1449" xmlns:xlink="http://www.w3.org/1999/xlink" width="200" height="200"><defs><style type="text/css"></style></defs><path d="M1003.52 819.2c0 20.48-16.384 38.912-38.912 38.912-126.976 2.048-251.904 2.048-374.784 2.048s-245.76 0-368.64-2.048c-20.48 0-38.912-18.432-38.912-38.912 0-20.48 16.384-38.912 38.912-38.912 120.832-2.048 243.712-2.048 368.64-2.048s249.856 0 374.784 2.048c22.528 0 38.912 18.432 38.912 38.912z" fill="#D8D8D8" p-id="1450"></path><path d="M747.52 172.032c16.384 71.68 30.72 147.456 40.96 221.184s16.384 151.552 20.48 227.328c2.048 59.392-38.912 112.64-96.256 126.976-75.776 16.384-151.552 30.72-225.28 40.96-73.728 10.24-149.504 16.384-223.232 20.48-59.392 2.048-112.64-38.912-126.976-96.256C122.88 641.024 108.544 565.248 98.304 491.52s-16.384-151.552-20.48-227.328C75.776 204.8 116.736 151.552 174.08 137.216 245.76 122.88 319.488 108.544 395.264 98.304s153.6-16.384 229.376-20.48c57.344-4.096 110.592 36.864 122.88 94.208z" fill="#fff" p-id="1451"></path><path d="M796.672 481.28c-14.336-6.144-28.672-12.288-38.912-26.624 4.096 40.96 6.144 61.44-14.336 106.496-6.144 14.336-26.624 38.912-36.864 49.152-4.096 22.528-8.192 30.72-20.48 57.344-38.912-10.24-153.6-63.488-182.272-86.016 4.096-8.192 6.144-10.24 12.288-22.528-143.36-53.248-284.672-143.36-313.344-217.088 0-34.816 47.104-49.152 77.824-40.96 28.672 8.192 61.44 28.672 94.208 36.864 12.288 4.096 223.232 12.288 239.616 12.288-34.816-20.48-43.008-28.672-45.056-36.864 30.72-40.96 129.024-145.408 153.6-192.512 51.2 49.152 69.632 323.584 75.776 358.4l-2.048 2.048zM415.744 679.936l-12.288 16.384c-6.144 8.192-20.48 10.24-28.672 4.096l-90.112-69.632-112.64 143.36c-16.384-16.384-26.624-34.816-32.768-57.344l98.304-124.928-57.344-43.008c-8.192-6.144-10.24-20.48-4.096-28.672l12.288-16.384c6.144-8.192 20.48-10.24 28.672-4.096l194.56 151.552c8.192 4.096 10.24 20.48 4.096 28.672z" fill="#43AECD" p-id="1452"></path></svg>