<?xml version="1.0" standalone="no"?><!DOCTYPE svg PUBLIC "-//W3C//DTD SVG 1.1//EN" "http://www.w3.org/Graphics/SVG/1.1/DTD/svg11.dtd"><svg t="1532750023658" class="icon" style="" viewBox="0 0 1024 1024" version="1.1" xmlns="http://www.w3.org/2000/svg" p-id="1576" xmlns:xlink="http://www.w3.org/1999/xlink" width="200" height="200"><defs><style type="text/css"></style></defs><path d="M163.84 509.952c0 75.776 4.096 151.552 10.24 227.328 6.144 59.392 53.248 106.496 112.64 112.64 77.824 6.144 153.6 10.24 229.376 10.24 73.728 0 149.504-4.096 223.232-10.24 59.392-6.144 106.496-53.248 112.64-112.64 4.096-73.728 8.192-149.504 8.192-225.28l-696.32-2.048z" fill="#fff" p-id="1577"></path><path d="M860.16 512c0-75.776-4.096-151.552-10.24-227.328-4.096-59.392-51.2-106.496-110.592-110.592-73.728-6.144-149.504-10.24-225.28-10.24s-153.6 4.096-229.376 10.24c-59.392 4.096-106.496 51.2-110.592 110.592-6.144 75.776-10.24 151.552-10.24 225.28l696.32 2.048z" fill="#D8D8D8" p-id="1578"></path><path d="M163.84 512l-36.864-75.776c-14.336-30.72-2.048-67.584 26.624-81.92 8.192-4.096 18.432-6.144 28.672-6.144h661.504c34.816 0 61.44 26.624 61.44 61.44 0 10.24-2.048 18.432-6.144 26.624L860.16 512H163.84z" fill="#5A617F" p-id="1579"></path><path d="M495.616 387.072l-57.344 71.68c-8.192 8.192-6.144 20.48 2.048 28.672 4.096 2.048 8.192 4.096 12.288 4.096h116.736c12.288 0 20.48-8.192 20.48-20.48 0-4.096-2.048-10.24-4.096-12.288L526.336 389.12c-8.192-8.192-20.48-10.24-28.672-2.048 0-2.048 0 0-2.048 0z" fill="#43AECD" p-id="1580"></path><path d="M512 471.04c-12.288 0-20.48 8.192-20.48 20.48v143.36c0 12.288 8.192 20.48 20.48 20.48s20.48-8.192 20.48-20.48v-143.36c0-12.288-8.192-20.48-20.48-20.48z" fill="#43AECD" p-id="1581"></path></svg>