<?xml version="1.0" standalone="no"?><!DOCTYPE svg PUBLIC "-//W3C//DTD SVG 1.1//EN" "http://www.w3.org/Graphics/SVG/1.1/DTD/svg11.dtd"><svg t="1532750138309" class="icon" style="" viewBox="0 0 1024 1024" version="1.1" xmlns="http://www.w3.org/2000/svg" p-id="4026" xmlns:xlink="http://www.w3.org/1999/xlink" width="200" height="200"><defs><style type="text/css"></style></defs><path d="M849.92 284.672c6.144 73.728 10.24 149.504 10.24 225.28s-4.096 151.552-10.24 227.328c-6.144 59.392-53.248 106.496-112.64 112.64-77.824 6.144-153.6 10.24-229.376 10.24-73.728 0-149.504-4.096-223.232-10.24-59.392-4.096-106.496-51.2-110.592-110.592C167.936 663.552 163.84 587.776 163.84 512s4.096-151.552 10.24-227.328c4.096-59.392 51.2-106.496 110.592-110.592 73.728-6.144 149.504-10.24 225.28-10.24s153.6 4.096 229.376 10.24c59.392 4.096 106.496 51.2 110.592 110.592z" fill="#D8D8D8" p-id="4027"></path><path d="M788.48 309.248c6.144 67.584 10.24 135.168 10.24 202.752s-4.096 135.168-10.24 204.8c-4.096 38.912-34.816 69.632-73.728 73.728-69.632 6.144-137.216 10.24-204.8 10.24s-133.12-4.096-200.704-10.24c-38.912-4.096-69.632-34.816-73.728-73.728-6.144-69.632-10.24-137.216-10.24-204.8s4.096-135.168 10.24-202.752c4.096-38.912 34.816-69.632 73.728-73.728 65.536-6.144 133.12-10.24 200.704-10.24s137.216 4.096 204.8 10.24c38.912 2.048 71.68 34.816 73.728 73.728z" fill="#fff" p-id="4028"></path><path d="M428.1344 320.96256c11.5712 0 20.2752 11.59168 18.82112 21.7088-1.45408 4.36224-2.90816 8.704-5.79584 11.59168l-85.44256 85.44256c-8.68352 8.68352-20.2752 8.68352-28.95872 0-2.90816-2.88768-5.79584-8.68352-5.79584-11.5712l-7.24992-91.2384c0-11.59168 7.24992-21.7088 18.8416-21.7088 14.47936 0 95.58016 5.77536 95.58016 5.77536z" fill="#43AECD" p-id="4029"></path><path d="M384.67584 384.67584c8.68352-8.68352 20.2752-8.68352 28.95872 0l72.41728 72.41728c8.68352 8.68352 8.68352 20.2752 0 28.95872-8.68352 8.68352-20.2752 8.68352-28.95872 0l-72.41728-72.41728a20.52096 20.52096 0 0 1 0-28.95872z" fill="#43AECD" p-id="4030"></path><path d="M596.93056 701.19424c-17.38752-2.88768-30.4128-21.7088-14.47936-34.75456l83.968-83.98848c8.704-8.704 20.2752-8.704 28.9792 0 2.90816 2.88768 5.79584 8.68352 5.79584 11.5712l7.24992 91.2384c0 11.59168-7.24992 21.7088-18.8416 21.7088-5.79584 0-92.672-5.77536-92.672-5.77536z" fill="#43AECD" p-id="4031"></path><path d="M638.91456 638.91456c-8.68352 8.704-20.2752 8.704-28.95872 0l-72.3968-72.3968c-8.704-8.68352-8.704-20.2752 0-28.95872 8.68352-8.704 20.2752-8.704 28.95872 0l72.3968 72.3968c8.704 8.68352 8.704 20.2752 0 28.95872z" fill="#43AECD" p-id="4032"></path></svg>