<svg width="1024" height="1024" xmlns="http://www.w3.org/2000/svg" class="icon">
 <defs>
  <style type="text/css"/>
 </defs>
 <g>
  <title>background</title>
  <rect x="-1" y="-1" width="1026" height="1026" id="canvas_background" fill="none"/>
 </g>
 <g>
  <title>Layer 1</title>
  <path d="m849.92,284.672c6.144,73.728 10.24,149.504 10.24,225.28s-4.096,151.552 -10.24,227.328c-6.144,59.392 -53.248,106.496 -112.64,112.64c-77.824,6.144 -153.6,10.24 -229.376,10.24c-73.728,0 -149.504,-4.096 -223.232,-10.24c-59.392,-4.096 -106.496,-51.2 -110.592,-110.592c-6.144,-75.776 -10.24,-151.552 -10.24,-227.328s4.096,-151.552 10.24,-227.328c4.096,-59.392 51.2,-106.496 110.592,-110.592c73.728,-6.144 149.504,-10.24 225.28,-10.24s153.6,4.096 229.376,10.24c59.392,4.096 106.496,51.2 110.592,110.592z" fill="#D8D8D8" id="svg_1"/>
  <path d="m788.48,308.223952c6.144,67.584 10.24,135.168 10.24,202.752s-4.096,135.168 -10.24,204.8c-4.096,38.912 -34.816,69.632 -73.728,73.728c-69.632,6.144 -137.216,10.24 -204.8,10.24s-133.12,-4.096 -200.704,-10.24c-38.912,-4.096 -69.632,-34.816 -73.728,-73.728c-6.144,-69.632 -10.24,-137.216 -10.24,-204.8s4.096,-135.168 10.24,-202.752c4.096,-38.912 34.816,-69.632 73.728,-73.728c65.536,-6.144 133.12,-10.24 200.704,-10.24s137.216,4.096 204.8,10.24c38.912,2.048 71.68,34.816 73.728,73.728z" fill="#fff" id="svg_2"/>
  <path d="m499.326538,1055.36553c-4.096,0 -8.192,0 -10.24,-4.096c-10.24,-6.144 -12.288,-18.432 -6.144,-28.672c36.864,-59.392 34.816,-110.592 -4.096,-157.696c-8.192,-8.192 -6.144,-22.528 2.048,-28.672c8.192,-8.192 20.48,-8.192 28.672,0c51.2,61.44 55.296,133.12 6.144,208.896c-4.096,6.144 -10.24,10.24 -16.384,10.24z" fill="#43AECD" id="svg_6" stroke="null" transform="rotate(90 511.9999694824218,942.7255249023439) "/>
  <path d="m499.326548,189.35354c-4.096,0 -8.192,0 -10.24,-4.096c-10.24,-6.144 -12.288,-18.432 -6.144,-28.672c36.864,-59.392 34.816,-110.592 -4.096,-157.696c-8.192,-8.192 -6.144,-22.528 2.048,-28.672c8.192,-8.192 20.48,-8.192 28.672,0c51.2,61.44 55.296,133.12 6.144,208.896c-4.096,6.144 -10.24,10.24 -16.384,10.24z" fill="#43AECD" id="svg_11" stroke="null" transform="rotate(-90 511.9999694824219,76.71353912353511) "/>
  <path d="m939.329116,624.639981c-4.096,0 -8.192,0 -10.24,-4.096c-10.24,-6.144 -12.288,-18.432 -6.144,-28.672c36.864,-59.392 34.816,-110.592 -4.096,-157.696c-8.192,-8.192 -6.144,-22.528 2.048,-28.672c8.192,-8.192 20.48,-8.192 28.672,0c51.2,61.44 55.296,133.12 6.144,208.896c-4.096,6.144 -10.24,10.24 -16.384,10.24z" fill="#43AECD" id="svg_3" stroke="null"/>
  <path d="m67.324013,624.639959c-4.096,0 -8.192,0 -10.24,-4.096c-10.24,-6.144 -12.288,-18.432 -6.144,-28.672c36.864,-59.392 34.816,-110.592 -4.096,-157.696c-8.192,-8.192 -6.144,-22.528 2.048,-28.672c8.192,-8.192 20.48,-8.192 28.672,0c51.2,61.44 55.296,133.12 6.144,208.896c-4.096,6.144 -10.24,10.24 -16.384,10.24z" fill="#43AECD" id="svg_4" stroke="null" transform="rotate(180 79.99742889404297,511.99993896484375) "/>
 </g>
</svg>