<?xml version="1.0" encoding="utf-8"?>
<!-- Generator: Adobe Illustrator 15.0.0, SVG Export Plug-In . SVG Version: 6.00 Build 0)  -->
<!DOCTYPE svg PUBLIC "-//W3C//DTD SVG 1.0//EN" "http://www.w3.org/TR/2001/REC-SVG-20010904/DTD/svg10.dtd">
<svg version="1.0" id="_x33_7" xmlns="http://www.w3.org/2000/svg" xmlns:xlink="http://www.w3.org/1999/xlink" x="0px" y="0px"
	 width="125.416px" height="89.584px" viewBox="0 0 125.416 89.584" enable-background="new 0 0 125.416 89.584"
	 xml:space="preserve">
<g>
	<g>
		<linearGradient id="SVGID_1_" gradientUnits="userSpaceOnUse" x1="92.7627" y1="6.4692" x2="125.7632" y2="73.4702">
			<stop  offset="0" style="stop-color:#8C8B6E"/>
			<stop  offset="0.1209" style="stop-color:#BFBBA9"/>
			<stop  offset="0.3187" style="stop-color:#8C8B6E"/>
			<stop  offset="0.6648" style="stop-color:#8C8B6E"/>
			<stop  offset="0.7582" style="stop-color:#6E6D56"/>
			<stop  offset="0.8791" style="stop-color:#8C8B6E"/>
			<stop  offset="1" style="stop-color:#8C8B6E"/>
		</linearGradient>
		<path fill="url(#SVGID_1_)" d="M106.522,0.25L106.522,0.25l-7.167,7.167c10.113,0,14.312,10.153,14.312,22.677v17.979
			c0,12.302-4.055,22.309-13.783,22.661c2.357,0.131,12.354-0.199,17.924-14.425c0.703-1.369,1.278-2.893,1.729-4.542l0.001-0.003
			c0.881-3.225,1.296-6.923,1.296-10.857V22.928C120.834,10.403,116.636,0.25,106.522,0.25z"/>
		<linearGradient id="SVGID_2_" gradientUnits="userSpaceOnUse" x1="7.0078" y1="6.2861" x2="15.0078" y2="11.2861">
			<stop  offset="0" style="stop-color:#5C5C48"/>
			<stop  offset="0.7967" style="stop-color:#8C8B6E"/>
		</linearGradient>
		<path fill="url(#SVGID_2_)" d="M23.667,0.25h-2.188c0,0-12.153-1.836-18.482,14.499l-1.682,4.426h22.353V0.25z"/>
		<linearGradient id="SVGID_3_" gradientUnits="userSpaceOnUse" x1="36.0601" y1="-14.9463" x2="89.5593" y2="26.3031">
			<stop  offset="0" style="stop-color:#8C8B6E"/>
			<stop  offset="0.4396" style="stop-color:#D4D1C4"/>
			<stop  offset="1" style="stop-color:#8C8B6E"/>
		</linearGradient>
		<polygon fill="url(#SVGID_3_)" stroke="#6E6D56" stroke-width="0.5" points="21.479,0.25 14.312,7.417 99.355,7.417 106.522,0.25 
					"/>
		<linearGradient id="SVGID_4_" gradientUnits="userSpaceOnUse" x1="104.7163" y1="71.9346" x2="86.2163" y2="81.1845">
			<stop  offset="0" style="stop-color:#C4C1B0"/>
			<stop  offset="0.4945" style="stop-color:#8C8B6E"/>
			<stop  offset="0.6813" style="stop-color:#6E6D56"/>
		</linearGradient>
		<polygon fill="url(#SVGID_4_)" points="105.166,82.084 97.666,89.584 78.832,70.75 102.308,70.75 		"/>
		<linearGradient id="SVGID_5_" gradientUnits="userSpaceOnUse" x1="56.166" y1="80.334" x2="56.166" y2="71.334">
			<stop  offset="0.4176" style="stop-color:#B9B8A2"/>
			<stop  offset="0.5463" style="stop-color:#B5B49D"/>
			<stop  offset="0.6897" style="stop-color:#ABA991"/>
			<stop  offset="0.8396" style="stop-color:#99977C"/>
			<stop  offset="0.9286" style="stop-color:#8C8B6E"/>
			<stop  offset="1" style="stop-color:#6E6C66"/>
		</linearGradient>
		<polygon fill="url(#SVGID_5_)" points="92.916,70.75 19.416,70.75 14.666,89.584 97.666,89.584 		"/>
		<linearGradient id="SVGID_6_" gradientUnits="userSpaceOnUse" x1="77.8257" y1="16.4863" x2="-7.1744" y2="107.9864">
			<stop  offset="0.2363" style="stop-color:#B9B8A2"/>
			<stop  offset="1" style="stop-color:#8C8B6E"/>
		</linearGradient>
		<path fill="url(#SVGID_6_)" d="M113.667,48.073c0,12.524-4.198,22.677-14.312,22.677H14.312C4.198,70.75,0,60.598,0,48.073V30.094
			C0,17.57,4.198,7.417,14.312,7.417h85.044c10.113,0,14.312,10.153,14.312,22.677V48.073z"/>
		<linearGradient id="SVGID_7_" gradientUnits="userSpaceOnUse" x1="77.8257" y1="16.4863" x2="-7.1743" y2="107.9863">
			<stop  offset="0.2363" style="stop-color:#B9B8A2"/>
			<stop  offset="1" style="stop-color:#8C8B6E"/>
		</linearGradient>
		<rect x="14.312" y="7.417" fill="url(#SVGID_7_)" stroke="#8C8B6E" stroke-width="0.5" width="85.044" height="63.333"/>
		<polygon fill="#6E6D56" points="118.166,39.334 113.667,39.334 118.166,36.334 120.834,36.334 		"/>
		<linearGradient id="SVGID_8_" gradientUnits="userSpaceOnUse" x1="131.5415" y1="25.9585" x2="115.8755" y2="41.6255">
			<stop  offset="0" style="stop-color:#DEDCD2"/>
			<stop  offset="0.4176" style="stop-color:#B7B39F"/>
		</linearGradient>
		<polygon fill="url(#SVGID_8_)" points="118.166,43.584 125.416,35.584 125.416,27.834 118.166,35.084 		"/>
	</g>
</g>
</svg>
