<?xml version="1.0" encoding="utf-8"?>
<!-- Generator: Adobe Illustrator 15.0.0, SVG Export Plug-In . SVG Version: 6.00 Build 0)  -->
<!DOCTYPE svg PUBLIC "-//W3C//DTD SVG 1.0//EN" "http://www.w3.org/TR/2001/REC-SVG-20010904/DTD/svg10.dtd">
<svg version="1.0" id="_x33_7" xmlns="http://www.w3.org/2000/svg" xmlns:xlink="http://www.w3.org/1999/xlink" x="0px" y="0px"
	 width="159.237px" height="61.418px" viewBox="0 0 159.237 61.418" enable-background="new 0 0 159.237 61.418"
	 xml:space="preserve">
<g>
	<g>
		<linearGradient id="SVGID_1_" gradientUnits="userSpaceOnUse" x1="71.2891" y1="57.25" x2="71.2891" y2="46.2499">
			<stop  offset="0" style="stop-color:#B9B8A2"/>
			<stop  offset="0.0608" style="stop-color:#B4B29C"/>
			<stop  offset="0.1443" style="stop-color:#A6A48B"/>
			<stop  offset="0.2408" style="stop-color:#8F8E72"/>
			<stop  offset="0.2527" style="stop-color:#8C8B6E"/>
			<stop  offset="1" style="stop-color:#565643"/>
		</linearGradient>
		<rect x="34.333" y="1.802" fill="url(#SVGID_1_)" width="73.912" height="59.616"/>
		<linearGradient id="SVGID_2_" gradientUnits="userSpaceOnUse" x1="145.9922" y1="29.1768" x2="145.9922" y2="34.2467">
			<stop  offset="0" style="stop-color:#8C8B6E"/>
			<stop  offset="0.0635" style="stop-color:#8F8E72"/>
			<stop  offset="0.1329" style="stop-color:#9A987D"/>
			<stop  offset="0.2048" style="stop-color:#ABA991"/>
			<stop  offset="0.25" style="stop-color:#B9B8A2"/>
			<stop  offset="0.5" style="stop-color:#D1D0CA"/>
			<stop  offset="0.75" style="stop-color:#B9B8A2"/>
			<stop  offset="0.7915" style="stop-color:#A8A68D"/>
			<stop  offset="0.8415" style="stop-color:#98967B"/>
			<stop  offset="0.8924" style="stop-color:#8F8D71"/>
			<stop  offset="0.9451" style="stop-color:#8C8B6E"/>
		</linearGradient>
		<rect x="132.748" y="29.109" fill="url(#SVGID_2_)" width="26.489" height="5.618"/>
		<linearGradient id="SVGID_3_" gradientUnits="userSpaceOnUse" x1="120.5781" y1="4.0322" x2="120.5781" y2="58.579">
			<stop  offset="0" style="stop-color:#8C8B6E"/>
			<stop  offset="0.0635" style="stop-color:#8F8E72"/>
			<stop  offset="0.1329" style="stop-color:#9A987D"/>
			<stop  offset="0.2048" style="stop-color:#ABA991"/>
			<stop  offset="0.25" style="stop-color:#B9B8A2"/>
			<stop  offset="0.5" style="stop-color:#D1D0CA"/>
			<stop  offset="0.75" style="stop-color:#B9B8A2"/>
			<stop  offset="0.7915" style="stop-color:#A8A68D"/>
			<stop  offset="0.8415" style="stop-color:#98967B"/>
			<stop  offset="0.8924" style="stop-color:#8F8D71"/>
			<stop  offset="0.9451" style="stop-color:#8C8B6E"/>
		</linearGradient>
		<path fill="url(#SVGID_3_)" d="M108.245,3.83v55.561c14.727,0,24.665-12.438,24.665-27.781
			C132.91,16.268,122.972,3.83,108.245,3.83z"/>
		<g>
			<rect x="34.334" y="1.802" fill="#DCDCD1" width="77.967" height="1.357"/>
			<rect x="34.334" y="3.159" fill="#333333" width="77.967" height="0.873"/>
			<rect x="34.334" y="6.952" fill="#DCDCD1" width="77.967" height="1.357"/>
			<rect x="34.334" y="8.309" fill="#333333" width="77.967" height="0.874"/>
			<rect x="34.334" y="12.103" fill="#DCDCD1" width="77.967" height="1.357"/>
			<rect x="34.334" y="13.46" fill="#333333" width="77.967" height="0.873"/>
			<rect x="34.334" y="17.253" fill="#DCDCD1" width="77.967" height="1.358"/>
			<rect x="34.334" y="18.611" fill="#333333" width="77.967" height="0.873"/>
			<rect x="34.334" y="22.404" fill="#DCDCD1" width="77.967" height="1.357"/>
			<rect x="34.334" y="23.762" fill="#333333" width="77.967" height="0.873"/>
			<rect x="34.334" y="27.554" fill="#DCDCD1" width="77.967" height="1.357"/>
			<rect x="34.334" y="28.911" fill="#333333" width="77.967" height="0.874"/>
			<rect x="34.334" y="32.705" fill="#DCDCD1" width="77.967" height="1.357"/>
			<rect x="34.334" y="34.063" fill="#333333" width="77.967" height="0.872"/>
			<rect x="34.334" y="37.855" fill="#DCDCD1" width="77.967" height="1.356"/>
			<rect x="34.334" y="39.212" fill="#333333" width="77.967" height="0.874"/>
			<rect x="34.334" y="43.006" fill="#DCDCD1" width="77.967" height="1.358"/>
			<rect x="34.334" y="44.364" fill="#333333" width="77.967" height="0.872"/>
			<rect x="34.334" y="48.157" fill="#DCDCD1" width="77.967" height="1.357"/>
			<rect x="34.334" y="49.515" fill="#333333" width="77.967" height="0.872"/>
			<rect x="34.334" y="53.307" fill="#DCDCD1" width="77.967" height="1.358"/>
			<rect x="34.334" y="54.665" fill="#333333" width="77.967" height="0.872"/>
		</g>
		<linearGradient id="SVGID_4_" gradientUnits="userSpaceOnUse" x1="133.9287" y1="33.8867" x2="132.3516" y2="31.2582">
			<stop  offset="0" style="stop-color:#B9B8A2"/>
			<stop  offset="0.0608" style="stop-color:#B4B29C"/>
			<stop  offset="0.1443" style="stop-color:#A6A48B"/>
			<stop  offset="0.2408" style="stop-color:#8F8E72"/>
			<stop  offset="0.2527" style="stop-color:#8C8B6E"/>
			<stop  offset="1" style="stop-color:#565643"/>
		</linearGradient>
		<rect x="132.586" y="29.109" fill="url(#SVGID_4_)" width="0.324" height="5.618"/>
		<linearGradient id="SVGID_5_" gradientUnits="userSpaceOnUse" x1="21" y1="0.9653" x2="21" y2="54.8103">
			<stop  offset="0" style="stop-color:#B9B8A2"/>
			<stop  offset="0.5" style="stop-color:#CDCBBC"/>
			<stop  offset="1" style="stop-color:#B9B8A2"/>
		</linearGradient>
		<rect x="7.667" y="0.25" fill="url(#SVGID_5_)" stroke="#8C8B6E" stroke-width="0.5" width="26.666" height="59.667"/>
		<linearGradient id="SVGID_6_" gradientUnits="userSpaceOnUse" x1="-3.6445" y1="5.3604" x2="8.6885" y2="40.3604">
			<stop  offset="0.5" style="stop-color:#B9B8A2"/>
			<stop  offset="0.65" style="stop-color:#A8A68D"/>
			<stop  offset="0.869" style="stop-color:#939276"/>
			<stop  offset="1" style="stop-color:#8C8B6E"/>
		</linearGradient>
		<polygon fill="url(#SVGID_6_)" points="7.667,59.917 0,52.917 0,7.25 7.667,0.25 		"/>
	</g>
</g>
</svg>
