<?xml version="1.0" encoding="utf-8"?>
<!-- Generator: Adobe Illustrator 15.0.0, SVG Export Plug-In . SVG Version: 6.00 Build 0)  -->
<!DOCTYPE svg PUBLIC "-//W3C//DTD SVG 1.0//EN" "http://www.w3.org/TR/2001/REC-SVG-20010904/DTD/svg10.dtd">
<svg version="1.0" id="_x33_7" xmlns="http://www.w3.org/2000/svg" xmlns:xlink="http://www.w3.org/1999/xlink" x="0px" y="0px"
	 width="157.418px" height="63.75px" viewBox="0 0 157.418 63.75" enable-background="new 0 0 157.418 63.75" xml:space="preserve">
<g>
	<g>
		<linearGradient id="SVGID_1_" gradientUnits="userSpaceOnUse" x1="97.501" y1="60.25" x2="-52.1655" y2="60.25">
			<stop  offset="0" style="stop-color:#8C8B6E"/>
			<stop  offset="1" style="stop-color:#E8E6DF"/>
		</linearGradient>
		<rect y="56.75" fill="url(#SVGID_1_)" width="118" height="7"/>
		<linearGradient id="SVGID_2_" gradientUnits="userSpaceOnUse" x1="89.834" y1="47.1143" x2="-2.8329" y2="47.1143">
			<stop  offset="0" style="stop-color:#8C8B6E"/>
			<stop  offset="1" style="stop-color:#E8E6DF"/>
		</linearGradient>
		<polygon fill="url(#SVGID_2_)" points="157.418,37.479 39,37.479 0,56.75 118.418,56.75 		"/>
		<linearGradient id="SVGID_3_" gradientUnits="userSpaceOnUse" x1="153.3706" y1="34.9531" x2="106.2037" y2="82.1191">
			<stop  offset="0" style="stop-color:#8C8B6E"/>
			<stop  offset="1" style="stop-color:#E8E6DF"/>
		</linearGradient>
		<polygon fill="url(#SVGID_3_)" points="157.418,44.479 118,63.75 118,56.75 157.418,37.479 		"/>
		<linearGradient id="SVGID_4_" gradientUnits="userSpaceOnUse" x1="16.7495" y1="8.2998" x2="16.7495" y2="45.3045">
			<stop  offset="0" style="stop-color:#8C8B6E"/>
			<stop  offset="0.0635" style="stop-color:#8F8E72"/>
			<stop  offset="0.1329" style="stop-color:#9A987D"/>
			<stop  offset="0.2048" style="stop-color:#ABA991"/>
			<stop  offset="0.25" style="stop-color:#B9B8A2"/>
			<stop  offset="0.5" style="stop-color:#E8E6DF"/>
			<stop  offset="0.75" style="stop-color:#B9B8A2"/>
			<stop  offset="0.7918" style="stop-color:#B7B6A0"/>
			<stop  offset="0.8273" style="stop-color:#B0AF99"/>
			<stop  offset="0.8606" style="stop-color:#A4A28D"/>
			<stop  offset="0.8925" style="stop-color:#93917D"/>
			<stop  offset="0.9235" style="stop-color:#7C7B68"/>
			<stop  offset="0.9537" style="stop-color:#61604F"/>
			<stop  offset="0.9827" style="stop-color:#414032"/>
			<stop  offset="1" style="stop-color:#2B2A1D"/>
		</linearGradient>
		<ellipse fill="url(#SVGID_4_)" cx="16.75" cy="27.084" rx="7" ry="18.666"/>
		<linearGradient id="SVGID_5_" gradientUnits="userSpaceOnUse" x1="39.6035" y1="8.2998" x2="39.6035" y2="45.261">
			<stop  offset="0" style="stop-color:#8C8B6E"/>
			<stop  offset="0.0635" style="stop-color:#8F8E72"/>
			<stop  offset="0.1329" style="stop-color:#9A987D"/>
			<stop  offset="0.2048" style="stop-color:#ABA991"/>
			<stop  offset="0.25" style="stop-color:#B9B8A2"/>
			<stop  offset="0.5" style="stop-color:#E8E6DF"/>
			<stop  offset="0.75" style="stop-color:#B9B8A2"/>
			<stop  offset="0.7918" style="stop-color:#B7B6A0"/>
			<stop  offset="0.8273" style="stop-color:#B0AF99"/>
			<stop  offset="0.8606" style="stop-color:#A4A28D"/>
			<stop  offset="0.8925" style="stop-color:#93917D"/>
			<stop  offset="0.9235" style="stop-color:#7C7B68"/>
			<stop  offset="0.9537" style="stop-color:#61604F"/>
			<stop  offset="0.9827" style="stop-color:#414032"/>
			<stop  offset="1" style="stop-color:#2B2A1D"/>
		</linearGradient>
		<rect x="16.75" y="8.417" fill="url(#SVGID_5_)" width="45.707" height="37.289"/>
		<linearGradient id="SVGID_6_" gradientUnits="userSpaceOnUse" x1="20.501" y1="30.4932" x2="26.834" y2="30.4932">
			<stop  offset="0" style="stop-color:#000000"/>
			<stop  offset="0.2692" style="stop-color:#FFFFFF"/>
		</linearGradient>
		<rect x="20.123" y="21.737" fill="url(#SVGID_6_)" stroke="#808080" stroke-width="0.5" width="15.877" height="17.513"/>
		<linearGradient id="SVGID_7_" gradientUnits="userSpaceOnUse" x1="41.5" y1="-0.583" x2="41.5" y2="9.751">
			<stop  offset="0.5879" style="stop-color:#D9D9D9"/>
			<stop  offset="0.8132" style="stop-color:#727171"/>
		</linearGradient>
		<rect x="25.5" fill="url(#SVGID_7_)" width="32" height="8.417"/>
		<rect x="16.75" y="45.75" fill="#040000" width="45.751" height="2.75"/>
		<linearGradient id="SVGID_8_" gradientUnits="userSpaceOnUse" x1="76.085" y1="41.168" x2="44.0851" y2="9.1681">
			<stop  offset="0" style="stop-color:#8C8B6E"/>
			<stop  offset="1" style="stop-color:#E8E6DF"/>
		</linearGradient>
		<ellipse fill="url(#SVGID_8_)" cx="62" cy="27.084" rx="7" ry="18.666"/>
		<linearGradient id="SVGID_9_" gradientUnits="userSpaceOnUse" x1="71.625" y1="22.583" x2="71.625" y2="31.25">
			<stop  offset="0.5879" style="stop-color:#C9CACA"/>
			<stop  offset="0.8132" style="stop-color:#727171"/>
		</linearGradient>
		<rect x="63" y="21.75" fill="url(#SVGID_9_)" width="17.25" height="8.801"/>
		<linearGradient id="SVGID_10_" gradientUnits="userSpaceOnUse" x1="108.001" y1="5.6162" x2="108.001" y2="47.908">
			<stop  offset="0" style="stop-color:#8C8B6E"/>
			<stop  offset="0.0635" style="stop-color:#8F8E72"/>
			<stop  offset="0.1329" style="stop-color:#9A987D"/>
			<stop  offset="0.2048" style="stop-color:#ABA991"/>
			<stop  offset="0.25" style="stop-color:#B9B8A2"/>
			<stop  offset="0.5" style="stop-color:#E8E6DF"/>
			<stop  offset="0.75" style="stop-color:#B9B8A2"/>
			<stop  offset="0.7918" style="stop-color:#B7B6A0"/>
			<stop  offset="0.8273" style="stop-color:#B0AF99"/>
			<stop  offset="0.8606" style="stop-color:#A4A28D"/>
			<stop  offset="0.8925" style="stop-color:#93917D"/>
			<stop  offset="0.9235" style="stop-color:#7C7B68"/>
			<stop  offset="0.9537" style="stop-color:#61604F"/>
			<stop  offset="0.9827" style="stop-color:#414032"/>
			<stop  offset="1" style="stop-color:#2B2A1D"/>
		</linearGradient>
		<path fill="url(#SVGID_10_)" d="M85.168,5.75c-4.234,0-7.667,9.552-7.667,21.334c0,11.781,3.433,21.333,7.667,21.333h53.333V5.75
			H85.168z"/>
		<path d="M78.151,35.666h43.767v-1.25H77.976C78.031,34.838,78.087,35.258,78.151,35.666z M80.35,10.5
			c-0.176,0.395-0.343,0.814-0.505,1.25H127V10.5H80.35z M119.666,20.333H77.899c-0.05,0.41-0.091,0.829-0.132,1.25h41.898V20.333z"
			/>
		<rect x="84.706" y="47.125" width="45.46" height="1.25"/>
		<path fill="#D9D9D9" d="M78.476,37.479h39.942v-2.438h-40.36C78.18,35.881,78.318,36.695,78.476,37.479z M115.166,20.958H77.825
			c-0.057,0.533-0.107,1.075-0.149,1.625h37.49V20.958z M80.092,11.125c-0.306,0.753-0.594,1.559-0.854,2.438H123.5v-2.438H80.092z"
			/>
		<linearGradient id="SVGID_11_" gradientUnits="userSpaceOnUse" x1="144.5713" y1="39.0898" x2="122.0713" y2="-5.4101">
			<stop  offset="0" style="stop-color:#8C8B6E"/>
			<stop  offset="1" style="stop-color:#E8E6DF"/>
		</linearGradient>
		<ellipse fill="url(#SVGID_11_)" cx="138.5" cy="27.084" rx="7.667" ry="21.333"/>
	</g>
</g>
</svg>
