<?xml version="1.0" encoding="utf-8"?>
<!-- Generator: Adobe Illustrator 16.0.0, SVG Export Plug-In . SVG Version: 6.00 Build 0)  -->
<!DOCTYPE svg PUBLIC "-//W3C//DTD SVG 1.1//EN" "http://www.w3.org/Graphics/SVG/1.1/DTD/svg11.dtd">
<svg preserveAspectRatio="none" version="1.1" id="图层_1" xmlns="http://www.w3.org/2000/svg" xmlns:xlink="http://www.w3.org/1999/xlink" x="0px" y="0px"
	 width="565.148px" height="193.526px" viewBox="-1.09 372.69 565.148 193.526"
	 enable-background="new -1.09 372.69 565.148 193.526" xml:space="preserve">
<g id="surface479">
	
		<linearGradient id="SVGID_1_" gradientUnits="userSpaceOnUse" x1="271.2231" y1="149.3047" x2="271.2231" y2="201.3047" gradientTransform="matrix(0.75 0 0 -0.75 63.9764 648.5245)">
		<stop  offset="0" style="stop-color:#C2C2C2"/>
		<stop  offset="0.59" style="stop-color:#EBEBEB"/>
	</linearGradient>
	<path fill="url(#SVGID_1_)" stroke="#C2C2C2" stroke-width="0.25" stroke-linejoin="bevel" stroke-miterlimit="10" d="
		M215.645,497.546h103.5v39h-103.5V497.546z"/>
	
		<linearGradient id="SVGID_2_" gradientUnits="userSpaceOnUse" x1="311.2261" y1="190.3027" x2="311.2261" y2="201.3027" gradientTransform="matrix(0.75 0 0 -0.75 15.3344 637.6837)">
		<stop  offset="0" style="stop-color:#595959"/>
		<stop  offset="0.59" style="stop-color:#9B9B9B"/>
	</linearGradient>
	<path fill="url(#SVGID_2_)" stroke="#868686" stroke-width="0.25" stroke-linejoin="bevel" stroke-miterlimit="10" d="
		M167.004,486.707h163.5v8.25h-163.5V486.707z"/>
	
		<linearGradient id="SVGID_3_" gradientUnits="userSpaceOnUse" x1="221.2236" y1="149.3047" x2="221.2236" y2="201.3047" gradientTransform="matrix(0.75 0 0 -0.75 29.0902 648.5245)">
		<stop  offset="0" style="stop-color:#C2C2C2"/>
		<stop  offset="0.59" style="stop-color:#EBEBEB"/>
	</linearGradient>
	<path fill="url(#SVGID_3_)" stroke="#C2C2C2" stroke-width="0.25" stroke-linejoin="bevel" stroke-miterlimit="10" d="
		M180.758,497.546h28.5v39h-28.5V497.546z"/>
	
		<linearGradient id="SVGID_4_" gradientUnits="userSpaceOnUse" x1="431.7271" y1="63.3008" x2="431.7271" y2="201.3018" gradientTransform="matrix(0.75 0 0 -0.75 41.8651 535.2296)">
		<stop  offset="0.41" style="stop-color:#BE0003"/>
		<stop  offset="1" style="stop-color:#D50407"/>
	</linearGradient>
	<path fill="url(#SVGID_4_)" stroke="#C80F12" stroke-width="0.25" stroke-linejoin="bevel" stroke-miterlimit="10" d="
		M193.535,384.253h344.25v103.5h-344.25V384.253z"/>
	
		<linearGradient id="SVGID_5_" gradientUnits="userSpaceOnUse" x1="309.6235" y1="-18.8784" x2="309.6235" y2="201.3306" gradientTransform="matrix(0.75 0 0 -0.75 -152.5338 523.8126)">
		<stop  offset="0" style="stop-color:#BE0003"/>
		<stop  offset="0.59" style="stop-color:#E24F52"/>
		<stop  offset="1" style="stop-color:#C00407"/>
	</linearGradient>
	<path fill="url(#SVGID_5_)" stroke="#C80F12" stroke-width="0.25" stroke-linejoin="bevel" stroke-miterlimit="10" d="
		M32.137,372.835c0,0-8.207-1.102-13.184,12.73c-6.316,16.52-15.984,48.293-15.984,48.293c-0.082-0.273-3.832,6.789-3.832,31.848
		c0,24.879,0,53.773,0,47.508v11.121c0,0-2.98,4.02,23.223,4.02c26.277-0.27,30.395,0,30.395,0c-0.367-0.27,5.766-0.523,8.387-8.875
		c2.496-8.645,8.91-41.273,48.215-40.723c37.531,0.578,45.594,35.504,44.547,52.781c-0.266,7.797,6.387,9.324,6.387,0
		c0.098-9.453,0-158.703,0-158.703H32.137z"/>
	
		<linearGradient id="SVGID_6_" gradientUnits="userSpaceOnUse" x1="221.2251" y1="51.3037" x2="221.2251" y2="201.3037" gradientTransform="matrix(0.75 0 0 -0.75 15.3353 525.8439)">
		<stop  offset="0" style="stop-color:#BE0003"/>
		<stop  offset="0.59" style="stop-color:#E24F52"/>
		<stop  offset="1" style="stop-color:#C00407"/>
	</linearGradient>
	<path fill="url(#SVGID_6_)" stroke="#C80F12" stroke-width="0.25" stroke-linejoin="bevel" stroke-miterlimit="10" d="
		M167.004,374.867h28.5v112.5h-28.5V374.867z"/>
	
		<linearGradient id="SVGID_7_" gradientUnits="userSpaceOnUse" x1="311.7241" y1="190.3066" x2="311.7241" y2="201.3066" gradientTransform="matrix(0.75 0 0 -0.75 15.3353 644.3546)">
		<stop  offset="0" style="stop-color:#C2C2C2"/>
		<stop  offset="0.59" style="stop-color:#EBEBEB"/>
	</linearGradient>
	<path fill="url(#SVGID_7_)" stroke="#C2C2C2" stroke-width="0.25" stroke-linejoin="bevel" stroke-miterlimit="10" d="
		M167.004,493.375h164.25v8.25h-164.25V493.375z"/>
	
		<linearGradient id="SVGID_8_" gradientUnits="userSpaceOnUse" x1="311.7241" y1="190.3086" x2="311.7241" y2="201.3086" gradientTransform="matrix(0.75 0 0 -0.75 15.3353 669.1007)">
		<stop  offset="0" style="stop-color:#C2C2C2"/>
		<stop  offset="0.59" style="stop-color:#EBEBEB"/>
	</linearGradient>
	<path fill="url(#SVGID_8_)" stroke="#C2C2C2" stroke-width="0.25" stroke-linejoin="bevel" stroke-miterlimit="10" d="
		M167.004,518.121h164.25v8.25h-164.25V518.121z"/>
	
		<linearGradient id="SVGID_9_" gradientUnits="userSpaceOnUse" x1="221.228" y1="51.3057" x2="221.228" y2="201.3057" gradientTransform="matrix(0.75 0 0 -0.75 383.7626 525.8429)">
		<stop  offset="0" style="stop-color:#BE0003"/>
		<stop  offset="0.59" style="stop-color:#E24F52"/>
		<stop  offset="1" style="stop-color:#C00407"/>
	</linearGradient>
	<path fill="url(#SVGID_9_)" stroke="#C80F12" stroke-width="0.25" stroke-linejoin="bevel" stroke-miterlimit="10" d="
		M535.433,374.863h28.5v112.5h-28.5V374.863z"/>
	
		<radialGradient id="SVGID_10_" cx="202.125" cy="201.3042" r="134.8198" gradientTransform="matrix(0.75 0 0 -0.75 190.3622 641.3663)" gradientUnits="userSpaceOnUse">
		<stop  offset="0" style="stop-color:#7E7E7E"/>
		<stop  offset="0.41" style="stop-color:#7E7E7E"/>
		<stop  offset="1" style="stop-color:#303030"/>
	</radialGradient>
	<path fill="url(#SVGID_10_)" stroke="#303030" stroke-width="0.25" stroke-linejoin="bevel" stroke-miterlimit="10" d="
		M342.031,526.386c0-20.25,15.957-36,35.734-36c19.766,0,35.813,15.957,35.813,35.691c-0.297,19.809-16.035,35.688-35.813,35.688
		c-19.984-0.129-35.809-16.016-35.809-35.688L342.031,526.386z"/>
	
		<radialGradient id="SVGID_11_" cx="202.1812" cy="201.3047" r="58.8259" gradientTransform="matrix(0.75 0 0 -0.75 210.5604 661.4874)" gradientUnits="userSpaceOnUse">
		<stop  offset="0" style="stop-color:#AFAFAF"/>
		<stop  offset="0.41" style="stop-color:#AFAFAF"/>
		<stop  offset="1" style="stop-color:#868686"/>
	</radialGradient>
	<path fill="url(#SVGID_11_)" stroke="#7E7E7E" stroke-width="0.25" stroke-linejoin="bevel" stroke-miterlimit="10" d="
		M362.23,526.261c0-9,6.961-15.75,15.586-15.75c8.414,0,15.621,6.957,15.621,15.566c0.293,8.434-6.996,15.566-15.621,15.566
		c-8.836,0.367-15.621-6.988-15.621-15.566L362.23,526.261z"/>
	
		<radialGradient id="SVGID_12_" cx="202.125" cy="201.3042" r="134.8205" gradientTransform="matrix(0.75 0 0 -0.75 293.5497 641.3663)" gradientUnits="userSpaceOnUse">
		<stop  offset="0" style="stop-color:#7E7E7E"/>
		<stop  offset="0.41" style="stop-color:#7E7E7E"/>
		<stop  offset="1" style="stop-color:#303030"/>
	</radialGradient>
	<path fill="url(#SVGID_12_)" stroke="#303030" stroke-width="0.25" stroke-linejoin="bevel" stroke-miterlimit="10" d="
		M445.218,526.386c0-20.25,15.957-36,35.734-36c19.766,0,35.813,15.957,35.813,35.691c-0.297,19.809-16.035,35.688-35.813,35.688
		c-19.984-0.129-35.809-16.016-35.809-35.688L445.218,526.386z"/>
	
		<radialGradient id="SVGID_13_" cx="202.1797" cy="201.3042" r="58.8277" gradientTransform="matrix(0.75 0 0 -0.75 313.7489 661.4865)" gradientUnits="userSpaceOnUse">
		<stop  offset="0" style="stop-color:#AFAFAF"/>
		<stop  offset="0.41" style="stop-color:#AFAFAF"/>
		<stop  offset="1" style="stop-color:#868686"/>
	</radialGradient>
	<path fill="url(#SVGID_13_)" stroke="#7E7E7E" stroke-width="0.25" stroke-linejoin="bevel" stroke-miterlimit="10" d="
		M465.417,526.257c0-9,6.961-15.75,15.586-15.75c8.414,0,15.621,6.961,15.621,15.566c0.293,8.434-6.992,15.566-15.621,15.566
		c-8.836,0.367-15.617-6.984-15.617-15.566L465.417,526.257z"/>
	
		<radialGradient id="SVGID_14_" cx="202.1128" cy="201.3042" r="151.1523" gradientTransform="matrix(0.75 0 0 -0.75 -84.3854 637.045)" gradientUnits="userSpaceOnUse">
		<stop  offset="0" style="stop-color:#7E7E7E"/>
		<stop  offset="0.41" style="stop-color:#7E7E7E"/>
		<stop  offset="1" style="stop-color:#303030"/>
	</radialGradient>
	<path fill="url(#SVGID_14_)" stroke="#303030" stroke-width="0.25" stroke-linejoin="bevel" stroke-miterlimit="10" d="
		M67.285,525.816c0-21.75,17.891-39.75,40.063-39.75c22.188,0,40.148,17.891,40.148,40.012
		c0.039,22.238-17.977,40.012-40.148,40.012c-22.063,0.227-40.148-17.957-40.148-40.012L67.285,525.816z"/>
	
		<linearGradient id="SVGID_15_" gradientUnits="userSpaceOnUse" x1="247.8164" y1="125.9092" x2="247.8164" y2="201.3994" gradientTransform="matrix(0.75 0 0 -0.75 -132.6354 532.9894)">
		<stop  offset="0" style="stop-color:#C2C2C2"/>
		<stop  offset="0.59" style="stop-color:#EBEBEB"/>
	</linearGradient>
	<path fill="url(#SVGID_15_)" stroke="#D7D7D7" stroke-width="0.25" stroke-linejoin="bevel" stroke-miterlimit="10" d="
		M31.035,382.011h48.75c0,0,7.82-1.402,7.82,8.254c-0.32,9.746,0,26.367,0,26.367c-0.32-0.121,0.262,9.395-8.121,9.395
		c-8.699,0.234-30.398,0-30.398,0c-0.051,0.234-5.766,0-6.027,6.004c-0.023,6.23-4.977,6.527-4.977,6.527l-15.297-0.297
		c0,0-6.191-2.313-3.047-10.668c3.047-8.082,11.531-45.461,11.531-45.461L31.035,382.011z"/>
	<path fill="#9D0002" stroke="#9D0002" stroke-width="0.25" stroke-linejoin="bevel" stroke-miterlimit="10" d="M76.34,436.468
		h12.75v6H76.34V436.468z"/>
	
		<radialGradient id="SVGID_16_" cx="202.1621" cy="201.3037" r="84.3974" gradientTransform="matrix(0.75 0 0 -0.75 -66.6447 655.84)" gradientUnits="userSpaceOnUse">
		<stop  offset="0" style="stop-color:#AFAFAF"/>
		<stop  offset="0.41" style="stop-color:#AFAFAF"/>
		<stop  offset="1" style="stop-color:#868686"/>
	</radialGradient>
	<path fill="url(#SVGID_16_)" stroke="#7E7E7E" stroke-width="0.25" stroke-linejoin="bevel" stroke-miterlimit="10" d="
		M85.023,527.363c0-12.75,9.988-22.5,22.367-22.5c12.133,0,22.418,9.988,22.418,22.336c0.215,12.164-10.039,22.34-22.418,22.34
		c-12.617,0.324-22.414-10.023-22.414-22.34L85.023,527.363z"/>
	
		<linearGradient id="SVGID_17_" gradientUnits="userSpaceOnUse" x1="217.7236" y1="161.3066" x2="217.7236" y2="201.3066" gradientTransform="matrix(0.75 0 0 -0.75 54.8051 549.9904)">
		<stop  offset="0" style="stop-color:#BE0003"/>
		<stop  offset="0.59" style="stop-color:#E24F52"/>
		<stop  offset="1" style="stop-color:#C00407"/>
	</linearGradient>
	<path fill="url(#SVGID_17_)" stroke="#C00306" stroke-width="0.25" stroke-linejoin="bevel" stroke-miterlimit="10" d="
		M206.473,399.011h23.25v30h-23.25V399.011z"/>
	
		<linearGradient id="SVGID_18_" gradientUnits="userSpaceOnUse" x1="217.7236" y1="201.3057" x2="217.7236" y2="161.3057" gradientTransform="matrix(0.75 0 0 -0.75 54.8051 549.9904)">
		<stop  offset="0" style="stop-color:#A20002"/>
		<stop  offset="0.63" style="stop-color:#C70003;stop-opacity:0.0471"/>
	</linearGradient>
	<path fill="url(#SVGID_18_)" d="M206.473,399.011h23.25v30h-23.25V399.011z"/>
	
		<linearGradient id="SVGID_19_" gradientUnits="userSpaceOnUse" x1="217.7266" y1="161.3066" x2="217.7266" y2="201.3066" gradientTransform="matrix(0.75 0 0 -0.75 91.3265 549.9904)">
		<stop  offset="0" style="stop-color:#BE0003"/>
		<stop  offset="0.59" style="stop-color:#E24F52"/>
		<stop  offset="1" style="stop-color:#C00407"/>
	</linearGradient>
	<path fill="url(#SVGID_19_)" stroke="#C00306" stroke-width="0.25" stroke-linejoin="bevel" stroke-miterlimit="10" d="
		M242.996,399.011h23.25v30h-23.25V399.011z"/>
	
		<linearGradient id="SVGID_20_" gradientUnits="userSpaceOnUse" x1="217.7266" y1="201.3057" x2="217.7266" y2="161.3057" gradientTransform="matrix(0.75 0 0 -0.75 91.3265 549.9904)">
		<stop  offset="0" style="stop-color:#A20002"/>
		<stop  offset="0.63" style="stop-color:#C70003;stop-opacity:0.0471"/>
	</linearGradient>
	<path fill="url(#SVGID_20_)" d="M242.996,399.011h23.25v30h-23.25V399.011z"/>
	
		<linearGradient id="SVGID_21_" gradientUnits="userSpaceOnUse" x1="217.7266" y1="161.3047" x2="217.7266" y2="201.3047" gradientTransform="matrix(0.75 0 0 -0.75 127.3573 549.9884)">
		<stop  offset="0" style="stop-color:#BE0003"/>
		<stop  offset="0.59" style="stop-color:#E24F52"/>
		<stop  offset="1" style="stop-color:#C00407"/>
	</linearGradient>
	<path fill="url(#SVGID_21_)" stroke="#C00306" stroke-width="0.25" stroke-linejoin="bevel" stroke-miterlimit="10" d="
		M279.027,399.011h23.25v30h-23.25V399.011z"/>
	
		<linearGradient id="SVGID_22_" gradientUnits="userSpaceOnUse" x1="217.7266" y1="201.3037" x2="217.7266" y2="161.3037" gradientTransform="matrix(0.75 0 0 -0.75 127.3573 549.9884)">
		<stop  offset="0" style="stop-color:#A20002"/>
		<stop  offset="0.63" style="stop-color:#C70003;stop-opacity:0.0471"/>
	</linearGradient>
	<path fill="url(#SVGID_22_)" d="M279.027,399.011h23.25v30h-23.25V399.011z"/>
	
		<linearGradient id="SVGID_23_" gradientUnits="userSpaceOnUse" x1="217.7246" y1="161.3066" x2="217.7246" y2="201.3066" gradientTransform="matrix(0.75 0 0 -0.75 165.4403 549.9904)">
		<stop  offset="0" style="stop-color:#BE0003"/>
		<stop  offset="0.59" style="stop-color:#E24F52"/>
		<stop  offset="1" style="stop-color:#C00407"/>
	</linearGradient>
	<path fill="url(#SVGID_23_)" stroke="#C00306" stroke-width="0.25" stroke-linejoin="bevel" stroke-miterlimit="10" d="
		M317.109,399.011h23.25v30h-23.25V399.011z"/>
	
		<linearGradient id="SVGID_24_" gradientUnits="userSpaceOnUse" x1="217.7246" y1="201.3057" x2="217.7246" y2="161.3057" gradientTransform="matrix(0.75 0 0 -0.75 165.4403 549.9904)">
		<stop  offset="0" style="stop-color:#A20002"/>
		<stop  offset="0.63" style="stop-color:#C70003;stop-opacity:0.0471"/>
	</linearGradient>
	<path fill="url(#SVGID_24_)" d="M317.109,399.011h23.25v30h-23.25V399.011z"/>
	
		<linearGradient id="SVGID_25_" gradientUnits="userSpaceOnUse" x1="217.7227" y1="161.3066" x2="217.7227" y2="201.3066" gradientTransform="matrix(0.75 0 0 -0.75 201.9618 549.9904)">
		<stop  offset="0" style="stop-color:#BE0003"/>
		<stop  offset="0.59" style="stop-color:#E24F52"/>
		<stop  offset="1" style="stop-color:#C00407"/>
	</linearGradient>
	<path fill="url(#SVGID_25_)" stroke="#C00306" stroke-width="0.25" stroke-linejoin="bevel" stroke-miterlimit="10" d="
		M353.628,399.011h23.25v30h-23.25V399.011z"/>
	
		<linearGradient id="SVGID_26_" gradientUnits="userSpaceOnUse" x1="217.7227" y1="201.3057" x2="217.7227" y2="161.3057" gradientTransform="matrix(0.75 0 0 -0.75 201.9618 549.9904)">
		<stop  offset="0" style="stop-color:#A20002"/>
		<stop  offset="0.63" style="stop-color:#C70003;stop-opacity:0.0471"/>
	</linearGradient>
	<path fill="url(#SVGID_26_)" d="M353.628,399.011h23.25v30h-23.25V399.011z"/>
	
		<linearGradient id="SVGID_27_" gradientUnits="userSpaceOnUse" x1="217.7227" y1="161.3066" x2="217.7227" y2="201.3066" gradientTransform="matrix(0.75 0 0 -0.75 237.993 549.9904)">
		<stop  offset="0" style="stop-color:#BE0003"/>
		<stop  offset="0.59" style="stop-color:#E24F52"/>
		<stop  offset="1" style="stop-color:#C00407"/>
	</linearGradient>
	<path fill="url(#SVGID_27_)" stroke="#C00306" stroke-width="0.25" stroke-linejoin="bevel" stroke-miterlimit="10" d="
		M389.66,399.011h23.25v30h-23.25V399.011z"/>
	
		<linearGradient id="SVGID_28_" gradientUnits="userSpaceOnUse" x1="217.7217" y1="201.3057" x2="217.7217" y2="161.3057" gradientTransform="matrix(0.75 0 0 -0.75 237.993 549.9904)">
		<stop  offset="0" style="stop-color:#A20002"/>
		<stop  offset="0.63" style="stop-color:#C70003;stop-opacity:0.0471"/>
	</linearGradient>
	<path fill="url(#SVGID_28_)" d="M389.66,399.011h23.25v30h-23.25V399.011z"/>
	
		<linearGradient id="SVGID_29_" gradientUnits="userSpaceOnUse" x1="217.7227" y1="161.3047" x2="217.7227" y2="201.3047" gradientTransform="matrix(0.75 0 0 -0.75 274.8055 549.9884)">
		<stop  offset="0" style="stop-color:#BE0003"/>
		<stop  offset="0.59" style="stop-color:#E24F52"/>
		<stop  offset="1" style="stop-color:#C00407"/>
	</linearGradient>
	<path fill="url(#SVGID_29_)" stroke="#C00306" stroke-width="0.25" stroke-linejoin="bevel" stroke-miterlimit="10" d="
		M426.472,399.011h23.25v30h-23.25V399.011z"/>
	
		<linearGradient id="SVGID_30_" gradientUnits="userSpaceOnUse" x1="217.7227" y1="201.3037" x2="217.7227" y2="161.3037" gradientTransform="matrix(0.75 0 0 -0.75 274.8055 549.9884)">
		<stop  offset="0" style="stop-color:#A20002"/>
		<stop  offset="0.63" style="stop-color:#C70003;stop-opacity:0.0471"/>
	</linearGradient>
	<path fill="url(#SVGID_30_)" d="M426.472,399.011h23.25v30h-23.25V399.011z"/>
	
		<linearGradient id="SVGID_31_" gradientUnits="userSpaceOnUse" x1="217.7236" y1="161.3037" x2="217.7236" y2="201.3047" gradientTransform="matrix(0.75 0 0 -0.75 311.328 549.9884)">
		<stop  offset="0" style="stop-color:#BE0003"/>
		<stop  offset="0.59" style="stop-color:#E24F52"/>
		<stop  offset="1" style="stop-color:#C00407"/>
	</linearGradient>
	<path fill="url(#SVGID_31_)" stroke="#C00306" stroke-width="0.25" stroke-linejoin="bevel" stroke-miterlimit="10" d="
		M462.996,399.011h23.25v30h-23.25V399.011z"/>
	
		<linearGradient id="SVGID_32_" gradientUnits="userSpaceOnUse" x1="217.7231" y1="201.3047" x2="217.7231" y2="161.3037" gradientTransform="matrix(0.75 0 0 -0.75 311.328 549.9884)">
		<stop  offset="0" style="stop-color:#A20002"/>
		<stop  offset="0.63" style="stop-color:#C70003;stop-opacity:0.0471"/>
	</linearGradient>
	<path fill="url(#SVGID_32_)" d="M462.996,399.011h23.25v30h-23.25V399.011z"/>
	
		<linearGradient id="SVGID_33_" gradientUnits="userSpaceOnUse" x1="217.7256" y1="161.3037" x2="217.7256" y2="201.3037" gradientTransform="matrix(0.75 0 0 -0.75 347.3583 549.9884)">
		<stop  offset="0" style="stop-color:#BE0003"/>
		<stop  offset="0.59" style="stop-color:#E24F52"/>
		<stop  offset="1" style="stop-color:#C00407"/>
	</linearGradient>
	<path fill="url(#SVGID_33_)" stroke="#C00306" stroke-width="0.25" stroke-linejoin="bevel" stroke-miterlimit="10" d="
		M499.027,399.011h23.25v30h-23.25V399.011z"/>
	
		<linearGradient id="SVGID_34_" gradientUnits="userSpaceOnUse" x1="217.7246" y1="201.3047" x2="217.7246" y2="161.3047" gradientTransform="matrix(0.75 0 0 -0.75 347.3583 549.9884)">
		<stop  offset="0" style="stop-color:#A20002"/>
		<stop  offset="0.63" style="stop-color:#C70003;stop-opacity:0.0471"/>
	</linearGradient>
	<path fill="url(#SVGID_34_)" d="M499.027,399.011h23.25v30h-23.25V399.011z"/>
	
		<linearGradient id="SVGID_35_" gradientUnits="userSpaceOnUse" x1="217.7231" y1="161.3027" x2="217.7231" y2="201.3027" gradientTransform="matrix(0.75 0 0 -0.75 54.8051 591.2657)">
		<stop  offset="0" style="stop-color:#BE0003"/>
		<stop  offset="0.59" style="stop-color:#E24F52"/>
		<stop  offset="1" style="stop-color:#C00407"/>
	</linearGradient>
	<path fill="url(#SVGID_35_)" stroke="#C00306" stroke-width="0.25" stroke-linejoin="bevel" stroke-miterlimit="10" d="
		M206.473,440.289h23.25v30h-23.25V440.289z"/>
	
		<linearGradient id="SVGID_36_" gradientUnits="userSpaceOnUse" x1="217.7241" y1="201.3018" x2="217.7241" y2="161.3018" gradientTransform="matrix(0.75 0 0 -0.75 54.8051 591.2657)">
		<stop  offset="0" style="stop-color:#A20002"/>
		<stop  offset="0.63" style="stop-color:#C70003;stop-opacity:0.0471"/>
	</linearGradient>
	<path fill="url(#SVGID_36_)" d="M206.473,440.289h23.25v30h-23.25V440.289z"/>
	
		<linearGradient id="SVGID_37_" gradientUnits="userSpaceOnUse" x1="217.7261" y1="161.3027" x2="217.7261" y2="201.3027" gradientTransform="matrix(0.75 0 0 -0.75 91.3265 591.2657)">
		<stop  offset="0" style="stop-color:#BE0003"/>
		<stop  offset="0.59" style="stop-color:#E24F52"/>
		<stop  offset="1" style="stop-color:#C00407"/>
	</linearGradient>
	<path fill="url(#SVGID_37_)" stroke="#C00306" stroke-width="0.25" stroke-linejoin="bevel" stroke-miterlimit="10" d="
		M242.996,440.289h23.25v30h-23.25V440.289z"/>
	
		<linearGradient id="SVGID_38_" gradientUnits="userSpaceOnUse" x1="217.7271" y1="201.3018" x2="217.7271" y2="161.3018" gradientTransform="matrix(0.75 0 0 -0.75 91.3265 591.2657)">
		<stop  offset="0" style="stop-color:#A20002"/>
		<stop  offset="0.63" style="stop-color:#C70003;stop-opacity:0.0471"/>
	</linearGradient>
	<path fill="url(#SVGID_38_)" d="M242.996,440.289h23.25v30h-23.25V440.289z"/>
	
		<linearGradient id="SVGID_39_" gradientUnits="userSpaceOnUse" x1="217.7261" y1="161.3027" x2="217.7261" y2="201.3027" gradientTransform="matrix(0.75 0 0 -0.75 127.3573 591.2657)">
		<stop  offset="0" style="stop-color:#BE0003"/>
		<stop  offset="0.59" style="stop-color:#E24F52"/>
		<stop  offset="1" style="stop-color:#C00407"/>
	</linearGradient>
	<path fill="url(#SVGID_39_)" stroke="#C00306" stroke-width="0.25" stroke-linejoin="bevel" stroke-miterlimit="10" d="
		M279.027,440.289h23.25v30h-23.25V440.289z"/>
	
		<linearGradient id="SVGID_40_" gradientUnits="userSpaceOnUse" x1="217.7271" y1="201.3018" x2="217.7271" y2="161.3018" gradientTransform="matrix(0.75 0 0 -0.75 127.3573 591.2657)">
		<stop  offset="0" style="stop-color:#A20002"/>
		<stop  offset="0.63" style="stop-color:#C70003;stop-opacity:0.0471"/>
	</linearGradient>
	<path fill="url(#SVGID_40_)" d="M279.027,440.289h23.25v30h-23.25V440.289z"/>
	
		<linearGradient id="SVGID_41_" gradientUnits="userSpaceOnUse" x1="217.7241" y1="161.3027" x2="217.7241" y2="201.3027" gradientTransform="matrix(0.75 0 0 -0.75 165.4403 591.2657)">
		<stop  offset="0" style="stop-color:#BE0003"/>
		<stop  offset="0.59" style="stop-color:#E24F52"/>
		<stop  offset="1" style="stop-color:#C00407"/>
	</linearGradient>
	<path fill="url(#SVGID_41_)" stroke="#C00306" stroke-width="0.25" stroke-linejoin="bevel" stroke-miterlimit="10" d="
		M317.109,440.289h23.25v30h-23.25V440.289z"/>
	
		<linearGradient id="SVGID_42_" gradientUnits="userSpaceOnUse" x1="217.7251" y1="201.3018" x2="217.7251" y2="161.3018" gradientTransform="matrix(0.75 0 0 -0.75 165.4403 591.2657)">
		<stop  offset="0" style="stop-color:#A20002"/>
		<stop  offset="0.63" style="stop-color:#C70003;stop-opacity:0.0471"/>
	</linearGradient>
	<path fill="url(#SVGID_42_)" d="M317.109,440.289h23.25v30h-23.25V440.289z"/>
	
		<linearGradient id="SVGID_43_" gradientUnits="userSpaceOnUse" x1="217.7222" y1="161.3027" x2="217.7222" y2="201.3027" gradientTransform="matrix(0.75 0 0 -0.75 201.9618 591.2657)">
		<stop  offset="0" style="stop-color:#BE0003"/>
		<stop  offset="0.59" style="stop-color:#E24F52"/>
		<stop  offset="1" style="stop-color:#C00407"/>
	</linearGradient>
	<path fill="url(#SVGID_43_)" stroke="#C00306" stroke-width="0.25" stroke-linejoin="bevel" stroke-miterlimit="10" d="
		M353.628,440.289h23.25v30h-23.25V440.289z"/>
	
		<linearGradient id="SVGID_44_" gradientUnits="userSpaceOnUse" x1="217.7231" y1="201.3018" x2="217.7231" y2="161.3018" gradientTransform="matrix(0.75 0 0 -0.75 201.9618 591.2657)">
		<stop  offset="0" style="stop-color:#A20002"/>
		<stop  offset="0.63" style="stop-color:#C70003;stop-opacity:0.0471"/>
	</linearGradient>
	<path fill="url(#SVGID_44_)" d="M353.628,440.289h23.25v30h-23.25V440.289z"/>
	
		<linearGradient id="SVGID_45_" gradientUnits="userSpaceOnUse" x1="217.7222" y1="161.3027" x2="217.7222" y2="201.3027" gradientTransform="matrix(0.75 0 0 -0.75 237.993 591.2657)">
		<stop  offset="0" style="stop-color:#BE0003"/>
		<stop  offset="0.59" style="stop-color:#E24F52"/>
		<stop  offset="1" style="stop-color:#C00407"/>
	</linearGradient>
	<path fill="url(#SVGID_45_)" stroke="#C00306" stroke-width="0.25" stroke-linejoin="bevel" stroke-miterlimit="10" d="
		M389.66,440.289h23.25v30h-23.25V440.289z"/>
	
		<linearGradient id="SVGID_46_" gradientUnits="userSpaceOnUse" x1="217.7222" y1="201.3018" x2="217.7222" y2="161.3018" gradientTransform="matrix(0.75 0 0 -0.75 237.993 591.2657)">
		<stop  offset="0" style="stop-color:#A20002"/>
		<stop  offset="0.63" style="stop-color:#C70003;stop-opacity:0.0471"/>
	</linearGradient>
	<path fill="url(#SVGID_46_)" d="M389.66,440.289h23.25v30h-23.25V440.289z"/>
	
		<linearGradient id="SVGID_47_" gradientUnits="userSpaceOnUse" x1="217.7222" y1="161.3027" x2="217.7222" y2="201.3027" gradientTransform="matrix(0.75 0 0 -0.75 274.8055 591.2657)">
		<stop  offset="0" style="stop-color:#BE0003"/>
		<stop  offset="0.59" style="stop-color:#E24F52"/>
		<stop  offset="1" style="stop-color:#C00407"/>
	</linearGradient>
	<path fill="url(#SVGID_47_)" stroke="#C00306" stroke-width="0.25" stroke-linejoin="bevel" stroke-miterlimit="10" d="
		M426.472,440.289h23.25v30h-23.25V440.289z"/>
	
		<linearGradient id="SVGID_48_" gradientUnits="userSpaceOnUse" x1="217.7231" y1="201.3018" x2="217.7231" y2="161.3018" gradientTransform="matrix(0.75 0 0 -0.75 274.8055 591.2657)">
		<stop  offset="0" style="stop-color:#A20002"/>
		<stop  offset="0.63" style="stop-color:#C70003;stop-opacity:0.0471"/>
	</linearGradient>
	<path fill="url(#SVGID_48_)" d="M426.472,440.289h23.25v30h-23.25V440.289z"/>
	
		<linearGradient id="SVGID_49_" gradientUnits="userSpaceOnUse" x1="217.7231" y1="161.3018" x2="217.7231" y2="201.3027" gradientTransform="matrix(0.75 0 0 -0.75 311.328 591.2657)">
		<stop  offset="0" style="stop-color:#BE0003"/>
		<stop  offset="0.59" style="stop-color:#E24F52"/>
		<stop  offset="1" style="stop-color:#C00407"/>
	</linearGradient>
	<path fill="url(#SVGID_49_)" stroke="#C00306" stroke-width="0.25" stroke-linejoin="bevel" stroke-miterlimit="10" d="
		M462.996,440.289h23.25v30h-23.25V440.289z"/>
	
		<linearGradient id="SVGID_50_" gradientUnits="userSpaceOnUse" x1="217.7236" y1="201.3027" x2="217.7236" y2="161.3018" gradientTransform="matrix(0.75 0 0 -0.75 311.328 591.2657)">
		<stop  offset="0" style="stop-color:#A20002"/>
		<stop  offset="0.63" style="stop-color:#C70003;stop-opacity:0.0471"/>
	</linearGradient>
	<path fill="url(#SVGID_50_)" d="M462.996,440.289h23.25v30h-23.25V440.289z"/>
	
		<linearGradient id="SVGID_51_" gradientUnits="userSpaceOnUse" x1="217.7251" y1="161.3018" x2="217.7251" y2="201.3018" gradientTransform="matrix(0.75 0 0 -0.75 347.3583 591.2657)">
		<stop  offset="0" style="stop-color:#BE0003"/>
		<stop  offset="0.59" style="stop-color:#E24F52"/>
		<stop  offset="1" style="stop-color:#C00407"/>
	</linearGradient>
	<path fill="url(#SVGID_51_)" stroke="#C00306" stroke-width="0.25" stroke-linejoin="bevel" stroke-miterlimit="10" d="
		M499.027,440.289h23.25v30h-23.25V440.289z"/>
	
		<linearGradient id="SVGID_52_" gradientUnits="userSpaceOnUse" x1="217.7251" y1="201.3027" x2="217.7251" y2="161.3027" gradientTransform="matrix(0.75 0 0 -0.75 347.3583 591.2657)">
		<stop  offset="0" style="stop-color:#A20002"/>
		<stop  offset="0.63" style="stop-color:#C70003;stop-opacity:0.0471"/>
	</linearGradient>
	<path fill="url(#SVGID_52_)" d="M499.027,440.289h23.25v30h-23.25V440.289z"/>
</g>
</svg>
