<?xml version="1.0" encoding="utf-8"?>
<!-- Generator: Adobe Illustrator 16.0.0, SVG Export Plug-In . SVG Version: 6.00 Build 0)  -->
<!DOCTYPE svg PUBLIC "-//W3C//DTD SVG 1.1//EN" "http://www.w3.org/Graphics/SVG/1.1/DTD/svg11.dtd">
<svg preserveAspectRatio="none"   version="1.1" id="图层_1" xmlns="http://www.w3.org/2000/svg" xmlns:xlink="http://www.w3.org/1999/xlink" x="0px" y="0px"
	 width="565.825px" height="468.914px" viewBox="0.113 99 565.825 468.914" enable-background="new 0.113 99 565.825 468.914"
	 xml:space="preserve">
<g id="surface471">
	
		<linearGradient id="SVGID_1_" gradientUnits="userSpaceOnUse" x1="202.2271" y1="-40.1636" x2="948.356" y2="-40.1636" gradientTransform="matrix(0.75 0 0 -0.75 -149.3419 356.6915)">
		<stop  offset="0" style="stop-color:#9D6C6E"/>
		<stop  offset="0.48" style="stop-color:#6D494A"/>
		<stop  offset="1" style="stop-color:#543839"/>
	</linearGradient>
	<path fill="url(#SVGID_1_)" d="M2.328,457.714c0,0,2.879,6.098,9.695,11.785c6.805,5.465,17.98,19.914,17.98,21.242
		c0.074,1.473-3.402,12.477-8.328,22.188c-2.098,4.785-8.008,12.254-10.57,15.523c-5.027,6.512-13.43,26.727,7.594,35.004
		c14.379,5.258,46.176,6.59,91.238,0c38.641-5.992,76.148-17.047,124.957-41.598c64.433-32.645,88.906-50.934,138.324-84.211
		c38.609-26.434,94.82-79.402,122.145-104.426c23.715-21.758,35.551-37.609,46.184-55.187c6.781-11.57,14.094-54.313,20.379-72.32
		c-0.098,0-6.664,14.027-14.613,19.336l-58.234,35.414l-182.25,117l-88.5,53.25c0,0-48.633,28.105-129.395,39.797
		c-0.355-0.047-72.805,4.805-86.605-12.77V457.714z"/>
	<path fill="#E0E0E0" d="M58.5,387.808c0,0-33.004,19.488-47.773,37.695c-14.477,18.555-15.902,35.273,6.816,40.969
		c-0.293,0.086,32.945,11.762,99.59,0C117,466.558,188.32,450.156,223.5,427.777c0-0.219,90.914-51.961,125.332-77.004
		c-0.082,0.285,146.207-92.914,156.375-99.355c0.293-0.109,43.84-26.027,48.383-32.477c4.41-6.633,13.488-14.695,12.23-33.426
		c-0.32-0.207,0-4.738-9.152-7.82L471,155.309c0,0-40.004,27.496-44.734,30.816c-4.766,3.684-120.227,67.086-138.215,75.621
		c-7.55,3.813-157.617,84.39-169.214,90.082c-0.336-0.02-43.785,25.363-60.012,36.133L58.5,387.808z"/>
	<path fill="#2E7042" d="M68.168,384.558c0,0-32.273,18.383-46.574,36.02c-14.176,17.98-10.984,32.473,6.602,39.691
		c0.223,0.039,37.844,9.035,90.574,0.23c-0.352-0.191,56.109-10.16,106.922-38.875c-0.023-0.316,83.035-48.496,124.273-75.586
		c0.203,0.27,138.195-89.261,148.043-95.5c-0.09-0.23,38.969-23.309,44.617-28.449c7.043-6.281,19.277-16.813,20.809-32.75
		c-0.266,0.219,0-8.434-10.227-10.723l-85.289-19.809c0,0-39.27,26.641-43.855,29.859c-4.895,3.141-116.445,64.992-133.867,73.262
		c-6.777,3.379-152.664,81.757-163.894,87.269c0.367,0.109-42.406,24.574-58.121,35.008L68.168,384.558z"/>
	<path fill="#3F9A5A" d="M74.273,382.265c0,0-35.434,21.641-49.391,38.848c-13.609,17.402-9.766,29,7.395,36.047
		c-0.004,0.105,33.883,10.43,89.551,0.777c-0.305,0.078,55.793-11.824,105.375-39.844c0.07,0.172,81.019-47.211,121.257-73.645
		c0.313,0.316,136.055-88.105,145.664-94.191c0.148,0.008,36.809-23.43,42.324-28.445c6.574-6.047,18.809-13.953,20.313-29.508
		c-0.238,0.211,0-8.227-9.992-10.461l-83.246-19.328c0,0-38.113,26.766-42.586,29.902c-4.664,3.098-114.555,63.996-131.551,72.063
		c-6.613,3.035-140.07,75.226-158.367,83.804c0.254,0.23-41.137,23.98-56.469,34.16L74.273,382.265z"/>
	<path fill="#79B88B" d="M76.207,387.222c0,0-35.379,20-47.055,34.402c-11.445,14.348-10.715,24.996,7.254,29.504
		c0.051-0.156,24.27,11.09,76.977,1.785c0.324,0.309,61.043-12.801,115.176-42.766l83.148-50.676c0,0,115.375-73.395,123.418-78.488
		l76.082-46.762l-100.5-30.75l-153.75,84c0,0-118.582,63.305-133.465,70.906c-0.035,0.344-34.625,20.063-47.457,28.582
		L76.207,387.222z"/>
	<path fill="#A0A0A0" d="M69.926,440.582l11.25-5.25v-15l-11.25,5.25V440.582z"/>
	<path fill="#BCBCBC" d="M81.176,420.035l-11.25-3v8.25L81.176,420.035z"/>
	<path fill="#E0E0E0" d="M55.574,377.425l9,3.75v62.25l-9-4.5V377.425z"/>
	<path fill="#A0A0A0" d="M69.926,378.941l-5.25,2.25v62.25l5.25-3V378.941z"/>
	<path fill="#C0C0C0" d="M69.824,378.816l-5.25,3l-9-4.5l5.25-2.25L69.824,378.816z"/>
	<path fill="#E0E0E0" d="M60.32,357.109l3,1.5v21l-3-1.5V357.109z"/>
	<path fill="#A0A0A0" d="M65.18,357.621l-1.5,0.75v21l1.5-0.75V357.621z"/>
	<path fill="#C0C0C0" d="M64.82,357.808l-1.5,0.75l-3-1.5l1.5-0.75L64.82,357.808z"/>
	<path fill="#A0A0A0" d="M423.14,151.152l-3.75,6h-1.5v3.75l11.25-6l0.75-6.75L423.14,151.152z"/>
	<path fill="#E0E0E0" d="M438.792,162.816l-3,39.75l71.25,21.75l5.25-42L438.792,162.816z"/>
	<path fill="#C0C0C0" d="M511.707,182.328l-4.5,42l42.75-26.25l2.25-20.25l-29.25,14.25l1.5-14.25L511.707,182.328z"/>
	<path fill="#E0E0E0" d="M447.937,152.543v3.75l56.25,15v-3.75L447.937,152.543z"/>
	<path fill="#BCBCBC" d="M504.25,170.984v-3.75l13.5-6v3.75L504.25,170.984z"/>
	<path fill="#3F9A5A" d="M517.687,161.496l-3.75-9l-39-9.75l-11.25,2.25l-15.75,7.5l56.25,15L517.687,161.496z"/>
	<path fill="#3F9A5A" d="M517.75,160.918l18.75,5.25l-15,9.75l-17.25-4.5l13.5-6V160.918z"/>
	<path fill="#BCBCBC" d="M551.679,178.066l-5.25-1.5l-22.5,9.75l-0.75,5.25L551.679,178.066z"/>
	<path fill="#D7D7D7" d="M411.976,148.434v6.75l2.25,0.75v3.75l3.75,1.5v-3.75l116.25,31.5l-0.75,3.75l4.5,1.5l0.75-4.5l2.25,0.75
		l1.5-7.5L411.976,148.434z"/>
	<path fill="#BCBCBC" d="M537.035,166.133v9.75l-2.25-0.75l-3.75,3l-9.75-2.25L537.035,166.133z"/>
	<path fill="#C0C0C0" d="M411.976,148.398l130.5,34.5l6-3.75l-13.5-3.75l-4.5,3l-105-27.75l4.5-2.25l-11.25-3L411.976,148.398z"/>
	<path fill="#A0A0A0" d="M541.96,182.348l-0.75,7.5h-2.25l-0.75,4.5l9-4.5l1.5-10.5L541.96,182.348z"/>
	<path fill="#E0E0E0" d="M495.429,106.594l-6,39c0,0-0.203,2.957-3.75,5.805l9.75,3.195c0,0-1.707-3.316-0.879-7.82l3.129-39.43
		L495.429,106.594z"/>
	<path fill="#C0C0C0" d="M495.933,154.277c0,0-1.973-1.934-1.383-7.504c0.633-5.246,3.313-39.941,3.313-39.941l2.57-1.305l-3.75,42
		c0,0,0.469,4.816,0.824,5.527L495.933,154.277z"/>
	<path fill="#E0E0E0" d="M494,100.313l-0.75,6l6,0.75l0.75-6L494,100.313z"/>
	<path fill="#A0A0A0" d="M500.269,101.141l2.25-0.75l-0.75,6.75h-2.25L500.269,101.141z"/>
	<path fill="#C0C0C0" d="M500.195,101.25l2.25-0.75l-6-1.5l-2.25,1.5L500.195,101.25z"/>
	
		<linearGradient id="SVGID_2_" gradientUnits="userSpaceOnUse" x1="202.2266" y1="-40.1636" x2="948.355" y2="-40.1636" gradientTransform="matrix(0.75 0 0 -0.75 -149.3414 356.6915)">
		<stop  offset="0" style="stop-color:#FFFFFF;stop-opacity:0.0902"/>
		<stop  offset="0.56" style="stop-color:#FFFFFF;stop-opacity:0"/>
		<stop  offset="1" style="stop-color:#FFFFFF;stop-opacity:0"/>
	</linearGradient>
	<path fill="url(#SVGID_2_)" d="M2.328,457.714c0,0,2.879,6.098,9.695,11.785c6.805,5.465,17.98,19.914,17.98,21.242
		c0.074,1.473-3.402,12.477-8.328,22.188c-2.098,4.785-8.004,12.254-10.57,15.523c-5.027,6.512-13.43,26.727,7.594,35.004
		c14.379,5.258,46.176,6.59,91.238,0c38.641-5.992,76.148-17.047,124.957-41.598c64.433-32.645,88.906-50.93,138.324-84.207
		c38.609-26.438,94.824-79.406,122.145-104.43c23.715-21.758,35.555-37.609,46.184-55.187c6.781-11.57,14.094-54.313,20.379-72.32
		c-0.098,0-6.664,14.027-14.613,19.336l-58.234,35.414l-182.25,117l-88.5,53.25c0,0-48.633,28.105-129.395,39.797
		c-0.355-0.047-72.805,4.805-86.605-12.77V457.714z"/>
	<path fill="#FFFFFF" fill-opacity="0.149" d="M30.277,490.789c0,0-3.375,17.992-17.688,34.875
		c-0.313,0.375-23.762,28.66,11.34,39.188c0.348,0.188,33.754-29.297,26.668-64.805c-2.32-10.008-17.824-1.906-20.594-9.258H30.277z
		"/>
	<path fill="#FFFFFF" fill-opacity="0.0627" d="M55.828,508.339c0,0,58.969-4.137,114.766-22.5c-0.016,0,1.797,20.113,9.078,35.859
		c2.156,4.641,4.863,9.055,8.133,12.332c0.023-0.191-74.09,34.836-153.727,24.012c0-0.203,9.23,1.348,16.012-20.461
		c1.988-5.992,4.527-20.582,5.57-29.047L55.828,508.339z"/>
	
		<linearGradient id="SVGID_3_" gradientUnits="userSpaceOnUse" x1="202.2261" y1="-0.1206" x2="935.4487" y2="-0.1206" gradientTransform="matrix(0.75 0 0 -0.75 -138.63 356.6915)">
		<stop  offset="0" style="stop-color:#2A3F4C"/>
		<stop  offset="0" style="stop-color:#2A3F4C"/>
		<stop  offset="0.39" style="stop-color:#14242E"/>
		<stop  offset="1" style="stop-color:#0D171E"/>
	</linearGradient>
	<path fill="url(#SVGID_3_)" d="M13.039,469.714c0,0,14.188,14.391,16.965,21.027c-1.215,8.223-5.734,10.316,3.785,15.801
		c4,2.172,35.02,2.215,71.613-4.422c36.637-6.906,96.535-22.441,137.23-48.98c-0.094,0.074,102.441-60.895,122.246-75.77
		c-0.09,0.094,153.789-103.457,171.465-123.046c0.195,0.141,19.375-28.945,26.613-48.609c-0.168,0-14.949,16.434-23.152,22.629
		L305.539,378.964l-86.25,51.75c0,0-22.715,13.563-68.773,27.156c-0.227-0.156-58.68,19.91-108.523,17.066
		c0.297,0.027-20.063-2.023-28.953-5.438V469.714z"/>
	
		<linearGradient id="SVGID_4_" gradientUnits="userSpaceOnUse" x1="202.1694" y1="190.8296" x2="233.2271" y2="190.8296" gradientTransform="matrix(0.75 0 0 -0.75 -109.7404 626.8107)">
		<stop  offset="0" style="stop-color:#374147"/>
		<stop  offset="0.49" style="stop-color:#72797D"/>
		<stop  offset="0.89" style="stop-color:#333D43"/>
		<stop  offset="1" style="stop-color:#5D656A"/>
	</linearGradient>
	<path fill="url(#SVGID_4_)" d="M65.18,490.082v-11.25c0,0-0.645-3.035-10.871-3.035c-10.129,0.035-12.422,4.328-12.422,4.328
		l1.543,11.457c0,0,6.445-5.031,11.707-4.152c5.543,1.152,9.961,1.461,9.961,2.75L65.18,490.082z"/>
	<path fill="#2E3F4B" d="M43.238,489.906c0-2.25,4.859-3.75,10.906-3.75c6.344,0,10.953,1.801,10.953,4.023
		c-0.109,1.977-4.902,4.027-10.953,4.027c-6.406,0.199-10.953-1.805-10.953-4.027L43.238,489.906z"/>
	<path fill="#2A3B47" d="M2.133,459.597c0,0,14.43,13.164,16.039,15.945l-7.789,1.305l-9-6.75c0,0,1.738-7.559,0.863-10.5H2.133z"/>
	<path fill="#FFFFFF" fill-opacity="0.1373" d="M13.066,469.546c0,0,15.313,16.121,16.938,21.195
		c0.313-0.195,3.109-11.832-2.699-17.648c0.012,0.203-12.555-2.898-14.266-3.594L13.066,469.546z"/>
	<path fill="#FFFFFF" fill-opacity="0.149" d="M79.203,473.796c0,0,49.363-3.68,122.59-34.5c0.41,0,0.223,8.363-20.57,19.727
		c-14.27,8.023-49.145,21.102-79.656,21.375c0.137,0.148-19.414-1.355-22.363-6.496V473.796z"/>
	
		<linearGradient id="SVGID_5_" gradientUnits="userSpaceOnUse" x1="202.127" y1="-5.2456" x2="927.5151" y2="-5.2456" gradientTransform="matrix(0.75 0 0 -0.75 -146.3678 409.004)">
		<stop  offset="0" style="stop-color:#664546"/>
		<stop  offset="0.48" style="stop-color:#4B3233"/>
		<stop  offset="1" style="stop-color:#462F2F"/>
	</linearGradient>
	<path fill="url(#SVGID_5_)" d="M32.301,558.027c-33-6.75-25.516-18.953-27-14.863c-0.75,11.113,4.285,17.246,13.398,20.293
		c17.352,5.07,46.176,6.594,91.238,0c38.613-5.43,76.148-17.047,124.957-41.598c64.406-32.082,88.906-50.93,138.324-84.211
		c38.582-25.871,94.824-79.402,122.145-104.426c24.438-21.945,35.883-37.414,46.184-55.187c4.504-7.258,1.426-2.059,7.723-20.008
		c-0.219,0-7.215,14.59-20.516,29.468c0.047-0.219-11,14.543-39.02,41.598c-27.684,27.184-58.73,57.152-120.668,102.469
		c-62.266,45.465-136.535,83.195-136.535,83.195c0.02-0.23-60.422,31.789-124.723,42.102c0.242-0.332-42.699,7.949-75.438,1.016
		L32.301,558.027z"/>
	<path fill="#FFFFFF" d="M149.309,457.742c0,0-82.965,30.082-137.313,11.758c0.063,0.242-8.238-6.773-10.438-11.758
		c0,0,38.488,29.277,147.949,0.133L149.309,457.742z"/>
	<path fill="#5A6F35" d="M330.804,233.211l23.25,15.75v33l-23.25-15V233.211z"/>
	<path fill="#4A5D29" d="M353.734,248.383l63-33v33.75l-63,33V248.383z"/>
	<path fill="#53692E" d="M330.804,232.93l23.25,15.75l62.25-33l-22.5-15.75L330.804,232.93z"/>
	<path fill="#637740" d="M354.898,249.867l60-32.25v30.75l-60,31.5V249.867z"/>
	<path fill="#839367" d="M333.246,233.031l21,14.25l60-32.25l-21-13.5L333.246,233.031z"/>
	<path fill="#8A996F" d="M331.718,235.422l21,14.25v30l-21-14.25V235.422z"/>
	
		<linearGradient id="SVGID_6_" gradientUnits="userSpaceOnUse" x1="202.2251" y1="159.8071" x2="282.2251" y2="159.8071" gradientTransform="matrix(0.75 0 0 -0.75 203.2294 368.5968)">
		<stop  offset="0" style="stop-color:#FFFFFF;stop-opacity:0.0706"/>
		<stop  offset="1" style="stop-color:#FFFFFF;stop-opacity:0"/>
	</linearGradient>
	<path fill="url(#SVGID_6_)" d="M390.898,230.367l24-12.75v30.75l-60,31.5L390.898,230.367z"/>
	
		<linearGradient id="SVGID_7_" gradientUnits="userSpaceOnUse" x1="202.2222" y1="178.3032" x2="230.2222" y2="178.3032" gradientTransform="matrix(0.75 0 0 -0.75 180.0516 396.379)">
		<stop  offset="0" style="stop-color:#FFFFFF;stop-opacity:0.1255"/>
		<stop  offset="1" style="stop-color:#FFFFFF;stop-opacity:0"/>
	</linearGradient>
	<path fill="url(#SVGID_7_)" d="M346.718,245.402l6,4.5v30l-21-14.25L346.718,245.402z"/>
	
		<linearGradient id="SVGID_8_" gradientUnits="userSpaceOnUse" x1="256.2227" y1="201.3018" x2="256.2227" y2="159.3018" gradientTransform="matrix(0.75 0 0 -0.75 181.578 352.5079)">
		<stop  offset="0" style="stop-color:#FFFFFF;stop-opacity:0"/>
		<stop  offset="1" style="stop-color:#FFFFFF;stop-opacity:0.0706"/>
	</linearGradient>
	<path fill="url(#SVGID_8_)" d="M333.246,233.031l57-5.25l24-12.75l-21-13.5L333.246,233.031z"/>
	<path fill="#4C86B6" d="M355.839,251.527l23.25,15.75v33l-23.25-15V251.527z"/>
	<path fill="#3D719D" d="M378.765,266.699l63-33v33.75l-63,33V266.699z"/>
	<path fill="#457FB0" d="M355.839,251.246l23.25,15.75l62.25-33l-22.5-15.75L355.839,251.246z"/>
	<path fill="#558CBA" d="M379.933,268.184l60-32.25v30.75l-60,31.5V268.184z"/>
	<path fill="#78A4C8" d="M358.281,251.348l21,14.25l60-32.25l-21-13.5L358.281,251.348z"/>
	<path fill="#7FA9CB" d="M356.753,253.738l21,14.25v30l-21-14.25V253.738z"/>
	
		<linearGradient id="SVGID_9_" gradientUnits="userSpaceOnUse" x1="202.2261" y1="159.8057" x2="282.2261" y2="159.8057" gradientTransform="matrix(0.75 0 0 -0.75 228.2635 386.9122)">
		<stop  offset="0" style="stop-color:#FFFFFF;stop-opacity:0.0706"/>
		<stop  offset="1" style="stop-color:#FFFFFF;stop-opacity:0"/>
	</linearGradient>
	<path fill="url(#SVGID_9_)" d="M415.933,248.684l24-12.75v30.75l-60,31.5L415.933,248.684z"/>
	
		<linearGradient id="SVGID_10_" gradientUnits="userSpaceOnUse" x1="202.2246" y1="178.3018" x2="230.2246" y2="178.3018" gradientTransform="matrix(0.75 0 0 -0.75 205.0848 414.6945)">
		<stop  offset="0" style="stop-color:#FFFFFF;stop-opacity:0.1255"/>
		<stop  offset="1" style="stop-color:#FFFFFF;stop-opacity:0"/>
	</linearGradient>
	<path fill="url(#SVGID_10_)" d="M371.753,263.719l6,4.5v30l-21-14.25L371.753,263.719z"/>
	
		<linearGradient id="SVGID_11_" gradientUnits="userSpaceOnUse" x1="256.2246" y1="201.3018" x2="256.2246" y2="159.3018" gradientTransform="matrix(0.75 0 0 -0.75 206.6122 370.8243)">
		<stop  offset="0" style="stop-color:#FFFFFF;stop-opacity:0"/>
		<stop  offset="1" style="stop-color:#FFFFFF;stop-opacity:0.0706"/>
	</linearGradient>
	<path fill="url(#SVGID_11_)" d="M358.281,251.348l57-5.25l24-12.75l-21-13.5L358.281,251.348z"/>
	<path fill="#64A1A3" d="M342.906,208.848l23.25,15.75v33l-23.25-15V208.848z"/>
	<path fill="#53898B" d="M365.832,224.02l63-33v33.75l-63,33V224.02z"/>
	<path fill="#5D9B9D" d="M342.906,208.566l23.25,15.75l62.25-33l-22.5-15.75L342.906,208.566z"/>
	<path fill="#6CA6A8" d="M367,225.504l60-32.25v30.75l-60,31.5V225.504z"/>
	<path fill="#8AB8BA" d="M345.347,208.668l21,14.25l60-32.25l-21-13.5L345.347,208.668z"/>
	<path fill="#91BCBD" d="M343.82,211.059l21,14.25v30l-21-14.25V211.059z"/>
	
		<linearGradient id="SVGID_12_" gradientUnits="userSpaceOnUse" x1="202.2266" y1="159.8052" x2="282.2266" y2="159.8052" gradientTransform="matrix(0.75 0 0 -0.75 215.33 344.2325)">
		<stop  offset="0" style="stop-color:#FFFFFF;stop-opacity:0.0706"/>
		<stop  offset="1" style="stop-color:#FFFFFF;stop-opacity:0"/>
	</linearGradient>
	<path fill="url(#SVGID_12_)" d="M403,206.004l24-12.75v30.75l-60,31.5L403,206.004z"/>
	
		<linearGradient id="SVGID_13_" gradientUnits="userSpaceOnUse" x1="202.2251" y1="178.3062" x2="230.2251" y2="178.3062" gradientTransform="matrix(0.75 0 0 -0.75 192.1512 372.0148)">
		<stop  offset="0" style="stop-color:#FFFFFF;stop-opacity:0.1255"/>
		<stop  offset="1" style="stop-color:#FFFFFF;stop-opacity:0"/>
	</linearGradient>
	<path fill="url(#SVGID_13_)" d="M358.82,221.035l6,4.5v30l-21-14.25L358.82,221.035z"/>
	
		<linearGradient id="SVGID_14_" gradientUnits="userSpaceOnUse" x1="256.2246" y1="201.3018" x2="256.2246" y2="159.3018" gradientTransform="matrix(0.75 0 0 -0.75 193.6786 328.1447)">
		<stop  offset="0" style="stop-color:#FFFFFF;stop-opacity:0"/>
		<stop  offset="1" style="stop-color:#FFFFFF;stop-opacity:0.0706"/>
	</linearGradient>
	<path fill="url(#SVGID_14_)" d="M345.347,208.668l57-5.25l24-12.75l-21-13.5L345.347,208.668z"/>
	<path fill="#5A6F35" d="M214.398,300.066l23.25,15.75v33l-23.25-15V300.066z"/>
	<path fill="#4A5D29" d="M237.328,315.238l63-33v33.75l-63,33V315.238z"/>
	<path fill="#53692E" d="M214.398,299.785l23.25,15.75l62.25-33l-22.5-15.75L214.398,299.785z"/>
	<path fill="#637740" d="M238.492,316.722l60-32.25v30.75l-60,31.5V316.722z"/>
	<path fill="#839367" d="M216.84,299.882l21,14.25l60-32.25l-21-13.5L216.84,299.882z"/>
	<path fill="#8A996F" d="M215.313,302.273l21,14.25v30l-21-14.25V302.273z"/>
	
		<linearGradient id="SVGID_15_" gradientUnits="userSpaceOnUse" x1="202.2266" y1="159.8042" x2="282.2266" y2="159.8042" gradientTransform="matrix(0.75 0 0 -0.75 86.8221 435.4493)">
		<stop  offset="0" style="stop-color:#FFFFFF;stop-opacity:0.0706"/>
		<stop  offset="1" style="stop-color:#FFFFFF;stop-opacity:0"/>
	</linearGradient>
	<path fill="url(#SVGID_15_)" d="M274.492,297.222l24-12.75v30.75l-60,31.5L274.492,297.222z"/>
	
		<linearGradient id="SVGID_16_" gradientUnits="userSpaceOnUse" x1="202.2241" y1="178.3052" x2="230.2241" y2="178.3052" gradientTransform="matrix(0.75 0 0 -0.75 63.6444 463.2325)">
		<stop  offset="0" style="stop-color:#FFFFFF;stop-opacity:0.1255"/>
		<stop  offset="1" style="stop-color:#FFFFFF;stop-opacity:0"/>
	</linearGradient>
	<path fill="url(#SVGID_16_)" d="M230.313,312.253l6,4.5v30l-21-14.25L230.313,312.253z"/>
	
		<linearGradient id="SVGID_17_" gradientUnits="userSpaceOnUse" x1="256.2251" y1="201.3047" x2="256.2251" y2="159.3057" gradientTransform="matrix(0.75 0 0 -0.75 65.1708 419.3615)">
		<stop  offset="0" style="stop-color:#FFFFFF;stop-opacity:0"/>
		<stop  offset="1" style="stop-color:#FFFFFF;stop-opacity:0.0706"/>
	</linearGradient>
	<path fill="url(#SVGID_17_)" d="M216.84,299.882l57-5.25l24-12.75l-21-13.5L216.84,299.882z"/>
	<path fill="#4C86B6" d="M239.43,318.382l23.25,15.75v33l-23.25-15V318.382z"/>
	<path fill="#3D719D" d="M262.359,333.554l63-33v33.75l-63,33V333.554z"/>
	<path fill="#457FB0" d="M239.43,318.101l23.25,15.75l62.25-33l-22.5-15.75L239.43,318.101z"/>
	<path fill="#558CBA" d="M263.523,335.039l60-32.25v30.75l-60,31.5V335.039z"/>
	<path fill="#78A4C8" d="M241.871,318.199l21,14.25l60-32.25l-21-13.5L241.871,318.199z"/>
	<path fill="#7FA9CB" d="M240.344,320.589l21,14.25v30l-21-14.25V320.589z"/>
	
		<linearGradient id="SVGID_18_" gradientUnits="userSpaceOnUse" x1="202.2261" y1="159.8042" x2="282.2261" y2="159.8042" gradientTransform="matrix(0.75 0 0 -0.75 111.8539 453.7657)">
		<stop  offset="0" style="stop-color:#FFFFFF;stop-opacity:0.0706"/>
		<stop  offset="1" style="stop-color:#FFFFFF;stop-opacity:0"/>
	</linearGradient>
	<path fill="url(#SVGID_18_)" d="M299.523,315.539l24-12.75v30.75l-60,31.5L299.523,315.539z"/>
	
		<linearGradient id="SVGID_19_" gradientUnits="userSpaceOnUse" x1="202.2241" y1="178.3052" x2="230.2241" y2="178.3052" gradientTransform="matrix(0.75 0 0 -0.75 88.6757 481.548)">
		<stop  offset="0" style="stop-color:#FFFFFF;stop-opacity:0.1255"/>
		<stop  offset="1" style="stop-color:#FFFFFF;stop-opacity:0"/>
	</linearGradient>
	<path fill="url(#SVGID_19_)" d="M255.344,330.57l6,4.5v30l-21-14.25L255.344,330.57z"/>
	
		<linearGradient id="SVGID_20_" gradientUnits="userSpaceOnUse" x1="256.2246" y1="201.3057" x2="256.2246" y2="159.3057" gradientTransform="matrix(0.75 0 0 -0.75 90.2025 437.6779)">
		<stop  offset="0" style="stop-color:#FFFFFF;stop-opacity:0"/>
		<stop  offset="1" style="stop-color:#FFFFFF;stop-opacity:0.0706"/>
	</linearGradient>
	<path fill="url(#SVGID_20_)" d="M241.871,318.199l57-5.25l24-12.75l-21-13.5L241.871,318.199z"/>
	<path fill="#64A1A3" d="M226.496,275.703l23.25,15.75v33l-23.25-15V275.703z"/>
	<path fill="#53898B" d="M249.426,290.875l63-33v33.75l-63,33V290.875z"/>
	<path fill="#5D9B9D" d="M226.496,275.422l23.25,15.75l62.25-33l-22.5-15.75L226.496,275.422z"/>
	<path fill="#6CA6A8" d="M250.59,292.359l60-32.25v30.75l-60,31.5V292.359z"/>
	<path fill="#8AB8BA" d="M228.938,275.52l21,14.25l60-32.25l-21-13.5L228.938,275.52z"/>
	<path fill="#91BCBD" d="M227.414,277.91l21,14.25v30l-21-14.25V277.91z"/>
	
		<linearGradient id="SVGID_21_" gradientUnits="userSpaceOnUse" x1="202.2251" y1="159.8037" x2="282.2241" y2="159.8037" gradientTransform="matrix(0.75 0 0 -0.75 98.9213 411.0861)">
		<stop  offset="0" style="stop-color:#FFFFFF;stop-opacity:0.0706"/>
		<stop  offset="1" style="stop-color:#FFFFFF;stop-opacity:0"/>
	</linearGradient>
	<path fill="url(#SVGID_21_)" d="M286.589,272.859l24-12.75v30.75l-60,31.5L286.589,272.859z"/>
	
		<linearGradient id="SVGID_22_" gradientUnits="userSpaceOnUse" x1="202.2275" y1="178.3032" x2="230.2275" y2="178.3032" gradientTransform="matrix(0.75 0 0 -0.75 75.7435 438.8673)">
		<stop  offset="0" style="stop-color:#FFFFFF;stop-opacity:0.1255"/>
		<stop  offset="1" style="stop-color:#FFFFFF;stop-opacity:0"/>
	</linearGradient>
	<path fill="url(#SVGID_22_)" d="M242.414,287.89l6,4.5v30l-21-14.25L242.414,287.89z"/>
	
		<linearGradient id="SVGID_23_" gradientUnits="userSpaceOnUse" x1="256.2231" y1="201.3047" x2="256.2231" y2="159.3047" gradientTransform="matrix(0.75 0 0 -0.75 77.2699 394.9982)">
		<stop  offset="0" style="stop-color:#FFFFFF;stop-opacity:0"/>
		<stop  offset="1" style="stop-color:#FFFFFF;stop-opacity:0.0706"/>
	</linearGradient>
	<path fill="url(#SVGID_23_)" d="M228.938,275.52l57-5.25l24-12.75l-21-13.5L228.938,275.52z"/>
	<path fill="#E0E0E0" d="M192.043,352.347l13.5,6l0.75,9.75l-13.5-6L192.043,352.347z"/>
	<path fill="#A0A0A0" d="M222.75,349.671l-17.25,9l0.75,9.75l17.25-9L222.75,349.671z"/>
	<path fill="#C0C0C0" d="M222.793,350.222l-17.25,8.25l-13.5-6l17.25-8.25L222.793,350.222z"/>
	<path fill="#E0E0E0" d="M320.398,287.554l13.5,6l0.75,9.75l-13.5-6L320.398,287.554z"/>
	<path fill="#A0A0A0" d="M351.105,284.878l-17.25,9l0.75,9.75l17.25-9L351.105,284.878z"/>
	<path fill="#C0C0C0" d="M351.148,285.429l-17.25,8.25l-13.5-6l17.25-8.25L351.148,285.429z"/>
	<path fill="#E0E0E0" d="M199.039,265.109l9.75,4.5v86.25l-9.75-4.5V265.109z"/>
	<path fill="#A0A0A0" d="M215.008,266.793l-6,3v86.25l6-3V266.793z"/>
	<path fill="#E0E0E0" d="M327.671,200.699l9.75,4.5l0.75,85.5l-10.5-4.5V200.699z"/>
	<path fill="#A0A0A0" d="M343.765,201.855l-6,3v86.25l6-3V201.855z"/>
	<path fill="#A0A0A0" d="M209.277,269.984l-0.063,6.41l134.093-67.961l0.063-6.41L209.277,269.984z"/>
	<path fill="#D2D2D2" d="M343.789,202.078l-135,67.5l-9.75-4.5l134.25-67.5L343.789,202.078z"/>
	<path fill="#5A6F35" d="M106.27,368.476l23.25,15.75v33l-23.25-15V368.476z"/>
	<path fill="#4A5D29" d="M129.195,383.648l63-33v33.75l-63,33V383.648z"/>
	<path fill="#53692E" d="M106.27,368.195l23.25,15.75l62.25-33l-22.5-15.75L106.27,368.195z"/>
	<path fill="#637740" d="M130.363,385.132l60-32.25v30.75l-60,31.5V385.132z"/>
	<path fill="#839367" d="M108.711,368.296l21,14.25l60-32.25l-21-13.5L108.711,368.296z"/>
	<path fill="#8A996F" d="M107.184,370.687l21,14.25v30l-21-14.25V370.687z"/>
	
		<linearGradient id="SVGID_24_" gradientUnits="userSpaceOnUse" x1="202.2271" y1="159.8052" x2="282.2271" y2="159.8052" gradientTransform="matrix(0.75 0 0 -0.75 -21.3073 503.8615)">
		<stop  offset="0" style="stop-color:#FFFFFF;stop-opacity:0.0706"/>
		<stop  offset="1" style="stop-color:#FFFFFF;stop-opacity:0"/>
	</linearGradient>
	<path fill="url(#SVGID_24_)" d="M166.363,365.632l24-12.75v30.75l-60,31.5L166.363,365.632z"/>
	
		<linearGradient id="SVGID_25_" gradientUnits="userSpaceOnUse" x1="202.2251" y1="178.3062" x2="230.2251" y2="178.3062" gradientTransform="matrix(0.75 0 0 -0.75 -44.4855 531.6427)">
		<stop  offset="0" style="stop-color:#FFFFFF;stop-opacity:0.1255"/>
		<stop  offset="1" style="stop-color:#FFFFFF;stop-opacity:0"/>
	</linearGradient>
	<path fill="url(#SVGID_25_)" d="M122.184,380.664l6,4.5v30l-21-14.25L122.184,380.664z"/>
	
		<linearGradient id="SVGID_26_" gradientUnits="userSpaceOnUse" x1="256.2266" y1="201.3037" x2="256.2266" y2="159.3037" gradientTransform="matrix(0.75 0 0 -0.75 -42.9586 487.7736)">
		<stop  offset="0" style="stop-color:#FFFFFF;stop-opacity:0"/>
		<stop  offset="1" style="stop-color:#FFFFFF;stop-opacity:0.0706"/>
	</linearGradient>
	<path fill="url(#SVGID_26_)" d="M108.711,368.296l57-5.25l24-12.75l-21-13.5L108.711,368.296z"/>
	<path fill="#4C86B6" d="M131.301,386.789l23.25,15.75v33l-23.25-15V386.789z"/>
	<path fill="#3D719D" d="M154.23,401.96l63-33v33.75l-63,33V401.96z"/>
	<path fill="#457FB0" d="M131.301,386.507l23.25,15.75l62.25-33l-22.5-15.75L131.301,386.507z"/>
	<path fill="#558CBA" d="M155.395,403.445l60-32.25v30.75l-60,31.5V403.445z"/>
	<path fill="#78A4C8" d="M133.742,386.609l21,14.25l60-32.25l-21-13.5L133.742,386.609z"/>
	<path fill="#7FA9CB" d="M132.219,389l21,14.25v30l-21-14.25V389z"/>
	
		<linearGradient id="SVGID_27_" gradientUnits="userSpaceOnUse" x1="202.2246" y1="159.8062" x2="282.2246" y2="159.8062" gradientTransform="matrix(0.75 0 0 -0.75 3.726 522.1749)">
		<stop  offset="0" style="stop-color:#FFFFFF;stop-opacity:0.0706"/>
		<stop  offset="1" style="stop-color:#FFFFFF;stop-opacity:0"/>
	</linearGradient>
	<path fill="url(#SVGID_27_)" d="M191.395,383.945l24-12.75v30.75l-60,31.5L191.395,383.945z"/>
	
		<linearGradient id="SVGID_28_" gradientUnits="userSpaceOnUse" x1="202.2285" y1="178.3022" x2="230.2285" y2="178.3022" gradientTransform="matrix(0.75 0 0 -0.75 -19.4523 549.9572)">
		<stop  offset="0" style="stop-color:#FFFFFF;stop-opacity:0.1255"/>
		<stop  offset="1" style="stop-color:#FFFFFF;stop-opacity:0"/>
	</linearGradient>
	<path fill="url(#SVGID_28_)" d="M147.219,398.98l6,4.5v30l-21-14.25L147.219,398.98z"/>
	
		<linearGradient id="SVGID_29_" gradientUnits="userSpaceOnUse" x1="256.2246" y1="201.3027" x2="256.2246" y2="159.3027" gradientTransform="matrix(0.75 0 0 -0.75 -17.9259 506.0861)">
		<stop  offset="0" style="stop-color:#FFFFFF;stop-opacity:0"/>
		<stop  offset="1" style="stop-color:#FFFFFF;stop-opacity:0.0706"/>
	</linearGradient>
	<path fill="url(#SVGID_29_)" d="M133.742,386.609l57-5.25l24-12.75l-21-13.5L133.742,386.609z"/>
	<path fill="#64A1A3" d="M118.367,344.113l23.25,15.75v33l-23.25-15V344.113z"/>
	<path fill="#53898B" d="M141.297,359.285l63-33v33.75l-63,33V359.285z"/>
	<path fill="#5D9B9D" d="M118.367,343.832l23.25,15.75l62.25-33l-22.5-15.75L118.367,343.832z"/>
	<path fill="#6CA6A8" d="M142.461,360.769l60-32.25v30.75l-60,31.5V360.769z"/>
	<path fill="#8AB8BA" d="M120.809,343.929l21,14.25l60-32.25l-21-13.5L120.809,343.929z"/>
	<path fill="#91BCBD" d="M119.285,346.32l21,14.25v30l-21-14.25V346.32z"/>
	
		<linearGradient id="SVGID_30_" gradientUnits="userSpaceOnUse" x1="202.2246" y1="159.8032" x2="282.2246" y2="159.8032" gradientTransform="matrix(0.75 0 0 -0.75 -9.2072 479.4962)">
		<stop  offset="0" style="stop-color:#FFFFFF;stop-opacity:0.0706"/>
		<stop  offset="1" style="stop-color:#FFFFFF;stop-opacity:0"/>
	</linearGradient>
	<path fill="url(#SVGID_30_)" d="M178.461,341.269l24-12.75v30.75l-60,31.5L178.461,341.269z"/>
	
		<linearGradient id="SVGID_31_" gradientUnits="userSpaceOnUse" x1="202.2275" y1="178.3062" x2="230.2275" y2="178.3062" gradientTransform="matrix(0.75 0 0 -0.75 -32.3854 507.2794)">
		<stop  offset="0" style="stop-color:#FFFFFF;stop-opacity:0.1255"/>
		<stop  offset="1" style="stop-color:#FFFFFF;stop-opacity:0"/>
	</linearGradient>
	<path fill="url(#SVGID_31_)" d="M134.285,356.3l6,4.5v30l-21-14.25L134.285,356.3z"/>
	
		<linearGradient id="SVGID_32_" gradientUnits="userSpaceOnUse" x1="256.2227" y1="201.3047" x2="256.2227" y2="159.3047" gradientTransform="matrix(0.75 0 0 -0.75 -30.8585 463.4083)">
		<stop  offset="0" style="stop-color:#FFFFFF;stop-opacity:0"/>
		<stop  offset="1" style="stop-color:#FFFFFF;stop-opacity:0.0706"/>
	</linearGradient>
	<path fill="url(#SVGID_32_)" d="M120.809,343.929l57-5.25l24-12.75l-21-13.5L120.809,343.929z"/>
</g>
</svg>
