<?xml version="1.0" encoding="utf-8"?>
<!-- Generator: Adobe Illustrator 16.0.0, SVG Export Plug-In . SVG Version: 6.00 Build 0)  -->
<!DOCTYPE svg PUBLIC "-//W3C//DTD SVG 1.1//EN" "http://www.w3.org/Graphics/SVG/1.1/DTD/svg11.dtd">
<svg preserveAspectRatio="none" version="1.1" id="图层_1" xmlns="http://www.w3.org/2000/svg" xmlns:xlink="http://www.w3.org/1999/xlink" x="0px" y="0px"
	 width="299.25px" height="285.418px" viewBox="30 -20.105 299.25 285.418" enable-background="new 30 -20.105 299.25 285.418"
	 xml:space="preserve">
<g id="surface386">
	<path fill="#EEEEEE" d="M200.477,265.137l-166.5-87V21.387l166.5,78.75V265.137z"/>
	<path fill="#CDCECE" d="M275.738,70.73l-75,29.25v99.75l75-39.75V70.73z"/>
	<path fill="#CDCECE" d="M327.273,43.094l-126.75,57v165l126.75-67.5V43.094z"/>
	<path fill="#B4B5B5" d="M157.5-20.105L30,19.645l170.25,80.25l129-57.75L157.5-20.105z"/>
	<path fill="#B4B5B5" d="M221.105,103.309l-2.25,1.5v149.25l2.25-1.5V103.309z"/>
	<path fill="#B4B5B5" d="M239.809,93.969l-2.25,1.5v147.75l2.25-1.5V93.969z"/>
	<path fill="#B4B5B5" d="M257.477,85.848l-2.25,1.5v146.25l2.25-1.5V85.848z"/>
	<path fill="#B4B5B5" d="M275.148,78l-2.25,1.5v144.75l2.25-1.5V78z"/>
	<path fill="#B4B5B5" d="M292.816,69.684l-2.25,1.5v143.25l2.25-1.5V69.684z"/>
	<path fill="#B4B5B5" d="M311.004,61.293l-2.25,1.5v141.75l2.25-0.75V61.293z"/>
	<path fill="#CDCECE" d="M124.113,72.383l2.25,1.5v144.75l-2.25-1.5V72.383z"/>
	<path fill="#CDCECE" d="M143.148,84.859l2.25,1.5v147l-2.25-1.5V84.859z"/>
	<path fill="#CDCECE" d="M86.043,57.461l2.25,1.5v144.75l-2.25-1.5V57.461z"/>
	<path fill="#CDCECE" d="M47.977,39.379l2.25,1.5v144.75l-2.25-1.5V39.379z"/>
	<path fill="#CDCECE" d="M67.012,49.109l2.25,1.5v144.75l-2.25-1.5V49.109z"/>
	<path fill="#CDCECE" d="M105.078,66.762l2.25,1.5v144.75l-2.25-1.5V66.762z"/>
	<path fill="#CDCECE" d="M162.184,93.938l2.25,1.5v147l-2.25-1.5V93.938z"/>
	<path fill="#CDCECE" d="M181.215,103.5l2.25,1.5v147.75l-2.25-1.5V103.5z"/>
	<path fill="#DEE3EC" d="M110.773,115.512l46.5,20.25v103.5l-46.5-24.75V115.512z"/>
	<path fill="#717070" d="M111.031,115.063l46.5,20.25v3l-46.5-20.25V115.063z"/>
	<path fill="#717070" d="M110.813,115.066l3,1.5l-0.75,99.75l-2.25-2.25V115.066z"/>
	<path fill="#717070" d="M156.043,134.766l3,1.5v103.5l-3-1.5V134.766z"/>
	<path fill="#C4CDDD" d="M113.582,208.602l42.75,21.75v7.5l-42.75-21.75V208.602z"/>
	<path fill="#BAD0D8" d="M119.813,130.52l30,13.5v41.25l-30-13.5V130.52z"/>
	<path fill="#A3B1CA" d="M119.777,130.52l2.25,0.75v39l-2.25,1.5V130.52z"/>
	<path fill="#AAB8D2" d="M119.813,172.105l30,13.5v-3l-27.75-12L119.813,172.105z"/>
	
		<linearGradient id="SVGID_1_" gradientUnits="userSpaceOnUse" x1="-136.7017" y1="38.106" x2="-136.7017" y2="34.1069" gradientTransform="matrix(0.6495 -0.375 -0.375 -0.6495 254.1645 154.7844)">
		<stop  offset="0" style="stop-color:#BDA47F"/>
		<stop  offset="0.15" style="stop-color:#FFE0B3"/>
		<stop  offset="0.25" style="stop-color:#FFEED7"/>
		<stop  offset="0.52" style="stop-color:#DFC297"/>
		<stop  offset="0.69" style="stop-color:#C7AD86"/>
		<stop  offset="0.8" style="stop-color:#BCA37E"/>
		<stop  offset="0.92" style="stop-color:#B19A77"/>
		<stop  offset="1" style="stop-color:#CBB189"/>
	</linearGradient>
	<path fill="url(#SVGID_1_)" d="M149.738,182.074l1.949-1.125c0,0,0.629-0.363,1.258,0.461c0.516,1.113,0.363,1.668,0.363,1.668
		l-2.07,1.594L149.738,182.074z"/>
	
		<linearGradient id="SVGID_2_" gradientUnits="userSpaceOnUse" x1="-136.7002" y1="38.106" x2="-136.7002" y2="34.106" gradientTransform="matrix(0.6495 -0.375 -0.375 -0.6495 254.1503 164.8117)">
		<stop  offset="0" style="stop-color:#BDA47F"/>
		<stop  offset="0.15" style="stop-color:#FFE0B3"/>
		<stop  offset="0.25" style="stop-color:#FFEED7"/>
		<stop  offset="0.52" style="stop-color:#DFC297"/>
		<stop  offset="0.69" style="stop-color:#C7AD86"/>
		<stop  offset="0.8" style="stop-color:#BCA37E"/>
		<stop  offset="0.92" style="stop-color:#B19A77"/>
		<stop  offset="1" style="stop-color:#CBB189"/>
	</linearGradient>
	<path fill="url(#SVGID_2_)" d="M149.723,192.102l1.949-1.125c0,0,0.629-0.363,1.262,0.461c0.512,1.113,0.363,1.668,0.363,1.668
		l-2.074,1.594L149.723,192.102z"/>
	
		<linearGradient id="SVGID_3_" gradientUnits="userSpaceOnUse" x1="24.4863" y1="154.0928" x2="21.4189" y2="154.0928" gradientTransform="matrix(0.75 0 0 -0.75 133.1582 303.3369)">
		<stop  offset="0" style="stop-color:#BDA47F"/>
		<stop  offset="0.15" style="stop-color:#FFE0B3"/>
		<stop  offset="0.25" style="stop-color:#FFEED7"/>
		<stop  offset="0.52" style="stop-color:#DFC297"/>
		<stop  offset="0.69" style="stop-color:#C7AD86"/>
		<stop  offset="0.8" style="stop-color:#BCA37E"/>
		<stop  offset="0.92" style="stop-color:#B19A77"/>
		<stop  offset="1" style="stop-color:#CBB189"/>
	</linearGradient>
	<path fill="url(#SVGID_3_)" d="M150.023,177.496c0.75,0,1.359,0.371,1.359,0.828l0.141,18.672c0,0.75-0.625,1.043-1.223,1.043
		c-0.277-0.293-1.078-0.375-1.078-0.828l0.051-18.965c0-0.75,0.43-0.75,1.027-0.75H150.023z"/>
	
		<linearGradient id="SVGID_4_" gradientUnits="userSpaceOnUse" x1="25.4897" y1="165.2939" x2="21.4741" y2="165.2939" gradientTransform="matrix(0.75 0 0 -0.75 132.8237 321.5996)">
		<stop  offset="0" style="stop-color:#BC9C53"/>
		<stop  offset="0.15" style="stop-color:#FED681"/>
		<stop  offset="0.25" style="stop-color:#FEE8C2"/>
		<stop  offset="0.52" style="stop-color:#DEB863"/>
		<stop  offset="0.69" style="stop-color:#C6A457"/>
		<stop  offset="0.8" style="stop-color:#BB9B52"/>
		<stop  offset="0.92" style="stop-color:#B0924D"/>
		<stop  offset="1" style="stop-color:#CBA859"/>
	</linearGradient>
	<path fill="url(#SVGID_4_)" d="M149.691,195.762h1.5c0,0,0.547,0.219,0.547,0.5l0.203,2.5c0,0.75-0.43,0.645-0.711,0.645
		l-1.539,0.105c-0.75,0-0.762-0.336-0.762-0.617l0.012-2.383c0-0.75,0.215-0.762,0.496-0.762L149.691,195.762z"/>
	
		<linearGradient id="SVGID_5_" gradientUnits="userSpaceOnUse" x1="25.4897" y1="165.2939" x2="21.4741" y2="165.2939" gradientTransform="matrix(0.75 0 0 -0.75 132.8237 301.4082)">
		<stop  offset="0" style="stop-color:#BC9C53"/>
		<stop  offset="0.15" style="stop-color:#FED681"/>
		<stop  offset="0.25" style="stop-color:#FEE8C2"/>
		<stop  offset="0.52" style="stop-color:#DEB863"/>
		<stop  offset="0.69" style="stop-color:#C6A457"/>
		<stop  offset="0.8" style="stop-color:#BB9B52"/>
		<stop  offset="0.92" style="stop-color:#B0924D"/>
		<stop  offset="1" style="stop-color:#CBA859"/>
	</linearGradient>
	<path fill="url(#SVGID_5_)" d="M149.691,175.57h1.5c0,0,0.547,0.219,0.547,0.5l0.203,2.5c0,0.75-0.43,0.645-0.711,0.645
		l-1.539,0.105c-0.75,0-0.762-0.336-0.762-0.617l0.012-2.383c0-0.75,0.215-0.762,0.496-0.762L149.691,175.57z"/>
	<path fill="#9E9F9F" d="M200.477,265.035l-166.5-87v-3.75l166.5,87V265.035z"/>
	<path fill="#9E9F9F" d="M327.273,194.063l-126.75,67.5v3.75l126.75-68.25V194.063z"/>
	<path fill="#888889" d="M200.477,112.641l-170.25-80.25v-10.5l170.25,80.25V112.641z"/>
	<path fill="#CDCECE" d="M200.477,110.426l-170.25-80.25v-10.5l170.25,80.25V110.426z"/>
	<path fill="#717070" d="M329.25,44.371l-129,57.75v10.5l129-59.25V44.371z"/>
	<path fill="#9E9F9F" d="M329.25,42.156l-129,57.75v10.5l129-59.25V42.156z"/>
</g>
</svg>
