<?xml version="1.0" encoding="utf-8"?>
<!-- Generator: Adobe Illustrator 16.0.0, SVG Export Plug-In . SVG Version: 6.00 Build 0)  -->
<!DOCTYPE svg PUBLIC "-//W3C//DTD SVG 1.1//EN" "http://www.w3.org/Graphics/SVG/1.1/DTD/svg11.dtd">
<svg preserveAspectRatio="none"   version="1.1" id="图层_1" xmlns="http://www.w3.org/2000/svg" xmlns:xlink="http://www.w3.org/1999/xlink" x="0px" y="0px"
	 width="373.558px" height="567.042px" viewBox="96.68 -0.051 373.558 567.042"
	 enable-background="new 96.68 -0.051 373.558 567.042" xml:space="preserve">
<g id="surface214">
	
		<linearGradient id="SVGID_1_" gradientUnits="userSpaceOnUse" x1="239.2256" y1="190.8037" x2="202.2256" y2="190.8037" gradientTransform="matrix(0.75 0 0 -0.75 219.3339 179.7345)">
		<stop  offset="0" style="stop-color:#485779"/>
		<stop  offset="0.15" style="stop-color:#7381A7"/>
		<stop  offset="0.25" style="stop-color:#BEC3D1"/>
		<stop  offset="0.52" style="stop-color:#53648B"/>
		<stop  offset="0.69" style="stop-color:#49587B"/>
		<stop  offset="0.8" style="stop-color:#445374"/>
		<stop  offset="0.97" style="stop-color:#404E6D"/>
		<stop  offset="1" style="stop-color:#4B5A7E"/>
	</linearGradient>
	<path fill="url(#SVGID_1_)" d="M371.003,44.508h27.75v-15.75h-27.75V44.508z"/>
	
		<linearGradient id="SVGID_2_" gradientUnits="userSpaceOnUse" x1="262.5562" y1="193.3047" x2="202.2231" y2="193.3047" gradientTransform="matrix(0.75 0 0 -0.75 210.496 167.7902)">
		<stop  offset="0" style="stop-color:#485779"/>
		<stop  offset="0.15" style="stop-color:#7381A7"/>
		<stop  offset="0.25" style="stop-color:#BEC3D1"/>
		<stop  offset="0.52" style="stop-color:#53648B"/>
		<stop  offset="0.69" style="stop-color:#49587B"/>
		<stop  offset="0.8" style="stop-color:#445374"/>
		<stop  offset="0.97" style="stop-color:#404E6D"/>
		<stop  offset="1" style="stop-color:#4B5A7E"/>
	</linearGradient>
	<path fill="url(#SVGID_2_)" d="M363.664,16.813h42c0.75,0,1.75,0.734,1.75,1.641l-0.25,8.859c0,0.75-0.488,1.445-1.398,1.445
		l-42.102,0.055c-0.75,0-1.5-0.789-1.5-1.695v-8.805c0-0.75,0.738-1.5,1.652-1.5H363.664z"/>
	
		<linearGradient id="SVGID_3_" gradientUnits="userSpaceOnUse" x1="227.2266" y1="194.3047" x2="202.2266" y2="194.3047" gradientTransform="matrix(0.75 0 0 -0.75 173.161 184.5958)">
		<stop  offset="0" style="stop-color:#485779"/>
		<stop  offset="0.15" style="stop-color:#7381A7"/>
		<stop  offset="0.25" style="stop-color:#BEC3D1"/>
		<stop  offset="0.52" style="stop-color:#53648B"/>
		<stop  offset="0.69" style="stop-color:#49587B"/>
		<stop  offset="0.8" style="stop-color:#445374"/>
		<stop  offset="0.97" style="stop-color:#404E6D"/>
		<stop  offset="1" style="stop-color:#4B5A7E"/>
	</linearGradient>
	<path fill="url(#SVGID_3_)" d="M324.832,44.117h18.75v-10.5h-18.75V44.117z"/>
	
		<linearGradient id="SVGID_4_" gradientUnits="userSpaceOnUse" x1="243.5859" y1="195.8037" x2="202.2266" y2="195.8037" gradientTransform="matrix(0.75 0 0 -0.75 167.1024 176.4073)">
		<stop  offset="0" style="stop-color:#485779"/>
		<stop  offset="0.15" style="stop-color:#7381A7"/>
		<stop  offset="0.25" style="stop-color:#BEC3D1"/>
		<stop  offset="0.52" style="stop-color:#53648B"/>
		<stop  offset="0.69" style="stop-color:#49587B"/>
		<stop  offset="0.8" style="stop-color:#445374"/>
		<stop  offset="0.97" style="stop-color:#404E6D"/>
		<stop  offset="1" style="stop-color:#4B5A7E"/>
	</linearGradient>
	<path fill="url(#SVGID_4_)" d="M320.273,25.43h28.5c0.75,0,1.02,0.504,1.02,1.125l-0.27,5.625c0,0.75-0.238,1.438-0.863,1.438
		l-28.387,0.063c-0.75,0-1.5-0.566-1.5-1.184V26.18c0,0,0.504-0.75,1.129-0.75H320.273z"/>
	
		<linearGradient id="SVGID_5_" gradientUnits="userSpaceOnUse" x1="24.3027" y1="342.5034" x2="1.3027" y2="342.5034" gradientTransform="matrix(0 -0.75 -0.75 0 427.7052 94.4767)">
		<stop  offset="0" style="stop-color:#485779"/>
		<stop  offset="0.15" style="stop-color:#7381A7"/>
		<stop  offset="0.25" style="stop-color:#BEC3D1"/>
		<stop  offset="0.52" style="stop-color:#53648B"/>
		<stop  offset="0.69" style="stop-color:#49587B"/>
		<stop  offset="0.8" style="stop-color:#445374"/>
		<stop  offset="0.97" style="stop-color:#404E6D"/>
		<stop  offset="1" style="stop-color:#4B5A7E"/>
	</linearGradient>
	<path fill="url(#SVGID_5_)" d="M153.426,93.5V76.25c0,0,1.285,0.09,2.867,0.09l29.383-0.09c1.5,0,2.555,0.137,2.555,0.195
		L187.926,93.5c0,0-0.977,0-2.559,0h-28.941c-1.5,0-3-0.047-3-0.105V93.5z"/>
	
		<linearGradient id="SVGID_6_" gradientUnits="userSpaceOnUse" x1="225.249" y1="78.6826" x2="202.2227" y2="78.6826" gradientTransform="matrix(0.75 0 0 -0.75 -20.7887 251.7794)">
		<stop  offset="0" style="stop-color:#485779"/>
		<stop  offset="0.15" style="stop-color:#7381A7"/>
		<stop  offset="0.25" style="stop-color:#BEC3D1"/>
		<stop  offset="0.52" style="stop-color:#53648B"/>
		<stop  offset="0.69" style="stop-color:#49587B"/>
		<stop  offset="0.8" style="stop-color:#445374"/>
		<stop  offset="0.97" style="stop-color:#404E6D"/>
		<stop  offset="1" style="stop-color:#4B5A7E"/>
	</linearGradient>
	<path fill="url(#SVGID_6_)" d="M130.879,100.801h17.25c0,0,0.02,6.781,0.02,15.148l-0.02,153.602c0,8.25-0.027,15.183-0.09,15.183
		l-17.16-0.184c0,0,0-6.597,0-14.96V115.801c0-8.25,0.047-15,0.109-15H130.879z"/>
	
		<linearGradient id="SVGID_7_" gradientUnits="userSpaceOnUse" x1="38.3027" y1="384.2222" x2="1.3027" y2="384.2222" gradientTransform="matrix(0 -0.75 0.75 0 156.5477 171.879)">
		<stop  offset="0" style="stop-color:#485779"/>
		<stop  offset="0.15" style="stop-color:#7381A7"/>
		<stop  offset="0.25" style="stop-color:#BEC3D1"/>
		<stop  offset="0.52" style="stop-color:#53648B"/>
		<stop  offset="0.69" style="stop-color:#49587B"/>
		<stop  offset="0.8" style="stop-color:#445374"/>
		<stop  offset="0.97" style="stop-color:#404E6D"/>
		<stop  offset="1" style="stop-color:#4B5A7E"/>
	</linearGradient>
	<path fill="url(#SVGID_7_)" d="M431.214,170.902v-27.75h27v27.75H431.214z"/>
	
		<linearGradient id="SVGID_8_" gradientUnits="userSpaceOnUse" x1="61.3057" y1="394.2144" x2="1.3057" y2="394.2144" gradientTransform="matrix(0 -0.75 0.75 0 168.5673 180.6622)">
		<stop  offset="0" style="stop-color:#485779"/>
		<stop  offset="0.15" style="stop-color:#7381A7"/>
		<stop  offset="0.25" style="stop-color:#BEC3D1"/>
		<stop  offset="0.52" style="stop-color:#53648B"/>
		<stop  offset="0.69" style="stop-color:#49587B"/>
		<stop  offset="0.8" style="stop-color:#445374"/>
		<stop  offset="0.97" style="stop-color:#404E6D"/>
		<stop  offset="1" style="stop-color:#4B5A7E"/>
	</linearGradient>
	<path fill="url(#SVGID_8_)" d="M470.238,178.184v-42c0-0.75-0.742-1.469-1.652-1.469l-8.848-0.031c-0.75,0-1.52,0.766-1.52,1.672
		l0.02,41.828c0,0.75,0.719,1.5,1.629,1.5h8.871c0.75,0,1.5-0.734,1.5-1.641V178.184z"/>
	
		<linearGradient id="SVGID_9_" gradientUnits="userSpaceOnUse" x1="22.3027" y1="391.7251" x2="1.3027" y2="391.7251" gradientTransform="matrix(0 -0.75 0.75 0 145.4208 246.6095)">
		<stop  offset="0" style="stop-color:#485779"/>
		<stop  offset="0.15" style="stop-color:#7381A7"/>
		<stop  offset="0.25" style="stop-color:#BEC3D1"/>
		<stop  offset="0.52" style="stop-color:#53648B"/>
		<stop  offset="0.69" style="stop-color:#49587B"/>
		<stop  offset="0.8" style="stop-color:#445374"/>
		<stop  offset="0.97" style="stop-color:#404E6D"/>
		<stop  offset="1" style="stop-color:#4B5A7E"/>
	</linearGradient>
	<path fill="url(#SVGID_9_)" d="M431.339,245.633v-15.75h15.75v15.75H431.339z"/>
	
		<linearGradient id="SVGID_10_" gradientUnits="userSpaceOnUse" x1="36.5332" y1="397.5171" x2="1.3037" y2="397.5171" gradientTransform="matrix(0 -0.75 0.75 0 152.4833 251.7697)">
		<stop  offset="0" style="stop-color:#485779"/>
		<stop  offset="0.15" style="stop-color:#7381A7"/>
		<stop  offset="0.25" style="stop-color:#BEC3D1"/>
		<stop  offset="0.52" style="stop-color:#53648B"/>
		<stop  offset="0.69" style="stop-color:#49587B"/>
		<stop  offset="0.8" style="stop-color:#445374"/>
		<stop  offset="0.97" style="stop-color:#404E6D"/>
		<stop  offset="1" style="stop-color:#4B5A7E"/>
	</linearGradient>
	<path fill="url(#SVGID_10_)" d="M454.152,250.043v-24.75c0-0.75-0.434-0.922-0.969-0.922l-5.031,0.172
		c-0.75,0-1.063,0.258-1.063,0.793l0.313,24.707c0,0,0.121,0.75,0.656,0.75h5.344c0,0,0.75-0.434,0.75-0.965V250.043z"/>
	
		<linearGradient id="SVGID_11_" gradientUnits="userSpaceOnUse" x1="543.2251" y1="-88.1948" x2="202.2261" y2="-88.1949" gradientTransform="matrix(0.75 0 0 -0.75 23.912 224.423)">
		<stop  offset="0" style="stop-color:#BAC0C1"/>
		<stop  offset="0.15" style="stop-color:#F4FAFC"/>
		<stop  offset="0.25" style="stop-color:#F8FCFD"/>
		<stop  offset="0.52" style="stop-color:#D5DBDD"/>
		<stop  offset="0.69" style="stop-color:#BDC3C4"/>
		<stop  offset="0.8" style="stop-color:#B3B8B9"/>
		<stop  offset="0.97" style="stop-color:#A9AEAF"/>
		<stop  offset="1" style="stop-color:#C2C7C9"/>
	</linearGradient>
	<path fill="url(#SVGID_11_)" d="M175.582,73.445h255.75v434.25h-255.75V73.445z"/>
	
		<linearGradient id="SVGID_12_" gradientUnits="userSpaceOnUse" x1="552.2212" y1="193.0615" x2="202.2227" y2="193.0615" gradientTransform="matrix(0.75 0 0 -0.75 20.6332 212.0568)">
		<stop  offset="0" style="stop-color:#BAC0C1"/>
		<stop  offset="0.15" style="stop-color:#F4FAFC"/>
		<stop  offset="0.25" style="stop-color:#F8FCFD"/>
		<stop  offset="0.52" style="stop-color:#D5DBDD"/>
		<stop  offset="0.69" style="stop-color:#BDC3C4"/>
		<stop  offset="0.8" style="stop-color:#B3B8B9"/>
		<stop  offset="0.97" style="stop-color:#A9AEAF"/>
		<stop  offset="1" style="stop-color:#C2C7C9"/>
	</linearGradient>
	<path fill="url(#SVGID_12_)" d="M173.801,61.078h258.75c1.5,0,1.969,0.734,1.969,1.641l0.281,8.859c0,1.5-1.09,1.867-2,1.867
		l-259-0.367c-0.75,0-1.5-0.367-1.5-1.273v-9.227c0-0.75,0.723-1.5,1.633-1.5H173.801z"/>
	
		<linearGradient id="SVGID_13_" gradientUnits="userSpaceOnUse" x1="551.2261" y1="187.8062" x2="202.2271" y2="187.8061" gradientTransform="matrix(0.75 0 0 -0.75 20.9427 193.7872)">
		<stop  offset="0" style="stop-color:#485779"/>
		<stop  offset="0.15" style="stop-color:#7381A7"/>
		<stop  offset="0.25" style="stop-color:#BEC3D1"/>
		<stop  offset="0.52" style="stop-color:#53648B"/>
		<stop  offset="0.69" style="stop-color:#49587B"/>
		<stop  offset="0.8" style="stop-color:#445374"/>
		<stop  offset="0.97" style="stop-color:#404E6D"/>
		<stop  offset="1" style="stop-color:#4B5A7E"/>
	</linearGradient>
	<path fill="url(#SVGID_13_)" d="M174.113,42.809h258.75c0.75,0,1.348,0.734,1.348,1.641l0.152,16.359c0,1.5-0.891,1.91-1.801,1.91
		l-258.449,0.34c-0.75,0-1.5-1.074-1.5-1.98v-16.77c0-0.75,0.711-1.5,1.621-1.5H174.113z"/>
	
		<linearGradient id="SVGID_14_" gradientUnits="userSpaceOnUse" x1="543.2251" y1="194.8052" x2="202.2261" y2="194.8051" gradientTransform="matrix(0.75 0 0 -0.75 23.912 224.423)">
		<stop  offset="0" style="stop-color:#485779"/>
		<stop  offset="0.15" style="stop-color:#7381A7"/>
		<stop  offset="0.25" style="stop-color:#BEC3D1"/>
		<stop  offset="0.52" style="stop-color:#53648B"/>
		<stop  offset="0.69" style="stop-color:#49587B"/>
		<stop  offset="0.8" style="stop-color:#445374"/>
		<stop  offset="0.97" style="stop-color:#404E6D"/>
		<stop  offset="1" style="stop-color:#4B5A7E"/>
	</linearGradient>
	<path fill="url(#SVGID_14_)" d="M175.582,73.445h255.75v9.75h-255.75V73.445z"/>
	
		<linearGradient id="SVGID_15_" gradientUnits="userSpaceOnUse" x1="551.2261" y1="187.8032" x2="202.2271" y2="187.8032" gradientTransform="matrix(0.75 0 0 -0.75 20.9427 658.3741)">
		<stop  offset="0" style="stop-color:#485779"/>
		<stop  offset="0.15" style="stop-color:#7381A7"/>
		<stop  offset="0.25" style="stop-color:#BEC3D1"/>
		<stop  offset="0.52" style="stop-color:#53648B"/>
		<stop  offset="0.69" style="stop-color:#49587B"/>
		<stop  offset="0.8" style="stop-color:#445374"/>
		<stop  offset="0.97" style="stop-color:#404E6D"/>
		<stop  offset="1" style="stop-color:#4B5A7E"/>
	</linearGradient>
	<path fill="url(#SVGID_15_)" d="M174.113,507.398h258.75c0.75,0,1.348,0.73,1.348,1.637l0.152,16.363
		c0,1.5-0.891,1.906-1.801,1.906l-258.449,0.344c-0.75,0-1.5-1.078-1.5-1.984v-16.766c0-0.75,0.711-1.5,1.621-1.5H174.113z"/>
	
		<linearGradient id="SVGID_16_" gradientUnits="userSpaceOnUse" x1="422.2231" y1="12.3062" x2="202.2236" y2="12.3061" gradientTransform="matrix(0.75 0 0 -0.75 -48.7697 416.5607)">
		<stop  offset="0" style="stop-color:#AEAEAD"/>
		<stop  offset="0.03" style="stop-color:#F8F8F7"/>
		<stop  offset="0.08" style="stop-color:#E3E3E2"/>
		<stop  offset="0.64" style="stop-color:#DFDFDE"/>
		<stop  offset="0.95" style="stop-color:#DADAD9"/>
		<stop  offset="1" style="stop-color:#A2A2A1"/>
	</linearGradient>
	<path fill="url(#SVGID_16_)" d="M102.898,265.582h165v283.5h-165V265.582z"/>
	
		<linearGradient id="SVGID_17_" gradientUnits="userSpaceOnUse" x1="422.2241" y1="157.8052" x2="202.2241" y2="157.8052" gradientTransform="matrix(0.75 0 0 -0.75 -48.7701 416.6622)">
		<stop  offset="0" style="stop-color:#206694"/>
		<stop  offset="0.03" style="stop-color:#83B0DC"/>
		<stop  offset="0.08" style="stop-color:#2D87C1"/>
		<stop  offset="0.64" style="stop-color:#2C85BE"/>
		<stop  offset="0.95" style="stop-color:#2B82BA"/>
		<stop  offset="1" style="stop-color:#1D5F89"/>
	</linearGradient>
	<path fill="url(#SVGID_17_)" d="M102.898,265.684h165v65.25h-165V265.684z"/>
	
		<linearGradient id="SVGID_18_" gradientUnits="userSpaceOnUse" x1="439.2271" y1="189.3027" x2="202.2271" y2="189.3027" gradientTransform="matrix(0.75 0 0 -0.75 -54.9913 699.9689)">
		<stop  offset="0" style="stop-color:#206694"/>
		<stop  offset="0.03" style="stop-color:#83B0DC"/>
		<stop  offset="0.08" style="stop-color:#2D87C1"/>
		<stop  offset="0.64" style="stop-color:#2C85BE"/>
		<stop  offset="0.95" style="stop-color:#2B82BA"/>
		<stop  offset="1" style="stop-color:#1D5F89"/>
	</linearGradient>
	<path fill="url(#SVGID_18_)" d="M96.68,548.992h177.75v18H96.68V548.992z"/>
	
		<linearGradient id="SVGID_19_" gradientUnits="userSpaceOnUse" x1="213.2241" y1="161.8047" x2="202.2241" y2="161.8047" gradientTransform="matrix(0.75 0 0 -0.75 95.8397 553.0714)">
		<stop  offset="0" style="stop-color:#206694"/>
		<stop  offset="0.03" style="stop-color:#83B0DC"/>
		<stop  offset="0.08" style="stop-color:#2D87C1"/>
		<stop  offset="0.64" style="stop-color:#2C85BE"/>
		<stop  offset="0.95" style="stop-color:#2B82BA"/>
		<stop  offset="1" style="stop-color:#1D5F89"/>
	</linearGradient>
	<path fill="url(#SVGID_19_)" d="M247.508,402.093h8.25v59.25h-8.25V402.093z"/>
	<path fill="#56575D" d="M153.914,278.195h63v27.75h-63V278.195z"/>
	<path fill="#586F79" d="M157.199,281.59h56.25v20.25h-56.25V281.59z"/>
	<path d="M160.594,285.55h49.5v14.25h-49.5V285.55z"/>
	<path fill="#7D040F" d="M166.824,322.394c-3,0-5.266-2.434-5.266-5.465c0.016-2.785,2.465-5.469,5.52-5.469
		c2.746-0.316,5.504,2.457,5.504,5.469c0.242,3.215-2.473,5.48-5.504,5.48L166.824,322.394z"/>
	
		<linearGradient id="SVGID_20_" gradientUnits="userSpaceOnUse" x1="3.1665" y1="366.8022" x2="11.3458" y2="352.6353" gradientTransform="matrix(0 -0.75 -0.75 0 436.8585 322.3712)">
		<stop  offset="0" style="stop-color:#9F5153"/>
		<stop  offset="1" style="stop-color:#7B030D"/>
	</linearGradient>
	<path fill="url(#SVGID_20_)" stroke="#FFFFFF" stroke-linejoin="bevel" stroke-miterlimit="10" d="M167.082,321.394
		c-2.25,0-4.512-1.992-4.512-4.465c0.012-2.285,2.016-4.465,4.508-4.465c2.254-0.07,4.496,2.004,4.496,4.465
		c0.008,2.215-2.02,4.473-4.496,4.473L167.082,321.394z"/>
	<path fill="#276F71" d="M185.227,322.394c-3,0-5.262-2.434-5.262-5.465c0.012-2.785,2.465-5.469,5.516-5.469
		c2.746-0.316,5.508,2.457,5.508,5.469c0.238,3.215-2.473,5.48-5.508,5.48L185.227,322.394z"/>
	
		<linearGradient id="SVGID_21_" gradientUnits="userSpaceOnUse" x1="3.1685" y1="366.8032" x2="11.3476" y2="352.6365" gradientTransform="matrix(0 -0.75 -0.75 0 455.2638 322.3712)">
		<stop  offset="0" style="stop-color:#91CFD1"/>
		<stop  offset="1" style="stop-color:#49AEB1"/>
	</linearGradient>
	<path fill="url(#SVGID_21_)" stroke="#FFFFFF" stroke-linejoin="bevel" stroke-miterlimit="10" d="M185.484,321.394
		c-2.25,0-4.512-1.992-4.512-4.465c0.012-2.285,2.016-4.465,4.508-4.465c2.254-0.07,4.5,2.004,4.5,4.465
		c0.004,2.215-2.023,4.473-4.5,4.473L185.484,321.394z"/>
	<path fill="#7D040F" d="M148.434,322.394c-3,0-5.262-2.434-5.262-5.465c0.012-2.785,2.465-5.469,5.52-5.469
		c2.742-0.316,5.504,2.457,5.504,5.469c0.238,3.215-2.473,5.48-5.504,5.48L148.434,322.394z"/>
	
		<linearGradient id="SVGID_22_" gradientUnits="userSpaceOnUse" x1="3.1685" y1="366.8032" x2="11.3478" y2="352.6363" gradientTransform="matrix(0 -0.75 -0.75 0 418.4708 322.3712)">
		<stop  offset="0" style="stop-color:#9F5153"/>
		<stop  offset="1" style="stop-color:#7B030D"/>
	</linearGradient>
	<path fill="url(#SVGID_22_)" stroke="#FFFFFF" stroke-linejoin="bevel" stroke-miterlimit="10" d="M148.691,321.394
		c-2.25,0-4.508-1.992-4.508-4.465c0.008-2.285,2.012-4.465,4.508-4.465c2.25-0.07,4.496,2.004,4.496,4.465
		c0.004,2.215-2.02,4.473-4.496,4.473V321.394z"/>
	<path fill="#276F71" d="M203.598,322.394c-3,0-5.262-2.434-5.262-5.465c0.012-2.785,2.465-5.469,5.52-5.469
		c2.742-0.316,5.504,2.457,5.504,5.469c0.238,3.215-2.473,5.48-5.504,5.48L203.598,322.394z"/>
	
		<linearGradient id="SVGID_23_" gradientUnits="userSpaceOnUse" x1="3.1694" y1="366.8032" x2="11.3487" y2="352.6363" gradientTransform="matrix(0 -0.75 -0.75 0 473.6349 322.3712)">
		<stop  offset="0" style="stop-color:#91CFD1"/>
		<stop  offset="1" style="stop-color:#49AEB1"/>
	</linearGradient>
	<path fill="url(#SVGID_23_)" stroke="#FFFFFF" stroke-linejoin="bevel" stroke-miterlimit="10" d="M203.855,321.394
		c-2.25,0-4.508-1.992-4.508-4.465c0.008-2.285,2.012-4.465,4.508-4.465c2.25-0.07,4.496,2.004,4.496,4.465
		c0.004,2.215-2.02,4.473-4.496,4.473V321.394z"/>
	<path fill="#7D040F" d="M221.988,322.394c-3,0-5.266-2.434-5.266-5.465c0.016-2.785,2.465-5.469,5.52-5.469
		c2.746-0.316,5.504,2.457,5.504,5.469c0.242,3.215-2.473,5.48-5.504,5.48L221.988,322.394z"/>
	
		<linearGradient id="SVGID_24_" gradientUnits="userSpaceOnUse" x1="3.1685" y1="366.8032" x2="11.3478" y2="352.6363" gradientTransform="matrix(0 -0.75 -0.75 0 492.0226 322.3712)">
		<stop  offset="0" style="stop-color:#9F5153"/>
		<stop  offset="1" style="stop-color:#7B030D"/>
	</linearGradient>
	<path fill="url(#SVGID_24_)" stroke="#FFFFFF" stroke-linejoin="bevel" stroke-miterlimit="10" d="M222.246,321.394
		c-2.25,0-4.512-1.992-4.512-4.465c0.012-2.285,2.016-4.465,4.508-4.465c2.254-0.07,4.496,2.004,4.496,4.465
		c0.008,2.215-2.02,4.473-4.496,4.473L222.246,321.394z"/>
	
		<linearGradient id="SVGID_25_" gradientUnits="userSpaceOnUse" x1="22.3057" y1="391.7251" x2="1.3066" y2="391.7251" gradientTransform="matrix(0 -0.75 0.75 0 145.4208 300.006)">
		<stop  offset="0" style="stop-color:#485779"/>
		<stop  offset="0.15" style="stop-color:#7381A7"/>
		<stop  offset="0.25" style="stop-color:#BEC3D1"/>
		<stop  offset="0.52" style="stop-color:#53648B"/>
		<stop  offset="0.69" style="stop-color:#49587B"/>
		<stop  offset="0.8" style="stop-color:#445374"/>
		<stop  offset="0.97" style="stop-color:#404E6D"/>
		<stop  offset="1" style="stop-color:#4B5A7E"/>
	</linearGradient>
	<path fill="url(#SVGID_25_)" d="M431.339,299.027v-15.75h15.75v15.75H431.339z"/>
	
		<linearGradient id="SVGID_26_" gradientUnits="userSpaceOnUse" x1="36.5303" y1="397.5171" x2="1.3066" y2="397.5171" gradientTransform="matrix(0 -0.75 0.75 0 152.4833 305.1671)">
		<stop  offset="0" style="stop-color:#485779"/>
		<stop  offset="0.15" style="stop-color:#7381A7"/>
		<stop  offset="0.25" style="stop-color:#BEC3D1"/>
		<stop  offset="0.52" style="stop-color:#53648B"/>
		<stop  offset="0.69" style="stop-color:#49587B"/>
		<stop  offset="0.8" style="stop-color:#445374"/>
		<stop  offset="0.97" style="stop-color:#404E6D"/>
		<stop  offset="1" style="stop-color:#4B5A7E"/>
	</linearGradient>
	<path fill="url(#SVGID_26_)" d="M454.152,303.437v-24.75c0-0.75-0.434-0.918-0.969-0.918l-5.031,0.168
		c-0.75,0-1.063,0.262-1.063,0.793l0.313,24.707c0,0,0.121,0.75,0.656,0.75h5.344c0,0,0.75-0.43,0.75-0.961V303.437z"/>
	
		<linearGradient id="SVGID_27_" gradientUnits="userSpaceOnUse" x1="161.7471" y1="170.1548" x2="204.4004" y2="194.7807" gradientTransform="matrix(-0.75 0 0 -0.75 280.3448 227.339)">
		<stop  offset="0" style="stop-color:#3F4C6B"/>
		<stop  offset="0.15" style="stop-color:#969DB0"/>
		<stop  offset="0.25" style="stop-color:#A0A6B7"/>
		<stop  offset="0.52" style="stop-color:#485779"/>
		<stop  offset="0.69" style="stop-color:#3F4C6B"/>
		<stop  offset="0.8" style="stop-color:#3B4765"/>
		<stop  offset="0.92" style="stop-color:#37435F"/>
	</linearGradient>
	<path fill="url(#SVGID_27_)" d="M156.066,76.363c0,0-14.004,0.367-20.668,8.18c-6.332,7.57-5.492,20.008-5.492,20.008l18.66,0.313
		c0,0-0.434-7.426,7.5-10.285V76.363z"/>
	
		<linearGradient id="SVGID_28_" gradientUnits="userSpaceOnUse" x1="313.2231" y1="172.8047" x2="202.2241" y2="172.8047" gradientTransform="matrix(0.75 0 0 -0.75 64.4955 150.9269)">
		<stop  offset="0" style="stop-color:#485779"/>
		<stop  offset="0.15" style="stop-color:#7381A7"/>
		<stop  offset="0.25" style="stop-color:#BEC3D1"/>
		<stop  offset="0.52" style="stop-color:#53648B"/>
		<stop  offset="0.69" style="stop-color:#49587B"/>
		<stop  offset="0.8" style="stop-color:#445374"/>
		<stop  offset="0.97" style="stop-color:#404E6D"/>
		<stop  offset="1" style="stop-color:#4B5A7E"/>
	</linearGradient>
	<path fill="url(#SVGID_28_)" d="M216.164,42.699h83.25v-42.75h-83.25V42.699z"/>
	
		<linearGradient id="SVGID_29_" gradientUnits="userSpaceOnUse" x1="231.0566" y1="201.3027" x2="231.0566" y2="171.3027" gradientTransform="matrix(0.75 0 0 -0.75 27.8138 162.8712)">
		<stop  offset="0" style="stop-color:#485779"/>
		<stop  offset="0.15" style="stop-color:#7381A7"/>
		<stop  offset="0.25" style="stop-color:#BEC3D1"/>
		<stop  offset="0.52" style="stop-color:#53648B"/>
		<stop  offset="0.69" style="stop-color:#49587B"/>
		<stop  offset="0.8" style="stop-color:#445374"/>
		<stop  offset="0.97" style="stop-color:#404E6D"/>
		<stop  offset="1" style="stop-color:#4B5A7E"/>
	</linearGradient>
	<path fill="url(#SVGID_29_)" d="M179.484,34.395h39.75c0,0,3.48-4.418,3.48-12.289c0.27-7.961-3.723-10.211-3.723-10.211h-39.508
		V34.395z"/>
	
		<linearGradient id="SVGID_30_" gradientUnits="userSpaceOnUse" x1="206.2275" y1="201.3047" x2="206.2275" y2="166.3047" gradientTransform="matrix(0.75 0 0 -0.75 24.3837 161.174)">
		<stop  offset="0" style="stop-color:#485779"/>
		<stop  offset="0.15" style="stop-color:#7381A7"/>
		<stop  offset="0.25" style="stop-color:#BEC3D1"/>
		<stop  offset="0.52" style="stop-color:#53648B"/>
		<stop  offset="0.69" style="stop-color:#49587B"/>
		<stop  offset="0.8" style="stop-color:#445374"/>
		<stop  offset="0.97" style="stop-color:#404E6D"/>
		<stop  offset="1" style="stop-color:#4B5A7E"/>
	</linearGradient>
	<path fill="url(#SVGID_30_)" d="M176.055,10.195h6v26.25h-6V10.195z"/>
</g>
</svg>
