<?xml version="1.0" encoding="utf-8"?>
<!-- Generator: Adobe Illustrator 16.0.0, SVG Export Plug-In . SVG Version: 6.00 Build 0)  -->
<!DOCTYPE svg PUBLIC "-//W3C//DTD SVG 1.1//EN" "http://www.w3.org/Graphics/SVG/1.1/DTD/svg11.dtd">
<svg preserveAspectRatio="none"   version="1.1" id="图层_1" xmlns="http://www.w3.org/2000/svg" xmlns:xlink="http://www.w3.org/1999/xlink" x="0px" y="0px"
	 width="120.058px" height="558.257px" viewBox="223.465 4.336 120.058 558.257"
	 enable-background="new 223.465 4.336 120.058 558.257" xml:space="preserve">
<g id="surface291">
	
		<linearGradient id="SVGID_1_" gradientUnits="userSpaceOnUse" x1="362.2241" y1="-170.8696" x2="202.2251" y2="-170.8696" gradientTransform="matrix(0.75 0 0 -0.75 71.7953 155.3116)">
		<stop  offset="0" style="stop-color:#5288AF"/>
		<stop  offset="0.15" style="stop-color:#7DB8E7"/>
		<stop  offset="0.25" style="stop-color:#A1C7EB"/>
		<stop  offset="0.44" style="stop-color:#5E9BC8"/>
		<stop  offset="0.6" style="stop-color:#538AB2"/>
		<stop  offset="0.8" style="stop-color:#457496"/>
		<stop  offset="0.97" style="stop-color:#3F6989"/>
		<stop  offset="1" style="stop-color:#558DB6"/>
	</linearGradient>
	<path fill="url(#SVGID_1_)" d="M223.465,37.336c0,0,0-33,59.453-33c59.796,0,60.546,32.711,60.546,32.711v493.039
		c0,0-1.859,32.508-60.238,32.508c-58.262-0.258-59.762-32.32-59.762-32.32V37.336z"/>
	
		<linearGradient id="SVGID_2_" gradientUnits="userSpaceOnUse" x1="362.2222" y1="198.8066" x2="202.2231" y2="198.8066" gradientTransform="matrix(0.75 0 0 -0.75 71.8553 675.2052)">
		<stop  offset="0" style="stop-color:#3475A8"/>
		<stop  offset="0.15" style="stop-color:#61A2DE"/>
		<stop  offset="0.25" style="stop-color:#7FADE1"/>
		<stop  offset="0.44" style="stop-color:#3D86C0"/>
		<stop  offset="0.6" style="stop-color:#3577AB"/>
		<stop  offset="0.8" style="stop-color:#2B6390"/>
		<stop  offset="0.97" style="stop-color:#275A84"/>
		<stop  offset="1" style="stop-color:#377AAF"/>
	</linearGradient>
	<path fill="url(#SVGID_2_)" d="M223.523,524.226h120v3.75h-120V524.226z"/>
	
		<linearGradient id="SVGID_3_" gradientUnits="userSpaceOnUse" x1="362.2222" y1="198.8057" x2="202.2231" y2="198.8056" gradientTransform="matrix(0.75 0 0 -0.75 71.8553 188.2677)">
		<stop  offset="0" style="stop-color:#3475A8"/>
		<stop  offset="0.15" style="stop-color:#61A2DE"/>
		<stop  offset="0.25" style="stop-color:#7FADE1"/>
		<stop  offset="0.44" style="stop-color:#3D86C0"/>
		<stop  offset="0.6" style="stop-color:#3577AB"/>
		<stop  offset="0.8" style="stop-color:#2B6390"/>
		<stop  offset="0.97" style="stop-color:#275A84"/>
		<stop  offset="1" style="stop-color:#377AAF"/>
	</linearGradient>
	<path fill="url(#SVGID_3_)" d="M223.523,37.289h120v3.75h-120V37.289z"/>
	<path fill="#467597" d="M259.738,58.672c0,0,26.488-7.367,42.437,0.035l18.313,15.715l10.5,200.25l-7.5,219.75l-12,18l-13.5-3.75
		c0,0-15.957,8.852-25.191,11.32c-9.309,2.18-14.27-2.469-14.27-2.469l-16.789-14.102l-7.5-135.75l3-285L259.738,58.672z"/>
	
		<linearGradient id="SVGID_4_" gradientUnits="userSpaceOnUse" x1="215.7231" y1="199.6079" x2="201.006" y2="191.111" gradientTransform="matrix(0.75 0 0 -0.75 112.1581 233.0157)">
		<stop  offset="0" style="stop-color:#608C08"/>
		<stop  offset="0.15" style="stop-color:#8BBD48"/>
		<stop  offset="0.25" style="stop-color:#A7CA82"/>
		<stop  offset="0.44" style="stop-color:#6EA10B"/>
		<stop  offset="0.6" style="stop-color:#628F08"/>
		<stop  offset="0.8" style="stop-color:#517806"/>
		<stop  offset="0.97" style="stop-color:#4A6D05"/>
		<stop  offset="1" style="stop-color:#649209"/>
	</linearGradient>
	<path fill="url(#SVGID_4_)" d="M263.828,86.539c0-2.25,2.008-4.645,4.605-4.645c2.895,0.145,4.699,2.059,4.699,4.605
		c-0.305,2.289-2.105,4.602-4.699,4.602c-2.355-0.063-4.703-2.059-4.703-4.602L263.828,86.539z"/>
	
		<linearGradient id="SVGID_5_" gradientUnits="userSpaceOnUse" x1="213.8901" y1="199.7607" x2="201.271" y2="192.4751" gradientTransform="matrix(0.75 0 0 -0.75 105.8627 254.4454)">
		<stop  offset="0" style="stop-color:#608C08"/>
		<stop  offset="0.15" style="stop-color:#8BBD48"/>
		<stop  offset="0.25" style="stop-color:#A7CA82"/>
		<stop  offset="0.44" style="stop-color:#6EA10B"/>
		<stop  offset="0.6" style="stop-color:#628F08"/>
		<stop  offset="0.8" style="stop-color:#517806"/>
		<stop  offset="0.97" style="stop-color:#4A6D05"/>
		<stop  offset="1" style="stop-color:#649209"/>
	</linearGradient>
	<path fill="url(#SVGID_5_)" d="M257.531,107.219c0-2.25,1.793-3.781,4.02-3.781c1.98,0.031,4.027,1.766,4.027,3.945
		c0.203,2.086-1.805,3.949-4.027,3.949c-2.52-0.363-4.02-1.77-4.02-3.949V107.219z"/>
	
		<linearGradient id="SVGID_6_" gradientUnits="userSpaceOnUse" x1="216.6846" y1="199.3472" x2="200.9138" y2="190.2419" gradientTransform="matrix(0.75 0 0 -0.75 106.9642 278.8048)">
		<stop  offset="0" style="stop-color:#608C08"/>
		<stop  offset="0.15" style="stop-color:#8BBD48"/>
		<stop  offset="0.25" style="stop-color:#A7CA82"/>
		<stop  offset="0.44" style="stop-color:#6EA10B"/>
		<stop  offset="0.6" style="stop-color:#628F08"/>
		<stop  offset="0.8" style="stop-color:#517806"/>
		<stop  offset="0.97" style="stop-color:#4A6D05"/>
		<stop  offset="1" style="stop-color:#649209"/>
	</linearGradient>
	<path fill="url(#SVGID_6_)" d="M258.633,133.078c0-3,2.148-5.301,4.934-5.301c2.566,0.051,5.035,2.207,5.035,4.934
		c-0.219,2.617-2.254,4.93-5.035,4.93c-2.684-0.063-5.039-2.207-5.039-4.93L258.633,133.078z"/>
	
		<linearGradient id="SVGID_7_" gradientUnits="userSpaceOnUse" x1="213.8838" y1="199.8052" x2="201.2715" y2="192.5235" gradientTransform="matrix(0.75 0 0 -0.75 110.7416 310.5646)">
		<stop  offset="0" style="stop-color:#608C08"/>
		<stop  offset="0.15" style="stop-color:#8BBD48"/>
		<stop  offset="0.25" style="stop-color:#A7CA82"/>
		<stop  offset="0.44" style="stop-color:#6EA10B"/>
		<stop  offset="0.6" style="stop-color:#628F08"/>
		<stop  offset="0.8" style="stop-color:#517806"/>
		<stop  offset="0.97" style="stop-color:#4A6D05"/>
		<stop  offset="1" style="stop-color:#649209"/>
	</linearGradient>
	<path fill="url(#SVGID_7_)" d="M262.41,163.336c0-2.25,1.785-3.82,4.008-3.82c1.992,0.07,4.031,1.766,4.031,3.945
		c0.211,2.125-1.805,3.945-4.031,3.945c-2.508-0.32-4.008-1.766-4.008-3.945V163.336z"/>
	
		<linearGradient id="SVGID_8_" gradientUnits="userSpaceOnUse" x1="218.6646" y1="199.1816" x2="200.7893" y2="188.8614" gradientTransform="matrix(0.75 0 0 -0.75 90.1239 320.2775)">
		<stop  offset="0" style="stop-color:#608C08"/>
		<stop  offset="0.15" style="stop-color:#8BBD48"/>
		<stop  offset="0.25" style="stop-color:#A7CA82"/>
		<stop  offset="0.44" style="stop-color:#6EA10B"/>
		<stop  offset="0.6" style="stop-color:#628F08"/>
		<stop  offset="0.8" style="stop-color:#517806"/>
		<stop  offset="0.97" style="stop-color:#4A6D05"/>
		<stop  offset="1" style="stop-color:#649209"/>
	</linearGradient>
	<path fill="url(#SVGID_8_)" d="M241.793,174.551c0-3,2.504-5.332,5.656-5.332c3.344,0.082,5.707,2.5,5.707,5.59
		c-0.113,2.742-2.555,5.59-5.707,5.59c-3.406,0.152-5.707-2.504-5.707-5.59L241.793,174.551z"/>
	
		<linearGradient id="SVGID_9_" gradientUnits="userSpaceOnUse" x1="213.8306" y1="199.769" x2="201.1949" y2="192.4738" gradientTransform="matrix(0.75 0 0 -0.75 145.3666 269.0919)">
		<stop  offset="0" style="stop-color:#608C08"/>
		<stop  offset="0.15" style="stop-color:#8BBD48"/>
		<stop  offset="0.25" style="stop-color:#A7CA82"/>
		<stop  offset="0.44" style="stop-color:#6EA10B"/>
		<stop  offset="0.6" style="stop-color:#628F08"/>
		<stop  offset="0.8" style="stop-color:#517806"/>
		<stop  offset="0.97" style="stop-color:#4A6D05"/>
		<stop  offset="1" style="stop-color:#649209"/>
	</linearGradient>
	<path fill="url(#SVGID_9_)" d="M297.035,121.863c0-2.25,1.742-3.789,3.965-3.789c2.035,0.039,4.031,1.766,4.031,3.945
		c0.254,2.094-1.805,3.945-4.031,3.945c-2.465-0.352-4.027-1.766-4.027-3.945L297.035,121.863z"/>
	
		<linearGradient id="SVGID_10_" gradientUnits="userSpaceOnUse" x1="215.7983" y1="199.5679" x2="201.0812" y2="191.0709" gradientTransform="matrix(0.75 0 0 -0.75 130.7294 245.965)">
		<stop  offset="0" style="stop-color:#608C08"/>
		<stop  offset="0.15" style="stop-color:#8BBD48"/>
		<stop  offset="0.25" style="stop-color:#A7CA82"/>
		<stop  offset="0.44" style="stop-color:#6EA10B"/>
		<stop  offset="0.6" style="stop-color:#628F08"/>
		<stop  offset="0.8" style="stop-color:#517806"/>
		<stop  offset="0.97" style="stop-color:#4A6D05"/>
		<stop  offset="1" style="stop-color:#649209"/>
	</linearGradient>
	<path fill="url(#SVGID_10_)" d="M282.398,99.488c0-2.25,2.074-4.602,4.667-4.602c2.832,0.102,4.703,2.059,4.703,4.602
		c-0.371,2.25-2.105,4.605-4.703,4.605c-2.418-0.105-4.699-2.063-4.699-4.605H282.398z"/>
	
		<linearGradient id="SVGID_11_" gradientUnits="userSpaceOnUse" x1="220.7642" y1="198.7676" x2="200.6252" y2="187.1404" gradientTransform="matrix(0.75 0 0 -0.75 134.7274 322.8986)">
		<stop  offset="0" style="stop-color:#608C08"/>
		<stop  offset="0.15" style="stop-color:#8BBD48"/>
		<stop  offset="0.25" style="stop-color:#A7CA82"/>
		<stop  offset="0.44" style="stop-color:#6EA10B"/>
		<stop  offset="0.6" style="stop-color:#628F08"/>
		<stop  offset="0.8" style="stop-color:#517806"/>
		<stop  offset="0.97" style="stop-color:#4A6D05"/>
		<stop  offset="1" style="stop-color:#649209"/>
	</linearGradient>
	<path fill="url(#SVGID_11_)" d="M286.394,177.922c0-3,2.793-6.063,6.344-6.063c3.406,0.063,6.43,2.82,6.43,6.301
		c-0.023,3.512-2.879,6.297-6.43,6.297c-3.344,0.215-6.43-2.82-6.43-6.297L286.394,177.922z"/>
	
		<linearGradient id="SVGID_12_" gradientUnits="userSpaceOnUse" x1="219.0308" y1="198.9976" x2="200.8158" y2="188.4811" gradientTransform="matrix(0.75 0 0 -0.75 89.0443 360.8243)">
		<stop  offset="0" style="stop-color:#608C08"/>
		<stop  offset="0.15" style="stop-color:#8BBD48"/>
		<stop  offset="0.25" style="stop-color:#A7CA82"/>
		<stop  offset="0.44" style="stop-color:#6EA10B"/>
		<stop  offset="0.6" style="stop-color:#628F08"/>
		<stop  offset="0.8" style="stop-color:#517806"/>
		<stop  offset="0.97" style="stop-color:#4A6D05"/>
		<stop  offset="1" style="stop-color:#649209"/>
	</linearGradient>
	<path fill="url(#SVGID_12_)" d="M240.715,215.848c0-3.75,2.574-6,5.785-6c3.215,0,5.82,2.543,5.82,5.691
		c-0.355,3.309-2.605,5.699-5.82,5.699c-3.535-0.141-5.816-2.551-5.816-5.699L240.715,215.848z"/>
	
		<linearGradient id="SVGID_13_" gradientUnits="userSpaceOnUse" x1="218.7197" y1="199.0542" x2="200.846" y2="188.7348" gradientTransform="matrix(0.75 0 0 -0.75 128.0541 389.963)">
		<stop  offset="0" style="stop-color:#608C08"/>
		<stop  offset="0.15" style="stop-color:#8BBD48"/>
		<stop  offset="0.25" style="stop-color:#A7CA82"/>
		<stop  offset="0.44" style="stop-color:#6EA10B"/>
		<stop  offset="0.6" style="stop-color:#628F08"/>
		<stop  offset="0.8" style="stop-color:#517806"/>
		<stop  offset="0.97" style="stop-color:#4A6D05"/>
		<stop  offset="1" style="stop-color:#649209"/>
	</linearGradient>
	<path fill="url(#SVGID_13_)" d="M279.723,244.234c0-3,2.516-5.289,5.667-5.289c3.332,0.039,5.707,2.504,5.707,5.59
		c-0.125,3.449-2.555,5.594-5.707,5.594c-3.417,0.105-5.71-2.504-5.71-5.594L279.723,244.234z"/>
	
		<linearGradient id="SVGID_14_" gradientUnits="userSpaceOnUse" x1="219.6406" y1="198.8599" x2="200.7231" y2="187.9378" gradientTransform="matrix(0.75 0 0 -0.75 117.3514 414.9396)">
		<stop  offset="0" style="stop-color:#608C08"/>
		<stop  offset="0.15" style="stop-color:#8BBD48"/>
		<stop  offset="0.25" style="stop-color:#A7CA82"/>
		<stop  offset="0.44" style="stop-color:#6EA10B"/>
		<stop  offset="0.6" style="stop-color:#628F08"/>
		<stop  offset="0.8" style="stop-color:#517806"/>
		<stop  offset="0.97" style="stop-color:#4A6D05"/>
		<stop  offset="1" style="stop-color:#649209"/>
	</linearGradient>
	<path fill="url(#SVGID_14_)" d="M269.02,269.961c0-3,2.625-6,5.961-6c3.039,0,6.043,2.629,6.043,5.898
		c-0.004,3.102-2.707,5.922-6.043,5.922c-3.711,0.18-6.043-2.648-6.043-5.922L269.02,269.961z"/>
	
		<linearGradient id="SVGID_15_" gradientUnits="userSpaceOnUse" x1="216.7876" y1="199.3384" x2="201.039" y2="190.2459" gradientTransform="matrix(0.75 0 0 -0.75 103.1869 451.7872)">
		<stop  offset="0" style="stop-color:#608C08"/>
		<stop  offset="0.15" style="stop-color:#8BBD48"/>
		<stop  offset="0.25" style="stop-color:#A7CA82"/>
		<stop  offset="0.44" style="stop-color:#6EA10B"/>
		<stop  offset="0.6" style="stop-color:#628F08"/>
		<stop  offset="0.8" style="stop-color:#517806"/>
		<stop  offset="0.97" style="stop-color:#4A6D05"/>
		<stop  offset="1" style="stop-color:#649209"/>
	</linearGradient>
	<path fill="url(#SVGID_15_)" d="M254.855,306.058c0-3,2.234-5.281,5.016-5.281c2.484,0.031,5.035,2.211,5.035,4.934
		c-0.301,2.598-2.254,4.934-5.035,4.934c-2.766-0.086-5.016-2.207-5.016-4.934V306.058z"/>
	
		<linearGradient id="SVGID_16_" gradientUnits="userSpaceOnUse" x1="212.8091" y1="199.8901" x2="201.2103" y2="193.1936" gradientTransform="matrix(0.75 0 0 -0.75 104.6034 382.7169)">
		<stop  offset="0" style="stop-color:#608C08"/>
		<stop  offset="0.15" style="stop-color:#8BBD48"/>
		<stop  offset="0.25" style="stop-color:#A7CA82"/>
		<stop  offset="0.44" style="stop-color:#6EA10B"/>
		<stop  offset="0.6" style="stop-color:#628F08"/>
		<stop  offset="0.8" style="stop-color:#517806"/>
		<stop  offset="0.97" style="stop-color:#4A6D05"/>
		<stop  offset="1" style="stop-color:#649209"/>
	</linearGradient>
	<path fill="url(#SVGID_16_)" d="M256.273,235.488c0-2.25,1.559-3.781,3.598-3.781c2.402,0.031,3.695,1.621,3.695,3.621
		c0.207,1.66-1.656,3.617-3.695,3.617c-2.098,0.293-3.691-1.621-3.691-3.617L256.273,235.488z"/>
	
		<linearGradient id="SVGID_17_" gradientUnits="userSpaceOnUse" x1="211.8296" y1="199.9888" x2="201.2942" y2="193.9062" gradientTransform="matrix(0.75 0 0 -0.75 136.8676 364.9865)">
		<stop  offset="0" style="stop-color:#608C08"/>
		<stop  offset="0.15" style="stop-color:#8BBD48"/>
		<stop  offset="0.25" style="stop-color:#A7CA82"/>
		<stop  offset="0.44" style="stop-color:#6EA10B"/>
		<stop  offset="0.6" style="stop-color:#628F08"/>
		<stop  offset="0.8" style="stop-color:#517806"/>
		<stop  offset="0.97" style="stop-color:#4A6D05"/>
		<stop  offset="1" style="stop-color:#649209"/>
	</linearGradient>
	<path fill="url(#SVGID_17_)" d="M288.535,217.008c0-1.5,1.379-3.059,3.234-3.059c2.016,0.059,3.355,1.473,3.355,3.289
		c0.16,2.02-1.504,3.289-3.355,3.289c-1.734,0.23-3.359-1.473-3.359-3.289L288.535,217.008z"/>
	
		<linearGradient id="SVGID_18_" gradientUnits="userSpaceOnUse" x1="215.6577" y1="199.4751" x2="200.9404" y2="190.978" gradientTransform="matrix(0.75 0 0 -0.75 93.9012 412.3185)">
		<stop  offset="0" style="stop-color:#608C08"/>
		<stop  offset="0.15" style="stop-color:#8BBD48"/>
		<stop  offset="0.25" style="stop-color:#A7CA82"/>
		<stop  offset="0.44" style="stop-color:#6EA10B"/>
		<stop  offset="0.6" style="stop-color:#628F08"/>
		<stop  offset="0.8" style="stop-color:#517806"/>
		<stop  offset="0.97" style="stop-color:#4A6D05"/>
		<stop  offset="1" style="stop-color:#649209"/>
	</linearGradient>
	<path fill="url(#SVGID_18_)" d="M245.57,265.84c0-2.25,1.969-4.531,4.563-4.531c2.938,0.031,4.703,2.063,4.703,4.605
		c-0.266,2.176-2.105,4.605-4.703,4.605c-2.313-0.18-4.699-2.063-4.699-4.605L245.57,265.84z"/>
	
		<linearGradient id="SVGID_19_" gradientUnits="userSpaceOnUse" x1="215.8638" y1="199.4673" x2="201.1306" y2="190.9611" gradientTransform="matrix(0.75 0 0 -0.75 123.3324 461.6534)">
		<stop  offset="0" style="stop-color:#608C08"/>
		<stop  offset="0.15" style="stop-color:#8BBD48"/>
		<stop  offset="0.25" style="stop-color:#A7CA82"/>
		<stop  offset="0.44" style="stop-color:#6EA10B"/>
		<stop  offset="0.6" style="stop-color:#628F08"/>
		<stop  offset="0.8" style="stop-color:#517806"/>
		<stop  offset="0.97" style="stop-color:#4A6D05"/>
		<stop  offset="1" style="stop-color:#649209"/>
	</linearGradient>
	<path fill="url(#SVGID_19_)" d="M275,315.175c0-2.25,2.086-4.531,4.68-4.531c2.82,0.031,4.703,2.063,4.703,4.605
		c0.367,2.176-2.105,4.605-4.703,4.605c-2.43-0.18-4.68-2.063-4.68-4.605V315.175z"/>
	
		<linearGradient id="SVGID_20_" gradientUnits="userSpaceOnUse" x1="217.6211" y1="199.1772" x2="200.8005" y2="189.4659" gradientTransform="matrix(0.75 0 0 -0.75 144.265 501.1222)">
		<stop  offset="0" style="stop-color:#00609C"/>
		<stop  offset="0.15" style="stop-color:#458BD0"/>
		<stop  offset="0.25" style="stop-color:#81A7D9"/>
		<stop  offset="0.44" style="stop-color:#006EB2"/>
		<stop  offset="0.6" style="stop-color:#00629E"/>
		<stop  offset="0.8" style="stop-color:#005185"/>
		<stop  offset="0.97" style="stop-color:#004A7A"/>
		<stop  offset="1" style="stop-color:#0064A2"/>
	</linearGradient>
	<path fill="url(#SVGID_20_)" d="M295.933,355.394c0-3,2.27-5.281,5.234-5.281c3.016,0.031,5.375,2.355,5.375,5.262
		c-0.109,3.02-2.406,5.262-5.375,5.262c-2.984,0.008-5.371-2.355-5.371-5.262L295.933,355.394z"/>
	
		<linearGradient id="SVGID_21_" gradientUnits="userSpaceOnUse" x1="215.7744" y1="199.3789" x2="201.0691" y2="190.8888" gradientTransform="matrix(0.75 0 0 -0.75 87.2909 521.0099)">
		<stop  offset="0" style="stop-color:#00609C"/>
		<stop  offset="0.15" style="stop-color:#458BD0"/>
		<stop  offset="0.25" style="stop-color:#81A7D9"/>
		<stop  offset="0.44" style="stop-color:#006EB2"/>
		<stop  offset="0.6" style="stop-color:#00629E"/>
		<stop  offset="0.8" style="stop-color:#005185"/>
		<stop  offset="0.97" style="stop-color:#004A7A"/>
		<stop  offset="1" style="stop-color:#0064A2"/>
	</linearGradient>
	<path fill="url(#SVGID_21_)" d="M238.961,374.531c0-2.25,2.031-4.5,4.625-4.5c2.875,0,4.703,2.043,4.703,4.586
		c-0.328,2.914-2.105,4.605-4.703,4.605c-2.375-0.191-4.699-2.063-4.699-4.605L238.961,374.531z"/>
	
		<linearGradient id="SVGID_22_" gradientUnits="userSpaceOnUse" x1="214.9258" y1="199.4976" x2="201.257" y2="191.6059" gradientTransform="matrix(0.75 0 0 -0.75 115.9354 543.2111)">
		<stop  offset="0" style="stop-color:#00609C"/>
		<stop  offset="0.15" style="stop-color:#458BD0"/>
		<stop  offset="0.25" style="stop-color:#81A7D9"/>
		<stop  offset="0.44" style="stop-color:#006EB2"/>
		<stop  offset="0.6" style="stop-color:#00629E"/>
		<stop  offset="0.8" style="stop-color:#005185"/>
		<stop  offset="0.97" style="stop-color:#004A7A"/>
		<stop  offset="1" style="stop-color:#0064A2"/>
	</linearGradient>
	<path fill="url(#SVGID_22_)" d="M267.605,396.734c0-2.25,1.941-4.5,4.352-4.5c2.398,0,4.367,1.895,4.367,4.254
		c0.281,2.496-1.953,4.277-4.367,4.277c-2.102-0.281-4.352-1.914-4.352-4.277V396.734z"/>
	
		<linearGradient id="SVGID_23_" gradientUnits="userSpaceOnUse" x1="212.8384" y1="199.9375" x2="201.239" y2="193.2406" gradientTransform="matrix(0.75 0 0 -0.75 99.8817 549.8409)">
		<stop  offset="0" style="stop-color:#00609C"/>
		<stop  offset="0.15" style="stop-color:#458BD0"/>
		<stop  offset="0.25" style="stop-color:#81A7D9"/>
		<stop  offset="0.44" style="stop-color:#006EB2"/>
		<stop  offset="0.6" style="stop-color:#00629E"/>
		<stop  offset="0.8" style="stop-color:#005185"/>
		<stop  offset="0.97" style="stop-color:#004A7A"/>
		<stop  offset="1" style="stop-color:#0064A2"/>
	</linearGradient>
	<path fill="url(#SVGID_23_)" d="M251.551,402.613c0-2.25,1.582-3.82,3.621-3.82c2.379,0.07,3.691,1.617,3.691,3.617
		c0.188,1.703-1.652,3.617-3.691,3.617c-2.121,0.336-3.695-1.621-3.695-3.617L251.551,402.613z"/>
	
		<linearGradient id="SVGID_24_" gradientUnits="userSpaceOnUse" x1="211.9336" y1="200.0435" x2="201.4011" y2="193.9625" gradientTransform="matrix(0.75 0 0 -0.75 128.0541 581.4464)">
		<stop  offset="0" style="stop-color:#00609C"/>
		<stop  offset="0.15" style="stop-color:#458BD0"/>
		<stop  offset="0.25" style="stop-color:#81A7D9"/>
		<stop  offset="0.44" style="stop-color:#006EB2"/>
		<stop  offset="0.6" style="stop-color:#00629E"/>
		<stop  offset="0.8" style="stop-color:#005185"/>
		<stop  offset="0.97" style="stop-color:#004A7A"/>
		<stop  offset="1" style="stop-color:#0064A2"/>
	</linearGradient>
	<path fill="url(#SVGID_24_)" d="M279.723,433.468c0-1.5,1.461-3.102,3.316-3.102c1.933,0.102,3.355,1.473,3.355,3.289
		c0.078,2.063-1.5,3.289-3.355,3.289c-1.816,0.273-3.359-1.473-3.359-3.289L279.723,433.468z"/>
	
		<linearGradient id="SVGID_25_" gradientUnits="userSpaceOnUse" x1="216.7217" y1="199.3286" x2="200.9521" y2="190.2241" gradientTransform="matrix(0.75 0 0 -0.75 150.246 580.0587)">
		<stop  offset="0" style="stop-color:#00609C"/>
		<stop  offset="0.15" style="stop-color:#458BD0"/>
		<stop  offset="0.25" style="stop-color:#81A7D9"/>
		<stop  offset="0.44" style="stop-color:#006EB2"/>
		<stop  offset="0.6" style="stop-color:#00629E"/>
		<stop  offset="0.8" style="stop-color:#005185"/>
		<stop  offset="0.97" style="stop-color:#004A7A"/>
		<stop  offset="1" style="stop-color:#0064A2"/>
	</linearGradient>
	<path fill="url(#SVGID_25_)" d="M301.914,434.332c0-3,2.184-5.281,4.965-5.281c2.535,0.031,5.035,2.207,5.035,4.934
		c-0.25,2.598-2.254,4.934-5.035,4.934c-2.715-0.086-5.039-2.211-5.039-4.934L301.914,434.332z"/>
	
		<linearGradient id="SVGID_26_" gradientUnits="userSpaceOnUse" x1="214.7476" y1="199.5474" x2="201.0803" y2="191.6566" gradientTransform="matrix(0.75 0 0 -0.75 149.6161 599.7931)">
		<stop  offset="0" style="stop-color:#00609C"/>
		<stop  offset="0.15" style="stop-color:#458BD0"/>
		<stop  offset="0.25" style="stop-color:#81A7D9"/>
		<stop  offset="0.44" style="stop-color:#006EB2"/>
		<stop  offset="0.6" style="stop-color:#00629E"/>
		<stop  offset="0.8" style="stop-color:#005185"/>
		<stop  offset="0.97" style="stop-color:#004A7A"/>
		<stop  offset="1" style="stop-color:#0064A2"/>
	</linearGradient>
	<path fill="url(#SVGID_26_)" d="M301.285,453.316c0-2.25,1.84-4.531,4.25-4.531c2.5,0.031,4.363,1.914,4.363,4.273
		c-0.363,2.508-1.953,4.277-4.363,4.277c-2.75-0.27-4.367-1.914-4.367-4.277L301.285,453.316z"/>
	
		<linearGradient id="SVGID_27_" gradientUnits="userSpaceOnUse" x1="215.7993" y1="199.5698" x2="201.0808" y2="191.0721" gradientTransform="matrix(0.75 0 0 -0.75 110.5839 601.1798)">
		<stop  offset="0" style="stop-color:#00609C"/>
		<stop  offset="0.15" style="stop-color:#458BD0"/>
		<stop  offset="0.25" style="stop-color:#81A7D9"/>
		<stop  offset="0.44" style="stop-color:#006EB2"/>
		<stop  offset="0.6" style="stop-color:#00629E"/>
		<stop  offset="0.8" style="stop-color:#005185"/>
		<stop  offset="0.97" style="stop-color:#004A7A"/>
		<stop  offset="1" style="stop-color:#0064A2"/>
	</linearGradient>
	<path fill="url(#SVGID_27_)" d="M262.254,454.703c0-2.25,2.074-4.605,4.668-4.605c2.832,0.105,4.703,2.063,4.703,4.605
		c-0.371,2.25-2.105,4.605-4.703,4.605c-2.418-0.105-4.699-2.063-4.699-4.605H262.254z"/>
	
		<linearGradient id="SVGID_28_" gradientUnits="userSpaceOnUse" x1="215.6782" y1="199.5464" x2="200.9597" y2="191.0487" gradientTransform="matrix(0.75 0 0 -0.75 96.5765 613.6681)">
		<stop  offset="0" style="stop-color:#00609C"/>
		<stop  offset="0.15" style="stop-color:#458BD0"/>
		<stop  offset="0.25" style="stop-color:#81A7D9"/>
		<stop  offset="0.44" style="stop-color:#006EB2"/>
		<stop  offset="0.6" style="stop-color:#00629E"/>
		<stop  offset="0.8" style="stop-color:#005185"/>
		<stop  offset="0.97" style="stop-color:#004A7A"/>
		<stop  offset="1" style="stop-color:#0064A2"/>
	</linearGradient>
	<path fill="url(#SVGID_28_)" d="M248.246,467.191c0-2.25,1.977-4.594,4.574-4.594c2.926,0.094,4.699,2.063,4.699,4.605
		c-0.273,2.238-2.102,4.605-4.699,4.605c-2.324-0.117-4.699-2.063-4.699-4.605L248.246,467.191z"/>
	
		<linearGradient id="SVGID_29_" gradientUnits="userSpaceOnUse" x1="213.7612" y1="199.8311" x2="201.1122" y2="192.5281" gradientTransform="matrix(0.75 0 0 -0.75 114.0468 630.7823)">
		<stop  offset="0" style="stop-color:#00609C"/>
		<stop  offset="0.15" style="stop-color:#458BD0"/>
		<stop  offset="0.25" style="stop-color:#81A7D9"/>
		<stop  offset="0.44" style="stop-color:#006EB2"/>
		<stop  offset="0.6" style="stop-color:#00629E"/>
		<stop  offset="0.8" style="stop-color:#005185"/>
		<stop  offset="0.97" style="stop-color:#004A7A"/>
		<stop  offset="1" style="stop-color:#0064A2"/>
	</linearGradient>
	<path fill="url(#SVGID_29_)" d="M265.715,483.554c0-2.25,1.668-3.852,3.895-3.852c2.105,0.102,4.027,1.766,4.027,3.945
		c0.328,2.156-1.805,3.945-4.027,3.945c-2.395-0.289-4.031-1.766-4.031-3.945L265.715,483.554z"/>
	
		<linearGradient id="SVGID_30_" gradientUnits="userSpaceOnUse" x1="213.9067" y1="199.7949" x2="201.2785" y2="192.504" gradientTransform="matrix(0.75 0 0 -0.75 108.538 651.1329)">
		<stop  offset="0" style="stop-color:#006A9C"/>
		<stop  offset="0.15" style="stop-color:#4596D0"/>
		<stop  offset="0.25" style="stop-color:#81AED9"/>
		<stop  offset="0.44" style="stop-color:#007AB2"/>
		<stop  offset="0.6" style="stop-color:#006C9E"/>
		<stop  offset="0.8" style="stop-color:#005A85"/>
		<stop  offset="0.97" style="stop-color:#00527A"/>
		<stop  offset="1" style="stop-color:#006EA2"/>
	</linearGradient>
	<path fill="url(#SVGID_30_)" d="M260.207,503.906c0-2.25,1.805-3.813,4.027-3.813c1.973,0.063,4.031,1.766,4.031,3.945
		c0.191,2.117-1.805,3.949-4.031,3.949c-2.527-0.332-4.027-1.77-4.027-3.949V503.906z"/>
	
		<linearGradient id="SVGID_31_" gradientUnits="userSpaceOnUse" x1="222.584" y1="198.5405" x2="200.497" y2="185.7886" gradientTransform="matrix(0.75 0 0 -0.75 132.7758 641.5743)">
		<stop  offset="0" style="stop-color:#006A9C"/>
		<stop  offset="0.15" style="stop-color:#4596D0"/>
		<stop  offset="0.25" style="stop-color:#81AED9"/>
		<stop  offset="0.44" style="stop-color:#007AB2"/>
		<stop  offset="0.6" style="stop-color:#006C9E"/>
		<stop  offset="0.8" style="stop-color:#005A85"/>
		<stop  offset="0.97" style="stop-color:#00527A"/>
		<stop  offset="1" style="stop-color:#006EA2"/>
	</linearGradient>
	<path fill="url(#SVGID_31_)" d="M284.445,497.347c0-3.75,3.094-6.793,6.988-6.793c4.262,0.043,7.051,3.094,7.051,6.906
		c0.211,3.637-3.156,6.906-7.051,6.906c-3.988-0.27-7.051-3.09-7.051-6.906L284.445,497.347z"/>
	
		<linearGradient id="SVGID_32_" gradientUnits="userSpaceOnUse" x1="212.8252" y1="199.9136" x2="201.2268" y2="193.2172" gradientTransform="matrix(0.75 0 0 -0.75 157.6425 634.0197)">
		<stop  offset="0" style="stop-color:#006A9C"/>
		<stop  offset="0.15" style="stop-color:#4596D0"/>
		<stop  offset="0.25" style="stop-color:#81AED9"/>
		<stop  offset="0.44" style="stop-color:#007AB2"/>
		<stop  offset="0.6" style="stop-color:#006C9E"/>
		<stop  offset="0.8" style="stop-color:#005A85"/>
		<stop  offset="0.97" style="stop-color:#00527A"/>
		<stop  offset="1" style="stop-color:#006EA2"/>
	</linearGradient>
	<path fill="url(#SVGID_32_)" d="M309.312,486.792c0-2.25,1.57-3.801,3.609-3.801c2.391,0.051,3.691,1.617,3.691,3.617
		c0.199,1.684-1.652,3.617-3.691,3.617c-2.109,0.316-3.695-1.621-3.695-3.617L309.312,486.792z"/>
	
		<linearGradient id="SVGID_33_" gradientUnits="userSpaceOnUse" x1="213.7441" y1="199.7852" x2="201.0944" y2="192.4818" gradientTransform="matrix(0.75 0 0 -0.75 131.5165 621.5314)">
		<stop  offset="0" style="stop-color:#00609C"/>
		<stop  offset="0.15" style="stop-color:#458BD0"/>
		<stop  offset="0.25" style="stop-color:#81A7D9"/>
		<stop  offset="0.44" style="stop-color:#006EB2"/>
		<stop  offset="0.6" style="stop-color:#00629E"/>
		<stop  offset="0.8" style="stop-color:#005185"/>
		<stop  offset="0.97" style="stop-color:#004A7A"/>
		<stop  offset="1" style="stop-color:#0064A2"/>
	</linearGradient>
	<path fill="url(#SVGID_33_)" d="M283.188,474.304c0-2.25,1.656-3.813,3.878-3.813c2.121,0.063,4.031,1.766,4.031,3.945
		c0.34,2.117-1.805,3.949-4.031,3.949c-2.379-0.332-4.027-1.77-4.027-3.949L283.188,474.304z"/>
	
		<linearGradient id="SVGID_34_" gradientUnits="userSpaceOnUse" x1="215.7104" y1="199.6074" x2="200.992" y2="191.1097" gradientTransform="matrix(0.75 0 0 -0.75 101.9276 501.8927)">
		<stop  offset="0" style="stop-color:#00609C"/>
		<stop  offset="0.15" style="stop-color:#458BD0"/>
		<stop  offset="0.25" style="stop-color:#81A7D9"/>
		<stop  offset="0.44" style="stop-color:#006EB2"/>
		<stop  offset="0.6" style="stop-color:#00629E"/>
		<stop  offset="0.8" style="stop-color:#005185"/>
		<stop  offset="0.97" style="stop-color:#004A7A"/>
		<stop  offset="1" style="stop-color:#0064A2"/>
	</linearGradient>
	<path fill="url(#SVGID_34_)" d="M253.598,355.414c0-2.25,2-4.645,4.594-4.645c2.906,0.145,4.703,2.063,4.703,4.605
		c-0.297,2.289-2.105,4.605-4.703,4.605c-2.344-0.066-4.699-2.063-4.699-4.605L253.598,355.414z"/>
	
		<linearGradient id="SVGID_35_" gradientUnits="userSpaceOnUse" x1="217.7622" y1="199.271" x2="200.9394" y2="189.5584" gradientTransform="matrix(0.75 0 0 -0.75 160.9481 541.9786)">
		<stop  offset="0" style="stop-color:#006A9C"/>
		<stop  offset="0.15" style="stop-color:#4596D0"/>
		<stop  offset="0.25" style="stop-color:#81AED9"/>
		<stop  offset="0.44" style="stop-color:#007AB2"/>
		<stop  offset="0.6" style="stop-color:#006C9E"/>
		<stop  offset="0.8" style="stop-color:#005A85"/>
		<stop  offset="0.97" style="stop-color:#00527A"/>
		<stop  offset="1" style="stop-color:#006EA2"/>
	</linearGradient>
	<path fill="url(#SVGID_35_)" d="M312.617,396.25c0-3,2.375-5.352,5.34-5.352c2.91,0.102,5.371,2.355,5.371,5.262
		c-0.211,3.09-2.402,5.262-5.371,5.262c-3.09,0.078-5.371-2.355-5.371-5.262L312.617,396.25z"/>
	
		<linearGradient id="SVGID_36_" gradientUnits="userSpaceOnUse" x1="212.7549" y1="199.9243" x2="201.146" y2="193.2219" gradientTransform="matrix(0.75 0 0 -0.75 121.4437 512.9933)">
		<stop  offset="0" style="stop-color:#00609C"/>
		<stop  offset="0.15" style="stop-color:#458BD0"/>
		<stop  offset="0.25" style="stop-color:#81A7D9"/>
		<stop  offset="0.44" style="stop-color:#006EB2"/>
		<stop  offset="0.6" style="stop-color:#00629E"/>
		<stop  offset="0.8" style="stop-color:#005185"/>
		<stop  offset="0.97" style="stop-color:#004A7A"/>
		<stop  offset="1" style="stop-color:#0064A2"/>
	</linearGradient>
	<path fill="url(#SVGID_36_)" d="M273.113,365.765c0-2.25,1.508-3.813,3.547-3.813c1.703,0.063,3.691,1.621,3.691,3.617
		c0.262,1.695-1.652,3.621-3.691,3.621c-2.047,0.324-3.695-1.621-3.695-3.621L273.113,365.765z"/>
	
		<linearGradient id="SVGID_37_" gradientUnits="userSpaceOnUse" x1="213.7319" y1="199.728" x2="201.0922" y2="192.4305" gradientTransform="matrix(0.75 0 0 -0.75 151.662 464.2755)">
		<stop  offset="0" style="stop-color:#006A9C"/>
		<stop  offset="0.15" style="stop-color:#4596D0"/>
		<stop  offset="0.25" style="stop-color:#81AED9"/>
		<stop  offset="0.44" style="stop-color:#007AB2"/>
		<stop  offset="0.6" style="stop-color:#006C9E"/>
		<stop  offset="0.8" style="stop-color:#005A85"/>
		<stop  offset="0.97" style="stop-color:#00527A"/>
		<stop  offset="1" style="stop-color:#006EA2"/>
	</linearGradient>
	<path fill="url(#SVGID_37_)" d="M303.332,317.046c0-2.25,1.656-3.75,3.883-3.75c2.117,0,4.027,1.746,4.027,3.926
		c0.34,2.074-1.805,3.949-4.027,3.949c-2.383-0.375-4.031-1.77-4.031-3.949L303.332,317.046z"/>
	
		<linearGradient id="SVGID_38_" gradientUnits="userSpaceOnUse" x1="218.6445" y1="199.2246" x2="200.7672" y2="188.9032" gradientTransform="matrix(0.75 0 0 -0.75 160.3182 428.1974)">
		<stop  offset="0" style="stop-color:#00609C"/>
		<stop  offset="0.15" style="stop-color:#458BD0"/>
		<stop  offset="0.25" style="stop-color:#81A7D9"/>
		<stop  offset="0.44" style="stop-color:#006EB2"/>
		<stop  offset="0.6" style="stop-color:#00629E"/>
		<stop  offset="0.8" style="stop-color:#005185"/>
		<stop  offset="0.97" style="stop-color:#004A7A"/>
		<stop  offset="1" style="stop-color:#0064A2"/>
	</linearGradient>
	<path fill="url(#SVGID_38_)" d="M311.988,282.469c0-3,2.48-5.371,5.633-5.371c3.367,0.121,5.707,2.504,5.707,5.59
		c-0.09,2.781-2.555,5.593-5.707,5.593c-3.383,0.188-5.707-2.504-5.707-5.593L311.988,282.469z"/>
	
		<linearGradient id="SVGID_39_" gradientUnits="userSpaceOnUse" x1="216.6821" y1="199.3359" x2="200.9137" y2="190.2321" gradientTransform="matrix(0.75 0 0 -0.75 152.2919 399.8302)">
		<stop  offset="0" style="stop-color:#00609C"/>
		<stop  offset="0.15" style="stop-color:#458BD0"/>
		<stop  offset="0.25" style="stop-color:#81A7D9"/>
		<stop  offset="0.44" style="stop-color:#006EB2"/>
		<stop  offset="0.6" style="stop-color:#00629E"/>
		<stop  offset="0.8" style="stop-color:#005185"/>
		<stop  offset="0.97" style="stop-color:#004A7A"/>
		<stop  offset="1" style="stop-color:#0064A2"/>
	</linearGradient>
	<path fill="url(#SVGID_39_)" d="M303.96,254.102c0-3,2.148-5.289,4.93-5.289c2.57,0.039,5.039,2.207,5.039,4.934
		c-0.219,2.605-2.254,4.934-5.039,4.934c-2.68-0.078-5.035-2.211-5.035-4.934L303.96,254.102z"/>
	
		<linearGradient id="SVGID_40_" gradientUnits="userSpaceOnUse" x1="211.9282" y1="199.9966" x2="201.3992" y2="193.9177" gradientTransform="matrix(0.75 0 0 -0.75 138.1268 414.3224)">
		<stop  offset="0" style="stop-color:#608C08"/>
		<stop  offset="0.15" style="stop-color:#8BBD48"/>
		<stop  offset="0.25" style="stop-color:#A7CA82"/>
		<stop  offset="0.44" style="stop-color:#6EA10B"/>
		<stop  offset="0.6" style="stop-color:#628F08"/>
		<stop  offset="0.8" style="stop-color:#517806"/>
		<stop  offset="0.97" style="stop-color:#4A6D05"/>
		<stop  offset="1" style="stop-color:#649209"/>
	</linearGradient>
	<path fill="url(#SVGID_40_)" d="M289.796,266.344c0-1.5,1.461-3.059,3.316-3.059c1.934,0.059,3.355,1.473,3.355,3.289
		c0.078,2.02-1.504,3.289-3.355,3.289c-1.816,0.23-3.359-1.473-3.359-3.289L289.796,266.344z"/>
	
		<linearGradient id="SVGID_41_" gradientUnits="userSpaceOnUse" x1="214.9121" y1="199.7046" x2="201.2237" y2="191.8016" gradientTransform="matrix(0.75 0 0 -0.75 148.829 378.8624)">
		<stop  offset="0" style="stop-color:#608C08"/>
		<stop  offset="0.15" style="stop-color:#8BBD48"/>
		<stop  offset="0.25" style="stop-color:#A7CA82"/>
		<stop  offset="0.44" style="stop-color:#6EA10B"/>
		<stop  offset="0.6" style="stop-color:#628F08"/>
		<stop  offset="0.8" style="stop-color:#517806"/>
		<stop  offset="0.97" style="stop-color:#4A6D05"/>
		<stop  offset="1" style="stop-color:#649209"/>
	</linearGradient>
	<path fill="url(#SVGID_41_)" d="M300.5,232.387c0-3,1.953-4.625,4.363-4.625c2.387,0.125,4.363,1.914,4.363,4.277
		c0.273,2.598-1.953,4.273-4.363,4.273c-2.113-0.176-4.363-1.914-4.363-4.273V232.387z"/>
	
		<linearGradient id="SVGID_42_" gradientUnits="userSpaceOnUse" x1="212.8872" y1="199.9736" x2="201.2899" y2="193.2779" gradientTransform="matrix(0.75 0 0 -0.75 150.8749 295.3009)">
		<stop  offset="0" style="stop-color:#00609C"/>
		<stop  offset="0.15" style="stop-color:#458BD0"/>
		<stop  offset="0.25" style="stop-color:#81A7D9"/>
		<stop  offset="0.44" style="stop-color:#006EB2"/>
		<stop  offset="0.6" style="stop-color:#00629E"/>
		<stop  offset="0.8" style="stop-color:#005185"/>
		<stop  offset="0.97" style="stop-color:#004A7A"/>
		<stop  offset="1" style="stop-color:#0064A2"/>
	</linearGradient>
	<path fill="url(#SVGID_42_)" d="M302.542,148.074c0-2.25,1.625-3.855,3.664-3.855c2.336,0.105,3.691,1.621,3.691,3.621
		c0.145,1.734-1.652,3.617-3.691,3.617c-2.164,0.367-3.695-1.621-3.695-3.617L302.542,148.074z"/>
	
		<linearGradient id="SVGID_43_" gradientUnits="userSpaceOnUse" x1="215.7627" y1="199.3701" x2="201.0465" y2="190.8737" gradientTransform="matrix(0.75 0 0 -0.75 127.4247 282.0421)">
		<stop  offset="0" style="stop-color:#608C08"/>
		<stop  offset="0.15" style="stop-color:#8BBD48"/>
		<stop  offset="0.25" style="stop-color:#A7CA82"/>
		<stop  offset="0.44" style="stop-color:#6EA10B"/>
		<stop  offset="0.6" style="stop-color:#628F08"/>
		<stop  offset="0.8" style="stop-color:#517806"/>
		<stop  offset="0.97" style="stop-color:#4A6D05"/>
		<stop  offset="1" style="stop-color:#649209"/>
	</linearGradient>
	<path fill="url(#SVGID_43_)" d="M279.094,135.563c0-2.25,2.02-4.5,4.617-4.5c2.882,0,4.699,2.063,4.699,4.605
		c-0.316,2.895-2.105,4.605-4.699,4.605c-2.367-0.211-4.703-2.063-4.703-4.605L279.094,135.563z"/>
	
		<linearGradient id="SVGID_44_" gradientUnits="userSpaceOnUse" x1="214.8823" y1="199.6519" x2="201.2105" y2="191.7584" gradientTransform="matrix(0.75 0 0 -0.75 93.1141 293.297)">
		<stop  offset="0" style="stop-color:#608C08"/>
		<stop  offset="0.15" style="stop-color:#8BBD48"/>
		<stop  offset="0.25" style="stop-color:#A7CA82"/>
		<stop  offset="0.44" style="stop-color:#6EA10B"/>
		<stop  offset="0.6" style="stop-color:#628F08"/>
		<stop  offset="0.8" style="stop-color:#517806"/>
		<stop  offset="0.97" style="stop-color:#4A6D05"/>
		<stop  offset="1" style="stop-color:#649209"/>
	</linearGradient>
	<path fill="url(#SVGID_44_)" d="M244.781,146.82c0-3,1.934-4.574,4.348-4.574c2.402,0.074,4.363,1.914,4.363,4.277
		c0.289,2.547-1.953,4.273-4.363,4.273c-2.098-0.227-4.348-1.914-4.348-4.273V146.82z"/>
	
		<linearGradient id="SVGID_45_" gradientUnits="userSpaceOnUse" x1="215.7856" y1="199.5669" x2="201.0648" y2="191.0678" gradientTransform="matrix(0.75 0 0 -0.75 138.1268 221.297)">
		<stop  offset="0" style="stop-color:#608C08"/>
		<stop  offset="0.15" style="stop-color:#8BBD48"/>
		<stop  offset="0.25" style="stop-color:#A7CA82"/>
		<stop  offset="0.44" style="stop-color:#6EA10B"/>
		<stop  offset="0.6" style="stop-color:#628F08"/>
		<stop  offset="0.8" style="stop-color:#517806"/>
		<stop  offset="0.97" style="stop-color:#4A6D05"/>
		<stop  offset="1" style="stop-color:#649209"/>
	</linearGradient>
	<path fill="url(#SVGID_45_)" d="M289.796,74.82c0-2.25,2.063-4.602,4.656-4.602c2.844,0.102,4.703,2.059,4.703,4.602
		c-0.359,2.25-2.105,4.605-4.703,4.605c-2.406-0.105-4.699-2.063-4.699-4.605H289.796z"/>
	
		<linearGradient id="SVGID_46_" gradientUnits="userSpaceOnUse" x1="212.8218" y1="199.8926" x2="201.2255" y2="193.1975" gradientTransform="matrix(0.75 0 0 -0.75 157.6425 254.4454)">
		<stop  offset="0" style="stop-color:#00609C"/>
		<stop  offset="0.15" style="stop-color:#458BD0"/>
		<stop  offset="0.25" style="stop-color:#81A7D9"/>
		<stop  offset="0.44" style="stop-color:#006EB2"/>
		<stop  offset="0.6" style="stop-color:#00629E"/>
		<stop  offset="0.8" style="stop-color:#005185"/>
		<stop  offset="0.97" style="stop-color:#004A7A"/>
		<stop  offset="1" style="stop-color:#0064A2"/>
	</linearGradient>
	<path fill="url(#SVGID_46_)" d="M309.312,107.219c0-2.25,1.57-3.781,3.609-3.781c2.391,0.031,3.691,1.617,3.691,3.617
		c0.199,1.664-1.652,3.617-3.691,3.617c-2.109,0.297-3.695-1.621-3.695-3.617L309.312,107.219z"/>
	
		<linearGradient id="SVGID_47_" gradientUnits="userSpaceOnUse" x1="212.7505" y1="199.8896" x2="201.146" y2="193.1898" gradientTransform="matrix(0.75 0 0 -0.75 91.2255 234.7111)">
		<stop  offset="0" style="stop-color:#608C08"/>
		<stop  offset="0.15" style="stop-color:#8BBD48"/>
		<stop  offset="0.25" style="stop-color:#A7CA82"/>
		<stop  offset="0.44" style="stop-color:#6EA10B"/>
		<stop  offset="0.6" style="stop-color:#628F08"/>
		<stop  offset="0.8" style="stop-color:#517806"/>
		<stop  offset="0.97" style="stop-color:#4A6D05"/>
		<stop  offset="1" style="stop-color:#649209"/>
	</linearGradient>
	<path fill="url(#SVGID_47_)" d="M242.895,87.484c0-2.25,1.508-3.781,3.547-3.781c1.703,0.031,3.691,1.621,3.691,3.617
		c0.262,1.664-1.652,3.617-3.691,3.617c-2.047,0.297-3.695-1.617-3.695-3.617L242.895,87.484z"/>
	
		<linearGradient id="SVGID_48_" gradientUnits="userSpaceOnUse" x1="214.7104" y1="199.7065" x2="201.0439" y2="191.8162" gradientTransform="matrix(0.75 0 0 -0.75 159.6884 354.504)">
		<stop  offset="0" style="stop-color:#00609C"/>
		<stop  offset="0.15" style="stop-color:#458BD0"/>
		<stop  offset="0.25" style="stop-color:#81A7D9"/>
		<stop  offset="0.44" style="stop-color:#006EB2"/>
		<stop  offset="0.6" style="stop-color:#00629E"/>
		<stop  offset="0.8" style="stop-color:#005185"/>
		<stop  offset="0.97" style="stop-color:#004A7A"/>
		<stop  offset="1" style="stop-color:#0064A2"/>
	</linearGradient>
	<path fill="url(#SVGID_48_)" d="M311.359,208.027c0-3,1.836-4.605,4.246-4.605c2.504,0.105,4.367,1.914,4.367,4.277
		c-0.363,2.578-1.953,4.273-4.367,4.273c-2.746-0.195-4.363-1.914-4.363-4.273L311.359,208.027z"/>
	
		<linearGradient id="SVGID_49_" gradientUnits="userSpaceOnUse" x1="215.8765" y1="199.4702" x2="201.1325" y2="190.9578" gradientTransform="matrix(0.75 0 0 -0.75 115.9354 343.2482)">
		<stop  offset="0" style="stop-color:#608C08"/>
		<stop  offset="0.15" style="stop-color:#8BBD48"/>
		<stop  offset="0.25" style="stop-color:#A7CA82"/>
		<stop  offset="0.44" style="stop-color:#6EA10B"/>
		<stop  offset="0.6" style="stop-color:#628F08"/>
		<stop  offset="0.8" style="stop-color:#517806"/>
		<stop  offset="0.97" style="stop-color:#4A6D05"/>
		<stop  offset="1" style="stop-color:#649209"/>
	</linearGradient>
	<path fill="url(#SVGID_49_)" d="M267.605,196.77c0-2.25,2.094-4.531,4.688-4.531c2.813,0.031,4.703,2.063,4.703,4.605
		c0.359,2.176-2.105,4.605-4.703,4.605c-2.438-0.18-4.688-2.063-4.688-4.605V196.77z"/>
	
		<linearGradient id="SVGID_50_" gradientUnits="userSpaceOnUse" x1="216.7998" y1="199.4209" x2="201.0407" y2="190.3224" gradientTransform="matrix(0.75 0 0 -0.75 95.7894 574.2003)">
		<stop  offset="0" style="stop-color:#00609C"/>
		<stop  offset="0.15" style="stop-color:#458BD0"/>
		<stop  offset="0.25" style="stop-color:#81A7D9"/>
		<stop  offset="0.44" style="stop-color:#006EB2"/>
		<stop  offset="0.6" style="stop-color:#00629E"/>
		<stop  offset="0.8" style="stop-color:#005185"/>
		<stop  offset="0.97" style="stop-color:#004A7A"/>
		<stop  offset="1" style="stop-color:#0064A2"/>
	</linearGradient>
	<path fill="url(#SVGID_50_)" d="M247.457,427.722c0-2.25,2.246-4.594,5.027-4.594c2.473,0.094,5.035,2.211,5.035,4.934
		c-0.313,2.66-2.254,4.934-5.035,4.934c-2.777-0.023-5.027-2.207-5.027-4.934V427.722z"/>
	
		<linearGradient id="SVGID_51_" gradientUnits="userSpaceOnUse" x1="216.7612" y1="199.3335" x2="200.9905" y2="190.2283" gradientTransform="matrix(0.75 0 0 -0.75 138.1268 540.59)">
		<stop  offset="0" style="stop-color:#00609C"/>
		<stop  offset="0.15" style="stop-color:#458BD0"/>
		<stop  offset="0.25" style="stop-color:#81A7D9"/>
		<stop  offset="0.44" style="stop-color:#006EB2"/>
		<stop  offset="0.6" style="stop-color:#00629E"/>
		<stop  offset="0.8" style="stop-color:#005185"/>
		<stop  offset="0.97" style="stop-color:#004A7A"/>
		<stop  offset="1" style="stop-color:#0064A2"/>
	</linearGradient>
	<path fill="url(#SVGID_51_)" d="M289.796,394.863c0-3,2.211-5.281,4.992-5.281c2.508,0.031,5.039,2.207,5.039,4.934
		c-0.281,2.598-2.258,4.934-5.039,4.934c-2.742-0.086-5.035-2.211-5.035-4.934L289.796,394.863z"/>
	
		<linearGradient id="SVGID_52_" gradientUnits="userSpaceOnUse" x1="218.667" y1="199.0483" x2="200.7933" y2="188.729" gradientTransform="matrix(0.75 0 0 -0.75 97.2059 468.8995)">
		<stop  offset="0" style="stop-color:#608C08"/>
		<stop  offset="0.15" style="stop-color:#8BBD48"/>
		<stop  offset="0.25" style="stop-color:#A7CA82"/>
		<stop  offset="0.44" style="stop-color:#6EA10B"/>
		<stop  offset="0.6" style="stop-color:#628F08"/>
		<stop  offset="0.8" style="stop-color:#517806"/>
		<stop  offset="0.97" style="stop-color:#4A6D05"/>
		<stop  offset="1" style="stop-color:#649209"/>
	</linearGradient>
	<path fill="url(#SVGID_52_)" d="M248.875,323.171c0-3,2.473-5.289,5.625-5.289c3.375,0.039,5.707,2.5,5.707,5.59
		c-0.082,3.449-2.555,5.59-5.707,5.59c-3.375,0.109-5.707-2.504-5.707-5.59L248.875,323.171z"/>
	
		<linearGradient id="SVGID_53_" gradientUnits="userSpaceOnUse" x1="218.7178" y1="199.0576" x2="200.8429" y2="188.7376" gradientTransform="matrix(0.75 0 0 -0.75 158.2723 332.38)">
		<stop  offset="0" style="stop-color:#00609C"/>
		<stop  offset="0.15" style="stop-color:#458BD0"/>
		<stop  offset="0.25" style="stop-color:#81A7D9"/>
		<stop  offset="0.44" style="stop-color:#006EB2"/>
		<stop  offset="0.6" style="stop-color:#00629E"/>
		<stop  offset="0.8" style="stop-color:#005185"/>
		<stop  offset="0.97" style="stop-color:#004A7A"/>
		<stop  offset="1" style="stop-color:#0064A2"/>
	</linearGradient>
	<path fill="url(#SVGID_53_)" d="M309.941,186.652c0-3,2.512-5.293,5.664-5.293c3.336,0.043,5.711,2.504,5.711,5.594
		c-0.125,3.449-2.559,5.59-5.711,5.59c-3.414,0.109-5.707-2.504-5.707-5.59L309.941,186.652z"/>
</g>
</svg>
