<?xml version="1.0" encoding="utf-8"?>
<!-- Generator: Adobe Illustrator 16.0.0, SVG Export Plug-In . SVG Version: 6.00 Build 0)  -->
<!DOCTYPE svg PUBLIC "-//W3C//DTD SVG 1.1//EN" "http://www.w3.org/Graphics/SVG/1.1/DTD/svg11.dtd">
<svg preserveAspectRatio="none"   version="1.1" id="图层_1" xmlns="http://www.w3.org/2000/svg" xmlns:xlink="http://www.w3.org/1999/xlink" x="0px" y="0px"
	 width="30.148px" height="30.157px" viewBox="66.601 74.093 30.148 30.157" enable-background="new 66.601 74.093 30.148 30.157"
	 xml:space="preserve">
<g id="surface11">
	
		<linearGradient id="SVGID_1_" gradientUnits="userSpaceOnUse" x1="122.7585" y1="274.4011" x2="122.7585" y2="256.4011" gradientTransform="matrix(0.75 0 0 -0.75 -1.3189 280.8019)">
		<stop  offset="0" style="stop-color:#D7D8D9"/>
		<stop  offset="0.2" style="stop-color:#E4E5E6"/>
		<stop  offset="0.4" style="stop-color:#FCFDFE"/>
		<stop  offset="0.6" style="stop-color:#FCFDFE"/>
		<stop  offset="0.8" style="stop-color:#E4E5E6"/>
		<stop  offset="1" style="stop-color:#D7D8D9"/>
	</linearGradient>
	<path fill="url(#SVGID_1_)" d="M84.75,75h12v13.5h-12V75z"/>
	
		<linearGradient id="SVGID_2_" gradientUnits="userSpaceOnUse" x1="122.7092" y1="603.8254" x2="122.7092" y2="585.8254" gradientTransform="matrix(0 -0.75 -0.75 0 520.3688 190.2823)">
		<stop  offset="0" style="stop-color:#D7D8D9"/>
		<stop  offset="0.2" style="stop-color:#E4E5E6"/>
		<stop  offset="0.4" style="stop-color:#FCFDFE"/>
		<stop  offset="0.6" style="stop-color:#FCFDFE"/>
		<stop  offset="0.8" style="stop-color:#E4E5E6"/>
		<stop  offset="1" style="stop-color:#D7D8D9"/>
	</linearGradient>
	<path fill="url(#SVGID_2_)" d="M67.5,104.25v-12H81v12H67.5z"/>
	<path fill="#ECEDEE" d="M89.113,89.102v-15c0,0-8.547-0.527-16,6.602c-6.5,6.148-6.5,15.898-6.5,15.898h15
		c0,0,0.129-3.68,2.223-5.422c2.277-2.078,5.25-2.164,5.25-2.164L89.113,89.102z"/>
	<path fill="#DEDFE0" d="M89.383,89.328v-2.25c0,0-4.254,0.242-6.902,2.762c-2.848,3.238-2.848,6.746-2.848,6.746l2.25,0.242
		c0-0.75-0.059-3.902,1.836-5.602c1.914-1.898,5.352-2.219,5.352-2.219L89.383,89.328z"/>
	<path fill="#E3E4E5" d="M88.746,78.321v-2.25c0,0-8.516-0.074-14.398,5.871c-6.602,6.879-5.813,14.641-5.813,14.641l2.211-0.262
		c0,0-0.5-7.91,5.055-12.984c6.195-5.766,13.27-5.305,13.27-5.305L88.746,78.321z"/>
	<path fill="#DEDFE0" d="M89.101,76.379v-2.25c0,0-8.199-0.648-15.98,6.555c-6.52,6.195-6.52,15.887-6.52,15.887l2.25,0.059
		c0,0-0.465-8.992,5.551-14.668c6.449-6.332,14.699-5.895,14.699-5.895V76.379z"/>
	<path fill="#FCFDFE" d="M88.945,82.938v-3c0,0-6.371-0.535-11.727,4.813c-4.773,4.938-4.773,11.836-4.773,11.836l3-0.148
		c0,0,0.246-5.668,3.984-9.477c4.266-4.023,9.641-3.762,9.641-3.762L88.945,82.938z"/>
	<path fill="#F1F2F2" d="M89.238,80.278v-2.25c0,0-7.367-0.395-13.473,5.324c-5.277,5.176-5.277,13.23-5.277,13.23l2.25,0.195
		c0,0-0.387-7.352,4.48-12.027c5.27-5.223,11.852-4.797,11.852-4.797L89.238,80.278z"/>
	<path fill="#F1F2F2" d="M89.215,85.446v-2.25c0,0-6.012-0.281-9.785,3.766c-3.715,3.734-3.715,9.621-3.715,9.621l2.25,0.113
		c0,0-0.09-5.082,3.035-8.176c2.965-3.074,8.07-3.383,8.07-3.383L89.215,85.446z"/>
	<path fill="#E3E4E5" d="M88.929,87.383v-2.25c0,0-4.789,0.238-7.93,3.387c-3.32,3.363-3.32,8.066-3.32,8.066l2.25-0.203
		c0,0-0.445-3.57,2.492-6.438c2.758-2.563,6.637-2.867,6.637-2.867L88.929,87.383z"/>
</g>
</svg>
