<svg id="图层_1" data-name="图层 1" xmlns="http://www.w3.org/2000/svg" viewBox="0 0 2494.39 956.49"><defs><style>.cls-1,.cls-2,.cls-3,.cls-4{fill:#45b4ff;}.cls-2{opacity:0.8;}.cls-3{opacity:0.6;}.cls-4{opacity:0.4;}</style></defs><title>jiantou</title><path class="cls-1" d="M3146,1856.89,2840.51,1551.4a101.2,101.2,0,0,0-143.12,0h0a101.19,101.19,0,0,0,0,143.11l233.94,233.93a101.2,101.2,0,0,1,0,143.12l-233.94,233.93a101.19,101.19,0,0,0,0,143.11h0a101.2,101.2,0,0,0,143.12,0L3146,2143.11l71.55-71.55a101.2,101.2,0,0,0,0-143.12Z" transform="translate(-752.81 -1521.76)"/><path class="cls-2" d="M2507.68,1856.89,2202.19,1551.4a101.19,101.19,0,0,0-143.11,0h0a101.19,101.19,0,0,0,0,143.11L2293,1928.44a101.2,101.2,0,0,1,0,143.12l-233.93,233.93a101.19,101.19,0,0,0,0,143.11h0a101.19,101.19,0,0,0,143.11,0l305.49-305.49,71.56-71.55a101.2,101.2,0,0,0,0-143.12Z" transform="translate(-752.81 -1521.76)"/><path class="cls-3" d="M1869.37,1856.89l-305.5-305.49a101.19,101.19,0,0,0-143.11,0h0a101.19,101.19,0,0,0,0,143.11l233.94,233.93a101.2,101.2,0,0,1,0,143.12l-233.94,233.93a101.19,101.19,0,0,0,0,143.11h0a101.19,101.19,0,0,0,143.11,0l305.5-305.49,71.55-71.55a101.2,101.2,0,0,0,0-143.12Z" transform="translate(-752.81 -1521.76)"/><path class="cls-4" d="M1231.05,1856.89,925.56,1551.4a101.19,101.19,0,0,0-143.11,0h0a101.19,101.19,0,0,0,0,143.11l233.93,233.93a101.2,101.2,0,0,1,0,143.12L782.45,2305.49a101.19,101.19,0,0,0,0,143.11h0a101.19,101.19,0,0,0,143.11,0l305.49-305.49,71.56-71.55a101.2,101.2,0,0,0,0-143.12Z" transform="translate(-752.81 -1521.76)"/></svg>