<svg id="图层_1" data-name="图层 1" xmlns="http://www.w3.org/2000/svg" viewBox="0 0 2445.37 1426.46"><defs><style>.cls-1{fill:#448bcc;}.cls-2{fill:#fff;}.cls-3{fill:#888889;}.cls-4{fill:#3d3d3d;}.cls-5{fill:#d8d8d8;}.cls-6{fill:#6faed8;}.cls-7{fill:#f2b361;}.cls-8{fill:#a5a5a5;}.cls-9{fill:none;stroke:#fff;stroke-miterlimit:10;stroke-width:57.39px;}</style></defs><title>jka2</title><path class="cls-1" d="M2538.76,1289c45.17-267.54-32.53-492.78-105.83-634.86-51.58-100-155.2-162.28-267.71-162.28H1884.76a60.31,60.31,0,0,0-60.29,59.23l-4.94,615H189.29V1468.8h295c32-82.08,111.8-140.27,205.21-140.27s173.19,58.19,205.21,140.27H1963.51c32-82.08,111.79-140.27,205.2-140.27s173.19,58.19,205.21,140.27h169.33a91.4,91.4,0,0,0,91.4-91.4V1289S2532.76,1295,2538.76,1289Z" transform="translate(-189.29 -348)"/><rect class="cls-2" x="1923.93" y="309.67" width="231.75" height="367.6" rx="39.17" ry="39.17"/><rect class="cls-2" x="1692.18" y="309.67" width="151.84" height="207.78" rx="23.84" ry="23.84"/><rect class="cls-2" x="1743.75" y="710.24" width="33.71" height="92.9" rx="15.08" ry="15.08"/><circle class="cls-3" cx="500.46" cy="1215.76" r="210.69"/><circle class="cls-4" cx="500.46" cy="1215.76" r="180.73"/><circle class="cls-5" cx="500.46" cy="1215.76" r="66.85"/><circle class="cls-3" cx="1981.15" cy="1215.76" r="210.69"/><circle class="cls-4" cx="1981.15" cy="1215.76" r="180.73"/><circle class="cls-5" cx="1981.15" cy="1215.76" r="66.85"/><rect class="cls-6" y="818.12" width="1630.25" height="47.95"/><rect class="cls-7" y="881.05" width="41.95" height="89.9"/><path class="cls-7" d="M2551.53,1095.7h-45v94.4h43.68C2552.26,1157.85,2552.61,1126.36,2551.53,1095.7Z" transform="translate(-189.29 -348)"/><rect class="cls-8" x="71.92" width="1552.33" height="818.12" rx="67.93" ry="67.93"/><rect class="cls-9" x="184.67" y="97.89" width="1334.26" height="621.33"/><rect class="cls-2" x="304.71" y="125.99" width="55.86" height="563.64"/><rect class="cls-2" x="433.57" y="125.93" width="55.86" height="563.64"/><rect class="cls-2" x="562.43" y="125.86" width="55.86" height="563.64"/><rect class="cls-2" x="691.3" y="125.8" width="55.86" height="563.64"/><rect class="cls-2" x="820.16" y="125.74" width="55.86" height="563.64"/><rect class="cls-2" x="949.02" y="125.68" width="55.86" height="563.64"/><rect class="cls-2" x="1077.88" y="125.61" width="55.86" height="563.64"/><rect class="cls-2" x="1206.74" y="125.55" width="55.86" height="563.64"/><rect class="cls-2" x="1335.6" y="125.49" width="55.86" height="563.64"/></svg>