<svg xmlns="http://www.w3.org/2000/svg" xmlns:xlink="http://www.w3.org/1999/xlink" viewBox="0 0 1570.53 1577.67"><defs><style>.cls-1{isolation:isolate;}.cls-2{fill:#8ec4cd;}.cls-3{fill:#64a2ad;}.cls-4{fill:#50929e;}.cls-5{fill:#a1d3e5;}.cls-6{fill:#00b4e9;}.cls-7{mix-blend-mode:overlay;}.cls-8{fill:url(#linear-gradient);}.cls-9{fill:#3b3b3b;}.cls-10{fill:url(#linear-gradient-2);}.cls-11{fill:url(#linear-gradient-3);}.cls-12{fill:#4d4d4d;}.cls-13{fill:#bfbfbf;}.cls-14{fill:#8c8c8c;}.cls-15{fill:url(#linear-gradient-4);}.cls-16{fill:url(#linear-gradient-5);}.cls-17{fill:url(#linear-gradient-6);}.cls-18{fill:#666;}.cls-19{fill:#b3b3b3;}.cls-20{fill:url(#linear-gradient-7);}.cls-21{fill:url(#linear-gradient-8);}.cls-22{fill:url(#linear-gradient-9);}.cls-23{fill:url(#linear-gradient-10);}.cls-24{fill:url(#linear-gradient-11);}.cls-25{fill:url(#linear-gradient-12);}.cls-26{fill:url(#linear-gradient-13);}.cls-27{fill:url(#linear-gradient-14);}.cls-28{fill:url(#linear-gradient-15);}.cls-29{fill:url(#linear-gradient-16);}.cls-30{fill:url(#linear-gradient-17);}.cls-31{fill:url(#linear-gradient-18);}.cls-32{fill:#a5a5a5;}.cls-33{fill:#fff;}.cls-34{fill:#ccc;}</style><linearGradient id="linear-gradient" x1="1261.49" y1="401.2" x2="1261.49" y2="1476.06" gradientTransform="matrix(-0.92, 0.54, 0.93, 0.54, 1065.91, -738.72)" gradientUnits="userSpaceOnUse"><stop offset="0" stop-color="gray"/><stop offset="0.49" stop-color="#656565"/><stop offset="1" stop-color="#4d4d4d"/></linearGradient><linearGradient id="linear-gradient-2" x1="1478.5" y1="373.07" x2="1478.5" y2="1509.83" gradientTransform="matrix(-0.92, 0.54, 0.93, 0.54, 1065.91, -738.72)" gradientUnits="userSpaceOnUse"><stop offset="0" stop-color="gray"/><stop offset="0.07" stop-color="#7e7e7e"/><stop offset="1" stop-color="#666"/></linearGradient><linearGradient id="linear-gradient-3" x1="1044.47" y1="372.3" x2="1044.47" y2="1514.41" xlink:href="#linear-gradient-2"/><linearGradient id="linear-gradient-4" x1="901.29" y1="613.22" x2="901.29" y2="663.95" gradientTransform="matrix(-0.93, 0.53, 0, -1.08, 2218.85, 1112.86)" gradientUnits="userSpaceOnUse"><stop offset="0" stop-color="#333"/><stop offset="0.33" stop-color="#414141"/><stop offset="1" stop-color="#595959"/></linearGradient><linearGradient id="linear-gradient-5" x1="1429.85" y1="2456.1" x2="1429.85" y2="2551.58" gradientTransform="matrix(-0.92, 0.54, -0.93, -0.54, 4662.89, 1336.29)" gradientUnits="userSpaceOnUse"><stop offset="0" stop-color="#a6a6a6"/><stop offset="0.34" stop-color="#989898"/><stop offset="1" stop-color="gray"/></linearGradient><linearGradient id="linear-gradient-6" x1="1093.13" y1="2455.41" x2="1093.13" y2="2550.88" xlink:href="#linear-gradient-5"/><linearGradient id="linear-gradient-7" x1="1315.97" y1="1022.4" x2="1315.97" y2="1073.13" xlink:href="#linear-gradient-4"/><linearGradient id="linear-gradient-8" x1="1429.85" y1="2869.04" x2="1429.85" y2="2964.52" xlink:href="#linear-gradient-5"/><linearGradient id="linear-gradient-9" x1="1093.13" y1="2868.35" x2="1093.13" y2="2963.82" xlink:href="#linear-gradient-5"/><linearGradient id="linear-gradient-10" x1="1441.5" y1="1146.27" x2="1441.5" y2="1197" xlink:href="#linear-gradient-4"/><linearGradient id="linear-gradient-11" x1="1429.85" y1="2994.05" x2="1429.85" y2="3089.52" xlink:href="#linear-gradient-5"/><linearGradient id="linear-gradient-12" x1="1093.13" y1="2993.36" x2="1093.13" y2="3088.83" xlink:href="#linear-gradient-5"/><linearGradient id="linear-gradient-13" x1="1190.43" y1="898.53" x2="1190.43" y2="949.26" xlink:href="#linear-gradient-4"/><linearGradient id="linear-gradient-14" x1="1429.85" y1="2744.03" x2="1429.85" y2="2839.51" xlink:href="#linear-gradient-5"/><linearGradient id="linear-gradient-15" x1="1093.13" y1="2743.34" x2="1093.13" y2="2838.81" xlink:href="#linear-gradient-5"/><linearGradient id="linear-gradient-16" x1="1730.64" y1="1427.15" x2="1730.64" y2="1486.74" xlink:href="#linear-gradient-4"/><linearGradient id="linear-gradient-17" x1="1429.85" y1="3281.98" x2="1429.85" y2="3377.46" xlink:href="#linear-gradient-5"/><linearGradient id="linear-gradient-18" x1="1093.13" y1="3281.29" x2="1093.13" y2="3376.76" xlink:href="#linear-gradient-5"/></defs><title>xiang01</title><g class="cls-1"><g id="图层_1" data-name="图层 1"><polygon class="cls-2" points="1106.27 906.75 1570.53 638.71 1570.53 1309.63 1106.27 1577.67 1106.27 906.75"/><polygon class="cls-3" points="0 268.04 1106.27 906.75 1106.27 1577.67 0 938.97 0 268.04"/><polygon class="cls-4" points="31.11 326.25 1075.16 929.03 1075.16 1502.32 31.11 899.54 31.11 326.25"/><polygon class="cls-5" points="464.26 0 0 268.04 1106.27 906.75 1570.53 638.71 464.26 0"/><polygon class="cls-3" points="1341.3 819.29 1342.12 1419.3 1529.69 1310.47 1528.88 710.46 1341.3 819.29"/><polygon class="cls-4" points="1536.31 1308.22 1523.87 1300.99 1344.11 1405.32 1356.55 1412.54 1536.31 1308.22"/><polygon class="cls-4" points="1535.52 717.21 1523.08 709.98 1523.87 1300.99 1536.31 1308.22 1535.52 717.21"/><polygon class="cls-6" points="1347.9 817.07 1335.47 809.84 1336.31 1418.81 1348.74 1426.04 1347.9 817.07"/><polygon class="cls-4" points="1543.31 703.72 1530.87 696.49 1335.47 809.84 1347.9 817.07 1543.31 703.72"/><path class="cls-2" d="M1758,931.61,1562.64,1045l.84,609,195.4-113.35Zm-186.76,708.82-.79-591L1750.25,945.1l.79,591-179.76,104.32" transform="translate(-214.74 -227.89)"/><polygon class="cls-3" points="1145.83 932.7 1146.64 1532.71 1334.21 1423.88 1333.4 823.87 1145.83 932.7"/><polygon class="cls-4" points="1340.83 1421.64 1328.39 1414.41 1148.63 1518.73 1161.07 1525.96 1340.83 1421.64"/><polygon class="cls-4" points="1340.04 830.62 1327.6 823.4 1328.39 1414.41 1340.83 1421.64 1340.04 830.62"/><polygon class="cls-4" points="1152.42 930.48 1139.99 923.26 1140.83 1532.23 1153.26 1539.45 1152.42 930.48"/><polygon class="cls-4" points="1347.83 817.13 1335.39 809.9 1139.99 923.26 1152.42 930.48 1347.83 817.13"/><path class="cls-2" d="M1562.56,1045l-195.4,113.36.84,609L1563.4,1654ZM1375.8,1753.85l-.79-591,179.76-104.32.79,591L1375.8,1753.85" transform="translate(-214.74 -227.89)"/><g class="cls-7"><polygon class="cls-8" points="1098.95 849.46 1471.47 631.01 464.85 50.31 92.32 268.76 1098.95 849.46"/><path class="cls-9" d="M1313.62,1072.1l363.57-213.19L679.65,283.46,316.08,496.64ZM307.06,496.65,679.58,278.2,1686.21,858.9l-372.52,218.45L307.06,496.65Z" transform="translate(-214.74 -227.89)"/><polygon class="cls-10" points="92.32 268.76 1098.95 849.46 1103.87 884.26 38.57 269.72 92.32 268.76"/><polygon class="cls-11" points="1471.47 631.01 464.85 50.31 465.96 18.98 1531.26 633.53 1471.47 631.01"/><polygon class="cls-12" points="1098.95 849.46 1471.47 631.01 1531.26 633.53 1103.87 884.26 1098.95 849.46"/><polygon class="cls-13" points="464.85 50.31 92.32 268.76 38.57 269.72 465.96 18.98 464.85 50.31"/><polygon class="cls-14" points="989.03 740.84 1283.97 568.05 1345.08 603.3 1050.14 776.09 989.03 740.84"/><path class="cls-15" d="M1550.79,831.2l-52-30-286,167.52,52,30ZM1264.88,1004l-61.11-35.26L1498.7,795.94l61.11,35.25L1264.88,1004Z" transform="translate(-214.74 -227.89)"/><polygon class="cls-16" points="1050.14 776.09 989.03 740.84 959.36 741.79 1048.84 793.4 1050.14 776.09"/><polygon class="cls-17" points="1283.97 568.05 1345.08 603.3 1374.78 602.37 1285.3 550.75 1283.97 568.05"/><polygon class="cls-18" points="989.03 740.84 1283.97 568.05 1285.3 550.75 959.36 741.79 989.03 740.84"/><polygon class="cls-19" points="1345.08 603.3 1050.14 776.09 1048.84 793.4 1374.78 602.37 1345.08 603.3"/><polygon class="cls-14" points="603.86 518.64 898.8 345.85 959.91 381.11 664.97 553.9 603.86 518.64"/><path class="cls-20" d="M1165.62,609l-52-30-286,167.53,52,30ZM879.71,781.79,818.6,746.54l294.93-172.79L1174.64,609,879.71,781.79Z" transform="translate(-214.74 -227.89)"/><polygon class="cls-21" points="664.97 553.9 603.86 518.64 574.2 519.6 663.67 571.21 664.97 553.9"/><polygon class="cls-22" points="898.8 345.85 959.91 381.11 989.61 380.17 900.13 328.56 898.8 345.85"/><polygon class="cls-18" points="603.86 518.64 898.8 345.85 900.13 328.56 574.2 519.6 603.86 518.64"/><polygon class="cls-19" points="959.91 381.11 664.97 553.9 663.67 571.21 989.61 380.17 959.91 381.11"/><polygon class="cls-14" points="487.26 451.38 782.2 278.59 843.31 313.84 548.37 486.63 487.26 451.38"/><path class="cls-23" d="M1049,541.75l-52-30L711,679.26l52,30ZM763.1,714.53,702,679.27,996.93,506.48,1058,541.73,763.1,714.53Z" transform="translate(-214.74 -227.89)"/><polygon class="cls-24" points="548.37 486.63 487.26 451.38 457.59 452.33 547.06 503.94 548.37 486.63"/><polygon class="cls-25" points="782.2 278.59 843.31 313.84 873 312.91 783.53 261.29 782.2 278.59"/><polygon class="cls-18" points="487.26 451.38 782.2 278.59 783.53 261.29 457.59 452.33 487.26 451.38"/><polygon class="cls-19" points="843.31 313.84 548.37 486.63 547.06 503.94 873 312.91 843.31 313.84"/><polygon class="cls-14" points="720.46 585.91 1015.4 413.12 1076.51 448.37 781.57 621.16 720.46 585.91"/><path class="cls-26" d="M1282.23,676.27l-52-30-286,167.53,52,30ZM996.31,849.06,935.2,813.8,1230.13,641l61.11,35.25L996.31,849.06Z" transform="translate(-214.74 -227.89)"/><polygon class="cls-27" points="781.57 621.16 720.46 585.91 690.8 586.86 780.27 638.47 781.57 621.16"/><polygon class="cls-28" points="1015.4 413.12 1076.51 448.37 1106.21 447.44 1016.74 395.82 1015.4 413.12"/><polygon class="cls-18" points="720.46 585.91 1015.4 413.12 1016.74 395.82 690.8 586.86 720.46 585.91"/><polygon class="cls-19" points="1076.51 448.37 781.57 621.16 780.27 638.47 1106.21 447.44 1076.51 448.37"/><polygon class="cls-14" points="218.69 296.45 513.63 123.66 574.73 158.91 279.8 331.7 218.69 296.45"/><path class="cls-29" d="M780.45,386.81l-52-30-286,167.53,52,30ZM494.54,559.6l-61.11-35.26L728.36,351.55l61.11,35.25L494.54,559.6Z" transform="translate(-214.74 -227.89)"/><polygon class="cls-30" points="279.8 331.7 218.69 296.45 189.02 297.4 278.5 349.01 279.8 331.7"/><polygon class="cls-31" points="513.63 123.66 574.73 158.91 604.43 157.98 514.96 106.36 513.63 123.66"/><polygon class="cls-18" points="218.69 296.45 513.63 123.66 514.96 106.36 189.02 297.4 218.69 296.45"/><polygon class="cls-19" points="574.73 158.91 279.8 331.7 278.5 349.01 604.43 157.98 574.73 158.91"/></g><g class="cls-1"><polygon class="cls-32" points="1317.49 1165.52 1312.17 1162.43 1312.14 1151.63 1317.46 1154.71 1317.49 1165.52"/><polygon class="cls-33" points="1317.46 1154.71 1312.14 1151.63 1370.73 1117.8 1376.05 1120.89 1317.46 1154.71"/><polygon class="cls-34" points="1376.05 1120.89 1376.08 1131.69 1317.49 1165.52 1317.46 1154.71 1376.05 1120.89"/></g><polygon class="cls-34" points="1201.4 931.37 1201.5 950.38 1209.87 945.43 1209.76 926.42 1201.4 931.37"/><polygon class="cls-33" points="1191.14 931.46 1191.24 950.47 1196.42 953.39 1196.31 934.38 1191.14 931.46"/><polygon class="cls-33" points="1196.31 934.38 1196.42 953.39 1199.74 955.27 1199.63 936.27 1196.31 934.38"/><polygon class="cls-34" points="1206.39 938.25 1206.5 957.26 1210 955.19 1209.89 936.18 1206.39 938.25"/><polygon class="cls-34" points="1204.8 939.19 1204.91 958.2 1206.5 957.26 1206.39 938.25 1204.8 939.19"/><polygon class="cls-34" points="1195.42 944.75 1195.53 963.76 1204.91 958.2 1204.8 939.19 1195.42 944.75"/><polygon class="cls-34" points="1192.94 946.22 1193.05 965.23 1195.53 963.76 1195.42 944.75 1192.94 946.22"/><polygon class="cls-33" points="1181.84 942.96 1181.95 961.96 1190.44 966.77 1190.33 947.76 1181.84 942.96"/><polygon class="cls-34" points="1190.33 947.76 1190.44 966.77 1193.05 965.23 1192.94 946.22 1190.33 947.76"/><polygon class="cls-34" points="1173.48 947.91 1173.59 966.91 1181.95 961.96 1181.84 942.96 1173.48 947.91"/><polygon class="cls-32" points="1173.48 947.91 1181.84 942.96 1190.33 947.76 1192.94 946.22 1195.42 944.75 1204.8 939.19 1206.39 938.25 1209.89 936.18 1201.4 931.37 1209.76 926.42 1204.59 923.49 1196.23 928.44 1191.14 931.46 1196.31 934.38 1199.63 936.27 1190.25 941.82 1186.93 939.94 1181.76 937.01 1176.67 940.03 1168.31 944.98 1173.48 947.91"/><polygon class="cls-33" points="1168.31 944.98 1168.41 963.99 1173.59 966.91 1173.48 947.91 1168.31 944.98"/><polygon class="cls-34" points="1201.4 1460.14 1201.5 1479.15 1209.87 1474.2 1209.76 1455.19 1201.4 1460.14"/><polygon class="cls-33" points="1191.14 1460.23 1191.24 1479.24 1196.42 1482.16 1196.31 1463.16 1191.14 1460.23"/><polygon class="cls-33" points="1196.31 1463.16 1196.42 1482.16 1199.74 1484.05 1199.63 1465.04 1196.31 1463.16"/><polygon class="cls-34" points="1206.39 1467.02 1206.5 1486.03 1210 1483.96 1209.89 1464.95 1206.39 1467.02"/><polygon class="cls-34" points="1204.8 1467.97 1204.91 1486.97 1206.5 1486.03 1206.39 1467.02 1204.8 1467.97"/><polygon class="cls-34" points="1195.42 1473.52 1195.53 1492.53 1204.91 1486.97 1204.8 1467.97 1195.42 1473.52"/><polygon class="cls-34" points="1192.94 1474.99 1193.05 1494 1195.53 1492.53 1195.42 1473.52 1192.94 1474.99"/><polygon class="cls-33" points="1181.84 1471.73 1181.95 1490.73 1190.44 1495.54 1190.33 1476.54 1181.84 1471.73"/><polygon class="cls-34" points="1190.33 1476.54 1190.44 1495.54 1193.05 1494 1192.94 1474.99 1190.33 1476.54"/><polygon class="cls-34" points="1173.48 1476.68 1173.59 1495.69 1181.95 1490.73 1181.84 1471.73 1173.48 1476.68"/><polygon class="cls-32" points="1173.48 1476.68 1181.84 1471.73 1190.33 1476.54 1192.94 1474.99 1195.42 1473.52 1204.8 1467.97 1206.39 1467.02 1209.89 1464.95 1201.4 1460.14 1209.76 1455.19 1204.59 1452.26 1196.23 1457.21 1191.14 1460.23 1196.31 1463.16 1199.63 1465.04 1190.25 1470.59 1186.93 1468.71 1181.76 1465.78 1176.67 1468.8 1168.31 1473.75 1173.48 1476.68"/><polygon class="cls-33" points="1168.31 1473.75 1168.41 1492.76 1173.59 1495.69 1173.48 1476.68 1168.31 1473.75"/><polygon class="cls-34" points="1518.09 746.3 1518.19 765.31 1526.55 760.36 1526.45 741.35 1518.09 746.3"/><polygon class="cls-33" points="1507.83 746.38 1507.93 765.39 1513.1 768.32 1513 749.31 1507.83 746.38"/><polygon class="cls-33" points="1513 749.31 1513.1 768.32 1516.42 770.2 1516.32 751.19 1513 749.31"/><polygon class="cls-34" points="1523.08 753.18 1523.18 772.19 1526.68 770.12 1526.58 751.11 1523.08 753.18"/><polygon class="cls-34" points="1521.49 754.12 1521.6 773.13 1523.18 772.19 1523.08 753.18 1521.49 754.12"/><polygon class="cls-34" points="1512.11 759.68 1512.21 778.69 1521.6 773.13 1521.49 754.12 1512.11 759.68"/><polygon class="cls-34" points="1509.63 761.15 1509.74 780.15 1512.21 778.69 1512.11 759.68 1509.63 761.15"/><polygon class="cls-33" points="1498.53 757.88 1498.63 776.89 1507.13 781.7 1507.02 762.69 1498.53 757.88"/><polygon class="cls-34" points="1507.02 762.69 1507.13 781.7 1509.74 780.15 1509.63 761.15 1507.02 762.69"/><polygon class="cls-34" points="1490.17 762.84 1490.27 781.84 1498.63 776.89 1498.53 757.88 1490.17 762.84"/><polygon class="cls-32" points="1490.17 762.84 1498.53 757.88 1507.02 762.69 1509.63 761.15 1512.11 759.68 1521.49 754.12 1523.08 753.18 1526.58 751.11 1518.09 746.3 1526.45 741.35 1521.28 738.42 1512.92 743.37 1507.83 746.38 1513 749.31 1516.32 751.19 1506.94 756.75 1503.62 754.87 1498.45 751.94 1493.36 754.96 1485 759.91 1490.17 762.84"/><polygon class="cls-33" points="1485 759.91 1485.1 778.91 1490.27 781.84 1490.17 762.84 1485 759.91"/><polygon class="cls-34" points="1518.09 1275.07 1518.19 1294.08 1526.55 1289.13 1526.45 1270.12 1518.09 1275.07"/><polygon class="cls-33" points="1507.83 1275.16 1507.93 1294.16 1513.1 1297.09 1513 1278.09 1507.83 1275.16"/><polygon class="cls-33" points="1513 1278.09 1513.1 1297.09 1516.42 1298.97 1516.32 1279.97 1513 1278.09"/><polygon class="cls-34" points="1523.08 1281.95 1523.18 1300.96 1526.68 1298.89 1526.58 1279.88 1523.08 1281.95"/><polygon class="cls-34" points="1521.49 1282.89 1521.6 1301.9 1523.18 1300.96 1523.08 1281.95 1521.49 1282.89"/><polygon class="cls-34" points="1512.11 1288.45 1512.21 1307.46 1521.6 1301.9 1521.49 1282.89 1512.11 1288.45"/><polygon class="cls-34" points="1509.63 1289.92 1509.74 1308.93 1512.21 1307.46 1512.11 1288.45 1509.63 1289.92"/><polygon class="cls-33" points="1498.53 1286.65 1498.63 1305.66 1507.13 1310.47 1507.02 1291.46 1498.53 1286.65"/><polygon class="cls-34" points="1507.02 1291.46 1507.13 1310.47 1509.74 1308.93 1509.63 1289.92 1507.02 1291.46"/><polygon class="cls-34" points="1490.17 1291.61 1490.27 1310.62 1498.63 1305.66 1498.53 1286.65 1490.17 1291.61"/><polygon class="cls-32" points="1490.17 1291.61 1498.53 1286.65 1507.02 1291.46 1509.63 1289.92 1512.11 1288.45 1521.49 1282.89 1523.08 1281.95 1526.58 1279.88 1518.09 1275.07 1526.45 1270.12 1521.28 1267.19 1512.92 1272.14 1507.83 1275.16 1513 1278.09 1516.32 1279.97 1506.94 1285.52 1503.62 1283.64 1498.45 1280.71 1493.36 1283.73 1485 1288.68 1490.17 1291.61"/><polygon class="cls-33" points="1485 1288.68 1485.1 1307.69 1490.27 1310.62 1490.17 1291.61 1485 1288.68"/></g></g></svg>