<?xml version="1.0" encoding="utf-8"?>
<!-- Generator: Adobe Illustrator 16.0.0, SVG Export Plug-In . SVG Version: 6.00 Build 0)  -->
<!DOCTYPE svg PUBLIC "-//W3C//DTD SVG 1.1//EN" "http://www.w3.org/Graphics/SVG/1.1/DTD/svg11.dtd">
<svg preserveAspectRatio="none"   version="1.1" id="图层_1" xmlns="http://www.w3.org/2000/svg" xmlns:xlink="http://www.w3.org/1999/xlink" x="0px" y="0px"
	 width="453.882px" height="565.803px" viewBox="55.891 1.04 453.882 565.803" enable-background="new 55.891 1.04 453.882 565.803"
	 xml:space="preserve">
<g id="surface174">
	
		<linearGradient id="SVGID_1_" gradientUnits="userSpaceOnUse" x1="579.2231" y1="-122.6963" x2="202.2236" y2="-122.6963" gradientTransform="matrix(0.75 0 0 -0.75 -10.1329 231.8204)">
		<stop  offset="0" style="stop-color:#BDA47F"/>
		<stop  offset="0.15" style="stop-color:#FFE0B3"/>
		<stop  offset="0.25" style="stop-color:#FFEED7"/>
		<stop  offset="0.52" style="stop-color:#DFC297"/>
		<stop  offset="0.69" style="stop-color:#C7AD86"/>
		<stop  offset="0.8" style="stop-color:#BCA37E"/>
		<stop  offset="0.92" style="stop-color:#B19A77"/>
		<stop  offset="1" style="stop-color:#CBB189"/>
	</linearGradient>
	<path fill="url(#SVGID_1_)" d="M141.535,80.844h282.75v486h-282.75V80.844z"/>
	
		<linearGradient id="SVGID_2_" gradientUnits="userSpaceOnUse" x1="579.3169" y1="148.1206" x2="202.2236" y2="148.1206" gradientTransform="matrix(0.75 0 0 -0.75 -10.1329 152.0333)">
		<stop  offset="0" style="stop-color:#BDA47F"/>
		<stop  offset="0.15" style="stop-color:#FFE0B3"/>
		<stop  offset="0.25" style="stop-color:#FFEED7"/>
		<stop  offset="0.52" style="stop-color:#DFC297"/>
		<stop  offset="0.69" style="stop-color:#C7AD86"/>
		<stop  offset="0.8" style="stop-color:#BCA37E"/>
		<stop  offset="0.92" style="stop-color:#B19A77"/>
		<stop  offset="1" style="stop-color:#CBB189"/>
	</linearGradient>
	<path fill="url(#SVGID_2_)" d="M179.785,26.555c31.5-18,65.875-25.906,103.16-25.5c40.839,0.75,82.406,10.695,108.96,29.699
		c24.879,17.551,32.449,50.094,32.449,50.094l-282.82-0.293c0,0,1.098-32.953,38.367-54.012L179.785,26.555z"/>
	
		<linearGradient id="SVGID_3_" gradientUnits="userSpaceOnUse" x1="579.2231" y1="196.3062" x2="202.2236" y2="196.3061" gradientTransform="matrix(0.75 0 0 -0.75 -10.1329 228.4982)">
		<stop  offset="0" style="stop-color:#BD9157"/>
		<stop  offset="0.15" style="stop-color:#FFC986"/>
		<stop  offset="0.25" style="stop-color:#FFE2C4"/>
		<stop  offset="0.52" style="stop-color:#DFAC68"/>
		<stop  offset="0.69" style="stop-color:#C7995C"/>
		<stop  offset="0.8" style="stop-color:#BC9056"/>
		<stop  offset="0.92" style="stop-color:#B18851"/>
		<stop  offset="1" style="stop-color:#CB9D5E"/>
	</linearGradient>
	<path fill="url(#SVGID_3_)" d="M141.535,77.52h282.75v7.5h-282.75V77.52z"/>
	<path fill="#B79055" d="M164.68,136.422h236.25v348.75H164.68V136.422z"/>
	
		<linearGradient id="SVGID_4_" gradientUnits="userSpaceOnUse" x1="274.7236" y1="201.3047" x2="274.7236" y2="127.3037" gradientTransform="matrix(0.75 0 0 -0.75 249.3553 536.6573)">
		<stop  offset="0" style="stop-color:#BDA47F"/>
		<stop  offset="0.15" style="stop-color:#FFE0B3"/>
		<stop  offset="0.25" style="stop-color:#FFEED7"/>
		<stop  offset="0.52" style="stop-color:#DFC297"/>
		<stop  offset="0.69" style="stop-color:#C7AD86"/>
		<stop  offset="0.8" style="stop-color:#BCA37E"/>
		<stop  offset="0.92" style="stop-color:#B19A77"/>
		<stop  offset="1" style="stop-color:#CBB189"/>
	</linearGradient>
	<path fill="url(#SVGID_4_)" d="M401.023,385.679h108.75v55.5h-108.75V385.679z"/>
	
		<linearGradient id="SVGID_5_" gradientUnits="userSpaceOnUse" x1="274.7266" y1="201.3037" x2="274.7266" y2="127.3037" gradientTransform="matrix(0.75 0 0 -0.75 -95.7789 624.5323)">
		<stop  offset="0" style="stop-color:#BD9157"/>
		<stop  offset="0.15" style="stop-color:#FFC986"/>
		<stop  offset="0.25" style="stop-color:#FFE2C4"/>
		<stop  offset="0.52" style="stop-color:#DFAC68"/>
		<stop  offset="0.69" style="stop-color:#C7995C"/>
		<stop  offset="0.8" style="stop-color:#BC9056"/>
		<stop  offset="0.92" style="stop-color:#B18851"/>
		<stop  offset="1" style="stop-color:#CB9D5E"/>
	</linearGradient>
	<path fill="url(#SVGID_5_)" d="M55.891,473.554h108.75v55.5H55.891V473.554z"/>
	
		<linearGradient id="SVGID_6_" gradientUnits="userSpaceOnUse" x1="376.6235" y1="332.2241" x2="376.6235" y2="402.2241" gradientTransform="matrix(0 0.75 0.75 0 -68.7028 -124.0616)">
		<stop  offset="0" style="stop-color:#BEBBAC"/>
		<stop  offset="0.22" style="stop-color:#D5D3C2"/>
		<stop  offset="0.57" style="stop-color:#F0EFE6"/>
		<stop  offset="0.84" style="stop-color:#E9E7D9"/>
		<stop  offset="1" style="stop-color:#CECBBA"/>
	</linearGradient>
	<path fill="url(#SVGID_6_)" d="M180.465,165.906c0,0,1.391-15,26.371-15c24.629,0,26.129,14.93,26.129,14.93l-12.75,0.07
		c0,0-0.773-6.324-13.617-6.324c-12.633,0.324-13.441,6.254-13.441,6.254L180.465,165.906z"/>
	
		<linearGradient id="SVGID_7_" gradientUnits="userSpaceOnUse" x1="377.1968" y1="336.1509" x2="377.1968" y2="402.2271" gradientTransform="matrix(0 0.75 0.75 0 7.2372 -124.0616)">
		<stop  offset="0" style="stop-color:#BEBBAC"/>
		<stop  offset="0.22" style="stop-color:#D5D3C2"/>
		<stop  offset="0.57" style="stop-color:#F0EFE6"/>
		<stop  offset="0.84" style="stop-color:#E9E7D9"/>
		<stop  offset="1" style="stop-color:#CECBBA"/>
	</linearGradient>
	<path fill="url(#SVGID_7_)" d="M259.406,165.906c0,0-2.375-15,23.797-15c26.453,0,25.703,15.859,25.703,15.859l-12.75-0.859
		c0,0,0.363-5.574-12.484-5.574c-13.016,0.324-12.012,5.504-12.012,5.504L259.406,165.906z"/>
	
		<linearGradient id="SVGID_8_" gradientUnits="userSpaceOnUse" x1="377.106" y1="334.2241" x2="377.106" y2="402.2241" gradientTransform="matrix(0 0.75 0.75 0 84.4052 -124.0616)">
		<stop  offset="0" style="stop-color:#BEBBAC"/>
		<stop  offset="0.22" style="stop-color:#D5D3C2"/>
		<stop  offset="0.57" style="stop-color:#F0EFE6"/>
		<stop  offset="0.84" style="stop-color:#E9E7D9"/>
		<stop  offset="1" style="stop-color:#CECBBA"/>
	</linearGradient>
	<path fill="url(#SVGID_8_)" d="M335.074,165.906c0,0,0.938-15,25.68-15c24.57-0.75,25.32,14.93,25.32,14.93l-12.75,0.82
		c0,0-0.199-6.324-13.047-6.699c-13.203-0.051-12.727,5.879-12.727,5.879L335.074,165.906z"/>
	
		<linearGradient id="SVGID_9_" gradientUnits="userSpaceOnUse" x1="376.8101" y1="333.978" x2="376.8101" y2="402.2358" gradientTransform="matrix(0 0.75 0.75 0 -30.0065 163.7831)">
		<stop  offset="0" style="stop-color:#BEBBAC"/>
		<stop  offset="0.22" style="stop-color:#D5D3C2"/>
		<stop  offset="0.57" style="stop-color:#F0EFE6"/>
		<stop  offset="0.84" style="stop-color:#E9E7D9"/>
		<stop  offset="1" style="stop-color:#CECBBA"/>
	</linearGradient>
	<path fill="url(#SVGID_9_)" d="M232.664,438.753c0,0,1.531,5.566,13.406,5.566c12.094-0.316,13.102-5.598,13.102-5.598
		l12.492,0.031c0,0,1.07,15.305-25.102,15.305c-25.898-0.305-26.086-15.336-26.086-15.336L232.664,438.753z"/>
	
		<linearGradient id="SVGID_10_" gradientUnits="userSpaceOnUse" x1="376.8101" y1="334.1274" x2="376.8101" y2="402.2261" gradientTransform="matrix(0 0.75 0.75 0 45.8221 163.7831)">
		<stop  offset="0" style="stop-color:#BEBBAC"/>
		<stop  offset="0.22" style="stop-color:#D5D3C2"/>
		<stop  offset="0.57" style="stop-color:#F0EFE6"/>
		<stop  offset="0.84" style="stop-color:#E9E7D9"/>
		<stop  offset="1" style="stop-color:#CECBBA"/>
	</linearGradient>
	<path fill="url(#SVGID_10_)" d="M309.242,438.753c0,0,0.125,5.941,12.496,5.941c12.254,0.059,13.32-5.973,13.32-5.973l12.434,0.031
		c0,0,0,15.305-25.258,15.305c-24.992-0.305-25.816-15.336-25.816-15.336L309.242,438.753z"/>
	
		<linearGradient id="SVGID_11_" gradientUnits="userSpaceOnUse" x1="566.1265" y1="386.2261" x2="566.1265" y2="402.2261" gradientTransform="matrix(0 0.75 0.75 0 -109.1066 -109.9742)">
		<stop  offset="0" style="stop-color:#BEBBAC"/>
		<stop  offset="0.22" style="stop-color:#D5D3C2"/>
		<stop  offset="0.57" style="stop-color:#F0EFE6"/>
		<stop  offset="0.84" style="stop-color:#E9E7D9"/>
		<stop  offset="1" style="stop-color:#CECBBA"/>
	</linearGradient>
	<path fill="url(#SVGID_11_)" d="M180.563,464.246v-299.25h12v299.25H180.563z"/>
	
		<linearGradient id="SVGID_12_" gradientUnits="userSpaceOnUse" x1="549.1265" y1="386.2271" x2="549.1265" y2="402.2271" gradientTransform="matrix(0 0.75 0.75 0 -69.0216 -109.9742)">
		<stop  offset="0" style="stop-color:#BEBBAC"/>
		<stop  offset="0.22" style="stop-color:#D5D3C2"/>
		<stop  offset="0.57" style="stop-color:#F0EFE6"/>
		<stop  offset="0.84" style="stop-color:#E9E7D9"/>
		<stop  offset="1" style="stop-color:#CECBBA"/>
	</linearGradient>
	<path fill="url(#SVGID_12_)" d="M220.648,438.746v-273.75h12v273.75H220.648z"/>
	
		<linearGradient id="SVGID_13_" gradientUnits="userSpaceOnUse" x1="549.1265" y1="386.228" x2="549.1265" y2="402.228" gradientTransform="matrix(0 0.75 0.75 0 -30.4791 -109.9742)">
		<stop  offset="0" style="stop-color:#BEBBAC"/>
		<stop  offset="0.22" style="stop-color:#D5D3C2"/>
		<stop  offset="0.57" style="stop-color:#F0EFE6"/>
		<stop  offset="0.84" style="stop-color:#E9E7D9"/>
		<stop  offset="1" style="stop-color:#CECBBA"/>
	</linearGradient>
	<path fill="url(#SVGID_13_)" d="M259.191,438.746v-273.75h12v273.75H259.191z"/>
	
		<linearGradient id="SVGID_14_" gradientUnits="userSpaceOnUse" x1="549.6235" y1="385.2231" x2="549.6235" y2="402.2231" gradientTransform="matrix(0 0.75 0.75 0 6.6288 -109.9757)">
		<stop  offset="0" style="stop-color:#BEBBAC"/>
		<stop  offset="0.22" style="stop-color:#D5D3C2"/>
		<stop  offset="0.57" style="stop-color:#F0EFE6"/>
		<stop  offset="0.84" style="stop-color:#E9E7D9"/>
		<stop  offset="1" style="stop-color:#CECBBA"/>
	</linearGradient>
	<path fill="url(#SVGID_14_)" d="M295.546,439.492v-274.5h12.75v274.5H295.546z"/>
	
		<linearGradient id="SVGID_15_" gradientUnits="userSpaceOnUse" x1="548.6265" y1="387.2241" x2="548.6265" y2="402.2241" gradientTransform="matrix(0 0.75 0.75 0 45.1678 -109.9738)">
		<stop  offset="0" style="stop-color:#BEBBAC"/>
		<stop  offset="0.22" style="stop-color:#D5D3C2"/>
		<stop  offset="0.57" style="stop-color:#F0EFE6"/>
		<stop  offset="0.84" style="stop-color:#E9E7D9"/>
		<stop  offset="1" style="stop-color:#CECBBA"/>
	</linearGradient>
	<path fill="url(#SVGID_15_)" d="M335.585,437.996v-273h11.25v273H335.585z"/>
	
		<linearGradient id="SVGID_16_" gradientUnits="userSpaceOnUse" x1="566.1265" y1="387.2241" x2="566.1265" y2="402.2241" gradientTransform="matrix(0 0.75 0.75 0 83.7069 -109.9777)">
		<stop  offset="0" style="stop-color:#BEBBAC"/>
		<stop  offset="0.22" style="stop-color:#D5D3C2"/>
		<stop  offset="0.57" style="stop-color:#F0EFE6"/>
		<stop  offset="0.84" style="stop-color:#E9E7D9"/>
		<stop  offset="1" style="stop-color:#CECBBA"/>
	</linearGradient>
	<path fill="url(#SVGID_16_)" d="M374.125,464.242v-299.25h11.25v299.25H374.125z"/>
	
		<linearGradient id="SVGID_17_" gradientUnits="userSpaceOnUse" x1="359.7241" y1="186.3027" x2="359.7241" y2="201.3027" gradientTransform="matrix(0.75 0 0 -0.75 13.2382 612.8986)">
		<stop  offset="0" style="stop-color:#BEBBAC"/>
		<stop  offset="0.22" style="stop-color:#D5D3C2"/>
		<stop  offset="0.57" style="stop-color:#F0EFE6"/>
		<stop  offset="0.84" style="stop-color:#E9E7D9"/>
		<stop  offset="1" style="stop-color:#CECBBA"/>
	</linearGradient>
	<path fill="url(#SVGID_17_)" d="M164.906,461.921h236.25v11.25h-236.25V461.921z"/>
	<path fill="#C78340" d="M164.68,473.554h236.25v68.25H164.68V473.554z"/>
</g>
</svg>
