<?xml version="1.0" encoding="utf-8"?>
<!-- Generator: Adobe Illustrator 22.0.2, SVG Export Plug-In . SVG Version: 6.00 Build 0)  -->
<svg version="1.1" id="图层_1" xmlns="http://www.w3.org/2000/svg" xmlns:xlink="http://www.w3.org/1999/xlink" x="0px" y="0px"
	 viewBox="0 0 550 550" style="enable-background:new 0 0 550 550;" xml:space="preserve">
<style type="text/css">
	.st0{fill:#D6CDC4;}
	.st1{fill:#E6E8E5;}
	.st2{fill:#9EA1A3;}
	.st3{opacity:0.7;fill:#EFF8F7;}
	.st4{opacity:0.3;fill:#F3EEED;}
	.st5{fill:#776568;}
	.st6{fill:#F0FAF7;}
	.st7{opacity:0.3;fill:#EFF8F7;}
</style>
<g>
	<g>
		<g>
			<path class="st0" d="M256.2,337.5c0.6,1.3,1.2,2.7,1.6,4.1c0.7-0.7,1.5-0.9,2.4-1c0,0,0.3-0.1,0.4-0.1c0.3-0.1,0.5-0.2,0.8-0.3
				c0.1-0.1,0.2-0.1,0.2-0.1c0.1-0.1,0.2-0.1,0.3-0.2c0.1-0.1,0.2-0.2,0.3-0.3c0,0,0.1-0.1,0.2-0.2c0.2-0.3,0.5-0.6,0.8-0.7
				c0.3-0.6,0.9-0.9,1.5-0.4c9.6,8.1,14.4,24.3,17.6,38.5c1.5,6.6,4,20.3,0.1,26.3c-9.5,14.7-29.4-54.3-29.1-64.1
				C253.4,336.8,255.3,335.6,256.2,337.5z"/>
			<path class="st0" d="M263.1,322.1c1.2,1.9,2.4,3.9,3.5,6c2.1,0.4,4.2,1.3,6.2,1.8c4,1.1,7.9,1.6,11.9,0.7
				c-0.8-1.5,0.3-3.7,1.6-2.8c7.2,4.5,13.4,13.7,18.7,21.5c5.6,8.3,10.5,17.7,14.4,27.7c2.7,7.1,12.7,32.4,2.2,28.7
				c-3.9-1.4-29.7-22.1-47.2-50.6c-4-6.5-7.2-14-10.2-21.4c-0.7-0.3-1.4-0.6-2.1-1c-1.5-0.8-1.2-3.5-0.1-4.5
				c-0.5-1.3-0.9-2.6-1.4-3.9C260.1,322.4,262.2,320.5,263.1,322.1z"/>
			<path class="st0" d="M168.4,339.1c0.6,0.7,1.1,1.4,1.7,2.1c0.3-0.1,0.5-0.1,0.9-0.1c7.1,1.3,14.1,3.8,21.4,4.9
				c6.5,1.1,14.1,4.5,20.1-0.7c1.6-1.4,3.1,1.1,2.5,3c5.2,9,17.9,38.9,0.7,36.2c-19.3-3.1-38.4-21.4-50.1-42
				C164.3,340.1,166.9,337.2,168.4,339.1z"/>
			<path class="st0" d="M180.4,181c10.9-22.1,29.4-31,48.7-35c45.7-9.4,89.5,15.3,89.5,21.4c0,7.9-13.4,14.4-33.3,19.8
				c-0.6,1.9-1.2,3.9-1.9,5.9c-0.3,1-1.2,1.9-2,1.8c-15.8-0.8-31.4-3.6-47.1-5.9c-8.8-1.3-17.7-2.2-26.5-2.5c-4-0.1-8-0.2-12.1-0.4
				c-2.7-0.1-5.6-1.7-8.3-0.7c-1.1,0.4-2,0-2.6-0.8c-0.4,0.5-0.8,0.9-1.2,1.4C181.5,188.6,178.8,184.2,180.4,181z"/>
			<path class="st0" d="M378.3,268.2c6.2-7.9,15.5-12.8,22.9-18.7c8.3-6.7,16.4-13.5,24.6-20.4c14.9-12.7,29.2-27,45.1-37.2
				c0.7-0.4,1.9,0.1,2.8,1.7c15,21.7,20.2,58.2,17.6,87c-1.7,19.1-6.2,39.5-12.8,56.4c-5.5,14-13.4,29.2-23.3,37.9
				c-0.9,0.8-2.3,0.8-3.2-0.3c-13.5-16.5-57.9-76.6-61.8-83.5c0,0,0,0,0,0c-1.8,1.2-3.4-2-2.6-4.1c1.6-4.4,3.3-7.4,3.9-12.4
				c0.4-2.8,0.5-5.8,0.6-8.7c-3.6,2.9-7.2,6.1-11.2,7.4C378.8,273.8,376.4,270.5,378.3,268.2z"/>
			<path class="st1" d="M394.8,278.6c3.3-3.1,6.7-6.2,10-9.3c4.7-4.4,9.9-8.7,15.1-11.7c11.8-6.7,24.6-13.2,37.7-11.8
				c9.4,1,5.9,11.5,0.9,17.6c-9.1,11.3-23.5,16.4-36.1,18c1.1,0.6,2.2,1.1,3.3,1.6c5.9,2.9,11.6,6.1,17,10.4
				c3.1,2.4,13.3,12.6,5.9,17.6c-6.8,4.6-13.9,0.8-20-3.9c-12.3-9.5-33.1-22.6-44.9-18.1C387.2,285.7,391,282.1,394.8,278.6z"/>
			<path class="st2" d="M140.8,175.6c8.6-3.8,23.7-13.3,48.4-15.8c49.6-5.1,156,53.8,169.6,62.4c14.1,8.8,28.9,16.6,42.3,27
				c0.3,0.1,0.9,0.4,1.3,0.9c10.7,15,9.6,43.9-2.2,57.6c-0.6,0.7-1.4,1.1-2.2,1.4c-10.2,5.8-96.1,42.4-202.7,49.5
				c-22.2,1.5-43.9-5.1-64.7-15.4c-2.3-1.1-0.7-8,1.4-8.8c21.1-8.6,28.1-39.1,27.7-66.6c-0.3-21.7-4.1-50.6-17.1-65.2
				c-8-2.6-16.2-1.2-24.2,1.1C115.6,204.4,137.7,177,140.8,175.6z"/>
			<path class="st3" d="M355.4,220.2c4.3,18.2,6.1,37.7,5.5,56.8c-0.5,16.8-2.8,33.5-6.2,49.7c-2.9,1-5.8,2-8.7,2.9
				c3.9-16.2,6.5-32.9,7.5-49.9c1.2-21.5-0.4-43.1-5-63.4C351.3,217.8,353.6,219.1,355.4,220.2z"/>
			<path class="st3" d="M283.8,339.3c4.3-23.4,7.2-47.4,7.7-71.6c0.6-28.8-2.3-57.9-10.1-84.5c3.9,1.7,7.8,3.4,11.6,5.1
				c0.3,1,0.6,2.1,0.9,3.1c6.1,23.4,8.6,48.5,8.8,73.2c0.2,25.5-2.1,51-6.1,76c-0.1,0.8-0.3,1.6-0.4,2.4c-4.6,1.1-9.2,2.1-13.8,3.1
				C282.9,343.9,283.4,341.7,283.8,339.3z"/>
			<path class="st3" d="M221.3,289.6c-1.5-44.9-9.4-89.4-23.2-130c3.5,0.1,7.3,0.4,11.2,1c0.3,0.9,0.7,1.8,1,2.7
				c9.6,26.2,16.1,54.6,20.1,83.3c5.1,35.9,5.8,72.8,3.1,109.1c-4.7,0.7-9.3,1.2-14,1.7C221.4,335,222,312.3,221.3,289.6z"/>
			<path class="st0" d="M115.9,187.8c20.6-13.6,26.5-12.6,27.1-12.2c9.2,6.2,24.7,34.2,27.7,76.2c2.2,31-4.5,69.8-21.7,98.6
				c-1.8,3-55-22.3-67-39.7c-3.1-4.4-7.6-15.1-6.2-21.7c0-1.2,0.6-2.8,1.7-2.7c28.8,4.6,43.9,4.9,49.6,2.4
				c-12-1.8-71.9-17.7-68.8-27.9C70.5,220.7,105.6,194.6,115.9,187.8z"/>
		</g>
	</g>
	<g>
		<path class="st4" d="M118.3,197c20-14,46-20.4,54,9c8,29.3-5,54-29.7,65c-14.7,6.5-54.4-3-61.4-16C74.8,243,96.8,212.2,118.3,197z
			"/>
		<path class="st5" d="M116,242.2c1.1-5.2,4.1-9.3,7.9-10.7c3.9-1.4,8.1,0.2,10.9,4.1c3,4.3,4.1,11.1,2.4,16.7
			c-0.7,3.3-2.8,6.3-4.9,7.9c-1.7,1.3-3.5,2-5.5,2c-2,0-3.8-0.7-5.5-2.1c-1-0.6-1.9-1.7-2.6-2.8C116.1,253.1,114.9,247.6,116,242.2z
			"/>
		<path class="st6" d="M124.3,237.1c0.9-1.2,2.1-1.9,3.4-1.9c1.8,0,3.1,1.4,4.1,3.3c0.7,1.2,1,2.9,1,4.4c0,3.2-1.5,5.1-3.5,6.2
			c-1.5,0.8-3.5-0.2-4.6-1.7c-0.2-0.3-0.4-0.7-0.6-1.1c0,0,0,0.1,0.1,0.1C122.4,243.8,122.4,239.6,124.3,237.1z"/>
		<path class="st6" d="M121.2,253.9c0.2-0.7,0.5-1.2,0.8-1.8c0.8-1.3,2.4-1,3.1,0c0.8,1.1,0.9,3.3,0,4.3c-0.4,0.5-0.8,0.9-1.4,1.1
			C122.3,258.3,120.7,256,121.2,253.9z"/>
	</g>
	<path class="st7" d="M164.1,165.4c7-2.4,15.3-4.6,25.2-5.6c49.6-5.1,156,53.8,169.6,62.4c11.1,7,22.7,13.4,33.8,20.9
		c-16.6,3.5-61.2,8.1-122.4-6.1C210.1,223,176.6,183.5,164.1,165.4z"/>
</g>
</svg>
