<svg xmlns="http://www.w3.org/2000/svg" viewBox="0 0 433.69 241">
<defs>
<style>
.cls-1{isolation:isolate;}.cls-2{fill:#c8c9cc;}
.cls-3,.cls-5{fill:#6a5a6b;}.cls-4,
.cls-6,.cls-9{fill:#ede6e3;}.cls-4,.cls-5{opacity:0.3;}
.cls-4,.cls-7,.cls-9{mix-blend-mode:overlay;}.cls-5{mix-blend-mode:multiply;}
.cls-7{fill:#f3eeed;opacity:0.5;}.cls-8{fill:#776568;}
.cls-9{opacity:0.2;}.cls-10{fill:#f0faf7;}
</style></defs>
<title>fish4</title>
<g class="cls-1"><g id="图层_1" data-name="图层 1"><path class="cls-2" d="M301.94,209.45s40.73-15.16,37.38-21.73c-26.49-52.08-127.87-62.14-148.63-50.47-4.05,2.27-8.82,28.46-8.82,28.46s-10.11-21.36-13.52-22.79-30,4.92-31.16,11.93c-.61,3.76,10.47,27.29,10.47,27.29Z" transform="translate(-60.28 -132.88)"/><path class="cls-2" d="M366.5,305s39.88,21.77,38.08,36.44c-1,8.5-70.61,22.77-92.35-6.11C293.33,310.25,366.5,305,366.5,305Z" transform="translate(-60.28 -132.88)"/><path class="cls-2" d="M190.87,309.75c10.9-2.64,71.55,38.05,66.77,56.18-3.35,12.63-43.59,7.77-50.65,2.09C194.67,358.12,180.77,312.2,190.87,309.75Z" transform="translate(-60.28 -132.88)"/><path class="cls-3" d="M65.74,258.84c-2.16-7.86,24.11-56.43,69.34-82.09S295,138.9,400.71,222c35.67-35.17,74.39-45.1,81.5-39.51,11.84,9.32,19,141.43.25,146.83-14.19,4.1-65.93-17.75-80.84-28.22-19.34,18.4-57.25,42.29-132.12,45.48-134.76,5.73-196.29-42.42-196.29-42.42S97.28,287.89,93,274.45,65.74,258.84,65.74,258.84Z" transform="translate(-60.28 -132.88)"/><path class="cls-4" d="M83.71,223.05c11.94-16,29.41-33.84,51.37-46.3C180.29,151.1,295,138.9,400.71,222,400.71,222,316.45,288,83.71,223.05Z" transform="translate(-60.28 -132.88)"/><path class="cls-5" d="M303.6,301.57S264.59,330,232.18,315c-21.79-10.09-16.27-42.14-16.27-42.14Z" transform="translate(-60.28 -132.88)"/><path class="cls-6" d="M88.27,274.18c-4.26-13.44-27.91-13-27.91-13-1.82-6.71,25.07-50.24,56.11-71.78,20.5,1.2,71,31,63.67,82.23-5.4,37.95-39,54.84-70.61,52-28.73-8.79-39.72-20.61-39.72-20.61S92.54,287.61,88.27,274.18Z" transform="translate(-60.28 -132.88)"/><path class="cls-7" d="M153.58,217.25c18.17,18.46,28.38,48.66,9.06,66.25s-46,3.27-59.5-15.81c-10.48-14.74-12-39.56-1.54-55.06C111.58,197.84,137.51,201,153.58,217.25Z" transform="translate(-60.28 -132.88)"/><path class="cls-6" d="M215.91,272.81c-1.64-2.81,23-12.39,43.23-10,20.7,2.44,58.18,21.23,52.44,33.18S242.68,319,215.91,272.81Z" transform="translate(-60.28 -132.88)"/><path class="cls-8" d="M111.92,229.6a14.3,14.3,0,0,1,9.13-10.51,12.48,12.48,0,0,1,13,3.56,16.29,16.29,0,0,1,3.24,15.89,14.21,14.21,0,0,1-5.58,7.68,11.84,11.84,0,0,1-6.47,2.09,11.71,11.71,0,0,1-6.54-1.84,9.72,9.72,0,0,1-3.12-2.55A16.12,16.12,0,0,1,111.92,229.6Z" transform="translate(-60.28 -132.88)"/><path class="cls-9" d="M190.31,195.21c1.21-24,39.58-21.76,56.76-20.79,19.23,1.08,103.38,26.94,99.27,43.05C341.93,234.78,188.8,225.14,190.31,195.21Z" transform="translate(-60.28 -132.88)"/><path class="cls-6" d="M401.84,240.08s52-39.33,60.2-32.59c5.89,4.81-38.42,36.79-38.42,36.79S459.84,253,462,259.69s-59.23,4-59.23,4Z" transform="translate(-60.28 -132.88)"/><path class="cls-10" d="M121.56,224.44a5.51,5.51,0,0,1,4-1.94c2.18,0,3.7,1.22,5,3.05a8.09,8.09,0,0,1,1.3,4.2,6.3,6.3,0,0,1-4,6c-1.75.8-4.16-.06-5.43-1.48a8.81,8.81,0,0,1-.78-1,.61.61,0,0,1,.07.1A6.9,6.9,0,0,1,121.56,224.44Z" transform="translate(-60.28 -132.88)"/><path class="cls-10" d="M118.31,240.7a6.13,6.13,0,0,1,1-1.79,2.44,2.44,0,0,1,3.71-.08c.93,1,1.17,3.13.06,4.13a5.29,5.29,0,0,1-1.58,1.12C119.71,244.79,117.73,242.67,118.31,240.7Z" transform="translate(-60.28 -132.88)"/><path class="cls-5" d="M454.17,186.12c-14.61,11.31-46,47.32-44.34,63.9,1.79,17.93,40.49,57.21,58,57.44,12.32.15,21.36-24.71,26.11-39.81.13,31.05-3.06,59.2-11.5,61.63-14.19,4.1-65.93-17.75-80.84-28.22,2.42-37.69-.91-79.1-.91-79.1C419.35,203.58,438.81,192.1,454.17,186.12Z" transform="translate(-60.28 -132.88)"/></g></g></svg>