<svg id="5555" data-name="5555" xmlns="http://www.w3.org/2000/svg" viewBox="0 0 182.47 441.04"><defs>
<style>.cls-1{fill:#ff4747;}.cls-2{fill:#002b56;}.cls-3{fill:#000721;}
.cls-4{fill:#000b32;}.cls-5{fill:#003d87;}.cls-6{fill:#002152;}.cls-7{fill:#ffd4a1;}.cls-8{fill:#ffb052;}.cls-9{fill:#c2e8ff;}.cls-10{fill:#99d9ff;}.cls-11{fill:#54c0ff;}.cls-12{fill:#003f99;}.cls-13{fill:#ffc178;}.cls-14{fill:#ffa840;}.cls-15{fill:#e86000;}.cls-16{fill:bisque;}.cls-17{fill:#7d3300;}.cls-18{fill:#cc9562;}.cls-19{fill:#fff;}.cls-20{fill:#a34300;}.cls-21{fill:#005ac6;}.cls-22{fill:#e30000;}.cls-23{fill:#e5e5e5;}.cls-24{fill:#ff3939;}.cls-25{fill:#c4c4c4;}.cls-26{fill:#ea3434;}.cls-27{fill:#002796;}.cls-28{fill:#005cb7;}</style></defs><title>人</title><polygon class="cls-1" points="0 273.16 20.88 287.94 37.48 281.15 17.51 268.9 0 273.16"/><polygon class="cls-2" points="144.75 406.88 104.66 375.38 106.4 387.54 144.73 420.73 144.75 406.88"/><polygon class="cls-3" points="71.71 293.5 39.93 271.12 41.15 388.91 72.31 418.6 71.71 293.5"/><polygon class="cls-4" points="106.49 365.69 106.35 408.8 72.31 418.59 71.9 365.69 106.49 365.69"/><polygon class="cls-3" points="136.33 311.34 104.08 288.79 104.72 375.28 136.06 400.24 136.33 311.34"/><polygon class="cls-4" points="168.9 343.67 168.9 389.67 136 400.23 136.06 343.67 168.9 343.67"/><polygon class="cls-5" points="71.71 282.92 39.93 260.54 41.15 378.33 72.23 407.96 71.71 282.92"/><polygon class="cls-6" points="136.33 300.07 104.08 277.51 104.37 364.8 136.06 389.14 136.33 300.07"/><polygon class="cls-7" points="182.47 156.83 182.47 276.89 164.43 281.15 163.56 161.8 182.47 156.83"/><polygon class="cls-8" points="163.56 161.8 137.64 148.3 138.87 260.19 164.96 281.15 163.56 161.8"/><polygon class="cls-9" points="182.47 140.31 154.45 126.81 137.64 131.78 163.56 145.28 182.47 140.31"/><polygon class="cls-10" points="182.47 140.31 182.47 260.37 164.43 264.63 163.56 145.28 182.47 140.31"/><polygon class="cls-11" points="163.56 145.28 137.64 131.78 138.87 243.68 164.96 264.63 163.56 145.28"/><polygon class="cls-9" points="169.51 140.63 71.44 162.33 29.59 142.44 124.33 124.86 169.51 140.63"/><polygon class="cls-12" points="96.14 120.37 147.8 145.53 159.2 142.93 107.08 118.6 96.14 120.37"/><polygon class="cls-13" points="134.67 145.98 97.08 154.06 97.18 116.72 135.29 110.09 134.67 145.98"/><polygon class="cls-14" points="62.29 137.77 97.46 153.99 97.35 116.65 59.24 110.03 62.29 137.77"/><polygon class="cls-15" points="164.07 13.79 112.42 0 29.7 12.82 78.58 25.08 164.07 13.79"/><polygon class="cls-16" points="69.41 89.9 78.4 88.22 30.35 68.91 21.36 70.59 69.41 89.9"/><polygon class="cls-17" points="78.47 61.32 78.58 25.08 29.77 12.79 30.52 68.95 78.4 88.22 78.47 61.32"/><path class="cls-18" d="M280.26,225.54c-4.91-2.52-39.43-18.26-46.29-21.75l-.65-30.71c0-2.6,37.94,11.45,43,14.93a11.18,11.18,0,0,1,4.08,5.4Q280.32,209.48,280.26,225.54Z" transform="translate(-202.03 -79.78)"/><polygon class="cls-16" points="172.32 70.67 161.56 73.04 157.06 64.7 172.32 70.67"/><polygon class="cls-7" points="163.19 127.44 78.23 145.69 78.47 61.32 164.58 46.35 163.19 127.44"/><polygon class="cls-19" points="95.93 120.12 147.07 109.68 147.13 105.4 95.95 115.74 95.93 120.12"/><polygon class="cls-19" points="100.29 119.23 142.9 110.53 142.85 118 100.26 126.79 100.29 119.23"/><polygon class="cls-4" points="147.38 88.24 134.79 90.67 134.95 77.65 147.56 75.3 147.38 88.24"/><polygon class="cls-4" points="109.13 95.63 96.06 98.16 96.14 84.91 109.24 82.46 109.13 95.63"/><polygon class="cls-7" points="167.78 97.01 163.7 97.82 164.14 72.2 168.24 71.43 167.78 97.01"/><polygon class="cls-7" points="168.24 71.43 172.32 70.67 171.93 91.95 167.86 92.76 168.24 71.43"/><polygon class="cls-7" points="73.86 115.77 78.32 114.88 78.4 88.22 73.91 89.06 73.86 115.77"/><polygon class="cls-7" points="73.91 89.06 69.41 89.9 69.3 112.36 73.87 111.34 73.91 89.06"/><polygon class="cls-20" points="78.36 25.05 164.07 13.79 163.6 83.7 159.81 84.4 160.28 55.73 83.06 69.5 82.95 100.18 78.24 100.97 78.36 25.05"/><polygon class="cls-8" points="69.41 89.9 22.04 70.73 22.44 91.21 69.3 112.34 69.41 89.9"/><polygon class="cls-10" points="71.44 162.33 72.23 288.08 168.9 261.44 169.51 140.63 71.44 162.33"/><polygon class="cls-12" points="71.44 282.21 72.23 407.96 106.35 398.14 106.64 306.81 136.06 300.33 136.06 389.14 168.9 379.81 168.9 260.64 71.44 282.21"/><polygon class="cls-11" points="71.44 162.33 72.23 287.81 30.48 256.07 29.42 142.44 71.44 162.33"/><polygon class="cls-5" points="71.58 198.3 71.53 289.41 19.96 253.98 18.84 173.34 71.58 198.3"/><polygon class="cls-12" points="36.64 141.15 80.16 160.33 93.07 157.49 48.64 138.89 36.64 141.15"/><polygon class="cls-12" points="80.2 160.33 80.77 196.17 71.45 198.3 71.45 288.52 168.9 261.44 169.51 173.88 159.18 176.25 159.14 142.93 147.69 145.46 148.15 179.03 93.2 193.01 93.07 157.49 80.2 160.33"/><polygon class="cls-7" points="62.69 181.87 62.69 301.93 44.65 306.19 43.78 186.84 62.69 181.87"/><polygon class="cls-9" points="62.69 165.35 34.67 151.85 17.86 156.83 43.78 170.32 62.69 165.35"/><polygon class="cls-10" points="62.69 165.35 62.69 285.41 44.65 289.68 43.78 170.32 62.69 165.35"/><polygon class="cls-21" points="168.89 389.44 177.56 396.12 144.75 406.86 136.05 400.15 168.89 389.44"/><polygon class="cls-12" points="177.55 396.11 144.71 406.86 144.71 420.71 177.55 408.55 177.55 396.11"/><polygon class="cls-21" points="106.34 408.09 115.32 414.78 80.8 426.69 72.31 418.56 106.34 408.09"/><polygon class="cls-12" points="115.31 414.75 80.84 426.68 80.47 441.04 115.31 427.68 115.31 414.75"/><polygon class="cls-2" points="80.85 426.65 41.16 388.94 41.2 401.41 80.47 441.02 80.85 426.65"/><polygon class="cls-1" points="45.18 306.19 64.79 318.8 82.66 314.19 64.53 301.75 45.18 306.19"/><polygon class="cls-22" points="64.79 318.8 64.79 349.71 1.58 302.33 0 273.16 64.79 318.8"/><polygon class="cls-23" points="82.66 314.19 64.79 318.8 64.79 390.91 79.85 387.27 82.66 314.19"/><polygon class="cls-24" points="82.66 314.19 64.79 318.8 64.79 349.71 81.43 344.96 82.66 314.19"/><polygon class="cls-25" points="64.79 390.91 64.79 349.71 1.58 302.33 3.85 336.56 64.79 390.91"/><polygon class="cls-22" points="50.7 309.75 50.48 301.53 15.59 277 15.91 284.9 50.7 309.75"/><polygon class="cls-22" points="45.88 339.58 46.36 330.84 11.47 306.31 12.26 314.54 45.88 339.58"/><polygon class="cls-8" points="43.78 186.84 17.86 173.34 19.18 286.75 45.09 305.84 43.78 186.84"/><polygon class="cls-11" points="43.87 170.39 17.95 156.89 19.13 272.03 44.96 289.61 43.87 170.39"/><polygon class="cls-1" points="44.96 297.67 62.69 293.32 67.68 296.78 50.48 301.53 44.96 297.67"/><polygon class="cls-26" points="67.53 296.78 50.48 301.53 50.65 308.84 67.51 304 67.53 296.78"/><polygon class="cls-27" points="82.14 207.45 82.38 245.59 111.7 237.51 111.9 200.03 82.14 207.45"/><polygon class="cls-28" points="82.31 207.41 82.51 240.13 111.73 232.08 111.7 237.51 82.38 245.59 82.14 207.45 82.31 207.41"/><polygon class="cls-28" points="105.78 201.62 112.16 200.03 111.96 237.51 106.02 239.15 105.78 201.62"/>
<polygon class="cls-28" points="88.26 205.84 88.26 243.88 82.03 245.59 81.79 207.45 88.26 205.84"/></svg>