<?xml version="1.0" encoding="utf-8"?>
<!-- Generator: Adobe Illustrator 16.0.0, SVG Export Plug-In . SVG Version: 6.00 Build 0)  -->
<!DOCTYPE svg PUBLIC "-//W3C//DTD SVG 1.1//EN" "http://www.w3.org/Graphics/SVG/1.1/DTD/svg11.dtd">
<svg preserveAspectRatio="none" version="1.1" id="图层_1" xmlns="http://www.w3.org/2000/svg" xmlns:xlink="http://www.w3.org/1999/xlink" x="0px" y="0px"
	 width="176.07px" height="166.417px" viewBox="29.275 29.281 176.07 166.417"
	 enable-background="new 29.275 29.281 176.07 166.417" xml:space="preserve">
<g id="surface1131">
	<path fill="#518231" stroke="#518231" stroke-linejoin="bevel" stroke-miterlimit="10" d="M103.762,39.969
		c0,0-3.18-0.574-1.102,3.543c1.852,3.957,6.891,9.434,6.891,9.434c0.211-0.227-14.965-4.859-23.387-5.887
		c0.348-0.34-7.27-0.344-8.652,0c0-0.34,5.652-0.23,4.383-2.746c-1.383-2.844-0.691-4.059,2.48-4.059
		c2.887-0.285,1.902-3.145,3.75-3.945c2.137-0.84,3.691,0.457,3.691,1.484c-0.055-0.074,2.535-13.148,11.648,1.832L103.762,39.969z"
		/>
	<path fill="#709A4E" stroke="#6F994D" stroke-linejoin="bevel" stroke-miterlimit="10" d="M86.164,47.039
		c0,0,5.074-14.848,18.688-17.25c0.063,0,11.074-0.688,6.574,10.977c0.238,0.273-1.844,3.434-5.535,0.918
		c-3.977-2.145-4.848-7.32-5.422-6.289c-0.805,1.145,1.383,4.23-2.887,3.086c-0.168,0.309-3.23-1.371-1.961,1.145
		c1.043,2.164,3.117,5.602,1.156,5.602c-1.613,0.313-4.73-2.516-6-1.027c-1.613,1.34-0.461,3.441-0.461,3.441
		c0.348,0.148-3.227-0.355-4.152-0.582V47.039z"/>
	<path fill="#518231" stroke="#518231" stroke-linejoin="bevel" stroke-miterlimit="10" d="M109.414,52.941
		c0,0-14.711-7.027-31.902-5.883c-0.348-0.117-10.73,0.914-12.23,4.344c-1.617,3.789-8.883,12.691-13.898,13.781
		c-4.969,1.258-9.98-0.746-13.777,5.895c-0.191-0.137-11.313,15.316-3.355,24.133c0.164-0.27,2.887,2.961,9.113,5.254
		c0.051-0.273,14.652-16.129,33.109-23.219c-0.059-0.305,9.691-2.859,14.996-4.23c5.195-1.324,12.977-5.203,19.379,0
		c0.066,0.176-3.055-13.953-1.297-20.07L109.414,52.941z"/>
	<path fill="#518231" stroke="#518231" stroke-linejoin="bevel" stroke-miterlimit="10" d="M109.121,52.266
		c0,0,0.43-19.188,18.313-18.75c17.688,0.75,22.637,2.848,26.109,11.996c-0.172,0.004,12.68,28.875,2.73,36.738
		c-9.652,7.516-17.16,5.289-17.16,5.289l-17.242-20.273c0,0,0.805-3.742-3.234-5.602c0.234,0.352,1.152-5.715-3.027-7.289
		c-4.238-1.359-6.488-1.859-6.488-1.859V52.266z"/>
	<path fill="#518231" stroke="#518231" stroke-linejoin="bevel" stroke-miterlimit="10" d="M121.941,66.051l17.25,21.75l6.75,6.75
		c0,0-5.328-0.953,1.246,4.199l1.754,1.801c0,0-4.063-1.121-2.676-0.32c1.176,1.07,6.574,2.516,12.82,13.152
		c0.355-0.082-5.094,1.945-10.977,0c0.082-0.082-0.574-3.203-2.191-2.402c-1.477,0.82,0-1.602,0-2.059
		c0.023-0.121,0.922-5.945-4.441-4.402c-5.285,1.281-7.785,0.742-7.785-4.746c0.25-5.223,0.461-6.977,0.809-8.691
		c0.191-1.781,0.23-9.605-8.883-6.289c-8.926,3.008-5.191,4.344-6.461,1.031c-0.215-0.273-0.461-1.832-1.5-2.52
		c-0.965-0.754-1.152-2.398-0.809-4.688c0.594-2.066-0.863-3.258,1.73-3.773c2.613-0.543,3.348-2.973,3.691-4.688
		c-0.328-0.355-0.027-2.766,0-4.105H121.941z"/>
	<path fill="#F2F2E6" stroke="#F2F2E6" stroke-linejoin="bevel" stroke-miterlimit="10" d="M180.73,139.633
		c0,0-17.941-20.414-21.645-26.25c-0.105,0-3.133,1.367-8.652,0.684c0.297,0.066,2.406,9.492-16.953,10.523
		c0,0.043,40.469,11.09,52.723,20.93c-0.223,0.113-5.043-5.664-5.434-6.059L180.73,139.633z"/>
	<path fill="#F2F2E6" stroke="#F2F2E6" stroke-linejoin="bevel" stroke-miterlimit="10" d="M181.473,170.723
		c0,0,0.832,4.523,3,6.926c2.25,2.074,5.859,3.086,5.859,3.086c0.141-0.262,1.559,0.973,4.387-3.086
		c0.254-0.176,6.109-8.805,9.816-22.16c0.188,0.234,1.254-3.914-2.09-5.516c-2.973-1.75-3.117-0.797-4.73-2.738
		c0.258,0.238-2.422,2.883-4.961,2.41c-2.281-0.672-5.766-3.672-5.766-3.672c-0.266,0,2.305,2.629,1.73,6.059
		c-0.496,3.691-1.848,10.406-7.246,18.641V170.723z"/>
	<path fill="#518231" stroke="#518231" stroke-linejoin="bevel" stroke-miterlimit="10" d="M38.523,129.352
		c0,0,1.844-7.395,13.844-7.848c-0.344,0.348,29.988-0.91,33.336,0c0.07,0.348,4.727,0.109,5.766,0.797
		c1.055,1.051,4.711,0.914,5.215-0.344l30.34,29.145l-35.25-6.75l-3.75,3c0,0-16.051-4.352-22.164,2.621
		c-0.336-0.371,2.309,2.633-1.039,6.176c-3.047,3.203-8.883,4.691-12.457,3.09c-3.34-1.387-14.652-8.008-16.266-14.18
		c-1.324-5.957,0.344-12.121,2.074-15.781L38.523,129.352z"/>
	<path fill="#518231" stroke="#518231" stroke-linejoin="bevel" stroke-miterlimit="10" d="M111.25,75.563
		c8.25,36.75,39.184,38.168,39.184,38.168c-0.184,0.082,3.484,9.828-16.953,11.203c0.27,0.129-16.516-2.402-23.875-7.094
		L109,123.563l-12-1.5c0,0-1.867,2.152-6.484-0.105l-4.766-0.645c0,0-24.07-1.004-33.734,0.191c-0.016-0.191-0.234-1.57-2.422-2.402
		c-2.094-0.789-2.914-2.117-1.039-4.547c1.945-2.242,4.039-4.719,1.586-8.141c0.359-0.102-3.316-6.012,0.723-6.996
		c-0.363,0.145,1.578,0,1.578,1.566c0.309,0.078,0.152,2.438,3.18,0c0.129,0.078,1.082-2.082,3.895,0.703
		c-0.016,0.125,0.289,3.574,4.18,3.574c0.305,0.301,1.441,0,3.031,0c1.773,0.301,4.18,1.574,3.098-3.074
		c-1.324-4.875,1.082-5.645,3.68-4.5c0.246-0.375,4.324,3.574,8.074-1.699c-0.328-0.176,2.68-2.875,2.02-6.859
		c-0.098-0.066-2.164-4.164,0.43-5.441c0.223,0.125,3.461-0.438,5.914,0.418c2.559,1.207,8.797,0.574,10.238-3.125
		c-0.18-0.168,0.574-1.875-0.289-4.594c-0.641-3.074-1.008-3.984,0-3.984c0.859,0.16,4.922,3.984,4.902,3.984
		c-0.293-0.074,0.016,0.043,0.402-2.801c0.055-0.273-0.98-3.059,1.906-1.199c-0.352,0.176,1.512,1.07,3.172,2.715L111.25,75.563z"/>
	<path fill="#709A4E" stroke="#6F994D" stroke-linejoin="bevel" stroke-miterlimit="10" d="M109.254,52.184
		c0,0,5.98,0.02,5.98-1.809c0.02-1.941-4.383-4.918-1.848-5.375c2.617-0.316,8.539,1.258,8.074-3.316
		c-0.207-4.5-0.922-5.832,0.926-4.574c1.867,1.574,4.613-0.23,5.305-1.258c1.063-0.918,2.77-2.059,3.23,1.258
		c0.832,3.074,0.809,6.289,3.809,5.715c3.023-0.391,8.535-4.801,9.113-3.773c0.66,1.133-0.117,4.805,3.922,5.375
		c4.238,0.258,4.383,0.688,3.805,2.289c-0.316,1.719-0.98,3.945,1.387,4.574c2.047,0.895,3.23,1.371,2.016,2
		c-1.469,0.395-2.711,2.457-1.211,3.145c1.242,1,4.863,1.602,2.426,2.746c-2.684,1.254-3.637,3.887-2.426,4.344
		c1.242,0.66,4.961,1.145,3.23,4.004c-1.988,2.656-2.535,2.859-1.27,4.688c1.531,1.719,0.809,2.688-0.75,2.688
		c-1.469-0.219-2.824,1.773-1.555,3.602c1.586,2.18,1.844,2.746,0,2.289c-2.164-0.109-5.02-2.117-6.809,1.027
		c-2.105,3.363-2.766,3.887-4.152,2.859c-1.703-0.996-3.922-0.914-4.383,0c-0.32,1.254-0.691,1.027-0.691,1.027l1.871,1.727
		c0,0,6.434,2.047,15.316-3.668c-0.316-0.082,3.348-2.516,4.055-4.004c0.129,0.172,2.867-5.375,1.137-13.379
		c-0.258,0.051-1.27-7.09-3.113-12.695c-1.645-5.254-4.152-10.977-4.152-10.977c0.258-0.277-3.23-7.777-13.383-8.461
		c-10.359-0.816-12.805-1.031-14.996-0.688c0.137-0.129-8.48,1.086-11.539,7.777c-0.324,0.344-3.324,5.43-3.324,11.063V52.184z"/>
	<path fill="#709A4E" stroke="#6F994D" stroke-linejoin="bevel" stroke-miterlimit="10" d="M122.457,67.516
		c0.75-3.75-3.82-5.852-3.82-5.852c2.32-9.148-9.516-9.148-9.516-9.148c-1.664,21.75,8.305,39.824,8.305,39.824
		c12.531,19.426,30.707,21.043,30.707,21.043c-0.176-0.117-0.598-3.203-2.215-2.402c-1.711,0.785,0-1.602,0-2.059
		c-0.211-0.156,0.922-5.945-4.441-4.402c-5.52,1.246-7.785,0.742-7.785-4.746c0.016-5.258,0.461-6.977,0.809-8.691
		c0.707-1.816,0.23-9.605-8.883-6.289c-9.16,2.973-5.191,4.348-6.461,1.031c0.301-0.309-0.461-1.832-1.5-2.516
		c-1.199-0.793-1.152-2.402-0.809-4.691c0.359-2.102-0.863-3.258,1.73-3.773c2.379-0.578,3.348-2.973,3.691-4.664L122.457,67.516z"
		/>
	<path fill="#709A4E" stroke="#6F994D" stroke-linejoin="bevel" stroke-miterlimit="10" d="M38.176,129.535
		c0,0-5.309,0.543-7.961-6.203c-0.289,0.203-1.73-2.633,2.883-9.836c4.328-7.211,10.496-13.266,10.496-13.266
		c-0.168,0.055,13.27-15.324,32.891-22.977c-0.059-0.219,13.484-4.012,16.035-4.582c-0.344-0.137,12.332-5.602,18.332,0.344
		l0.824,2.52c0,0-1.059,0.797-2.211-0.691c-0.789-1.559-4.961-4.559-4.27-1.258c0.48,3.449,0.117,3.773-0.805,2.746
		c-0.965-0.797-4.961-4.805-4.961-2.746c0.246,1.949,1.152,3.891,1.152,5.605c-0.156,1.594-1.039,4.801-4.324,5.203
		c-3.332,0.141-2.25,0.57-5.941,0.285c-3.391-0.145-8.074-1.832-7.039,2.059c1.398,3.797,1.5,5.715-0.344,8.23
		c-2.008,2.316-5.078,5.375-7.844,4.004c-2.414-1.688-5.598-2-5.309,1.488c0.645,3.574,1.961,5.715-2.305,5.145
		c-4.551-0.82-6.348,1.258-7.848-1.027c-1.203-2.043-0.691-4.574-3.344-3.547c-2.359,0.754-2.309,2.859-3.344,1.828
		c-1.266-1.074-1.328-4.516-3.117-2.742c-1.898,1.668,0.117,5.602,1.039,6.289c0.813,0.629,1.73,3.773,0,5.945
		c-1.438,2.184-4.613,4.461-1.617,6.063c3.18,1.371,2.945,3.258,3.117,3.086c0.063-0.215-10.844,0.289-14.191,7.777L38.176,129.535z
		"/>
	<path fill="#709A4E" stroke="#6F994D" stroke-linejoin="bevel" stroke-miterlimit="10" d="M109.414,52.941
		c0,0-14.711-7.027-31.902-5.883c-0.348-0.117-10.73,0.914-12.23,4.344c-1.617,3.789-8.883,12.691-13.898,13.777
		c-4.969,1.262-9.98-0.742-13.777,5.898c-0.191-0.137-11.313,15.316-3.355,24.133c0.164-0.27,2.887,2.961,9.113,5.254l3.051-3.273
		c0,0-1.434-1.648-2.242-3.02c-0.758-1.48-2.191-2.633-4.961-2.633c-2.547-0.348-4.035-1.715-2.305-4.117
		c2.008-2.23,4.613-3.887,2.305-7.203c-2.547-3.277-3.805-4.688-0.574-4.688c3.277-0.09,2.363-1.203,2.996-2.402
		c0.281-1.438,2.309-4.117,4.039-3.43c-0.008-0.258,0.578-0.344,0.578,1.945c0.164,2.297-0.461,4.688,1.152,5.371
		c1.262,0.676,1.848,2.746,2.77,2.746c0.742,0.18,8.883,0.457,9.805-4.004c0.688-4.816-0.922-3.773,2.078-6.059
		c3.109-2.508,3.113-2.289,3.457-4.004c0.402-1.504,1.156-2.973,1.965-4.688c0.688-2.066-2.426-6.52-0.465-5.945
		c1.902,0.879,4.5,4,5.598,2.457c0.805-1.578-0.75-3.602,0.863-3.031c1.441,0.703,5.309,2.633,8.77-2.516
		c0.172,0.219,0.113-1.941,2.652,0.574c2.77,2.645,4.5,5.602,7.035,4.801c2.484-0.656,4.383-5.031,5.77-4.23
		c1.215,0.574,2.652,3.203,3.922,1.945c1.043-1.371,0.809-3.203,2.539-2.859c1.504-0.012,5.391,0.742,5.391,0.742L109.414,52.941z"
		/>
	<path fill="#709A4E" stroke="#6F994D" stroke-linejoin="bevel" stroke-miterlimit="10" d="M85.395,121.609
		c0,0-19.188-1.594-33.027-0.109c0.027,0.109-9.234-0.57-13.617,6.176c-4.355,6.684-4.383,16.352-2.191,19.234
		c0.086,0.199,3.461,5.695,14.766,12.117c0.32,0.082,6.23,3.867,13.152-2.191c-0.082,0.023,4.152-4.461,1.383-6.863
		c0.035,0.137-2.539-2.629-5.535,3.66c0.32,0.227-1.387,1.715-3.348,0.574c-2.332-1.098-3.344-2.289-4.5-1.145
		c-0.832,0.797-2.422-1.602-2.883-3.43c-0.199-1.773-1.152-3.547-4.383-2.402c-3.316,1.379-1.848-1.145-1.848-1.832
		c0.031-0.539-1.73-1.484-3.113-1.027c-1.355,0.488-0.922-0.914-1.27-1.945c-0.086-1.316-0.691-2.059,1.27-1.484
		c1.645,0.918,4.152-0.23,4.961-2.289c0.434-2.043,2.074-3.43,1.383-5.832c-0.949-2.211-1.039-4.914,0.348-4.914
		c1.703-0.297,1.73,5.371,4.035,5.371c2.168,0.332,3.691,0.23,4.848-3.543c1.07-3.625,6.805-8.234,8.422-7.777
		c1.648,0.402,4.961,3.66,5.652,4.805c0.496,0.848,4.844,3.543,8.766,0.344c3.73-3.246,2.652-4.117,7.039-5.602L85.395,121.609z"/>
	<path fill="#709A4E" stroke="#6F994D" stroke-linejoin="bevel" stroke-miterlimit="10" d="M127.484,150.941
		c0,0-4.063-3.824-6.484-7.371c-0.266-0.129-3.113-6.977-8.176-10.516c-0.34-0.113-5.781-5.266-6.934-6.41
		c-0.906-1.203-5.191-4.57-8.75-5.703c0.344,0-1.98,4.332,2.633,7.535c4.461,2.965,1.961,4.801,3.461,5.945
		c1.75,0.77,4.27-1.828,4.27,0c-0.27,1.52-0.691,1.602,1.848,3.547c2.383,1.723-2.887,0.801-2.078,3.316
		c0.711,2.156,5.074,2.059,5.539,2.059c0.422,0.098-0.234,2.516,2.883,1.941c2.789-0.344,1.961,0.688,0.809,1.488
		c-1.02,1.168-2.195,1.715-2.195,1.715c-0.324,0.203-1.961,2.859,3.578,4.023c-0.152-0.07,3.113,0.207,5.535-2.195
		c0.313-0.125,0.75-1.77,3.813,0.348L127.484,150.941z"/>
	<path fill="#FDFDFB" stroke="#FDFDFB" stroke-linejoin="bevel" stroke-miterlimit="10" d="M136.703,88.109
		c0,0,8.984,6.746,13.484,8.918c4.516,2.332,31.492,14.41,37.723,17.27c6.543,3.063,15.574,10.52,14.188,21.977
		c-0.145-0.164-2.074,13.371-9.344,13.371c0.199-0.035-2.703,0.723-11.996-10.191c-9.555-10.844-19.008-21.723-21.672-26.07
		c-2.883-4.273-10.988-18.625-24.633-21.551c0,0.027,4.082-0.293,6.16,0.965c-0.16-0.188-2.855-2.398-4.023-4.688H136.703z"/>
	<path fill="#FDFDFB" stroke="#FDFDFB" stroke-linejoin="bevel" stroke-miterlimit="10" d="M133.195,124.457
		c0,0,44.379,12.832,53.008,21.063c0.242-0.063,3.438,2.855,2.516,7.086c-0.773,4.102-3.117,16.465-13.27,23.574
		c-0.254,0.027-12.574,7.414-28.375-4.594l-24.379-25.379c0,0-1.117-1.949-2.039-3.551c-0.961-1.699-1.617-2.859-3.578-5.145
		c-1.883-2.555-11.188-11.094-12.688-12.125c-1.195-0.93-7.613-7.09-24.688-8.332c0.242-0.098,12.574-1.5,29.184,6.391
		c0.309,0.262-24.801-16.582-26.301-16.926c-1.141-0.063-4.035-1.711-8.641-1.711c0,0.148,6.102-0.574,10.602,0.91
		c-0.102-0.012-0.574-1.828,0-3.754c-0.102-0.008,0.117,4.098,3.809,6.613c-0.16,0.129,6.805,4.574,13.613,6.52
		c-0.273,0.359-6.922-12.121-7.617-13.953c-0.906-2.188-3.227-6.402-8.418-7.406c0.012-0.031,4.383,0.547,5.652,1.461
		c0.359,0.008-2.656-5.602-2.656-6.742c0.016,0,2.195,4.684,5.078,8.801c0.188,0.199-0.922-4.805,2.305-8.004
		c0.133-0.047-2.883,6.289,0.348,11.777c3.535,5.426,7.383,13.035,12.691,16.469c5.094,3.207,15.227,5.371,15.227,5.371
		c0.367,0.086-7.383-12.121-9.574-21.152c0.191,0.238,0.113-1.488-1.5-3.66c-1.309-2.102-4.73-4.004-4.73-4.004
		c-0.328-0.348,3.633,1.086,4.73,2.176c0.941,1.227-1.387-5.262-0.926-6.633c0.367-1.141,1.387,7.43,7.152,16.809
		c-0.035,0.051,0.695-4.461,2.77-6.52c0.195-0.18-2.77,7.32-0.691,10.98c2.387,3.84,11.672,13.723,11.672,13.746L133.195,124.457z"
		/>
	<path fill="#FDFDFB" stroke="#FDFDFB" stroke-linejoin="bevel" stroke-miterlimit="10" d="M175.43,176.203
		c0,0-13.016,7.391-28.352-4.617c-0.148,0.117-15.363-16.133-19.844-20.574l-35.805-7.059c0,0-8.613-5.414-11.727-15
		c-0.273,0,0.113,5.813,3.461,11.074c0.016,0.176-7.039-1.375-9.691-1.719c-2.293-0.355-7.496-4.23-8.641-5.371
		c0.348-0.234,2.234,4.063,4.371,5.258c-0.273-0.242-8.188-0.684-13.023,2.289c0-0.281,9.91-2.402,18.332,0
		c8.668,2.719,18.805,10.633,24.227,14.863c5.441,4.355,12.688,11.32,16.496,16.012c3.945,4.844,11.418,16.008,22.379,20.695
		c10.816,4.398,26.879,4.461,35.301-1.598c8.516-6.004,11.559-12.809,11.559-12.809c-0.043,0.055-2.215-2.746-3.023-6.977
		c-0.02,0.281-4.152,4.266-5.98,5.508L175.43,176.203z"/>
	<path fill="#F2F2E6" stroke="#F2F2E6" stroke-linejoin="bevel" stroke-miterlimit="10" d="M175.598,176.164
		c0,0-13.184,7.43-28.52-4.578c0.02,0.078-15.363-16.133-19.844-20.574l-1.137-0.348c0,0,0.438,0.875,4.594,5.371
		c5.156,5.129,12.867,13.734,15.918,16.695c5.738,5.684,19.848,9.82,29.535,4.004c3.953-2.07,5.652-4.359,5.652-4.359
		c-0.199,0.039,0,0-0.348-1.703c0.148,0.242-4.152,4.266-5.98,5.508L175.598,176.164z"/>
	<path fill="#FDFDFB" stroke="#FDFDFB" stroke-linejoin="bevel" stroke-miterlimit="10" d="M182.977,171.098
		c0,0,0.781,3.348,2.211,5.371c1.539,2.129,6.066,2.574,6.066,2.574c-0.027,0.305,2.137-1.902,4.73-5.625
		c-0.258-0.07,3.344-6.977,7.27-16.813c-0.027,0.242,1.488-4.051-1.582-5.52c-2.945-1.738-2.129-0.703-3.609-2.488
		c-0.086,0-2.633,2.383-4.961,1.949c-2.625-0.449-2.727-0.273-2.727-0.273c0.102-0.176,0.254,0.328-0.273,3.473
		c-0.375,3.102-1.383,9.723-7.152,17.27L182.977,171.098z"/>
</g>
</svg>
