<svg id="图层_1" data-name="图层 1" xmlns="http://www.w3.org/2000/svg" viewBox="0 0 1309.78 1819.81"><defs><style>.cls-1{fill:#27544b;}.cls-2{fill:#6ab544;}.cls-3{fill:#a3c539;}</style></defs><title>zhiwu1</title><path class="cls-1" d="M325.53,1055.78a619.33,619.33,0,0,0,101.39,213.79c86.36,117,205.57,204.52,327.66,281.11,59.31,37.22,119.85,72.27,180.24,107.68,22.45,13.16,44.1,24.85,61.36,45,24.43,28.5,35.19,65.94,38.37,102.74-13.34.75-26.65,1.73-40,2.48-20.23,1.12-40.45,1.06-60.69,1-41.42,0-82.85-1.86-124.26-.63a567,567,0,0,0-60.1,4.51,225.31,225.31,0,0,0-34.2,6.94c-12.21,3.63-18.42,14-21.84,25.45-1.11,3.7.67,8,3.39,10.51,9.17,8.41,17.8,12.6,30.07,11.18,7.64-.88,15.23-1.84,22.84-3l1.42-.22,3.51-.46c2.36-.3,4.72-.59,7.09-.85,4.77-.52,9.54-1,14.32-1.39q14.53-1.18,29.11-1.73c20.64-.77,41.3-.81,61.95-.62,41.12.37,82.26,1.55,123.28-2,16.18-1.41,32.28-3.36,48.44-4.77.07,1.12.12,2.25.12,3.37,0,5.78,8.94,5.08,8.94-.66,0-1.15,0-2.3.08-3.44,2.75-.2,5.5-.38,8.25-.52,22.72-1.23,45.49-1.58,68.24-1.94s45.42-.32,68.13-.43c11.92-.06,23.76-.86,35.66-1.72,5.65-.41,12.23-.07,17.68-1.73,5.07-1.55,10.16-3.07,15.23-4.63,10-3.1,7.65-16.27-1.09-19-4.76-1.48-10.41-4.37-15.35-4.88q-8.05-.83-16.1-1.75c-10.56-1.21-21.1-2.69-31.71-3.44-45.3-3.21-90.55-7.29-136-6.63l-2.53.06c2.62-7.58,5.38-15.1,7.87-22.6,6.5-19.58,13.61-39.06,19.54-58.82,8.25-24.83,17.37-47.49,33.58-68.4,19.38-25,42.73-46.81,67-67,55.69-46.22,112.93-90.39,166-139.76,56.3-52.42,108.2-110.09,148.2-176.08,42-69.22,72.66-146.84,93.06-225.07,20.58-78.89,30.54-161.29,25.9-242.83-4.78-83.74-23.76-165.28-57.51-242.1-4.23-9.63-13.18-16.16-24.13-12.8-7.38,2.26-15,10.68-13.64,19,3.54,21.67,5.72,44,4.76,66-.49,10.93-.64,21.81-1.75,32.71,0,.35-.07.64-.1.89-.11,1-.24,2-.36,3.08-.32,2.51-.66,5-1,7.51-.75,5-1.56,10-2.53,14.91a389.41,389.41,0,0,1-11.65,45.46c-2.5,7.75-5.19,15.44-8.14,23-.14.35-.25.65-.33.88s-.28.68-.48,1.18l-2.15,5.23c-1.47,3.47-3,7-4.51,10.39a615.94,615.94,0,0,1-46.29,83.85q-13.37,20.5-27.84,40.28c-.19.27-.36.51-.51.7s-.14.2-.2.27l0,0a.23.23,0,0,1-.07.09l-.07.08s0,.06,0,.07l-.18.24-.06.07s0,0,0,0l-1.58,2.14-3.55,4.74q-3.57,4.75-7.18,9.47-7.26,9.45-14.64,18.81c-20.65,26-42,51.52-63.42,76.9-43.41,51.37-87.12,102.4-124.2,158.64-42.53,64.51-78.88,132.65-105.85,205.16q-16.77,45.12-29.34,91.44,3.25-19.65,7.74-39.43c4.36-19.24,9.34-38.45,15.1-57.31,2.83-9.29,5.85-18.54,9.15-27.67,3.59-9.93,5.89-15.9,9.62-24.63,16.53-38.6,38.39-74.41,57.28-111.83s36.83-75.42,52.89-114.18c32.59-78.61,58.73-160.45,68.23-245.33s3.61-170.27-23.21-251.79a385.61,385.61,0,0,0-22.93-55.48c-8.94-17.4-16.35-35.61-24.69-53.33q-9.09-19.31-17.8-38.69c-6.24-26.92-16.4-52.66-32.06-75.61-6.58-9.63-24.13-2-19,9.26q4.27,9.36,8.7,18.65c11,26.79,16.38,56.37,18.61,84.91a447.87,447.87,0,0,1-4.09,103c-5,32.47-12,64.86-23.28,95.8-27.26,75.18-77,140.15-119.61,207a837,837,0,0,0-55.48,101.32c8.37-39,15.91-78.11,21.06-117.68,5.52-42.38,8.39-85.39,5.93-128.12-2.43-42.4-9.13-84.7-18-126.22C967.63,543.31,938.75,463.53,909,384.9s-60.89-157-88.51-236.56c-6.36-18.35-34.53-9.42-28.75,9.22.08.29.16.57.25.85.12,1.22.25,2.44.28,3.65s.08,2.62,0,3.93c0,.31-.2,2.76-.14,2.73a116.52,116.52,0,0,1-3.32,16.67c-3.79,13.81-8.34,24.94-14.35,38.1-12,26.18-26.24,51.18-38.8,77.05-16,33-28.84,68.36-39,103.57q-4.58,15.87-8.28,32.07a629.21,629.21,0,0,0-40.93-116.54c-27.58-59.28-62.95-115.13-106.41-164.08C502,111.46,454.69,72,399.54,49.86c-7.39-3-15.24-2.77-21.06,3.45-5,5.37-6.69,15.06-2,21.24,10,13.13,18.49,27.4,27.36,41.29,8.29,13,16.14,26.28,23.2,40a408.73,408.73,0,0,1,37.23,103.92C472,297,473,336.85,471.15,375.8c-1.07,22.62-2.61,45.22-3.76,67.84s-2.77,45.48-.5,68c.84,8.47,2.07,16.85,3.54,25.17-63,81-109.5,174.95-139.1,273.12-11.83,39.23-19.4,79.2-20.33,120.27A469,469,0,0,0,325.53,1055.78ZM741.78,756.1c16.31,35.62,33.48,70.79,47.83,108.17a1240.15,1240.15,0,0,1,40.45,125.51c22,82.68,39.09,166.3,55.2,250.3,5.82,30.4,11.35,60.94,18.27,91.14-15.83-32.56-34-64-55.15-93.26a776.25,776.25,0,0,0-75.62-90c-25.79-26.15-52.38-51.51-78.09-77.74-24.71-25.21-50.87-50.81-71.94-77.69C611.33,978,601.09,962.69,590,947.91c-1.57-2.09-3.09-4.2-4.6-6.31q-6.36-17.48-12.39-35.05C559,865.46,545.16,824,534.49,781.83c-5.1-20.14-9.54-40.5-12.12-61.15-2.54-20.32-3.24-40.71-4-61.17s-1.59-41.07-4.93-61.36c-1-6.35-2.11-12.72-3.7-18.95-.57-2.28-1.27-4.54-1.8-6.8-.08-.34-.15-.62-.22-.88s0-.31,0-.49c-.19-3.54-.21-7.08-.15-10.63,0-2,.88-12.3-.31-5,1.37-9.41-1.62-18.54-10.38-23.41a20.33,20.33,0,0,0-2-1q0-3.78,0-7.58c.21-11.62,1.59-23.18,2.05-34.79q.66-16.34,1.83-32.65c1.61-22.59,3.74-45.14,5.63-67.71,3.44-40.79,4.92-80.58-1.81-121.12a439.32,439.32,0,0,0-34.94-112.61q-9-19.62-19.75-38.39c43.81,31,80.62,72.38,111.16,116.39,37,53.42,65.24,110.15,87.06,170.78a596.8,596.8,0,0,1,24.74,88.24c2.44,12.57,4.55,26.78,5.84,40.35.09.91.19,1.82.27,2.71C678,612.72,709.74,686.11,741.78,756.1Zm8.81,431.24c26,27.13,53,54,75.82,83.08,22.28,28.41,43.55,57.71,61.15,89.3,8.67,15.58,16.47,31.68,23.71,48s12.67,33.68,20.89,49.44c2,3.8,3.85,7.65,5.62,11.52,4,12.06,8.45,24,13.05,35.82-19.76-24.4-41-47.68-62.25-71C789.92,1325,702.94,1205.12,639.69,1072.68,674.63,1112.82,713.79,1148.92,750.59,1187.34ZM963.87,914.62c-5.79,42.94-13.43,85.64-21.58,128.17-4,21-7.7,42.1-11.33,63.18-1.86,10.78-3.68,21.58-5.39,32.39a97.07,97.07,0,0,0-.85,16.91c-4.67,22.85-8.29,46-10.71,69.19-12.53-74.65-23.44-150-41.7-223.39a1299.71,1299.71,0,0,0-37.4-125.4c-14.19-39.67-31.12-78-48.93-116.18C753.51,690,715.86,618,712.67,539.88,711,499.26,717.55,458.35,728,419.2c9.5-35.51,21.43-71.3,37.18-104.57,12.92-27.29,27.54-53.78,39.2-81.67,2.06-4.92,4.1-9.92,6-14.94,23.06,69.39,51.16,137.11,76.38,205.73,29,78.93,55.31,159.15,71.76,241.73,8.07,40.46,13.58,81.55,14,122.85C973.06,830.57,969.52,872.8,963.87,914.62Zm96.25,780.3c-.81-3-1.63-6-2.49-9,.28-9.09.52-18.17.55-27.23q0-15.62.46-31.25a901.72,901.72,0,0,1,41.79-176.69c24.72-70.82,60.86-138,101.24-201,36.89-57.6,79.27-111.19,123.37-163.4,42.71-50.57,86.67-100.19,126-153.48s74.78-110,96.82-172.93A397.94,397.94,0,0,0,1566,686.46a638.23,638.23,0,0,1,20.4,165.39c-.63,80.53-14.88,160.58-39.63,237.15-24,74.37-56.67,147.71-102.63,211.25-44.9,62-99.55,116.06-157,166.4q-40.47,35.47-82.35,69.26c-25.27,20.43-50.81,40.81-73.9,63.75-22.26,22.11-42.8,47.19-56.38,75.67a191.58,191.58,0,0,0-11.85,30.44C1061.91,1702.15,1061.1,1698.53,1060.12,1694.92Zm-32.1-96.46c-10.39-27.14-21.52-54-32.89-80.73-14.27-33.61-28.6-67.1-37.51-102.61-17.63-70.17-17.16-146-5.93-217.32,11.55-73.27,34-144.88,67.77-211,36.24-71,86.43-133.46,125.34-202.85,19-33.87,35.38-69.33,46.22-106.7a499.61,499.61,0,0,0,18.06-101.36,505.48,505.48,0,0,0,1.12-63.37c1,2.23,2,4.47,2.92,6.72,1.85,4.33,3.69,8.65,5.5,13,1.69,4.08,4.46,8.71,5.35,13,3.81,18.43,11,36.37,16.4,54.39,23.12,77.22,29.94,157.71,18.51,237.64-11.77,82.49-38.26,162.55-71.63,238.18-16.9,38.28-35.47,75.8-55.18,112.71s-41.19,73.13-57.65,111.59c-16.34,38.17-29.6,77.64-36.8,118.58a774.32,774.32,0,0,0-11.25,119.17C1026,1557.81,1026.72,1578.15,1028,1598.46ZM357.89,919.53a414,414,0,0,1,9.23-58.37c8.09-35.54,19.6-70.35,32.86-104.28q1.49-3.78,3-7.55c.42-1,1.56-3.84,1.6-3.93q2.67-6.46,5.42-12.9c3.7-8.61,7.49-17.19,11.44-25.71,8.19-17.63,16.6-35.21,25.64-52.45,8.7-16.6,17.86-33,27.73-48.91.5-.82,1-1.65,1.55-2.49a304.69,304.69,0,0,1,3.39,32.84c1.87,33.08,1.63,66.13,6.87,99,10.89,68.45,33.49,134.86,56.72,200,29.21,81.82,63.56,162.2,107.08,237.51,40.68,70.36,86.87,138.27,139.51,200.28q39.39,46.4,82,89.89c26.25,26.88,52.39,53.5,74.77,83.81,25.32,34.31,46.33,71.61,59.82,111.43-28.11-20.94-58.89-38.8-88.33-57.5-59.8-38-120.81-74-179.8-113.27C677,1446,623.77,1408.42,568.86,1359.53a860.81,860.81,0,0,1-74.7-74.61q-8.69-9.92-17.05-20.12l-2.26-2.83q-2-2.43-3.88-4.91c-2.54-3.28-5.09-6.59-7.58-9.93C453,1233.27,443.17,1219,434,1204.35c-21.2-34.1-38.67-68.84-52.07-106.1a439.62,439.62,0,0,1-16.46-59.57c-2.2-10.58-3.81-19.51-4.95-28.16-1.28-9.73-2.33-19.51-3-29.3A423.42,423.42,0,0,1,357.89,919.53Z" transform="translate(-310.88 -48)"/><path class="cls-2" d="M1057.63,1685.94c.86,3,1.68,6,2.49,9,1,3.61,1.79,7.23,2.52,10.85a191.58,191.58,0,0,1,11.85-30.44c13.58-28.48,34.12-53.56,56.38-75.67,23.09-22.94,48.63-43.32,73.9-63.75q41.84-33.83,82.35-69.26c57.45-50.34,112.1-104.37,157-166.4,46-63.54,78.59-136.88,102.63-211.25,24.75-76.57,39-156.62,39.63-237.15A638.23,638.23,0,0,0,1566,686.46a397.94,397.94,0,0,1-18.12,73.45c-22,63-57.4,119.5-96.82,172.93s-83.29,102.91-126,153.48c-44.1,52.21-86.48,105.8-123.37,163.4-40.38,63-76.52,130.23-101.24,201a901.72,901.72,0,0,0-41.79,176.69q-.39,15.63-.46,31.25C1058.15,1667.77,1057.91,1676.85,1057.63,1685.94Z" transform="translate(-310.88 -48)"/><path class="cls-3" d="M957.62,1415.12c8.91,35.51,23.24,69,37.51,102.61,11.37,26.78,22.5,53.59,32.89,80.73-1.3-20.31-2-40.65-1.65-60.89a774.32,774.32,0,0,1,11.25-119.17c7.2-40.94,20.46-80.41,36.8-118.58,16.46-38.46,38-74.72,57.65-111.59s38.28-74.43,55.18-112.71c33.37-75.63,59.86-155.69,71.63-238.18,11.43-79.93,4.61-160.42-18.51-237.64-5.4-18-12.59-36-16.4-54.39-.89-4.34-3.66-9-5.35-13-1.81-4.35-3.65-8.67-5.5-13-1-2.25-1.94-4.49-2.92-6.72a505.48,505.48,0,0,1-1.12,63.37A499.61,499.61,0,0,1,1191,677.27c-10.84,37.37-27.23,72.83-46.22,106.7-38.91,69.39-89.1,131.88-125.34,202.85-33.76,66.1-56.22,137.71-67.77,211C940.46,1269.16,940,1345,957.62,1415.12Z" transform="translate(-310.88 -48)"/><path class="cls-2" d="M639.69,1072.68c63.25,132.44,150.23,252.29,248.89,360.75,21.25,23.37,42.49,46.65,62.25,71-4.6-11.84-9-23.76-13.05-35.82-1.77-3.87-3.63-7.72-5.62-11.52-8.22-15.76-13.68-33.18-20.89-49.44s-15-32.4-23.71-48c-17.6-31.59-38.87-60.89-61.15-89.3-22.78-29.05-49.83-56-75.82-83.08C713.79,1148.92,674.63,1112.82,639.69,1072.68Z" transform="translate(-310.88 -48)"/><path class="cls-2" d="M357.58,981.22c.63,9.79,1.68,19.57,3,29.3,1.14,8.65,2.75,17.58,4.95,28.16A439.62,439.62,0,0,0,382,1098.25c13.4,37.26,30.87,72,52.07,106.1,9.15,14.68,19,28.92,29.37,42.78,2.49,3.34,5,6.65,7.58,9.93q1.93,2.48,3.88,4.91l2.26,2.83q8.34,10.21,17.05,20.12a860.81,860.81,0,0,0,74.7,74.61C623.77,1408.42,677,1446,738.38,1486.85c59,39.26,120,75.28,179.8,113.27,29.44,18.7,60.22,36.56,88.33,57.5C993,1617.8,972,1580.5,946.69,1546.19c-22.37-30.31-48.52-56.93-74.77-83.81q-42.49-43.53-82-89.89c-52.64-62-98.83-129.92-139.51-200.28-43.52-75.31-77.87-155.69-107.08-237.51-23.23-65.1-45.83-131.51-56.72-200-5.24-32.83-5-65.88-6.87-99a304.69,304.69,0,0,0-3.39-32.84c-.51.84-1,1.67-1.55,2.49-9.87,16-19,32.31-27.73,48.91-9,17.24-17.45,34.82-25.64,52.45-3.95,8.52-7.74,17.1-11.44,25.71q-2.75,6.42-5.42,12.9c0,.09-1.18,2.91-1.6,3.93q-1.5,3.76-3,7.55c-13.26,33.93-24.77,68.74-32.86,104.28a414,414,0,0,0-9.23,58.37A423.42,423.42,0,0,0,357.58,981.22Z" transform="translate(-310.88 -48)"/><path class="cls-2" d="M712.67,539.88C715.86,618,753.51,690,786,759.49c17.81,38.15,34.74,76.51,48.93,116.18a1299.71,1299.71,0,0,1,37.4,125.4c18.26,73.43,29.17,148.74,41.7,223.39,2.42-23.23,6-46.34,10.71-69.19a97.07,97.07,0,0,1,.85-16.91c1.71-10.81,3.53-21.61,5.39-32.39,3.63-21.08,7.31-42.17,11.33-63.18,8.15-42.53,15.79-85.23,21.58-128.17,5.65-41.82,9.19-84,8.71-126.29-.46-41.3-6-82.39-14-122.85-16.45-82.58-42.77-162.8-71.76-241.73C861.56,355.13,833.46,287.41,810.4,218c-1.92,5-4,10-6,14.94-11.66,27.89-26.28,54.38-39.2,81.67C749.43,347.9,737.5,383.69,728,419.2,717.55,458.35,711,499.26,712.67,539.88Z" transform="translate(-310.88 -48)"/><path class="cls-3" d="M502.58,267.12c6.73,40.54,5.25,80.33,1.81,121.12-1.89,22.57-4,45.12-5.63,67.71q-1.17,16.32-1.83,32.65c-.46,11.61-1.84,23.17-2.05,34.79q-.08,3.79,0,7.58a20.33,20.33,0,0,1,2,1c8.76,4.87,11.75,14,10.38,23.41,1.19-7.26.35,3,.31,5-.06,3.55,0,7.09.15,10.63,0,.18,0,.35,0,.49s.14.54.22.88c.53,2.26,1.23,4.52,1.8,6.8,1.59,6.23,2.66,12.6,3.7,18.95,3.34,20.29,4.24,40.84,4.93,61.36s1.42,40.85,4,61.17c2.58,20.65,7,41,12.12,61.15C545.16,824,559,865.46,573.05,906.55q6,17.58,12.39,35.05c1.51,2.11,3,4.22,4.6,6.31,11.05,14.78,21.29,30.11,32.69,44.67,21.07,26.88,47.23,52.48,71.94,77.69,25.71,26.23,52.3,51.59,78.09,77.74a776.25,776.25,0,0,1,75.62,90c21.16,29.23,39.32,60.7,55.15,93.26-6.92-30.2-12.45-60.74-18.27-91.14-16.11-84-33.17-167.62-55.2-250.3a1240.15,1240.15,0,0,0-40.45-125.51c-14.35-37.38-31.52-72.55-47.83-108.17-32-70-63.81-143.38-64.82-221.51-.08-.89-.18-1.8-.27-2.71-1.29-13.57-3.4-27.78-5.84-40.35a596.8,596.8,0,0,0-24.74-88.24c-21.82-60.63-50-117.36-87.06-170.78-30.54-44-67.35-85.37-111.16-116.39q10.73,18.74,19.75,38.39A439.32,439.32,0,0,1,502.58,267.12Z" transform="translate(-310.88 -48)"/></svg>